<?xml version="1.0" encoding="UTF-8" standalone="no"?>
<!-- Created with Inkscape (http://www.inkscape.org/) -->

<svg
   width="700"
   height="1050"
   id="svg2"
   version="1.1"
   inkscape:version="1.2.2 (732a01da63, 2022-12-09)"
   sodipodi:docname="UZ_road_sign_5.20.4_B.svg"
   xml:space="preserve"
   xmlns:inkscape="http://www.inkscape.org/namespaces/inkscape"
   xmlns:sodipodi="http://sodipodi.sourceforge.net/DTD/sodipodi-0.dtd"
   xmlns="http://www.w3.org/2000/svg"
   xmlns:svg="http://www.w3.org/2000/svg"
   xmlns:rdf="http://www.w3.org/1999/02/22-rdf-syntax-ns#"
   xmlns:cc="http://creativecommons.org/ns#"
   xmlns:dc="http://purl.org/dc/elements/1.1/"><title
     id="title3002">5.20.4 Yoʻllarining bir sathda kesishmaydigan qismlarida burilish yoki qayrilib olish yoʻnalish koʻrsatkichi</title><defs
     id="defs4" /><sodipodi:namedview
     id="base"
     pagecolor="#ffffff"
     bordercolor="#666666"
     borderopacity="1.0"
     inkscape:pageopacity="0.0"
     inkscape:pageshadow="2"
     inkscape:zoom="1.5257143"
     inkscape:cx="461.75094"
     inkscape:cy="359.50374"
     inkscape:document-units="px"
     inkscape:current-layer="g18343"
     showgrid="false"
     inkscape:window-width="1920"
     inkscape:window-height="991"
     inkscape:window-x="-9"
     inkscape:window-y="-9"
     inkscape:window-maximized="1"
     inkscape:showpageshadow="2"
     inkscape:pagecheckerboard="0"
     inkscape:deskcolor="#d1d1d1"
     showguides="true" /><metadata
     id="metadata7"><rdf:RDF><cc:Work
         rdf:about=""><dc:format>image/svg+xml</dc:format><dc:type
           rdf:resource="http://purl.org/dc/dcmitype/StillImage" /><dc:title>5.20.4 Yoʻllarining bir sathda kesishmaydigan qismlarida burilish yoki qayrilib olish yoʻnalish koʻrsatkichi</dc:title><cc:license
           rdf:resource="http://creativecommons.org/licenses/by-sa/3.0/" /><dc:description>ГОСТ Р 52290-2004
Размеры и пропорции по типоразмеру II</dc:description></cc:Work><cc:License
         rdf:about="http://creativecommons.org/licenses/by-sa/3.0/"><cc:permits
           rdf:resource="http://creativecommons.org/ns#Reproduction" /><cc:permits
           rdf:resource="http://creativecommons.org/ns#Distribution" /><cc:requires
           rdf:resource="http://creativecommons.org/ns#Notice" /><cc:requires
           rdf:resource="http://creativecommons.org/ns#Attribution" /><cc:permits
           rdf:resource="http://creativecommons.org/ns#DerivativeWorks" /><cc:requires
           rdf:resource="http://creativecommons.org/ns#ShareAlike" /></cc:License></rdf:RDF></metadata><g
     inkscape:label="Layer 1"
     inkscape:groupmode="layer"
     id="layer1"
     transform="translate(0,-2.362183)"><rect
       style="color:#000000;fill:#ffffff;fill-opacity:1;fill-rule:nonzero;stroke:none;stroke-width:3.54299997999999980;marker:none;visibility:visible;display:inline;overflow:visible;enable-background:accumulate;opacity:1"
       id="rect10481"
       width="700"
       height="1050"
       x="0"
       y="2.3621831"
       rx="45"
       ry="45" /><path
       inkscape:connector-curvature="0"
       style="color:#000000;display:inline;overflow:visible;visibility:visible;opacity:1;fill:#0d69e1;fill-opacity:1;fill-rule:nonzero;stroke:none;stroke-width:3.543;marker:none;enable-background:accumulate"
       d="m 45.000009,22.362155 c -13.85,0 -25,11.15 -25,25 V 1007.3622 c 0,13.85 11.15,25 25,25 H 655.00001 c 13.85,0 25,-11.15 25,-25 V 47.362155 c 0,-13.85 -11.15,-25 -25,-25 z"
       id="rect10483"
       sodipodi:nodetypes="sssssssss" /><rect
       ry="44"
       rx="44"
       y="3.3621678"
       x="1.0000153"
       height="1048"
       width="698"
       id="rect10490"
       style="color:#000000;fill:none;stroke:#000000;stroke-width:1.99999988000000010;stroke-miterlimit:4;stroke-opacity:1;stroke-dasharray:none;marker:none;visibility:visible;display:inline;overflow:visible;enable-background:accumulate;opacity:1" /><g
       id="g18343"
       transform="translate(1032.2151,36.023765)"><path
         id="rect17691"
         style="fill:#ffffff;fill-rule:evenodd;stroke:none;stroke-width:422.677;stroke-linecap:round;stroke-dasharray:none;stroke-opacity:1;paint-order:stroke fill markers"
         d="m -866.95081,119.22396 v 355.71015 80.98449 142.66054 l -43.3498,-54.35246 v -34.8666 c 0,-24.5124 15.9949,-45.14515 38.1553,-52.09271 v -81.95472 c -66.8053,7.32572 -118.4655,63.58355 -118.4655,132.40292 v 36.51111 l 123.66,158.20675 v 60.0443 h 124.2153 V 555.17327 474.86311 119.22396 Z m 206.7733,0 v 333.70408 21.93507 80.31016 20.97672 286.32774 h 124.2159 V 574.63559 451.41364 279.24606 h 27.2288 c 30.251,0 54.6011,24.35017 54.6011,54.60101 v 86.41508 c 0,30.25031 -24.3501,54.60096 -54.6011,54.60096 h -22.0348 v 80.31016 h 23.6793 c 73.8292,0 133.2667,-59.43746 133.2667,-133.2666 v -89.70416 c 0,-73.82915 -59.4375,-133.2666 -133.2667,-133.2666 h -28.8733 v -79.71195 z m -77.3758,355.63915 v 80.31016 h 72.1936 v -80.31016 z"
         sodipodi:nodetypes="cccccsccsccccccccccccccccccssssccsssscccccccc" /><path
         style="color:#000000;fill:#000000;fill-rule:evenodd;stroke-width:8.07674;stroke-linecap:round;-inkscape-stroke:none;paint-order:stroke fill markers"
         d="m -737.55221,493.6751 v 28.40668 h 72.1936 V 493.6751 Z"
         id="path18321" /><path
         style="color:#000000;fill:#000000;fill-rule:evenodd;stroke-width:8.07674;stroke-linecap:round;-inkscape-stroke:none;paint-order:stroke fill markers"
         d="m -899.02461,493.6751 c -29.7148,0 -54.5182,24.80339 -54.5182,54.51816 v 32.60676 h -14.8476 l 29.0454,66.51505 29.0455,-66.51505 h -14.8484 v -32.59489 c 0,-14.47232 11.6512,-26.12335 26.1233,-26.12335 h 26.8804 V 493.6751 Z"
         id="path18317" /><path
         style="color:#000000;fill:#000000;fill-rule:evenodd;stroke-width:8.07674;stroke-linecap:round;-inkscape-stroke:none;paint-order:stroke fill markers"
         d="m -504.47801,226.91162 c -40.0436,0 -72.2766,32.23296 -72.2766,72.2769 v 27.7969 h 28.4071 v -28.44766 c 0,-23.94444 19.2746,-43.21939 43.219,-43.21939 h 23.6481 5.8328 1.5501 c 14.4722,0 26.1234,11.65095 26.1234,26.12328 v 54.73657 16.39809 115.08199 c 0,14.47227 -11.6512,26.12334 -26.1234,26.12334 h -56.669 v 28.40669 h 56.6806 c 29.7154,0 54.5182,-24.80377 54.5182,-54.51815 V 352.57631 336.17822 281.42977 c 0,-29.71433 -24.8028,-54.51815 -54.5182,-54.51815 h -1.5617 -5.8328 z"
         id="path17946"
         sodipodi:nodetypes="ssccssccssccssccssccssccs" /><rect
         style="fill:#000000;fill-rule:evenodd;stroke:none;stroke-width:261.926;stroke-linecap:round;stroke-dasharray:none;stroke-opacity:1;paint-order:stroke fill markers"
         id="rect17430"
         width="10.032855"
         height="67.390488"
         x="-603.08429"
         y="607.76807" /><rect
         style="fill:#000000;fill-rule:evenodd;stroke:none;stroke-width:261.926;stroke-linecap:round;stroke-dasharray:none;stroke-opacity:1;paint-order:stroke fill markers"
         id="rect17432"
         width="10.032855"
         height="67.390488"
         x="-603.08429"
         y="757.99432" /><rect
         style="fill:#000000;fill-rule:evenodd;stroke:none;stroke-width:56.5373;stroke-linecap:round;stroke-dasharray:none;stroke-opacity:1;paint-order:stroke fill markers"
         id="rect17438"
         width="10.032855"
         height="67.390488"
         x="-809.86121"
         y="607.76807" /><rect
         style="fill:#000000;fill-rule:evenodd;stroke:none;stroke-width:56.5373;stroke-linecap:round;stroke-dasharray:none;stroke-opacity:1;paint-order:stroke fill markers"
         id="rect17440"
         width="10.032855"
         height="67.390488"
         x="-809.86121"
         y="757.99432" /><rect
         style="fill:#000000;fill-rule:evenodd;stroke:none;stroke-width:56.5373;stroke-linecap:round;stroke-dasharray:none;stroke-opacity:1;paint-order:stroke fill markers"
         id="rect17422"
         width="10.032855"
         height="67.390488"
         x="-809.85962"
         y="157.089" /><rect
         style="fill:#000000;fill-rule:evenodd;stroke:none;stroke-width:261.926;stroke-linecap:round;stroke-dasharray:none;stroke-opacity:1;paint-order:stroke fill markers"
         id="rect17424"
         width="10.032855"
         height="67.390488"
         x="-603.08429"
         y="157.089" /><rect
         style="fill:#000000;fill-rule:evenodd;stroke:none;stroke-width:261.926;stroke-linecap:round;stroke-dasharray:none;stroke-opacity:1;paint-order:stroke fill markers"
         id="rect17426"
         width="10.032855"
         height="67.390488"
         x="-603.08429"
         y="307.31534" /><rect
         style="fill:#000000;fill-rule:evenodd;stroke:none;stroke-width:56.5373;stroke-linecap:round;stroke-dasharray:none;stroke-opacity:1;paint-order:stroke fill markers"
         id="rect17434"
         width="10.032855"
         height="67.390488"
         x="-809.86121"
         y="307.31534" /><rect
         style="fill:#000000;fill-rule:evenodd;stroke:none;stroke-width:56.5373;stroke-linecap:round;stroke-dasharray:none;stroke-opacity:1;paint-order:stroke fill markers"
         id="rect18325"
         width="10.032855"
         height="67.390488"
         x="-809.86121"
         y="457.54166" /><rect
         style="fill:#000000;fill-rule:evenodd;stroke:none;stroke-width:261.926;stroke-linecap:round;stroke-dasharray:none;stroke-opacity:1;paint-order:stroke fill markers"
         id="rect18327"
         width="10.032855"
         height="67.390488"
         x="-603.08429"
         y="457.54166" /></g></g></svg>
