<?xml version="1.0" encoding="UTF-8" standalone="no"?>
<!-- Created with Inkscape (http://www.inkscape.org/) -->

<svg
   width="1600"
   height="2000"
   id="svg2"
   version="1.1"
   inkscape:version="1.2.2 (732a01da63, 2022-12-09)"
   sodipodi:docname="20220202193739!RU_road_sign_6.17.svg"
   xml:space="preserve"
   xmlns:inkscape="http://www.inkscape.org/namespaces/inkscape"
   xmlns:sodipodi="http://sodipodi.sourceforge.net/DTD/sodipodi-0.dtd"
   xmlns="http://www.w3.org/2000/svg"
   xmlns:svg="http://www.w3.org/2000/svg"
   xmlns:rdf="http://www.w3.org/1999/02/22-rdf-syntax-ns#"
   xmlns:cc="http://creativecommons.org/ns#"
   xmlns:dc="http://purl.org/dc/elements/1.1/"><title
     id="title3002">5.31 Aylanib oʻtish tasviri</title><defs
     id="defs4"><clipPath
       clipPathUnits="userSpaceOnUse"
       id="clipPath13619"><path
         inkscape:connector-curvature="0"
         d="m 60.025,220.275 105.35,0 0,-129.6 -105.35,0 0,129.6 z"
         id="path13621" /></clipPath><clipPath
       clipPathUnits="userSpaceOnUse"
       id="clipPath13627"><path
         inkscape:connector-curvature="0"
         d="m 60.02499,90.675 105.35001,0 0,129.59999 -105.35001,0 0,-129.59999 z"
         id="path13629" /></clipPath><clipPath
       clipPathUnits="userSpaceOnUse"
       id="clipPath13635"><path
         inkscape:connector-curvature="0"
         d="m 60.025,220.275 105.35,0 0,-129.6 -105.35,0 0,129.6 z"
         id="path13637" /></clipPath><clipPath
       clipPathUnits="userSpaceOnUse"
       id="clipPath13645"><path
         inkscape:connector-curvature="0"
         d="m -0.569,-0.7 5.381,0 0,6.34301 -5.381,0 0,-6.34301 z"
         id="path13647" /></clipPath><clipPath
       clipPathUnits="userSpaceOnUse"
       id="clipPath13653"><path
         inkscape:connector-curvature="0"
         d="M 0,1 1,1 1,0 0,0 0,1 z"
         id="path13655" /></clipPath><style
       id="style19628">.a{fill:#fff}</style></defs><sodipodi:namedview
     id="base"
     pagecolor="#ffffff"
     bordercolor="#666666"
     borderopacity="1.0"
     inkscape:pageopacity="0.0"
     inkscape:pageshadow="2"
     inkscape:zoom="0.3535534"
     inkscape:cx="1079.0449"
     inkscape:cy="889.54031"
     inkscape:document-units="px"
     inkscape:current-layer="layer1"
     showgrid="false"
     inkscape:window-width="1920"
     inkscape:window-height="991"
     inkscape:window-x="-9"
     inkscape:window-y="-9"
     inkscape:window-maximized="1"
     inkscape:snap-bbox="true"
     inkscape:bbox-paths="true"
     inkscape:bbox-nodes="true"
     inkscape:snap-bbox-edge-midpoints="true"
     inkscape:snap-bbox-midpoints="true"
     showguides="true"
     inkscape:guide-bbox="true"
     inkscape:object-paths="true"
     inkscape:snap-intersection-paths="true"
     inkscape:object-nodes="true"
     inkscape:snap-smooth-nodes="true"
     inkscape:snap-midpoints="true"
     inkscape:snap-object-midpoints="true"
     inkscape:snap-center="true"
     inkscape:pagecheckerboard="0"
     inkscape:showpageshadow="2"
     inkscape:deskcolor="#d1d1d1" /><metadata
     id="metadata7"><rdf:RDF><cc:Work
         rdf:about=""><dc:format>image/svg+xml</dc:format><dc:type
           rdf:resource="http://purl.org/dc/dcmitype/StillImage" /><dc:title>5.31 Aylanib oʻtish tasviri</dc:title><cc:license
           rdf:resource="http://creativecommons.org/licenses/by-sa/3.0/" /><dc:description>ГОСТ Р 52290-2004</dc:description></cc:Work><cc:License
         rdf:about="http://creativecommons.org/licenses/by-sa/3.0/"><cc:permits
           rdf:resource="http://creativecommons.org/ns#Reproduction" /><cc:permits
           rdf:resource="http://creativecommons.org/ns#Distribution" /><cc:requires
           rdf:resource="http://creativecommons.org/ns#Notice" /><cc:requires
           rdf:resource="http://creativecommons.org/ns#Attribution" /><cc:permits
           rdf:resource="http://creativecommons.org/ns#DerivativeWorks" /><cc:requires
           rdf:resource="http://creativecommons.org/ns#ShareAlike" /></cc:License></rdf:RDF></metadata><g
     inkscape:label="Layer 1"
     inkscape:groupmode="layer"
     id="layer1"
     transform="translate(0,947.6378)"><rect
       style="color:#000000;fill:#ffffff;fill-opacity:1;fill-rule:nonzero;stroke:none;stroke-width:3.54299997999999980;marker:none;visibility:visible;display:inline;overflow:visible;enable-background:accumulate;opacity:1"
       id="rect10858"
       width="1600"
       height="2000"
       x="-1"
       y="-945.63782"
       rx="45"
       ry="45" /><rect
       ry="25"
       rx="25"
       y="-927.63782"
       x="20"
       height="1960"
       width="1560"
       id="rect14407"
       style="color:#000000;fill:#ffcc00;fill-opacity:1;fill-rule:nonzero;stroke:none;stroke-width:3.54299998;marker:none;visibility:visible;display:inline;overflow:visible;enable-background:accumulate" /><rect
       ry="44"
       rx="44"
       y="-946.63782"
       x="1"
       height="1998"
       width="1598"
       id="rect13604"
       style="color:#000000;fill:none;stroke:#000000;stroke-width:2;stroke-miterlimit:4;stroke-opacity:1;stroke-dasharray:none;marker:none;visibility:visible;display:inline;overflow:visible;enable-background:accumulate;opacity:1" /><path
       style="color:#000000;fill:#000000;fill-opacity:1;fill-rule:nonzero;stroke:none;stroke-width:3.54299997999999980;marker:none;visibility:visible;display:inline;overflow:visible;enable-background:accumulate;opacity:1"
       d="M 45,10 C 25.61,10 10,25.61 10,45 l 0,1910 c 0,19.39 15.61,35 35,35 l 1510,0 c 19.39,0 35,-15.61 35,-35 l 0,-1910 c 0,-19.39 -15.61,-35 -35,-35 z m 0,10 1510,0 c 13.85,0 25,11.15 25,25 l 0,1910 c 0,13.85 -11.15,25 -25,25 l -1510,0 c -13.85,0 -25,-11.15 -25,-25 L 20,45 C 20,31.15 31.15,20 45,20 z"
       id="rect13449"
       transform="translate(0,-947.6378)"
       inkscape:connector-curvature="0"
       sodipodi:nodetypes="sssssssssccssccssc" /><path
       style="opacity:1;color:#000000;fill:#000000;fill-opacity:1;fill-rule:nonzero;stroke:none;stroke-width:3.54299997999999980;marker:none;visibility:visible;display:inline;overflow:visible;enable-background:accumulate"
       d="M 380 400 L 270 590 L 340.40625 590 L 340.40625 1985 L 419.59375 1985 L 419.59375 1650 L 1258.75 1650 C 1273.3977 1679.857 1304.0933 1700.4062 1339.5938 1700.4062 C 1389.2994 1700.4062 1429.5938 1660.112 1429.5938 1610.4062 C 1429.5938 1574.9058 1409.0445 1544.2102 1379.1875 1529.5625 L 1379.1875 971.25 C 1409.0445 956.60232 1429.5938 925.90669 1429.5938 890.40625 C 1429.5938 840.70062 1389.2994 800.40625 1339.5938 800.40625 C 1304.0933 800.40625 1273.3977 820.95546 1258.75 850.8125 L 419.59375 850.8125 L 419.59375 590 L 490 590 L 380 400 z M 1339.5938 825.40625 C 1375.4922 825.40625 1404.5938 854.50774 1404.5938 890.40625 C 1404.5938 926.30476 1375.4922 955.40625 1339.5938 955.40625 C 1303.6952 955.40625 1274.5938 926.30476 1274.5938 890.40625 C 1274.5938 854.50774 1303.6952 825.40625 1339.5938 825.40625 z M 419.59375 930 L 1258.75 930 C 1267.5365 947.91001 1282.09 962.46346 1300 971.25 L 1300 1529.5625 C 1282.09 1538.349 1267.5365 1552.9025 1258.75 1570.8125 L 419.59375 1570.8125 L 419.59375 930 z M 1339.5938 1545.4062 C 1375.4922 1545.4062 1404.5938 1574.5078 1404.5938 1610.4062 C 1404.5938 1646.3048 1375.4922 1675.4062 1339.5938 1675.4062 C 1303.6952 1675.4062 1274.5938 1646.3048 1274.5938 1610.4062 C 1274.5938 1574.5078 1303.6952 1545.4062 1339.5938 1545.4062 z "
       transform="translate(0,-947.6378)"
       id="rect14561" /><path
       sodipodi:type="arc"
       style="opacity:1;color:#000000;fill:#ffffff;fill-opacity:1;fill-rule:nonzero;stroke:none;stroke-width:1px;marker:none;visibility:visible;display:inline;overflow:visible;enable-background:accumulate"
       id="path5334"
       sodipodi:cx="-87.720657"
       sodipodi:cy="432.25998"
       sodipodi:rx="22.107042"
       sodipodi:ry="29.465372"
       d="m -65.613615,432.25998 a 22.107042,29.465372 0 1 1 -44.214085,0 22.107042,29.465372 0 1 1 44.214085,0 z"
       transform="matrix(9.3966326,0,0,7.0500305,1204.2789,-2744.6838)" /><path
       inkscape:connector-curvature="0"
       style="opacity:1;color:#000000;fill:#ff0000;fill-opacity:1;fill-rule:nonzero;stroke:none;stroke-width:1px;marker:none;visibility:visible;display:inline;overflow:visible;enable-background:accumulate"
       d="m 379.99999,52.762181 c -138.07118,0 -250,111.928809 -250,249.999989 0,138.07119 111.92882,250 250,250 138.07119,0 250,-111.92881 250,-250 0,-138.07118 -111.92881,-249.999989 -250,-249.999989 z m 0,42.268321 c 114.72655,0 207.73168,93.005118 207.73168,207.731668 0,114.72656 -93.00513,207.73168 -207.73168,207.73168 -114.72655,0 -207.73168,-93.00512 -207.73168,-207.73168 0,-114.72655 93.00513,-207.731668 207.73168,-207.731668 z"
       id="path4775-9" /><g
       aria-label="Chirchiq"
       id="text1544"
       style="font-size:266.667px;line-height:1.25;font-family:'Russian Road Sign';-inkscape-font-specification:'Russian Road Sign';letter-spacing:-5px;word-spacing:0px"><path
         d="m 629.07765,-826.34725 c -41.06672,0 -60.80008,35.20004 -60.80008,78.4001 0,43.46672 19.73336,78.40009 60.80008,78.40009 28.2667,0 44.80005,-16.80002 54.1334,-41.06671 l -25.0667,-9.33335 c -5.60001,18.66669 -15.46669,26.13337 -29.0667,26.13337 -20.53336,0 -35.46671,-20.53336 -35.46671,-54.1334 0,-33.60004 14.93335,-54.1334 35.46671,-54.1334 13.60001,0 23.46669,7.46667 29.0667,26.13336 l 25.0667,-9.33334 c -9.33335,-24.2667 -25.8667,-41.06672 -54.1334,-41.06672 z"
         id="path19711" /><path
         d="m 773.41102,-779.68053 c -18.66669,0 -31.73337,16.80003 -31.73337,16.80003 v -59.73341 h -22.40003 v 149.33351 h 22.40003 v -67.20008 c 5.60001,-11.20001 15.20002,-20.53336 26.13336,-20.53336 11.20002,0 14.93336,9.33335 14.93336,14.93336 v 72.80008 h 22.40002 v -74.66675 c 0,-18.66669 -11.20001,-31.73338 -31.73337,-31.73338 z"
         id="path19713" /><path
         d="m 864.94443,-812.2139 c 0,-8.80001 -7.46668,-16.26668 -16.26669,-16.26668 -9.06668,0 -16.26669,7.46667 -16.26669,16.26668 0,9.06668 7.20001,16.26669 16.26669,16.26669 8.80001,0 16.26669,-7.20001 16.26669,-16.26669 z m -27.4667,138.9335 h 22.40002 v -104.53346 h -22.40002 z"
         id="path19715" /><path
         d="m 951.94477,-779.68053 c -18.66669,0 -29.33337,14.13336 -29.33337,14.13336 -1.86667,-2.66667 -2.93333,-7.46668 -3.73333,-12.26669 h -19.20003 v 104.53346 h 22.40003 v -67.20008 c 5.60001,-11.20001 13.33335,-16.80002 24.2667,-16.80002 5.6,0 11.20001,0 14.93335,3.73334 l 7.46667,-22.40003 c -5.06667,-3.46667 -9.33334,-3.73334 -16.80002,-3.73334 z"
         id="path19717" /><path
         d="m 1047.7449,-781.54719 c -28,0 -50.40005,22.40002 -50.40005,56.00006 0,33.60005 22.40005,56.00007 50.40005,56.00007 20.8,0 37.6001,-11.73335 44.8001,-31.73337 l -21.0667,-8.00001 c -4,13.60002 -12.5334,21.06669 -23.7334,21.06669 -14.9333,0 -26.1334,-14.93335 -26.1334,-37.33338 0,-22.40002 11.2001,-37.33337 26.1334,-37.33337 11.2,0 19.7334,7.46667 23.7334,21.06669 l 21.0667,-8.00001 c -7.2,-20.00003 -24.0001,-31.73337 -44.8001,-31.73337 z"
         id="path19719" /><path
         d="m 1180.8784,-779.68053 c -18.6667,0 -31.7334,16.80003 -31.7334,16.80003 v -59.73341 h -22.4 v 149.33351 h 22.4 v -67.20008 c 5.6,-11.20001 15.2,-20.53336 26.1334,-20.53336 11.2,0 14.9333,9.33335 14.9333,14.93336 v 72.80008 h 22.4 v -74.66675 c 0,-18.66669 -11.2,-31.73338 -31.7333,-31.73338 z"
         id="path19721" /><path
         d="m 1272.4118,-812.2139 c 0,-8.80001 -7.4667,-16.26668 -16.2667,-16.26668 -9.0667,0 -16.2667,7.46667 -16.2667,16.26668 0,9.06668 7.2,16.26669 16.2667,16.26669 8.8,0 16.2667,-7.20001 16.2667,-16.26669 z m -27.4667,138.9335 h 22.4 v -104.53346 h -22.4 z"
         id="path19723" /><path
         d="m 1353.8121,-781.54719 c -18.6667,0 -46.6667,11.20001 -46.6667,56.00006 0,46.66673 35.4667,56.00007 46.6667,56.00007 14.9334,0 26.1334,-11.20001 26.1334,-13.06668 v 54.1334 h 22.4 v -149.33352 h -18.6667 c -0.8,4.53334 -2.1333,8.26668 -3.7333,11.20002 0,0 -7.4667,-14.93335 -26.1334,-14.93335 z m 0,20.53335 c 10.6667,0 20.5334,7.46668 26.1334,18.66669 v 39.20005 c -5.6,9.33335 -16.5334,14.93335 -26.1334,14.93335 -13.0667,0 -24.2667,-14.93335 -24.2667,-37.33338 0,-22.40002 11.2,-35.46671 24.2667,-35.46671 z"
         id="path19725" /></g><g
       aria-label="Yangibozor"
       id="text5330"
       style="font-size:266.667px;line-height:1.25;font-family:'Russian Road Sign';-inkscape-font-specification:'Russian Road Sign';letter-spacing:-20px;word-spacing:0px"><path
         d="m 568.24445,-207.63779 h 26.13337 v -59.7334 l 46.66672,-89.60011 h -29.8667 l -29.8667,61.60007 -29.86671,-61.60007 h -29.8667 l 46.66672,89.60011 z"
         id="path19728" /><path
         d="m 703.1778,-315.90459 c -18.66669,0 -33.60004,7.46668 -42.93338,13.06669 l 11.20001,18.13335 c 5.60001,-5.06667 16.80002,-12.53335 28.00004,-12.53335 13.06668,0 22.40002,9.33335 22.40002,16.80002 v 5.60001 c -14.93335,3.73334 -63.46674,2.13334 -63.46674,37.33338 v 0 c 0,22.40003 18.66669,33.60004 33.60004,33.60004 14.93335,0 26.13337,-9.33334 29.8667,-16.80002 1.86667,14.93335 9.33335,16.80002 22.40003,16.80002 l 9.33335,-18.66669 c -3.73334,0 -9.33335,0 -9.33335,-9.33334 v -46.66673 c 0,-18.66669 -16.80002,-37.33338 -41.06672,-37.33338 z m 18.66669,57.86674 v 18.66669 c 0,1.86667 -13.06668,16.80002 -24.26669,16.80002 -3.73334,0 -14.93335,-3.73334 -14.93335,-16.80002 0,-16.80002 29.8667,-14.93335 39.20004,-18.66669 z"
         id="path19730" /><path
         d="m 825.0446,-314.03792 c -18.66669,0 -31.20004,14.13335 -31.20004,14.13335 -1.86667,-2.66667 -2.93334,-7.46667 -3.73334,-12.26668 H 770.9112 v 104.53346 h 22.40002 v -67.20008 c 5.60001,-11.20001 15.20002,-20.53336 26.13337,-20.53336 11.20001,0 14.93335,9.33335 14.93335,14.93335 v 72.80009 h 22.40003 v -74.66675 c 0,-18.66669 -11.20002,-31.73338 -31.73337,-31.73338 z"
         id="path19732" /><path
         d="m 917.04469,-315.90459 c -18.66669,0 -50.40007,11.20002 -50.40007,56.00007 0,46.66673 33.60005,56.00007 50.40007,56.00007 16.80002,0 26.13336,-13.06668 26.13336,-14.93335 v 16.80002 c 0,14.93335 -14.93335,23.20003 -26.13336,23.20003 -18.66669,0 -35.46671,-8.26668 -41.06672,-12.00002 l -9.33335,16.80002 c 5.60001,5.60001 25.33337,14.13335 50.40007,14.13335 24.26669,0 48.53339,-14.13335 48.53339,-42.13338 v -110.13347 h -18.66669 c -1.06667,4.80001 -2.13334,8.53335 -3.73334,11.20002 0,0 -7.46667,-14.93336 -26.13336,-14.93336 z m 0,20.53336 c 10.66668,0 20.53335,7.46668 26.13336,18.66669 v 33.60004 c -5.60001,9.33335 -11.20001,20.53336 -26.13336,20.53336 -13.06669,0 -28.00004,-14.93335 -28.00004,-37.33338 0,-22.40002 14.93335,-35.46671 28.00004,-35.46671 z"
         id="path19734" /><path
         d="m 1010.3781,-346.57129 c 0,-8.80001 -7.4667,-16.26669 -16.26668,-16.26669 -9.06667,0 -16.26668,7.46668 -16.26668,16.26669 0,9.06668 7.20001,16.26669 16.26668,16.26669 8.79998,0 16.26668,-7.20001 16.26668,-16.26669 z m -27.46669,138.9335 h 22.39999 v -104.53346 h -22.39999 z"
         id="path19736" /><path
         d="m 1078.6451,-203.90445 c 18.6667,0 46.6667,-11.20001 46.6667,-56.00007 0,-46.66672 -35.4667,-56.00007 -46.6667,-56.00007 -14.9333,0 -26.1333,11.20002 -26.1333,13.06669 v -54.1334 h -22.4001 v 149.33351 h 18.6667 c 0.8,-4.53334 2.1334,-8.26667 3.7334,-11.20001 0,0 7.4666,14.93335 26.1333,14.93335 z m 0,-20.53336 c -10.6667,0 -20.5333,-7.46667 -26.1333,-18.66669 v -39.20004 c 5.6,-9.33335 16.5333,-14.93336 26.1333,-14.93336 13.0667,0 24.2667,14.93336 24.2667,37.33338 0,22.40003 -11.2,35.46671 -24.2667,35.46671 z"
         id="path19738" /><path
         d="m 1187.4452,-315.90459 c -28,0 -48.5334,22.40003 -48.5334,56.00007 0,33.60004 20.5334,56.00007 48.5334,56.00007 28.0001,0 48.5334,-22.40003 48.5334,-56.00007 0,-33.60004 -20.5333,-56.00007 -48.5334,-56.00007 z m 0,18.66669 c 14.9334,0 26.1334,14.93336 26.1334,37.33338 0,22.40003 -11.2,37.33338 -26.1334,37.33338 -14.9333,0 -26.1333,-14.93335 -26.1333,-37.33338 0,-22.40002 11.2,-37.33338 26.1333,-37.33338 z"
         id="path19740" /><path
         d="m 1260.7785,-207.63779 h 76.5335 v -20.53336 h -48.5334 l 46.6667,-61.60007 v -22.40003 h -74.6668 v 20.53336 h 48.5334 l -48.5334,63.46674 z"
         id="path19742" /><path
         d="m 1406.3785,-315.90459 c -28,0 -48.5334,22.40003 -48.5334,56.00007 0,33.60004 20.5334,56.00007 48.5334,56.00007 28.0001,0 48.5334,-22.40003 48.5334,-56.00007 0,-33.60004 -20.5333,-56.00007 -48.5334,-56.00007 z m 0,18.66669 c 14.9334,0 26.1334,14.93336 26.1334,37.33338 0,22.40003 -11.2,37.33338 -26.1334,37.33338 -14.9333,0 -26.1333,-14.93335 -26.1333,-37.33338 0,-22.40002 11.2,-37.33338 26.1333,-37.33338 z"
         id="path19744" /><path
         d="m 1528.2453,-314.03792 c -18.6667,0 -29.3334,14.13335 -29.3334,14.13335 -1.8667,-2.66667 -2.9333,-7.46667 -3.7333,-12.26668 h -19.2001 v 104.53346 h 22.4001 v -67.20008 c 5.6,-11.20001 13.3333,-16.80002 24.2667,-16.80002 5.6,0 11.2,0 14.9333,3.73334 l 7.4667,-22.40003 c -5.0667,-3.46667 -9.3333,-3.73334 -16.8,-3.73334 z"
         id="path19746" /></g><g
       aria-label="Jumabozor"
       id="text6608"
       style="font-size:266.667px;line-height:1.25;font-family:'Russian Road Sign';-inkscape-font-specification:'Russian Road Sign';letter-spacing:-15px;word-spacing:0px"><path
         d="m 523.31098,926.22882 -1.86667,26.13336 c 0,0 18.66669,3.73334 28.00003,3.73334 26.13337,0 41.06672,-19.46669 41.06672,-37.06671 V 803.02867 h -26.13337 v 108.53346 c 0,12.80002 -9.33334,18.40003 -16.80002,18.40003 -13.06668,0 -24.26669,-3.73334 -24.26669,-3.73334 z"
         id="path19749" /><path
         d="m 657.64455,954.22885 c 18.66669,0 31.20003,-14.13335 31.20003,-14.13335 1.60001,2.93334 2.66667,7.73334 3.73334,12.26668 h 19.20003 V 847.82872 h -22.40003 v 67.20008 c -5.60001,11.20002 -15.46669,20.53336 -26.13337,20.53336 -11.20001,0 -14.93335,-9.33334 -14.93335,-14.93335 v -72.80009 h -22.40003 v 74.66676 c 0,18.66669 11.20002,31.73337 31.73338,31.73337 z"
         id="path19751" /><path
         d="m 786.37802,845.96205 c -18.66669,0 -29.33337,14.13335 -29.33337,14.13335 -1.86667,-2.66667 -2.93334,-7.46667 -3.73334,-12.26668 h -19.20002 v 104.53346 h 22.40002 V 885.1621 c 5.60001,-11.20001 13.33335,-20.53336 24.2667,-20.53336 11.20001,0 13.06668,9.33335 13.06668,14.93335 v 72.80009 h 22.40003 V 885.1621 c 5.60001,-11.20001 13.33335,-20.53336 24.2667,-20.53336 11.20001,0 13.06668,9.33335 13.06668,14.93335 v 72.80009 h 22.40003 v -74.66676 c 0,-18.66668 -9.33335,-31.73337 -29.86671,-31.73337 -13.86668,0 -28.00003,7.46668 -31.73337,18.66669 -3.73334,-11.20001 -13.60002,-18.66669 -28.00003,-18.66669 z"
         id="path19753" /><path
         d="m 939.37846,844.09538 c -18.66669,0 -33.60004,7.46668 -42.93339,13.06669 l 11.20001,18.13335 c 5.60001,-5.06667 16.80003,-12.53335 28.00004,-12.53335 13.06668,0 22.40003,9.33335 22.40003,16.80002 v 5.60001 c -14.93336,3.73334 -63.46675,2.13334 -63.46675,37.33338 v 0 c 0,22.40003 18.66669,33.60004 33.60004,33.60004 14.93335,0 26.13337,-9.33334 29.86671,-16.80002 1.86667,14.93335 9.33334,16.80002 22.40002,16.80002 l 9.33335,-18.66669 c -3.73334,0 -9.33335,0 -9.33335,-9.33334 v -46.66673 c 0,-18.66669 -16.80002,-37.33338 -41.06671,-37.33338 z m 18.66669,57.86674 v 18.66669 c 0,1.86667 -13.06669,16.80002 -24.2667,16.80002 -3.73334,0 -14.93335,-3.73334 -14.93335,-16.80002 0,-16.80002 29.8667,-14.93335 39.20005,-18.66669 z"
         id="path19755" /><path
         d="m 1058.7786,956.09552 c 18.6667,0 46.6667,-11.20001 46.6667,-56.00007 0,-46.66672 -35.4667,-56.00007 -46.6667,-56.00007 -14.9334,0 -26.1334,11.20002 -26.1334,13.06669 v -54.1334 h -22.4 v 149.33351 h 18.6667 c 0.8,-4.53334 2.1333,-8.26667 3.7333,-11.20001 0,0 7.4667,14.93335 26.1334,14.93335 z m 0,-20.53336 c -10.6667,0 -20.5334,-7.46667 -26.1334,-18.66669 v -39.20005 c 5.6,-9.33334 16.5334,-14.93335 26.1334,-14.93335 13.0667,0 24.2667,14.93335 24.2667,37.33338 0,22.40003 -11.2,35.46671 -24.2667,35.46671 z"
         id="path19757" /><path
         d="m 1172.5787,844.09538 c -28.0001,0 -48.5334,22.40003 -48.5334,56.00007 0,33.60004 20.5333,56.00007 48.5334,56.00007 28,0 48.5334,-22.40003 48.5334,-56.00007 0,-33.60004 -20.5334,-56.00007 -48.5334,-56.00007 z m 0,18.66669 c 14.9333,0 26.1333,14.93335 26.1333,37.33338 0,22.40003 -11.2,37.33338 -26.1333,37.33338 -14.9334,0 -26.1334,-14.93335 -26.1334,-37.33338 0,-22.40003 11.2,-37.33338 26.1334,-37.33338 z"
         id="path19759" /><path
         d="m 1250.9121,952.36218 h 76.5334 v -20.53336 h -48.5334 l 46.6667,-61.60007 v -22.40003 h -74.6667 v 20.53336 h 48.5333 l -48.5333,63.46674 z"
         id="path19761" /><path
         d="m 1401.512,844.09538 c -28.0001,0 -48.5334,22.40003 -48.5334,56.00007 0,33.60004 20.5333,56.00007 48.5334,56.00007 28,0 48.5334,-22.40003 48.5334,-56.00007 0,-33.60004 -20.5334,-56.00007 -48.5334,-56.00007 z m 0,18.66669 c 14.9333,0 26.1333,14.93335 26.1333,37.33338 0,22.40003 -11.2,37.33338 -26.1333,37.33338 -14.9334,0 -26.1334,-14.93335 -26.1334,-37.33338 0,-22.40003 11.2,-37.33338 26.1334,-37.33338 z"
         id="path19763" /><path
         d="m 1528.3787,845.96205 c -18.6667,0 -29.3333,14.13335 -29.3333,14.13335 -1.8667,-2.66667 -2.9334,-7.46667 -3.7334,-12.26668 h -19.2 v 104.53346 h 22.4 V 885.1621 c 5.6,-11.20001 13.3334,-16.80002 24.2667,-16.80002 5.6,0 11.2,0 14.9334,3.73334 l 7.4667,-22.40003 c -5.0667,-3.46667 -9.3334,-3.73334 -16.8001,-3.73334 z"
         id="path19765" /></g><g
       id="g19649"
       transform="matrix(0.57142857,0,0,0.57142857,281.17781,-849.01382)"><path
         id="rect19632"
         class="a"
         d="M 45.000844 0.99983188 C 20.624869 0.99983188 1.0013325 20.623368 1.0013325 44.999344 L 1.0013325 305.00081 C 1.0013325 329.37678 20.624869 349.00032 45.000844 349.00032 L 304.99889 349.00032 C 329.37487 349.00032 348.9984 329.37678 348.9984 305.00081 L 348.9984 44.999344 C 348.9984 20.623368 329.37487 0.99983188 304.99889 0.99983188 L 45.000844 0.99983188 z " /><path
         id="rect19636"
         style="fill:#0d69e1"
         d="M 45.000844 18.000808 C 30.042859 18.000808 17.998891 30.041359 17.998891 44.999344 L 17.998891 305.00081 C 17.998891 319.95879 30.042859 331.99934 45.000844 331.99934 L 304.99889 331.99934 C 319.95688 331.99934 332.00085 319.95879 332.00085 305.00081 L 332.00085 44.999344 C 332.00085 30.041359 319.95688 18.000808 304.99889 18.000808 L 45.000844 18.000808 z M 180.34215 96.251785 L 203.96715 96.251785 L 203.96715 253.74837 L 176.40465 253.74837 L 176.40465 131.68587 L 155.31237 144.90657 L 146.03258 132.8138 L 180.34215 96.251785 z " /></g></g></svg>
