<?xml version="1.0" encoding="UTF-8" standalone="no"?>
<svg
   width="700"
   height="700"
   version="1.1"
   id="svg221"
   sodipodi:docname="RU_road_sign_6.8.1.svg"
   xml:space="preserve"
   inkscape:version="1.2.2 (732a01da63, 2022-12-09)"
   xmlns:inkscape="http://www.inkscape.org/namespaces/inkscape"
   xmlns:sodipodi="http://sodipodi.sourceforge.net/DTD/sodipodi-0.dtd"
   xmlns="http://www.w3.org/2000/svg"
   xmlns:svg="http://www.w3.org/2000/svg"
   xmlns:rdf="http://www.w3.org/1999/02/22-rdf-syntax-ns#"
   xmlns:cc="http://creativecommons.org/ns#"
   xmlns:dc="http://purl.org/dc/elements/1.1/"><defs
     id="defs225" /><sodipodi:namedview
     id="namedview223"
     pagecolor="#ffffff"
     bordercolor="#000000"
     borderopacity="0.25"
     inkscape:showpageshadow="2"
     inkscape:pageopacity="0.0"
     inkscape:pagecheckerboard="0"
     inkscape:deskcolor="#d1d1d1"
     showgrid="false"
     inkscape:zoom="0.39143411"
     inkscape:cx="-90.692147"
     inkscape:cy="954.18358"
     inkscape:window-width="1920"
     inkscape:window-height="991"
     inkscape:window-x="-9"
     inkscape:window-y="-9"
     inkscape:window-maximized="1"
     inkscape:current-layer="svg221" /><title
     id="title208">5.19.4 Oxiri berk yoʻl	</title><rect
     style="fill:#ffffff;"
     x="0"
     y="0"
     width="700"
     height="700"
     rx="45"
     ry="45"
     id="rect210" /><rect
     style="fill:none;stroke:#000000;stroke-width:2;"
     x="1"
     y="1"
     width="698"
     height="698"
     rx="44"
     ry="44"
     id="rect212" /><clipPath
     id="clipPath"><rect
       transform="scale(0.8857142857)"
       x="20"
       y="20"
       width="660"
       height="660"
       rx="25"
       ry="25"
       id="rect214" /></clipPath><path
     id="path217"
     clip-path="url(#clipPath)"
     style="fill:#0d69e1;"
     d="M 0 0 L 0 620 L 279.99989 620 L 279.99989 451.14342 L 137.33242 451.14342 L 137.33242 391.14319 L 279.99989 391.14319 L 279.99989 239.99916 L 180.00067 239.99916 L 180.00067 99.999219 L 439.99933 99.999219 L 439.99933 239.99916 L 340.00011 239.99916 L 340.00011 391.14319 L 482.66758 391.14319 L 482.66758 451.14342 L 340.00011 451.14342 L 340.00011 620 L 620 620 L 620 0 L 0 0 z "
     transform="scale(1.1290322581)" /><rect
     style="fill:#ff0000;"
     transform="scale(1.1290322581)"
     x="200"
     y="120"
     width="220"
     height="100"
     id="rect219" /><metadata
     id="metadata431"><rdf:RDF><cc:Work
         rdf:about=""><dc:title>5.19.4 Oxiri berk yoʻl	</dc:title></cc:Work></rdf:RDF></metadata></svg>
