<?xml version="1.0" encoding="UTF-8" standalone="no"?>
<!-- Created with Inkscape (http://www.inkscape.org/) -->

<svg
   width="485.62302"
   height="485.62302"
   viewBox="0 0 128.48775 128.48776"
   version="1.1"
   id="svg2675"
   inkscape:version="1.2.2 (732a01da63, 2022-12-09)"
   sodipodi:docname="drawing.svg"
   xmlns:inkscape="http://www.inkscape.org/namespaces/inkscape"
   xmlns:sodipodi="http://sodipodi.sourceforge.net/DTD/sodipodi-0.dtd"
   xmlns="http://www.w3.org/2000/svg"
   xmlns:svg="http://www.w3.org/2000/svg"
   xmlns:rdf="http://www.w3.org/1999/02/22-rdf-syntax-ns#"
   xmlns:cc="http://creativecommons.org/ns#"
   xmlns:dc="http://purl.org/dc/elements/1.1/">
  <title
     id="title6276">5.47.2 Turizm axborot markazi</title>
  <sodipodi:namedview
     id="namedview2677"
     pagecolor="#ffffff"
     bordercolor="#000000"
     borderopacity="0.25"
     inkscape:showpageshadow="2"
     inkscape:pageopacity="0.0"
     inkscape:pagecheckerboard="0"
     inkscape:deskcolor="#d1d1d1"
     inkscape:document-units="px"
     showgrid="false"
     inkscape:zoom="0.73940797"
     inkscape:cx="345.54672"
     inkscape:cy="390.17702"
     inkscape:window-width="1920"
     inkscape:window-height="991"
     inkscape:window-x="-9"
     inkscape:window-y="-9"
     inkscape:window-maximized="1"
     inkscape:current-layer="layer1" />
  <defs
     id="defs2672" />
  <g
     inkscape:label="Layer 1"
     inkscape:groupmode="layer"
     id="layer1"
     transform="translate(0.1188802,0.1188802)">
    <g
       id="rect974-2">
      <path
         style="color:#000000;fill:#000000;fill-rule:evenodd;stroke:none;stroke-width:0.13229167;stroke-linecap:round;stroke-dasharray:none;stroke-opacity:1;paint-order:stroke fill markers"
         d="M -0.05273437,-0.05273437 V 0.14648437 128.30273 H 128.30273 V -0.05273437 Z M 0.34375,0.34375 h 127.5625 v 127.5625 H 0.34375 Z"
         id="path5087" />
      <path
         style="color:#000000;fill:#ffffff;fill-rule:evenodd;stroke-width:0.396875;stroke-linecap:round;-inkscape-stroke:none;paint-order:stroke fill markers"
         d="M 0.145521,0.145521 H 128.10482 V 128.10482 H 0.145521 Z"
         id="path5089" />
    </g>
    <rect
       style="fill:#7c4e24;fill-opacity:1;fill-rule:evenodd;stroke-width:7.65937;stroke-linecap:round;stroke-linejoin:round;paint-order:stroke fill markers"
       id="rect916-9"
       width="119.48617"
       height="119.48617"
       x="4.4837575"
       y="4.4683833"
       ry="8.7931681"
       rx="8.7931681" />
    <path
       id="path749"
       style="fill:#ffffff;fill-rule:evenodd;stroke-width:9.30418;stroke-linecap:round;stroke-linejoin:round;paint-order:stroke fill markers"
       d="m 63.745837,18.099316 a 35.34465,35.34465 0 0 0 -35.344761,35.344259 35.34465,35.34465 0 0 0 20.48211,32.052524 v -1.97448 A 33.607282,33.607282 0 0 1 30.138489,53.443575 33.607282,33.607282 0 0 1 63.745837,19.836703 33.607282,33.607282 0 0 1 97.353212,53.443575 33.607282,33.607282 0 0 1 78.399917,83.683994 v 1.913784 A 35.34465,35.34465 0 0 0 99.090598,53.443575 35.34465,35.34465 0 0 0 63.745837,18.099316 Z m -0.65524,7.611084 a 6.4910263,6.4910263 0 0 0 -6.491049,6.491023 6.4910263,6.4910263 0 0 0 6.491049,6.491022 6.4910263,6.4910263 0 0 0 6.491049,-6.491022 6.4910263,6.4910263 0 0 0 -6.491049,-6.491023 z m 9.194429,3.345656 a 9.6492474,9.6492474 0 0 1 0.374571,1.805358 24.381714,24.381714 0 0 1 15.468018,22.582161 24.381714,24.381714 0 0 1 -15.372054,22.644919 v 1.717702 A 25.978185,25.978185 0 0 0 89.723978,53.443575 25.978185,25.978185 0 0 0 72.285026,29.056056 Z M 53.709451,29.606469 A 25.978185,25.978185 0 0 0 37.767697,53.443575 25.978185,25.978185 0 0 0 54.527569,77.700336 V 75.945302 A 24.381714,24.381714 0 0 1 39.364007,53.443575 24.381714,24.381714 0 0 1 53.446931,31.494826 a 9.6492474,9.6492474 0 0 1 0.26252,-1.888357 z m 16.850069,8.666268 a 9.0309934,9.0309934 0 0 1 -1.166178,1.381019 14.90778,14.90778 0 0 1 9.260258,13.789819 14.90778,14.90778 0 0 1 -5.898039,11.834997 v 2.119789 A 16.634293,16.634293 0 0 0 80.380138,53.443575 16.634293,16.634293 0 0 0 70.55952,38.272737 Z m -14.535759,0.528135 a 16.634293,16.634293 0 0 0 -8.912225,14.642703 16.634293,16.634293 0 0 0 7.416033,13.843211 V 65.147339 A 14.90778,14.90778 0 0 1 48.838075,53.443575 14.90778,14.90778 0 0 1 57.204464,40.057881 9.0309934,9.0309934 0 0 1 56.023761,38.800872 Z m 13.471737,5.115189 c 0,0 -5.852001,1.624198 -8.822452,2.244804 -2.565903,0.536152 -7.759912,1.274657 -7.759912,1.274657 v 2.656179 l 1.17864,0.241749 c 1.091512,0.221536 2.333784,0.640239 2.93997,1.380464 0.822193,1.004173 0.852356,2.743121 0.852356,4.169463 V 78.063 c 0,1.177396 0.03302,3.448156 -1.086882,4.50096 -0.07342,0.06903 -0.154596,0.134038 -0.239131,0.196612 -0.02566,0.01931 -0.05331,0.03736 -0.08041,0.05601 -0.04548,0.03143 -0.09358,0.06104 -0.141657,0.0908 -0.124566,0.07697 -0.25535,0.149648 -0.394759,0.215794 -0.603356,0.286491 -1.329346,0.475139 -2.047663,0.583115 -0.548561,0.08258 -1.091486,0.119327 -1.568291,0.119327 h -0.06384 v 2.997042 h 1.830308 18.229553 2.796752 v -2.997035 h -0.06377 c -1.092941,0 -2.531321,-0.193066 -3.593121,-0.68998 C 71.115621,82.977345 70.823997,82.791184 70.58238,82.56396 69.462478,81.511156 69.495498,79.240396 69.495498,78.063 V 62.115558 55.883377 44.489334 43.998056 Z" />
    <g
       aria-label="TURISTIK AXBOROT MARKAZI"
       id="text808"
       style="font-size:9.80559px;line-height:1.5;font-family:'Russian Road Sign';-inkscape-font-specification:'Russian Road Sign';text-align:center;letter-spacing:-0.855538px;text-anchor:middle;fill:#ffffff;fill-rule:evenodd;stroke-width:6.86401;stroke-linecap:round;stroke-linejoin:round;paint-order:stroke fill markers">
      <path
         d="m 11.154886,97.322796 v 0.82367 h 1.510061 v 4.667464 h 0.960948 v -4.667464 h 1.510061 v -0.82367 z"
         style="text-align:start;text-anchor:start"
         id="path5091" />
      <path
         d="m 15.790475,97.322796 v 3.706514 c 0,0.0686 0.06864,1.85326 1.990535,1.85326 1.921895,0 1.990534,-1.78462 1.990534,-1.85326 v -3.706514 h -0.960948 v 3.775154 c 0,0.75503 -0.617752,1.02959 -1.029586,1.02959 -0.411835,0 -1.029587,-0.27456 -1.029587,-1.02959 v -3.775154 z"
         style="text-align:start;text-anchor:start"
         id="path5093" />
      <path
         d="m 20.769256,97.322796 v 5.491134 h 0.960948 v -2.19646 h 0.549113 c 0.617752,0 0.755031,0.38242 1.00017,0.84329 0.254946,0.49027 0.431446,1.0688 0.647169,1.35317 h 1.166865 c -0.617752,-0.27456 -0.892308,-2.33373 -1.784617,-2.53965 0.549113,-0.20592 1.029587,-0.686392 1.029587,-1.441423 0,-0.549113 -0.343196,-1.510061 -1.715978,-1.510061 z m 0.960948,0.82367 h 0.617752 c 0.549113,0 1.029587,0.235334 1.029587,0.82367 0,0.588335 -0.480474,0.823669 -1.029587,0.823669 h -0.617752 z"
         style="text-align:start;text-anchor:start"
         id="path5095" />
      <path
         d="m 25.885314,102.81393 h 0.960948 v -5.491134 h -0.960948 z"
         style="text-align:start;text-anchor:start"
         id="path5097" />
      <path
         d="m 27.745931,101.99026 c 0,0 0.921726,0.96094 2.15723,0.96094 1.372783,0 2.108202,-1.02958 2.108202,-1.71597 0,-0.82367 -0.598141,-1.372786 -1.559089,-1.578703 -0.75503,-0.15689 -1.441422,-0.24514 -1.441422,-0.774642 0,-0.264751 0.205918,-0.804058 1.029587,-0.804058 0.715808,0 1.215893,0.549113 1.215893,0.549113 l 0.637364,-0.686391 c 0,0 -0.892309,-0.755031 -1.853257,-0.755031 -1.166865,0 -1.990534,0.755031 -1.990534,1.715978 0,0.421641 0.186306,1.313954 1.715978,1.539474 1.225699,0.1765 1.235504,0.63737 1.235504,0.85309 v 0.01 c 0,0.20591 -0.235334,0.75503 -1.078615,0.75503 -0.960948,0 -1.500255,-0.64717 -1.500255,-0.64717 z"
         style="text-align:start;text-anchor:start"
         id="path5099" />
      <path
         d="m 32.391335,97.322796 v 0.82367 h 1.51006 v 4.667464 h 0.960948 v -4.667464 h 1.510061 v -0.82367 z"
         style="text-align:start;text-anchor:start"
         id="path5101" />
      <path
         d="m 37.026922,102.81393 h 0.960947 v -5.491134 h -0.960947 z"
         style="text-align:start;text-anchor:start"
         id="path5103" />
      <path
         d="m 41.976299,102.81393 h 1.235505 l -2.108202,-2.912263 1.970923,-2.578871 h -1.235504 l -1.91209,2.588676 z m -2.059173,-5.491134 h -0.960948 v 5.491134 h 0.960948 z"
         style="text-align:start;text-anchor:start"
         id="path5105" />
      <path
         d="m 49.266758,100.89203 0.686391,-2.333729 0.686391,2.333729 z m 0.137278,-3.569234 -1.784617,5.491134 h 1.029586 l 0.343196,-1.09823 h 1.921896 l 0.343195,1.09823 h 1.029587 l -1.784617,-5.491134 z"
         style="text-align:start;text-anchor:start"
         id="path5107" />
      <path
         d="m 53.892535,97.322796 h -1.225699 l 1.568895,2.608287 -1.706173,2.882847 h 1.15706 l 1.098226,-1.99054 1.098226,1.99054 h 1.157059 l -1.706172,-2.882847 1.568894,-2.608287 h -1.225698 l -0.892309,1.715979 z"
         style="text-align:start;text-anchor:start"
         id="path5109" />
      <path
         d="m 57.488742,97.322796 v 5.491134 h 2.137619 c 1.019781,0 1.774812,-0.75503 1.774812,-1.64734 0,-0.61775 -0.411835,-1.02959 -0.960948,-1.235507 0.480474,-0.205917 0.784447,-0.686391 0.784447,-1.098226 0,-0.725613 -0.57853,-1.510061 -1.608117,-1.510061 z m 0.960948,0.82367 h 1.098226 c 0.343196,0 0.686391,0.225529 0.686391,0.706002 0,0.411835 -0.274556,0.706003 -0.686391,0.706003 H 58.44969 Z m 0,2.196454 h 1.166865 c 0.549113,0 0.82367,0.43144 0.82367,0.82367 0,0.39222 -0.274557,0.82367 -0.82367,0.82367 H 58.44969 Z"
         style="text-align:start;text-anchor:start"
         id="path5111" />
      <path
         d="m 64.114863,97.185518 c -1.510061,0 -2.235675,1.294338 -2.235675,2.882842 0,1.58851 0.725614,2.88284 2.235675,2.88284 1.510061,0 2.235674,-1.29433 2.235674,-2.88284 0,-1.588504 -0.725613,-2.882842 -2.235674,-2.882842 z m 0,0.892309 c 0.75503,0 1.304143,0.75503 1.304143,1.990533 0,1.23551 -0.549113,1.99054 -1.304143,1.99054 -0.755031,0 -1.304144,-0.75503 -1.304144,-1.99054 0,-1.235503 0.549113,-1.990533 1.304144,-1.990533 z"
         style="text-align:start;text-anchor:start"
         id="path5113" />
      <path
         d="m 67.103112,97.322796 v 5.491134 h 0.960948 v -2.19646 h 0.549113 c 0.617752,0 0.75503,0.38242 1.00017,0.84329 0.254945,0.49027 0.431446,1.0688 0.647169,1.35317 h 1.166865 c -0.617752,-0.27456 -0.892309,-2.33373 -1.784617,-2.53965 0.549113,-0.20592 1.029587,-0.686392 1.029587,-1.441423 0,-0.549113 -0.343196,-1.510061 -1.715979,-1.510061 z m 0.960948,0.82367 h 0.617752 c 0.549113,0 1.029587,0.235334 1.029587,0.82367 0,0.588335 -0.480474,0.823669 -1.029587,0.823669 H 68.06406 Z"
         style="text-align:start;text-anchor:start"
         id="path5115" />
      <path
         d="m 74.209704,97.185518 c -1.510061,0 -2.235675,1.294338 -2.235675,2.882842 0,1.58851 0.725614,2.88284 2.235675,2.88284 1.510061,0 2.235674,-1.29433 2.235674,-2.88284 0,-1.588504 -0.725613,-2.882842 -2.235674,-2.882842 z m 0,0.892309 c 0.75503,0 1.304143,0.75503 1.304143,1.990533 0,1.23551 -0.549113,1.99054 -1.304143,1.99054 -0.755031,0 -1.304144,-0.75503 -1.304144,-1.99054 0,-1.235503 0.549113,-1.990533 1.304144,-1.990533 z"
         style="text-align:start;text-anchor:start"
         id="path5117" />
      <path
         d="m 76.854754,97.322796 v 0.82367 h 1.51006 v 4.667464 h 0.960948 v -4.667464 h 1.510061 v -0.82367 z"
         style="text-align:start;text-anchor:start"
         id="path5119" />
      <path
         d="m 85.468958,102.81393 h 0.960948 v -3.981073 l 1.647339,2.882843 1.647339,-2.882843 0.06864,3.981073 h 0.892309 v -5.491134 h -1.098226 l -1.510061,2.539648 -1.510061,-2.539648 h -1.098226 z"
         style="text-align:start;text-anchor:start"
         id="path5121" />
      <path
         d="m 92.987404,100.89203 0.686391,-2.333729 0.686391,2.333729 z m 0.137278,-3.569234 -1.784618,5.491134 h 1.029587 l 0.343196,-1.09823 h 1.921896 l 0.343195,1.09823 h 1.029587 l -1.784617,-5.491134 z"
         style="text-align:start;text-anchor:start"
         id="path5123" />
      <path
         d="m 96.799321,97.322796 v 5.491134 h 0.960948 v -2.19646 h 0.549113 c 0.617752,0 0.75503,0.38242 1.00017,0.84329 0.254945,0.49027 0.431446,1.0688 0.647169,1.35317 h 1.166869 c -0.61776,-0.27456 -0.89231,-2.33373 -1.784621,-2.53965 0.549113,-0.20592 1.029591,-0.686392 1.029591,-1.441423 0,-0.549113 -0.3432,-1.510061 -1.715983,-1.510061 z m 0.960948,0.82367 h 0.617752 c 0.549113,0 1.029587,0.235334 1.029587,0.82367 0,0.588335 -0.480474,0.823669 -1.029587,0.823669 h -0.617752 z"
         style="text-align:start;text-anchor:start"
         id="path5125" />
      <path
         d="m 104.97472,102.81393 h 1.2355 l -2.1082,-2.912263 1.97092,-2.578871 h -1.2355 l -1.91209,2.588676 z m -2.05918,-5.491134 h -0.96094 v 5.491134 h 0.96094 z"
         style="text-align:start;text-anchor:start"
         id="path5127" />
      <path
         d="m 108.21792,100.89203 0.68639,-2.333729 0.68639,2.333729 z m 0.13728,-3.569234 -1.78462,5.491134 h 1.02959 l 0.34319,-1.09823 h 1.9219 l 0.34319,1.09823 h 1.02959 l -1.78462,-5.491134 z"
         style="text-align:start;text-anchor:start"
         id="path5129" />
      <path
         d="m 111.9612,102.81393 h 3.70651 v -0.82367 h -2.53965 l 2.47101,-3.775155 v -0.892309 h -3.56923 v 0.82367 h 2.40236 l -2.471,3.775154 z"
         style="text-align:start;text-anchor:start"
         id="path5131" />
      <path
         d="m 116.59679,102.81393 h 0.96094 v -5.491134 h -0.96094 z"
         style="text-align:start;text-anchor:start"
         id="path5133" />
    </g>
    <g
       aria-label="TOURIST INFORMATION CENTRE"
       id="text862"
       style="font-size:9.80559px;line-height:1.5;font-family:'Russian Road Sign';-inkscape-font-specification:'Russian Road Sign';text-align:center;letter-spacing:-0.855538px;text-anchor:middle;fill:#ffffff;fill-rule:evenodd;stroke-width:6.86401;stroke-linecap:round;stroke-linejoin:round;paint-order:stroke fill markers">
      <path
         d="m 7.1202493,104.76227 v 0.82367 h 1.5100609 v 4.66746 h 0.9609477 v -4.66746 h 1.5100611 v -0.82367 z"
         style="text-align:start;text-anchor:start"
         id="path5136" />
      <path
         d="m 13.746373,104.62499 c -1.510061,0 -2.235675,1.29434 -2.235675,2.88285 0,1.5885 0.725614,2.88284 2.235675,2.88284 1.51006,0 2.235674,-1.29434 2.235674,-2.88284 0,-1.58851 -0.725614,-2.88285 -2.235674,-2.88285 z m 0,0.89231 c 0.75503,0 1.304143,0.75503 1.304143,1.99054 0,1.2355 -0.549113,1.99053 -1.304143,1.99053 -0.755031,0 -1.304144,-0.75503 -1.304144,-1.99053 0,-1.23551 0.549113,-1.99054 1.304144,-1.99054 z"
         style="text-align:start;text-anchor:start"
         id="path5138" />
      <path
         d="m 16.66598,104.76227 v 3.70652 c 0,0.0686 0.06864,1.85325 1.990535,1.85325 1.921896,0 1.990535,-1.78462 1.990535,-1.85325 v -3.70652 h -0.960948 v 3.77515 c 0,0.75503 -0.617752,1.02959 -1.029587,1.02959 -0.411835,0 -1.029587,-0.27456 -1.029587,-1.02959 v -3.77515 z"
         style="text-align:start;text-anchor:start"
         id="path5140" />
      <path
         d="m 21.644761,104.76227 v 5.49113 h 0.960948 v -2.19645 h 0.549113 c 0.617752,0 0.755031,0.38242 1.00017,0.84328 0.254946,0.49028 0.431446,1.06881 0.647169,1.35317 h 1.166865 c -0.617752,-0.27455 -0.892308,-2.33373 -1.784617,-2.53965 0.549113,-0.20591 1.029587,-0.68639 1.029587,-1.44142 0,-0.54911 -0.343196,-1.51006 -1.715978,-1.51006 z m 0.960948,0.82367 h 0.617752 c 0.549113,0 1.029587,0.23534 1.029587,0.82367 0,0.58834 -0.480474,0.82367 -1.029587,0.82367 h -0.617752 z"
         style="text-align:start;text-anchor:start"
         id="path5142" />
      <path
         d="m 26.76082,110.2534 h 0.960948 v -5.49113 H 26.76082 Z"
         style="text-align:start;text-anchor:start"
         id="path5144" />
      <path
         d="m 28.621437,109.42973 c 0,0 0.921726,0.96095 2.15723,0.96095 1.372783,0 2.108202,-1.02959 2.108202,-1.71598 0,-0.82367 -0.598141,-1.37278 -1.559089,-1.5787 -0.75503,-0.15689 -1.441422,-0.24514 -1.441422,-0.77464 0,-0.26475 0.205918,-0.80406 1.029587,-0.80406 0.715808,0 1.215893,0.54912 1.215893,0.54912 l 0.637364,-0.6864 c 0,0 -0.892309,-0.75503 -1.853257,-0.75503 -1.166865,0 -1.990534,0.75503 -1.990534,1.71598 0,0.42164 0.186306,1.31395 1.715978,1.53948 1.225698,0.1765 1.235504,0.63736 1.235504,0.85309 v 0.01 c 0,0.20592 -0.235334,0.75503 -1.078615,0.75503 -0.960948,0 -1.500255,-0.64717 -1.500255,-0.64717 z"
         style="text-align:start;text-anchor:start"
         id="path5146" />
      <path
         d="m 33.266839,104.76227 v 0.82367 h 1.51006 v 4.66746 h 0.960948 v -4.66746 h 1.510061 v -0.82367 z"
         style="text-align:start;text-anchor:start"
         id="path5148" />
      <path
         d="m 41.949684,110.2534 h 0.960948 v -5.49113 h -0.960948 z"
         style="text-align:start;text-anchor:start"
         id="path5150" />
      <path
         d="m 43.771079,110.2534 h 0.960947 v -3.98107 l 2.059174,3.98107 h 1.098226 v -5.49113 h -0.960947 v 3.91243 l -2.059174,-3.91243 h -1.098226 z"
         style="text-align:start;text-anchor:start"
         id="path5152" />
      <path
         d="m 48.749859,110.2534 h 0.960948 v -2.33373 h 1.990534 V 107.096 h -1.990534 v -1.44142 h 2.539647 v -0.89231 h -3.500595 z"
         style="text-align:start;text-anchor:start"
         id="path5154" />
      <path
         d="m 54.895511,104.62499 c -1.510061,0 -2.235675,1.29434 -2.235675,2.88285 0,1.5885 0.725614,2.88284 2.235675,2.88284 1.51006,0 2.235674,-1.29434 2.235674,-2.88284 0,-1.58851 -0.725614,-2.88285 -2.235674,-2.88285 z m 0,0.89231 c 0.75503,0 1.304143,0.75503 1.304143,1.99054 0,1.2355 -0.549113,1.99053 -1.304143,1.99053 -0.755031,0 -1.304144,-0.75503 -1.304144,-1.99053 0,-1.23551 0.549113,-1.99054 1.304144,-1.99054 z"
         style="text-align:start;text-anchor:start"
         id="path5156" />
      <path
         d="m 57.883756,104.76227 v 5.49113 h 0.960948 v -2.19645 h 0.549113 c 0.617752,0 0.75503,0.38242 1.00017,0.84328 0.254945,0.49028 0.431446,1.06881 0.647169,1.35317 h 1.166865 c -0.617752,-0.27455 -0.892309,-2.33373 -1.784617,-2.53965 0.549113,-0.20591 1.029587,-0.68639 1.029587,-1.44142 0,-0.54911 -0.343196,-1.51006 -1.715979,-1.51006 z m 0.960948,0.82367 h 0.617752 c 0.549113,0 1.029587,0.23534 1.029587,0.82367 0,0.58834 -0.480474,0.82367 -1.029587,0.82367 h -0.617752 z"
         style="text-align:start;text-anchor:start"
         id="path5158" />
      <path
         d="m 62.931178,110.2534 h 0.960948 v -3.98107 l 1.647339,2.88285 1.647339,-2.88285 0.06864,3.98107 h 0.892308 v -5.49113 h -1.098226 l -1.51006,2.53965 -1.510061,-2.53965 h -1.098226 z"
         style="text-align:start;text-anchor:start"
         id="path5160" />
      <path
         d="m 70.449619,108.33151 0.686392,-2.33373 0.686391,2.33373 z m 0.137279,-3.56924 -1.784618,5.49113 h 1.029587 l 0.343196,-1.09822 h 1.921895 l 0.343196,1.09822 h 1.029587 l -1.784617,-5.49113 z"
         style="text-align:start;text-anchor:start"
         id="path5162" />
      <path
         d="m 73.918337,104.76227 v 0.82367 h 1.510061 v 4.66746 h 0.960948 v -4.66746 h 1.510061 v -0.82367 z"
         style="text-align:start;text-anchor:start"
         id="path5164" />
      <path
         d="m 78.553925,110.2534 h 0.960947 v -5.49113 h -0.960947 z"
         style="text-align:start;text-anchor:start"
         id="path5166" />
      <path
         d="m 82.434497,104.62499 c -1.510061,0 -2.235675,1.29434 -2.235675,2.88285 0,1.5885 0.725614,2.88284 2.235675,2.88284 1.510061,0 2.235674,-1.29434 2.235674,-2.88284 0,-1.58851 -0.725613,-2.88285 -2.235674,-2.88285 z m 0,0.89231 c 0.75503,0 1.304143,0.75503 1.304143,1.99054 0,1.2355 -0.549113,1.99053 -1.304143,1.99053 -0.755031,0 -1.304144,-0.75503 -1.304144,-1.99053 0,-1.23551 0.549113,-1.99054 1.304144,-1.99054 z"
         style="text-align:start;text-anchor:start"
         id="path5168" />
      <path
         d="m 85.285464,110.2534 h 0.960948 v -3.98107 l 2.059174,3.98107 h 1.098226 v -5.49113 h -0.960948 v 3.91243 l -2.059174,-3.91243 h -1.098226 z"
         style="text-align:start;text-anchor:start"
         id="path5170" />
      <path
         d="m 96.302035,104.62499 c -1.510061,0 -2.235674,1.29434 -2.235674,2.88285 0,1.59831 0.725613,2.88284 2.235674,2.88284 1.039393,0 1.647339,-0.61775 1.990535,-1.51006 l -0.921726,-0.3432 c -0.205917,0.6864 -0.568724,0.96095 -1.068809,0.96095 -0.75503,0 -1.304143,-0.75503 -1.304143,-1.99053 0,-1.23551 0.549113,-1.99054 1.304143,-1.99054 0.500085,0 0.862892,0.27456 1.068809,0.96095 l 0.921726,-0.34319 c -0.343196,-0.89231 -0.951142,-1.51007 -1.990535,-1.51007 z"
         style="text-align:start;text-anchor:start"
         id="path5172" />
      <path
         d="m 98.94709,110.2534 h 3.5006 v -0.82367 h -2.539652 v -1.64734 h 1.990532 v -0.82367 h -1.990532 v -1.30414 h 2.471012 v -0.89231 h -3.43196 z"
         style="text-align:start;text-anchor:start"
         id="path5174" />
      <path
         d="m 103.30812,110.2534 h 0.96095 v -3.98107 l 2.05917,3.98107 h 1.09823 v -5.49113 h -0.96095 v 3.91243 l -2.05917,-3.91243 h -1.09823 z"
         style="text-align:start;text-anchor:start"
         id="path5176" />
      <path
         d="m 108.01235,104.76227 v 0.82367 h 1.51006 v 4.66746 h 0.96095 v -4.66746 h 1.51006 v -0.82367 z"
         style="text-align:start;text-anchor:start"
         id="path5178" />
      <path
         d="m 112.71657,104.76227 v 5.49113 h 0.96095 v -2.19645 h 0.54911 c 0.61776,0 0.75503,0.38242 1.00017,0.84328 0.25495,0.49028 0.43145,1.06881 0.64717,1.35317 h 1.16687 c -0.61775,-0.27455 -0.89231,-2.33373 -1.78462,-2.53965 0.54911,-0.20591 1.02959,-0.68639 1.02959,-1.44142 0,-0.54911 -0.3432,-1.51006 -1.71598,-1.51006 z m 0.96095,0.82367 h 0.61775 c 0.54912,0 1.02959,0.23534 1.02959,0.82367 0,0.58834 -0.48047,0.82367 -1.02959,0.82367 h -0.61775 z"
         style="text-align:start;text-anchor:start"
         id="path5180" />
      <path
         d="m 117.83263,110.2534 h 3.5006 v -0.82367 h -2.53965 v -1.64734 h 1.99054 v -0.82367 h -1.99054 v -1.30414 h 2.47101 v -0.89231 h -3.43196 z"
         style="text-align:start;text-anchor:start"
         id="path5182" />
    </g>
  </g>
  <metadata
     id="metadata6274">
    <rdf:RDF>
      <cc:Work
         rdf:about="">
        <dc:title>5.47.2 Turizm axborot markazi</dc:title>
      </cc:Work>
    </rdf:RDF>
  </metadata>
</svg>
