<?xml version="1.0" encoding="UTF-8" standalone="no"?>
<svg
   xmlns:dc="http://purl.org/dc/elements/1.1/"
   xmlns:cc="http://creativecommons.org/ns#"
   xmlns:rdf="http://www.w3.org/1999/02/22-rdf-syntax-ns#"
   xmlns:svg="http://www.w3.org/2000/svg"
   xmlns="http://www.w3.org/2000/svg"
   xmlns:sodipodi="http://sodipodi.sourceforge.net/DTD/sodipodi-0.dtd"
   xmlns:inkscape="http://www.inkscape.org/namespaces/inkscape"
   inkscape:version="1.0 (4035a4fb49, 2020-05-01)"
   sodipodi:docname="5.42 Kazakhstan road sign.svg"
   xml:space="preserve"
   viewBox="0 0 600 899.14532"
   height="899.14532"
   width="600"
   id="background"
   version="1.1"><metadata
   id="metadata861"><rdf:RDF><cc:Work
       rdf:about=""><dc:format>image/svg+xml</dc:format><dc:type
         rdf:resource="http://purl.org/dc/dcmitype/StillImage" /></cc:Work></rdf:RDF></metadata><defs
   id="defs859" /><sodipodi:namedview
   inkscape:current-layer="background"
   inkscape:window-maximized="1"
   inkscape:window-y="-9"
   inkscape:window-x="-9"
   inkscape:cy="511.32786"
   inkscape:cx="69.434588"
   inkscape:zoom="0.55895107"
   showgrid="false"
   id="namedview857"
   inkscape:window-height="1001"
   inkscape:window-width="1920"
   inkscape:pageshadow="2"
   inkscape:pageopacity="0"
   guidetolerance="10"
   gridtolerance="10"
   objecttolerance="10"
   borderopacity="1"
   bordercolor="#666666"
   pagecolor="#ffffff" />
  <g
   transform="matrix(0.85470085,0,0,0.85470085,0.85470085,0.85470085)"
   id="g854">
    <path
   style="stroke:#000000;stroke-width:2;stroke-miterlimit:4;stroke-dasharray:none;stroke-opacity:1"
   id="path848"
   d="M 0,45 C 0,20.147 20.147,0 45,0 h 610 c 24.852,0 45,20.147 45,45 v 960 c 0,24.852 -20.148,45 -45,45 H 45 c -24.853,0 -45,-20.148 -45,-45 z"
   stroke="none"
   fill-rule="evenodd"
   fill="#ffffff" />
    <path
   id="path850"
   d="M 20,45 C 20,31.192 31.192,20 45,20 h 610 c 13.807,0 25,11.192 25,25 v 960 c 0,13.807 -11.193,25 -25,25 H 45 c -13.808,0 -25,-11.193 -25,-25 z m 45.625,131.382 c 0,-11.045 8.954,-20 20,-20 h 528.75 c 11.045,0 20,8.955 20,20 v 540.852 c 0,11.045 -8.955,20 -20,20 H 85.625 c -11.046,0 -20,-8.955 -20,-20 z"
   stroke="none"
   fill-rule="evenodd"
   fill="#0e69e1" />
    <path
   id="path852"
   d="m 442.312,324.012 c -31.237,0 -59.85,11.287 -81.638,29.663 H 147.525 c -8.663,0 -17.325,8.4 -17.325,17.062 v 174.038 c 0,8.4 8.662,16.537 17.325,16.537 H 552.3 c 8.662,0 17.325,-8.137 17.325,-16.537 V 374.937 l -34.913,-22.05 17.588,-20.475 23.1,14.438 -1.575,-27.3 26.774,-17.063 -28.612,-9.713 5.775,-29.924 -33.863,16.537 -22.05,-38.587 -0.262,45.412 -44.625,0.263 31.238,19.95 -19.688,19.687 -6.825,-2.1 v -21 h -39.375 z m 59.325,0 18.112,-18.113 -16.012,-11.812 24.937,-0.263 0.788,-28.874 12.6,23.887 27.563,-14.7 -5.776,22.05 22.05,7.875 -18.637,12.075 0.525,17.85 -16.012,-8.925 -18.901,20.738 -5.774,-24.413 z m 24.15,23.362 -25.2,-16.275 20.738,-3.149 z m -83.475,-14.962 c -62.738,0 -113.4,48.3 -113.4,107.888 0,59.849 50.662,108.15 113.4,108.15 62.737,0 113.4,-48.301 113.4,-108.15 0,-59.588 -50.663,-107.888 -113.4,-107.888 z m 0,12.6 c -55.388,0 -100.275,42.525 -100.275,95.288 0,52.762 44.887,95.55 100.275,95.55 55.387,0 100.275,-42.788 100.275,-95.55 0,-52.763 -44.888,-95.288 -100.275,-95.288 z m 0,17.063 c -45.412,0 -82.163,35.175 -82.163,78.225 0,43.312 36.751,78.487 82.163,78.487 45.413,0 82.162,-35.175 82.162,-78.487 0,-43.05 -36.749,-78.225 -82.162,-78.225 z m 0,12.862 c -38.063,0 -68.775,29.4 -68.775,65.363 0,36.225 30.712,65.625 68.775,65.625 38.062,0 68.775,-29.4 68.775,-65.625 0,-35.963 -30.713,-65.363 -68.775,-65.363 z m 0,16.8 c -28.087,0 -50.925,21.788 -50.925,48.563 0,27.037 22.838,48.825 50.925,48.825 28.088,0 50.925,-21.788 50.925,-48.825 0,-26.775 -22.837,-48.563 -50.925,-48.563 z m 0,12.6 c -21,0 -38.063,16.013 -38.063,35.963 0,19.949 17.063,36.225 38.063,36.225 21,0 37.8,-16.276 37.8,-36.225 0,-19.95 -16.8,-35.963 -37.8,-35.963 z M 196.087,375.2 c -19.425,0 -35.175,7.349 -35.175,16.537 0,9.187 15.75,16.537 35.175,16.537 19.688,0 35.437,-7.35 35.437,-16.537 0,-9.188 -15.749,-16.537 -35.437,-16.537 z m 0,6.299 c -12.075,0 -22.05,4.463 -22.05,10.238 0,5.775 9.975,10.5 22.05,10.5 12.337,0 22.05,-4.725 22.05,-10.5 0,-5.775 -9.713,-10.238 -22.05,-10.238 z"
   stroke="none"
   fill-rule="evenodd"
   fill="#000000" />
  </g>
</svg>
