<?xml version="1.0" encoding="UTF-8" standalone="no"?>
<svg
   xmlns:dc="http://purl.org/dc/elements/1.1/"
   xmlns:cc="http://creativecommons.org/ns#"
   xmlns:rdf="http://www.w3.org/1999/02/22-rdf-syntax-ns#"
   xmlns:svg="http://www.w3.org/2000/svg"
   xmlns="http://www.w3.org/2000/svg"
   xmlns:sodipodi="http://sodipodi.sourceforge.net/DTD/sodipodi-0.dtd"
   xmlns:inkscape="http://www.inkscape.org/namespaces/inkscape"
   inkscape:version="1.0 (4035a4fb49, 2020-05-01)"
   sodipodi:docname="uz.5.40.svg"
   xml:space="preserve"
   viewBox="0 0 500 500"
   height="500"
   width="500"
   id="background"
   version="1.1"><metadata
   id="metadata891"><rdf:RDF><cc:Work
       rdf:about=""><dc:format>image/svg+xml</dc:format><dc:type
         rdf:resource="http://purl.org/dc/dcmitype/StillImage" /></cc:Work></rdf:RDF></metadata><defs
   id="defs889" /><sodipodi:namedview
   inkscape:current-layer="background"
   inkscape:window-maximized="1"
   inkscape:window-y="-9"
   inkscape:window-x="-9"
   inkscape:cy="569.38179"
   inkscape:cx="-635.82996"
   inkscape:zoom="0.41921331"
   showgrid="false"
   id="namedview887"
   inkscape:window-height="1001"
   inkscape:window-width="1920"
   inkscape:pageshadow="2"
   inkscape:pageopacity="0"
   guidetolerance="10"
   gridtolerance="10"
   objecttolerance="10"
   borderopacity="1"
   bordercolor="#666666"
   pagecolor="#ffffff" />
  <g
   transform="matrix(0.71225071,0,0,0.71225071,0.71225071,0.71225071)"
   id="g884">
    <path
   style="stroke:#000000;stroke-width:2;stroke-miterlimit:4;stroke-dasharray:none;stroke-opacity:1"
   id="path878"
   d="M 0,45 C 0,20.147 20.147,0 45,0 h 610 c 24.852,0 45,20.147 45,45 v 610 c 0,24.852 -20.148,45 -45,45 H 45 C 20.147,700 0,679.852 0,655 Z"
   stroke="none"
   fill-rule="evenodd"
   fill="#ffffff" />
    <path
   id="path880"
   d="M 45,680 C 31.192,680 20,668.807 20,655 v -596.667 0 C 220.266,244.299 359.1,440.533 466.666,680 v 0 z m 491.666,0 V 291.666 h 70 V 58.333 h -210 v 233.333 h 70 v 227.5 C 386.633,356.766 253.633,181.999 81.666,20 v 0 H 655 c 13.807,0 25,11.192 25,25 v 610 c 0,13.807 -11.193,25 -25,25 z"
   stroke="none"
   fill-rule="evenodd"
   fill="#0e69e1" />
    <path
   id="path882"
   d="M 525,210 H 478.333 V 186.666 H 525 Z m 0,-70 h -46.667 v 23.333 H 525 Z M 420,81.666 H 583.333 V 268.333 H 420 Z m 151.666,11.667 v 23.333 h -35 V 140 h 35 v 23.333 h -35 v 23.333 h 35 V 210 h -35 v 23.333 h 35 v 23.333 H 525 v -23.333 h -46.667 v 23.333 h -46.667 v -23.333 h 35 V 210 h -35 v -23.334 h 35 v -23.333 h -35 V 140 h 35 v -23.334 h -35 V 93.333 h 46.667 v 23.333 H 525 V 93.333 Z"
   stroke="none"
   fill-rule="evenodd"
   fill="#000000" />
  </g>
</svg>
