<?xml version="1.0" encoding="UTF-8" standalone="no"?>
<!-- Created with Inkscape (http://www.inkscape.org/) -->

<svg
   width="600"
   height="600"
   id="svg2"
   version="1.1"
   inkscape:version="1.2.2 (732a01da63, 2022-12-09)"
   sodipodi:docname="AZ_road_sign_3.12.svg"
   xmlns:inkscape="http://www.inkscape.org/namespaces/inkscape"
   xmlns:sodipodi="http://sodipodi.sourceforge.net/DTD/sodipodi-0.dtd"
   xmlns="http://www.w3.org/2000/svg"
   xmlns:svg="http://www.w3.org/2000/svg"
   xmlns:rdf="http://www.w3.org/1999/02/22-rdf-syntax-ns#"
   xmlns:cc="http://creativecommons.org/ns#"
   xmlns:dc="http://purl.org/dc/elements/1.1/">
  <title
     id="title3356">3.12 Oʻqqa tushadigan ogʻirlik cheklangan	</title>
  <defs
     id="defs4" />
  <sodipodi:namedview
     id="base"
     pagecolor="#ffffff"
     bordercolor="#666666"
     borderopacity="1.0"
     inkscape:pageopacity="0.0"
     inkscape:pageshadow="2"
     inkscape:zoom="0.70710678"
     inkscape:cx="222.73864"
     inkscape:cy="358.50314"
     inkscape:document-units="px"
     inkscape:current-layer="layer1"
     showgrid="false"
     inkscape:window-width="1920"
     inkscape:window-height="991"
     inkscape:window-x="-9"
     inkscape:window-y="-9"
     inkscape:window-maximized="1"
     inkscape:showpageshadow="2"
     inkscape:pagecheckerboard="0"
     inkscape:deskcolor="#d1d1d1"
     showguides="true" />
  <metadata
     id="metadata7">
    <rdf:RDF>
      <cc:Work
         rdf:about="">
        <dc:format>image/svg+xml</dc:format>
        <dc:type
           rdf:resource="http://purl.org/dc/dcmitype/StillImage" />
        <dc:title>3.12 Oʻqqa tushadigan ogʻirlik cheklangan	</dc:title>
        <cc:license
           rdf:resource="http://creativecommons.org/licenses/by-sa/3.0/" />
        <dc:description>ГОСТ Р 52290-2004
Размеры и пропорции по типоразмеру I</dc:description>
      </cc:Work>
      <cc:License
         rdf:about="http://creativecommons.org/licenses/by-sa/3.0/">
        <cc:permits
           rdf:resource="http://creativecommons.org/ns#Reproduction" />
        <cc:permits
           rdf:resource="http://creativecommons.org/ns#Distribution" />
        <cc:requires
           rdf:resource="http://creativecommons.org/ns#Notice" />
        <cc:requires
           rdf:resource="http://creativecommons.org/ns#Attribution" />
        <cc:permits
           rdf:resource="http://creativecommons.org/ns#DerivativeWorks" />
        <cc:requires
           rdf:resource="http://creativecommons.org/ns#ShareAlike" />
      </cc:License>
    </rdf:RDF>
  </metadata>
  <g
     inkscape:label="Layer 1"
     inkscape:groupmode="layer"
     id="layer1"
     transform="translate(0,-452.36218)">
    <path
       sodipodi:type="arc"
       style="opacity:1;color:#000000;fill:#ffffff;fill-opacity:1;fill-rule:nonzero;stroke:none;stroke-width:1px;marker:none;visibility:visible;display:inline;overflow:visible;enable-background:accumulate"
       id="path5334"
       sodipodi:cx="-87.720657"
       sodipodi:cy="432.25998"
       sodipodi:rx="22.107042"
       sodipodi:ry="29.465372"
       d="m -65.613615,432.25998 c 0,16.27327 -9.89766,29.46537 -22.107042,29.46537 -12.209383,0 -22.107043,-13.1921 -22.107043,-29.46537 0,-16.27328 9.89766,-29.46537 22.107043,-29.46537 12.209382,0 22.107042,13.19209 22.107042,29.46537 z"
       transform="matrix(13.570336,0,0,10.181443,1490.3988,-3648.6681)" />
    <path
       transform="matrix(13.525102,0,0,10.147505,1486.4308,-3633.998)"
       d="m -65.613615,432.25998 c 0,16.27327 -9.89766,29.46537 -22.107042,29.46537 -12.209383,0 -22.107043,-13.1921 -22.107043,-29.46537 0,-16.27328 9.89766,-29.46537 22.107043,-29.46537 12.209382,0 22.107042,13.19209 22.107042,29.46537 z"
       sodipodi:ry="29.465372"
       sodipodi:rx="22.107042"
       sodipodi:cy="432.25998"
       sodipodi:cx="-87.720657"
       id="path3003"
       style="color:#000000;fill:none;stroke:#000000;stroke-width:0.17071831000000001;stroke-miterlimit:4;stroke-opacity:1;stroke-dasharray:none;marker:none;visibility:visible;display:inline;overflow:visible;enable-background:accumulate;opacity:1"
       sodipodi:type="arc" />
    <path
       style="opacity:1;color:#000000;fill:#ff0000;fill-opacity:1;fill-rule:nonzero;stroke:none;stroke-width:1px;marker:none;visibility:visible;display:inline;overflow:visible;enable-background:accumulate"
       d="M 300 10 C 139.83742 10 10 139.83742 10 300 C 10 460.16258 139.83742 590 300 590 C 460.16258 590 590 460.16258 590 300 C 590 139.83742 460.16258 10 300 10 z M 300 59.03125 C 433.0828 59.03125 540.96875 166.91719 540.96875 300 C 540.96875 433.08281 433.0828 540.96875 300 540.96875 C 166.9172 540.96875 59.03125 433.08281 59.03125 300 C 59.03125 166.91719 166.9172 59.03125 300 59.03125 z "
       transform="translate(0,452.36218)"
       id="path4775-9" />
    <path
       id="path6892"
       style="opacity:1;color:#000000;fill:#000000;fill-opacity:1;stroke:none;stroke-width:1px;marker:none;visibility:visible;display:inline;overflow:visible;enable-background:accumulate"
       d="m 300.0001,781.3944 -3.7e-4,0 c -12.66298,0 -23.90819,6.08348 -30.97057,15.48386 -3.5313,4.69896 -9.15053,7.74194 -15.48104,7.74194 l -79.35447,-2e-5 0,-32.9032 c 0,-10.68939 -8.66545,-19.35484 -19.35484,-19.35484 -10.68938,0 -19.35484,8.66545 -19.35484,19.35484 l 0,96.77419 0,0 c 0,10.68938 8.66546,19.35484 19.35484,19.35484 10.68939,0 19.35484,-8.66546 19.35484,-19.35484 l 0,-32.90325 79.35057,0 c 6.33051,0 11.94974,3.04299 15.48298,7.74195 7.06433,9.40037 18.30955,15.48388 30.97253,15.48388 12.66298,0 23.90819,-6.08351 30.97076,-15.48388 3.53148,-4.69896 9.15071,-7.74195 15.48122,-7.74195 l 79.35484,0 0,32.90325 0,0 c 0,10.68938 8.66546,19.35484 19.35484,19.35484 10.68938,0 19.35484,-8.66546 19.35484,-19.35484 l 0,-96.77419 c 0,-10.68939 -8.66546,-19.35484 -19.35484,-19.35484 -10.68938,0 -19.35484,8.66545 -19.35484,19.35484 l 0,32.9032 -79.35097,0 c -6.33051,0 -11.94974,-3.04298 -15.48315,-7.74193 -7.06415,-9.40037 -18.30935,-15.48385 -30.97233,-15.48385 z"
       inkscape:connector-curvature="0"
       sodipodi:nodetypes="sscccsssccsscccscccccssssscccs" />
    <g
       style="font-size:211.68870544px;font-style:normal;font-variant:normal;font-weight:normal;font-stretch:normal;line-height:125%;letter-spacing:0px;word-spacing:0px;fill:#000000;fill-opacity:1;stroke:none;font-family:Arial;-inkscape-font-specification:Arial"
       id="text7949-8-8-7" />
    <g
       aria-label="5tk"
       id="text459"
       style="font-weight:bold;font-size:275.702px;line-height:1.1;font-family:'Russian Road Sign';-inkscape-font-specification:'Russian Road Sign Bold';fill:#000000;fill-rule:evenodd;stroke-width:3.84329;stroke-linecap:round;stroke-linejoin:round;paint-order:stroke fill markers">
      <g
         id="g3354"
         transform="translate(-54.945854)"
         style="fill:#000000">
        <path
           d="m 296.38627,593.31033 7.71966,-25.08888 h -88.77605 v 75.26664 l 17.36923,9.64957 c 3.85983,-1.92991 11.57948,-11.57948 23.15897,-11.57948 17.36922,0 27.01879,15.43931 27.01879,28.94871 0,19.29914 -19.29914,28.94871 -34.73845,28.94871 -12.68229,0 -27.2945,-1.37851 -36.66836,-7.71966 l 3.85982,25.08888 c 0,0 19.29914,7.71966 36.66837,7.71966 36.66836,0 59.82733,-25.08888 59.82733,-55.96751 0,-30.87862 -25.08888,-48.24785 -46.31793,-48.24785 -8.82247,0 -19.29914,1.92992 -25.08888,9.64957 v -36.66836 z"
           id="path3281"
           style="fill:#000000" />
        <path
           d="m 375.47281,609.69773 -17.01432,7.08931 v 26.93935 h -11.3429 v 15.59647 h 11.3429 v 45.37156 c 0,14.17861 11.14033,19.85006 25.52149,19.85006 2.83573,0 12.76075,-1.41787 17.01434,-2.83572 l -3.44338,-15.59647 c -2.22807,1.41785 -7.49441,3.03827 -11.74799,3.03827 -0.20256,0 -0.40511,0 -0.40511,-0.20256 -4.25358,0 -9.92503,-2.83571 -9.92503,-8.50716 v -41.11798 h 22.68579 v -15.59647 h -22.68579 z"
           id="path3283"
           style="stroke-width:2.82357;fill:#000000" />
        <path
           d="m 433.60515,609.69773 v 113.42888 h 17.01434 v -42.33327 l 26.53426,42.33327 h 21.26791 l -27.95212,-41.92817 27.34447,-37.47205 H 476.9512 l -26.33171,36.05419 v -70.08285 z"
           id="path3285"
           style="stroke-width:2.82357;fill:#000000" />
      </g>
    </g>
  </g>
</svg>
