<?xml version="1.0" encoding="UTF-8" standalone="no"?>
<svg
   width="1700"
   height="350"
   viewBox="0 0 1700 350"
   version="1.1"
   id="svg3479"
   sodipodi:docname="TM_road_sign_5.23.svg"
   xml:space="preserve"
   inkscape:version="1.2.2 (732a01da63, 2022-12-09)"
   xmlns:inkscape="http://www.inkscape.org/namespaces/inkscape"
   xmlns:sodipodi="http://sodipodi.sourceforge.net/DTD/sodipodi-0.dtd"
   xmlns="http://www.w3.org/2000/svg"
   xmlns:svg="http://www.w3.org/2000/svg"><defs
     id="defs3483" /><sodipodi:namedview
     id="namedview3481"
     pagecolor="#ffffff"
     bordercolor="#000000"
     borderopacity="0.25"
     inkscape:showpageshadow="2"
     inkscape:pageopacity="0.0"
     inkscape:pagecheckerboard="0"
     inkscape:deskcolor="#d1d1d1"
     showgrid="false"
     inkscape:zoom="0.38705882"
     inkscape:cx="488.29787"
     inkscape:cy="466.33739"
     inkscape:window-width="1920"
     inkscape:window-height="1001"
     inkscape:window-x="-9"
     inkscape:window-y="-9"
     inkscape:window-maximized="1"
     inkscape:current-layer="svg3479" /><g
     id="g3445"><rect
       x="1"
       y="1"
       width="1698"
       height="348"
       rx="44"
       style="fill: #fff"
       id="rect3441" /><path
       d="M1655,2a43,43,0,0,1,43,43V305a43,43,0,0,1-43,43H45A43,43,0,0,1,2,305V45A43,43,0,0,1,45,2H1655m0-2H45A45,45,0,0,0,0,45V305a45,45,0,0,0,45,45H1655a45,45,0,0,0,45-45V45a45,45,0,0,0-45-45Z"
       id="path3443" /></g><g
     id="g3451"><path
       d="M 1655,10 H 45 C 25.670034,10 10,25.670034 10,45 v 260 c 0,19.32997 15.670034,35 35,35 h 1610 c 19.33,0 35,-15.67003 35,-35 V 45 c 0,-19.329966 -15.67,-35 -35,-35 z"
       id="path3449"
       sodipodi:nodetypes="sssssssss"
       style="fill:#0d69e1;fill-opacity:1" /></g><path
     id="text5471"
     style="font-style:normal;font-variant:normal;font-weight:normal;font-stretch:normal;font-size:266.18px;font-family:'Russian Road Sign';-inkscape-font-specification:'Russian Road Sign';fill:#ffffff;stroke-width:22.1817"
     d="M 667.40039 96.742188 C 626.40871 96.742188 604.31641 131.87888 604.31641 175 C 604.31641 218.12112 626.40871 253.25781 667.40039 253.25781 C 681.7741 253.25781 690.82458 245.53839 697.21289 236.48828 L 702.80273 249.53125 L 725.16211 249.53125 L 725.16211 175 L 671.12695 175 L 671.12695 197.35938 L 697.21289 197.35938 C 697.21289 210.40218 695.34952 214.129 687.89648 221.58203 C 682.30671 227.17181 676.71668 229.03516 667.40039 229.03516 C 646.90455 229.03516 631.99805 208.53865 631.99805 175 C 631.99805 141.46135 646.90455 120.96484 667.40039 120.96484 C 681.24174 120.96484 690.82429 128.4182 696.41406 147.05078 L 721.43555 137.73438 C 712.11926 113.51202 695.61544 96.742188 667.40039 96.742188 z M 1125.7617 96.742188 C 1084.77 96.742188 1065.0723 131.87888 1065.0723 175 C 1065.0723 218.12112 1084.77 253.25781 1125.7617 253.25781 C 1166.7534 253.25781 1186.4512 218.12112 1186.4512 175 C 1186.4512 131.87888 1166.7534 96.742188 1125.7617 96.742188 z M 140.09961 100.46875 L 140.09961 122.82812 L 181.08984 122.82812 L 181.08984 249.53125 L 207.17578 249.53125 L 207.17578 122.82812 L 248.16797 122.82812 L 248.16797 100.46875 L 140.09961 100.46875 z M 332.01367 100.46875 L 283.57031 249.53125 L 311.51758 249.53125 L 320.83398 219.71875 L 373.00586 219.71875 L 382.32227 249.53125 L 410.27148 249.53125 L 361.82617 100.46875 L 332.01367 100.46875 z M 451.26367 100.46875 L 451.26367 249.53125 L 477.34766 249.53125 L 477.34766 141.46094 L 533.24609 249.53125 L 563.05859 249.53125 L 563.05859 100.46875 L 536.97266 100.46875 L 536.97266 206.67578 L 481.07422 100.46875 L 451.26367 100.46875 z M 809.00781 100.46875 L 760.56445 249.53125 L 788.51172 249.53125 L 797.82812 219.71875 L 850 219.71875 L 859.31641 249.53125 L 887.26562 249.53125 L 838.82031 100.46875 L 809.00781 100.46875 z M 922.66797 100.46875 L 922.66797 122.82812 L 963.6582 122.82812 L 963.6582 249.53125 L 989.74414 249.53125 L 989.74414 122.82812 L 1030.7363 122.82812 L 1030.7363 100.46875 L 922.66797 100.46875 z M 1228.2422 100.46875 L 1228.2422 249.53125 L 1254.3262 249.53125 L 1254.3262 197.35938 L 1278.5488 197.35938 C 1313.9507 197.35938 1326.9941 169.4099 1326.9941 148.91406 C 1326.9941 128.41822 1313.9507 100.46875 1278.5488 100.46875 L 1228.2422 100.46875 z M 1377.3027 100.46875 L 1377.3027 249.53125 L 1427.6094 249.53125 C 1468.6011 249.53125 1492.0254 218.12112 1492.0254 175 C 1492.0254 131.87888 1468.6011 100.46875 1427.6094 100.46875 L 1377.3027 100.46875 z M 1533.8164 100.46875 L 1533.8164 249.53125 L 1559.9004 249.53125 L 1559.9004 100.46875 L 1533.8164 100.46875 z M 1125.7617 120.96484 C 1146.2576 120.96484 1161.1641 141.46135 1161.1641 175 C 1161.1641 208.53865 1146.2576 229.03516 1125.7617 229.03516 C 1105.2659 229.03516 1090.3594 208.53865 1090.3594 175 C 1090.3594 141.46135 1105.2659 120.96484 1125.7617 120.96484 z M 1254.3262 122.82812 L 1271.0957 122.82812 C 1286.0018 122.82812 1300.9082 130.28148 1300.9082 148.91406 C 1300.9082 167.54664 1286.0018 175 1271.0957 175 L 1254.3262 175 L 1254.3262 122.82812 z M 1403.3867 122.82812 L 1425.7461 122.82812 C 1446.2419 122.82812 1464.875 139.5981 1464.875 175 C 1464.875 210.4019 1446.2419 227.17188 1425.7461 227.17188 L 1403.3867 227.17188 L 1403.3867 122.82812 z M 346.91992 134.00781 L 365.55273 197.35938 L 328.28711 197.35938 L 346.91992 134.00781 z M 823.91406 134.00781 L 842.54688 197.35938 L 805.28125 197.35938 L 823.91406 134.00781 z " /></svg>
