<?xml version="1.0" encoding="UTF-8" standalone="no"?>
<svg
   sodipodi:docname="7.24_Uzbekistan_road_sign.svg"
   inkscape:version="1.2.2 (732a01da63, 2022-12-09)"
   version="1.1"
   id="svg2"
   height="300"
   width="600"
   xml:space="preserve"
   xmlns:inkscape="http://www.inkscape.org/namespaces/inkscape"
   xmlns:sodipodi="http://sodipodi.sourceforge.net/DTD/sodipodi-0.dtd"
   xmlns="http://www.w3.org/2000/svg"
   xmlns:svg="http://www.w3.org/2000/svg"
   xmlns:rdf="http://www.w3.org/1999/02/22-rdf-syntax-ns#"
   xmlns:cc="http://creativecommons.org/ns#"
   xmlns:dc="http://purl.org/dc/elements/1.1/"><defs
     id="defs4" /><sodipodi:namedview
     inkscape:document-rotation="0"
     inkscape:guide-bbox="true"
     showguides="true"
     inkscape:snap-object-midpoints="true"
     inkscape:snap-midpoints="true"
     inkscape:snap-smooth-nodes="true"
     inkscape:object-nodes="true"
     inkscape:snap-intersection-paths="true"
     inkscape:object-paths="true"
     inkscape:snap-bbox-midpoints="true"
     inkscape:snap-bbox-edge-midpoints="true"
     inkscape:bbox-nodes="true"
     inkscape:bbox-paths="true"
     inkscape:snap-bbox="true"
     inkscape:window-maximized="1"
     inkscape:window-y="-9"
     inkscape:window-x="-9"
     inkscape:window-height="991"
     inkscape:window-width="1920"
     showgrid="false"
     inkscape:current-layer="layer1"
     inkscape:document-units="px"
     inkscape:cy="342.94679"
     inkscape:cx="166.17009"
     inkscape:zoom="0.70710678"
     inkscape:pageshadow="2"
     inkscape:pageopacity="0.0"
     borderopacity="1.0"
     bordercolor="#666666"
     pagecolor="#ffffff"
     id="base"
     inkscape:showpageshadow="2"
     inkscape:pagecheckerboard="0"
     inkscape:deskcolor="#d1d1d1" /><metadata
     id="metadata7"><rdf:RDF><cc:Work
         rdf:about=""><dc:format>image/svg+xml</dc:format><dc:type
           rdf:resource="http://purl.org/dc/dcmitype/StillImage" /><cc:license
           rdf:resource="http://creativecommons.org/licenses/by-sa/3.0/" /><dc:description>ГОСТ Р 52290-2004
Размеры и пропорции по типоразмеру I</dc:description></cc:Work><cc:License
         rdf:about="http://creativecommons.org/licenses/by-sa/3.0/"><cc:permits
           rdf:resource="http://creativecommons.org/ns#Reproduction" /><cc:permits
           rdf:resource="http://creativecommons.org/ns#Distribution" /><cc:requires
           rdf:resource="http://creativecommons.org/ns#Notice" /><cc:requires
           rdf:resource="http://creativecommons.org/ns#Attribution" /><cc:permits
           rdf:resource="http://creativecommons.org/ns#DerivativeWorks" /><cc:requires
           rdf:resource="http://creativecommons.org/ns#ShareAlike" /></cc:License></rdf:RDF></metadata><g
     transform="translate(0,-752.36218)"
     id="layer1"
     inkscape:groupmode="layer"
     inkscape:label="Layer 1"><rect
       ry="45"
       rx="45"
       style="opacity:1;color:#000000;fill:#000000;fill-opacity:1;fill-rule:nonzero;stroke:none;stroke-width:3.54299997999999980;marker:none;visibility:visible;display:inline;overflow:visible;enable-background:accumulate"
       id="rect5622"
       width="600"
       height="300"
       x="0"
       y="752.36218" /><rect
       ry="35"
       rx="35"
       style="color:#000000;fill:#ffffff;fill-opacity:1;fill-rule:nonzero;stroke:none;stroke-width:3.54299997999999980;marker:none;visibility:visible;display:inline;overflow:visible;enable-background:accumulate;opacity:1"
       id="rect9537"
       width="580"
       height="280"
       x="10"
       y="762.36212" /><g
       id="g5337"
       transform="translate(0,0.69066158)"><g
         aria-label="01/000 MMM"
         id="text5128"
         style="font-size:91.2719px;line-height:1.5;font-family:'Russian Road Sign';-inkscape-font-specification:'Russian Road Sign';letter-spacing:-3.09375px;word-spacing:0px;fill-rule:evenodd;stroke-width:0.91272;stroke-linecap:round;paint-order:stroke fill markers"><path
           d="m 88.662757,838.35784 c -10.222452,0 -17.250388,10.86136 -17.250388,26.19504 0,15.33368 7.027936,26.19503 17.250388,26.19503 10.222452,0 17.250393,-10.86135 17.250393,-26.19503 0,-14.51223 -7.027941,-26.19504 -17.250393,-26.19504 z m 0,7.94066 c 4.928682,0 8.305743,5.47631 8.305743,18.25438 0,12.77806 -3.377061,18.25438 -8.305743,18.25438 -4.928682,0 -8.305743,-5.47632 -8.305743,-18.25438 0,-12.77807 3.377061,-18.25438 8.305743,-18.25438 z"
           id="path5252" /><path
           d="m 109.57349,850.86209 3.01197,3.92469 6.8454,-4.28977 v 39.612 h 8.94464 v -51.11226 h -7.66684 z"
           id="path5254" /><path
           d="m 147.46087,897.86712 -8.7621,-0.0913 c 0,0 30.48481,-62.52125 30.57608,-62.61252 h 9.49228 z"
           id="path5256" /><path
           d="m 202.50738,838.35784 c -10.22245,0 -17.25038,10.86136 -17.25038,26.19504 0,15.33368 7.02793,26.19503 17.25038,26.19503 10.22246,0 17.25039,-10.86135 17.25039,-26.19503 0,-14.51223 -7.02793,-26.19504 -17.25039,-26.19504 z m 0,7.94066 c 4.92869,0 8.30575,5.47631 8.30575,18.25438 0,12.77806 -3.37706,18.25438 -8.30575,18.25438 -4.92868,0 -8.30574,-5.47632 -8.30574,-18.25438 0,-12.77807 3.37706,-18.25438 8.30574,-18.25438 z"
           id="path5258" /><path
           d="m 245.41465,838.35784 c -10.22245,0 -17.25039,10.86136 -17.25039,26.19504 0,15.33368 7.02794,26.19503 17.25039,26.19503 10.22245,0 17.25039,-10.86135 17.25039,-26.19503 0,-14.51223 -7.02794,-26.19504 -17.25039,-26.19504 z m 0,7.94066 c 4.92868,0 8.30574,5.47631 8.30574,18.25438 0,12.77806 -3.37706,18.25438 -8.30574,18.25438 -4.92868,0 -8.30574,-5.47632 -8.30574,-18.25438 0,-12.77807 3.37706,-18.25438 8.30574,-18.25438 z"
           id="path5260" /><path
           d="m 288.32191,838.35784 c -10.22246,0 -17.25039,10.86136 -17.25039,26.19504 0,15.33368 7.02793,26.19503 17.25039,26.19503 10.22245,0 17.25038,-10.86135 17.25038,-26.19503 0,-14.51223 -7.02793,-26.19504 -17.25038,-26.19504 z m 0,7.94066 c 4.92868,0 8.30574,5.47631 8.30574,18.25438 0,12.77806 -3.37706,18.25438 -8.30574,18.25438 -4.92869,0 -8.30575,-5.47632 -8.30575,-18.25438 0,-12.77807 3.37706,-18.25438 8.30575,-18.25438 z"
           id="path5262" /><path
           d="m 358.43769,890.10901 h 8.94465 v -37.05639 l 15.33367,26.83394 15.33368,-26.83394 0.63891,37.05639 h 8.30574 v -51.11226 h -10.22245 l -14.05588,23.63942 -14.05587,-23.63942 h -10.22245 z"
           id="path5264" /><path
           d="m 419.23432,890.10901 h 8.94465 v -37.05639 l 15.33368,26.83394 15.33367,-26.83394 0.63891,37.05639 h 8.30574 v -51.11226 h -10.22245 l -14.05587,23.63942 -14.05588,-23.63942 h -10.22245 z"
           id="path5266" /><path
           d="m 480.03098,890.10901 h 8.94465 v -37.05639 l 15.33368,26.83394 15.33368,-26.83394 0.6389,37.05639 h 8.30574 v -51.11226 h -10.22245 l -14.05587,23.63942 -14.05587,-23.63942 h -10.22246 z"
           id="path5268" /></g><g
         aria-label="01/M 000 MM"
         id="text5232"
         style="font-size:91.2719px;line-height:1.5;font-family:'Russian Road Sign';-inkscape-font-specification:'Russian Road Sign';letter-spacing:-3.09375px;word-spacing:0px;fill-rule:evenodd;stroke-width:0.91272;stroke-linecap:round;paint-order:stroke fill markers"><path
           d="m 67.391654,908.67034 c -10.222452,0 -17.250388,10.86136 -17.250388,26.19504 0,15.33368 7.027936,26.19503 17.250388,26.19503 10.222452,0 17.250388,-10.86135 17.250388,-26.19503 0,-14.51223 -7.027936,-26.19504 -17.250388,-26.19504 z m 0,7.94066 c 4.928682,0 8.305743,5.47631 8.305743,18.25438 0,12.77806 -3.377061,18.25438 -8.305743,18.25438 -4.928682,0 -8.305743,-5.47632 -8.305743,-18.25438 0,-12.77807 3.377061,-18.25438 8.305743,-18.25438 z"
           id="path5271" /><path
           d="m 88.302388,921.17459 3.011973,3.92469 6.845392,-4.28977 v 39.612 h 8.944647 v -51.11226 h -7.666841 z"
           id="path5273" /><path
           d="m 126.18977,968.17962 -8.7621,-0.0913 c 0,0 30.48481,-62.52125 30.57608,-62.61252 h 9.49228 z"
           id="path5275" /><path
           d="m 165.9026,960.42151 h 8.94465 v -37.05639 l 15.33368,26.83394 15.33368,-26.83394 0.6389,37.05639 h 8.30574 V 909.30925 H 204.2368 l -14.05587,23.63942 -14.05587,-23.63942 H 165.9026 Z"
           id="path5277" /><path
           d="m 284.57513,908.67034 c -10.22246,0 -17.25039,10.86136 -17.25039,26.19504 0,15.33368 7.02793,26.19503 17.25039,26.19503 10.22245,0 17.25038,-10.86135 17.25038,-26.19503 0,-14.51223 -7.02793,-26.19504 -17.25038,-26.19504 z m 0,7.94066 c 4.92868,0 8.30574,5.47631 8.30574,18.25438 0,12.77806 -3.37706,18.25438 -8.30574,18.25438 -4.92869,0 -8.30575,-5.47632 -8.30575,-18.25438 0,-12.77807 3.37706,-18.25438 8.30575,-18.25438 z"
           id="path5279" /><path
           d="m 327.48238,908.67034 c -10.22245,0 -17.25039,10.86136 -17.25039,26.19504 0,15.33368 7.02794,26.19503 17.25039,26.19503 10.22246,0 17.25039,-10.86135 17.25039,-26.19503 0,-14.51223 -7.02793,-26.19504 -17.25039,-26.19504 z m 0,7.94066 c 4.92869,0 8.30575,5.47631 8.30575,18.25438 0,12.77806 -3.37706,18.25438 -8.30575,18.25438 -4.92868,0 -8.30574,-5.47632 -8.30574,-18.25438 0,-12.77807 3.37706,-18.25438 8.30574,-18.25438 z"
           id="path5281" /><path
           d="m 370.38964,908.67034 c -10.22245,0 -17.25039,10.86136 -17.25039,26.19504 0,15.33368 7.02794,26.19503 17.25039,26.19503 10.22245,0 17.25039,-10.86135 17.25039,-26.19503 0,-14.51223 -7.02794,-26.19504 -17.25039,-26.19504 z m 0,7.94066 c 4.92868,0 8.30574,5.47631 8.30574,18.25438 0,12.77806 -3.37706,18.25438 -8.30574,18.25438 -4.92868,0 -8.30574,-5.47632 -8.30574,-18.25438 0,-12.77807 3.37706,-18.25438 8.30574,-18.25438 z"
           id="path5283" /><path
           d="m 440.50542,960.42151 h 8.94465 v -37.05639 l 15.33368,26.83394 15.33368,-26.83394 0.6389,37.05639 h 8.30574 v -51.11226 h -10.22245 l -14.05587,23.63942 -14.05587,-23.63942 h -10.22246 z"
           id="path5285" /><path
           d="m 501.30209,960.42151 h 8.94464 v -37.05639 l 15.33368,26.83394 15.33368,-26.83394 0.6389,37.05639 h 8.30574 v -51.11226 h -10.22245 l -14.05587,23.63942 -14.05587,-23.63942 h -10.22245 z"
           id="path5287" /></g></g></g></svg>
