<?xml version="1.0" encoding="UTF-8" standalone="no"?>
<!-- Created with Inkscape (http://www.inkscape.org/) -->

<svg
   width="700"
   height="1050"
   id="svg2"
   version="1.1"
   inkscape:version="1.2.2 (732a01da63, 2022-12-09)"
   sodipodi:docname="RU_road_sign_7.3.svg"
   xml:space="preserve"
   xmlns:inkscape="http://www.inkscape.org/namespaces/inkscape"
   xmlns:sodipodi="http://sodipodi.sourceforge.net/DTD/sodipodi-0.dtd"
   xmlns="http://www.w3.org/2000/svg"
   xmlns:svg="http://www.w3.org/2000/svg"
   xmlns:rdf="http://www.w3.org/1999/02/22-rdf-syntax-ns#"
   xmlns:cc="http://creativecommons.org/ns#"
   xmlns:dc="http://purl.org/dc/elements/1.1/"><title
     id="title3002">6.28 Meʼmorchilik yodgorligi	</title><defs
     id="defs4" /><sodipodi:namedview
     id="base"
     pagecolor="#ffffff"
     bordercolor="#666666"
     borderopacity="1.0"
     inkscape:pageopacity="0.0"
     inkscape:pageshadow="2"
     inkscape:zoom="1"
     inkscape:cx="397.5"
     inkscape:cy="492.5"
     inkscape:document-units="px"
     inkscape:current-layer="layer1"
     showgrid="false"
     inkscape:window-width="1920"
     inkscape:window-height="991"
     inkscape:window-x="-9"
     inkscape:window-y="-9"
     inkscape:window-maximized="1"
     inkscape:showpageshadow="2"
     inkscape:pagecheckerboard="0"
     inkscape:deskcolor="#d1d1d1" /><metadata
     id="metadata7"><rdf:RDF><cc:Work
         rdf:about=""><dc:format>image/svg+xml</dc:format><dc:type
           rdf:resource="http://purl.org/dc/dcmitype/StillImage" /><dc:title>6.28 Meʼmorchilik yodgorligi	</dc:title><cc:license
           rdf:resource="http://creativecommons.org/licenses/by-sa/3.0/" /><dc:description>ГОСТ Р 52290-2004
Размеры и пропорции по типоразмеру II</dc:description></cc:Work><cc:License
         rdf:about="http://creativecommons.org/licenses/by-sa/3.0/"><cc:permits
           rdf:resource="http://creativecommons.org/ns#Reproduction" /><cc:permits
           rdf:resource="http://creativecommons.org/ns#Distribution" /><cc:requires
           rdf:resource="http://creativecommons.org/ns#Notice" /><cc:requires
           rdf:resource="http://creativecommons.org/ns#Attribution" /><cc:permits
           rdf:resource="http://creativecommons.org/ns#DerivativeWorks" /><cc:requires
           rdf:resource="http://creativecommons.org/ns#ShareAlike" /></cc:License></rdf:RDF></metadata><g
     inkscape:label="Layer 1"
     inkscape:groupmode="layer"
     id="layer1"
     transform="translate(0,-2.362183)"><rect
       style="color:#000000;fill:#ffffff;fill-opacity:1;fill-rule:nonzero;stroke:none;stroke-width:3.54299997999999980;marker:none;visibility:visible;display:inline;overflow:visible;enable-background:accumulate;opacity:1"
       id="rect10481"
       width="700"
       height="1050"
       x="0"
       y="2.3621831"
       rx="45"
       ry="45" /><path
       inkscape:connector-curvature="0"
       style="color:#000000;fill:#0d69e1;fill-opacity:1;fill-rule:nonzero;stroke:none;stroke-width:3.54299997999999980;marker:none;visibility:visible;display:inline;overflow:visible;enable-background:accumulate;opacity:1"
       d="m 45.000009,22.362155 c -13.85,0 -25,11.15 -25,25 l 0,960.000045 c 0,13.85 11.15,25 25,25 l 610.000001,0 c 13.85,0 25,-11.15 25,-25 l 0,-960.000045 c 0,-13.85 -11.15,-25 -25,-25 l -610.000001,0 z m 65.625001,155.000005 478.75,0 c 24.93,0 45,20.07 45,45 l 0,478.75 c 0,24.93 -20.07,45 -45,45 l -478.75,0 c -24.930001,0 -45.000001,-20.07 -45.000001,-45 l 0,-478.75 c 0,-24.93 20.07,-45 45.000001,-45 z"
       id="rect10483" /><rect
       ry="44"
       rx="44"
       y="3.3621678"
       x="1.0000153"
       height="1048"
       width="698"
       id="rect10490"
       style="color:#000000;fill:none;stroke:#000000;stroke-width:1.99999988000000010;stroke-miterlimit:4;stroke-opacity:1;stroke-dasharray:none;marker:none;visibility:visible;display:inline;overflow:visible;enable-background:accumulate;opacity:1" /><g
       aria-label="300m"
       id="text5762"
       style="font-size:190.338px;line-height:1.5;font-family:'Russian Road Sign';-inkscape-font-specification:'Russian Road Sign';fill:#ffffff;fill-rule:evenodd;stroke-width:44.8854;stroke-linecap:round;stroke-linejoin:round;paint-order:stroke fill markers"><path
         d="m 155.76006,841.76231 7.04251,15.79805 c 7.61352,-6.47149 12.94298,-9.13622 23.60191,-9.13622 6.66183,0 13.32366,5.32946 13.32366,11.99129 0,7.9942 -10.65893,17.32076 -23.98259,19.98549 v 14.65603 c 2.66473,-1.33237 6.09082,-1.33237 9.32656,-1.33237 17.32076,0 18.84347,11.03961 18.84347,15.60772 -0.19034,12.37197 -10.84927,17.70143 -22.84056,17.70143 -8.75555,0 -20.36617,-1.5227 -26.83766,-5.90048 l 2.28405,18.65313 c 0,0 16.55941,4.56811 27.21834,4.56811 25.31495,0 39.20963,-18.65312 39.20963,-34.64152 0,-17.32075 -19.22414,-25.31495 -25.88597,-26.64731 10.65893,-1.33237 21.31785,-11.9913 21.31785,-26.64732 0,-14.65603 -15.22704,-24.17293 -28.5507,-24.17293 -10.65892,0 -27.40867,5.5198 -34.0705,9.5169 z"
         id="path6231"
         style="fill:#ffffff" /><path
         d="m 284.61905,833.76811 c -21.31785,0 -35.97388,22.65023 -35.97388,54.62701 0,31.97678 14.65603,54.627 35.97388,54.627 21.31786,0 35.97388,-22.65022 35.97388,-54.627 0,-30.26374 -14.65602,-54.62701 -35.97388,-54.62701 z m 0,16.55941 c 10.27825,0 17.32076,11.42028 17.32076,38.0676 0,26.64732 -7.04251,38.0676 -17.32076,38.0676 -10.27825,0 -17.32076,-11.42028 -17.32076,-38.0676 0,-26.64732 7.04251,-38.0676 17.32076,-38.0676 z"
         id="path6233"
         style="fill:#ffffff" /><path
         d="m 380.54934,833.76811 c -21.31785,0 -35.97388,22.65023 -35.97388,54.62701 0,31.97678 14.65603,54.627 35.97388,54.627 21.31786,0 35.97388,-22.65022 35.97388,-54.627 0,-30.26374 -14.65602,-54.62701 -35.97388,-54.62701 z m 0,16.55941 c 10.27825,0 17.32076,11.42028 17.32076,38.0676 0,26.64732 -7.04251,38.0676 -17.32076,38.0676 -10.27825,0 -17.32075,-11.42028 -17.32075,-38.0676 0,-26.64732 7.0425,-38.0676 17.32075,-38.0676 z"
         id="path6235"
         style="fill:#ffffff" /><path
         d="m 481.8091,865.7449 c -13.32366,0 -20.93718,10.08791 -20.93718,10.08791 -1.33236,-1.90338 -2.09371,-5.32946 -2.66473,-8.75555 h -13.70433 v 74.6125 h 15.98839 v -47.96518 c 3.9971,-7.99419 9.5169,-14.65602 17.32076,-14.65602 7.99419,0 9.32656,6.66183 9.32656,10.65893 v 51.96227 h 15.98839 v -47.96518 c 3.9971,-7.99419 9.5169,-14.65602 17.32076,-14.65602 7.99419,0 9.32656,6.66183 9.32656,10.65893 v 51.96227 h 15.98839 v -53.29464 c 0,-13.32366 -6.66183,-22.65022 -21.31785,-22.65022 -9.89758,0 -19.98549,5.32946 -22.65023,13.32366 -2.66473,-7.9942 -9.70723,-13.32366 -19.98549,-13.32366 z"
         id="path6237"
         style="fill:#ffffff" /></g><g
       id="g10530"
       transform="matrix(4.3181714,0,0,4.3181714,-217.75502,-599.44131)"><path
         id="rect7835"
         style="opacity:1;fill:#000000;fill-rule:evenodd;stroke-width:13.2384;stroke-linecap:round;stroke-linejoin:round;paint-order:stroke fill markers"
         d="m 87.379158,192.77518 c -0.8247,0 -1.4887,0.664 -1.4887,1.48872 v 1.81982 l -4.3211,4.37592 v 0.63731 0.95348 67.95087 h -1.5311 c -0.5008,0 -0.9043,0.40291 -0.9043,0.90368 v 3.12432 c 0,0.50077 0.4035,0.90369 0.9043,0.90369 h 98.981232 c 0.50077,0 0.90369,-0.40292 0.90369,-0.90369 v -3.12432 c 0,-0.50077 -0.40292,-0.90368 -0.90369,-0.90368 h -0.76801 v -56.53403 h 0.76552 c 0.50077,0 0.90369,-0.40354 0.90369,-0.90431 v -3.34029 c 0,-0.50076 -0.40292,-0.90368 -0.90369,-0.90368 h -51.36582 c -0.50077,0 -0.90431,0.40292 -0.90431,0.90368 v 3.34029 c 0,0.50077 0.40354,0.90431 0.90431,0.90431 h 0.7649 v 24.4531 H 92.963158 v -35.86994 -0.95348 -0.63731 l -4.0953,-4.37218 v -1.82356 c 0,-0.82472 -0.664,-1.48872 -1.4887,-1.48872 z m -1.8379,12.96469 h 3.4499 c 0.353,0 0.6373,0.28424 0.6373,0.63731 v 5.33997 c 0,0.35307 -0.2843,0.63731 -0.6373,0.63731 h -3.4499 c -0.353,0 -0.6373,-0.28424 -0.6373,-0.63731 v -5.33997 c 0,-0.35307 0.2843,-0.63731 0.6373,-0.63731 z m 45.902052,7.7274 h 43.78094 v 56.53403 h -7.32971 v -49.10661 c 0,-0.50077 -0.40292,-0.90369 -0.90368,-0.90369 H 139.6767 c -0.50077,0 -0.90369,0.40292 -0.90369,0.90369 v 49.10661 h -7.3297 z m -45.902052,3.7218 h 3.4499 c 0.353,0 0.6373,0.28424 0.6373,0.63731 v 1.47067 c 0,0.35307 -0.2843,0.63731 -0.6373,0.63731 h -3.4499 c -0.353,0 -0.6373,-0.28424 -0.6373,-0.63731 v -1.47067 c 0,-0.35307 0.2843,-0.63731 0.6373,-0.63731 z m 56.729502,6.77144 h 22.12604 c 0.50077,0 0.90431,0.40292 0.90431,0.90369 v 10.24801 h -2.86977 c -0.80154,-1.01405 -1.63883,-2.01003 -2.49075,-2.91333 -0.94197,-0.99882 -1.84769,-1.85693 -2.80068,-2.65194 -0.95515,-0.79681 -2.17861,-2.35519 -3.89731,-2.30092 h -6.4e-4 c -1.79872,0.0575 -2.74618,1.27335 -3.89233,2.41606 -0.90894,0.90619 -1.66575,1.84476 -2.58659,2.85234 -0.75901,0.83054 -1.50553,1.7179 -2.22499,2.59779 h -3.171 V 224.8642 c 0,-0.50077 0.40292,-0.90369 0.90369,-0.90369 z m -56.729502,0.32923 h 3.4499 c 0.353,0 0.6373,0.28424 0.6373,0.63731 v 45.07425 h -4.7245 v -45.07425 c 0,-0.35307 0.2843,-0.63731 0.6373,-0.63731 z m 67.792832,6.7982 c 2.25778,-0.0718 6.63123,5.21545 9.38603,9.30201 1.70068,2.52282 2.57788,4.62425 2.57788,4.62425 v 1.22172 h 0.003 v 23.76538 h -3.41933 v -23.88986 c 0,-0.61787 -0.49742,-1.11529 -1.1153,-1.11529 h -14.86523 c -0.61787,0 -1.11529,0.49742 -1.11529,1.11529 v 23.88986 h -3.41871 v -24.52468 c 6.4e-4,3.2e-4 0.001,9.6e-4 0.002,0.001 v -0.46366 c 0,0 1.5971,-3.21126 2.68244,-4.62425 2.66834,-3.47391 7.15171,-9.23423 9.28271,-9.30201 z M 92.963158,242.7556 h 35.452922 v 27.2457 h -10.02022 v -17.11531 c 0,0 -3.6637,-7.19465 -8.2141,-7.19465 -4.5505,0 -8.2141,7.19465 -8.2141,7.19465 v 17.11531 h -9.004502 z m 55.152322,6.14657 h 10.4366 c 0.35307,0 0.63731,0.28425 0.63731,0.63731 v 20.46182 h -11.71122 v -20.46182 c 0,-0.35306 0.28424,-0.63731 0.63731,-0.63731 z m -37.93372,2.09678 c 2.2752,0 4.107,2.83243 4.107,2.83243 v 16.16992 h -8.2141 v -16.16992 c 0,0 1.8319,-2.83243 4.1071,-2.83243 z" /><g
         aria-label="MEʼ MORCHILIK YODGORLIGI"
         id="text10419"
         style="font-size:11.3946px;line-height:1.5;font-family:'Russian Road Sign';-inkscape-font-specification:'Russian Road Sign';letter-spacing:-0.95px;opacity:1;fill-rule:evenodd;stroke-width:4.12462;stroke-linecap:round;stroke-linejoin:round;paint-order:stroke fill markers"><path
           d="m 74.996583,289.50409 h 1.116671 v -4.62621 l 1.914292,3.35001 1.914293,-3.35001 0.07976,4.62621 h 1.036909 v -6.38098 h -1.276195 l -1.754769,2.9512 -1.754768,-2.9512 h -1.276195 z"
           id="path10532" /><path
           d="m 82.102574,289.50409 h 4.067872 v -0.95715 h -2.951201 v -1.91429 h 2.313103 v -0.95715 h -2.313103 v -1.51548 h 2.871439 v -1.03691 h -3.98811 z"
           id="path10534" /><path
           d="m 87.636097,284.4221 c -0.353233,0 -0.638098,0.28486 -0.638098,0.6381 0,0.35323 0.284865,0.63809 0.638098,0.63809 0.07976,0 0.170919,-0.0114 0.239286,-0.0456 v 0.0798 c 0,0.39881 -0.501362,0.70646 -0.501362,0.70646 l 0.07976,0.19371 c 0,0 0.854595,-0.47857 0.854595,-1.2762 0,-0.55833 -0.182314,-0.71785 -0.250681,-0.77483 -0.113946,-0.0911 -0.262076,-0.15952 -0.4216,-0.15952 z"
           id="path10536" /><path
           d="m 91.011796,289.50409 h 1.116671 v -4.62621 l 1.914292,3.35001 1.914293,-3.35001 0.07976,4.62621 h 1.036909 v -6.38098 h -1.276195 l -1.754769,2.9512 -1.754768,-2.9512 h -1.276195 z"
           id="path10538" /><path
           d="m 100.43089,282.96359 c -1.754767,0 -2.597967,1.50409 -2.597967,3.35001 0,1.84593 0.8432,3.35001 2.597967,3.35001 1.75477,0 2.59797,-1.50408 2.59797,-3.35001 0,-1.84592 -0.8432,-3.35001 -2.59797,-3.35001 z m 0,1.03691 c 0.87739,0 1.51548,0.87738 1.51548,2.3131 0,1.43572 -0.63809,2.31311 -1.51548,2.31311 -0.877383,0 -1.51548,-0.87739 -1.51548,-2.31311 0,-1.43572 0.638097,-2.3131 1.51548,-2.3131 z"
           id="path10540" /><path
           d="m 103.94757,283.12311 v 6.38098 h 1.11667 v -2.55239 h 0.6381 c 0.71786,0 0.87738,0.44439 1.16224,0.97993 0.29626,0.56973 0.50137,1.24202 0.75205,1.57246 h 1.35596 c -0.71786,-0.31905 -1.03691,-2.71192 -2.07382,-2.9512 0.6381,-0.23929 1.19643,-0.79762 1.19643,-1.67501 0,-0.6381 -0.39881,-1.75477 -1.99405,-1.75477 z m 1.11667,0.95715 h 0.71786 c 0.6381,0 1.19643,0.27347 1.19643,0.95715 0,0.68367 -0.55833,0.95714 -1.19643,0.95714 h -0.71786 z"
           id="path10542" /><path
           d="m 112.24997,282.96359 c -1.75477,0 -2.59797,1.50409 -2.59797,3.35001 0,1.85732 0.8432,3.35001 2.59797,3.35001 1.20783,0 1.91429,-0.71786 2.31311,-1.75476 l -1.0711,-0.39882 c -0.23928,0.79763 -0.66088,1.11668 -1.24201,1.11668 -0.87738,0 -1.51548,-0.87739 -1.51548,-2.31311 0,-1.43572 0.6381,-2.3131 1.51548,-2.3131 0.58113,0 1.00273,0.31905 1.24201,1.11667 l 1.0711,-0.39881 c -0.39882,-1.03691 -1.10528,-1.75477 -2.31311,-1.75477 z"
           id="path10544" /><path
           d="m 115.36784,289.50409 h 1.11667 v -2.87144 h 2.39287 v 2.87144 h 1.11667 v -6.38098 h -1.11667 v 2.55239 h -2.39287 v -2.55239 h -1.11667 z"
           id="path10546" /><path
           d="m 121.11786,289.50409 h 1.11667 v -6.38098 h -1.11667 z"
           id="path10548" /><path
           d="m 123.35835,289.50409 h 3.98811 v -0.95715 h -2.87144 v -5.42383 h -1.11667 z"
           id="path10550" /><path
           d="m 128.15123,289.50409 h 1.11667 v -6.38098 h -1.11667 z"
           id="path10552" /><path
           d="m 133.94684,289.50409 h 1.43572 l -2.44984,-3.3842 2.29032,-2.99678 h -1.43572 l -2.22195,3.00818 z m -2.39287,-6.38098 h -1.11667 v 6.38098 h 1.11667 z"
           id="path10554" /><path
           d="m 142.58684,289.50409 h 1.11667 v -2.55239 l 1.99406,-3.82859 h -1.2762 l -1.27619,2.63216 -1.2762,-2.63216 h -1.27619 l 1.99405,3.82859 z"
           id="path10556" /><path
           d="m 148.8952,282.96359 c -1.75477,0 -2.59797,1.50409 -2.59797,3.35001 0,1.84593 0.8432,3.35001 2.59797,3.35001 1.75477,0 2.59797,-1.50408 2.59797,-3.35001 0,-1.84592 -0.8432,-3.35001 -2.59797,-3.35001 z m 0,1.03691 c 0.87739,0 1.51548,0.87738 1.51548,2.3131 0,1.43572 -0.63809,2.31311 -1.51548,2.31311 -0.87738,0 -1.51548,-0.87739 -1.51548,-2.31311 0,-1.43572 0.6381,-2.3131 1.51548,-2.3131 z"
           id="path10558" /><path
           d="m 154.48569,283.12311 h -2.15358 v 6.38098 h 2.15358 c 1.75477,0 2.7575,-1.34456 2.7575,-3.19049 0,-1.84592 -1.00273,-3.19049 -2.7575,-3.19049 z m -0.0798,0.95715 c 0.87738,0 1.67501,0.71786 1.67501,2.23334 0,1.51548 -0.79763,2.23334 -1.67501,2.23334 h -0.95715 v -4.46668 z"
           id="path10560" /><path
           d="m 160.55476,282.96359 c -1.75477,0 -2.70052,1.50409 -2.70052,3.35001 0,1.84593 0.94575,3.35001 2.70052,3.35001 0.6153,0 1.00272,-0.33044 1.27619,-0.71786 l 0.23929,0.55834 h 0.95714 v -3.19049 h -2.3131 v 0.95715 h 1.11667 c 0,0.55833 -0.0798,0.71786 -0.39881,1.03691 -0.23929,0.23928 -0.47857,0.31905 -0.87738,0.31905 -0.87739,0 -1.51549,-0.87739 -1.51549,-2.31311 0,-1.43572 0.6381,-2.3131 1.51549,-2.3131 0.59252,0 1.00272,0.31905 1.24201,1.11667 l 1.07109,-0.39881 c -0.39881,-1.03691 -1.10528,-1.75477 -2.3131,-1.75477 z"
           id="path10562" /><path
           d="m 166.14525,282.96359 c -1.75476,0 -2.59796,1.50409 -2.59796,3.35001 0,1.84593 0.8432,3.35001 2.59796,3.35001 1.75477,0 2.59797,-1.50408 2.59797,-3.35001 0,-1.84592 -0.8432,-3.35001 -2.59797,-3.35001 z m 0,1.03691 c 0.87739,0 1.51549,0.87738 1.51549,2.3131 0,1.43572 -0.6381,2.31311 -1.51549,2.31311 -0.87738,0 -1.51548,-0.87739 -1.51548,-2.31311 0,-1.43572 0.6381,-2.3131 1.51548,-2.3131 z"
           id="path10564" /><path
           d="m 169.66193,283.12311 v 6.38098 h 1.11667 v -2.55239 h 0.6381 c 0.71786,0 0.87738,0.44439 1.16225,0.97993 0.29626,0.56973 0.50136,1.24202 0.75204,1.57246 h 1.35596 c -0.71786,-0.31905 -1.03691,-2.71192 -2.07382,-2.9512 0.6381,-0.23929 1.19643,-0.79762 1.19643,-1.67501 0,-0.6381 -0.39881,-1.75477 -1.99405,-1.75477 z m 1.11667,0.95715 h 0.71786 c 0.6381,0 1.19643,0.27347 1.19643,0.95715 0,0.68367 -0.55833,0.95714 -1.19643,0.95714 h -0.71786 z"
           id="path10566" /><path
           d="m 175.65123,289.50409 h 3.98811 v -0.95715 h -2.87144 v -5.42383 h -1.11667 z"
           id="path10568" /><path
           d="m 180.4441,289.50409 h 1.11668 v -6.38098 h -1.11668 z"
           id="path10570" /><path
           d="m 185.15723,282.96359 c -1.75477,0 -2.70052,1.50409 -2.70052,3.35001 0,1.84593 0.94575,3.35001 2.70052,3.35001 0.6153,0 1.00272,-0.33044 1.27619,-0.71786 l 0.23929,0.55834 h 0.95714 v -3.19049 h -2.3131 v 0.95715 h 1.11667 c 0,0.55833 -0.0798,0.71786 -0.39881,1.03691 -0.23929,0.23928 -0.47857,0.31905 -0.87738,0.31905 -0.87739,0 -1.51549,-0.87739 -1.51549,-2.31311 0,-1.43572 0.6381,-2.3131 1.51549,-2.3131 0.59252,0 1.00272,0.31905 1.24201,1.11667 l 1.07109,-0.39881 c -0.39881,-1.03691 -1.10528,-1.75477 -2.3131,-1.75477 z"
           id="path10572" /><path
           d="m 188.43462,289.50409 h 1.11667 v -6.38098 h -1.11667 z"
           id="path10574" /></g><g
         aria-label="ARCHITECTURAL MONUMENT"
         id="text10473"
         style="font-size:11.3946px;line-height:1.5;font-family:'Russian Road Sign';-inkscape-font-specification:'Russian Road Sign';letter-spacing:-0.95px;opacity:1;fill-rule:evenodd;stroke-width:4.12462;stroke-linecap:round;stroke-linejoin:round;paint-order:stroke fill markers"><path
           d="m 73.875741,299.27075 0.797622,-2.71192 0.797622,2.71192 z m 0.159524,-4.14764 -2.073817,6.38098 h 1.196433 l 0.398811,-1.2762 h 2.233342 l 0.398811,1.2762 h 1.196433 l -2.073818,-6.38098 z"
           id="path10577" /><path
           d="m 78.349562,295.12311 v 6.38098 h 1.116671 v -2.55239 h 0.638097 c 0.71786,0 0.877384,0.44439 1.162249,0.97993 0.29626,0.56973 0.501363,1.24202 0.752044,1.57246 h 1.355957 c -0.717859,-0.31905 -1.036908,-2.71192 -2.073817,-2.9512 0.638098,-0.23929 1.196433,-0.79762 1.196433,-1.67501 0,-0.6381 -0.398811,-1.75477 -1.994055,-1.75477 z m 1.116671,0.95715 h 0.717859 c 0.638098,0 1.196433,0.27347 1.196433,0.95715 0,0.68367 -0.558335,0.95714 -1.196433,0.95714 h -0.717859 z"
           id="path10579" /><path
           d="m 86.651969,294.96359 c -1.754769,0 -2.597969,1.50409 -2.597969,3.35001 0,1.85732 0.8432,3.35001 2.597969,3.35001 1.207827,0 1.914292,-0.71786 2.313103,-1.75476 l -1.071092,-0.39882 c -0.239287,0.79763 -0.660887,1.11668 -1.242011,1.11668 -0.877385,0 -1.515482,-0.87739 -1.515482,-2.31311 0,-1.43572 0.638097,-2.3131 1.515482,-2.3131 0.581124,0 1.002724,0.31905 1.242011,1.11667 l 1.071092,-0.39881 c -0.398811,-1.03691 -1.105276,-1.75477 -2.313103,-1.75477 z"
           id="path10581" /><path
           d="m 89.769834,301.50409 h 1.116671 v -2.87144 h 2.392866 v 2.87144 h 1.116671 v -6.38098 h -1.116671 v 2.55239 h -2.392866 v -2.55239 h -1.116671 z"
           id="path10583" /><path
           d="m 95.519851,301.50409 h 1.116671 v -6.38098 h -1.116671 z"
           id="path10585" /><path
           d="m 97.441298,295.12311 v 0.95715 h 1.754768 v 5.42383 h 1.116674 v -5.42383 h 1.75477 v -0.95715 z"
           id="path10587" /><path
           d="m 102.87227,301.50409 h 4.06787 v -0.95715 h -2.9512 v -1.91429 h 2.3131 v -0.95715 h -2.3131 v -1.51548 h 2.87144 v -1.03691 h -3.98811 z"
           id="path10589" /><path
           d="m 110.37706,294.96359 c -1.75477,0 -2.59797,1.50409 -2.59797,3.35001 0,1.85732 0.8432,3.35001 2.59797,3.35001 1.20783,0 1.91429,-0.71786 2.3131,-1.75476 l -1.07109,-0.39882 c -0.23929,0.79763 -0.66089,1.11668 -1.24201,1.11668 -0.87739,0 -1.51548,-0.87739 -1.51548,-2.31311 0,-1.43572 0.63809,-2.3131 1.51548,-2.3131 0.58112,0 1.00272,0.31905 1.24201,1.11667 l 1.07109,-0.39881 c -0.39881,-1.03691 -1.10527,-1.75477 -2.3131,-1.75477 z"
           id="path10591" /><path
           d="m 113.17588,295.12311 v 0.95715 h 1.75476 v 5.42383 h 1.11667 v -5.42383 h 1.75477 v -0.95715 z"
           id="path10593" /><path
           d="m 118.60685,295.12311 v 4.30716 c 0,0.0798 0.0798,2.15358 2.3131,2.15358 2.23334,0 2.3131,-2.07382 2.3131,-2.15358 v -4.30716 h -1.11667 v 4.38692 c 0,0.87739 -0.71786,1.19644 -1.19643,1.19644 -0.47857,0 -1.19643,-0.31905 -1.19643,-1.19644 v -4.38692 z"
           id="path10595" /><path
           d="m 124.43663,295.12311 v 6.38098 h 1.11667 v -2.55239 h 0.6381 c 0.71786,0 0.87738,0.44439 1.16225,0.97993 0.29626,0.56973 0.50136,1.24202 0.75204,1.57246 h 1.35596 c -0.71786,-0.31905 -1.03691,-2.71192 -2.07382,-2.9512 0.6381,-0.23929 1.19643,-0.79762 1.19643,-1.67501 0,-0.6381 -0.39881,-1.75477 -1.99405,-1.75477 z m 1.11667,0.95715 h 0.71786 c 0.6381,0 1.19643,0.27347 1.19643,0.95715 0,0.68367 -0.55833,0.95714 -1.19643,0.95714 h -0.71786 z"
           id="path10597" /><path
           d="m 132.10094,299.27075 0.79762,-2.71192 0.79762,2.71192 z m 0.15952,-4.14764 -2.07382,6.38098 h 1.19644 l 0.39881,-1.2762 h 2.23334 l 0.39881,1.2762 h 1.19643 l -2.07381,-6.38098 z"
           id="path10599" /><path
           d="m 136.49499,301.50409 h 3.98811 v -0.95715 h -2.87144 v -5.42383 h -1.11667 z"
           id="path10601" /><path
           d="m 145.95541,301.50409 h 1.11667 v -4.62621 l 1.91429,3.35001 1.91429,-3.35001 0.0798,4.62621 h 1.0369 v -6.38098 h -1.27619 l -1.75477,2.9512 -1.75477,-2.9512 h -1.27619 z"
           id="path10603" /><path
           d="m 155.3745,294.96359 c -1.75477,0 -2.59797,1.50409 -2.59797,3.35001 0,1.84593 0.8432,3.35001 2.59797,3.35001 1.75477,0 2.59797,-1.50408 2.59797,-3.35001 0,-1.84592 -0.8432,-3.35001 -2.59797,-3.35001 z m 0,1.03691 c 0.87739,0 1.51548,0.87738 1.51548,2.3131 0,1.43572 -0.63809,2.31311 -1.51548,2.31311 -0.87738,0 -1.51548,-0.87739 -1.51548,-2.31311 0,-1.43572 0.6381,-2.3131 1.51548,-2.3131 z"
           id="path10605" /><path
           d="m 158.73165,301.50409 h 1.11667 v -4.62621 l 2.39287,4.62621 h 1.27619 v -6.38098 h -1.11667 v 4.54645 l -2.39286,-4.54645 h -1.2762 z"
           id="path10607" /><path
           d="m 164.56144,295.12311 v 4.30716 c 0,0.0798 0.0798,2.15358 2.3131,2.15358 2.23334,0 2.3131,-2.07382 2.3131,-2.15358 v -4.30716 h -1.11667 v 4.38692 c 0,0.87739 -0.71786,1.19644 -1.19643,1.19644 -0.47857,0 -1.19643,-0.31905 -1.19643,-1.19644 v -4.38692 z"
           id="path10609" /><path
           d="m 170.23169,301.50409 h 1.11667 v -4.62621 l 1.91429,3.35001 1.9143,-3.35001 0.0798,4.62621 h 1.03691 v -6.38098 h -1.2762 l -1.75477,2.9512 -1.75476,-2.9512 h -1.2762 z"
           id="path10611" /><path
           d="m 177.33768,301.50409 h 4.06787 v -0.95715 h -2.9512 v -1.91429 h 2.31311 v -0.95715 h -2.31311 v -1.51548 h 2.87144 v -1.03691 h -3.98811 z"
           id="path10613" /><path
           d="m 182.4496,301.50409 h 1.11667 v -4.62621 l 2.39287,4.62621 h 1.27619 v -6.38098 h -1.11667 v 4.54645 l -2.39286,-4.54645 h -1.2762 z"
           id="path10615" /><path
           d="m 187.96033,295.12311 v 0.95715 h 1.75477 v 5.42383 h 1.11667 v -5.42383 h 1.75477 v -0.95715 z"
           id="path10617" /></g></g></g></svg>
