<?xml version="1.0" encoding="UTF-8" standalone="no"?>
<svg
   sodipodi:docname="7.25_Uzbekistan_road_sign.svg"
   inkscape:version="1.2.2 (732a01da63, 2022-12-09)"
   version="1.1"
   id="svg2"
   height="300"
   width="600"
   xml:space="preserve"
   xmlns:inkscape="http://www.inkscape.org/namespaces/inkscape"
   xmlns:sodipodi="http://sodipodi.sourceforge.net/DTD/sodipodi-0.dtd"
   xmlns="http://www.w3.org/2000/svg"
   xmlns:svg="http://www.w3.org/2000/svg"
   xmlns:rdf="http://www.w3.org/1999/02/22-rdf-syntax-ns#"
   xmlns:cc="http://creativecommons.org/ns#"
   xmlns:dc="http://purl.org/dc/elements/1.1/"><defs
     id="defs4" /><sodipodi:namedview
     inkscape:document-rotation="0"
     inkscape:guide-bbox="true"
     showguides="true"
     inkscape:snap-object-midpoints="true"
     inkscape:snap-midpoints="true"
     inkscape:snap-smooth-nodes="true"
     inkscape:object-nodes="true"
     inkscape:snap-intersection-paths="true"
     inkscape:object-paths="true"
     inkscape:snap-bbox-midpoints="true"
     inkscape:snap-bbox-edge-midpoints="true"
     inkscape:bbox-nodes="true"
     inkscape:bbox-paths="true"
     inkscape:snap-bbox="true"
     inkscape:window-maximized="1"
     inkscape:window-y="-9"
     inkscape:window-x="-9"
     inkscape:window-height="991"
     inkscape:window-width="1920"
     showgrid="false"
     inkscape:current-layer="layer1"
     inkscape:document-units="px"
     inkscape:cy="358.50314"
     inkscape:cx="270.8219"
     inkscape:zoom="0.70710678"
     inkscape:pageshadow="2"
     inkscape:pageopacity="0.0"
     borderopacity="1.0"
     bordercolor="#666666"
     pagecolor="#ffffff"
     id="base"
     inkscape:showpageshadow="2"
     inkscape:pagecheckerboard="0"
     inkscape:deskcolor="#d1d1d1" /><metadata
     id="metadata7"><rdf:RDF><cc:Work
         rdf:about=""><dc:format>image/svg+xml</dc:format><dc:type
           rdf:resource="http://purl.org/dc/dcmitype/StillImage" /><cc:license
           rdf:resource="http://creativecommons.org/licenses/by-sa/3.0/" /><dc:description>ГОСТ Р 52290-2004
Размеры и пропорции по типоразмеру I</dc:description></cc:Work><cc:License
         rdf:about="http://creativecommons.org/licenses/by-sa/3.0/"><cc:permits
           rdf:resource="http://creativecommons.org/ns#Reproduction" /><cc:permits
           rdf:resource="http://creativecommons.org/ns#Distribution" /><cc:requires
           rdf:resource="http://creativecommons.org/ns#Notice" /><cc:requires
           rdf:resource="http://creativecommons.org/ns#Attribution" /><cc:permits
           rdf:resource="http://creativecommons.org/ns#DerivativeWorks" /><cc:requires
           rdf:resource="http://creativecommons.org/ns#ShareAlike" /></cc:License></rdf:RDF></metadata><g
     transform="translate(0,-752.36218)"
     id="layer1"
     inkscape:groupmode="layer"
     inkscape:label="Layer 1"><rect
       ry="45"
       rx="45"
       style="opacity:1;color:#000000;fill:#000000;fill-opacity:1;fill-rule:nonzero;stroke:none;stroke-width:3.54299997999999980;marker:none;visibility:visible;display:inline;overflow:visible;enable-background:accumulate"
       id="rect5622"
       width="600"
       height="300"
       x="0"
       y="752.36218" /><rect
       ry="35"
       rx="35"
       style="color:#000000;fill:#ffffff;fill-opacity:1;fill-rule:nonzero;stroke:none;stroke-width:3.54299997999999980;marker:none;visibility:visible;display:inline;overflow:visible;enable-background:accumulate;opacity:1"
       id="rect9537"
       width="580"
       height="280"
       x="10"
       y="762.36212" /><g
       aria-label="FAQAT XIZMAT"
       id="text5128"
       style="font-size:75.1702px;line-height:1.5;font-family:'Russian Road Sign';-inkscape-font-specification:'Russian Road Sign';letter-spacing:-2.54796px;word-spacing:0px;fill-rule:evenodd;stroke-width:0.751702;stroke-linecap:round;paint-order:stroke fill markers"><path
         d="m 71.928241,890.05902 h 7.366679 v -17.89051 h 15.25955 v -6.31429 H 79.29492 V 854.8042 h 19.469081 v -6.84049 h -26.83576 z"
         id="path5394" /><path
         d="m 118.84225,875.32566 5.26191,-17.8905 5.26191,17.8905 z m 1.05238,-27.36195 -13.68098,42.09531 h 7.89287 l 2.63096,-8.41906 h 14.73336 l 2.63096,8.41906 h 7.89287 l -13.68098,-42.09531 z"
         id="path5396" /><path
         d="m 166.8086,846.91133 c -11.57621,0 -16.98846,9.92246 -16.98846,22.10004 0,12.17757 5.41225,22.10003 16.98846,22.10003 1.80409,0 3.533,-0.22551 5.03641,-0.67653 l 2.02959,4.05919 6.08879,-3.38266 -2.33028,-4.13436 c 4.13436,-3.98402 6.16396,-10.59899 6.16396,-17.96567 0,-12.17758 -5.41226,-22.10004 -16.98847,-22.10004 z m 0,6.84049 c 5.78811,0 9.8473,5.7881 9.8473,15.25955 0,4.73572 -1.05238,8.5694 -2.7813,11.20036 l -2.63096,-4.51022 -5.41225,2.7813 2.7813,5.5626 c -0.60136,0.15034 -1.20273,0.22551 -1.80409,0.22551 -5.7881,0 -9.84729,-5.78811 -9.84729,-15.25955 0,-9.47145 4.05919,-15.25955 9.84729,-15.25955 z"
         id="path5398" /><path
         d="m 204.25113,875.32566 5.26192,-17.8905 5.26191,17.8905 z m 1.05239,-27.36195 -13.68098,42.09531 h 7.89287 l 2.63096,-8.41906 h 14.73336 l 2.63095,8.41906 h 7.89287 l -13.68097,-42.09531 z"
         id="path5400" /><path
         d="m 234.85317,847.96371 v 6.3143 h 11.57621 v 35.78101 h 7.36668 v -35.78101 h 11.57621 v -6.3143 z"
         id="path5402" /><path
         d="m 316.20294,847.96371 h -9.39627 l 12.02723,19.99527 -13.07961,22.10004 h 8.87008 l 8.41906,-15.25955 8.41906,15.25955 h 8.87009 l -13.07962,-22.10004 12.02723,-19.99527 h -9.39627 l -6.84049,13.15479 z"
         id="path5404" /><path
         d="m 347.78231,890.05902 h 7.36668 v -42.09531 h -7.36668 z"
         id="path5406" /><path
         d="m 366.28206,890.05902 h 28.41434 v -6.3143 H 375.22732 L 394.1702,854.8042 v -6.84049 h -27.36195 v 6.3143 h 18.4167 l -18.94289,28.94052 z"
         id="path5408" /><path
         d="m 405.30317,890.05902 h 7.36668 v -30.5191 l 12.6286,22.10004 12.62859,-22.10004 0.52619,30.5191 h 6.84049 v -42.09531 h -8.41906 l -11.57621,19.46908 -11.57622,-19.46908 h -8.41906 z"
         id="path5410" /><path
         d="m 466.95061,875.32566 5.26191,-17.8905 5.26192,17.8905 z m 1.05238,-27.36195 -13.68097,42.09531 h 7.89287 l 2.63096,-8.41906 h 14.73335 l 2.63096,8.41906 h 7.89287 l -13.68097,-42.09531 z"
         id="path5412" /><path
         d="m 497.55266,847.96371 v 6.3143 h 11.57621 v 35.78101 h 7.36668 v -35.78101 h 11.57621 v -6.3143 z"
         id="path5414" /></g><g
       aria-label="AVTOMOBILLARI"
       id="text5381"
       style="font-size:75.1702px;line-height:1.5;font-family:'Russian Road Sign';-inkscape-font-specification:'Russian Road Sign';letter-spacing:-2.54796px;word-spacing:0px;fill-rule:evenodd;stroke-width:0.751702;stroke-linecap:round;paint-order:stroke fill markers"><path
         d="m 72.187508,935.32566 5.261913,-17.8905 5.261914,17.8905 z m 1.052382,-27.36195 -13.680975,42.09531 h 7.89287 l 2.630957,-8.41906 h 14.733359 l 2.630957,8.41906 h 7.89287 L 81.658952,907.96371 Z"
         id="path5417" /><path
         d="m 115.41814,950.05902 h 9.47145 l 11.57621,-42.09531 h -7.89287 l -8.41907,31.57148 -8.41906,-31.57148 h -8.41906 z"
         id="path5419" /><path
         d="m 143.91542,907.96371 v 6.3143 h 11.57621 v 35.78101 h 7.36668 v -35.78101 h 11.57621 v -6.3143 z"
         id="path5421" /><path
         d="m 198.72229,906.91133 c -11.57621,0 -17.13881,9.92246 -17.13881,22.10004 0,12.17757 5.5626,22.10003 17.13881,22.10003 11.57621,0 17.1388,-9.92246 17.1388,-22.10003 0,-12.17758 -5.56259,-22.10004 -17.1388,-22.10004 z m 0,6.84049 c 5.7881,0 9.99763,5.7881 9.99763,15.25955 0,9.47144 -4.20953,15.25955 -9.99763,15.25955 -5.78811,0 -9.99764,-5.78811 -9.99764,-15.25955 0,-9.47145 4.20953,-15.25955 9.99764,-15.25955 z"
         id="path5423" /><path
         d="m 224.58862,950.05902 h 7.36668 v -30.5191 l 12.6286,22.10004 12.62859,-22.10004 0.52619,30.5191 h 6.84049 v -42.09531 h -8.41906 l -11.57621,19.46908 -11.57622,-19.46908 h -8.41906 z"
         id="path5425" /><path
         d="m 290.44559,906.91133 c -11.57621,0 -17.1388,9.92246 -17.1388,22.10004 0,12.17757 5.56259,22.10003 17.1388,22.10003 11.57621,0 17.13881,-9.92246 17.13881,-22.10003 0,-12.17758 -5.5626,-22.10004 -17.13881,-22.10004 z m 0,6.84049 c 5.78811,0 9.99764,5.7881 9.99764,15.25955 0,9.47144 -4.20953,15.25955 -9.99764,15.25955 -5.7881,0 -9.99763,-5.78811 -9.99763,-15.25955 0,-9.47145 4.20953,-15.25955 9.99763,-15.25955 z"
         id="path5427" /><path
         d="m 316.83811,907.96371 v 42.09531 h 16.3871 c 7.8177,0 13.60581,-5.7881 13.60581,-12.62859 0,-4.73572 -3.15715,-7.89287 -7.36668,-9.47145 3.68334,-1.57857 6.01362,-5.26191 6.01362,-8.41906 0,-5.56259 -4.43505,-11.57621 -12.32792,-11.57621 z m 7.36668,6.3143 h 8.41906 c 2.63096,0 5.26192,1.72891 5.26192,5.41225 0,3.15715 -2.10477,5.41226 -5.26192,5.41226 h -8.41906 z m 0,16.83812 h 8.94525 c 4.20953,0 6.3143,3.30749 6.3143,6.3143 0,3.00681 -2.10477,6.31429 -6.3143,6.31429 h -8.94525 z"
         id="path5429" /><path
         d="m 356.38541,950.05902 h 7.36668 v -42.09531 h -7.36668 z"
         id="path5431" /><path
         d="m 374.88517,950.05902 h 26.30957 v -6.3143 h -18.94289 v -35.78101 h -7.36668 z"
         id="path5433" /><path
         d="m 410.22297,950.05902 h 26.30957 v -6.3143 h -18.94289 v -35.78101 h -7.36668 z"
         id="path5435" /><path
         d="m 456.61079,935.32566 5.26191,-17.8905 5.26191,17.8905 z m 1.05238,-27.36195 -13.68098,42.09531 h 7.89287 l 2.63096,-8.41906 h 14.73336 l 2.63096,8.41906 h 7.89287 l -13.68098,-42.09531 z"
         id="path5437" /><path
         d="m 489.84376,907.96371 v 42.09531 h 7.36668 V 933.2209 h 4.20953 c 4.73573,0 5.78811,2.93163 7.66736,6.46463 1.95443,3.75851 3.30749,8.19356 4.96124,10.37349 h 8.94525 c -4.73572,-2.10476 -6.84049,-17.89051 -13.68097,-19.46908 4.20953,-1.57857 7.89287,-5.26191 7.89287,-11.05002 0,-4.20953 -2.63096,-11.57621 -13.15479,-11.57621 z m 7.36668,6.3143 h 4.73573 c 4.20953,0 7.89287,1.80408 7.89287,6.31429 0,4.51022 -3.68334,6.3143 -7.89287,6.3143 h -4.73573 z"
         id="path5439" /><path
         d="m 533.07441,950.05902 h 7.36668 v -42.09531 h -7.36668 z"
         id="path5441" /></g></g></svg>
