<?xml version="1.0" encoding="UTF-8" standalone="no"?>
<!-- Created with Inkscape (http://www.inkscape.org/) -->

<svg
   width="634.14001"
   height="561.22998"
   id="svg2"
   version="1.1"
   inkscape:version="1.2.2 (732a01da63, 2022-12-09)"
   sodipodi:docname="RU_road_sign_1.27.svg"
   xmlns:inkscape="http://www.inkscape.org/namespaces/inkscape"
   xmlns:sodipodi="http://sodipodi.sourceforge.net/DTD/sodipodi-0.dtd"
   xmlns="http://www.w3.org/2000/svg"
   xmlns:svg="http://www.w3.org/2000/svg"
   xmlns:rdf="http://www.w3.org/1999/02/22-rdf-syntax-ns#"
   xmlns:cc="http://creativecommons.org/ns#"
   xmlns:dc="http://purl.org/dc/elements/1.1/">
  <title
     id="title3002">1.35 Piyodalarning yoʻl yoqasidan yurishi mumkin boʻlgan hudud.</title>
  <defs
     id="defs4" />
  <sodipodi:namedview
     id="base"
     pagecolor="#ffffff"
     bordercolor="#666666"
     borderopacity="1.0"
     inkscape:pageopacity="0.0"
     inkscape:pageshadow="2"
     inkscape:zoom="1"
     inkscape:cx="277.5"
     inkscape:cy="111.5"
     inkscape:document-units="px"
     inkscape:current-layer="layer1"
     showgrid="false"
     inkscape:window-width="1920"
     inkscape:window-height="991"
     inkscape:window-x="-9"
     inkscape:window-y="-9"
     inkscape:window-maximized="1"
     inkscape:snap-bbox="true"
     inkscape:bbox-paths="true"
     inkscape:bbox-nodes="true"
     inkscape:snap-bbox-edge-midpoints="true"
     inkscape:snap-bbox-midpoints="true"
     inkscape:object-paths="true"
     inkscape:snap-intersection-paths="true"
     inkscape:object-nodes="true"
     inkscape:snap-smooth-nodes="true"
     inkscape:showpageshadow="2"
     inkscape:pagecheckerboard="0"
     inkscape:deskcolor="#d1d1d1" />
  <metadata
     id="metadata7">
    <rdf:RDF>
      <cc:Work
         rdf:about="">
        <dc:format>image/svg+xml</dc:format>
        <dc:type
           rdf:resource="http://purl.org/dc/dcmitype/StillImage" />
        <dc:title>1.35 Piyodalarning yoʻl yoqasidan yurishi mumkin boʻlgan hudud.</dc:title>
        <cc:license
           rdf:resource="http://creativecommons.org/licenses/by-sa/3.0/" />
        <dc:description>ГОСТ Р 52290-2004
Размеры и пропорции по типоразмеру I</dc:description>
      </cc:Work>
      <cc:License
         rdf:about="http://creativecommons.org/licenses/by-sa/3.0/">
        <cc:permits
           rdf:resource="http://creativecommons.org/ns#Reproduction" />
        <cc:permits
           rdf:resource="http://creativecommons.org/ns#Distribution" />
        <cc:requires
           rdf:resource="http://creativecommons.org/ns#Notice" />
        <cc:requires
           rdf:resource="http://creativecommons.org/ns#Attribution" />
        <cc:permits
           rdf:resource="http://creativecommons.org/ns#DerivativeWorks" />
        <cc:requires
           rdf:resource="http://creativecommons.org/ns#ShareAlike" />
      </cc:License>
    </rdf:RDF>
  </metadata>
  <g
     inkscape:label="Layer 1"
     inkscape:groupmode="layer"
     id="layer1"
     transform="translate(0,-491.13214)">
    <path
       sodipodi:nodetypes="sccsccsccs"
       inkscape:connector-curvature="0"
       d="m 339.56541,497.17249 c -21.52311,-12.42634 -49.04475,-5.052 -61.47117,16.47128 L 6.0363923,984.8621 c -12.42642,21.5231 -5.05209,49.0447 16.4710997,61.4711 6.84091,3.9496 14.60091,6.0289 22.50008,6.0289 l 544.115728,-10e-5 c 7.8993,0 15.65928,-2.0793 22.50008,-6.0289 21.5232,-12.4264 28.8976,-39.948 16.4712,-61.47108 L 356.0366,513.64377 c -3.94962,-6.84091 -9.63028,-12.52165 -16.47119,-16.47128 z"
       style="opacity:1;color:#000000;fill:#ffffff;fill-opacity:1;fill-rule:nonzero;stroke:none;stroke-width:1px;marker:none;visibility:visible;display:inline;overflow:visible;enable-background:accumulate"
       id="path5313" />
    <path
       id="path5791"
       style="opacity:1;fill:none;fill-opacity:1;stroke:#000000;stroke-opacity:1;stroke-width:2;stroke-miterlimit:4;stroke-dasharray:none"
       d="m 1.0074138,1007.3622 c 5.7e-5,-7.72358 2.033128,-15.31118 5.894964,-21.99998 L 278.96019,514.14412 c 12.15026,-21.0448 39.06025,-28.2554 60.10512,-16.1052 6.68883,3.8618 12.2433,9.4163 16.10512,16.1052 l 272.05769,471.2181 c 3.86184,6.6888 5.89491,14.2764 5.89497,21.99998 -7e-5,24.3005 -19.69961,43.9999 -44.00009,44 l -544.115503,0 c -24.300475,-10e-5 -44.0000132,-19.6995 -44.0000832,-44 z"
       inkscape:connector-curvature="0"
       sodipodi:nodetypes="cccscccccc" />
    <path
       style="opacity:1;fill:#ff0000;fill-opacity:1;stroke:none"
       d="M 316.3125 10 C 304.49402 10.264781 293.09264 16.514178 286.75 27.5 L 14.6875 498.71875 C 5.0225195 515.45903 10.75976 536.86625 27.5 546.53125 C 32.82067 549.60315 38.85622 551.21875 45 551.21875 L 589.125 551.21875 C 595.26878 551.21875 601.30433 549.60315 606.625 546.53125 C 623.36524 536.86625 629.10248 515.45903 619.4375 498.71875 L 347.375 27.5 C 344.30311 22.1793 339.88318 17.7594 334.5625 14.6875 C 328.80805 11.365156 322.50313 9.8613054 316.3125 10 z M 316.375 70.25 C 318.29628 70.114265 320.2689 70.558188 322.0625 71.59375 C 323.58269 72.47135 324.84108 73.7283 325.71875 75.25 L 567.28125 493.625 C 570.04221 498.40555 568.40793 504.51975 563.625 507.28125 C 562.10481 508.15885 560.38027 508.625 558.625 508.625 L 75.53125 508.625 C 70.008436 508.625 65.53125 504.1479 65.53125 498.625 C 65.53125 496.86955 65.967441 495.1428 66.84375 493.625 L 308.40625 75.25 C 310.13186 72.261187 313.17286 70.476225 316.375 70.25 z "
       transform="translate(0,491.13214)"
       id="path4410" />
    <path
       id="path16"
       style="fill:#000000;fill-opacity:1;fill-rule:evenodd;stroke:none;stroke-width:0.211638"
       d="m 325.97565,629.79821 c -14.55855,-0.0529 -25.41906,11.58499 -25.39578,26.0314 -0.0234,8.91208 9.29831,21.83094 10.15756,22.8574 0.77459,0.93544 1.91911,5.18717 -1.05863,6.13742 -7.14065,2.42325 -17.88329,5.68715 -26.03133,11.00562 -2.38938,1.45396 -7.13214,3.74261 -8.04219,8.67589 l -27.93612,119.15332 c 0,0 -6.96661,0.36391 -6.98355,6.13742 0.017,4.20311 1.05863,4.44321 1.05863,4.44321 0,0 -13.95938,1.10791 -18.41222,-0.21055 -4.37879,-1.13439 -6.21943,-3.83312 -2.75281,-7.19614 3.6465,-3.50676 5.9776,-8.16735 5.9268,-13.33347 0.0508,-5.13647 -6.08134,-17.64652 -17.77854,-17.56613 -11.60621,-0.0809 -17.98429,10.34524 -17.98916,17.1431 0.005,6.93958 3.93043,12.33733 5.50374,13.96897 1.61692,1.55771 2.84205,3.88483 -1.4817,5.92495 -16.65164,8.1481 -19.19237,17.29907 -21.37563,37.24767 -0.5473,5.72499 -0.91659,33.19938 -0.63555,35.34474 0.20995,2.27022 3.27778,7.17698 8.46714,7.19604 5.11316,-0.0192 7.44305,-3.2085 7.40663,-5.7143 0.0364,-2.4 -1.92597,-3.62758 -2.75092,-4.44513 -0.89205,-0.89949 -1.87471,-3.22872 -1.27111,-5.07881 0.62328,-1.82958 4.18076,-22.55751 4.02203,-24.12667 0.77205,-0.63829 2.85614,-4.1954 4.02015,-6.3499 6.72373,12.5578 1.90599,34.22806 -0.84614,50.15802 -0.43978,2.15941 -0.56247,3.50926 2.9634,4.44513 0.0313,1.14922 0,45.07922 0,45.07922 0,0 -0.33778,3.16816 -1.05863,3.80963 -0.75067,0.82997 -2.71283,2.54691 -2.75092,4.23266 0.0381,1.74851 1.38796,2.48298 2.54033,2.53844 1.30114,-0.0558 2.03665,-0.6665 2.75092,-1.0568 0.75768,-0.59111 7.19604,-5.08063 7.19604,-5.08063 0,0 2.26736,-2.13582 2.96153,-5.29128 l 6.98544,-32.16886 c 0,0 -0.0736,-1.95946 1.47981,-3.38459 1.38833,-1.27321 2.37166,-2.13188 3.17589,-2.54036 0.91214,-0.32743 2.13866,-0.69481 2.11537,1.05862 0.0233,1.68064 0,38.51684 0,38.51684 0,0 0.14731,2.04321 1.27111,2.96348 1.08358,1.04168 11.6306,7.90973 12.06233,8.46522 0.30476,0.42582 2.02182,0.91643 2.54033,0.84615 0.46349,0.0703 2.67052,-0.66438 2.75093,-2.53844 -0.0805,-1.80551 -1.06162,-2.78798 -1.6923,-3.59899 -0.59471,-0.90602 -3.04998,-3.97127 -3.38648,-4.4432 -0.39787,-0.2637 -2.03639,-2.63712 -1.05862,-6.3499 0.4148,-1.39635 5.19812,-27.52012 5.29126,-30.26401 1.50049,-0.44555 12.53908,-5.22793 8.88833,-18.1998 L 233.0665,857.52032 c 0,0 -1.56166,-3.4874 1.48171,-4.65568 13.22734,-4.76187 20.95322,-8.31898 31.95625,-16.50751 1.23173,-1.02011 5.06445,-4.5673 -1.90477,-9.52393 l 32.8043,-83.80853 -2.11538,91.4277 c 0,0 -0.41481,5.67723 0,10.1576 l 9.73449,119.78886 c 0,0 -0.21549,1.69268 -0.84616,2.53844 -0.59471,0.87128 -4.6428,6.88278 -5.07878,7.40853 -0.54389,0.4546 -1.28188,1.68112 -0.84803,2.75091 0.30265,0.89293 1.5285,2.73195 2.96341,2.75091 1.50896,-0.0193 2.24575,-0.75411 3.38648,-1.26917 l 17.77855,-13.12292 c 0,0 2.54353,-1.44901 2.75093,-6.56045 0,0 0.64151,-36.79355 1.48171,-59.46948 0.76402,-26.17941 2.3597,-33.04726 8.04217,-58.62333 l 3.80956,50.36866 c 0,0 0.93293,22.79368 0.84615,24.5497 0.0868,11.45913 0.37987,36.28523 -1.69418,47.61958 -0.42752,2.01626 0.18687,2.13737 0.63555,2.53844 0.5312,0.58034 11.81557,11.37383 12.27482,12.06421 0.52062,0.78202 2.36131,1.76257 3.17401,1.69229 0.90368,0.0703 4.58563,-1.03369 4.65757,-3.17394 -0.0719,-0.80282 -0.1983,-1.90698 -0.84802,-2.96349 -0.82115,-1.15152 -2.16913,-3.48211 -2.32786,-3.80953 -0.33227,-0.40839 -0.82305,-1.02117 -0.42307,-3.17404 0.3365,-2.01712 9.41152,-78.22295 9.94697,-80.42202 0.44655,-2.05274 3.3907,-49.80412 3.38648,-55.23682 0.005,-5.36079 -8.17425,-87.61944 -8.25467,-88.88927 0,0 20.3612,25.70623 20.31888,62.22232 0.0425,5.7713 -0.53481,14.28562 -0.84803,15.66127 -0.0932,1.06671 -0.25569,2.86471 -0.84615,4.02018 -0.39153,1.13439 -1.69866,4.7326 -1.6923,7.19605 -0.007,2.44235 2.11915,10.4547 11.00372,10.37008 4.85073,0.0847 9.84006,-5.88269 9.73636,-9.73449 0.10366,-3.99784 -0.95898,-6.36983 -1.48171,-6.98357 -0.45927,-0.69423 -0.95109,-3.80241 -0.21247,-6.9855 0.57141,-3.03058 2.04317,-24.6167 2.11725,-30.05155 -0.0741,-19.8707 -7.27063,-53.43831 -12.06422,-74.28465 -0.57141,-2.83806 -3.70911,-8.7536 -7.8297,-11.4287 -11.79454,-8.14595 -22.27877,-14.58877 -34.49659,-16.71997 -1.9386,-0.22858 -6.02814,-1.86278 -2.54035,-7.19606 3.38197,-5.46027 9.59585,-14.29201 9.5239,-23.70354 0.0719,-9.23166 -6.6324,-24.60261 -24.54963,-24.5497 z" />
  </g>
</svg>
