<?xml version="1.0" encoding="UTF-8" standalone="no"?>
<svg
   xmlns:dc="http://purl.org/dc/elements/1.1/"
   xmlns:cc="http://creativecommons.org/ns#"
   xmlns:rdf="http://www.w3.org/1999/02/22-rdf-syntax-ns#"
   xmlns:svg="http://www.w3.org/2000/svg"
   xmlns="http://www.w3.org/2000/svg"
   xmlns:sodipodi="http://sodipodi.sourceforge.net/DTD/sodipodi-0.dtd"
   xmlns:inkscape="http://www.inkscape.org/namespaces/inkscape"
   sodipodi:docname="7.2.1_Uz_road_sign.svg"
   inkscape:version="1.0 (4035a4fb49, 2020-05-01)"
   version="1.1"
   id="svg2"
   height="300"
   width="600">
  <defs
     id="defs4" />
  <sodipodi:namedview
     inkscape:document-rotation="0"
     inkscape:guide-bbox="true"
     showguides="true"
     inkscape:snap-object-midpoints="true"
     inkscape:snap-midpoints="true"
     inkscape:snap-smooth-nodes="true"
     inkscape:object-nodes="true"
     inkscape:snap-intersection-paths="true"
     inkscape:object-paths="true"
     inkscape:snap-bbox-midpoints="true"
     inkscape:snap-bbox-edge-midpoints="true"
     inkscape:bbox-nodes="true"
     inkscape:bbox-paths="true"
     inkscape:snap-bbox="true"
     inkscape:window-maximized="1"
     inkscape:window-y="-9"
     inkscape:window-x="-9"
     inkscape:window-height="1001"
     inkscape:window-width="1920"
     showgrid="false"
     inkscape:current-layer="layer1"
     inkscape:document-units="px"
     inkscape:cy="159.10215"
     inkscape:cx="-8.7285695"
     inkscape:zoom="1"
     inkscape:pageshadow="2"
     inkscape:pageopacity="0.0"
     borderopacity="1.0"
     bordercolor="#666666"
     pagecolor="#ffffff"
     id="base" />
  <metadata
     id="metadata7">
    <rdf:RDF>
      <cc:Work
         rdf:about="">
        <dc:format>image/svg+xml</dc:format>
        <dc:type
           rdf:resource="http://purl.org/dc/dcmitype/StillImage" />
        <dc:title></dc:title>
        <cc:license
           rdf:resource="http://creativecommons.org/licenses/by-sa/3.0/" />
        <dc:description>ГОСТ Р 52290-2004
Размеры и пропорции по типоразмеру I</dc:description>
      </cc:Work>
      <cc:License
         rdf:about="http://creativecommons.org/licenses/by-sa/3.0/">
        <cc:permits
           rdf:resource="http://creativecommons.org/ns#Reproduction" />
        <cc:permits
           rdf:resource="http://creativecommons.org/ns#Distribution" />
        <cc:requires
           rdf:resource="http://creativecommons.org/ns#Notice" />
        <cc:requires
           rdf:resource="http://creativecommons.org/ns#Attribution" />
        <cc:permits
           rdf:resource="http://creativecommons.org/ns#DerivativeWorks" />
        <cc:requires
           rdf:resource="http://creativecommons.org/ns#ShareAlike" />
      </cc:License>
    </rdf:RDF>
  </metadata>
  <g
     transform="translate(0,-752.36218)"
     id="layer1"
     inkscape:groupmode="layer"
     inkscape:label="Layer 1">
    <rect
       ry="45"
       rx="45"
       style="opacity:1;color:#000000;fill:#000000;fill-opacity:1;fill-rule:nonzero;stroke:none;stroke-width:3.54299997999999980;marker:none;visibility:visible;display:inline;overflow:visible;enable-background:accumulate"
       id="rect5622"
       width="600"
       height="300"
       x="0"
       y="752.36218" />
    <rect
       ry="35"
       rx="35"
       style="color:#000000;fill:#ffffff;fill-opacity:1;fill-rule:nonzero;stroke:none;stroke-width:3.54299997999999980;marker:none;visibility:visible;display:inline;overflow:visible;enable-background:accumulate;opacity:1"
       id="rect9537"
       width="580"
       height="280"
       x="10"
       y="762.36212" />
    <g
       id="text10846"
       style="font-size:175.7835083px;font-style:normal;font-variant:normal;font-weight:normal;font-stretch:normal;line-height:125%;letter-spacing:-6.703125px;word-spacing:0px;fill:#000000;fill-opacity:1;stroke:none;font-family:Arial;-inkscape-font-specification:Arial">
      <path
         id="path10991"
         style="fill:#000000;font-family:Russian Road Sign;-inkscape-font-specification:Russian Road Sign"
         d="m 140.625,875.995 5.80078,7.55859 13.18359,-8.26172 0,76.28906 17.22657,0 0,-98.43749 -14.76563,0 z" />
      <path
         id="path10993"
         style="fill:#000000;font-family:Russian Road Sign;-inkscape-font-specification:Russian Road Sign"
         d="m 232.93414,851.91297 c -9.9976,0.25644 -17.99564,4.97323 -23.99414,14.15038 -5.99855,9.17733 -9.07472,21.27692 -9.22852,36.29883 0.1538,15.02201 3.22997,27.12161 9.22852,36.29883 5.9985,9.17725 13.99654,13.89404 23.99414,14.15039 9.9975,-0.25635 17.99554,-4.97314 23.99414,-14.15039 5.99846,-9.17723 9.07463,-21.27682 9.22851,-36.29883 -0.15388,-14.32977 -3.23005,-26.23161 -9.22851,-35.70556 -5.9986,-9.47379 -13.99664,-14.38833 -23.99414,-14.74365 z m 0,15.29296 c 4.81928,-0.0731 8.67182,2.71005 11.55761,8.34961 2.88569,5.63972 4.36518,14.57526 4.43848,26.80664 -0.0733,12.23149 -1.5528,21.16702 -4.43848,26.80664 -2.88579,5.63966 -6.73833,8.42286 -11.55761,8.34961 -4.81938,0.0733 -8.67192,-2.70994 -11.55762,-8.34961 -2.88577,-5.63962 -4.36526,-14.57516 -4.43848,-26.80664 0.0732,-12.23138 1.55271,-21.16692 4.43848,-26.80664 2.88571,-5.63957 6.73824,-8.42277 11.55762,-8.34961 z" />
      <path
         id="path10995"
         style="fill:#000000;font-family:Russian Road Sign;-inkscape-font-specification:Russian Road Sign"
         d="m 314.80942,851.91297 c -9.9976,0.25644 -17.99564,4.97323 -23.99415,14.15038 -5.99855,9.17733 -9.07471,21.27692 -9.22851,36.29883 0.1538,15.02201 3.22996,27.12161 9.22851,36.29883 5.99851,9.17725 13.99655,13.89404 23.99415,14.15039 9.9975,-0.25635 17.99554,-4.97314 23.99413,-14.15039 5.99846,-9.17723 9.07463,-21.27682 9.22852,-36.29883 -0.15389,-14.32977 -3.23006,-26.23161 -9.22852,-35.70556 -5.99859,-9.47379 -13.99663,-14.38833 -23.99413,-14.74365 z m 0,15.29296 c 4.81928,-0.0731 8.67182,2.71005 11.55761,8.34961 2.88569,5.63972 4.36518,14.57526 4.43848,26.80664 -0.0733,12.23149 -1.5528,21.16702 -4.43848,26.80664 -2.88579,5.63966 -6.73833,8.42286 -11.55761,8.34961 -4.81938,0.0733 -8.67192,-2.70994 -11.55762,-8.34961 -2.88577,-5.63962 -4.36526,-14.57516 -4.43848,-26.80664 0.0732,-12.23138 1.55271,-21.16692 4.43848,-26.80664 2.88571,-5.63957 6.73824,-8.42277 11.55762,-8.34961 z" />
    </g>
    <path
       id="path10956"
       style="opacity:1;color:#000000;fill:#000000;fill-opacity:1;fill-rule:nonzero;stroke:none;stroke-width:1px;marker:none;visibility:visible;display:inline;overflow:visible;enable-background:accumulate"
       d="m 89.0625,902.3622 29.20673,-1.9e-4 L 75,827.36202 l -43.269225,74.99999 29.206725,1.9e-4 0,75 28.125,0 z"
       inkscape:connector-curvature="0"
       sodipodi:nodetypes="cccccccc" />
    <path
       sodipodi:nodetypes="cccccccc"
       inkscape:connector-curvature="0"
       d="m 539.0625,902.3622 29.20672,-1.9e-4 L 525,827.36202 l -43.26922,74.99999 29.20672,1.9e-4 0,75 28.125,0 z"
       style="opacity:1;color:#000000;fill:#000000;fill-opacity:1;fill-rule:nonzero;stroke:none;stroke-width:1px;marker:none;visibility:visible;display:inline;overflow:visible;enable-background:accumulate"
       id="path10958" />
    <path
       d="m 373.75112,951.58093 v -56.213 h 10.06479 l 2.03438,6.04959 q 0.42829,-1.3384 1.12427,-2.40913 0.69597,-1.07072 1.60609,-1.87376 0.91011,-0.80305 1.98083,-1.39194 1.12425,-0.5889 2.24851,-1.01719 1.17781,-0.42829 2.35559,-0.69597 1.23135,-0.26768 2.40913,-0.37475 1.17781,-0.16061 2.24852,-0.21415 1.12427,-0.0536 2.08793,-0.0536 0.96365,0 2.03436,0.10707 1.12427,0.0535 2.24852,0.32123 1.12427,0.21414 2.19498,0.58889 1.12427,0.32122 2.19498,0.85658 1.07073,0.48183 2.03438,1.17779 0.96365,0.69598 1.82023,1.55255 0.85658,0.85658 1.55255,1.98084 0.69597,1.07073 1.23132,2.35559 0.48183,-1.28486 1.17781,-2.30205 0.74951,-1.07073 1.65962,-1.87377 0.91011,-0.85657 1.98084,-1.49901 1.07072,-0.64244 2.19497,-1.07072 1.17782,-0.48183 2.40914,-0.80304 1.23133,-0.32123 2.46267,-0.48183 1.23131,-0.21415 2.46267,-0.26768 1.28485,-0.10708 2.40913,-0.10708 1.39193,0 2.78386,0.10708 1.39194,0.10707 2.78389,0.42828 1.39193,0.26769 2.6768,0.74951 1.33842,0.48183 2.51621,1.23133 1.1778,0.69598 2.14144,1.71316 0.96366,1.01719 1.65962,2.40913 0.74951,1.3384 1.12427,3.05156 0.37474,1.65962 0.37474,3.80107 v 44.16735 h -12.04564 v -40.15213 q 0,-1.98084 -0.64243,-3.37278 -0.5889,-1.39194 -1.60608,-2.19499 -1.01719,-0.85658 -2.30206,-1.23133 -1.23133,-0.37476 -2.51621,-0.37476 -0.96365,0 -2.03437,0.21415 -1.01719,0.16061 -2.14144,0.53536 -1.07073,0.37476 -2.14144,0.96365 -1.07073,0.53537 -2.08793,1.28487 -0.96365,0.69597 -1.82021,1.60609 -0.80305,0.85657 -1.44548,1.9273 -0.5889,1.01719 -0.96364,2.19499 -0.37478,1.1778 -0.37478,2.46266 v 36.13692 h -11.9921 v -40.15213 q 0,-1.49902 -0.53536,-2.78388 -0.53536,-1.33841 -1.44548,-2.30206 -0.91012,-0.96365 -2.19497,-1.49902 -1.23133,-0.5889 -2.67683,-0.5889 -1.01718,0 -2.14144,0.21415 -1.12425,0.16061 -2.24851,0.53536 -1.07074,0.37476 -2.19497,0.91012 -1.07074,0.53536 -2.08792,1.28487 -0.96366,0.69597 -1.82023,1.60608 -0.85658,0.85658 -1.44547,1.9273 -0.58891,1.01719 -0.96366,2.19499 -0.32121,1.1778 -0.32121,2.5162 v 36.13692 z"
       style="font-style:normal;font-variant:normal;font-weight:normal;font-stretch:normal;font-size:163.321px;line-height:1.15;font-family:'IndorSoft RoadSign Letters';-inkscape-font-specification:'IndorSoft RoadSign Letters';fill:#000000;fill-opacity:1;stroke-width:2.67949"
       id="path863" />
  </g>
</svg>
