<?xml version="1.0" encoding="UTF-8" standalone="no"?>
<!-- Created with Inkscape (http://www.inkscape.org/) -->

<svg
   width="700"
   height="1050.1331"
   id="svg2"
   version="1.1"
   inkscape:version="1.2.2 (732a01da63, 2022-12-09)"
   sodipodi:docname="RU_road_sign_8.2024_10_29_23_38_04.2.svg"
   xmlns:inkscape="http://www.inkscape.org/namespaces/inkscape"
   xmlns:sodipodi="http://sodipodi.sourceforge.net/DTD/sodipodi-0.dtd"
   xmlns="http://www.w3.org/2000/svg"
   xmlns:svg="http://www.w3.org/2000/svg"
   xmlns:rdf="http://www.w3.org/1999/02/22-rdf-syntax-ns#"
   xmlns:cc="http://creativecommons.org/ns#"
   xmlns:dc="http://purl.org/dc/elements/1.1/">
  <title
     id="title3006">7.23 Navbat bilan oʻtish</title>
  <defs
     id="defs4" />
  <sodipodi:namedview
     id="base"
     pagecolor="#ffffff"
     bordercolor="#666666"
     borderopacity="1.0"
     inkscape:pageopacity="0.0"
     inkscape:pageshadow="2"
     inkscape:zoom="0.76276049"
     inkscape:cx="252.3728"
     inkscape:cy="842.33519"
     inkscape:document-units="px"
     inkscape:current-layer="g2665"
     showgrid="false"
     inkscape:window-width="1920"
     inkscape:window-height="991"
     inkscape:window-x="-9"
     inkscape:window-y="-9"
     inkscape:window-maximized="1"
     inkscape:snap-bbox="true"
     inkscape:bbox-paths="true"
     inkscape:bbox-nodes="true"
     inkscape:snap-bbox-edge-midpoints="true"
     inkscape:snap-bbox-midpoints="true"
     inkscape:object-paths="true"
     inkscape:snap-intersection-paths="true"
     inkscape:object-nodes="true"
     inkscape:snap-smooth-nodes="true"
     inkscape:snap-midpoints="true"
     inkscape:snap-object-midpoints="true"
     showguides="true"
     inkscape:guide-bbox="true"
     inkscape:showpageshadow="2"
     inkscape:pagecheckerboard="0"
     inkscape:deskcolor="#d1d1d1" />
  <metadata
     id="metadata7">
    <rdf:RDF>
      <cc:Work
         rdf:about="">
        <dc:format>image/svg+xml</dc:format>
        <dc:type
           rdf:resource="http://purl.org/dc/dcmitype/StillImage" />
        <dc:title>7.23 Navbat bilan oʻtish</dc:title>
        <cc:license
           rdf:resource="http://creativecommons.org/licenses/by-sa/3.0/" />
        <dc:description>ГОСТ Р 52290-2004
Размеры и пропорции по типоразмеру II</dc:description>
      </cc:Work>
      <cc:License
         rdf:about="http://creativecommons.org/licenses/by-sa/3.0/">
        <cc:permits
           rdf:resource="http://creativecommons.org/ns#Reproduction" />
        <cc:permits
           rdf:resource="http://creativecommons.org/ns#Distribution" />
        <cc:requires
           rdf:resource="http://creativecommons.org/ns#Notice" />
        <cc:requires
           rdf:resource="http://creativecommons.org/ns#Attribution" />
        <cc:permits
           rdf:resource="http://creativecommons.org/ns#DerivativeWorks" />
        <cc:requires
           rdf:resource="http://creativecommons.org/ns#ShareAlike" />
      </cc:License>
    </rdf:RDF>
  </metadata>
  <g
     inkscape:label="Layer 1"
     inkscape:groupmode="layer"
     id="layer1"
     transform="translate(0,-352.36218)">
    <g
       id="g20612"
       transform="matrix(1.8899093,0,0,1.8899038,-65.487063,-196.67633)"
       style="fill:#aa0000">
      <g
         id="path20600" />
    </g>
    <g
       id="g2665"
       transform="matrix(-1,0,0,1,700,0)">
      <rect
         y="352.36218"
         x="0"
         height="700"
         width="700"
         id="rect5622"
         style="color:#000000;display:inline;overflow:visible;visibility:visible;fill:#000000;fill-opacity:1;fill-rule:nonzero;stroke:none;stroke-width:3.543;marker:none;enable-background:accumulate"
         rx="45"
         ry="45" />
      <g
         id="g12218">
        <g
           id="g12274"
           transform="translate(0,350.13307)">
          <rect
             y="352.36218"
             x="0"
             height="700"
             width="700"
             id="rect12214"
             style="color:#000000;display:inline;overflow:visible;visibility:visible;opacity:1;fill:#000000;fill-opacity:1;fill-rule:nonzero;stroke:none;stroke-width:3.543;marker:none;enable-background:accumulate"
             rx="45"
             ry="45" />
          <rect
             y="362.36212"
             x="10"
             height="680"
             width="680"
             id="rect12216"
             style="color:#000000;display:inline;overflow:visible;visibility:visible;opacity:1;fill:#ffffff;fill-opacity:1;fill-rule:nonzero;stroke:none;stroke-width:3.543;marker:none;enable-background:accumulate"
             rx="35"
             ry="35" />
        </g>
      </g>
      <rect
         y="362.36212"
         x="10"
         height="680"
         width="680"
         id="rect9537"
         style="color:#000000;display:inline;overflow:visible;visibility:visible;fill:#ffffff;fill-opacity:1;fill-rule:nonzero;stroke:none;stroke-width:3.543;marker:none;enable-background:accumulate"
         rx="35"
         ry="35" />
      <path
         style="stroke-width:2.66942"
         d="m 355.48091,362.36397 c -0.55817,30.4306 -5.16968,60.82431 -13.27373,89.05802 -8.10427,28.23973 -19.69804,54.3204 -36.64617,78.32651 -16.94551,23.99529 -39.22512,45.9306 -59.41404,63.35653 -20.17804,17.43661 -38.26471,30.37148 -59.67059,47.11685 -21.4061,16.75582 -46.14097,37.30103 -68.7429,61.79286 C 95.136991,726.5094 74.668659,754.93435 56.351346,789.1723 38.022926,823.42092 21.85489,863.47993 10,904.73848 v 117.16882 c 1.583048,-11.959 3.443112,-23.89311 5.715,-37.47243 2.263394,-13.57927 4.938612,-28.81804 11.259695,-52.68811 6.331973,-23.86179 16.294784,-56.376 28.446074,-86.0092 12.161525,-29.63581 26.499332,-56.42152 41.89098,-79.86169 15.383811,-23.4295 31.829511,-43.52825 53.860211,-64.49378 22.02807,-20.96574 49.6407,-42.79477 67.69929,-56.79589 18.05858,-13.99306 26.55508,-20.15865 40.83648,-32.35785 14.2814,-12.1992 34.35294,-30.44159 50.19583,-49.23694 15.85399,-18.7875 27.47608,-38.13949 37.25944,-59.11838 9.77269,-20.97895 17.70513,-43.5839 23.12678,-67.44047 5.4162,-23.8512 8.3325,-48.95474 8.58077,-74.06859 z"
         id="path12319-9" />
      <path
         id="path12307-1"
         style="fill:#808080;fill-opacity:1;stroke-width:2.66942"
         d="m 45,362.36218 c -19.389981,0 -35,15.61002 -35,35 v 507.375 c 11.854878,-41.25851 28.023379,-81.31587 46.351562,-115.56445 18.317513,-34.23792 38.784394,-62.66378 61.380858,-87.15821 22.60191,-24.49202 47.33611,-45.03716 68.74219,-61.79296 21.40629,-16.74537 39.4956,-29.6806 59.67383,-47.11719 20.18868,-17.42592 42.46683,-39.35999 59.41211,-63.35547 16.94811,-24.00605 28.542,-50.08641 36.64648,-78.32617 8.10426,-28.23443 12.71744,-58.6292 13.27539,-89.06055 z" />
      <polygon
         fill-rule="evenodd"
         clip-rule="evenodd"
         fill="#2c2825"
         points="299.979,345.568 299.929,345.608 299.929,345.655 299.929,345.701 299.929,345.745 299.929,345.789 299.929,345.879 299.929,345.926 299.979,345.973 299.979,346.013 300.014,346.104 300.064,346.198 300.102,346.198 300.102,346.289 300.194,346.336 300.236,346.376 300.329,346.423 300.368,346.47 300.46,346.47 300.499,346.47 300.549,346.47 300.588,346.47 309.954,347.325 309.518,348.59 309.07,349.811 308.546,351.072 307.975,352.341 307.397,353.559 306.777,354.823 306.108,356.045 305.403,357.31 304.654,358.531 303.909,359.749 303.154,360.923 302.354,362.144 300.723,364.488 299.003,366.797 297.231,369.012 295.465,371.175 293.699,373.255 291.97,375.246 290.247,377.093 288.577,378.859 286.979,380.482 285.518,382.018 275.667,391.865 291.931,405.277 293.303,404.064 295.245,402.255 297.454,400.131 299.836,397.826 302.223,395.525 304.435,393.358 306.249,391.503 307.579,390.148 308.454,389.202 309.472,388.066 310.62,386.759 311.9,385.269 313.269,383.645 314.683,381.834 316.193,379.892 317.686,377.814 319.234,375.603 320.737,373.298 322.237,370.861 323.698,368.33 324.41,367.023 325.112,365.711 325.778,364.358 326.437,363.003 327.055,361.6 327.678,360.202 328.253,358.795 328.781,357.357 336.694,362.369 336.732,362.369 336.732,362.416 336.782,362.416 336.818,362.456 336.868,362.456 336.96,362.503 337.038,362.503 337.136,362.503 337.217,362.503 337.31,362.503 337.395,362.456 337.445,362.456 337.534,362.369 337.615,362.321 337.665,362.274 337.704,362.187 337.754,362.096 337.754,362.05 337.789,361.963 337.789,361.916 337.789,361.825 337.789,361.731 337.789,361.644 337.754,361.6 337.754,361.553 331.606,324.736 331.568,324.697 331.568,324.65 331.518,324.602 331.479,324.512 331.436,324.472 331.386,324.377 331.298,324.331 331.256,324.288 331.167,324.244 331.032,324.201 330.94,324.201 330.862,324.244 330.721,324.244 330.684,324.244 330.596,324.331 330.547,324.331 330.511,324.331 300.329,345.158 300.279,345.201 300.236,345.201 300.236,345.245 300.194,345.296 300.151,345.343 300.102,345.383 300.064,345.43 300.014,345.521 "
         id="polygon12493"
         transform="matrix(1.8955875,0,0,1.8955875,-147.44529,161.77682)"
         style="fill:#000000" />
      <g
         id="path20598"
         style="fill:#aa0000"
         transform="matrix(1.8899093,0,0,1.8899038,-65.487063,-196.67633)">
        <path
           id="path23312"
           style="color:#000000;fill:#000000;stroke-miterlimit:10;-inkscape-stroke:none"
           d="m 351.09921,314.34896 -67.19899,0.001 c -3.75384,0 -6.9597,2.95196 -7.24345,6.78255 l -0.003,0.0134 -3.90334,62.08257 v 0.37101 100.39987 c 0,0.26121 -0.0109,0.74572 0.14365,1.34452 l 3.39902,18.39028 0.004,0.0258 c 0.71329,3.42377 3.73962,5.89068 7.20211,5.89068 h 68.30168 c 3.49399,0 6.63105,-2.57037 6.92204,-6.0984 l 3.38455,-18.31794 c 0.1517,-0.59402 0.14158,-1.07445 0.14158,-1.33418 v -100.30066 -0.37101 l -3.90334,-62.0712 0.001,0.0558 c -0.14692,-3.81992 -3.38093,-6.86419 -7.24758,-6.86419 z m -67.19899,4.50068 h 67.20002 c 1.53333,0 2.69796,1.15706 2.75104,2.53713 l 0.003,0.0279 3.2099,51.03496 h -79.1281 l 3.20886,-50.98225 c 0.11625,-1.5694 1.30903,-2.61774 2.75518,-2.61774 z m -6.24617,58.09964 h 79.69339 l 0.38548,6.15008 -9.84051,14.03428 c -1.20053,-0.98629 -2.73242,-1.58222 -4.39215,-1.58222 h -51.69933 c -1.26879,0 -2.46006,0.35248 -3.48892,0.95698 l -11.01657,-13.86273 z m -0.40408,12.87475 8.08157,10.16814 c -0.30641,0.78013 -0.48159,1.62402 -0.48159,2.50715 v 79.60061 c 0,1.7203 0.65019,3.31724 1.7207,4.54823 l -6.36398,13.50101 -2.9226,-15.81078 -0.0496,-0.14882 c 0.0423,0.127 0.0155,0.10985 0.0155,-0.19015 z m 80.50052,1.08823 v 92.98795 c 0,0.3 -0.0278,0.31499 0.0145,0.18808 l -0.0486,0.14779 -2.79755,15.13284 -5.94129,-13.02357 c 0.91722,-1.17851 1.47059,-2.65133 1.47059,-4.24542 v -79.60061 c 0,-0.35634 -0.0361,-0.70332 -0.0889,-1.04585 z m -65.94956,9.13881 h 51.69933 c 1.38845,0 2.44824,1.05979 2.44824,2.44825 v 79.60061 c 0,1.38846 -1.05979,2.45032 -2.44824,2.45032 h -51.69933 c -1.33077,0 -2.45134,-1.21032 -2.45134,-2.45032 v -79.60061 c 0,-1.38846 1.06288,-2.44825 2.45134,-2.44825 z m 53.36835,88.78697 7.39432,16.2066 c -0.23806,0.0628 -0.48954,0.10644 -0.76371,0.10644 h -68.30065 c -0.21905,0 -0.43068,-0.0337 -0.63764,-0.0816 l 7.61238,-16.14976 c 0.42916,0.0839 0.87233,0.13125 1.32695,0.13125 h 51.69933 c 0.57533,0 1.1329,-0.0783 1.66902,-0.21289 z" />
      </g>
      <g
         id="line20602"
         style="fill:#aa0000"
         transform="matrix(1.8899093,0,0,1.8899038,-65.487063,-196.67633)">
        <path
           style="color:#000000;stroke-width:4.5;stroke-miterlimit:10;-inkscape-stroke:none"
           d="m 279.70001,506.5 9.9,-21"
           id="path23336" />
      </g>
      <g
         id="line20604"
         style="fill:#aa0000"
         transform="matrix(1.8899093,0,0,1.8899038,-65.487063,-196.67633)">
        <path
           style="color:#000000;stroke-width:4.5;stroke-miterlimit:10;-inkscape-stroke:none"
           d="m 275.10001,383.5 12,15.10001"
           id="path23304" />
      </g>
      <g
         id="line20606"
         style="fill:#aa0000"
         transform="matrix(1.8899093,0,0,1.8899038,-65.487063,-196.67633)">
        <path
           style="color:#000000;stroke-width:4.5;stroke-miterlimit:10;-inkscape-stroke:none"
           d="M 360.20001,383.5 348,400.89999"
           id="path23324" />
      </g>
      <g
         id="line20608"
         style="fill:#aa0000"
         transform="matrix(1.8899093,0,0,1.8899038,-65.487063,-196.67633)">
        <path
           style="color:#000000;stroke-width:4.5;stroke-miterlimit:10;-inkscape-stroke:none"
           d="m 355.70001,506.5 -9.40002,-20.60001"
           id="path23330" />
      </g>
      <g
         id="line20610"
         style="fill:#aa0000"
         transform="matrix(1.8899093,0,0,1.8899038,-65.487063,-196.67633)">
        <path
           style="color:#000000;stroke-width:4.5;stroke-miterlimit:10;-inkscape-stroke:none"
           d="M 360.20001,374.70001 H 277.39999"
           id="path23316" />
      </g>
      <g
         id="g13086"
         transform="matrix(1.8781304,0,0,1.8781249,-64.65972,464.04249)"
         style="fill:#aa0000">
        <g
           id="g13060">
          <path
             id="path13058"
             style="color:#000000;fill:#000000;stroke-width:1.00627;stroke-miterlimit:10;-inkscape-stroke:none"
             d="m 285.23862,316.54324 c -3.77737,0 -7.00075,2.97244 -7.28627,6.82704 l -0.005,0.0108 -3.92647,62.47198 v 0.37331 61.56421 h 4.52807 V 392.4921 l 8.13227,10.2325 c -0.30833,0.78502 -0.48611,1.6332 -0.48611,2.52187 v 42.54411 h 4.52807 v -42.54413 c 0,-1.39717 1.07097,-2.46279 2.46814,-2.46279 h 52.02447 c 1.39716,0 2.46277,1.06562 2.46277,2.46279 v 42.54411 h 4.52808 v -42.54411 c 0,-0.35857 -0.0355,-0.70813 -0.0887,-1.05279 l 7.43667,-10.60582 v 54.20272 H 364.08 V 386.22631 385.853 l -3.92647,-62.45855 v 0.0564 c -0.14785,-3.84386 -3.40074,-6.90761 -7.29165,-6.90761 z m 0,4.52809 h 0.003 67.62025 c 1.54295,0 2.71554,1.16538 2.76895,2.55409 l 0.003,0.0269 3.22819,51.35589 h -79.62326 l 3.2282,-51.30217 c 0.1169,-1.57825 1.31765,-2.63334 2.77163,-2.63466 z m -6.28451,58.46491 h 80.19464 l 0.38943,6.18516 -9.90482,14.12407 c -1.20805,-0.99248 -2.74781,-1.58993 -4.41796,-1.58993 h -52.02446 c -1.27675,0 -2.47488,0.35319 -3.5102,0.96148 l -11.08651,-13.94951 z" />
        </g>
        <g
           id="g13064" />
        <g
           id="g13072"
           transform="matrix(1.0062716,0,0,1.0062716,-0.44051389,0.22249234)">
          <path
             style="color:#000000;stroke-width:4.5;stroke-miterlimit:10;-inkscape-stroke:none"
             d="m 275.10001,383.5 12,15.10001"
             id="path13070" />
        </g>
        <g
           id="g13084"
           transform="matrix(1.0062716,0,0,1.0062716,-0.44051389,0.22249234)">
          <path
             style="color:#000000;stroke-width:4.5;stroke-miterlimit:10;-inkscape-stroke:none"
             d="M 360.20001,374.70001 H 277.39999"
             id="path13082" />
        </g>
      </g>
      <g
         id="g13116"
         transform="matrix(1.3363677,1.3363677,-1.3363638,1.3363638,373.51931,83.20706)"
         style="fill:#aa0000"
         inkscape:transform-center-x="-101.08298"
         inkscape:transform-center-y="246.08225">
        <g
           id="g13090">
          <path
             id="path13088"
             style="color:#000000;fill:#000000;stroke-miterlimit:10;-inkscape-stroke:none"
             d="m 283.89996,314.34953 c -3.75384,0 -6.95958,2.95254 -7.24333,6.78313 l -0.003,0.0131 -3.90362,62.08254 v 0.37107 100.40001 c 0,0.3 -0.0276,0.88451 0.21475,1.61142 l -0.0774,-0.30242 3.40545,18.42534 0.004,0.0263 c 0.71329,3.42377 3.73993,5.8905 7.20242,5.8905 h 68.30175 c 3.58,0 6.79416,-2.69567 6.94676,-6.358 l -0.0351,0.31703 3.3996,-18.40051 -0.0774,0.30241 c 0.2423,-0.72691 0.21476,-1.31141 0.21476,-1.61141 V 383.59937 383.2283 l -3.90363,-62.07086 10e-4,0.0555 c -0.14692,-3.81992 -3.38105,-6.86348 -7.24771,-6.86348 z m 0,4.49968 h 67.2002 c 1.53333,0 2.69787,1.15758 2.75095,2.53765 l 0.003,0.0278 3.20968,51.03493 h -79.1273 l 3.20822,-50.98234 c 0.11625,-1.5694 1.30918,-2.618 2.75533,-2.618 z m -6.24551,58.10003 h 79.69268 l 0.40322,6.42228 v 0.2279 100.30067 c 0,0.3 -0.0277,0.31537 0.0146,0.18846 l -0.0482,0.14755 -3.4595,18.71169 -0.006,0.15778 c -0.0474,1.13766 -1.03146,2.04531 -2.45146,2.04531 H 283.4995 c -1.33658,0 -2.50704,-0.93215 -2.79477,-2.30682 -2e-4,-9.5e-4 -10e-4,-0.002 -10e-4,-0.003 l -3.42006,-18.50277 -0.0497,-0.14902 c 0.0423,0.127 0.0161,0.11008 0.0161,-0.18992 v -100.40001 -0.2279 z" />
        </g>
        <g
           id="g13094">
          <path
             id="path13092"
             style="color:#000000;fill:#000000;stroke-miterlimit:10;-inkscape-stroke:none"
             d="m 276.86116,382.09904 -3.52378,2.80208 11.9943,15.09148 c -0.30641,0.78014 -0.48211,1.62384 -0.48211,2.50697 v 79.60064 c 0,1.7203 0.65047,3.31691 1.72098,4.5479 l -8.90587,18.89284 4.07017,1.91822 8.73933,-18.5393 c 0.42916,0.0839 0.87191,0.13148 1.32653,0.13148 h 51.69966 c 0.57533,0 1.13227,-0.0787 1.66839,-0.21329 l 8.48366,18.59481 4.09355,-1.86708 -8.76855,-19.22009 c 0.91722,-1.17851 1.47117,-2.6514 1.47117,-4.24549 v -79.60064 c 0,-0.35634 -0.0363,-0.7035 -0.0891,-1.04603 l 11.68312,-16.66199 -3.68449,-2.58294 -10.46616,14.92494 c -1.20054,-0.98629 -2.73183,-1.5822 -4.39157,-1.5822 h -51.69966 c -1.26879,0 -2.45986,0.35242 -3.48872,0.95692 z m 14.93955,17.952 h 51.69966 c 1.38846,0 2.44853,1.06007 2.44853,2.44853 v 79.60064 c 0,1.38846 -1.06007,2.44999 -2.44853,2.44999 h -51.69966 c -1.33077,0 -2.45145,-1.20999 -2.45145,-2.44999 v -79.60064 c 0,-1.38846 1.06299,-2.44853 2.45145,-2.44853 z" />
        </g>
        <g
           id="g13098">
          <path
             style="color:#000000;stroke-width:4.5;stroke-miterlimit:10;-inkscape-stroke:none"
             d="m 279.70001,506.5 9.9,-21"
             id="path13096" />
        </g>
        <g
           id="g13102">
          <path
             style="color:#000000;stroke-width:4.5;stroke-miterlimit:10;-inkscape-stroke:none"
             d="m 275.10001,383.5 12,15.10001"
             id="path13100" />
        </g>
        <g
           id="g13106">
          <path
             style="color:#000000;stroke-width:4.5;stroke-miterlimit:10;-inkscape-stroke:none"
             d="M 360.20001,383.5 348,400.89999"
             id="path13104" />
        </g>
        <g
           id="g13110">
          <path
             style="color:#000000;stroke-width:4.5;stroke-miterlimit:10;-inkscape-stroke:none"
             d="m 355.70001,506.5 -9.40002,-20.60001"
             id="path13108" />
        </g>
        <g
           id="g13114">
          <path
             style="color:#000000;stroke-width:4.5;stroke-miterlimit:10;-inkscape-stroke:none"
             d="M 360.20001,374.70001 H 277.39999"
             id="path13112" />
        </g>
      </g>
      <rect
         style="fill:#000000;fill-opacity:1;fill-rule:evenodd;stroke-width:30.3797;stroke-linecap:round;paint-order:stroke fill markers"
         id="rect2548"
         width="28.38813"
         height="170.21013"
         x="355.48242"
         y="524.65607" />
      <rect
         style="fill:#000000;fill-opacity:1;fill-rule:evenodd;stroke-width:30.3797;stroke-linecap:round;paint-order:stroke fill markers"
         id="rect2550"
         width="28.38813"
         height="170.21013"
         x="355.48242"
         y="1134.839" />
    </g>
  </g>
</svg>
