<?xml version="1.0" encoding="UTF-8" standalone="no"?>
<!-- Created with Inkscape (http://www.inkscape.org/) -->

<svg
   width="2300"
   height="1450"
   id="svg2"
   version="1.1"
   inkscape:version="1.2.2 (732a01da63, 2022-12-09)"
   sodipodi:docname="KZ_road_sign_5.20.1_A.svg"
   xml:space="preserve"
   xmlns:inkscape="http://www.inkscape.org/namespaces/inkscape"
   xmlns:sodipodi="http://sodipodi.sourceforge.net/DTD/sodipodi-0.dtd"
   xmlns="http://www.w3.org/2000/svg"
   xmlns:svg="http://www.w3.org/2000/svg"
   xmlns:rdf="http://www.w3.org/1999/02/22-rdf-syntax-ns#"
   xmlns:cc="http://creativecommons.org/ns#"
   xmlns:dc="http://purl.org/dc/elements/1.1/"><title
     id="title3006">5.20.1 Yoʻnalishlarning dastlabki koʻrsatkichi</title><defs
     id="defs4" /><sodipodi:namedview
     id="base"
     pagecolor="#ffffff"
     bordercolor="#666666"
     borderopacity="1.0"
     inkscape:pageopacity="0.0"
     inkscape:pageshadow="2"
     inkscape:zoom="0.35355339"
     inkscape:cx="1090.3587"
     inkscape:cy="1254.4074"
     inkscape:document-units="px"
     inkscape:current-layer="layer1"
     showgrid="false"
     inkscape:window-width="1920"
     inkscape:window-height="991"
     inkscape:window-x="-9"
     inkscape:window-y="-9"
     inkscape:window-maximized="1"
     inkscape:snap-bbox="true"
     inkscape:bbox-paths="true"
     inkscape:bbox-nodes="true"
     inkscape:snap-bbox-edge-midpoints="true"
     inkscape:snap-bbox-midpoints="true"
     inkscape:object-paths="true"
     inkscape:snap-intersection-paths="true"
     inkscape:object-nodes="true"
     inkscape:snap-smooth-nodes="true"
     inkscape:snap-midpoints="true"
     inkscape:snap-object-midpoints="true"
     showguides="true"
     inkscape:guide-bbox="true"
     inkscape:showpageshadow="2"
     inkscape:pagecheckerboard="0"
     inkscape:deskcolor="#d1d1d1" /><metadata
     id="metadata7"><rdf:RDF><cc:Work
         rdf:about=""><dc:format>image/svg+xml</dc:format><dc:type
           rdf:resource="http://purl.org/dc/dcmitype/StillImage" /><dc:title>5.20.1 Yoʻnalishlarning dastlabki koʻrsatkichi</dc:title><cc:license
           rdf:resource="http://creativecommons.org/licenses/by-sa/3.0/" /><dc:description>ГОСТ Р 52290-2004</dc:description></cc:Work><cc:License
         rdf:about="http://creativecommons.org/licenses/by-sa/3.0/"><cc:permits
           rdf:resource="http://creativecommons.org/ns#Reproduction" /><cc:permits
           rdf:resource="http://creativecommons.org/ns#Distribution" /><cc:requires
           rdf:resource="http://creativecommons.org/ns#Notice" /><cc:requires
           rdf:resource="http://creativecommons.org/ns#Attribution" /><cc:permits
           rdf:resource="http://creativecommons.org/ns#DerivativeWorks" /><cc:requires
           rdf:resource="http://creativecommons.org/ns#ShareAlike" /></cc:License></rdf:RDF></metadata><g
     inkscape:label="Layer 1"
     inkscape:groupmode="layer"
     id="layer1"
     transform="translate(0,397.63782)"><rect
       style="color:#000000;fill:#ffffff;fill-opacity:1;fill-rule:nonzero;stroke:none;stroke-width:3.54299998;marker:none;visibility:visible;display:inline;overflow:visible;enable-background:accumulate"
       id="rect13259"
       width="2300"
       height="1450"
       x="0"
       y="-397.63782"
       ry="45"
       rx="45" /><path
       inkscape:connector-curvature="0"
       style="color:#000000;display:inline;overflow:visible;visibility:visible;fill:#00a500;fill-opacity:1;fill-rule:nonzero;stroke:none;stroke-width:3.543;marker:none;enable-background:accumulate"
       d="m 45,-385.6378 c -18.282,0 -33,14.718 -33,33 v 1360 c 0,18.282 14.718,33 33,33 h 111.375 v -1178 H 86 L 196,-328.169 306,-137.6378 H 235.5938 V 38.143397 c 19.7479,-10.0732 42.1229,-15.7812 65.8124,-15.7812 H 435 c 80.0812,0 145,64.9187 145,145.000003 0,51.8035 -27.6369,99.6607 -72.5,125.5625 l 35.1875,61 h -220 l 110,-190.5313 35.2187,60.9688 c 20.3587,-11.7541 32.9063,-33.492 32.9063,-57 0,-36.3404 -29.4721,-65.8125 -65.8125,-65.8125 H 301.4062 c -36.3404,0 -65.8124,29.4721 -65.8124,65.8125 V 655.26838 L 412.1875,553.331 377,492.3622 H 597 L 487,682.89338 451.7812,621.92468 268.5,727.73718 c -20.3587,11.754 -32.9062,33.4919 -32.9062,57 V 1040.3622 H 2255 c 18.282,0 33,-14.718 33,-33 v -1360 c 0,-18.282 -14.718,-33 -33,-33 z"
       id="rect13261"
       sodipodi:nodetypes="sssscccccccssscccccsssscccccccscsssss" /><rect
       rx="44"
       ry="44"
       y="-396.63782"
       x="1"
       height="1448"
       width="2298"
       id="rect13385"
       style="color:#000000;fill:none;stroke:#000000;stroke-width:2;stroke-miterlimit:4;stroke-opacity:1;stroke-dasharray:none;marker:none;visibility:visible;display:inline;overflow:visible;enable-background:accumulate" /><g
       id="g3797"
       transform="matrix(0.81515227,0,0,0.81515227,926.90818,-363.12755)"
       style="fill:#550000"><g
         id="rect1365"><path
           style="color:#000000;fill:#ffffff;-inkscape-stroke:none;paint-order:stroke fill markers"
           d="m -157.09961,565.59066 c -15.24237,0 -28.08789,12.84552 -28.08789,28.08789 v 219.56201 c 0,15.24237 12.84552,28.08789 28.08789,28.08789 H 1277.6604 c 15.2424,0 28.0879,-12.84552 28.0879,-28.08789 V 593.67855 c 0,-15.24237 -12.8455,-28.08789 -28.0879,-28.08789 z m 8.71484,36.80273 H 1268.9456 V 804.52572 H -148.38477 Z"
           id="path6905"
           sodipodi:nodetypes="sssssssssccccc" /><path
           style="color:#000000;fill:#0d69e1;stroke-width:36.8029;-inkscape-stroke:none;paint-order:stroke fill markers;fill-opacity:1"
           d="M -157.10002,583.992 H 1277.6612 c 5.3663,0 9.6864,4.32013 9.6864,9.6864 v 219.56271 c 0,5.36627 -4.3201,9.6864 -9.6864,9.6864 H -157.10002 c -5.36627,0 -9.6864,-4.32013 -9.6864,-9.6864 V 593.6784 c 0,-5.36627 4.32013,-9.6864 9.6864,-9.6864 z"
           id="path6907"
           sodipodi:nodetypes="sssssssss" /></g></g><g
       aria-label="TOSHKENT"
       id="text1636"
       style="font-size:179.559px;line-height:1.5;font-family:'Russian Road Sign';-inkscape-font-specification:'Russian Road Sign';fill:#ffffff;fill-rule:evenodd;stroke-width:33.5178;stroke-linecap:round;paint-order:stroke fill markers"><path
         d="m 1086.2308,-189.97725 v 15.08296 h 27.6521 v 85.470088 h 17.5968 v -85.470088 h 27.6521 v -15.08296 z"
         id="path3686" /><path
         d="m 1223.2342,-192.49107 c -27.652,0 -40.9394,23.70179 -40.9394,52.79035 0,29.08856 13.2874,52.790344 40.9394,52.790344 27.6521,0 40.9395,-23.701784 40.9395,-52.790344 0,-29.08856 -13.2874,-52.79035 -40.9395,-52.79035 z m 0,16.33987 c 13.8261,0 23.8814,13.82604 23.8814,36.45048 0,22.62443 -10.0553,36.45047 -23.8814,36.45047 -13.826,0 -23.8813,-13.82604 -23.8813,-36.45047 0,-22.62444 10.0553,-36.45048 23.8813,-36.45048 z"
         id="path3688" /><path
         d="m 1291.8257,-104.50716 c 0,0 16.8785,17.596784 39.5029,17.596784 25.1383,0 38.6052,-18.853694 38.6052,-31.422824 0,-15.08296 -10.9531,-25.13826 -28.5498,-28.909 -13.8261,-2.87295 -26.3952,-4.48898 -26.3952,-14.18516 0,-4.8481 3.7707,-14.72384 18.8537,-14.72384 13.1078,0 22.2653,10.0553 22.2653,10.0553 l 11.6713,-12.56913 c 0,0 -16.3398,-13.82604 -33.9366,-13.82604 -21.3675,0 -36.4505,13.82604 -36.4505,31.42282 0,7.72104 3.4116,24.06091 31.4228,28.19077 22.4449,3.23206 22.6245,11.67133 22.6245,15.62163 v 0.17956 c 0,3.77074 -4.3095,13.82604 -19.7515,13.82604 -17.5968,0 -27.4726,-11.85089 -27.4726,-11.85089 z"
         id="path3690" /><path
         d="m 1397.586,-89.424202 h 17.5968 v -45.248868 h 37.7074 v 45.248868 h 17.5968 V -189.97725 h -17.5968 v 40.22122 h -37.7074 v -40.22122 h -17.5968 z"
         id="path3692" /><path
         d="m 1559.189,-89.424202 h 22.6244 l -38.6052,-53.329028 36.0914,-47.22402 h -22.6245 l -35.014,47.40358 z m -37.7074,-100.553048 h -17.5968 v 100.553048 h 17.5968 z"
         id="path3694" /><path
         d="m 1607.8495,-89.424202 h 64.1026 v -15.082958 h -46.5058 v -30.16591 h 36.4505 v -15.08296 h -36.4505 v -23.88135 h 45.2489 v -16.33987 h -62.8457 z"
         id="path3696" /><path
         d="m 1703.3748,-89.424202 h 17.5968 v -72.900958 l 37.7074,72.900958 h 20.1106 V -189.97725 h -17.5968 v 71.64405 l -37.7074,-71.64405 h -20.1106 z"
         id="path3698" /><path
         d="m 1805.1847,-189.97725 v 15.08296 h 27.652 v 85.470088 h 17.5968 v -85.470088 h 27.6521 v -15.08296 z"
         id="path3700" /></g><g
       aria-label="SARDABA"
       id="text1690"
       style="font-size:179.559px;line-height:1.5;font-family:'Russian Road Sign';-inkscape-font-specification:'Russian Road Sign';fill:#ffffff;fill-rule:evenodd;stroke-width:33.5178;stroke-linecap:round;paint-order:stroke fill markers"><path
         d="m 1200.2308,247.49285 c 0,0 16.8785,17.59678 39.5029,17.59678 25.1383,0 38.6052,-18.85369 38.6052,-31.42282 0,-15.08296 -10.9531,-25.13827 -28.5499,-28.909 -13.826,-2.87295 -26.3951,-4.48898 -26.3951,-14.18517 0,-4.84809 3.7707,-14.72383 18.8537,-14.72383 13.1078,0 22.2653,10.0553 22.2653,10.0553 l 11.6713,-12.56913 c 0,0 -16.3399,-13.82604 -33.9366,-13.82604 -21.3676,0 -36.4505,13.82604 -36.4505,31.42282 0,7.72104 3.4116,24.06091 31.4228,28.19077 22.4449,3.23206 22.6244,11.67133 22.6244,15.62163 v 0.17956 c 0,3.77074 -4.3094,13.82604 -19.7514,13.82604 -17.5968,0 -27.4726,-11.85089 -27.4726,-11.85089 z"
         id="path3703" /><path
         d="m 1332.3863,227.38224 12.5691,-42.73504 12.5691,42.73504 z m 2.5138,-65.35948 -32.6797,100.55305 h 18.8536 l 6.2846,-20.11061 h 35.1936 l 6.2845,20.11061 h 18.8537 l -32.6797,-100.55305 z"
         id="path3705" /><path
         d="m 1417.8562,162.02276 v 100.55305 h 17.5968 v -40.22122 h 10.0553 c 11.3122,0 13.826,7.0028 18.315,15.44207 4.6686,8.97795 7.9006,19.57193 11.8509,24.77915 h 21.3675 c -11.3122,-5.02766 -16.3398,-42.73505 -32.6797,-46.50579 10.0553,-3.77074 18.8537,-12.56913 18.8537,-26.39517 0,-10.0553 -6.2846,-27.65209 -31.4228,-27.65209 z m 17.5968,15.08296 h 11.3122 c 10.0553,0 18.8537,4.30942 18.8537,15.08296 0,10.77354 -8.7984,15.08295 -18.8537,15.08295 h -11.3122 z"
         id="path3707" /><path
         d="m 1561.1442,162.02276 h -33.9367 v 100.55305 h 33.9367 c 27.6521,0 43.4532,-21.18797 43.4532,-50.27653 0,-29.08855 -15.8011,-50.27652 -43.4532,-50.27652 z m -1.2569,15.08296 c 13.826,0 26.3951,11.31222 26.3951,35.19356 0,23.88135 -12.5691,35.19357 -26.3951,35.19357 h -15.083 v -70.38713 z"
         id="path3709" /><path
         d="m 1659.1833,227.38224 12.5691,-42.73504 12.5691,42.73504 z m 2.5138,-65.35948 -32.6798,100.55305 h 18.8537 l 6.2846,-20.11061 h 35.1936 l 6.2845,20.11061 h 18.8537 l -32.6797,-100.55305 z"
         id="path3711" /><path
         d="m 1743.3963,162.02276 v 100.55305 h 39.1438 c 18.6742,0 32.5002,-13.82605 32.5002,-30.16592 0,-11.31221 -7.5415,-18.85369 -17.5968,-22.62443 8.7984,-3.77074 14.3647,-12.56913 14.3647,-20.11061 0,-13.28737 -10.5939,-27.65209 -29.4476,-27.65209 z m 17.5967,15.08296 h 20.1107 c 6.2845,0 12.5691,4.12986 12.5691,12.92825 0,7.54148 -5.0277,12.92825 -12.5691,12.92825 h -20.1107 z m 0,40.22122 h 21.3676 c 10.0553,0 15.0829,7.90059 15.0829,15.08295 0,7.18236 -5.0276,15.08296 -15.0829,15.08296 h -21.3676 z"
         id="path3713" /><path
         d="m 1870.3444,227.38224 12.5691,-42.73504 12.5692,42.73504 z m 2.5138,-65.35948 -32.6797,100.55305 h 18.8537 l 6.2846,-20.11061 h 35.1935 l 6.2846,20.11061 h 18.8537 l -32.6797,-100.55305 z"
         id="path3715" /></g><g
       aria-label="900m
"
       id="text1714"
       style="font-size:95.6281px;line-height:1.5;font-family:'Russian Road Sign';-inkscape-font-specification:'Russian Road Sign';fill:#ffffff;fill-rule:evenodd;stroke-width:17.8506;stroke-linecap:round;paint-order:stroke fill markers"
       transform="matrix(1.3880159,0,0,1.3880159,-410.23256,-341.9607)"><path
         d="m 1042.7073,937.05717 c 15.3962,0 21.4207,-14.34421 21.4207,-30.40973 0,-16.73492 -8.0327,-25.34145 -19.4125,-25.34145 -8.7021,0 -16.0655,9.27593 -16.0655,19.98627 0,12.71854 9.3716,15.39613 13.3879,15.39613 4.6858,0 9.3716,-2.67759 12.7186,-5.35518 0,0 -0.6694,17.6912 -12.7186,17.6912 -6.0245,0 -11.7622,-3.15573 -11.7622,-3.15573 l 1.0519,8.22402 c 0,0 6.0246,2.96447 11.3797,2.96447 z m 1.3388,-28.40154 c -2.6776,0 -6.6939,-2.67759 -6.6939,-8.03276 0,-4.68578 2.7732,-10.71035 8.7021,-10.71035 6.4071,0 8.0328,9.37155 8.4153,12.14477 0,0 -3.7295,6.59834 -10.4235,6.59834 z"
         id="path3677"
         style="fill:#ffffff" /><path
         d="m 1094.9202,881.87976 c -10.7103,0 -18.0737,11.37974 -18.0737,27.44526 0,16.06552 7.3634,27.44527 18.0737,27.44527 10.7104,0 18.0738,-11.37975 18.0738,-27.44527 0,-15.20486 -7.3634,-27.44526 -18.0738,-27.44526 z m 0,8.31964 c 5.164,0 8.7022,5.73769 8.7022,19.12562 0,13.38794 -3.5382,19.12562 -8.7022,19.12562 -5.1639,0 -8.7021,-5.73768 -8.7021,-19.12562 0,-13.38793 3.5382,-19.12562 8.7021,-19.12562 z"
         id="path3679"
         style="fill:#ffffff" /><path
         d="m 1143.1168,881.87976 c -10.7104,0 -18.0737,11.37974 -18.0737,27.44526 0,16.06552 7.3633,27.44527 18.0737,27.44527 10.7103,0 18.0737,-11.37975 18.0737,-27.44527 0,-15.20486 -7.3634,-27.44526 -18.0737,-27.44526 z m 0,8.31964 c 5.1639,0 8.7021,5.73769 8.7021,19.12562 0,13.38794 -3.5382,19.12562 -8.7021,19.12562 -5.1639,0 -8.7022,-5.73768 -8.7022,-19.12562 0,-13.38793 3.5383,-19.12562 8.7022,-19.12562 z"
         id="path3681"
         style="fill:#ffffff" /><path
         d="m 1193.9909,897.94528 c -6.694,0 -10.5191,5.06829 -10.5191,5.06829 -0.6694,-0.95628 -1.0519,-2.67759 -1.3388,-4.39889 h -6.8852 v 37.48621 h 8.0327 v -24.09828 c 2.0082,-4.01638 4.7815,-7.36336 8.7022,-7.36336 4.0164,0 4.6858,3.34698 4.6858,5.35517 v 26.10647 h 8.0327 v -24.09828 c 2.0082,-4.01638 4.7814,-7.36336 8.7022,-7.36336 4.0164,0 4.6858,3.34698 4.6858,5.35517 v 26.10647 h 8.0327 v -26.77587 c 0,-6.69396 -3.3469,-11.37974 -10.7103,-11.37974 -4.9727,0 -10.041,2.67759 -11.3798,6.69397 -1.3387,-4.01638 -4.877,-6.69397 -10.0409,-6.69397 z"
         id="path3683"
         style="fill:#ffffff" /></g><g
       id="g2052"
       transform="matrix(0.81515227,0,0,0.81515227,926.90818,44.876413)"
       style="fill:#550000"><g
         id="g2050"><path
           style="color:#000000;fill:#ffffff;-inkscape-stroke:none;paint-order:stroke fill markers"
           d="m -157.09961,565.59066 c -15.24237,0 -28.08789,12.84552 -28.08789,28.08789 v 219.56201 c 0,15.24237 12.84552,28.08789 28.08789,28.08789 H 1277.6604 c 15.2424,0 28.0879,-12.84552 28.0879,-28.08789 V 593.67855 c 0,-15.24237 -12.8455,-28.08789 -28.0879,-28.08789 z"
           id="path2046"
           sodipodi:nodetypes="sssssssss" /><path
           id="path2048"
           style="color:#000000;fill:#0d69e1;stroke-width:36.8029;-inkscape-stroke:none;paint-order:stroke fill markers;fill-opacity:1"
           d="M -157.10013 583.992 C -162.46638 583.992 -166.78725 588.31288 -166.78725 593.67913 L -166.78725 813.24125 C -166.78725 818.60752 -162.46638 822.92838 -157.10013 822.92838 L 1277.661 822.92838 C 1283.0273 822.92838 1287.3482 818.60752 1287.3482 813.24125 L 1287.3482 593.67913 C 1287.3482 588.31288 1283.0273 583.992 1277.661 583.992 L -157.10013 583.992 z M 374.51067 638.69804 C 397.85989 638.69804 411.51798 652.57585 419.22768 672.62096 L 398.52124 680.33137 C 393.89548 664.91204 385.96508 658.74318 374.51067 658.74318 C 357.54934 658.74318 345.21448 675.70541 345.21448 703.46019 C 345.21448 731.21496 357.54934 748.17481 374.51067 748.17481 C 382.22039 748.17481 386.84639 746.63323 391.47213 742.00744 C 397.63993 735.83972 399.18254 732.75582 399.18254 721.9623 L 377.59436 721.9623 L 377.59436 703.46019 L 422.31137 703.46019 L 422.31137 765.13627 L 403.80926 765.13627 L 399.18254 754.34457 C 393.89594 761.83395 386.40561 768.21995 374.51067 768.21995 C 340.58813 768.21995 322.30609 739.14491 322.30609 703.46019 C 322.30609 667.77549 340.58813 638.69804 374.51067 638.69804 z M 809.33645 638.69804 C 830.92354 638.69804 850.96978 655.6595 850.96978 655.6595 L 836.65113 671.07792 C 836.65113 671.07792 825.4166 658.74318 809.33645 658.74318 C 790.8332 658.74318 786.20762 670.85936 786.20762 676.80681 C 786.20762 688.70171 801.62856 690.68232 818.5899 694.20675 C 840.17699 698.83253 853.61259 711.16952 853.61259 729.6727 C 853.61259 745.09203 837.09124 768.21995 806.25277 768.21995 C 778.49788 768.21995 757.79317 746.63416 757.79317 746.63416 L 772.99115 733.63812 C 772.99115 733.63812 785.10654 748.17481 806.69364 748.17481 C 825.63742 748.17481 830.92463 735.83914 830.92463 731.21335 L 830.92463 730.99291 C 830.92463 726.14684 830.70352 715.79447 803.16908 711.82951 C 768.80588 706.76316 764.62184 686.71954 764.62184 677.24768 C 764.62184 655.66063 783.12361 638.69804 809.33645 638.69804 z M 1049.4397 638.69804 C 1083.3623 638.69804 1099.6628 667.77541 1099.6628 703.46019 C 1099.6628 739.14497 1083.3623 768.21995 1049.4397 768.21995 C 1015.5171 768.21995 999.21662 739.14497 999.21662 703.46019 C 999.21662 667.77541 1015.5171 638.69804 1049.4397 638.69804 z M 456.23429 641.78172 L 477.82007 641.78172 L 477.82007 726.58902 C 477.82007 743.55028 491.6974 749.71785 500.9489 749.71785 C 510.20053 749.71785 524.08012 743.55028 524.08012 726.58902 L 524.08012 641.78172 L 545.66591 641.78172 L 545.66591 725.04598 C 545.66591 726.58791 544.12308 766.67931 500.9489 766.67931 C 457.77484 766.67931 456.23429 726.58791 456.23429 725.04598 L 456.23429 641.78172 z M 585.75619 641.78172 L 607.34438 641.78172 L 607.34438 746.63416 L 662.85308 746.63416 L 662.85308 765.13627 L 585.75619 765.13627 L 585.75619 641.78172 z M 696.776 641.78172 L 718.36179 641.78172 L 718.36179 765.13627 L 696.776 765.13627 L 696.776 641.78172 z M 881.36814 641.78172 L 970.79977 641.78172 L 970.79977 660.28622 L 936.87685 660.28622 L 936.87685 765.13627 L 915.29106 765.13627 L 915.29106 660.28622 L 881.36814 660.28622 L 881.36814 641.78172 z M 1132.7039 641.78172 L 1157.3734 641.78172 L 1203.6335 729.6727 L 1203.6335 641.78172 L 1225.2193 641.78172 L 1225.2193 765.13627 L 1200.5474 765.13627 L 1154.2897 675.70464 L 1154.2897 765.13627 L 1132.7039 765.13627 L 1132.7039 641.78172 z M 1049.4397 658.74318 C 1032.4785 658.74318 1020.1411 675.70536 1020.1411 703.46019 C 1020.1411 731.21502 1032.4785 748.17481 1049.4397 748.17481 C 1066.4009 748.17481 1078.7359 731.21502 1078.7359 703.46019 C 1078.7359 675.70536 1066.4009 658.74318 1049.4397 658.74318 z " /></g></g><path
       style="color:#000000;display:inline;overflow:visible;visibility:visible;fill:#ffffff;fill-opacity:1;fill-rule:nonzero;stroke:none;stroke-width:3.543;marker:none;enable-background:accumulate"
       d="m 755.4634,-214.70072 h 250 c 13.85,0 25,11.15 25,25 v 99.999996 c 0,13.85 -11.15,25 -25,25 h -250 c -13.85,0 -25,-11.15 -25,-25 v -99.999996 c 0,-13.85 11.15,-25 25,-25 z"
       id="path2460" /><path
       inkscape:connector-curvature="0"
       style="color:#000000;display:inline;overflow:visible;visibility:visible;fill:#0d69e1;fill-opacity:1;fill-rule:nonzero;stroke:none;stroke-width:3.543;marker:none;enable-background:accumulate"
       d="m 755.4634,-204.70072 c -8.31,0 -15,6.69 -15,15 v 99.999996 c 0,8.31 6.69,15 15,15 h 250 c 8.31,0 15,-6.69 15,-15 v -99.999996 c 0,-8.31 -6.69,-15 -15,-15 z"
       id="rect16352"
       sodipodi:nodetypes="sssssssss" /><g
       id="g2676"
       transform="translate(90,10.209636)"><path
         style="color:#000000;display:inline;overflow:visible;visibility:visible;fill:#ffffff;fill-opacity:1;fill-rule:nonzero;stroke:none;stroke-width:3.543;marker:none;enable-background:accumulate"
         d="m 745.4634,125.08963 h 300 c 13.85,0 25,11.15 25,25 v 100 c 0,13.85 -11.15,25 -25,25 h -300 c -13.85,0 -25,-11.15 -25,-25 v -100 c 0,-13.85 11.15,-25 25,-25 z"
         id="path2597" /><path
         inkscape:connector-curvature="0"
         style="color:#000000;display:inline;overflow:visible;visibility:visible;fill:#0d69e1;fill-opacity:1;fill-rule:nonzero;stroke:none;stroke-width:3.543;marker:none;enable-background:accumulate"
         d="m 745.6197,135.08963 c -8.3948,0 -15.1563,6.69 -15.1563,15 v 100 c 0,8.31 6.7615,15 15.1563,15 h 299.6875 c 8.3947,0 15.1562,-6.69 15.1562,-15 v -100 c 0,-8.31 -6.7615,-15 -15.1562,-15 z"
         id="rect16360"
         sodipodi:nodetypes="sssssssss" /></g><g
       id="g2682"
       transform="translate(90,418.2136)"><path
         style="color:#000000;display:inline;overflow:visible;visibility:visible;fill:#ffffff;fill-opacity:1;fill-rule:nonzero;stroke:none;stroke-width:3.543;marker:none;enable-background:accumulate"
         d="m 745.4634,125.08963 h 300 c 13.85,0 25,11.15 25,25 v 100 c 0,13.85 -11.15,25 -25,25 h -300 c -13.85,0 -25,-11.15 -25,-25 v -100 c 0,-13.85 11.15,-25 25,-25 z"
         id="path2678" /><path
         inkscape:connector-curvature="0"
         style="color:#000000;display:inline;overflow:visible;visibility:visible;fill:#0d69e1;fill-opacity:1;fill-rule:nonzero;stroke:none;stroke-width:3.543;marker:none;enable-background:accumulate"
         d="m 745.6197,135.08963 c -8.3948,0 -15.1563,6.69 -15.1563,15 v 100 c 0,8.31 6.7615,15 15.1563,15 h 299.6875 c 8.3947,0 15.1562,-6.69 15.1562,-15 v -100 c 0,-8.31 -6.7615,-15 -15.1562,-15 z"
         id="path2680"
         sodipodi:nodetypes="sssssssss" /></g><g
       aria-label="M39"
       id="text3100"
       style="font-size:154.147px;line-height:1.5;font-family:'Russian Road Sign';-inkscape-font-specification:'Russian Road Sign';fill:#ffffff;fill-rule:evenodd;stroke-width:28.7742;stroke-linecap:round;paint-order:stroke fill markers"><path
         d="m 761.92424,-96.356682 h 15.10641 v -62.583688 l 25.89669,45.31922 25.8967,-45.31922 1.07903,62.583688 h 14.02738 V -182.679 h -17.26447 l -23.73864,39.92407 -23.73864,-39.92407 h -17.26446 z"
         id="path3735" /><path
         d="m 866.59018,-177.28386 5.70343,12.7942 c 6.16588,-5.241 10.482,-7.39905 19.11423,-7.39905 5.39515,0 10.79029,4.31611 10.79029,9.71126 0,6.47417 -8.63223,14.02738 -19.42252,16.18543 v 11.86932 c 2.15806,-1.07903 4.9327,-1.07903 7.5532,-1.07903 14.02738,0 15.26056,8.94053 15.26056,12.64006 -0.15415,10.01955 -8.78638,14.33567 -18.49764,14.33567 -7.09077,0 -16.49373,-1.23318 -21.73473,-4.77856 l 1.84976,15.106408 c 0,0 13.41079,3.699528 22.04302,3.699528 20.50156,0 31.75429,-15.106406 31.75429,-28.054756 0,-14.02738 -15.56885,-20.50155 -20.964,-21.58058 8.63224,-1.07903 17.26447,-9.71126 17.26447,-21.58058 0,-11.86932 -12.33176,-19.57667 -23.12205,-19.57667 -8.63223,0 -22.19717,4.47026 -27.59231,7.70735 z"
         id="path3737" /><path
         d="m 964.47365,-94.815212 c 24.81767,0 34.52893,-23.122048 34.52893,-49.018748 0,-26.97572 -12.94835,-40.84895 -31.29184,-40.84895 -14.02738,0 -25.8967,14.95225 -25.8967,32.21672 0,20.50155 15.10641,24.81767 21.58058,24.81767 7.55321,0 15.10641,-4.31612 20.50156,-8.63224 0,0 -1.07903,28.5172 -20.50156,28.5172 -9.71126,0 -18.96008,-5.08685 -18.96008,-5.08685 l 1.69562,13.256641 c 0,0 9.71126,4.778557 18.34349,4.778557 z m 2.15806,-45.781658 c -4.31611,0 -10.79029,-4.31612 -10.79029,-12.94835 0,-7.5532 4.47026,-17.26446 14.02738,-17.26446 10.32785,0 12.94835,15.1064 13.56494,19.57667 0,0 -6.01174,10.63614 -16.80203,10.63614 z"
         id="path3739" /></g><g
       aria-label="A141"
       id="text3156"
       style="font-size:154.147px;line-height:1.5;font-family:'Russian Road Sign';-inkscape-font-specification:'Russian Road Sign';fill:#ffffff;fill-rule:evenodd;stroke-width:28.7742;stroke-linecap:round;paint-order:stroke fill markers"><path
         d="m 890.66288,223.32469 10.79029,-36.68698 10.79029,36.68698 z m 2.15806,-56.10951 -28.05476,86.32233 h 16.18544 l 5.39514,-17.26447 h 30.21281 l 5.39515,17.26447 h 16.18543 L 910.0854,167.21518 Z"
         id="path3742" /><path
         d="m 950.62595,187.25429 5.08685,6.62833 11.56102,-7.24491 v 66.8998 h 15.10641 v -86.32233 h -12.94835 z"
         id="path3744" /><path
         d="m 1047.122,167.21518 -42.0821,56.10951 v 12.94835 h 41.0031 v 17.26447 h 15.1064 v -17.26447 h 5.8576 l 4.9327,-12.94835 h -11.8693 v -56.10951 z m -1.079,22.65961 v 33.4499 h -24.8177 z"
         id="path3746" /><path
         d="m 1078.8764,187.25429 5.0868,6.62833 11.561,-7.24491 v 66.8998 h 15.1065 v -86.32233 h -12.9484 z"
         id="path3748" /></g><g
       aria-label="A141"
       id="text3262"
       style="font-size:154.147px;line-height:1.5;font-family:'Russian Road Sign';-inkscape-font-specification:'Russian Road Sign';fill:#ffffff;fill-rule:evenodd;stroke-width:28.7742;stroke-linecap:round;paint-order:stroke fill markers"><path
         d="m 890.66288,631.2516 10.79029,-36.68698 10.79029,36.68698 z m 2.15806,-56.10951 -28.05476,86.32233 h 16.18544 l 5.39514,-17.26447 h 30.21281 l 5.39515,17.26447 h 16.18543 L 910.0854,575.14209 Z"
         id="path3751" /><path
         d="m 950.62595,595.18121 5.08685,6.62832 11.56102,-7.24491 v 66.8998 h 15.10641 v -86.32233 h -12.94835 z"
         id="path3753" /><path
         d="m 1047.122,575.14209 -42.0821,56.10951 v 12.94835 h 41.0031 v 17.26447 h 15.1064 v -17.26447 h 5.8576 l 4.9327,-12.94835 h -11.8693 v -56.10951 z m -1.079,22.65961 v 33.4499 h -24.8177 z"
         id="path3755" /><path
         d="m 1078.8764,595.18121 5.0868,6.62832 11.561,-7.24491 v 66.8998 h 15.1065 v -86.32233 h -12.9484 z"
         id="path3757" /></g><path
       id="path1208"
       style="color:#000000;display:inline;overflow:visible;visibility:visible;fill:#ffffff;fill-opacity:1;fill-rule:nonzero;stroke:none;stroke-width:2.39492;marker:none;enable-background:accumulate"
       d="m 2014.0487,-215.73622 8.0968,36.8544 H 2010.82 l -1.6268,-36.8544 z m -8.0847,0 -1.601,36.8544 h -11.3255 l 8.0604,-36.8544 z m 51.0903,41.77839 v 6.52644 h -13.8597 v 11.42338 h -6.5121 l -3.199,-11.42338 h -51.7839 l -3.2603,11.42338 h -6.4509 v -11.42338 h -13.8596 v -6.52644 z m -30.0786,11.40361 25.9046,98.888996 h -38.8316 l -3.2287,-98.888996 z m -22.6127,0 -3.2651,98.888996 h -38.7932 l 25.867,-98.888996 z" /></g></svg>
