<?xml version="1.0" encoding="UTF-8" standalone="no"?>
<!-- Created with Inkscape (http://www.inkscape.org/) -->

<svg
   width="700"
   height="1050"
   id="svg2"
   version="1.1"
   inkscape:version="1.2.2 (732a01da63, 2022-12-09)"
   sodipodi:docname="UZ_road_sign_6.19.svg.2024_10_23_16_31_49.1.svg"
   xml:space="preserve"
   xmlns:inkscape="http://www.inkscape.org/namespaces/inkscape"
   xmlns:sodipodi="http://sodipodi.sourceforge.net/DTD/sodipodi-0.dtd"
   xmlns="http://www.w3.org/2000/svg"
   xmlns:svg="http://www.w3.org/2000/svg"
   xmlns:rdf="http://www.w3.org/1999/02/22-rdf-syntax-ns#"
   xmlns:cc="http://creativecommons.org/ns#"
   xmlns:dc="http://purl.org/dc/elements/1.1/"><title
     id="title3002">6.24 Bozor</title><defs
     id="defs4" /><sodipodi:namedview
     id="base"
     pagecolor="#ffffff"
     bordercolor="#666666"
     borderopacity="1.0"
     inkscape:pageopacity="0.0"
     inkscape:pageshadow="2"
     inkscape:zoom="0.76285714"
     inkscape:cx="272.00374"
     inkscape:cy="652.15356"
     inkscape:document-units="px"
     inkscape:current-layer="g115751"
     showgrid="false"
     inkscape:window-width="1920"
     inkscape:window-height="991"
     inkscape:window-x="-9"
     inkscape:window-y="-9"
     inkscape:window-maximized="1"
     inkscape:showpageshadow="2"
     inkscape:pagecheckerboard="0"
     inkscape:deskcolor="#d1d1d1"
     showguides="true" /><metadata
     id="metadata7"><rdf:RDF><cc:Work
         rdf:about=""><dc:format>image/svg+xml</dc:format><dc:type
           rdf:resource="http://purl.org/dc/dcmitype/StillImage" /><dc:title>6.24 Bozor</dc:title><cc:license
           rdf:resource="http://creativecommons.org/licenses/by-sa/3.0/" /><dc:description>ГОСТ Р 52290-2004
Размеры и пропорции по типоразмеру II</dc:description></cc:Work><cc:License
         rdf:about="http://creativecommons.org/licenses/by-sa/3.0/"><cc:permits
           rdf:resource="http://creativecommons.org/ns#Reproduction" /><cc:permits
           rdf:resource="http://creativecommons.org/ns#Distribution" /><cc:requires
           rdf:resource="http://creativecommons.org/ns#Notice" /><cc:requires
           rdf:resource="http://creativecommons.org/ns#Attribution" /><cc:permits
           rdf:resource="http://creativecommons.org/ns#DerivativeWorks" /><cc:requires
           rdf:resource="http://creativecommons.org/ns#ShareAlike" /></cc:License></rdf:RDF></metadata><g
     inkscape:label="Layer 1"
     inkscape:groupmode="layer"
     id="layer1"
     transform="translate(0,-2.362183)"><rect
       style="color:#000000;fill:#ffffff;fill-opacity:1;fill-rule:nonzero;stroke:none;stroke-width:3.54299997999999980;marker:none;visibility:visible;display:inline;overflow:visible;enable-background:accumulate;opacity:1"
       id="rect10481"
       width="700"
       height="1050"
       x="0"
       y="2.3621831"
       rx="45"
       ry="45" /><path
       inkscape:connector-curvature="0"
       style="color:#000000;display:inline;overflow:visible;visibility:visible;opacity:1;fill:#0d69e1;fill-opacity:1;fill-rule:nonzero;stroke:none;stroke-width:3.543;marker:none;enable-background:accumulate"
       d="m 45,22.362155 c -13.85,0 -25,11.15 -25,25 V 1007.3622 c 0,13.85 11.15,25 25,25 h 610 c 13.85,0 25,-11.15 25,-25 V 47.362155 c 0,-13.85 -11.15,-25 -25,-25 z m 65.625,155.000005 h 478.75 c 24.93,0 45,20.07 45,45 v 478.75 c 0,24.93 -20.07,45 -45,45 h -478.75 c -24.930001,0 -45.000001,-20.07 -45.000001,-45 v -478.75 c 0,-24.93 20.07,-45 45.000001,-45 z"
       id="rect10483" /><rect
       ry="44"
       rx="44"
       y="3.3621678"
       x="1"
       height="1048"
       width="698"
       id="rect10490"
       style="color:#000000;display:inline;overflow:visible;visibility:visible;opacity:1;fill:none;stroke:#000000;stroke-width:2;stroke-miterlimit:4;stroke-dasharray:none;stroke-opacity:1;marker:none;enable-background:accumulate" /><g
       aria-label="300m"
       id="text5762"
       style="font-size:190.338px;line-height:1.5;font-family:'Russian Road Sign';-inkscape-font-specification:'Russian Road Sign';fill:#ffffff;fill-rule:evenodd;stroke-width:44.8854;stroke-linecap:round;stroke-linejoin:round;paint-order:stroke fill markers"
       transform="translate(-1.5e-5)"><path
         d="m 155.76006,841.76231 7.04251,15.79805 c 7.61352,-6.47149 12.94298,-9.13622 23.60191,-9.13622 6.66183,0 13.32366,5.32946 13.32366,11.99129 0,7.9942 -10.65893,17.32076 -23.98259,19.98549 v 14.65603 c 2.66473,-1.33237 6.09082,-1.33237 9.32656,-1.33237 17.32076,0 18.84347,11.03961 18.84347,15.60772 -0.19034,12.37197 -10.84927,17.70143 -22.84056,17.70143 -8.75555,0 -20.36617,-1.5227 -26.83766,-5.90048 l 2.28405,18.65313 c 0,0 16.55941,4.56811 27.21834,4.56811 25.31495,0 39.20963,-18.65312 39.20963,-34.64152 0,-17.32075 -19.22414,-25.31495 -25.88597,-26.64731 10.65893,-1.33237 21.31785,-11.9913 21.31785,-26.64732 0,-14.65603 -15.22704,-24.17293 -28.5507,-24.17293 -10.65892,0 -27.40867,5.5198 -34.0705,9.5169 z"
         id="path6231"
         style="fill:#ffffff" /><path
         d="m 284.61905,833.76811 c -21.31785,0 -35.97388,22.65023 -35.97388,54.62701 0,31.97678 14.65603,54.627 35.97388,54.627 21.31786,0 35.97388,-22.65022 35.97388,-54.627 0,-30.26374 -14.65602,-54.62701 -35.97388,-54.62701 z m 0,16.55941 c 10.27825,0 17.32076,11.42028 17.32076,38.0676 0,26.64732 -7.04251,38.0676 -17.32076,38.0676 -10.27825,0 -17.32076,-11.42028 -17.32076,-38.0676 0,-26.64732 7.04251,-38.0676 17.32076,-38.0676 z"
         id="path6233"
         style="fill:#ffffff" /><path
         d="m 380.54934,833.76811 c -21.31785,0 -35.97388,22.65023 -35.97388,54.62701 0,31.97678 14.65603,54.627 35.97388,54.627 21.31786,0 35.97388,-22.65022 35.97388,-54.627 0,-30.26374 -14.65602,-54.62701 -35.97388,-54.62701 z m 0,16.55941 c 10.27825,0 17.32076,11.42028 17.32076,38.0676 0,26.64732 -7.04251,38.0676 -17.32076,38.0676 -10.27825,0 -17.32075,-11.42028 -17.32075,-38.0676 0,-26.64732 7.0425,-38.0676 17.32075,-38.0676 z"
         id="path6235"
         style="fill:#ffffff" /><path
         d="m 481.8091,865.7449 c -13.32366,0 -20.93718,10.08791 -20.93718,10.08791 -1.33236,-1.90338 -2.09371,-5.32946 -2.66473,-8.75555 h -13.70433 v 74.6125 h 15.98839 v -47.96518 c 3.9971,-7.99419 9.5169,-14.65602 17.32076,-14.65602 7.99419,0 9.32656,6.66183 9.32656,10.65893 v 51.96227 h 15.98839 v -47.96518 c 3.9971,-7.99419 9.5169,-14.65602 17.32076,-14.65602 7.99419,0 9.32656,6.66183 9.32656,10.65893 v 51.96227 h 15.98839 v -53.29464 c 0,-13.32366 -6.66183,-22.65022 -21.31785,-22.65022 -9.89758,0 -19.98549,5.32946 -22.65023,13.32366 -2.66473,-7.9942 -9.70723,-13.32366 -19.98549,-13.32366 z"
         id="path6237"
         style="fill:#ffffff" /></g><g
       id="g115751"
       transform="matrix(1.383671,0,0,1.383671,72.968996,-214.66503)"><g
         id="g687"><path
           id="rect115003"
           style="fill:#000000;fill-rule:evenodd;stroke-width:54.3957;stroke-linecap:round;stroke-linejoin:round;paint-order:stroke fill markers"
           d="m 31.91374,329.36402 c -2.21598,0 -4,1.784 -4,4 v 19.8554 c 0,2.216 1.78402,4 4,4 h 17.66407 v 8.1446 H 48.0114 c -2.216,0 -4,1.784 -4,4 v 19.8554 c 0,2.216 1.784,4 4,4 h 1.56641 v 113.0723 c 0,1.385 1.115,2.5 2.5,2.5 h 5.68945 c 1.385,0 2.5,-1.115 2.5,-2.5 v -113.0723 h 279.89451 v 113.0723 c 0,1.385 1.115,2.5 2.5,2.5 h 5.6895 c 1.385,0 2.5,-1.115 2.5,-2.5 v -113.0723 h 1.5664 c 2.216,0 4,-1.784 4,-4 v -19.8554 c 0,-2.216 -1.784,-4 -4,-4 h -1.5664 v -8.1446 h 17.664 c 2.216,0 4,-1.784 4,-4 v -19.8554 c 0,-2.216 -1.784,-4 -4,-4 z m 28.35352,27.8554 h 279.89451 v 8.1446 H 60.26726 Z M 46.5114,513.45772 c -1.385,0 -2.5,1.115 -2.5,2.5 v 69.7188 c 0,1.385 1.115,2.5 2.5,2.5 h 16.91211 v 14.3105 c 0,1.939 1.561,3.5 3.5,3.5 h 45.35937 c 1.939,0 3.5,-1.561 3.5,-3.5 v -14.3105 h 136.20508 c 0.0555,6.0381 4.93268,10.8828 10.98438,10.8828 6.05169,0 10.92886,-4.8447 10.98437,-10.8828 h 10.69141 v 14.3105 c 0,1.939 1.561,3.5 3.5,3.5 h 45.35745 c 1.939,0 3.5,-1.561 3.5,-3.5 v -14.3105 h 16.9121 c 1.385,0 2.5,-1.115 2.5,-2.5 v -69.7188 c 0,-1.385 -1.115,-2.5 -2.5,-2.5 z" /><path
           id="path115049"
           style="opacity:1;fill:#000000;fill-rule:evenodd;stroke-width:34.4153;stroke-linecap:round;stroke-linejoin:round;paint-order:stroke fill markers"
           d="m 268.3708,447.53982 c -1.38499,0 -2.5,1.115 -2.5,2.5 v 40.0624 c 0,1.385 1.11501,2.5 2.5,2.5 h 19.07422 c 1.385,0 2.5,-1.115 2.5,-2.5 v -40.0624 c 0,-1.385 -1.115,-2.5 -2.5,-2.5 z m 26.35352,0.7656 v 26.0351 34.7813 c 0,0.831 0.66902,1.5 1.5,1.5 h 5.09961 c 0.831,0 1.5,-0.669 1.5,-1.5 v -33.3106 c 6.16115,4.2696 10.625,17.3799 10.625,32.9805 h 19.79687 c 0,-28.6429 -16.19139,-52.7019 -38.52148,-60.4863 z m -33.63281,0.7539 c -21.28968,8.4912 -36.52344,31.9523 -36.52344,59.7324 h 17.99609 c 0,-15.4339 4.36865,-28.4315 10.42774,-32.8418 v 33.1719 c 0,0.831 0.669,1.5 1.5,1.5 h 5.09961 c 0.831,0 1.5,-0.669 1.5,-1.5 v -34.7813 -14.0879 z" /><circle
           style="opacity:1;fill:#000000;fill-rule:evenodd;stroke-width:19.0837;stroke-linecap:round;stroke-linejoin:round;paint-order:stroke fill markers"
           id="path115154"
           cx="278.90692"
           cy="424.19675"
           r="20.366188" /><path
           id="rect115238"
           style="opacity:1;fill:#000000;fill-rule:evenodd;stroke-width:18.1;stroke-linecap:round;stroke-linejoin:round;paint-order:stroke fill markers"
           d="m 165.97429,483.88942 v 0 c -5.48328,0 -9.89648,4.4151 -9.89648,9.8984 v 5.1016 c 0,0.2057 0.019,0.3985 0.0313,0.5957 h -6.56446 c -1.09666,0 -1.97851,0.8818 -1.97851,1.9785 v 5.3437 c 0,1.0967 0.88185,1.9805 1.97851,1.9805 h 82.04102 c 1.09666,0 1.98047,-0.8838 1.98047,-1.9805 v -5.3437 c 0,-1.0967 -0.88381,-1.9785 -1.98047,-1.9785 h -5.74414 c 0.0124,-0.1984 0.0313,-0.3925 0.0313,-0.5996 v -5.1016 c 0,-5.4833 -4.41516,-9.8984 -9.89844,-9.8984 -5.23555,0 -9.49285,4.0253 -9.86719,9.1621 h -0.0293 v 0.7363 2.5508 c 0,1.4417 -1.16182,2.6015 -2.60352,2.6015 -1.44171,0 -2.60156,-1.1598 -2.60156,-2.6015 v -2.5508 -0.7363 h -0.0293 c -0.3743,-5.1369 -4.63357,-9.1621 -9.86914,-9.1621 -5.23555,0 -9.49285,4.0253 -9.86719,9.1621 h -0.0293 v 0.7363 2.5508 c 0,1.4417 -1.16182,2.6015 -2.60352,2.6015 -1.44171,0 -2.60156,-1.1598 -2.60156,-2.6015 v -2.5508 -0.7363 h -0.0293 c -0.3743,-5.1369 -4.63357,-9.1621 -9.86914,-9.1621 z" /><rect
           style="opacity:1;fill:#000000;fill-rule:evenodd;stroke-width:18.4611;stroke-linecap:round;stroke-linejoin:round;paint-order:stroke fill markers"
           id="rect115258"
           width="86.876312"
           height="8.9071045"
           x="52.077805"
           y="499.88461"
           ry="1.4306352"
           rx="1.4306352" /><circle
           style="opacity:1;fill:#000000;fill-rule:evenodd;stroke-width:18.0999;stroke-linecap:round;stroke-linejoin:round;paint-order:stroke fill markers"
           id="path115260"
           cx="63.8311"
           cy="492.06552"
           r="7.8191037" /><circle
           style="opacity:1;fill:#000000;fill-rule:evenodd;stroke-width:18.0999;stroke-linecap:round;stroke-linejoin:round;paint-order:stroke fill markers"
           id="circle115262"
           cx="85.164413"
           cy="492.06552"
           r="7.8191037" /><circle
           style="opacity:1;fill:#000000;fill-rule:evenodd;stroke-width:18.0999;stroke-linecap:round;stroke-linejoin:round;paint-order:stroke fill markers"
           id="circle115264"
           cx="106.49779"
           cy="492.06552"
           r="7.8191037" /><circle
           style="opacity:1;fill:#000000;fill-rule:evenodd;stroke-width:18.0999;stroke-linecap:round;stroke-linejoin:round;paint-order:stroke fill markers"
           id="circle115266"
           cx="127.8311"
           cy="492.06552"
           r="7.8191037" /><circle
           style="opacity:1;fill:#000000;fill-rule:evenodd;stroke-width:18.0999;stroke-linecap:round;stroke-linejoin:round;paint-order:stroke fill markers"
           id="circle115807"
           cx="95.831161"
           cy="479.79245"
           r="7.8191037" /><circle
           style="opacity:1;fill:#000000;fill-rule:evenodd;stroke-width:18.0999;stroke-linecap:round;stroke-linejoin:round;paint-order:stroke fill markers"
           id="circle115817"
           cx="117.16454"
           cy="479.79245"
           r="7.8191037" /><circle
           style="opacity:1;fill:#000000;fill-rule:evenodd;stroke-width:18.0999;stroke-linecap:round;stroke-linejoin:round;paint-order:stroke fill markers"
           id="circle115288"
           cx="74.497849"
           cy="479.79245"
           r="7.8191037" /><circle
           style="opacity:1;fill:#000000;fill-rule:evenodd;stroke-width:18.0999;stroke-linecap:round;stroke-linejoin:round;paint-order:stroke fill markers"
           id="circle115809"
           cx="85.164536"
           cy="467.51938"
           r="7.8191037" /><circle
           style="opacity:1;fill:#000000;fill-rule:evenodd;stroke-width:18.0999;stroke-linecap:round;stroke-linejoin:round;paint-order:stroke fill markers"
           id="circle115815"
           cx="95.831284"
           cy="455.24631"
           r="7.8191037" /><circle
           style="opacity:1;fill:#000000;fill-rule:evenodd;stroke-width:18.0999;stroke-linecap:round;stroke-linejoin:round;paint-order:stroke fill markers"
           id="circle115819"
           cx="106.49791"
           cy="467.51938"
           r="7.8191037" /></g><g
         aria-label="BAZAAR"
         id="text614"
         style="font-size:52.784px;line-height:1.5;font-family:'Russian Road Sign';-inkscape-font-specification:'Russian Road Sign';letter-spacing:-2.81859px;fill-rule:evenodd;stroke-width:19.1072;stroke-linecap:round;stroke-linejoin:round;paint-order:stroke fill markers"><path
           d="m 117.106,633.15721 v 29.55904 h 11.50691 c 5.48954,0 9.55391,-4.06437 9.55391,-8.86771 0,-3.3254 -2.21693,-5.54232 -5.17283,-6.65079 2.58641,-1.10846 4.22272,-3.69488 4.22272,-5.91181 0,-3.90601 -3.11426,-8.12873 -8.65658,-8.12873 z m 5.17283,4.43385 h 5.91181 c 1.84744,0 3.69488,1.21404 3.69488,3.80045 0,2.21693 -1.47795,3.80045 -3.69488,3.80045 h -5.91181 z m 0,11.82362 h 6.2813 c 2.9559,0 4.43386,2.3225 4.43386,4.43386 0,2.11136 -1.47796,4.43385 -4.43386,4.43385 h -6.2813 z"
           id="path689" /><path
           d="m 151.60567,652.37058 3.69488,-12.56259 3.69488,12.56259 z m 0.73898,-19.21337 -9.60669,29.55904 h 5.54232 l 1.84744,-5.91181 h 10.34566 l 1.84744,5.91181 h 5.54232 l -9.60668,-29.55904 z"
           id="path691" /><path
           d="m 173.54274,662.71625 h 19.95235 v -4.43386 h -13.67105 l 13.30156,-20.32184 v -4.80334 h -19.21337 v 4.43385 h 12.93208 l -13.30157,20.32184 z"
           id="path693" /><path
           d="m 208.0424,652.37058 3.69488,-12.56259 3.69488,12.56259 z m 0.73898,-19.21337 -9.60669,29.55904 h 5.54232 l 1.84744,-5.91181 h 10.34567 l 1.84744,5.91181 h 5.54232 l -9.60669,-29.55904 z"
           id="path695" /><path
           d="m 237.73872,652.37058 3.69488,-12.56259 3.69488,12.56259 z m 0.73898,-19.21337 -9.60669,29.55904 h 5.54232 l 1.84744,-5.91181 h 10.34567 l 1.84744,5.91181 h 5.54232 l -9.60669,-29.55904 z"
           id="path697" /><path
           d="m 260.04527,633.15721 v 29.55904 h 5.17283 v -11.82362 h 2.9559 c 3.3254,0 4.06437,2.05858 5.38397,4.53943 1.37239,2.6392 2.3225,5.75345 3.48375,7.28419 h 6.28129 c -3.32539,-1.47795 -4.80334,-12.56259 -9.60669,-13.67106 2.95591,-1.10846 5.54232,-3.69488 5.54232,-7.75925 0,-2.9559 -1.84744,-8.12873 -9.2372,-8.12873 z m 5.17283,4.43385 h 3.32539 c 2.95591,0 5.54232,1.26682 5.54232,4.43386 0,3.16704 -2.58641,4.43386 -5.54232,4.43386 h -3.32539 z"
           id="path699" /></g></g></g></svg>
