<?xml version="1.0" encoding="UTF-8" standalone="no"?>
<!-- Created with Inkscape (http://www.inkscape.org/) -->

<svg
   width="700"
   height="1050"
   id="svg2"
   version="1.1"
   inkscape:version="1.2.2 (732a01da63, 2022-12-09)"
   sodipodi:docname="UZ_road_sign_6.19.svg"
   xml:space="preserve"
   xmlns:inkscape="http://www.inkscape.org/namespaces/inkscape"
   xmlns:sodipodi="http://sodipodi.sourceforge.net/DTD/sodipodi-0.dtd"
   xmlns="http://www.w3.org/2000/svg"
   xmlns:svg="http://www.w3.org/2000/svg"
   xmlns:rdf="http://www.w3.org/1999/02/22-rdf-syntax-ns#"
   xmlns:cc="http://creativecommons.org/ns#"
   xmlns:dc="http://purl.org/dc/elements/1.1/"><title
     id="title3002">6.26 Qoʻriqxona</title><defs
     id="defs4" /><sodipodi:namedview
     id="base"
     pagecolor="#ffffff"
     bordercolor="#666666"
     borderopacity="1.0"
     inkscape:pageopacity="0.0"
     inkscape:pageshadow="2"
     inkscape:zoom="0.53942146"
     inkscape:cx="75.080439"
     inkscape:cy="948.23814"
     inkscape:document-units="px"
     inkscape:current-layer="layer1"
     showgrid="false"
     inkscape:window-width="1920"
     inkscape:window-height="991"
     inkscape:window-x="-9"
     inkscape:window-y="-9"
     inkscape:window-maximized="1"
     inkscape:showpageshadow="2"
     inkscape:pagecheckerboard="0"
     inkscape:deskcolor="#d1d1d1"
     showguides="true" /><metadata
     id="metadata7"><rdf:RDF><cc:Work
         rdf:about=""><dc:format>image/svg+xml</dc:format><dc:type
           rdf:resource="http://purl.org/dc/dcmitype/StillImage" /><dc:title>6.26 Qoʻriqxona</dc:title><cc:license
           rdf:resource="http://creativecommons.org/licenses/by-sa/3.0/" /><dc:description>ГОСТ Р 52290-2004
Размеры и пропорции по типоразмеру II</dc:description></cc:Work><cc:License
         rdf:about="http://creativecommons.org/licenses/by-sa/3.0/"><cc:permits
           rdf:resource="http://creativecommons.org/ns#Reproduction" /><cc:permits
           rdf:resource="http://creativecommons.org/ns#Distribution" /><cc:requires
           rdf:resource="http://creativecommons.org/ns#Notice" /><cc:requires
           rdf:resource="http://creativecommons.org/ns#Attribution" /><cc:permits
           rdf:resource="http://creativecommons.org/ns#DerivativeWorks" /><cc:requires
           rdf:resource="http://creativecommons.org/ns#ShareAlike" /></cc:License></rdf:RDF></metadata><g
     inkscape:label="Layer 1"
     inkscape:groupmode="layer"
     id="layer1"
     transform="translate(0,-2.362183)"><rect
       style="color:#000000;fill:#ffffff;fill-opacity:1;fill-rule:nonzero;stroke:none;stroke-width:3.54299997999999980;marker:none;visibility:visible;display:inline;overflow:visible;enable-background:accumulate;opacity:1"
       id="rect10481"
       width="700"
       height="1050"
       x="0"
       y="2.3621831"
       rx="45"
       ry="45" /><path
       inkscape:connector-curvature="0"
       style="color:#000000;display:inline;overflow:visible;visibility:visible;opacity:1;fill:#0d69e1;fill-opacity:1;fill-rule:nonzero;stroke:none;stroke-width:3.543;marker:none;enable-background:accumulate"
       d="m 45.000009,22.362155 c -13.85,0 -25,11.15 -25,25 V 1007.3622 c 0,13.85 11.15,25 25,25 H 655.00001 c 13.85,0 25,-11.15 25,-25 V 47.362155 c 0,-13.85 -11.15,-25 -25,-25 z"
       id="rect10483"
       sodipodi:nodetypes="sssssssss" /><rect
       ry="44"
       rx="44"
       y="3.3621678"
       x="1.0000153"
       height="1048"
       width="698"
       id="rect10490"
       style="color:#000000;fill:none;stroke:#000000;stroke-width:1.99999988000000010;stroke-miterlimit:4;stroke-opacity:1;stroke-dasharray:none;marker:none;visibility:visible;display:inline;overflow:visible;enable-background:accumulate;opacity:1" /><path
       id="rect3557-7"
       style="fill:#ffffff;fill-rule:evenodd;stroke-width:0.341851;stroke-linecap:round;paint-order:stroke fill markers"
       d="m 323.57031,197.09265 c -13.55889,-0.011 -60.02497,9.11981 -112.29297,22.06445 l -8.88672,2.20313 -0.91406,6.49414 c -1.56851,11.16485 -6.39241,21.22392 -12.00976,25.04102 -6.27864,4.26654 -16.43035,6.38585 -33.02735,6.88671 l -13.13281,0.39454 -0.39648,3.15429 c -0.86201,6.87618 -1.06072,9.1493 -2.03125,23.32227 -2.57041,37.53767 -2.98366,83.5212 -1.01368,112.4707 3.28681,48.30068 13.91385,87.57199 34.88086,128.88086 13.70268,26.99655 29.92318,50.92119 51.97266,76.66797 24.93269,29.11317 62.00945,61.62126 90.69727,79.52148 l 5.95312,3.71485 0.39258,-1.67383 v 1.67383 l 5.77148,-3.59961 c 28.69528,-17.90485 65.78159,-50.42427 90.72071,-79.54492 22.05518,-25.75364 38.2802,-49.68391 51.98632,-76.6875 20.97242,-41.31976 31.60303,-80.60258 34.89063,-128.91602 1.9705,-28.95699 1.55739,-74.95021 -1.01367,-112.49805 -0.9709,-14.17668 -1.16905,-16.45022 -2.03125,-23.32812 l -0.39844,-3.15625 -13.13477,-0.39453 c -16.60122,-0.50112 -26.75509,-2.62103 -33.03515,-6.88867 C 451.89878,249.0773 447.0689,239.01611 445.5,227.84851 l -0.91211,-6.49414 -8.89062,-2.20508 C 383.79847,206.2959 337.702,197.22588 323.76172,197.10437 v 0.0313 c -0.0572,0 -0.13736,-0.043 -0.19141,-0.043 z"
       sodipodi:nodetypes="cccccccccsccccccccssccccccccccc" /><path
       style="fill:#000000;stroke-width:0.6954"
       d="m 449.52917,671.58599 c -0.2655,-0.26526 -0.4824,-13.67246 -0.4824,-29.79381 v -29.31162 l -4.6938,2.32464 c -5.9541,2.94881 -18.011,5.89607 -33.5531,8.20233 -23.6397,3.5077 -57.2817,6.44297 -64.8177,5.65525 -8.8998,-0.93025 -21.5886,-5.12024 -24.78951,-8.18593 -0.94412,-0.90428 -2.47928,-3.3053 -3.41151,-5.33574 -1.46021,-3.18016 -1.66118,-4.49948 -1.45151,-9.52154 0.2363,-5.65382 0.39512,-6.13017 5.26232,-15.77939 5.37011,-10.64638 11.13251,-18.8388 23.89381,-33.96926 13.329,-15.80338 19.7436,-26.51613 21.8444,-36.48034 1.1041,-5.23779 1.3649,-12.6842 0.4918,-14.05768 -0.3485,-0.54877 -2.4259,-0.83537 -5.9206,-0.81721 -6.2338,0.033 -10.7413,-1.68683 -12.3567,-4.71356 -3.3709,-6.31607 3.4862,-23.93823 15.6003,-40.09129 2.7356,-3.6477 9.1986,-11.3729 14.362,-17.16672 12.3194,-13.82434 14.2832,-16.28799 16.679,-20.92659 3.079,-5.96112 3.0922,-9.11552 0.045,-10.6914 -2.5678,-1.32791 -7.481,-1.34002 -12.8992,-0.033 -7.8235,1.88868 -13.7695,0.80313 -14.6421,-2.67398 -0.8563,-3.41173 2.7379,-12.99248 8.3837,-22.34662 4.6882,-7.76802 23.2233,-33.71303 38.2529,-53.54582 6.9562,-9.17935 15.8478,-21.47228 19.7591,-27.31794 12.0017,-17.93629 18.2585,-24.85968 23.1522,-25.61868 5.1357,-0.79641 11.5244,5.73956 24.6727,25.24161 4.041,5.99369 13.8267,19.52747 21.7458,30.07501 32.0106,42.63529 41.0481,56.53579 44.2545,68.06851 2.1997,7.91231 -0.1973,9.48621 -13.3354,8.75638 -12.0285,-0.6683 -14.9021,0.52247 -14.9021,6.17574 0,3.05491 3.7108,8.8036 10.4234,16.14777 8.7491,9.5725 17.5675,19.96475 22.1527,26.10648 9.3948,12.58459 16.1874,27.0725 16.3517,34.87662 0.074,3.48294 -0.1602,4.21497 -1.9364,6.06887 -2.6162,2.73066 -5.3045,3.56923 -11.9899,3.73971 l -5.447,0.13912 -0.2091,4.84904 c -0.2827,6.55535 1.4047,13.61445 5.022,21.00672 3.6122,7.38247 8.1081,13.7189 19.1445,26.98225 12.0144,14.4386 16.6303,20.92922 21.4616,30.17836 5.5012,10.53159 6.4491,13.31508 6.4689,18.99763 0.018,5.04913 -1.6779,9.97522 -4.4608,12.96089 -3.3965,3.64396 -15.8605,7.98528 -25.522,8.88967 -8.0256,0.75162 -40.9314,-2.12069 -64.6722,-5.64512 -19.2389,-2.85592 -35.4334,-7.33724 -37.3909,-10.34636 -0.2796,-0.42968 -0.6648,12.67441 -0.8562,29.12066 l -0.3477,29.90211 -9.427,0.19261 c -5.1848,0.10676 -9.644,-0.0242 -9.9095,-0.28968 z"
       id="path3618-1" /><path
       style="fill:#000000;stroke-width:0.683703"
       d="m 274.74688,495.43209 c -0.43959,-0.17941 -3.15033,-3.05337 -6.02385,-6.3864 -9.23086,-10.70703 -14.93289,-13.34766 -22.13309,-10.25016 l -3.57507,1.53791 -3.2091,-2.30472 c -3.43253,-2.46508 -5.86602,-2.81992 -11.62727,-1.69552 -2.85624,0.55725 -2.99393,0.4987 -5.69388,-2.42534 -2.57294,-2.78669 -3.0111,-2.99657 -6.25553,-2.99657 -3.34713,0 -3.51189,-0.0892 -4.05736,-2.17848 -0.3183,-1.22027 -1.15159,-2.3636 -1.89396,-2.59936 -2.49997,-0.79344 -9.74894,1.80581 -12.79416,4.58765 -1.66162,1.51798 -2.95628,1.13441 -2.95628,-0.87566 0,-2.22471 -2.37098,-1.53406 -4.15862,1.21135 -1.30601,2.00567 -3.93189,3.7964 -12.5103,8.53163 -5.97168,3.29606 -11.11844,5.83169 -11.43752,5.63467 -0.78761,-0.48692 -6.21921,-17.89006 -8.73448,-27.98569 -4.33857,-17.41459 -7.53765,-38.79563 -8.59272,-57.43115 -0.23421,-4.13638 -0.58069,-8.51347 -0.76989,-9.72691 l -0.34427,-2.20622 12.01028,0.43431 c 8.43687,0.30521 14.07385,0.16124 18.94601,-0.48361 6.03353,-0.79862 7.45412,-0.78288 10.92099,0.1203 2.19201,0.57111 4.13957,0.88413 4.328,0.69581 0.18832,-0.18853 0.34362,-2.06037 0.34505,-4.15993 0.011,-6.28449 4.10622,-10.9878 9.58813,-10.99375 3.7396,-0.011 5.34014,1.66988 8.91223,9.31969 1.82022,3.89755 3.67038,7.08662 4.11195,7.08662 0.57442,0 0.71453,-1.60307 0.49297,-5.6405 -0.36651,-6.67653 -1.16601,-8.44194 -7.97505,-17.60544 -8.55475,-11.51302 -9.94011,-15.04769 -12.34223,-31.48845 -0.73841,-5.05552 -2.32761,-12.26838 -3.53148,-16.02868 -3.82061,-11.93489 -3.03432,-19.44998 2.30934,-22.07179 3.90701,-1.91675 8.68716,2.67574 8.68716,8.3464 0,1.49796 0.21473,1.60174 2.64172,1.27607 2.21711,-0.29728 2.82147,-0.098 3.76041,1.24283 1.38426,1.97629 1.41959,6.88476 0.0925,12.91577 -1.72986,7.8641 -1.17955,12.99017 1.39438,12.99017 1.99181,0 2.76181,-4.27407 4.42024,-24.53896 0.84484,-10.32544 2.28325,-15.40374 4.92047,-17.37277 2.31859,-1.73096 4.53767,-1.19154 8.01181,1.94702 2.53365,2.28897 2.80407,2.37152 6.39366,1.94954 3.30519,-0.3883 3.93024,-0.25854 5.28698,1.09821 1.34508,1.34508 1.49114,2.0224 1.16106,5.38295 -0.2078,2.11431 -1.64467,7.16708 -3.19337,11.2284 -4.55913,11.95668 -4.96692,17.66388 -1.62651,22.76211 2.37582,3.6258 5.06334,1.69673 11.54516,-8.28653 5.13443,-7.90824 7.06307,-9.89498 9.6053,-9.89498 1.72634,0 5.06773,2.45011 5.06773,3.71594 0,0.48505 -1.69694,3.15473 -3.77097,5.93272 -4.79753,6.4258 -8.32296,13.4892 -9.34544,18.725 -1.16832,5.98049 -1.14983,21.70759 0.0264,23.12597 2.00964,2.42238 4.98949,-1.44292 7.30268,-9.47256 1.54748,-5.37162 4.09324,-10.35427 5.74088,-11.23599 1.90882,-1.02149 3.88654,-0.87203 5.14808,0.3894 1.2523,1.2523 1.14531,1.78588 -1.86237,9.28788 -1.72183,4.29455 -1.95153,5.44602 -1.25461,6.28591 1.70498,2.05433 4.79335,-0.62736 11.32569,-9.83434 3.93233,-5.54254 8.49862,-10.8544 10.04038,-11.67943 1.02523,-0.54866 1.75451,-0.46182 3.00615,0.35836 3.30551,2.16571 2.64448,6.56008 -1.73735,11.55077 -1.21861,1.38768 -7.16212,6.26941 -13.20776,10.84791 -17.69801,13.40324 -22.48079,19.2084 -22.44238,27.24024 0.011,2.24781 0.20747,4.39118 0.43739,4.76297 1.31503,2.12796 7.89503,-1.12022 18.79709,-9.27874 12.13003,-9.07744 15.99379,-13.0966 19.45692,-20.23969 2.15767,-4.45072 3.18335,-5.84401 4.67966,-6.35723 3.05952,-1.04978 4.20253,0.14936 4.44213,4.6594 0.21925,4.12967 0.43167,4.36972 2.48952,2.81321 1.85445,-1.40253 4.3039,-1.25075 5.1439,0.31874 1.9458,3.6356 -0.26085,7.57816 -9.99911,17.86651 -6.20479,6.55513 -6.9967,7.70066 -5.82464,8.4251 0.94577,0.58454 4.22576,-1.82331 12.39859,-9.10209 6.20303,-5.5245 8.12264,-6.88191 9.22987,-6.5264 4.2634,1.36863 5.00368,1.2228 6.64483,-1.30975 2.1383,-3.30013 4.19322,-3.25445 5.97762,0.1324 1.6475,3.12722 -1.3338,10.28252 -6.20985,14.90472 -5.59285,5.30151 -11.11459,8.46263 -20.65672,11.82593 -12.65118,4.45898 -25.77772,5.39935 -39.22894,2.81012 -8.41728,-1.62012 -11.75857,-1.25636 -13.20018,1.43743 -1.75396,3.27723 0.12481,4.92971 20.80651,18.29916 25.44544,16.44912 35.51345,25.44731 40.08579,35.82635 4.06407,9.22559 0.89184,24.30684 -6.10453,29.02161 -2.6327,1.77432 -6.36824,1.99401 -8.93667,0.52566 -2.34588,-1.34112 -5.04616,-1.24778 -10.14537,0.35077 -4.17073,1.30744 -7.08255,1.61418 -8.77191,0.9242 z"
       id="path3620-9" /><g
       aria-label="MUHOFAZA ETILADIGAN TABIIY"
       id="text4273"
       style="font-size:50px;line-height:1.5;font-family:'Russian Road Sign';-inkscape-font-specification:'Russian Road Sign';letter-spacing:-2.61px;opacity:1;fill:#ffffff;fill-rule:evenodd;stroke-width:0.5;stroke-linecap:round;paint-order:stroke fill markers"><path
         d="m 42.625198,817.65094 h 4.9 v -20.3 l 8.4,14.7 8.4,-14.7 0.35,20.3 h 4.55 v -28 h -5.6 l -7.7,12.95 -7.7,-12.95 h -5.6 z"
         id="path4333" /><path
         d="m 75.365235,789.65094 v 18.9 c 0,0.35 0.35,9.45 10.15,9.45 9.8,0 10.15,-9.1 10.15,-9.45 v -18.9 h -4.9 v 19.25 c 0,3.85 -3.15,5.25 -5.25,5.25 -2.1,0 -5.25,-1.4 -5.25,-5.25 v -19.25 z"
         id="path4335" /><path
         d="m 102.1552,817.65094 h 4.9 v -12.6 h 10.5 v 12.6 h 4.9 v -28 h -4.9 v 11.2 h -10.5 v -11.2 h -4.9 z"
         id="path4337" /><path
         d="m 139.09517,788.95094 c -7.7,0 -11.4,6.6 -11.4,14.7 0,8.1 3.7,14.7 11.4,14.7 7.7,0 11.4,-6.6 11.4,-14.7 0,-8.1 -3.7,-14.7 -11.4,-14.7 z m 0,4.55 c 3.85,0 6.65,3.85 6.65,10.15 0,6.3 -2.8,10.15 -6.65,10.15 -3.85,0 -6.65,-3.85 -6.65,-10.15 0,-6.3 2.8,-10.15 6.65,-10.15 z"
         id="path4339" /><path
         d="m 155.73514,817.65094 h 4.9 v -11.9 h 10.15 v -4.2 h -10.15 v -7.35 h 12.95 v -4.55 h -17.85 z"
         id="path4341" /><path
         d="m 186.02512,807.85094 3.5,-11.9 3.5,11.9 z m 0.7,-18.2 -9.1,28 h 5.25 l 1.75,-5.6 h 9.8 l 1.75,5.6 h 5.25 l -9.1,-28 z"
         id="path4343" /><path
         d="m 206.86509,817.65094 h 18.9 v -4.2 h -12.95 l 12.6,-19.25 v -4.55 h -18.2 v 4.2 h 12.25 l -12.6,19.25 z"
         id="path4345" /><path
         d="m 239.60506,807.85094 3.5,-11.9 3.5,11.9 z m 0.7,-18.2 -9.1,28 h 5.25 l 1.75,-5.6 h 9.8 l 1.75,5.6 h 5.25 l -9.1,-28 z"
         id="path4347" /><path
         d="m 282.83502,817.65094 h 17.85 v -4.2 h -12.95 v -8.4 h 10.15 v -4.2 h -10.15 v -6.65 h 12.6 v -4.55 h -17.5 z"
         id="path4349" /><path
         d="m 305.775,789.65094 v 4.2 h 7.7 v 23.8 h 4.9 v -23.8 h 7.7 v -4.2 z"
         id="path4351" /><path
         d="m 331.16499,817.65094 h 4.9 v -28 h -4.9 z"
         id="path4353" /><path
         d="m 342.555,817.65094 h 17.5 v -4.2 h -12.6 v -23.8 h -4.9 z"
         id="path4355" /><path
         d="m 372.495,807.85094 3.5,-11.9 3.5,11.9 z m 0.7,-18.2 -9.1,28 h 5.25 l 1.75,-5.6 h 9.8 l 1.75,5.6 h 5.25 l -9.1,-28 z"
         id="path4357" /><path
         d="m 402.78497,789.65094 h -9.45 v 28 h 9.45 c 7.7,0 12.1,-5.9 12.1,-14 0,-8.1 -4.4,-14 -12.1,-14 z m -0.35,4.2 c 3.85,0 7.35,3.15 7.35,9.8 0,6.65 -3.5,9.8 -7.35,9.8 h -4.2 v -19.6 z"
         id="path4359" /><path
         d="m 420.12492,817.65094 h 4.9 v -28 h -4.9 z"
         id="path4361" /><path
         d="m 442.36496,788.95094 c -7.7,0 -11.85,6.6 -11.85,14.7 0,8.1 4.15,14.7 11.85,14.7 2.7,0 4.4,-1.45 5.6,-3.15 l 1.05,2.45 h 4.2 v -14 h -10.15 v 4.2 h 4.9 c 0,2.45 -0.35,3.15 -1.75,4.55 -1.05,1.05 -2.1,1.4 -3.85,1.4 -3.85,0 -6.65,-3.85 -6.65,-10.15 0,-6.3 2.8,-10.15 6.65,-10.15 2.6,0 4.4,1.4 5.45,4.9 l 4.7,-1.75 c -1.75,-4.55 -4.85,-7.7 -10.15,-7.7 z"
         id="path4363" /><path
         d="m 465.65494,807.85094 3.5,-11.9 3.5,11.9 z m 0.7,-18.2 -9.1,28 h 5.25 l 1.75,-5.6 h 9.8 l 1.75,5.6 h 5.25 l -9.1,-28 z"
         id="path4365" /><path
         d="m 486.14488,817.65094 h 4.9 v -20.3 l 10.5,20.3 h 5.6 v -28 h -4.9 v 19.95 l -10.5,-19.95 h -5.6 z"
         id="path4367" /><path
         d="m 534.27484,789.65094 v 4.2 h 7.7 v 23.8 h 4.9 v -23.8 h 7.7 v -4.2 z"
         id="path4369" /><path
         d="m 567.01483,807.85094 3.5,-11.9 3.5,11.9 z m 0.7,-18.2 -9.1,28 h 5.25 l 1.75,-5.6 h 9.8 l 1.75,5.6 h 5.25 l -9.1,-28 z"
         id="path4371" /><path
         d="m 587.85478,789.65094 v 28 h 10.9 c 5.2,0 9.05,-3.85 9.05,-8.4 0,-3.15 -2.1,-5.25 -4.9,-6.3 2.45,-1.05 4,-3.5 4,-5.6 0,-3.7 -2.95,-7.7 -8.2,-7.7 z m 4.9,4.2 h 5.6 c 1.75,0 3.5,1.15 3.5,3.6 0,2.1 -1.4,3.6 -3.5,3.6 h -5.6 z m 0,11.2 h 5.95 c 2.8,0 4.2,2.2 4.2,4.2 0,2 -1.4,4.2 -4.2,4.2 h -5.95 z"
         id="path4373" /><path
         d="m 613.24479,817.65094 h 4.9 v -28 h -4.9 z"
         id="path4375" /><path
         d="m 624.6348,817.65094 h 4.9 v -28 h -4.9 z"
         id="path4377" /><path
         d="m 643.72482,817.65094 h 4.9 v -11.2 l 8.75,-16.8 h -5.6 l -5.6,11.55 -5.6,-11.55 h -5.6 l 8.75,16.8 z"
         id="path4379" /></g><g
       aria-label="HUDUD"
       id="text4327"
       style="font-size:50px;line-height:1.5;font-family:'Russian Road Sign';-inkscape-font-specification:'Russian Road Sign';letter-spacing:-2.61px;opacity:1;fill:#ffffff;fill-rule:evenodd;stroke-width:0.5;stroke-linecap:round;paint-order:stroke fill markers"><path
         d="m 285.64506,869.18292 h 4.9 v -12.6 h 10.5 v 12.6 h 4.9 v -28 h -4.9 v 11.2 h -10.5 v -11.2 h -4.9 z"
         id="path4382" /><path
         d="m 312.43503,841.18292 v 18.9 c 0,0.35 0.35,9.45 10.15,9.45 9.8,0 10.15,-9.1 10.15,-9.45 v -18.9 h -4.9 v 19.25 c 0,3.85 -3.15,5.25 -5.25,5.25 -2.1,0 -5.25,-1.4 -5.25,-5.25 v -19.25 z"
         id="path4384" /><path
         d="m 348.675,841.18292 h -9.45 v 28 h 9.45 c 7.7,0 12.1,-5.9 12.1,-14 0,-8.1 -4.4,-14 -12.1,-14 z m -0.35,4.2 c 3.85,0 7.35,3.15 7.35,9.8 0,6.65 -3.5,9.8 -7.35,9.8 h -4.2 v -19.6 z"
         id="path4386" /><path
         d="m 366.01497,841.18292 v 18.9 c 0,0.35 0.35,9.45 10.15,9.45 9.8,0 10.15,-9.1 10.15,-9.45 v -18.9 h -4.9 v 19.25 c 0,3.85 -3.15,5.25 -5.25,5.25 -2.1,0 -5.25,-1.4 -5.25,-5.25 v -19.25 z"
         id="path4388" /><path
         d="m 402.25493,841.18292 h -9.45 v 28 h 9.45 c 7.7,0 12.1,-5.9 12.1,-14 0,-8.1 -4.4,-14 -12.1,-14 z m -0.35,4.2 c 3.85,0 7.35,3.15 7.35,9.8 0,6.65 -3.5,9.8 -7.35,9.8 h -4.2 v -19.6 z"
         id="path4390" /></g><g
       aria-label="PROTECTED NATURAL AREA"
       id="text4331"
       style="font-size:50px;line-height:1.5;font-family:'Russian Road Sign';-inkscape-font-specification:'Russian Road Sign';letter-spacing:-2.61px;opacity:1;fill:#ffffff;fill-rule:evenodd;stroke-width:0.5;stroke-linecap:round;paint-order:stroke fill markers"><path
         d="m 68.905286,891.18292 v 28 h 4.9 v -9.8 h 4.55 c 6.65,0 9.1,-5.25 9.1,-9.1 0,-3.85 -2.45,-9.1 -9.1,-9.1 z m 4.9,4.2 h 3.15 c 2.8,0 5.6,1.4 5.6,4.9 0,3.5 -2.8,4.9 -5.6,4.9 h -3.15 z"
         id="path4393" /><path
         d="m 94.645258,891.18292 v 28 h 4.9 v -11.2 h 2.800002 c 3.15,0 3.85,1.95 5.1,4.3 1.3,2.5 2.2,5.45 3.3,6.9 h 5.95 c -3.15,-1.4 -4.55,-11.9 -9.1,-12.95 2.8,-1.05 5.25,-3.5 5.25,-7.35 0,-2.8 -1.75,-7.7 -8.75,-7.7 z m 4.9,4.2 h 3.150002 c 2.8,0 5.25,1.2 5.25,4.2 0,3 -2.45,4.2 -5.25,4.2 h -3.150002 z"
         id="path4395" /><path
         d="m 132.63522,890.48292 c -7.7,0 -11.4,6.6 -11.4,14.7 0,8.1 3.7,14.7 11.4,14.7 7.7,0 11.4,-6.6 11.4,-14.7 0,-8.1 -3.7,-14.7 -11.4,-14.7 z m 0,4.55 c 3.85,0 6.65,3.85 6.65,10.15 0,6.3 -2.8,10.15 -6.65,10.15 -3.85,0 -6.65,-3.85 -6.65,-10.15 0,-6.3 2.8,-10.15 6.65,-10.15 z"
         id="path4397" /><path
         d="m 147.87519,891.18292 v 4.2 h 7.7 v 23.8 h 4.9 v -23.8 h 7.7 v -4.2 z"
         id="path4399" /><path
         d="m 173.26516,919.18292 h 17.85 v -4.2 h -12.95 v -8.4 h 10.15 v -4.2 h -10.15 v -6.65 h 12.6 v -4.55 h -17.5 z"
         id="path4401" /><path
         d="m 207.75515,890.48292 c -7.7,0 -11.4,6.6 -11.4,14.7 0,8.15 3.7,14.7 11.4,14.7 5.3,0 8.4,-3.15 10.15,-7.7 l -4.7,-1.75 c -1.05,3.5 -2.9,4.9 -5.45,4.9 -3.85,0 -6.65,-3.85 -6.65,-10.15 0,-6.3 2.8,-10.15 6.65,-10.15 2.55,0 4.4,1.4 5.45,4.9 l 4.7,-1.75 c -1.75,-4.55 -4.85,-7.7 -10.15,-7.7 z"
         id="path4403" /><path
         d="m 221.59511,891.18292 v 4.2 h 7.7 v 23.8 h 4.9 v -23.8 h 7.7 v -4.2 z"
         id="path4405" /><path
         d="m 246.9851,919.18292 h 17.85 v -4.2 h -12.95 v -8.4 h 10.15 v -4.2 h -10.15 v -6.65 h 12.6 v -4.55 h -17.5 z"
         id="path4407" /><path
         d="m 280.77507,891.18292 h -9.45 v 28 h 9.45 c 7.7,0 12.1,-5.9 12.1,-14 0,-8.1 -4.4,-14 -12.1,-14 z m -0.35,4.2 c 3.85,0 7.35,3.15 7.35,9.8 0,6.65 -3.5,9.8 -7.35,9.8 h -4.2 v -19.6 z"
         id="path4409" /><path
         d="m 320.15505,919.18292 h 4.9 v -20.3 l 10.5,20.3 h 5.6 v -28 h -4.9 v 19.95 l -10.5,-19.95 h -5.6 z"
         id="path4411" /><path
         d="m 354.64503,909.38292 3.5,-11.9 3.5,11.9 z m 0.7,-18.2 -9.1,28 h 5.25 l 1.75,-5.6 h 9.8 l 1.75,5.6 h 5.25 l -9.1,-28 z"
         id="path4413" /><path
         d="m 374.08497,891.18292 v 4.2 h 7.7 v 23.8 h 4.9 v -23.8 h 7.7 v -4.2 z"
         id="path4415" /><path
         d="m 399.47496,891.18292 v 18.9 c 0,0.35 0.35,9.45 10.15,9.45 9.8,0 10.15,-9.1 10.15,-9.45 v -18.9 h -4.9 v 19.25 c 0,3.85 -3.15,5.25 -5.25,5.25 -2.1,0 -5.25,-1.4 -5.25,-5.25 v -19.25 z"
         id="path4417" /><path
         d="m 426.6149,891.18292 v 28 h 4.9 v -11.2 h 2.8 c 3.15,0 3.85,1.95 5.1,4.3 1.3,2.5 2.2,5.45 3.3,6.9 h 5.95 c -3.15,-1.4 -4.55,-11.9 -9.1,-12.95 2.8,-1.05 5.25,-3.5 5.25,-7.35 0,-2.8 -1.75,-7.7 -8.75,-7.7 z m 4.9,4.2 h 3.15 c 2.8,0 5.25,1.2 5.25,4.2 0,3 -2.45,4.2 -5.25,4.2 h -3.15 z"
         id="path4419" /><path
         d="m 461.80488,909.38292 3.5,-11.9 3.5,11.9 z m 0.7,-18.2 -9.1,28 h 5.25 l 1.75,-5.6 h 9.8 l 1.75,5.6 h 5.25 l -9.1,-28 z"
         id="path4421" /><path
         d="m 482.64485,919.18292 h 17.5 v -4.2 h -12.6 v -23.8 h -4.9 z"
         id="path4423" /><path
         d="m 534.97483,909.38292 3.5,-11.9 3.5,11.9 z m 0.7,-18.2 -9.1,28 h 5.25 l 1.75,-5.6 h 9.8 l 1.75,5.6 h 5.25 l -9.1,-28 z"
         id="path4425" /><path
         d="m 556.1648,891.18292 v 28 h 4.9 v -11.2 h 2.8 c 3.15,0 3.85,1.95 5.1,4.3 1.3,2.5 2.2,5.45 3.3,6.9 h 5.95 c -3.15,-1.4 -4.55,-11.9 -9.1,-12.95 2.8,-1.05 5.25,-3.5 5.25,-7.35 0,-2.8 -1.75,-7.7 -8.75,-7.7 z m 4.9,4.2 h 3.15 c 2.8,0 5.25,1.2 5.25,4.2 0,3 -2.45,4.2 -5.25,4.2 h -3.15 z"
         id="path4427" /><path
         d="m 584.00477,919.18292 h 17.85 v -4.2 h -12.95 v -8.4 h 10.15 v -4.2 h -10.15 v -6.65 h 12.6 v -4.55 h -17.5 z"
         id="path4429" /><path
         d="m 615.69474,909.38292 3.5,-11.9 3.5,11.9 z m 0.7,-18.2 -9.1,28 h 5.25 l 1.75,-5.6 h 9.8 l 1.75,5.6 h 5.25 l -9.1,-28 z"
         id="path4431" /></g></g></svg>
