<?xml version="1.0" encoding="utf-8"?>
<!-- Generator: Adobe Illustrator 22.0.1, SVG Export Plug-In . SVG Version: 6.00 Build 0)  -->
<svg version="1.1"
	 id="svg3919" inkscape:version="0.48.5 r10040" sodipodi:docname="M36-KZ.svg" xmlns:cc="http://creativecommons.org/ns#" xmlns:dc="http://purl.org/dc/elements/1.1/" xmlns:inkscape="http://www.inkscape.org/namespaces/inkscape" xmlns:rdf="http://www.w3.org/1999/02/22-rdf-syntax-ns#" xmlns:sodipodi="http://sodipodi.sourceforge.net/DTD/sodipodi-0.dtd" xmlns:svg="http://www.w3.org/2000/svg"
	 xmlns="http://www.w3.org/2000/svg" xmlns:xlink="http://www.w3.org/1999/xlink" x="0px" y="0px" viewBox="0 0 156.3 75.8"
	 style="enable-background:new 0 0 156.3 75.8;" xml:space="preserve">
<style type="text/css">
	.st0{fill:#FFFFFF;stroke:#000000;stroke-linecap:round;stroke-linejoin:round;}
	.st1{fill:#0000CC;}
	.st2{fill:#FFFFFF;}
</style>
<sodipodi:namedview  bordercolor="#666666" borderopacity="1" gridtolerance="10" guidetolerance="10" id="namedview3007" inkscape:current-layer="text4457" inkscape:cx="78.148071" inkscape:cy="37.884613" inkscape:pageopacity="0" inkscape:pageshadow="2" inkscape:window-height="705" inkscape:window-maximized="1" inkscape:window-width="1366" inkscape:window-x="-8" inkscape:window-y="-8" inkscape:zoom="6.0446704" objecttolerance="10" pagecolor="#ffffff" showgrid="false">
	</sodipodi:namedview>
<path id="rect3943" class="st0" d="M6,0.5h144.3c3,0,5.5,2.4,5.5,5.3V70c0,2.9-2.5,5.3-5.5,5.3H6c-3,0-5.5-2.4-5.5-5.3V5.8
	C0.5,2.9,3,0.5,6,0.5z"/>
<path id="rect4455" class="st1" d="M6.4,2.6h143.8c2,0,3.6,1.5,3.6,3.4v63.9c0,1.9-1.6,3.4-3.6,3.4H6.4c-2,0-3.6-1.5-3.6-3.4V6
	C2.8,4.1,4.4,2.6,6.4,2.6z"/>
<g>
	<path id="path2864" class="st2" d="M26.4,58.6h7.1V29.3l12.1,21.2l12.1-21.2l0.5,29.2h6.6V18.2h-8.1L45.5,36.9L34.4,18.2h-8.1
		L26.4,58.6L26.4,58.6z"/>
	<path id="path2868-7" inkscape:connector-curvature="0" class="st2" d="M77,20.8l2.7,6c1.4-1.2,2.7-2.1,4-2.6s2.9-0.8,4.9-0.8
		c1.3,0,2.5,0.5,3.5,1.3c1,0.9,1.5,1.9,1.6,3.2c-0.1,1.6-0.9,3.1-2.6,4.5c-1.7,1.4-3.8,2.5-6.4,3v5.5c0.5-0.2,1.1-0.4,1.7-0.4
		c0.6-0.1,1.2-0.1,1.8-0.1c3.2,0.1,5.2,0.9,6,2.3c0.9,1.4,1.2,2.6,1.1,3.6c-0.1,2.3-1,4-2.6,5.1C91,52.5,89,53,86.7,53
		c-1.7,0-3.5-0.2-5.4-0.5s-3.5-0.9-4.8-1.7l0.9,7.1c0.2,0.1,1.4,0.4,3.6,0.9s4.5,0.8,6.7,0.9c4.8-0.2,8.5-1.6,11-4.3
		s3.8-5.6,3.8-8.8c-0.1-2.2-0.7-4-2-5.4c-1.2-1.4-2.6-2.5-4.2-3.3c-1.5-0.8-2.7-1.2-3.7-1.4c2.1-0.3,3.9-1.3,5.5-3.1
		c1.6-1.8,2.4-4.1,2.5-6.9c-0.1-2.8-1.3-5-3.5-6.7c-2.2-1.6-4.6-2.5-7.3-2.5c-2.1,0.1-4.5,0.5-7,1.2C80.3,19.2,78.4,19.9,77,20.8
		L77,20.8z"/>
	<path id="path3134" inkscape:connector-curvature="0" class="st2" d="M121.1,59.3c5.7-0.2,9.9-2.5,12.4-6.9s3.8-9.7,3.7-16
		s-1.4-11.1-4.1-14.3c-2.7-3.2-6.2-4.8-10.5-4.8c-3.4,0.1-6.2,1.6-8.5,4.5s-3.5,6.4-3.6,10.5c0.2,4.7,1.5,7.8,3.9,9.4
		s4.4,2.3,6.2,2.2c1.8,0,3.5-0.5,5.2-1.3s3.1-1.7,4.4-2.8c0,0.2-0.1,1.3-0.5,3.5c-0.4,2.1-1.2,4.3-2.6,6.4c-1.4,2.1-3.5,3.3-6.5,3.5
		c-2.4-0.1-4.4-0.5-6.1-1.2s-2.6-1.1-2.7-1.2l0.8,6.2c0.1,0.1,1,0.5,2.8,1.1C117,58.9,119,59.3,121.1,59.3L121.1,59.3z M122.1,38
		c-1.1,0-2.2-0.5-3.3-1.5c-1.1-1-1.7-2.5-1.8-4.5c0-1.9,0.5-3.7,1.6-5.3c1.1-1.7,2.7-2.6,4.9-2.7c1.6,0.1,2.8,0.7,3.7,1.9
		c0.9,1.2,1.5,2.5,1.9,4c0.4,1.4,0.6,2.5,0.7,3.3c0,0.2-0.7,1-2,2.5C126.6,36.9,124.6,37.8,122.1,38z"/>
</g>
</svg>
