<?xml version="1.0" encoding="UTF-8" standalone="no"?>
<!-- Created with Inkscape (http://www.inkscape.org/) -->

<svg
   width="700"
   height="1050"
   id="svg2"
   version="1.1"
   inkscape:version="1.2.2 (732a01da63, 2022-12-09)"
   sodipodi:docname="UZ_road_sign_6.3.3.svg"
   xml:space="preserve"
   xmlns:inkscape="http://www.inkscape.org/namespaces/inkscape"
   xmlns:sodipodi="http://sodipodi.sourceforge.net/DTD/sodipodi-0.dtd"
   xmlns="http://www.w3.org/2000/svg"
   xmlns:svg="http://www.w3.org/2000/svg"
   xmlns:rdf="http://www.w3.org/1999/02/22-rdf-syntax-ns#"
   xmlns:cc="http://creativecommons.org/ns#"
   xmlns:dc="http://purl.org/dc/elements/1.1/"><title
     id="title3002">6.25 Turistik axborot markazi</title><defs
     id="defs4" /><sodipodi:namedview
     id="base"
     pagecolor="#ffffff"
     bordercolor="#666666"
     borderopacity="1.0"
     inkscape:pageopacity="0.0"
     inkscape:pageshadow="2"
     inkscape:zoom="0.5"
     inkscape:cx="117"
     inkscape:cy="547"
     inkscape:document-units="px"
     inkscape:current-layer="text5762"
     showgrid="false"
     inkscape:window-width="1920"
     inkscape:window-height="991"
     inkscape:window-x="-9"
     inkscape:window-y="-9"
     inkscape:window-maximized="1"
     inkscape:showpageshadow="2"
     inkscape:pagecheckerboard="0"
     inkscape:deskcolor="#d1d1d1"
     showguides="false" /><metadata
     id="metadata7"><rdf:RDF><cc:Work
         rdf:about=""><dc:format>image/svg+xml</dc:format><dc:type
           rdf:resource="http://purl.org/dc/dcmitype/StillImage" /><dc:title>6.25 Turistik axborot markazi</dc:title><cc:license
           rdf:resource="http://creativecommons.org/licenses/by-sa/3.0/" /><dc:description>ГОСТ Р 52290-2004
Размеры и пропорции по типоразмеру II</dc:description></cc:Work><cc:License
         rdf:about="http://creativecommons.org/licenses/by-sa/3.0/"><cc:permits
           rdf:resource="http://creativecommons.org/ns#Reproduction" /><cc:permits
           rdf:resource="http://creativecommons.org/ns#Distribution" /><cc:requires
           rdf:resource="http://creativecommons.org/ns#Notice" /><cc:requires
           rdf:resource="http://creativecommons.org/ns#Attribution" /><cc:permits
           rdf:resource="http://creativecommons.org/ns#DerivativeWorks" /><cc:requires
           rdf:resource="http://creativecommons.org/ns#ShareAlike" /></cc:License></rdf:RDF></metadata><g
     inkscape:label="Layer 1"
     inkscape:groupmode="layer"
     id="layer1"
     transform="translate(0,-2.362183)"><rect
       style="color:#000000;fill:#ffffff;fill-opacity:1;fill-rule:nonzero;stroke:none;stroke-width:3.54299997999999980;marker:none;visibility:visible;display:inline;overflow:visible;enable-background:accumulate;opacity:1"
       id="rect10481"
       width="700"
       height="1050"
       x="0"
       y="2.3621831"
       rx="45"
       ry="45" /><path
       inkscape:connector-curvature="0"
       style="color:#000000;fill:#0d69e1;fill-opacity:1;fill-rule:nonzero;stroke:none;stroke-width:3.54299997999999980;marker:none;visibility:visible;display:inline;overflow:visible;enable-background:accumulate;opacity:1"
       d="m 45.000009,22.362155 c -13.85,0 -25,11.15 -25,25 l 0,960.000045 c 0,13.85 11.15,25 25,25 l 610.000001,0 c 13.85,0 25,-11.15 25,-25 l 0,-960.000045 c 0,-13.85 -11.15,-25 -25,-25 l -610.000001,0 z m 65.625001,155.000005 478.75,0 c 24.93,0 45,20.07 45,45 l 0,478.75 c 0,24.93 -20.07,45 -45,45 l -478.75,0 c -24.930001,0 -45.000001,-20.07 -45.000001,-45 l 0,-478.75 c 0,-24.93 20.07,-45 45.000001,-45 z"
       id="rect10483" /><rect
       ry="44"
       rx="44"
       y="3.3621678"
       x="1.0000153"
       height="1048"
       width="698"
       id="rect10490"
       style="color:#000000;fill:none;stroke:#000000;stroke-width:1.99999988000000010;stroke-miterlimit:4;stroke-opacity:1;stroke-dasharray:none;marker:none;visibility:visible;display:inline;overflow:visible;enable-background:accumulate;opacity:1" /><g
       aria-label="300m"
       id="text5762"
       style="font-size:190.338px;line-height:1.5;font-family:'Russian Road Sign';-inkscape-font-specification:'Russian Road Sign';fill:#ffffff;fill-rule:evenodd;stroke-width:44.8854;stroke-linecap:round;stroke-linejoin:round;paint-order:stroke fill markers"><g
         id="g3995"
         transform="translate(1.8864363)"><g
           aria-label="500"
           id="text3933"
           style="font-size:195.312px;letter-spacing:-1.15px;stroke-width:28.1249"><path
             d="m 210.62057,851.48113 5.46874,-17.77339 h -62.89047 v 53.32018 l 12.30466,6.83592 c 2.73437,-1.36719 8.2031,-8.20311 16.40621,-8.20311 12.30465,0 19.14057,10.93747 19.14057,20.50776 0,13.67184 -13.67184,20.50776 -24.60931,20.50776 -8.98435,0 -19.33589,-0.97656 -25.97649,-5.46874 l 2.73436,17.7734 c 0,0 13.67184,5.46873 25.9765,5.46873 25.9765,0 42.3827,-17.77339 42.3827,-39.64833 0,-21.87495 -17.77339,-34.1796 -32.81241,-34.1796 -6.24999,0 -13.67184,1.36718 -17.77339,6.83592 v -25.9765 z"
             id="path3997" /><path
             d="m 282.32205,832.34056 c -21.87494,0 -36.91396,23.24212 -36.91396,56.05454 0,32.81241 15.03902,56.05454 36.91396,56.05454 21.87495,0 36.91397,-23.24213 36.91397,-56.05454 0,-31.05461 -15.03902,-56.05454 -36.91397,-56.05454 z m 0,16.99214 c 10.54685,0 17.7734,11.71872 17.7734,39.0624 0,27.34368 -7.22655,39.0624 -17.7734,39.0624 -10.54684,0 -17.77339,-11.71872 -17.77339,-39.0624 0,-27.34368 7.22655,-39.0624 17.77339,-39.0624 z"
             id="path3999" /><path
             d="m 379.60925,832.34056 c -21.87495,0 -36.91397,23.24212 -36.91397,56.05454 0,32.81241 15.03902,56.05454 36.91397,56.05454 21.87494,0 36.91397,-23.24213 36.91397,-56.05454 0,-31.05461 -15.03903,-56.05454 -36.91397,-56.05454 z m 0,16.99214 c 10.54685,0 17.77339,11.71872 17.77339,39.0624 0,27.34368 -7.22654,39.0624 -17.77339,39.0624 -10.54685,0 -17.77339,-11.71872 -17.77339,-39.0624 0,-27.34368 7.22654,-39.0624 17.77339,-39.0624 z"
             id="path4001" /></g><path
           d="m 481.8091,865.7449 c -13.32366,0 -20.93718,10.08791 -20.93718,10.08791 -1.33236,-1.90338 -2.09371,-5.32946 -2.66473,-8.75555 h -13.70433 v 74.6125 h 15.98839 v -47.96518 c 3.9971,-7.99419 9.5169,-14.65602 17.32076,-14.65602 7.99419,0 9.32656,6.66183 9.32656,10.65893 v 51.96227 h 15.98839 v -47.96518 c 3.9971,-7.99419 9.5169,-14.65602 17.32076,-14.65602 7.99419,0 9.32656,6.66183 9.32656,10.65893 v 51.96227 h 15.98839 v -53.29464 c 0,-13.32366 -6.66183,-22.65022 -21.31785,-22.65022 -9.89758,0 -19.98549,5.32946 -22.65023,13.32366 -2.66473,-7.9942 -9.70723,-13.32366 -19.98549,-13.32366 z"
           id="path6237"
           style="fill:#ffffff" /></g><g
         id="g2761"
         transform="translate(-0.25975418)"><path
           id="rect915"
           style="opacity:1;fill:#000000;fill-rule:evenodd;stroke-width:48.3353;stroke-linecap:round;stroke-linejoin:round;paint-order:stroke fill markers"
           d="m 346.5961,281.501 a 33.72094,33.72094 0 0 0 -33.72094,33.72094 33.72094,33.72094 0 0 0 33.72094,33.72094 33.72094,33.72094 0 0 0 33.72094,-33.72094 A 33.72094,33.72094 0 0 0 346.5961,281.501 Z m 33.27358,94.5787 c 0,0 -30.40163,8.43758 -45.83274,11.66168 -13.32997,2.7853 -40.31307,6.62179 -40.31307,6.62179 v 13.79885 l 6.12324,1.25597 c 5.67023,1.15083 12.12423,3.32594 15.27298,7.17154 4.27144,5.21666 4.42806,14.25035 4.42806,21.66047 v 115.22316 c 0,6.11675 0.17165,17.91325 -5.64622,23.38256 -0.38154,0.35863 -0.80337,0.69629 -1.24245,1.02139 -0.13522,0.0994 -0.27721,0.19415 -0.41769,0.29102 -0.2361,0.16338 -0.48627,0.3171 -0.73575,0.47165 -0.64731,0.39989 -1.32676,0.77756 -2.05092,1.12115 -3.13441,1.48835 -6.90592,2.4682 -10.63754,3.02926 -2.85001,0.42901 -5.67022,0.61999 -8.14725,0.61999 h -0.33159 v 15.56951 h 9.50837 94.70262 14.52922 v -15.56951 h -0.33145 c -5.67754,0 -13.15003,-1.00318 -18.66612,-3.58453 -1.79537,-0.82241 -3.31007,-1.78957 -4.56549,-2.96993 -5.81787,-5.46931 -5.64621,-17.26581 -5.64621,-23.38256 V 470.6261 438.25 379.05776 376.50553 Z" /><path
           id="path1206"
           style="opacity:1;fill:#000000;fill-rule:evenodd;stroke-width:52.7845;stroke-linecap:round;stroke-linejoin:round;paint-order:stroke fill markers"
           d="M 350,241.96136 A 183.61576,183.61576 0 0 0 166.38367,425.57507 183.61576,183.61576 0 0 0 272.7884,592.08827 V 581.83076 A 174.59012,174.59012 0 0 1 175.4095,425.57507 174.59012,174.59012 0 0 1 350,250.98719 174.59012,174.59012 0 0 1 524.5905,425.57507 174.59012,174.59012 0 0 1 426.12812,582.67442 v 9.94207 A 183.61576,183.61576 0 0 0 533.61633,425.57507 183.61576,183.61576 0 0 0 350,241.96136 Z m 44.36109,56.92026 a 50.127924,50.127924 0 0 1 1.94592,9.37894 126.66321,126.66321 0 0 1 80.35664,117.31451 126.66321,126.66321 0 0 1 -79.85809,117.64057 v 8.92344 A 134.95689,134.95689 0 0 0 484.95648,425.57507 134.95689,134.95689 0 0 0 394.36109,298.88162 Z m -96.50032,2.85953 a 134.95689,134.95689 0 0 0 -82.81739,123.83392 134.95689,134.95689 0 0 0 87.06757,126.01413 v -9.11745 a 126.66321,126.66321 0 0 1 -78.77473,-116.89668 126.66321,126.66321 0 0 1 73.16081,-114.0239 50.127924,50.127924 0 0 1 1.36374,-9.81002 z m 87.53645,45.02137 a 46.91609,46.91609 0 0 1 -6.05852,7.1743 77.446046,77.446046 0 0 1 48.10735,71.63825 77.446046,77.446046 0 0 1 -30.64049,61.48298 v 11.01217 a 86.415298,86.415298 0 0 0 39.60974,-72.49515 86.415298,86.415298 0 0 0 -51.01808,-78.81255 z m -75.51365,2.74363 a 86.415298,86.415298 0 0 0 -46.29887,76.06892 86.415298,86.415298 0 0 0 38.52625,71.9156 v -11.11442 a 77.446046,77.446046 0 0 1 -29.557,-60.80118 77.446046,77.446046 0 0 1 43.46362,-69.53876 46.91609,46.91609 0 0 1 -6.134,-6.53016 z" /></g><g
         aria-label="Tourist information"
         id="text2705"
         style="font-size:64.6534px;letter-spacing:-0.44px;opacity:1;fill:#000000;stroke-width:0.646534"><path
           d="m 90.46385,661.66013 v 5.43088 h 9.95662 v 30.77502 h 6.33604 v -30.77502 h 9.95662 v -5.43088 z"
           id="path2763" /><path
           d="m 136.63892,671.61675 c -6.7886,0 -11.76691,5.43088 -11.76691,13.57721 0,8.14633 4.97831,13.57722 11.76691,13.57722 6.78861,0 11.76692,-5.43089 11.76692,-13.57722 0,-8.14633 -4.97831,-13.57721 -11.76692,-13.57721 z m 0,4.52574 c 3.62059,0 6.33604,3.62059 6.33604,9.05147 0,5.43089 -2.71545,9.05148 -6.33604,9.05148 -3.62059,0 -6.33603,-3.62059 -6.33603,-9.05148 0,-5.43088 2.71544,-9.05147 6.33603,-9.05147 z"
           id="path2765" /><path
           d="m 166.06878,698.3186 c 4.52573,0 7.56444,-3.42663 7.56444,-3.42663 0.38792,0.71119 0.64654,1.87495 0.90515,2.97406 h 4.65504 V 672.5219 h -5.43088 v 16.29265 c -1.35772,2.71544 -3.7499,4.97831 -6.33603,4.97831 -2.71545,0 -3.62059,-2.26287 -3.62059,-3.62059 V 672.5219 h -5.43089 v 18.10295 c 0,4.52574 2.71544,7.69375 7.69376,7.69375 z"
           id="path2767" /><path
           d="m 200.47694,672.06932 c -4.52573,0 -7.11187,3.42663 -7.11187,3.42663 -0.45257,-0.64653 -0.71119,-1.81029 -0.90515,-2.97405 h -4.65504 v 25.34413 h 5.43088 v -16.29266 c 1.35772,-2.71544 3.23267,-4.07316 5.88346,-4.07316 1.35772,0 2.71545,0 3.62059,0.90515 l 1.8103,-5.43089 c -1.22842,-0.84049 -2.26287,-0.90515 -4.07317,-0.90515 z"
           id="path2769" /><path
           d="m 220.27347,664.18161 c 0,-2.13356 -1.8103,-3.94386 -3.94386,-3.94386 -2.19822,0 -3.94386,1.8103 -3.94386,3.94386 0,2.19821 1.74564,3.94386 3.94386,3.94386 2.13356,0 3.94386,-1.74565 3.94386,-3.94386 z m -6.6593,33.68442 h 5.43088 V 672.5219 h -5.43088 z"
           id="path2771" /><path
           d="m 228.04451,694.24544 c 0,0 4.07316,4.26712 11.31434,4.26712 6.01277,0 9.95662,-4.7197 9.95662,-8.34029 0,-4.00851 -2.13356,-5.88346 -8.08167,-7.43514 -3.16802,-0.84049 -6.20673,-1.16376 -6.20673,-3.42663 0,-1.29306 1.61634,-2.9094 4.78435,-2.9094 2.26287,0 5.10762,1.68099 6.01277,2.58614 l 3.16802,-3.62059 c 0,0 -3.62059,-3.62059 -9.63336,-3.62059 -6.20673,0 -9.95662,4.39643 -9.95662,8.01702 0,2.71544 1.09911,6.27138 8.21098,7.43514 5.17227,0.84049 5.8188,2.06891 5.8188,3.42663 0,1.81029 -2.26286,3.36197 -4.52573,3.36197 -3.10337,0 -6.33604,-2.45683 -7.30584,-3.36197 z"
           id="path2773" /><path
           d="m 265.62073,661.66013 -5.43088,2.26286 v 8.59891 h -3.62059 v 4.97831 h 3.62059 v 14.48236 c 0,4.52574 3.55593,6.33603 8.14633,6.33603 0.90514,0 4.07316,-0.45257 5.43088,-0.90515 l -1.09911,-4.97831 c -0.71118,0.45258 -2.39217,0.9698 -3.74989,0.9698 -0.0647,0 -0.12931,0 -0.12931,-0.0647 -1.35772,0 -3.16802,-0.90515 -3.16802,-2.71544 v -13.12464 h 7.24118 v -4.97831 h -7.24118 z"
           id="path2775" /><path
           d="m 321.37711,664.18161 c 0,-2.13356 -1.81029,-3.94386 -3.94386,-3.94386 -2.19821,0 -3.94385,1.8103 -3.94385,3.94386 0,2.19821 1.74564,3.94386 3.94385,3.94386 2.13357,0 3.94386,-1.74565 3.94386,-3.94386 z m -6.6593,33.68442 h 5.43089 V 672.5219 h -5.43089 z"
           id="path2777" /><path
           d="m 344.14773,672.06932 c -4.52574,0 -7.56445,3.42663 -7.56445,3.42663 -0.45257,-0.64653 -0.71118,-1.81029 -0.90514,-2.97405 h -4.65505 v 25.34413 h 5.43089 v -16.29266 c 1.35772,-2.71544 3.68524,-4.97831 6.33603,-4.97831 2.71544,0 3.62059,2.26287 3.62059,3.62059 v 17.65038 h 5.43089 v -18.10295 c 0,-4.52574 -2.71545,-7.69376 -7.69376,-7.69376 z"
           id="path2779" /><path
           d="m 363.16839,697.86603 h 5.43089 v -20.36582 h 6.33603 v -4.97831 h -6.33603 v -3.16802 c 0,-1.35772 0.90515,-2.71544 3.16801,-2.71544 2.26287,0 3.16802,0.45257 3.16802,0.45257 l 1.35772,-4.52574 c 0,0 -2.71544,-0.90514 -5.88346,-0.90514 -4.52574,0 -7.24118,2.71544 -7.24118,5.88345 v 4.97832 h -4.07316 v 4.97831 h 4.07316 z"
           id="path2781" /><path
           d="m 394.40859,671.61675 c -6.7886,0 -11.76692,5.43088 -11.76692,13.57721 0,8.14633 4.97832,13.57722 11.76692,13.57722 6.78861,0 11.76692,-5.43089 11.76692,-13.57722 0,-8.14633 -4.97831,-13.57721 -11.76692,-13.57721 z m 0,4.52574 c 3.62059,0 6.33604,3.62059 6.33604,9.05147 0,5.43089 -2.71545,9.05148 -6.33604,9.05148 -3.62059,0 -6.33603,-3.62059 -6.33603,-9.05148 0,-5.43088 2.71544,-9.05147 6.33603,-9.05147 z"
           id="path2783" /><path
           d="m 428.36418,672.06932 c -4.52574,0 -7.11187,3.42663 -7.11187,3.42663 -0.45258,-0.64653 -0.71119,-1.81029 -0.90515,-2.97405 h -4.65504 v 25.34413 h 5.43088 v -16.29266 c 1.35772,-2.71544 3.23267,-4.07316 5.88346,-4.07316 1.35772,0 2.71544,0 3.62059,0.90515 l 1.8103,-5.43089 c -1.22842,-0.84049 -2.26287,-0.90515 -4.07317,-0.90515 z"
           id="path2785" /><path
           d="m 454.17348,672.06932 c -4.52574,0 -7.11188,3.42663 -7.11188,3.42663 -0.45257,-0.64653 -0.71118,-1.81029 -0.90514,-2.97405 h -4.65505 v 25.34413 h 5.43089 v -16.29266 c 1.35772,-2.71544 3.23267,-4.97831 5.88346,-4.97831 2.71544,0 3.16801,2.26287 3.16801,3.62059 v 17.65038 h 5.43089 v -16.29266 c 1.35772,-2.71544 3.23267,-4.97831 5.88346,-4.97831 2.71544,0 3.16801,2.26287 3.16801,3.62059 v 17.65038 h 5.43089 v -18.10295 c 0,-4.52574 -2.26287,-7.69376 -7.24118,-7.69376 -3.36198,0 -6.78861,1.8103 -7.69376,4.52574 -0.90514,-2.71544 -3.29732,-4.52574 -6.7886,-4.52574 z"
           id="path2787" /><path
           d="m 494.46515,671.61675 c -4.52574,0 -8.14633,1.81029 -10.4092,3.16802 l 2.71544,4.39643 c 1.35772,-1.22842 4.07316,-3.03871 6.78861,-3.03871 3.16801,0 5.43088,2.26287 5.43088,4.07316 v 1.35772 c -3.62059,0.90515 -15.38751,0.51723 -15.38751,9.05148 v 0 c 0,5.43088 4.52574,8.14633 8.14633,8.14633 3.62059,0 6.33604,-2.26287 7.24118,-4.07317 0.45258,3.62059 2.26287,4.07317 5.43089,4.07317 l 2.26287,-4.52574 c -0.90515,0 -2.26287,0 -2.26287,-2.26287 v -11.31435 c 0,-4.52573 -4.07317,-9.05147 -9.95662,-9.05147 z m 4.52573,14.02979 v 4.52573 c 0,0.45258 -3.16801,4.07317 -5.88346,4.07317 -0.90514,0 -3.62059,-0.90515 -3.62059,-4.07317 0,-4.07316 7.24118,-3.62059 9.50405,-4.52573 z"
           id="path2789" /><path
           d="m 522.5373,661.66013 -5.43089,2.26286 v 8.59891 h -3.62059 v 4.97831 h 3.62059 v 14.48236 c 0,4.52574 3.55594,6.33603 8.14633,6.33603 0.90515,0 4.07316,-0.45257 5.43089,-0.90515 l -1.09911,-4.97831 c -0.71119,0.45258 -2.39218,0.9698 -3.7499,0.9698 -0.0647,0 -0.12931,0 -0.12931,-0.0647 -1.35772,0 -3.16801,-0.90515 -3.16801,-2.71544 v -13.12464 h 7.24118 v -4.97831 h -7.24118 z"
           id="path2791" /><path
           d="m 546.40699,664.18161 c 0,-2.13356 -1.8103,-3.94386 -3.94386,-3.94386 -2.19821,0 -3.94386,1.8103 -3.94386,3.94386 0,2.19821 1.74565,3.94386 3.94386,3.94386 2.13356,0 3.94386,-1.74565 3.94386,-3.94386 z m -6.6593,33.68442 h 5.43088 V 672.5219 h -5.43088 z"
           id="path2793" /><path
           d="m 566.46215,671.61675 c -6.78861,0 -11.76692,5.43088 -11.76692,13.57721 0,8.14633 4.97831,13.57722 11.76692,13.57722 6.78861,0 11.76692,-5.43089 11.76692,-13.57722 0,-8.14633 -4.97831,-13.57721 -11.76692,-13.57721 z m 0,4.52574 c 3.62059,0 6.33603,3.62059 6.33603,9.05147 0,5.43089 -2.71544,9.05148 -6.33603,9.05148 -3.62059,0 -6.33603,-3.62059 -6.33603,-9.05148 0,-5.43088 2.71544,-9.05147 6.33603,-9.05147 z"
           id="path2795" /><path
           d="m 601.32289,672.06932 c -4.52574,0 -7.56445,3.42663 -7.56445,3.42663 -0.45257,-0.64653 -0.71119,-1.81029 -0.90515,-2.97405 h -4.65504 v 25.34413 h 5.43088 v -16.29266 c 1.35772,-2.71544 3.68525,-4.97831 6.33604,-4.97831 2.71544,0 3.62059,2.26287 3.62059,3.62059 v 17.65038 h 5.43088 v -18.10295 c 0,-4.52574 -2.71544,-7.69376 -7.69375,-7.69376 z"
           id="path2797" /></g></g></g></svg>
