<svg xmlns="http://www.w3.org/2000/svg" width="1050" height="350"><rect width="1050" height="350" rx="45" style="fill:#fff"/><rect x="20" y="20" width="1010" height="310" rx="25" style="fill:#fc0"/><rect x="1" y="1" width="1048" height="348" rx="44" style="fill:none;stroke:#000;stroke-width:2px"/><path d="M45 10a34.923 34.923 0 0 0-35 35v260a34.923 34.923 0 0 0 35 35h960a34.923 34.923 0 0 0 35-35V45a34.923 34.923 0 0 0-35-35zm0 10h960a24.945 24.945 0 0 1 25 25v260a24.945 24.945 0 0 1-25 25H45a24.945 24.945 0 0 1-25-25V45a24.945 24.945 0 0 1 25-25z"/><path d="M828.333 140V87.5L980 175l-151.667 87.5V210H717.5v-70zM242.196 79.001l-14.099 5.25c-3.15-10.5-8.562-14.7-16.35-14.7-11.549 0-19.949 11.55-19.949 30.449 0 18.9 8.4 30.45 19.95 30.45 7.787 0 13.2-4.201 16.35-14.7l14.098 5.25c-5.25 13.649-14.49 23.099-30.448 23.099-23.1 0-34.2-19.744-34.2-44.099 0-24.354 11.1-44.098 34.2-44.098 15.958 0 25.199 9.45 30.448 23.099zM313.596 100v41.999h-12.599V101.05c0-3.15-2.1-8.4-8.4-8.4-6.021 0-11.55 5.25-14.699 11.55V142h-12.6V58.002h12.6v33.599s7.35-9.45 17.85-9.45c11.549 0 17.848 7.35 17.848 17.849zM346.147 116.8c0 12.599 10.5 15.749 15.75 15.749 5.249 0 8.399-2.7 12.598-7.95l10.5 5.85a28.065 28.065 0 0 1-24.148 13.65c-15.6 0-28.65-12.3-28.65-30.9 0-9.449 1.65-16.348 6-21.598a29.11 29.11 0 0 1 21.6-10.5c14.698 0 27.298 13.65 27.298 29.399 0 3.15-1.35 6.3-3.15 6.3zm0-10.5h26.249c.75 0 1.05-1.05 1.05-2.1 0-6.15-7.35-12.6-13.65-12.6-6.3 0-13.649 6.3-13.649 14.7zM428.047 83.201h16.799v11.55h-16.8v30.448c0 4.2 4.202 6.207 7.35 6.3.128.004.255.005.385.005a19.372 19.372 0 0 0 8.615-2.105l2.55 11.55a62.857 62.857 0 0 1-12.6 2.1c-10.607 0-18.899-4.2-18.899-14.7V94.75h-8.4V83.201h8.4V63.252l12.6-5.25zM483.696 58.002v68.247c0 4.2 2.1 5.25 5.25 5.25a22.896 22.896 0 0 0 6.3-1.05l2.1 11.55a26.095 26.095 0 0 1-8.4 1.05h-6.3c-7.8 0-11.55-3.9-11.55-10.5V58.002zM563.345 102.1v26.25c0 5.249 3.15 5.249 5.25 5.249l-5.25 10.5c-7.35 0-11.55-1.05-12.6-9.45-2.1 4.2-8.4 9.45-16.8 9.45-8.399 0-18.888-6.3-18.898-18.9v-.017c0-19.836 27.3-18.883 35.698-20.982v-3.15c0-4.2-5.25-9.45-12.6-9.45-6.3 0-12.599 4.2-15.748 7.05l-6.3-10.2c5.25-3.15 13.65-7.349 24.148-7.349 13.65 0 23.1 10.5 23.1 21zm-34.649 22.05a9.11 9.11 0 0 0 8.4 9.449c6.3 0 13.65-8.4 13.65-9.45v-10.5c-5.25 2.1-22.05 1.05-22.05 10.5zM601.146 135.699a20.656 20.656 0 0 0-2.101 6.3h-10.499V58.002h12.6v30.449c0-1.05 6.3-7.35 14.699-7.35 6.3 0 26.249 5.25 26.249 31.499 0 25.199-15.75 31.499-26.25 31.499a16.68 16.68 0 0 1-14.698-8.4zm28.348-23.1c0-12.599-6.3-20.998-13.65-20.998A17.89 17.89 0 0 0 601.147 100v22.05c3.149 6.3 8.699 10.499 14.699 10.499 7.35 0 13.65-7.35 13.65-19.95zM232.747 262.6c0 18.899-11.55 31.498-27.3 31.498-15.748 0-27.298-12.6-27.298-31.498 0-18.9 11.55-31.499 27.299-31.499 15.75 0 27.299 12.6 27.299 31.5zm-41.998 0c0 12.6 6.3 21 14.699 21 8.4 0 14.7-8.4 14.7-21s-6.3-21-14.7-21c-8.4 0-14.7 8.4-14.7 21zM256.298 239.8c-.9-.75-3.3-2.85-3.3-10.199 0-10.5 11.25-16.8 11.25-16.8l1.05 2.551s-6.6 4.05-6.6 9.299v1.05a7.374 7.374 0 0 1 3.15-.6 8.4 8.4 0 1 1 0 16.8 9.042 9.042 0 0 1-5.55-2.1zM310.447 233.2h16.8v11.55h-16.8v30.45c0 4.199 4.201 6.206 7.35 6.299q.191.005.385.005a19.372 19.372 0 0 0 8.614-2.105l2.55 11.55a62.868 62.868 0 0 1-12.599 2.1c-10.607 0-18.9-4.2-18.9-14.7V244.75h-8.399V233.2h8.4v-19.949l12.6-5.249zM357.698 223.001a9.15 9.15 0 1 1 9.149-9.149 9.153 9.153 0 0 1-9.15 9.15zm-6.3 10.2h12.6v58.798h-12.6zM394.147 275.2c2.25 2.1 9.75 7.799 16.95 7.799 5.249 0 10.499-3.6 10.499-7.8 0-3.15-1.5-6-13.5-7.95-16.5-2.7-19.05-10.949-19.05-17.248 0-8.4 8.701-18.6 23.1-18.6a33.483 33.483 0 0 1 22.35 8.4l-7.35 8.4c-2.1-2.1-8.7-6-13.95-6-7.35 0-11.1 3.75-11.1 6.75 0 5.249 7.05 5.999 14.4 7.949 13.8 3.6 18.75 7.95 18.75 17.249 0 8.4-9.15 19.35-23.1 19.35-16.8 0-26.249-9.9-26.249-9.9zM505.594 250v41.998h-12.6V251.05c0-3.15-2.1-8.4-8.4-8.4-6.02 0-11.549 5.25-14.698 11.55v37.799h-12.6v-83.997h12.6V241.6s7.35-9.45 17.85-9.45c11.548 0 17.848 7.35 17.848 17.85z"/></svg>