<?xml version="1.0" encoding="UTF-8" standalone="no"?>
<!-- Created with Inkscape (http://www.inkscape.org/) -->

<svg
   width="700"
   height="1050"
   id="svg2"
   version="1.1"
   inkscape:version="1.2.2 (732a01da63, 2022-12-09)"
   sodipodi:docname="RU_road_sign_7.15.svg"
   xml:space="preserve"
   xmlns:inkscape="http://www.inkscape.org/namespaces/inkscape"
   xmlns:sodipodi="http://sodipodi.sourceforge.net/DTD/sodipodi-0.dtd"
   xmlns="http://www.w3.org/2000/svg"
   xmlns:svg="http://www.w3.org/2000/svg"
   xmlns:rdf="http://www.w3.org/1999/02/22-rdf-syntax-ns#"
   xmlns:cc="http://creativecommons.org/ns#"
   xmlns:dc="http://purl.org/dc/elements/1.1/"><title
     id="title3002">6.18 Radio aloqasi</title><defs
     id="defs4" /><sodipodi:namedview
     id="base"
     pagecolor="#ffffff"
     bordercolor="#666666"
     borderopacity="1.0"
     inkscape:pageopacity="0.0"
     inkscape:pageshadow="2"
     inkscape:zoom="0.70710678"
     inkscape:cx="608.81894"
     inkscape:cy="675.28698"
     inkscape:document-units="px"
     inkscape:current-layer="layer1"
     showgrid="false"
     inkscape:window-width="1920"
     inkscape:window-height="991"
     inkscape:window-x="-9"
     inkscape:window-y="-9"
     inkscape:window-maximized="1"
     showguides="true"
     inkscape:guide-bbox="true"
     inkscape:showpageshadow="2"
     inkscape:pagecheckerboard="0"
     inkscape:deskcolor="#d1d1d1" /><metadata
     id="metadata7"><rdf:RDF><cc:Work
         rdf:about=""><dc:format>image/svg+xml</dc:format><dc:type
           rdf:resource="http://purl.org/dc/dcmitype/StillImage" /><dc:title>6.18 Radio aloqasi</dc:title><cc:license
           rdf:resource="http://creativecommons.org/licenses/by-sa/3.0/" /><dc:description>ГОСТ Р 52290-2004
Размеры и пропорции по типоразмеру II</dc:description></cc:Work><cc:License
         rdf:about="http://creativecommons.org/licenses/by-sa/3.0/"><cc:permits
           rdf:resource="http://creativecommons.org/ns#Reproduction" /><cc:permits
           rdf:resource="http://creativecommons.org/ns#Distribution" /><cc:requires
           rdf:resource="http://creativecommons.org/ns#Notice" /><cc:requires
           rdf:resource="http://creativecommons.org/ns#Attribution" /><cc:permits
           rdf:resource="http://creativecommons.org/ns#DerivativeWorks" /><cc:requires
           rdf:resource="http://creativecommons.org/ns#ShareAlike" /></cc:License></rdf:RDF></metadata><g
     inkscape:label="Layer 1"
     inkscape:groupmode="layer"
     id="layer1"
     transform="translate(0,-2.362183)"><rect
       style="color:#000000;fill:#ffffff;fill-opacity:1;fill-rule:nonzero;stroke:none;stroke-width:3.54299997999999980;marker:none;visibility:visible;display:inline;overflow:visible;enable-background:accumulate;opacity:1"
       id="rect10481"
       width="700"
       height="1050"
       x="0"
       y="2.3621831"
       rx="45"
       ry="45" /><path
       id="rect10483"
       style="color:#000000;display:inline;overflow:visible;visibility:visible;opacity:1;fill:#0d69e1;fill-opacity:1;fill-rule:nonzero;stroke:none;stroke-width:3.543;marker:none;enable-background:accumulate"
       d="M 45 20 C 31.150014 20 20 31.150014 20 45 L 20 1005 C 20 1018.85 31.150014 1030 45 1030 L 655 1030 C 668.84999 1030 680 1018.85 680 1005 L 680 45 C 680 31.150014 668.84999 20 655 20 L 45 20 z M 110.625 175 L 589.375 175 C 614.30498 175 634.375 195.07002 634.375 220 L 634.375 698.75 C 634.375 723.67998 614.30498 743.75 589.375 743.75 L 110.625 743.75 C 85.695024 743.75 65.625 723.67998 65.625 698.75 L 65.625 220 C 65.625 195.07002 85.695024 175 110.625 175 z M 251.15625 769.59375 C 256.04674 769.75294 260.51223 770.3864 264.53125 771.5 C 268.55015 772.61378 270.69533 773.24724 270.9375 773.40625 L 273.25 787.53125 C 273.08046 787.33072 271.08225 786.52929 267.28125 785.125 C 263.48013 783.72086 258.8989 782.91943 253.5 782.71875 C 246.64413 783.1062 241.66091 785.80803 238.53125 790.84375 C 235.40152 795.87962 233.43045 800.93302 232.625 805.96875 C 231.81949 811.0046 231.4769 813.70643 231.59375 814.09375 C 234.46786 811.64507 237.78573 809.40875 241.59375 807.375 C 245.40169 805.34137 249.38069 804.24957 253.5 804.125 C 255.99633 804.0543 259.11858 804.77845 262.90625 806.3125 C 266.6938 807.84666 270.11206 810.60635 273.125 814.59375 C 276.13781 818.58124 277.73401 824.24198 277.90625 831.53125 C 277.63986 841.07024 274.67224 849.00059 269.03125 855.34375 C 263.39013 861.68693 256.66371 864.97664 248.84375 865.21875 C 238.84474 865.14615 230.94255 861.24035 225.15625 853.46875 C 219.36991 845.69717 216.43354 834.50527 216.3125 819.90625 C 216.2399 806.62507 219.00109 795.03424 224.59375 785.15625 C 230.18637 775.27842 239.02671 770.09189 251.15625 769.59375 z M 331.46875 769.9375 C 339.28872 769.93759 346.01513 771.96396 351.65625 776.03125 C 357.29725 780.09872 360.26486 786.20907 360.53125 794.34375 C 360.33032 799.72394 358.92359 803.94414 356.3125 807 C 353.70128 810.05597 351.07985 812.18936 348.46875 813.4375 C 345.85754 814.68574 344.45081 815.29309 344.25 815.25 C 344.4795 815.2357 346.10951 816.03508 349.09375 817.65625 C 352.07787 819.27751 355.047 821.8211 358.03125 825.25 C 361.01536 828.67897 362.61412 833.09121 362.84375 838.5 C 362.98894 844.69792 360.66863 850.60191 355.875 856.21875 C 351.08124 861.83561 342.94452 864.83138 331.46875 865.21875 C 319.9929 864.83138 311.85618 861.8356 307.0625 856.21875 C 302.26879 850.60191 299.94848 844.69793 300.09375 838.5 C 300.32329 833.09121 301.92206 828.67898 304.90625 825.25 C 307.89041 821.8211 310.8908 819.27751 313.875 817.65625 C 316.85916 816.03509 318.45792 815.2357 318.6875 815.25 C 318.48661 815.2931 317.07988 814.68574 314.46875 813.4375 C 311.85757 812.18936 309.26739 810.05597 306.65625 807 C 304.04508 803.94414 302.63835 799.72394 302.4375 794.34375 C 302.7038 786.20907 305.64017 780.09872 311.28125 776.03125 C 316.92228 771.96396 323.64869 769.9376 331.46875 769.9375 z M 452.4375 769.9375 C 461.87958 770.27308 469.42842 774.8963 475.09375 783.84375 C 480.75895 792.79136 483.66716 804.02884 483.8125 817.5625 C 483.66716 831.74994 480.75895 843.20763 475.09375 851.875 C 469.42842 860.5424 461.87958 864.97664 452.4375 865.21875 C 442.99534 864.97664 435.41525 860.54239 429.75 851.875 C 424.08471 843.20763 421.20775 831.74994 421.0625 817.5625 C 421.20775 803.37515 424.08471 791.94871 429.75 783.28125 C 435.41525 774.61395 442.99534 770.1797 452.4375 769.9375 z M 331.46875 783.21875 C 327.88554 783.17385 324.88978 783.99988 322.46875 785.71875 C 320.04766 787.43778 318.78431 790.3214 318.6875 794.34375 C 319.2201 797.97541 321.36528 801.17755 325.09375 803.9375 C 328.82215 806.69757 330.93607 808.13604 331.46875 808.28125 C 332.00134 808.13604 334.14652 806.69757 337.875 803.9375 C 341.60338 801.17755 343.71731 797.97541 344.25 794.34375 C 344.1531 790.3214 342.88976 787.43778 340.46875 785.71875 C 338.04764 783.99988 335.05187 783.17387 331.46875 783.21875 z M 452.4375 784.375 C 447.88587 784.3059 444.22539 786.92375 441.5 792.25 C 438.77455 797.57639 437.38165 806.01065 437.3125 817.5625 C 437.3816 829.11444 438.77455 837.57995 441.5 842.90625 C 444.22539 848.23259 447.88587 850.85044 452.4375 850.78125 C 456.98905 850.85045 460.61828 848.23259 463.34375 842.90625 C 466.06912 837.57995 467.46202 829.11445 467.53125 817.5625 C 467.46205 806.01064 466.06912 797.57639 463.34375 792.25 C 460.61828 786.92376 456.98905 784.30591 452.4375 784.375 z M 251.15625 817.5625 C 246.79484 818.04676 242.59156 819.98556 238.5 823.375 C 234.40838 826.76453 232.20021 828.70333 231.90625 829.1875 C 231.89185 829.44578 232.38093 831.26783 233.375 834.625 C 234.36901 837.98223 235.95037 841.33032 238.125 844.6875 C 240.29957 848.04472 243.16014 849.86677 246.6875 850.125 C 251.86159 849.8587 255.82677 847.77293 258.59375 843.875 C 261.36062 839.97712 262.75352 835.86498 262.78125 831.53125 C 262.58751 826.88285 261.2366 823.38676 258.71875 821.0625 C 256.20079 818.73833 253.6741 817.56255 251.15625 817.5625 z M 331.46875 822.21875 C 331.2822 822.28335 329.98711 823.19438 327.5625 824.9375 C 325.13782 826.6807 322.70586 828.88426 320.28125 831.53125 C 317.85657 834.17831 316.56149 836.88013 316.375 839.65625 C 316.56865 843.69944 318.21351 846.66705 321.3125 848.53125 C 324.41143 850.39548 327.7887 851.30547 331.46875 851.28125 C 335.14872 851.30545 338.55724 850.39548 341.65625 848.53125 C 344.75515 846.66705 346.40001 843.69944 346.59375 839.65625 C 346.40718 836.51428 345.08084 833.62554 342.65625 831 C 340.23155 828.37453 337.83085 826.28006 335.40625 824.6875 C 332.98156 823.09502 331.65522 822.26183 331.46875 822.21875 z M 391.90625 844.625 C 394.77511 844.6974 397.15746 845.68875 399.0625 847.59375 C 400.96749 849.49878 401.95883 851.88113 402.03125 854.75 C 402.02005 855.56627 401.90086 856.37386 401.6875 857.125 C 401.47408 857.87615 401.21891 858.59781 400.9375 859.3125 C 400.14717 861.05447 398.26086 864.38044 395.28125 869.28125 C 392.3016 874.18205 390.22632 877.46355 389.0625 879.15625 L 381.4375 879.15625 L 390.5 864.8125 C 387.97445 864.42 385.90625 863.27682 384.28125 861.4375 C 382.65622 859.59818 381.80572 857.36791 381.75 854.75 C 381.8224 851.88113 382.81373 849.49877 384.71875 847.59375 C 386.62375 845.68876 389.03735 844.69741 391.90625 844.625 z M 229.44922 896.75977 L 246.98438 896.75977 L 271.09375 937.30859 L 295.20508 896.75977 L 312.73828 896.75977 L 312.73828 984.43359 L 298.49219 984.43359 L 297.39648 920.87109 L 271.09375 966.89844 L 244.79297 920.87109 L 244.79297 984.43359 L 229.44922 984.43359 L 229.44922 896.75977 z M 336.30078 896.75977 L 351.64453 896.75977 L 351.64453 931.83008 L 384.52148 931.83008 L 384.52148 896.75977 L 399.86328 896.75977 L 399.86328 984.43359 L 384.52148 984.43359 L 384.52148 944.98047 L 351.64453 944.98047 L 351.64453 984.43359 L 336.30078 984.43359 L 336.30078 896.75977 z M 425.61719 923.0625 L 469.45508 923.0625 L 469.45508 936.21289 L 442.05664 972.37891 L 470.55078 972.37891 L 470.55078 984.43359 L 425.61719 984.43359 L 425.61719 972.37891 L 454.11133 935.11719 L 425.61719 935.11719 L 425.61719 923.0625 z "
       transform="translate(0,2.362183)" /><rect
       ry="44"
       rx="44"
       y="3.3621678"
       x="1.0000153"
       height="1048"
       width="698"
       id="rect10490"
       style="color:#000000;fill:none;stroke:#000000;stroke-width:1.99999988000000010;stroke-miterlimit:4;stroke-opacity:1;stroke-dasharray:none;marker:none;visibility:visible;display:inline;overflow:visible;enable-background:accumulate;opacity:1" /><g
       aria-label="RADIO"
       id="text5842"
       style="font-size:204.082px;font-family:'Russian Road Sign';-inkscape-font-specification:'Russian Road Sign';letter-spacing:-5px;fill-rule:evenodd;stroke-width:76.5308;stroke-linecap:square;paint-order:stroke fill markers"><path
         d="m 102.44867,388.03183 v 114.28592 h 20.00003 v -45.71437 h 11.4286 c 12.85716,0 15.71431,7.9592 20.81636,17.55105 5.30613,10.2041 8.97961,22.24494 13.46941,28.16332 h 24.28576 c -12.85717,-5.7143 -18.57146,-48.57152 -37.14292,-52.85724 11.42859,-4.28572 21.42861,-14.28574 21.42861,-30.00005 0,-11.4286 -7.14287,-31.42863 -35.71435,-31.42863 z m 20.00003,17.14289 h 12.85717 c 11.42859,0 21.42861,4.89796 21.42861,17.14288 0,12.24492 -10.00002,17.14289 -21.42861,17.14289 H 122.4487 Z"
         id="path6005" /><path
         d="m 251.7345,462.31768 14.28574,-48.57152 14.28574,48.57152 z m 2.85715,-74.28585 -37.14292,114.28592 h 21.42861 l 7.14287,-22.85719 h 40.00007 l 7.14287,22.85719 h 21.42861 L 277.44884,388.03183 Z"
         id="path6007" /><path
         d="m 381.0203,388.03183 h -38.5715 v 114.28592 h 38.5715 c 31.42863,0 49.38785,-24.08168 49.38785,-57.14296 0,-33.06129 -17.95922,-57.14296 -49.38785,-57.14296 z m -1.42857,17.14289 c 15.71431,0 30.00005,12.85716 30.00005,40.00007 0,27.1429 -14.28574,40.00007 -30.00005,40.00007 h -17.14289 v -80.00014 z"
         id="path6009" /><path
         d="m 457.4489,502.31775 h 20.00003 V 388.03183 H 457.4489 Z"
         id="path6011" /><path
         d="m 551.02064,385.17468 c -31.42863,0 -46.5307,26.93882 -46.5307,60.00011 0,33.06128 15.10207,60.00011 46.5307,60.00011 31.42863,0 46.5307,-26.93883 46.5307,-60.00011 0,-33.06129 -15.10207,-60.00011 -46.5307,-60.00011 z m 0,18.57146 c 15.71431,0 27.14291,15.71432 27.14291,41.42865 0,25.71433 -11.4286,41.42864 -27.14291,41.42864 -15.71432,0 -27.14291,-15.71431 -27.14291,-41.42864 0,-25.71433 11.42859,-41.42865 27.14291,-41.42865 z"
         id="path6013" /></g></g></svg>
