<?xml version="1.0" encoding="UTF-8" standalone="no"?>
<svg
   xmlns:dc="http://purl.org/dc/elements/1.1/"
   xmlns:cc="http://creativecommons.org/ns#"
   xmlns:rdf="http://www.w3.org/1999/02/22-rdf-syntax-ns#"
   xmlns:svg="http://www.w3.org/2000/svg"
   xmlns="http://www.w3.org/2000/svg"
   xmlns:sodipodi="http://sodipodi.sourceforge.net/DTD/sodipodi-0.dtd"
   xmlns:inkscape="http://www.inkscape.org/namespaces/inkscape"
   inkscape:version="1.0 (4035a4fb49, 2020-05-01)"
   sodipodi:docname="uz 1.3.svg"
   xml:space="preserve"
   viewBox="0 0 636.11499 562.78302"
   height="562.78302"
   width="636.11499"
   id="background"
   version="1.1"><metadata
   id="metadata9674"><rdf:RDF><cc:Work
       rdf:about=""><dc:format>image/svg+xml</dc:format><dc:type
         rdf:resource="http://purl.org/dc/dcmitype/StillImage" /><dc:title></dc:title></cc:Work></rdf:RDF></metadata><defs
   id="defs9672" /><sodipodi:namedview
   inkscape:current-layer="background"
   inkscape:window-maximized="1"
   inkscape:window-y="-9"
   inkscape:window-x="-9"
   inkscape:cy="281.283"
   inkscape:cx="318"
   inkscape:zoom="1.4795009"
   showgrid="false"
   id="namedview9670"
   inkscape:window-height="1001"
   inkscape:window-width="1920"
   inkscape:pageshadow="2"
   inkscape:pageopacity="0"
   guidetolerance="10"
   gridtolerance="10"
   objecttolerance="10"
   borderopacity="1"
   bordercolor="#666666"
   pagecolor="#ffffff" />
  <g
   transform="translate(1,0.783)"
   id="g9667">
    <path
   style="stroke:#000000;stroke-width:2;stroke-miterlimit:4;stroke-dasharray:none;stroke-opacity:1"
   id="path9661"
   d="M 45,561 C 20.147,561 0,540.852 0,516 0,508.1 2.079,500.34 6.028,493.5 L 278.086,22.282 C 286.125,8.359 300.98,0.217 317.057,0.217 c 16.077,0 30.933,8.142 38.971,22.065 L 628.086,493.5 c 3.95,6.84 6.029,14.6 6.029,22.5 0,24.852 -20.147,45 -45,45 z"
   stroke="none"
   fill-rule="evenodd"
   fill="#ffffff" />
    <path
   id="path9663"
   d="m 165.024,411.142 v 40.054 h 303.951 v -40.054 h -59.791 l -159.901,-96.196 -8.443,13.865 136.467,82.331 z"
   stroke="none"
   fill-rule="evenodd"
   fill="#000000" />
    <path
   id="path9665"
   d="m 45,551 c -19.33,0 -35,-15.671 -35,-35 0,-6.144 1.617,-12.18 4.689,-17.5 L 286.746,27.282 c 6.252,-10.829 17.807,-17.5 30.311,-17.5 12.505,0 24.059,6.671 30.311,17.5 L 619.426,498.5 c 3.072,5.32 4.689,11.356 4.689,17.5 0,19.329 -15.67,35 -35,35 z m 34.641,-45 c -5.523,0 -10,-4.478 -10,-10 0,-1.756 0.462,-3.48 1.339,-5 L 308.397,79.782 c 1.786,-3.094 5.088,-5 8.66,-5 3.573,0 6.874,1.906 8.66,5 L 563.134,491 c 0.878,1.52 1.34,3.244 1.34,5 0,5.522 -4.477,10 -10,10 z"
   stroke="none"
   fill-rule="evenodd"
   fill="#ff0000" />
  </g>
</svg>
