<svg width="64" height="64" viewBox="0 0 64 64" fill="none" xmlns="http://www.w3.org/2000/svg">
<path d="M32.0042 64C49.6753 64 64.0005 49.6731 64.0005 32C64.0005 14.3269 49.6753 0 32.0042 0C14.3331 0 0.0078125 14.3269 0.0078125 32C0.0078125 49.6731 14.3331 64 32.0042 64Z" fill="#101C70"/>
<path d="M32.0036 62.8817C49.0547 62.8817 62.8774 49.0575 62.8774 32.0044C62.8774 14.9514 49.0547 1.1272 32.0036 1.1272C14.9525 1.1272 1.12988 14.9514 1.12988 32.0044C1.12988 49.0575 14.9525 62.8817 32.0036 62.8817Z" fill="#E8E8E8"/>
<path d="M31.9965 60.6291C47.8074 60.6291 60.6248 47.8103 60.6248 31.9975C60.6248 16.1847 47.8074 3.36597 31.9965 3.36597C16.1855 3.36597 3.36816 16.1847 3.36816 31.9975C3.36816 47.8103 16.1855 60.6291 31.9965 60.6291Z" fill="#101C70"/>
<path d="M36.4854 19.0854H27.5039V61.7512H36.4854V19.0854Z" fill="#E8E8E8"/>
<path d="M31.9955 10.2466L37.0983 19.0856L42.201 27.9254H31.9955H21.79L26.8928 19.0856L31.9955 10.2466Z" fill="#E8E8E8"/>
<path d="M31.7152 0.00561523C14.2023 0.157899 0 14.4478 0 31.9984C0 49.5489 14.2023 63.8388 31.7152 63.9911V0.00561523Z" fill="#1A237E"/>
<path d="M31.7145 1.12842C14.8202 1.2807 1.12207 15.0664 1.12207 31.9983C1.12207 48.9295 14.8202 62.7159 31.7145 62.8682V1.12842Z" fill="#F5F5F5"/>
<path d="M31.7152 3.37402C16.034 3.52558 3.36816 16.2795 3.36816 31.9983C3.36816 47.717 16.0347 60.471 31.7152 60.6225V3.37402Z" fill="#1A237E"/>
<path d="M31.7142 19.0854H27.5039V61.7512H31.7142V19.0854Z" fill="#F5F5F5"/>
<path d="M31.7151 10.7324L26.8928 19.0854L21.79 27.9252H31.7151V10.7324Z" fill="#F5F5F5"/>
</svg>
