<?xml version="1.0" encoding="UTF-8" standalone="no"?>
<!-- Created with Inkscape (http://www.inkscape.org/) -->

<svg
   width="700"
   height="700"
   id="svg2"
   version="1.1"
   inkscape:version="1.2.2 (732a01da63, 2022-12-09)"
   sodipodi:docname="3.17.2_Uzbekistan_road_sign.svg"
   xmlns:inkscape="http://www.inkscape.org/namespaces/inkscape"
   xmlns:sodipodi="http://sodipodi.sourceforge.net/DTD/sodipodi-0.dtd"
   xmlns="http://www.w3.org/2000/svg"
   xmlns:svg="http://www.w3.org/2000/svg"
   xmlns:rdf="http://www.w3.org/1999/02/22-rdf-syntax-ns#"
   xmlns:cc="http://creativecommons.org/ns#"
   xmlns:dc="http://purl.org/dc/elements/1.1/">
  <defs
     id="defs4" />
  <sodipodi:namedview
     id="base"
     pagecolor="#ffffff"
     bordercolor="#666666"
     borderopacity="1.0"
     inkscape:pageopacity="0.0"
     inkscape:pageshadow="2"
     inkscape:zoom="0.5"
     inkscape:cx="-244"
     inkscape:cy="375"
     inkscape:document-units="px"
     inkscape:current-layer="layer1"
     showgrid="false"
     inkscape:window-width="1920"
     inkscape:window-height="991"
     inkscape:window-x="-9"
     inkscape:window-y="-9"
     inkscape:window-maximized="1"
     showguides="true"
     inkscape:guide-bbox="true"
     inkscape:showpageshadow="2"
     inkscape:pagecheckerboard="0"
     inkscape:deskcolor="#d1d1d1" />
  <metadata
     id="metadata7">
    <rdf:RDF>
      <cc:Work
         rdf:about="">
        <dc:format>image/svg+xml</dc:format>
        <dc:type
           rdf:resource="http://purl.org/dc/dcmitype/StillImage" />
        <dc:title />
        <cc:license
           rdf:resource="http://creativecommons.org/licenses/by-sa/3.0/" />
        <dc:description>ГОСТ Р 52290-2004
Размеры и пропорции по типоразмеру II</dc:description>
      </cc:Work>
      <cc:License
         rdf:about="http://creativecommons.org/licenses/by-sa/3.0/">
        <cc:permits
           rdf:resource="http://creativecommons.org/ns#Reproduction" />
        <cc:permits
           rdf:resource="http://creativecommons.org/ns#Distribution" />
        <cc:requires
           rdf:resource="http://creativecommons.org/ns#Notice" />
        <cc:requires
           rdf:resource="http://creativecommons.org/ns#Attribution" />
        <cc:permits
           rdf:resource="http://creativecommons.org/ns#DerivativeWorks" />
        <cc:requires
           rdf:resource="http://creativecommons.org/ns#ShareAlike" />
      </cc:License>
    </rdf:RDF>
  </metadata>
  <g
     inkscape:label="Layer 1"
     inkscape:groupmode="layer"
     id="layer1"
     transform="translate(0,-352.36218)">
    <path
       transform="matrix(2.8577184,0,0,3.7498086,1269.0072,-2310.3252)"
       style="color:#000000;display:inline;overflow:visible;visibility:visible;opacity:1;fill:#ffffff;fill-opacity:1;fill-rule:nonzero;stroke:none;stroke-width:1px;marker:none;enable-background:accumulate"
       d="m -199.11241,803.42432 a 122.47533,93.338097 0 0 1 -122.47533,93.33809 122.47533,93.338097 0 0 1 -122.47532,-93.33809 122.47533,93.338097 0 0 1 122.47532,-93.3381 122.47533,93.338097 0 0 1 122.47533,93.3381 z"
       id="path12388" />
    <path
       transform="matrix(2.8495535,0,0,3.7390949,1266.3815,-2301.7176)"
       style="color:#000000;display:inline;overflow:visible;visibility:visible;opacity:1;fill:none;stroke:#000000;stroke-width:0.61271477;stroke-miterlimit:4;stroke-dasharray:none;stroke-opacity:1;marker:none;enable-background:accumulate"
       d="m -199.11241,803.42432 a 122.47533,93.338097 0 0 1 -122.47533,93.33809 122.47533,93.338097 0 0 1 -122.47532,-93.33809 122.47533,93.338097 0 0 1 122.47532,-93.3381 122.47533,93.338097 0 0 1 122.47533,93.3381 z"
       id="path12442" />
    <path
       inkscape:connector-curvature="0"
       style="opacity:1;color:#000000;fill:#ff0000;fill-opacity:1;fill-rule:nonzero;stroke:none;stroke-width:1px;marker:none;visibility:visible;display:inline;overflow:visible;enable-background:accumulate"
       d="m 349.99638,362.35924 c -187.7769,0 -340.0000026,152.22318 -340.0000026,340 0,187.77681 152.2231026,340.00006 340.0000026,340.00006 187.77681,0 340.00001,-152.22325 340.00001,-340.00006 0,-187.77682 -152.2232,-340 -340.00001,-340 z m 0,58.875 c 155.26321,0 281.12501,125.86172 281.12501,281.125 0,155.26327 -125.8618,281.125 -281.12501,281.125 -155.2633,0 -281.125003,-125.86173 -281.125003,-281.125 0,-155.26328 125.861703,-281.125 281.125003,-281.125 z"
       id="path8171" />
    <path
       id="path8029-6"
       style="color:#000000;display:inline;overflow:visible;visibility:visible;fill:#000000;fill-opacity:1;stroke:none;stroke-width:1px;marker:none;enable-background:accumulate"
       d="m 137.17738,730.02349 c -15.2769,0 -27.6613,-12.38438 -27.6613,-27.66129 0,-15.27691 12.3844,-27.66129 27.6613,-27.66129 v 0 h 425.6451 c 15.277,0 27.6613,12.38438 27.6613,27.66129 0,15.2769 -12.3843,27.66129 -27.6613,27.66129 z"
       inkscape:connector-curvature="0"
       sodipodi:nodetypes="cscccscc" />
    <path
       id="text56140"
       style="font-size:6.99601px;line-height:0%;fill:#000000;stroke-width:8.33639"
       d="m 348.94922,780.08484 c -15.40568,0 -22.8086,13.20417 -22.8086,29.41015 0,16.20598 7.40292,29.41211 22.8086,29.41211 15.40568,0 22.80859,-13.20613 22.80859,-29.41211 0,-16.20598 -7.40291,-29.41015 -22.80859,-29.41015 z m -197.47266,1.40039 v 56.02148 h 9.80469 v -40.61523 l 21.00781,40.61523 h 11.20313 v -56.02148 h -9.80274 v 39.91406 l -21.00781,-39.91406 z m 75.62891,0 -18.20703,56.02148 h 10.5039 l 3.5,-11.20508 h 19.60743 l 3.50195,11.20508 h 10.5039 l -18.20703,-56.02148 z m 46.2168,0 v 8.40234 h 24.50781 l -25.20899,38.51563 v 9.10351 h 37.81446 v -8.4043 h -25.91016 l 25.20899,-38.51367 v -9.10351 z m 114.84179,0 v 56.02148 h 9.80274 v -22.4082 h 5.60351 c 6.30233,0 7.7022,3.89983 10.20313,8.60156 2.60096,5.00185 4.4027,10.90557 6.60351,13.80664 h 11.9043 c -6.30232,-2.80103 -9.10367,-23.80938 -18.20703,-25.91015 5.60207,-2.10078 10.5039,-7.00224 10.5039,-14.70508 0,-5.60207 -3.50264,-15.40625 -17.50781,-15.40625 z m 77.0293,0 -18.20703,56.02148 h 10.5039 l 3.5,-11.20508 h 19.60743 l 3.50195,11.20508 h 10.50391 l -18.20704,-56.02148 z m 42.71484,0 v 8.40234 h 15.40628 v 47.61914 h 9.8027 v -47.61914 h 15.4063 v -8.40234 z m -158.95898,7.70312 c 7.70284,0 13.30469,7.70199 13.30469,20.30664 0,12.60465 -5.60185,20.3086 -13.30469,20.3086 -7.70284,0 -13.30469,-7.70395 -13.30469,-20.3086 0,-12.60465 5.60185,-20.30664 13.30469,-20.30664 z m 49.01758,0.69922 h 6.30273 c 5.60207,0 10.50391,2.40208 10.50391,8.4043 0,6.00221 -4.90184,8.40234 -10.50391,8.40234 h -6.30273 z m -165.25977,4.20313 7.00195,23.80859 h -14.0039 z m 238.08789,0 7.00196,23.80859 h -14.00586 z" />
    <g
       id="g56118"
       transform="translate(-4.26e-5)"
       style="fill:#000000">
      <g
         style="font-style:normal;font-variant:normal;font-weight:normal;font-stretch:normal;font-size:141.953px;line-height:125%;font-family:Arial;-inkscape-font-specification:Arial;letter-spacing:-0.903226px;word-spacing:0px;opacity:1;fill:#000000;fill-opacity:1;stroke:none"
         id="text7949-4">
        <path
           d="m 263.11724,521.79372 h 76.45227 v 15.11024 h -30.01254 v 86.50266 H 293.1991 v -86.50266 h -30.08186 z"
           style="font-family:'IndorSoft RoadSign Letters';-inkscape-font-specification:'IndorSoft RoadSign Letters';fill:#000000"
           id="path14240" />
        <path
           d="m 384.55151,572.66948 c -3e-5,10.02733 2.17178,18.58748 6.51543,25.68048 4.34357,7.09305 9.63446,10.63956 15.87268,10.63955 6.14569,10e-6 11.41348,-3.5465 15.80337,-10.63955 4.38975,-7.093 6.58466,-15.65315 6.58474,-25.68048 -8e-5,-10.02722 -2.19499,-18.61048 -6.58474,-25.74979 -4.38989,-7.13916 -9.65768,-10.70877 -15.80337,-10.70886 -6.23822,9e-5 -11.52911,3.5697 -15.87268,10.70886 -4.34365,7.13931 -6.51546,15.72257 -6.51543,25.74979 z m -18.0907,-0.0693 c -10e-6,-14.6943 3.93927,-27.21684 11.81787,-37.56766 7.87855,-10.35065 17.36287,-15.52602 28.453,-15.52612 11.18244,10e-5 20.71297,5.17547 28.59162,15.52612 7.87849,10.35082 11.81778,22.87336 11.81787,37.56766 -9e-5,14.60198 -3.93938,27.07831 -11.81787,37.42903 -7.87865,10.35075 -17.40918,15.52612 -28.59162,15.52612 -11.09013,0 -20.57445,-5.17537 -28.453,-15.52612 -7.8786,-10.35072 -11.81788,-22.82705 -11.81787,-37.42903 z"
           style="font-family:'IndorSoft RoadSign Letters';-inkscape-font-specification:'IndorSoft RoadSign Letters';fill:#000000"
           id="path14242" />
        <path
           d="m 542.44443,552.29145 c -8e-5,7.99417 -2.2412,15.17961 -6.72336,21.55635 -5.26786,7.57827 -12.03743,11.36738 -20.30872,11.36734 h -24.39818 v 38.19148 h -17.05101 v -101.6129 h 41.44919 c 7.85541,10e-5 14.57877,3.25781 20.17009,9.77314 4.57458,5.961 6.86191,12.86919 6.86199,20.72459 z m -17.051,0.83176 c -7e-5,-4.20492 -0.94735,-7.87851 -2.84184,-11.02077 -2.58774,-3.51178 -6.58479,-5.26771 -11.99115,-5.26779 h -19.54627 v 33.13162 h 19.54627 c 4.62081,6e-5 8.34061,-1.8945 11.1594,-5.68367 2.44899,-3.14212 3.67352,-6.86192 3.67359,-11.15939 z"
           style="font-family:'IndorSoft RoadSign Letters';-inkscape-font-specification:'IndorSoft RoadSign Letters';fill:#000000"
           id="path14244" />
      </g>
      <g
         aria-label="STOP"
         id="text55956"
         style="line-height:0%;fill:#000000;stroke-width:14.2991">
        <path
           d="m 157.55566,607.51082 c 0,0 16.70962,17.42068 39.10763,17.42068 24.88668,0 38.21883,-18.66501 38.21883,-31.10835 0,-14.932 -10.84348,-24.88667 -28.26415,-28.61968 -13.68769,-2.84418 -26.13102,-4.44404 -26.13102,-14.04319 0,-4.79957 3.733,-14.57648 18.66501,-14.57648 12.97663,0 22.04248,9.95466 22.04248,9.95466 l 11.55453,-12.44333 c 0,0 -16.17634,-13.68767 -33.59701,-13.68767 -21.15367,0 -36.08568,13.68767 -36.08568,31.10835 0,7.64376 3.37748,23.82009 31.10835,27.90862 22.22024,3.19971 22.398,11.55454 22.398,15.46529 v 0.17777 c 0,3.73299 -4.26628,13.68767 -19.55382,13.68767 -17.42067,0 -27.19758,-11.7323 -27.19758,-11.7323 z"
           style="font-size:171.589px;line-height:1.25;font-family:'Russian Road Sign';-inkscape-font-specification:'Russian Road Sign';opacity:1;fill:#000000;stroke-width:14.8135"
           id="path55958" />
      </g>
    </g>
  </g>
</svg>
