<?xml version="1.0" encoding="UTF-8" standalone="no"?>
<!-- Created with Inkscape (http://www.inkscape.org/) -->

<svg
   width="2300"
   height="1370"
   id="svg2"
   version="1.1"
   inkscape:version="1.2.2 (732a01da63, 2022-12-09)"
   sodipodi:docname="RU_road_sign_6.9.1_A.svg"
   xmlns:inkscape="http://www.inkscape.org/namespaces/inkscape"
   xmlns:sodipodi="http://sodipodi.sourceforge.net/DTD/sodipodi-0.dtd"
   xmlns="http://www.w3.org/2000/svg"
   xmlns:svg="http://www.w3.org/2000/svg"
   xmlns:rdf="http://www.w3.org/1999/02/22-rdf-syntax-ns#"
   xmlns:cc="http://creativecommons.org/ns#"
   xmlns:dc="http://purl.org/dc/elements/1.1/">
  <title
     id="title3006">5.20.5 Xizmat koʻrsatish maydoni	</title>
  <defs
     id="defs4" />
  <sodipodi:namedview
     id="base"
     pagecolor="#ffffff"
     bordercolor="#666666"
     borderopacity="1.0"
     inkscape:pageopacity="0.0"
     inkscape:pageshadow="2"
     inkscape:zoom="0.1767767"
     inkscape:cx="500.6316"
     inkscape:cy="132.93607"
     inkscape:document-units="px"
     inkscape:current-layer="layer1"
     showgrid="false"
     inkscape:window-width="1920"
     inkscape:window-height="991"
     inkscape:window-x="-9"
     inkscape:window-y="-9"
     inkscape:window-maximized="1"
     inkscape:snap-bbox="true"
     inkscape:bbox-paths="true"
     inkscape:bbox-nodes="true"
     inkscape:snap-bbox-edge-midpoints="true"
     inkscape:snap-bbox-midpoints="true"
     inkscape:object-paths="true"
     inkscape:snap-intersection-paths="true"
     inkscape:object-nodes="true"
     inkscape:snap-smooth-nodes="true"
     inkscape:snap-midpoints="true"
     inkscape:snap-object-midpoints="true"
     showguides="true"
     inkscape:guide-bbox="true"
     inkscape:showpageshadow="2"
     inkscape:pagecheckerboard="0"
     inkscape:deskcolor="#d1d1d1" />
  <metadata
     id="metadata7">
    <rdf:RDF>
      <cc:Work
         rdf:about="">
        <dc:format>image/svg+xml</dc:format>
        <dc:type
           rdf:resource="http://purl.org/dc/dcmitype/StillImage" />
        <dc:title>5.20.5 Xizmat koʻrsatish maydoni	</dc:title>
        <cc:license
           rdf:resource="http://creativecommons.org/licenses/by-sa/3.0/" />
        <dc:description>ГОСТ Р 52290-2004</dc:description>
      </cc:Work>
      <cc:License
         rdf:about="http://creativecommons.org/licenses/by-sa/3.0/">
        <cc:permits
           rdf:resource="http://creativecommons.org/ns#Reproduction" />
        <cc:permits
           rdf:resource="http://creativecommons.org/ns#Distribution" />
        <cc:requires
           rdf:resource="http://creativecommons.org/ns#Notice" />
        <cc:requires
           rdf:resource="http://creativecommons.org/ns#Attribution" />
        <cc:permits
           rdf:resource="http://creativecommons.org/ns#DerivativeWorks" />
        <cc:requires
           rdf:resource="http://creativecommons.org/ns#ShareAlike" />
      </cc:License>
    </rdf:RDF>
  </metadata>
  <g
     inkscape:label="Layer 1"
     inkscape:groupmode="layer"
     id="layer1"
     transform="translate(0,397.63782)">
    <path
       id="rect13259"
       style="display:inline;overflow:visible;fill:#ffffff;stroke-width:3.543;marker:none;enable-background:accumulate"
       d="m 45,-397.63782 h 2210 c 24.93,0 45,20.07 45,45 V 927.3622 c 0,24.93 -20.07,45 -45,45 H 45 c -24.93,0 -45,-20.07 -45,-45 V -352.63782 c 0,-24.93 20.07,-45 45,-45 z"
       sodipodi:nodetypes="sssssssss" />
    <path
       id="rect13261"
       style="color:#000000;display:inline;overflow:visible;visibility:visible;fill:#0d69e1;fill-opacity:1;fill-rule:nonzero;stroke:none;stroke-width:3.543;marker:none;enable-background:accumulate"
       d="M 45 -385.63782 C 26.718072 -385.63782 12 -370.91974 12 -352.63782 L 12 927.36218 C 12 945.6441 26.718072 960.36218 45 960.36218 L 156.375 960.36218 L 235.59375 960.36218 L 2255 960.36218 C 2273.282 960.36218 2288 945.6441 2288 927.36218 L 2288 -352.63782 C 2288 -370.91974 2273.282 -385.63782 2255 -385.63782 L 45 -385.63782 z M 115.66602 -69.286257 L 542.58398 -69.286257 C 564.81475 -69.286257 582.71094 -51.388115 582.71094 -29.157351 L 582.71094 397.75866 C 582.71094 419.98943 564.81475 437.88562 542.58398 437.88562 L 115.66602 437.88562 C 93.43524 437.88562 75.539062 419.98943 75.539062 397.75866 L 75.539062 -29.157351 C 75.539062 -51.388115 93.43524 -69.286257 115.66602 -69.286257 z M 662.91797 -69.286257 L 1089.834 -69.286257 C 1112.0648 -69.286257 1129.9609 -51.388121 1129.9609 -29.157351 L 1129.9609 397.75866 C 1129.9609 419.98944 1112.0648 437.88562 1089.834 437.88562 L 662.91797 437.88562 C 640.68719 437.88562 622.78906 419.98944 622.78906 397.75866 L 622.78906 -29.157351 C 622.78906 -51.388121 640.68719 -69.286257 662.91797 -69.286257 z M 1210.168 -69.286257 L 1637.084 -69.286257 C 1659.3148 -69.286257 1677.2109 -51.388143 1677.2109 -29.157351 L 1677.2109 397.75866 C 1677.2109 419.98946 1659.3148 437.88562 1637.084 437.88562 L 1210.168 437.88562 C 1187.9372 437.88562 1170.0391 419.98946 1170.0391 397.75866 L 1170.0391 -29.157351 C 1170.0391 -51.388143 1187.9372 -69.286257 1210.168 -69.286257 z M 1757.418 -69.286257 L 2184.334 -69.286257 C 2206.5649 -69.286257 2224.4609 -51.388176 2224.4609 -29.157351 L 2224.4609 397.75866 C 2224.4609 419.98949 2206.5649 437.88562 2184.334 437.88562 L 1757.418 437.88562 C 1735.1872 437.88562 1717.2891 419.98949 1717.2891 397.75866 L 1717.2891 -29.157351 C 1717.2891 -51.388176 1735.1872 -69.286257 1757.418 -69.286257 z " />
    <path
       id="rect13385"
       style="display:inline;overflow:visible;fill:none;stroke:#000000;stroke-width:2;marker:none;enable-background:accumulate"
       d="m 45,-396.63782 h 2210 c 24.376,0 44,19.624 44,44 V 927.3622 c 0,24.376 -19.624,44 -44,44 H 45 c -24.376,0 -44,-19.624 -44,-44 V -352.63782 c 0,-24.376 19.624,-44 44,-44 z"
       sodipodi:nodetypes="sssssssss" />
    <g
       id="g3506"
       transform="translate(0.83851514)"
       style="fill:#000000">
      <g
         id="g3458"
         style="fill:#000000">
        <g
           id="g780"
           transform="matrix(0.89173093,0,0,0.89173093,302.80379,150.09134)"
           style="fill:#000000">
          <path
             style="color:#000000;display:inline;overflow:visible;visibility:visible;fill:#000000;fill-opacity:1;fill-rule:nonzero;stroke:none;stroke-width:3.543;marker:none;enable-background:accumulate"
             d="m 52.63923,-180.3874 c -13.33063,0 -24.0625,10.73187 -24.0625,24.0625 v 413.4375 h 218.75 v -413.4375 c 0,-13.33063 -10.73188,-24.0625 -24.0625,-24.0625 z m 19.6875,43.75 h 131.25 c 6.05938,0 10.9375,4.87813 10.9375,10.9375 v 109.375 c 0,6.05937 -4.87812,10.9375 -10.9375,10.9375 h -131.25 c -6.05937,0 -10.9375,-4.87813 -10.9375,-10.9375 v -109.375 c 0,-6.05937 4.87813,-10.9375 10.9375,-10.9375 z"
             id="rect10216" />
          <path
             id="path11135"
             style="color:#000000;display:inline;overflow:visible;visibility:visible;fill:#000000;fill-opacity:1;fill-rule:nonzero;stroke:none;stroke-width:2;marker:none;enable-background:accumulate"
             d="m 6.70173,27.42509 c 0,-6.04062 4.89688,-10.9375 10.9375,-10.9375 v -21.875 c -18.12184,0 -32.8125,14.69066 -32.8125,32.8125 v 131.25 c 0,42.2843 -34.2782,76.5625 -76.5625,76.5625 -42.2843,0 -76.5625,-34.2782 -76.5625,-76.5625 0,-19.0532 7.10427,-37.42184 19.9246,-51.51664 L -36.52106,-15.81596 c 13.73608,-15.10158 21.34779,-34.7823 21.34779,-55.19645 v -43.74999 c 0,-6.04062 4.89688,-10.9375 10.9375,-10.9375 h 21.875 v -21.875 h -21.875 c -18.12184,0 -32.8125,14.69066 -32.8125,32.8125 v 43.74999 c 0,14.97037 -5.58192,29.40291 -15.65504,40.4774 L -164.55593,92.4394 c -16.48329,18.1219 -25.61734,41.73871 -25.61734,66.23569 0,54.36553 44.07197,98.4375 98.4375,98.4375 54.36553,0 98.4375,-44.07197 98.4375,-98.4375 z"
             inkscape:connector-curvature="0"
             sodipodi:nodetypes="cccccssccccccccccccsscc" />
        </g>
      </g>
      <g
         id="g3463"
         transform="translate(-1.2003764)"
         style="fill:#000000">
        <g
           id="g1029"
           transform="matrix(0.8917303,0,0,0.8917303,713.56482,165.2381)"
           style="fill:#000000">
          <path
             id="path11260"
             style="color:#000000;display:inline;overflow:visible;visibility:visible;fill:#000000;fill-opacity:1;fill-rule:nonzero;stroke:none;stroke-width:1px;marker:none;enable-background:accumulate"
             d="m 204.85888,-120.81096 v -32.8125 h 54.6875 v -65.625 h -120.3125 l -53.25195,37.22167 c -9.89417,6.92798 -17.16863,16.92109 -20.7742,28.40333 h 95.90115 v 32.8125 H 65.1945 c 4.44249,14.09812 14.52073,26.14612 28.30696,32.81249 l 34.1028,-5.5e-4 c 0.25324,0.0808 0.50039,0.15263 0.75195,0.23926 18.27685,6.29322 27.99732,26.22511 21.7041,44.50195 l -10.82645,31.44233 2e-5,251.94204 v 0 c 0,24.16236 19.58754,43.75 43.75001,43.75 24.16246,0 43.75,-19.58764 43.75,-43.75 l -1e-5,-251.97159 -10.83496,-31.41223 c -6.29322,-18.27685 3.42725,-38.20873 21.7041,-44.50195 0.25156,-0.0866 0.49871,-0.15843 0.75195,-0.23926 l 21.19141,1e-5 v -32.8125 z"
             inkscape:connector-curvature="0"
             sodipodi:nodetypes="cccccccccccccccccscccccccc" />
        </g>
      </g>
      <g
         id="g3469"
         transform="translate(2.0942323)"
         style="fill:#000000">
        <g
           id="g1793"
           transform="matrix(0.8917303,0,0,0.8917303,1285.5498,86.655098)"
           style="fill:#000000">
          <path
             id="path10489"
             style="color:#000000;display:inline;overflow:visible;visibility:visible;fill:#000000;fill-opacity:1;fill-rule:nonzero;stroke:none;stroke-width:1px;marker:none;enable-background:accumulate"
             d="m 53.11356,-43.62432 c 0,6.04062 -4.89688,10.9375 -10.9375,10.9375 -6.04062,0 -10.9375,-4.89688 -10.9375,-10.9375 v 0 -87.5 h -21.875 v 131.25 c 0,22.42463 13.49893,41.66809 32.8125,50.10742 v 278.01758 0 c 0,12.08122 9.79377,21.87499 21.875,21.87499 12.08122,0 21.875,-9.79377 21.875,-21.87499 V 50.2331 c 19.31357,-8.43933 32.8125,-27.68279 32.8125,-50.10742 v -131.25 h -21.875 v 87.5 c 0,6.04062 -4.89688,10.9375 -10.9375,10.9375 -6.04062,0 -10.9375,-4.89688 -10.9375,-10.9375 v 0 -87.5 h -21.875 z"
             inkscape:connector-curvature="0"
             sodipodi:nodetypes="csccccccccsccccccsccccc" />
          <path
             id="path11268"
             style="color:#000000;display:inline;overflow:visible;visibility:visible;fill:#000000;fill-opacity:1;fill-rule:nonzero;stroke:none;stroke-width:0.63806;marker:none;enable-background:accumulate"
             d="m 239.05107,153.25068 c -24.16246,0 -43.75001,-19.58753 -43.75001,-43.74999 v 0 -196.875 c 0,-24.16246 19.58755,-43.74999 43.75001,-43.74999 24.16246,0 43.75,19.58753 43.75,43.74999 l -10e-6,415.625 c 0,12.08121 -9.79378,21.87499 -21.875,21.87499 -12.08123,0 -21.875,-9.79378 -21.875,-21.87499 v 0 z"
             inkscape:connector-curvature="0"
             sodipodi:nodetypes="ccccsccsccc" />
        </g>
      </g>
      <g
         id="g3480"
         style="fill:#000000">
        <g
           id="g2662"
           transform="matrix(1.0106443,0,0,1.0106443,1796.8053,54.809442)"
           style="fill:#000000">
          <path
             style="fill:#000000;fill-rule:evenodd;stroke-width:2.92764;stroke-linecap:round;stroke-linejoin:round;paint-order:stroke fill markers"
             d="m 356.47908,119.01749 c -3.77814,17.33792 -10.43635,32.84081 -18.73361,45.59429 -6.10255,9.3802 -16.39969,19.52347 -26.46712,28.08073 -13.67273,11.62167 -26.70325,20.15043 -26.70325,20.15043 a 8.4331327,8.4331327 0 0 1 -0.35421,0.13774 c -6.76673,4.30237 -14.79077,6.82832 -23.43668,6.82832 h -7.16285 -9.78004 c -14.41454,0 -26.01452,10.69035 -26.01452,23.98767 0,13.29721 11.59998,24.00735 26.01452,24.00735 h 52.0684 8.52064 79.28328 v -18.81231 c 0,-16.16986 -13.01272,-29.18271 -29.1827,-29.18271 h -24.06638 c 14.41452,0 26.01452,-11.61965 26.01452,-26.0342 z"
             id="path2654" />
          <path
             style="fill:#000000;fill-rule:evenodd;stroke-width:2.92764;stroke-linecap:round;stroke-linejoin:round;paint-order:stroke fill markers"
             d="m 292.72185,-13.751022 a 34.662927,34.662927 0 0 0 -34.67291,34.653232 34.662927,34.662927 0 0 0 33.98418,34.613875 l 0.0984,0.05903 h 0.59034 1.39715 c 5.71707,0 10.31136,4.594292 10.31136,10.311354 v 11.629789 3.364965 81.900487 13.36147 c 0,4.48036 -0.66624,8.78675 -1.90878,12.84983 1.09781,-0.90112 2.1931,-1.78939 3.30593,-2.73526 9.66066,-8.21144 19.68849,-18.31163 24.85351,-26.25066 12.20878,-18.76573 20.79954,-44.30235 20.79981,-72.986283 1.4e-4,-9.786566 -1.05086,-19.240271 -2.95173,-28.218474 0,0 -6.24332,-22.077612 -11.21655,-32.350888 C 332.87981,17.2951 320.90097,0.71242227 320.90097,0.71242227 A 34.662927,34.662927 0 0 0 292.72185,-13.751022 Z"
             id="path2650" />
        </g>
        <g
           id="g2658"
           transform="matrix(0.90319616,0,0,0.90319616,1815.0468,83.584508)"
           style="fill:#000000">
          <path
             style="fill:#000000;fill-rule:evenodd;stroke-width:3.27592;stroke-linecap:round;stroke-linejoin:round;paint-order:stroke fill markers"
             d="m 55.087497,25.769496 c -16.129498,0 -29.131339,12.979821 -29.131339,29.10932 v 95.408994 14.951 c 0,27.06321 -21.7752574,48.8605 -48.838481,48.8605 h -8.014971 -10.943519 c -16.129501,0 -29.109321,11.96196 -29.109321,26.84134 0,14.87926 12.97982,26.86337 29.109321,26.86337 h 58.262678 9.534293 88.715172 v -21.0503 c 0,-18.09366 -14.56077,-32.65441 -32.654409,-32.65441 H 55.087497 c 16.129501,0 29.109321,-13.00183 29.109321,-29.13134 V 54.878816 c 0,-16.129499 -12.97982,-29.10932 -29.109321,-29.10932 z"
             id="path2652" />
          <path
             style="fill:#000000;fill-rule:evenodd;stroke-width:3.27592;stroke-linecap:round;stroke-linejoin:round;paint-order:stroke fill markers"
             d="M 12.854762,-47.246015 A 38.786576,38.786576 0 0 0 -25.942985,-8.4702861 38.786576,38.786576 0 0 0 12.854762,30.327461 38.786576,38.786576 0 0 0 51.630491,-8.4702861 38.786576,38.786576 0 0 0 12.854762,-47.246015 Z"
             id="path2648" />
        </g>
        <path
           style="fill:#000000;fill-rule:evenodd;stroke-width:2.61067;stroke-linecap:round;stroke-linejoin:round;paint-order:stroke fill markers"
           d="m 1970.0367,40.912052 c -5.5773,0 -10.0724,4.494972 -10.0724,10.072292 V 315.39172 c 0,5.57731 4.4951,10.07238 10.0724,10.07238 5.5774,0 10.0723,-4.49507 10.0723,-10.07238 V 50.984344 c 0,-5.57732 -4.4949,-10.072292 -10.0723,-10.072292 z"
           id="circle10747" />
        <rect
           style="fill:#000000;fill-rule:evenodd;stroke-width:2.55086;stroke-linecap:round;stroke-linejoin:round;paint-order:stroke fill markers"
           id="rect10757"
           width="2.2022378"
           height="1.2584215"
           x="1941.1196"
           y="33.490993"
           ry="0.49333033"
           rx="0.49333033" />
      </g>
    </g>
    <path
       id="text3086"
       style="font-size:355.273px;line-height:1.5;font-family:'Russian Road Sign';-inkscape-font-specification:'Russian Road Sign';fill:#f9f9f9;fill-rule:evenodd;stroke-width:83.7804;stroke-linecap:round;stroke-linejoin:round;paint-order:stroke fill markers"
       d="M 917.7207 597.16101 C 877.93017 597.16101 850.57422 639.43809 850.57422 699.1239 C 850.57422 758.8097 877.93017 801.08679 917.7207 801.08679 C 957.51124 801.08679 984.86719 758.8097 984.86719 699.1239 C 984.86719 642.63555 957.51124 597.16101 917.7207 597.16101 z M 761.04492 599.64734 L 717.70117 645.83288 L 729.42578 661.11023 L 756.07031 644.41101 L 756.07031 798.60046 L 790.88867 798.60046 L 790.88867 599.64734 L 761.04492 599.64734 z M 1190.0762 599.64734 L 1190.0762 798.60046 L 1224.8926 798.60046 L 1224.8926 599.64734 L 1190.0762 599.64734 z M 1294.5273 599.64734 L 1225.248 693.44031 L 1299.5 798.60046 L 1344.2656 798.60046 L 1267.8809 693.08484 L 1339.291 599.64734 L 1294.5273 599.64734 z M 1393.293 599.64734 L 1393.293 798.60046 L 1428.1094 798.60046 L 1428.1094 654.36023 L 1487.7949 758.80945 L 1547.4824 654.36023 L 1549.9688 798.60046 L 1582.2988 798.60046 L 1582.2988 599.64734 L 1542.5078 599.64734 L 1487.7949 691.66296 L 1433.084 599.64734 L 1393.293 599.64734 z M 917.7207 628.06921 C 936.90543 628.06921 950.05078 649.38573 950.05078 699.1239 C 950.05078 748.86207 936.90543 770.17859 917.7207 770.17859 C 898.53598 770.17859 885.39062 748.86207 885.39062 699.1239 C 885.39062 649.38573 898.53598 628.06921 917.7207 628.06921 z " />
  </g>
</svg>
