<?xml version="1.0" encoding="UTF-8" standalone="no"?>
<!-- Created with Inkscape (http://www.inkscape.org/) -->

<svg
   width="700"
   height="700"
   id="svg2"
   version="1.1"
   inkscape:version="1.2.2 (732a01da63, 2022-12-09)"
   sodipodi:docname="RU_road_sign_6.3.2.svg"
   xmlns:inkscape="http://www.inkscape.org/namespaces/inkscape"
   xmlns:sodipodi="http://sodipodi.sourceforge.net/DTD/sodipodi-0.dtd"
   xmlns="http://www.w3.org/2000/svg"
   xmlns:svg="http://www.w3.org/2000/svg"
   xmlns:rdf="http://www.w3.org/1999/02/22-rdf-syntax-ns#"
   xmlns:cc="http://creativecommons.org/ns#"
   xmlns:dc="http://purl.org/dc/elements/1.1/">
  <defs
     id="defs4" />
  <sodipodi:namedview
     id="base"
     pagecolor="#ffffff"
     bordercolor="#666666"
     borderopacity="1.0"
     inkscape:pageopacity="0.0"
     inkscape:pageshadow="2"
     inkscape:zoom="0.70710678"
     inkscape:cx="190.91883"
     inkscape:cy="267.99347"
     inkscape:document-units="px"
     inkscape:current-layer="layer1"
     showgrid="false"
     inkscape:window-width="1920"
     inkscape:window-height="1001"
     inkscape:window-x="-9"
     inkscape:window-y="-9"
     inkscape:window-maximized="1"
     inkscape:snap-bbox="false"
     inkscape:bbox-paths="true"
     inkscape:bbox-nodes="true"
     inkscape:snap-bbox-edge-midpoints="true"
     inkscape:snap-bbox-midpoints="true"
     inkscape:object-paths="false"
     inkscape:snap-intersection-paths="true"
     inkscape:object-nodes="false"
     inkscape:snap-smooth-nodes="false"
     inkscape:snap-nodes="true"
     showguides="true"
     inkscape:guide-bbox="true"
     inkscape:snap-object-midpoints="true"
     inkscape:snap-center="true"
     inkscape:showpageshadow="2"
     inkscape:pagecheckerboard="0"
     inkscape:deskcolor="#d1d1d1" />
  <metadata
     id="metadata7">
    <rdf:RDF>
      <cc:Work
         rdf:about="">
        <dc:format>image/svg+xml</dc:format>
        <dc:type
           rdf:resource="http://purl.org/dc/dcmitype/StillImage" />
        <cc:license
           rdf:resource="http://creativecommons.org/licenses/by-sa/3.0/" />
        <dc:description>ГОСТ Р 52290-2004
Размеры и пропорции по типоразмеру II</dc:description>
      </cc:Work>
      <cc:License
         rdf:about="http://creativecommons.org/licenses/by-sa/3.0/">
        <cc:permits
           rdf:resource="http://creativecommons.org/ns#Reproduction" />
        <cc:permits
           rdf:resource="http://creativecommons.org/ns#Distribution" />
        <cc:requires
           rdf:resource="http://creativecommons.org/ns#Notice" />
        <cc:requires
           rdf:resource="http://creativecommons.org/ns#Attribution" />
        <cc:permits
           rdf:resource="http://creativecommons.org/ns#DerivativeWorks" />
        <cc:requires
           rdf:resource="http://creativecommons.org/ns#ShareAlike" />
      </cc:License>
    </rdf:RDF>
  </metadata>
  <g
     inkscape:label="Layer 1"
     inkscape:groupmode="layer"
     id="layer1"
     transform="translate(0,-352.36218)">
    <rect
       ry="45"
       rx="45"
       style="color:#000000;fill:#ffffff;fill-opacity:1;stroke:none;stroke-width:2;marker:none;visibility:visible;display:inline;overflow:visible;enable-background:accumulate;opacity:1"
       id="rect7667"
       width="700"
       height="700"
       x="0"
       y="352.36218" />
    <path
       id="rect9536"
       style="color:#000000;display:inline;overflow:visible;visibility:visible;opacity:1;fill:#0d69e1;fill-opacity:1;fill-rule:nonzero;stroke:none;stroke-width:3.543;marker:none;enable-background:accumulate"
       d="M 45 20 C 31.150014 20 20 31.150014 20 45 L 20 655 C 20 668.84999 31.150014 680 45 680 L 448 680 L 448 490 C 448 435.87614 404.12386 392 350 392 C 295.87614 392 252 435.87614 252 490 L 303.34375 490 L 221.46875 630 L 140 490 L 191.34375 490 C 191.34375 402.3709 262.37091 331.34375 350 331.34375 C 386.98696 331.34375 421.01902 343.97016 448 365.1875 L 448 228.65625 C 448 205.61622 439.87235 183.30594 425.0625 165.65625 C 392.29861 126.60978 335.56555 119.56895 294.4375 147.9375 L 327.125 186.90625 L 167.28125 214.1875 L 222.1875 61.78125 L 255.34375 101.34375 C 283.2197 80.575861 315.96704 70.26678 348.625 70 C 394.34443 69.6265 439.87862 88.928118 471.5625 126.6875 C 495.54035 155.26318 508.65625 191.35334 508.65625 228.65625 L 508.65625 490 L 508.65625 513.90625 L 508.65625 680 L 655 680 C 668.84999 680 680 668.84999 680 655 L 680 45 C 680 31.150014 668.84999 20 655 20 L 45 20 z M 119.4375 240.4375 L 132.21875 240.4375 L 132.21875 325.59375 L 117.3125 325.59375 L 117.3125 259.59375 L 105.90625 266.75 L 100.875 260.21875 L 119.4375 240.4375 z M 151.75 240.4375 L 200.71875 240.4375 L 196.46875 254.28125 L 165.59375 254.28125 L 165.59375 274.5 C 167.26347 272.41525 169.38101 271.00414 171.90625 270.25 C 174.43142 269.49598 176.93126 269.1432 179.4375 269.1875 C 185.6253 269.2319 191.33734 271.52498 196.59375 276.09375 C 201.85004 280.66262 204.66726 287.22031 205 295.78125 C 204.88904 304.51968 201.89543 311.81419 196.0625 317.625 C 190.22945 323.43582 182.22434 326.43447 172 326.65625 C 166.96541 326.47882 162.38429 325.77325 158.28125 324.53125 C 154.17817 323.28924 151.99396 322.58368 151.75 322.40625 L 149.625 308.5625 C 152.29278 310.27028 155.44419 311.41386 159.0625 312 C 162.68078 312.58616 166.26344 312.8537 169.84375 312.8125 C 174.36818 312.81251 178.63279 311.50521 182.625 308.84375 C 186.61713 306.18232 188.76506 302.16666 189.03125 296.84375 C 189.00905 292.91815 187.70675 289.35406 185.15625 286.09375 C 182.60565 282.83352 178.93774 281.07465 174.125 280.875 C 170.93123 281.07465 168.25413 282.02414 166.125 283.6875 C 163.99582 285.35094 162.4083 286.54938 161.34375 287.28125 L 151.75 281.96875 L 151.75 240.4375 z M 252.4375 265.90625 C 260.5155 265.90625 266.05023 270.09406 268.14453 276.37695 C 270.23883 270.09406 278.16649 265.90625 285.94531 265.90625 C 297.46395 265.90625 302.69922 273.23554 302.69922 283.70703 L 302.69922 325.59375 L 290.13477 325.59375 L 290.13477 284.75391 C 290.13477 281.61246 289.08758 276.37695 282.80469 276.37695 C 276.67138 276.37695 272.33285 281.61359 269.19141 287.89648 L 269.19141 325.59375 L 256.625 325.59375 L 256.625 284.75391 C 256.625 281.61246 255.57782 276.37695 249.29492 276.37695 C 243.16162 276.37695 238.82309 281.61359 235.68164 287.89648 L 235.68164 325.59375 L 223.11719 325.59375 L 223.11719 266.95312 L 233.88672 266.95312 C 234.3355 269.64579 234.93527 272.33807 235.98242 273.83398 C 235.98242 273.83398 241.96601 265.90625 252.4375 265.90625 z "
       transform="translate(0,352.36218)" />
    <rect
       y="353.36218"
       x="1"
       height="698"
       width="698"
       id="rect7101"
       style="color:#000000;fill:none;stroke:#000000;stroke-width:1.99999988000000010;stroke-miterlimit:4;stroke-opacity:1;stroke-dasharray:none;marker:none;visibility:visible;display:inline;overflow:visible;enable-background:accumulate;opacity:1"
       rx="44"
       ry="44" />
  </g>
</svg>
