<?xml version="1.0" encoding="UTF-8" standalone="no"?>
<svg
   width="2104"
   height="1054"
   version="1.1"
   id="svg52572"
   sodipodi:docname="UZ_road_sign_5.21.1_B.svg"
   inkscape:version="1.2.2 (732a01da63, 2022-12-09)"
   xml:space="preserve"
   xmlns:inkscape="http://www.inkscape.org/namespaces/inkscape"
   xmlns:sodipodi="http://sodipodi.sourceforge.net/DTD/sodipodi-0.dtd"
   xmlns="http://www.w3.org/2000/svg"
   xmlns:svg="http://www.w3.org/2000/svg"
   xmlns:rdf="http://www.w3.org/1999/02/22-rdf-syntax-ns#"
   xmlns:cc="http://creativecommons.org/ns#"
   xmlns:dc="http://purl.org/dc/elements/1.1/"><sodipodi:namedview
     id="namedview52574"
     pagecolor="#ffffff"
     bordercolor="#000000"
     borderopacity="0.25"
     inkscape:showpageshadow="2"
     inkscape:pageopacity="0.0"
     inkscape:pagecheckerboard="0"
     inkscape:deskcolor="#d1d1d1"
     showgrid="false"
     inkscape:zoom="0.62737642"
     inkscape:cx="866.30607"
     inkscape:cy="112.37273"
     inkscape:window-width="1920"
     inkscape:window-height="991"
     inkscape:window-x="-9"
     inkscape:window-y="-9"
     inkscape:window-maximized="1"
     inkscape:current-layer="svg52572" /><defs
     id="defs52536"><style
       id="style52534">.a{fill:#fff}.b{fill:#005ca0}</style><clipPath
       id="clip-0-2"><path
         clip-rule="nonzero"
         d="M 38.398438,18 H 573.60156 V 774 H 38.398438 Z m 0,0"
         id="path8253" /></clipPath></defs><title
     id="title52538">5.21.1 Yoʻnalish koʻrsatkichi	</title><path
     id="rect52540"
     class="a"
     style="fill:#ffffff"
     d="m 42,1 h 2020 c 22.714,0 41,18.286 41,41 v 970 c 0,22.714 -18.286,41 -41,41 H 42 C 19.286,1053 1,1034.714 1,1012 V 42 C 1,19.286 19.286,1 42,1 Z" /><path
     d="M2062 2a40 40 0 0 1 40 40v970a40 40 0 0 1-40 40H42a40 40 0 0 1-40-40V42A40 40 0 0 1 42 2h2020m0-2H42A42.047 42.047 0 0 0 0 42v970a42.047 42.047 0 0 0 42 42h2020a42.047 42.047 0 0 0 42-42V42a42.047 42.047 0 0 0-42-42z"
     id="path52542" /><path
     class="b"
     d="M17 347h2070v295H17zM2087 46.44V332H17V46.44C17 30.18 30.431 17 47 17h2010c16.569 0 30 13.18 30 29.44z"
     id="path52544"
     style="fill:#0d69e1;fill-opacity:1" /><path
     class="a"
     d="M222.839 572v-51.528h103.056v-55.944H222.839V413L87.395 493.972 222.839 572zM127.895 196.694h51.528V299.75h55.944V196.694h51.528L205.922 61.25l-78.027 135.444z"
     id="path52546"
     style="fill:#ffffff" /><path
     d="m 1845.556,745 v 51.528 H 1742.5 v 55.944 h 103.056 V 904 L 1981,823.028 Z"
     id="path52548" /><path
     d="M2087 642v365a30 30 0 0 1-30 30H47a30 30 0 0 1-30-30V642h15v365a15 15 0 0 0 15 15h2010a15 15 0 0 0 15-15V642z"
     id="path52570" /><metadata
     id="metadata52967"><rdf:RDF><cc:Work
         rdf:about=""><dc:title>5.21.1 Yoʻnalish koʻrsatkichi	</dc:title></cc:Work></rdf:RDF></metadata><g
     aria-label="YANGIYOʻL"
     id="text16088"
     style="font-size:170.068px;font-family:'Singapore Road Signs';-inkscape-font-specification:'Singapore Road Signs';fill:#ffffff;fill-rule:evenodd;stroke-width:21.6837;stroke-linecap:square;paint-order:stroke fill markers;fill-opacity:1"><path
       d="m 422.30716,229.76814 h 16.66666 v -38.09523 l 29.7619,-57.14284 h -19.04761 l -19.04762,39.2857 -19.04761,-39.2857 h -19.04762 l 29.7619,57.14284 z"
       style="font-family:'Russian Road Sign';-inkscape-font-specification:'Russian Road Sign';fill:#ffffff;fill-opacity:1"
       id="path16140" /><path
       d="m 521.11656,196.43482 11.90476,-40.47619 11.90475,40.47619 z m 2.38095,-61.90475 -30.95238,95.23807 h 17.85714 l 5.95238,-19.04761 h 33.33333 l 5.95238,19.04761 h 17.85714 l -30.95238,-95.23807 z"
       style="font-family:'Russian Road Sign';-inkscape-font-specification:'Russian Road Sign';fill:#ffffff;fill-opacity:1"
       id="path16142" /><path
       d="m 599.68784,229.76814 h 16.66666 v -69.0476 l 35.71428,69.0476 h 19.04762 v -95.23807 h -16.66666 v 67.85713 l -35.71428,-67.85713 h -19.04762 z"
       style="font-family:'Russian Road Sign';-inkscape-font-specification:'Russian Road Sign';fill:#ffffff;fill-opacity:1"
       id="path16144" /><path
       d="m 737.78292,132.14911 c -26.19047,0 -40.30611,22.44898 -40.30611,49.99999 0,27.55102 14.11564,49.99999 40.30611,49.99999 9.18367,0 14.96598,-4.93197 19.04761,-10.71428 l 3.57143,8.33333 h 14.28571 V 182.1491 h -34.5238 v 14.28572 h 16.66666 c 0,8.33333 -1.19047,10.71428 -5.95238,15.47618 -3.57142,3.57143 -7.14285,4.76191 -13.09523,4.76191 -13.09524,0 -22.61904,-13.09524 -22.61904,-34.52381 0,-21.42856 9.5238,-34.5238 22.61904,-34.5238 8.84354,0 14.96598,4.76191 18.53741,16.66667 l 15.98639,-5.95238 c -5.95238,-15.47619 -16.49659,-26.19048 -34.5238,-26.19048 z"
       style="font-family:'Russian Road Sign';-inkscape-font-specification:'Russian Road Sign';fill:#ffffff;fill-opacity:1"
       id="path16146" /><path
       d="m 800.87804,229.76814 h 16.66667 v -95.23807 h -16.66667 z"
       style="font-family:'Russian Road Sign';-inkscape-font-specification:'Russian Road Sign';fill:#ffffff;fill-opacity:1"
       id="path16148" /><path
       d="m 874.68768,229.76814 h 16.66667 v -38.09523 l 29.7619,-57.14284 h -19.04762 l -19.04761,39.2857 -19.04762,-39.2857 h -19.04761 l 29.76189,57.14284 z"
       style="font-family:'Russian Road Sign';-inkscape-font-specification:'Russian Road Sign';fill:#ffffff;fill-opacity:1"
       id="path16150" /><path
       d="m 983.02086,132.14911 c -26.19047,0 -38.7755,22.44898 -38.7755,49.99999 0,27.55102 12.58503,49.99999 38.7755,49.99999 26.19044,0 38.77554,-22.44897 38.77554,-49.99999 0,-27.55101 -12.5851,-49.99999 -38.77554,-49.99999 z m 0,15.47619 c 13.09524,0 22.61904,13.09524 22.61904,34.5238 0,21.42857 -9.5238,34.52381 -22.61904,34.52381 -13.09523,0 -22.61904,-13.09524 -22.61904,-34.52381 0,-21.42856 9.52381,-34.5238 22.61904,-34.5238 z"
       style="font-family:'Russian Road Sign';-inkscape-font-specification:'Russian Road Sign';fill:#ffffff;fill-opacity:1"
       id="path16152" /><path
       d="m 1054.1092,186.91101 c 5.2721,0 9.5238,-4.2517 9.5238,-9.52381 0,-5.27211 -4.2517,-9.52381 -9.5238,-9.52381 -1.1905,0 -2.551,0.17007 -3.5714,0.68028 v -1.19048 c 0,-5.95238 7.4829,-10.54422 7.4829,-10.54422 l -1.1904,-2.89115 c 0,0 -12.7551,7.14285 -12.7551,19.04761 0,8.33333 2.7211,10.71429 3.7415,11.56463 1.7006,1.36054 3.9115,2.38095 6.2925,2.38095 z"
       style="font-family:'Russian Road Sign';-inkscape-font-specification:'Russian Road Sign';fill:#ffffff;fill-opacity:1"
       id="path16154" /><path
       d="m 1090.1637,229.76814 h 59.5238 v -14.28571 h -42.8571 v -80.95236 h -16.6667 z"
       style="font-family:'Russian Road Sign';-inkscape-font-specification:'Russian Road Sign';fill:#ffffff;fill-opacity:1"
       id="path16156" /></g><g
     aria-label="TOʻY TEPA"
     id="text2863"
     style="font-size:170.068px;fill:#ffffff;stroke-width:14.1723"><path
       d="m 391.35479,446.88106 v 14.28572 h 26.19047 v 80.95236 h 16.66666 v -80.95236 h 26.19047 v -14.28572 z"
       style="font-family:'Russian Road Sign';-inkscape-font-specification:'Russian Road Sign'"
       id="path1805" /><path
       d="m 521.1166,444.50011 c -26.19047,0 -38.7755,22.44898 -38.7755,49.99999 0,27.55102 12.58503,49.99999 38.7755,49.99999 26.19047,0 38.7755,-22.44897 38.7755,-49.99999 0,-27.55101 -12.58503,-49.99999 -38.7755,-49.99999 z m 0,15.47619 c 13.09523,0 22.61904,13.09524 22.61904,34.5238 0,21.42857 -9.52381,34.52381 -22.61904,34.52381 -13.09524,0 -22.61905,-13.09524 -22.61905,-34.52381 0,-21.42856 9.52381,-34.5238 22.61905,-34.5238 z"
       style="font-family:'Russian Road Sign';-inkscape-font-specification:'Russian Road Sign'"
       id="path1807" /><path
       d="m 592.20492,499.26201 c 5.2721,0 9.5238,-4.2517 9.5238,-9.52381 0,-5.27211 -4.2517,-9.52381 -9.5238,-9.52381 -1.19048,0 -2.55102,0.17007 -3.57143,0.68027 v -1.19047 c 0,-5.95238 7.48299,-10.54422 7.48299,-10.54422 l -1.19048,-2.89115 c 0,0 -12.75509,7.14285 -12.75509,19.04761 0,8.33333 2.72108,10.71428 3.74149,11.56462 1.70068,1.36055 3.91156,2.38096 6.29252,2.38096 z"
       style="font-family:'Russian Road Sign';-inkscape-font-specification:'Russian Road Sign'"
       id="path1809" /><path
       d="m 654.44994,542.11914 h 16.66666 v -38.09523 l 29.7619,-57.14285 h -19.04762 l -19.04761,39.28571 -19.04762,-39.28571 h -19.04761 l 29.7619,57.14285 z"
       style="font-family:'Russian Road Sign';-inkscape-font-specification:'Russian Road Sign'"
       id="path1811" /><path
       d="m 808.53142,446.88106 v 14.28572 h 26.19047 v 80.95236 h 16.66667 v -80.95236 h 26.19047 v -14.28572 z"
       style="font-family:'Russian Road Sign';-inkscape-font-specification:'Russian Road Sign'"
       id="path1813" /><path
       d="m 903.76943,542.11914 h 60.71427 v -14.28571 h -44.04761 v -28.57142 h 34.52381 v -14.28572 h -34.52381 v -22.61904 h 42.85714 v -15.47619 h -59.5238 z"
       style="font-family:'Russian Road Sign';-inkscape-font-specification:'Russian Road Sign'"
       id="path1815" /><path
       d="m 995.43603,446.88106 v 95.23808 h 16.66667 v -33.33333 h 15.4762 c 22.619,0 30.9524,-17.85714 30.9524,-30.95237 0,-13.09524 -8.3334,-30.95238 -30.9524,-30.95238 z m 16.66667,14.28572 h 10.7143 c 9.5238,0 19.0476,4.7619 19.0476,16.66666 0,11.90476 -9.5238,16.66666 -19.0476,16.66666 h -10.7143 z"
       style="font-family:'Russian Road Sign';-inkscape-font-specification:'Russian Road Sign'"
       id="path1817" /><path
       d="m 1115.674,508.78581 11.9048,-40.47618 11.9047,40.47618 z m 2.3809,-61.90475 -30.9523,95.23808 h 17.8571 l 5.9524,-19.04761 h 33.3333 l 5.9524,19.04761 h 17.8571 l -30.9523,-95.23808 z"
       style="font-family:'Russian Road Sign';-inkscape-font-specification:'Russian Road Sign'"
       id="path1819" /></g><g
     aria-label="OʻZBEKISTON mehm."
     id="text790"
     style="font-size:170.068px;stroke-width:14.1723"><path
       d="m 126.1705,703.30034 c -26.190472,0 -38.775503,22.44898 -38.775503,49.99999 0,27.55102 12.585031,49.99999 38.775503,49.99999 26.19047,0 38.7755,-22.44897 38.7755,-49.99999 0,-27.55101 -12.58503,-49.99999 -38.7755,-49.99999 z m 0,15.47619 c 13.09523,0 22.61904,13.09524 22.61904,34.5238 0,21.42857 -9.52381,34.52381 -22.61904,34.52381 -13.09524,0 -22.61904,-13.09524 -22.61904,-34.52381 0,-21.42856 9.5238,-34.5238 22.61904,-34.5238 z"
       style="font-family:'Russian Road Sign';-inkscape-font-specification:'Russian Road Sign'"
       id="path1822" /><path
       d="m 197.25881,758.06224 c 5.27211,0 9.52381,-4.2517 9.52381,-9.52381 0,-5.27211 -4.2517,-9.52381 -9.52381,-9.52381 -1.19048,0 -2.55102,0.17007 -3.57143,0.68028 v -1.19048 c 0,-5.95238 7.48299,-10.54422 7.48299,-10.54422 l -1.19047,-2.89115 c 0,0 -12.7551,7.14285 -12.7551,19.04761 0,8.33333 2.72109,10.71429 3.7415,11.56463 1.70067,1.36054 3.91156,2.38095 6.29251,2.38095 z"
       style="font-family:'Russian Road Sign';-inkscape-font-specification:'Russian Road Sign'"
       id="path1824" /><path
       d="m 233.31337,800.91937 h 64.2857 v -14.28571 h -44.04761 l 42.85713,-65.47618 V 705.6813 h -61.90475 v 14.28571 h 41.66666 l -42.85713,65.47618 z"
       style="font-family:'Russian Road Sign';-inkscape-font-specification:'Russian Road Sign'"
       id="path1826" /><path
       d="m 328.55136,705.6813 v 95.23807 h 37.07482 c 17.68707,0 30.78231,-13.09523 30.78231,-28.57142 0,-10.71428 -7.14286,-17.85714 -16.66666,-21.42857 8.33333,-3.57143 13.60544,-11.90476 13.60544,-19.04761 0,-12.58503 -10.03402,-26.19047 -27.89116,-26.19047 z m 16.66666,14.28571 h 19.04762 c 5.95238,0 11.90476,3.91156 11.90476,12.24489 0,7.14286 -4.76191,12.2449 -11.90476,12.2449 h -19.04762 z m 0,38.09523 h 20.23809 c 9.52381,0 14.28572,7.48299 14.28572,14.28571 0,6.80272 -4.76191,14.28571 -14.28572,14.28571 h -20.23809 z"
       style="font-family:'Russian Road Sign';-inkscape-font-specification:'Russian Road Sign'"
       id="path1828" /><path
       d="m 423.78934,800.91937 h 60.71427 V 786.63366 H 440.456 v -28.57142 h 34.5238 V 743.77653 H 440.456 v -22.61905 h 42.85713 V 705.6813 h -59.52379 z"
       style="font-family:'Russian Road Sign';-inkscape-font-specification:'Russian Road Sign'"
       id="path1830" /><path
       d="m 568.51711,800.91937 h 21.42857 L 553.38106,750.40918 587.56473,705.6813 H 566.13616 L 532.9729,750.57925 Z M 532.80284,705.6813 h -16.66667 v 95.23807 h 16.66667 z"
       style="font-family:'Russian Road Sign';-inkscape-font-specification:'Russian Road Sign'"
       id="path1832" /><path
       d="m 614.60556,800.91937 h 16.66666 V 705.6813 h -16.66666 z"
       style="font-family:'Russian Road Sign';-inkscape-font-specification:'Russian Road Sign'"
       id="path1834" /><path
       d="m 661.71456,786.63366 c 0,0 15.98639,16.66666 37.41496,16.66666 23.80951,0 36.56461,-17.85713 36.56461,-29.76189 0,-14.28572 -10.37414,-23.80952 -27.04081,-27.38095 -13.09523,-2.72109 -24.99999,-4.2517 -24.99999,-13.43537 0,-4.59184 3.57143,-13.94558 17.85714,-13.94558 12.41496,0 21.08843,9.52381 21.08843,9.52381 l 11.05442,-11.90476 c 0,0 -15.47619,-13.09524 -32.14285,-13.09524 -20.23809,0 -34.52381,13.09524 -34.52381,29.7619 0,7.31293 3.2313,22.78911 29.7619,26.70068 21.2585,3.06122 21.42857,11.05442 21.42857,14.79591 v 0.17007 c 0,3.57143 -4.08163,13.09524 -18.70748,13.09524 -16.66666,0 -26.0204,-11.22449 -26.0204,-11.22449 z"
       style="font-family:'Russian Road Sign';-inkscape-font-specification:'Russian Road Sign'"
       id="path1836" /><path
       d="m 757.12277,705.6813 v 14.28571 h 26.19047 v 80.95236 h 16.66666 v -80.95236 h 26.19047 V 705.6813 Z"
       style="font-family:'Russian Road Sign';-inkscape-font-specification:'Russian Road Sign'"
       id="path1838" /><path
       d="m 886.88455,703.30034 c -26.19047,0 -38.7755,22.44898 -38.7755,49.99999 0,27.55102 12.58503,49.99999 38.7755,49.99999 26.19047,0 38.7755,-22.44897 38.7755,-49.99999 0,-27.55101 -12.58503,-49.99999 -38.7755,-49.99999 z m 0,15.47619 c 13.09524,0 22.61904,13.09524 22.61904,34.5238 0,21.42857 -9.5238,34.52381 -22.61904,34.52381 -13.09524,0 -22.61904,-13.09524 -22.61904,-34.52381 0,-21.42856 9.5238,-34.5238 22.61904,-34.5238 z"
       style="font-family:'Russian Road Sign';-inkscape-font-specification:'Russian Road Sign'"
       id="path1840" /><path
       d="m 951.17015,800.91937 h 16.66666 v -69.0476 l 35.71429,69.0476 h 19.0476 V 705.6813 h -16.6667 v 67.85713 L 970.21776,705.6813 h -19.04761 z"
       style="font-family:'Russian Road Sign';-inkscape-font-specification:'Russian Road Sign'"
       id="path1842" /><path
       d="m 1169.5374,733.06224 c -11.9048,0 -18.7075,9.01361 -18.7075,9.01361 -1.1905,-1.70068 -1.8708,-4.76191 -2.381,-7.82313 h -12.2449 v 66.66665 h 14.2857 v -42.85713 c 3.5715,-7.14286 8.5034,-13.09524 15.4762,-13.09524 7.1429,0 8.3334,5.95238 8.3334,9.52381 v 46.42856 h 14.2857 v -42.85713 c 3.5714,-7.14286 8.5034,-13.09524 15.4762,-13.09524 7.1428,0 8.3333,5.95238 8.3333,9.52381 v 46.42856 h 14.2857 v -47.61904 c 0,-11.90476 -5.9524,-20.23809 -19.0476,-20.23809 -8.8436,0 -17.8572,4.76191 -20.2381,11.90476 -2.381,-7.14285 -8.6735,-11.90476 -17.8571,-11.90476 z"
       style="font-family:'Russian Road Sign';-inkscape-font-specification:'Russian Road Sign'"
       id="path1844" /><path
       d="m 1279.0613,743.77653 c 7.1429,0 15.4762,7.31292 15.4762,14.28571 0,1.19047 -0.3401,2.38095 -1.1905,2.38095 h -29.7619 c 0,-9.52381 8.3334,-16.66666 15.4762,-16.66666 z m 27.381,28.57142 c 2.0408,0 3.5714,-3.57143 3.5714,-7.14286 0,-17.85714 -14.2857,-33.33332 -30.9524,-33.33332 -9.0136,0 -18.7074,4.7619 -24.4898,11.90476 -4.9319,5.95238 -6.8027,13.7755 -6.8027,24.48979 0,21.08843 14.7959,35.034 32.483,35.034 8.3333,0 20.2381,-3.57142 27.381,-15.47618 l -11.9048,-6.63265 c -4.7619,5.95238 -8.3333,9.0136 -14.2857,9.0136 -5.9524,0 -17.8572,-3.57143 -17.8572,-17.85714 z"
       style="font-family:'Russian Road Sign';-inkscape-font-specification:'Russian Road Sign'"
       id="path1846" /><path
       d="m 1371.9183,733.06224 c -11.9048,0 -20.2381,10.71429 -20.2381,10.71429 V 705.6813 h -14.2857 v 95.23807 h 14.2857 v -42.85713 c 3.5714,-7.14286 9.6939,-13.09524 16.6667,-13.09524 7.1428,0 9.5238,5.95238 9.5238,9.52381 v 46.42856 h 14.2857 v -47.61904 c 0,-11.90476 -7.1429,-20.23809 -20.2381,-20.23809 z"
       style="font-family:'Russian Road Sign';-inkscape-font-specification:'Russian Road Sign'"
       id="path1848" /><path
       d="m 1449.2993,733.06224 c -11.9047,0 -18.7075,9.01361 -18.7075,9.01361 -1.1904,-1.70068 -1.8707,-4.76191 -2.3809,-7.82313 h -12.2449 v 66.66665 h 14.2857 v -42.85713 c 3.5714,-7.14286 8.5034,-13.09524 15.4762,-13.09524 7.1428,0 8.3333,5.95238 8.3333,9.52381 v 46.42856 h 14.2857 v -42.85713 c 3.5715,-7.14286 8.5034,-13.09524 15.4762,-13.09524 7.1429,0 8.3333,5.95238 8.3333,9.52381 v 46.42856 h 14.2858 v -47.61904 c 0,-11.90476 -5.9524,-20.23809 -19.0477,-20.23809 -8.8435,0 -17.8571,4.76191 -20.238,11.90476 -2.381,-7.14285 -8.6735,-11.90476 -17.8572,-11.90476 z"
       style="font-family:'Russian Road Sign';-inkscape-font-specification:'Russian Road Sign'"
       id="path1850" /><path
       d="m 1545.3878,791.39556 c 0,-5.61224 -4.7619,-10.37414 -10.3741,-10.37414 -5.7824,0 -10.3742,4.7619 -10.3742,10.37414 0,5.78232 4.5918,10.37415 10.3742,10.37415 5.6122,0 10.3741,-4.59183 10.3741,-10.37415 z"
       style="font-family:'Russian Road Sign';-inkscape-font-specification:'Russian Road Sign'"
       id="path1852" /></g><g
     aria-label="Hotel UZBEKISTAN"
     id="text2859"
     style="font-size:170.068px;stroke-width:14.1723"><path
       d="m 91.646697,951.67505 h 16.666663 v -42.85714 h 35.71428 v 42.85714 H 160.6943 V 856.43697 H 144.02764 V 894.5322 H 108.31336 V 856.43697 H 91.646697 Z"
       style="font-family:'Russian Road Sign';-inkscape-font-specification:'Russian Road Sign'"
       id="path1855" /><path
       d="m 219.02751,882.62744 c -17.85714,0 -30.95237,14.28572 -30.95237,35.71428 0,21.42857 13.09523,35.71428 30.95237,35.71428 17.85714,0 30.95238,-14.28571 30.95238,-35.71428 0,-21.42856 -13.09524,-35.71428 -30.95238,-35.71428 z m 0,11.90476 c 9.52381,0 16.66667,9.52381 16.66667,23.80952 0,14.28571 -7.14286,23.80952 -16.66667,23.80952 -9.5238,0 -16.66666,-9.52381 -16.66666,-23.80952 0,-14.28571 7.14286,-23.80952 16.66666,-23.80952 z"
       style="font-family:'Russian Road Sign';-inkscape-font-specification:'Russian Road Sign'"
       id="path1857" /><path
       d="m 296.40839,856.43697 -14.28571,5.95238 v 22.61905 h -9.52381 v 13.09523 h 9.52381 v 38.09523 c 0,11.90476 9.35374,16.66666 21.42857,16.66666 2.38095,0 10.71428,-1.19047 14.28571,-2.38095 l -2.89116,-13.09523 c -1.87074,1.19047 -6.29251,2.55102 -9.86394,2.55102 -0.17007,0 -0.34014,0 -0.34014,-0.17007 -3.57142,0 -8.33333,-2.38095 -8.33333,-7.14286 v -34.5238 h 19.04762 V 885.0084 h -19.04762 z"
       style="font-family:'Russian Road Sign';-inkscape-font-specification:'Russian Road Sign'"
       id="path1859" /><path
       d="m 371.40841,894.5322 c 7.14286,0 15.47619,7.31293 15.47619,14.28571 0,1.19048 -0.34014,2.38096 -1.19048,2.38096 h -29.7619 c 0,-9.52381 8.33334,-16.66667 15.47619,-16.66667 z m 27.38095,28.57143 c 2.04081,0 3.57143,-3.57143 3.57143,-7.14286 0,-17.85714 -14.28572,-33.33333 -30.95238,-33.33333 -9.0136,0 -18.70748,4.76191 -24.48979,11.90476 -4.93197,5.95238 -6.80272,13.77551 -6.80272,24.48979 0,21.08844 14.79592,35.03401 32.48299,35.03401 8.33333,0 20.23809,-3.57143 27.38094,-15.47619 l -11.90476,-6.63265 c -4.7619,5.95238 -8.33333,9.01361 -14.28571,9.01361 -5.95238,0 -17.85714,-3.57143 -17.85714,-17.85714 z"
       style="font-family:'Russian Road Sign';-inkscape-font-specification:'Russian Road Sign'"
       id="path1861" /><path
       d="m 430.93217,856.43697 v 84.5238 c 0,7.48299 4.2517,11.90475 13.09524,11.90475 h 7.14286 c 2.38095,0 5.95237,0 9.5238,-1.19047 l -2.38095,-13.09524 c 0,0 -3.57143,1.19048 -7.14285,1.19048 -3.57143,0 -5.95238,-1.19048 -5.95238,-5.95238 v -77.38094 z"
       style="font-family:'Russian Road Sign';-inkscape-font-specification:'Russian Road Sign'"
       id="path1863" /><path
       d="m 569.36737,856.43697 v 64.2857 c 0,1.19048 1.19048,32.14285 34.5238,32.14285 33.33333,0 34.5238,-30.95237 34.5238,-32.14285 v -64.2857 h -16.66666 v 65.47618 c 0,13.09524 -10.71428,17.85714 -17.85714,17.85714 -7.14285,0 -17.85714,-4.7619 -17.85714,-17.85714 v -65.47618 z"
       style="font-family:'Russian Road Sign';-inkscape-font-specification:'Russian Road Sign'"
       id="path1865" /><path
       d="m 669.36722,951.67505 h 64.2857 v -14.28571 h -44.04761 l 42.85713,-65.47618 v -15.47619 h -61.90475 v 14.28571 h 41.66666 l -42.85713,65.47618 z"
       style="font-family:'Russian Road Sign';-inkscape-font-specification:'Russian Road Sign'"
       id="path1867" /><path
       d="m 764.60519,856.43697 v 95.23808 h 37.07483 c 17.68707,0 30.7823,-13.09524 30.7823,-28.57142 0,-10.71429 -7.14285,-17.85714 -16.66666,-21.42857 8.33333,-3.57143 13.60544,-11.90476 13.60544,-19.04762 0,-12.58503 -10.03401,-26.19047 -27.89115,-26.19047 z m 16.66667,14.28571 h 19.04761 c 5.95238,0 11.90476,3.91157 11.90476,12.2449 0,7.14286 -4.7619,12.2449 -11.90476,12.2449 h -19.04761 z m 0,38.09523 h 20.23809 c 9.5238,0 14.28571,7.483 14.28571,14.28572 0,6.80272 -4.76191,14.28571 -14.28571,14.28571 h -20.23809 z"
       style="font-family:'Russian Road Sign';-inkscape-font-specification:'Russian Road Sign'"
       id="path1869" /><path
       d="M 859.84323,951.67505 H 920.5575 V 937.38934 H 876.50989 V 908.81791 H 911.0337 V 894.5322 h -34.52381 v -22.61904 h 42.85714 v -15.47619 h -59.5238 z"
       style="font-family:'Russian Road Sign';-inkscape-font-specification:'Russian Road Sign'"
       id="path1871" /><path
       d="m 1004.571,951.67505 h 21.4286 l -36.56464,-50.5102 34.18364,-44.72788 h -21.4285 l -33.1633,44.89795 z m -35.71427,-95.23808 h -16.66666 v 95.23808 h 16.66666 z"
       style="font-family:'Russian Road Sign';-inkscape-font-specification:'Russian Road Sign'"
       id="path1873" /><path
       d="m 1050.6595,951.67505 h 16.6666 v -95.23808 h -16.6666 z"
       style="font-family:'Russian Road Sign';-inkscape-font-specification:'Russian Road Sign'"
       id="path1875" /><path
       d="m 1097.7684,937.38934 c 0,0 15.9864,16.66666 37.4149,16.66666 23.8096,0 36.5647,-17.85714 36.5647,-29.7619 0,-14.28571 -10.3742,-23.80952 -27.0408,-27.38094 -13.0953,-2.72109 -25,-4.2517 -25,-13.43538 0,-4.59183 3.5714,-13.94557 17.8571,-13.94557 12.415,0 21.0884,9.52381 21.0884,9.52381 l 11.0545,-11.90476 c 0,0 -15.4762,-13.09524 -32.1429,-13.09524 -20.2381,0 -34.5238,13.09524 -34.5238,29.7619 0,7.31292 3.2313,22.78911 29.7619,26.70067 21.2585,3.06123 21.4286,11.05442 21.4286,14.79592 v 0.17007 c 0,3.57143 -4.0817,13.09523 -18.7075,13.09523 -16.6667,0 -26.0204,-11.22448 -26.0204,-11.22448 z"
       style="font-family:'Russian Road Sign';-inkscape-font-specification:'Russian Road Sign'"
       id="path1877" /><path
       d="m 1193.1767,856.43697 v 14.28571 h 26.1904 v 80.95237 h 16.6667 v -80.95237 h 26.1905 v -14.28571 z"
       style="font-family:'Russian Road Sign';-inkscape-font-specification:'Russian Road Sign'"
       id="path1879" /><path
       d="m 1313.4146,918.34172 11.9048,-40.47618 11.9048,40.47618 z m 2.381,-61.90475 -30.9524,95.23808 h 17.8572 l 5.9523,-19.04762 h 33.3334 l 5.9523,19.04762 h 17.8572 l -30.9524,-95.23808 z"
       style="font-family:'Russian Road Sign';-inkscape-font-specification:'Russian Road Sign'"
       id="path1881" /><path
       d="m 1391.9859,951.67505 h 16.6666 v -69.04761 l 35.7143,69.04761 h 19.0476 v -95.23808 h -16.6666 v 67.85713 l -35.7143,-67.85713 h -19.0476 z"
       style="font-family:'Russian Road Sign';-inkscape-font-specification:'Russian Road Sign'"
       id="path1883" /></g><g
     aria-label="40"
     id="text2875"
     style="font-size:170.068px;fill:#ffffff;stroke-width:14.1723"><path
       d="m 1584.1953,448.13082 -46.4285,61.90475 v 14.28571 h 45.238 v 19.04762 h 16.6667 v -19.04762 h 6.4626 l 5.4422,-14.28571 h -13.0953 v -61.90475 z m -1.1905,25 v 36.90475 h -27.3809 z"
       style="font-family:'Russian Road Sign';-inkscape-font-specification:'Russian Road Sign'"
       id="path1886" /><path
       d="m 1660.2158,446.94034 c -19.0477,0 -32.1429,20.2381 -32.1429,48.80952 0,28.57142 13.0952,48.80951 32.1429,48.80951 19.0476,0 32.1428,-20.23809 32.1428,-48.80951 0,-27.04081 -13.0952,-48.80952 -32.1428,-48.80952 z m 0,14.79592 c 9.1836,0 15.4761,10.20408 15.4761,34.0136 0,23.80952 -6.2925,34.0136 -15.4761,34.0136 -9.1837,0 -15.4762,-10.20408 -15.4762,-34.0136 0,-23.80952 6.2925,-34.0136 15.4762,-34.0136 z"
       style="font-family:'Russian Road Sign';-inkscape-font-specification:'Russian Road Sign'"
       id="path1888" /></g><g
     aria-label="234"
     id="text2871"
     style="font-size:170.068px;fill:#ffffff;stroke-width:14.1723"><path
       d="m 1456.9843,147.6253 9.5239,10.71429 c 5.9523,-5.95238 11.9047,-12.41497 19.0476,-12.41497 8.3333,0 13.7755,6.46259 13.7755,12.41497 0,9.5238 -4.2517,14.28571 -10.034,21.08843 -10.7143,12.7551 -21.5987,24.14965 -34.6939,36.05441 v 14.28571 h 57.1428 c 2.381,-5.95238 3.5715,-11.90476 3.5715,-15.47618 h -39.2857 c 12.2449,-12.92517 23.4693,-23.29932 30.9523,-32.82313 6.1225,-7.48299 8.3334,-11.22448 8.3334,-23.12924 0,-14.28572 -14.2857,-25 -27.381,-25 -14.2857,0 -23.8095,6.12245 -30.9524,14.28571 z"
       style="font-family:'Russian Road Sign';-inkscape-font-specification:'Russian Road Sign'"
       id="path1891" /><path
       d="m 1539.1271,140.48245 6.2926,14.11564 c 6.8027,-5.78231 11.5646,-8.16326 21.0884,-8.16326 5.9524,0 11.9048,4.7619 11.9048,10.71428 0,7.14286 -9.5239,15.47619 -21.4286,17.85714 v 13.09523 c 2.3809,-1.19047 5.4422,-1.19047 8.3333,-1.19047 15.4762,0 16.8368,9.86394 16.8368,13.94557 -0.1701,11.05442 -9.6939,15.81633 -20.4082,15.81633 -7.8231,0 -18.1973,-1.36055 -23.9796,-5.27211 l 2.0408,16.66666 c 0,0 14.7959,4.08163 24.3197,4.08163 22.6191,0 35.034,-16.66666 35.034,-30.95237 0,-15.47619 -17.1768,-22.61904 -23.1292,-23.80952 9.5238,-1.19048 19.0476,-10.71428 19.0476,-23.80952 0,-13.09523 -13.6054,-21.59863 -25.5102,-21.59863 -9.5238,0 -24.4898,4.93197 -30.4422,8.5034 z"
       style="font-family:'Russian Road Sign';-inkscape-font-specification:'Russian Road Sign'"
       id="path1893" /><path
       d="m 1664.9776,134.53007 -46.4286,61.90475 v 14.28571 h 45.2381 v 19.04761 h 16.6667 v -19.04761 h 6.4626 l 5.4422,-14.28571 h -13.0953 v -61.90475 z m -1.1905,24.99999 v 36.90476 h -27.3809 z"
       style="font-family:'Russian Road Sign';-inkscape-font-specification:'Russian Road Sign'"
       id="path1895" /></g><g
     aria-label="3"
     id="text2879"
     style="font-size:170.068px;stroke-width:14.1723"><path
       d="m 1632.3246,784.25361 6.2926,14.11564 c 6.8027,-5.78231 11.5646,-8.16326 21.0884,-8.16326 5.9524,0 11.9047,4.7619 11.9047,10.71428 0,7.14286 -9.5238,15.47619 -21.4285,17.85714 v 13.09524 c 2.3809,-1.19048 5.4422,-1.19048 8.3333,-1.19048 15.4762,0 16.8367,9.86395 16.8367,13.94558 -0.17,11.05442 -9.6938,15.81632 -20.4081,15.81632 -7.8231,0 -18.1973,-1.36054 -23.9796,-5.27211 l 2.0408,16.66667 c 0,0 14.7959,4.08163 24.3197,4.08163 22.6191,0 35.034,-16.66666 35.034,-30.95238 0,-15.47618 -17.1768,-22.61904 -23.1292,-23.80952 9.5238,-1.19047 19.0476,-10.71428 19.0476,-23.80951 0,-13.09524 -13.6054,-21.59864 -25.5102,-21.59864 -9.5238,0 -24.4898,4.93197 -30.4422,8.5034 z"
       style="font-family:'Russian Road Sign';-inkscape-font-specification:'Russian Road Sign'"
       id="path1898" /></g></svg>
