<?xml version="1.0" encoding="UTF-8" standalone="no"?>
<!-- Created with Inkscape (http://www.inkscape.org/) -->

<svg
   width="1866.6666"
   height="1066.6666"
   id="svg2"
   version="1.1"
   inkscape:version="1.2.2 (732a01da63, 2022-12-09)"
   sodipodi:docname="KG_road_sign_6.9.1_D.svg"
   viewBox="0 0 1750 1000"
   xml:space="preserve"
   xmlns:inkscape="http://www.inkscape.org/namespaces/inkscape"
   xmlns:sodipodi="http://sodipodi.sourceforge.net/DTD/sodipodi-0.dtd"
   xmlns="http://www.w3.org/2000/svg"
   xmlns:svg="http://www.w3.org/2000/svg"
   xmlns:rdf="http://www.w3.org/1999/02/22-rdf-syntax-ns#"
   xmlns:cc="http://creativecommons.org/ns#"
   xmlns:dc="http://purl.org/dc/elements/1.1/"><title
     id="title3006">5.20.1 Yoʻnalishlarning dastlabki koʻrsatkichi</title><defs
     id="defs4" /><sodipodi:namedview
     id="base"
     pagecolor="#ffffff"
     bordercolor="#666666"
     borderopacity="1.0"
     inkscape:pageopacity="0.0"
     inkscape:pageshadow="2"
     inkscape:zoom="0.35355339"
     inkscape:cx="937.62359"
     inkscape:cy="397.39401"
     inkscape:document-units="px"
     inkscape:current-layer="layer1"
     showgrid="false"
     inkscape:window-width="1920"
     inkscape:window-height="991"
     inkscape:window-x="-9"
     inkscape:window-y="-9"
     inkscape:window-maximized="1"
     inkscape:snap-bbox="true"
     inkscape:bbox-paths="true"
     inkscape:bbox-nodes="true"
     inkscape:snap-bbox-edge-midpoints="true"
     inkscape:snap-bbox-midpoints="true"
     inkscape:object-paths="true"
     inkscape:snap-intersection-paths="true"
     inkscape:object-nodes="true"
     inkscape:snap-smooth-nodes="true"
     inkscape:snap-midpoints="true"
     inkscape:snap-object-midpoints="true"
     showguides="true"
     inkscape:guide-bbox="true"
     inkscape:showpageshadow="2"
     inkscape:pagecheckerboard="0"
     inkscape:deskcolor="#d1d1d1" /><metadata
     id="metadata7"><rdf:RDF><cc:Work
         rdf:about=""><dc:format>image/svg+xml</dc:format><dc:type
           rdf:resource="http://purl.org/dc/dcmitype/StillImage" /><dc:title>5.20.1 Yoʻnalishlarning dastlabki koʻrsatkichi</dc:title><cc:license
           rdf:resource="http://creativecommons.org/licenses/by-sa/3.0/" /><dc:description>ГОСТ Р 52290-2004</dc:description></cc:Work><cc:License
         rdf:about="http://creativecommons.org/licenses/by-sa/3.0/"><cc:permits
           rdf:resource="http://creativecommons.org/ns#Reproduction" /><cc:permits
           rdf:resource="http://creativecommons.org/ns#Distribution" /><cc:requires
           rdf:resource="http://creativecommons.org/ns#Notice" /><cc:requires
           rdf:resource="http://creativecommons.org/ns#Attribution" /><cc:permits
           rdf:resource="http://creativecommons.org/ns#DerivativeWorks" /><cc:requires
           rdf:resource="http://creativecommons.org/ns#ShareAlike" /></cc:License></rdf:RDF></metadata><g
     inkscape:label="Layer 1"
     inkscape:groupmode="layer"
     id="layer1"
     transform="translate(0,-52.36218)"><rect
       rx="45"
       ry="45"
       y="52.362179"
       x="0"
       height="1000"
       width="1750"
       id="rect12587"
       style="color:#000000;display:inline;overflow:visible;visibility:visible;opacity:1;fill:#ffffff;fill-opacity:1;fill-rule:nonzero;stroke:none;stroke-width:3.543;marker:none;enable-background:accumulate" /><path
       inkscape:connector-curvature="0"
       style="color:#000000;display:inline;overflow:visible;visibility:visible;opacity:1;fill:#000000;fill-opacity:1;fill-rule:nonzero;stroke:none;stroke-width:3.543;marker:none;enable-background:accumulate"
       d="m 114.99998,462.36217 c -16.620001,0 -30.000001,13.38 -30.000001,30 v 180 c 0,16.62 13.38,30 30.000001,30 H 1030 c 16.62,0 30,-13.38 30,-30 v -180 c 0,-16.62 -13.38,-30 -30,-30 z m 0,5 H 1030 c 13.85,0 25,11.15 25,25 v 180 c 0,13.85 -11.15,25 -25,25 H 114.99998 c -13.85,0 -25.000001,-11.15 -25.000001,-25 v -180 c 0,-13.85 11.150001,-25 25.000001,-25 z"
       id="rect12493" /><path
       id="rect12503"
       style="color:#000000;display:inline;overflow:visible;visibility:visible;opacity:1;fill:#0d69e1;fill-opacity:1;fill-rule:nonzero;stroke:none;stroke-width:3.543;marker:none;enable-background:accumulate"
       d="M 114.99939 477.3628 C 106.68941 477.3628 99.999393 484.05282 99.999393 492.3628 L 99.999393 672.36281 C 99.999393 680.67279 106.68941 687.36281 114.99939 687.36281 L 1029.9994 687.36281 C 1038.3094 687.36281 1044.9994 680.67279 1044.9994 672.36281 L 1044.9994 492.3628 C 1044.9994 484.05282 1038.3094 477.3628 1029.9994 477.3628 L 114.99939 477.3628 z M 262.62452 501.08046 L 287.43714 501.86232 L 246.50025 570.67518 L 268.0005 570.76857 L 280.34364 555.92421 L 302.53053 553.89357 L 286.93726 582.36281 L 302.53053 610.83021 L 280.34364 608.79957 L 268.0005 593.95521 L 246.50025 594.05043 L 287.43714 662.86147 L 262.62452 663.64333 L 204.90601 594.2372 L 153.68775 594.45509 L 153.56324 594.45509 C 153.55324 594.45499 153.54211 594.45509 153.53211 594.45509 C 146.92193 594.40349 141.50238 588.91197 141.53138 582.29872 C 141.56238 575.67618 147.06557 570.20936 153.68775 570.23756 L 204.90601 570.48659 L 262.62452 501.08046 z M 487.27663 529.2494 C 515.01597 529.2494 528.34535 553.02681 528.34535 582.20717 C 528.34535 611.38752 515.01597 635.1631 487.27663 635.1631 C 459.53727 635.1631 446.2079 611.38752 446.2079 582.20717 C 446.2079 553.02681 459.53727 529.2494 487.27663 529.2494 z M 820.14956 529.2494 C 847.88891 529.2494 861.21829 553.02681 861.21829 582.20717 C 861.21829 611.38752 847.88891 635.1631 820.14956 635.1631 C 792.41021 635.1631 779.08083 611.38752 779.08083 582.20717 C 779.08083 553.02681 792.41021 529.2494 820.14956 529.2494 z M 399.01429 531.77076 L 416.66749 531.77076 L 416.66749 610.12526 C 416.66749 622.01355 406.57933 635.1631 388.92701 635.1631 C 382.62262 635.1631 370.01405 632.64174 370.01405 632.64174 L 371.27565 614.99037 C 371.27565 614.99037 378.84109 617.51173 387.66725 617.51173 C 392.71076 617.51173 399.01429 613.72856 399.01429 605.08253 L 399.01429 531.77076 z M 555.3644 531.77076 L 575.53896 531.77076 L 603.27761 578.42421 L 631.01625 531.77076 L 651.19082 531.77076 L 651.19082 632.64174 L 634.79921 632.64174 L 633.53945 559.51124 L 603.27761 612.46718 L 573.01576 559.51124 L 573.01576 632.64174 L 555.3644 632.64174 L 555.3644 531.77076 z M 682.71425 531.77076 L 721.79995 531.77076 C 740.71314 531.77076 751.34219 546.18195 751.34219 559.51124 C 751.34219 567.07653 745.75795 575.90134 736.93178 579.68397 C 747.01882 583.46662 754.58315 591.03198 754.58315 602.3799 C 754.58315 618.77133 740.71429 632.64174 721.98122 632.64174 L 682.71425 632.64174 L 682.71425 531.77076 z M 885.71597 531.77076 L 905.8887 531.77076 L 926.06326 573.37965 L 946.23782 531.77076 L 966.41238 531.77076 L 934.88894 592.29445 L 934.88894 632.64174 L 917.23758 632.64174 L 917.23758 592.29445 L 885.71597 531.77076 z M 487.27663 545.641 C 473.40695 545.641 463.31911 559.51133 463.31911 582.20717 C 463.31911 604.90299 473.40695 618.7715 487.27663 618.7715 C 501.14629 618.7715 511.23415 604.90299 511.23415 582.20717 C 511.23415 559.51133 501.14629 545.641 487.27663 545.641 z M 820.14956 545.641 C 806.27988 545.641 796.19204 559.51133 796.19204 582.20717 C 796.19204 604.90299 806.27988 618.7715 820.14956 618.7715 C 834.01924 618.7715 844.10708 604.90299 844.10708 582.20717 C 844.10708 559.51133 834.01924 545.641 820.14956 545.641 z M 700.36562 546.9026 L 700.36562 572.83949 L 720.54018 572.83949 C 728.10547 572.83949 733.14883 567.4354 733.14883 559.87013 C 733.14883 551.04397 726.84459 546.9026 720.54018 546.9026 L 700.36562 546.9026 z M 700.36562 587.24989 L 700.36562 617.51173 L 721.79995 617.51173 C 731.88698 617.51173 736.93178 609.58492 736.93178 602.3799 C 736.93178 595.17486 731.88698 587.24989 721.79995 587.24989 L 700.36562 587.24989 z " /><g
       style="font-style:normal;font-variant:normal;font-weight:normal;font-stretch:normal;font-size:178.573px;line-height:125%;font-family:Arial;-inkscape-font-specification:Arial;letter-spacing:-7px;word-spacing:0px;fill:#000000;fill-opacity:1;stroke:none"
       id="text7949-7"
       transform="matrix(1.0000014,0,0,1.0000014,-4.0403199e-4,-1.915558e-4)" /><path
       style="color:#000000;display:inline;overflow:visible;visibility:visible;opacity:1;fill:#000000;fill-opacity:1;fill-rule:nonzero;stroke:none;stroke-width:3.543;marker:none;enable-background:accumulate"
       d="M 45,12 C 26.718,12 12,26.718 12,45 v 910 c 0,18.282 14.718,33 33,33 h 1660 c 18.282,0 33,-14.718 33,-33 V 45 c 0,-18.282 -14.718,-33 -33,-33 z m 0,6 h 1660 c 14.958,0 27,12.042 27,27 v 910 c 0,14.958 -12.042,27 -27,27 H 1154.5 V 829 c 0,-29.82338 24.1766,-54 54,-54 H 1375 v 48 L 1504.9062,748 1375,673 v 48 h -166.5 c -19.677,0 -38.1116,5.27478 -54,14.46875 V 369.9375 h 48 l -75,-129.875 -75,129.875 h 48 V 735.46875 C 1084.6116,726.27478 1066.177,721 1046.5,721 H 370 V 673 L 240.09375,748 370,823 v -48 h 676.5 c 29.8234,0 54,24.17662 54,54 V 982 H 45 C 30.042,982 18,969.958 18,955 V 45 C 18,30.042 30.042,18 45,18 Z"
       transform="translate(0,52.36218)"
       id="rect12591" /><g
       aria-label="150m"
       id="text5727"
       style="font-size:133.929px;line-height:1.5;font-family:'Russian Road Sign';-inkscape-font-specification:'Russian Road Sign';letter-spacing:0px;fill-rule:evenodd;stroke-width:25;stroke-linecap:round;paint-order:stroke fill markers"><path
         d="m 706.34749,906.77271 4.41965,5.75895 10.04468,-6.29466 v 58.12518 h 13.12504 v -75.00024 h -11.25004 z"
         id="path5729" /><path
         d="m 797.68713,901.54948 3.75001,-12.18754 h -43.12513 v 36.56262 l 8.43752,4.68751 c 1.87501,-0.9375 5.62502,-5.62501 11.25004,-5.62501 8.43753,0 13.12504,7.50002 13.12504,14.06254 0,9.37503 -9.37503,14.06255 -16.87505,14.06255 -6.16074,0 -13.25897,-0.66965 -17.81256,-3.75002 l 1.87501,12.18754 c 0,0 9.37503,3.75002 17.81255,3.75002 17.81256,0 29.0626,-12.18754 29.0626,-27.18759 0,-15.00005 -12.18754,-23.43758 -22.50008,-23.43758 -4.28572,0 -9.37503,0.93751 -12.18753,4.68752 v -17.81256 z"
         id="path5731" /><path
         d="m 847.64272,888.42444 c -15.00004,0 -25.31258,15.93755 -25.31258,38.43762 0,22.50007 10.31254,38.43763 25.31258,38.43763 15.00005,0 25.31259,-15.93756 25.31259,-38.43763 0,-21.29471 -10.31254,-38.43762 -25.31259,-38.43762 z m 0,11.65182 c 7.23217,0 12.18754,8.03574 12.18754,26.7858 0,18.75006 -4.95537,26.7858 -12.18754,26.7858 -7.23216,0 -12.18753,-8.03574 -12.18753,-26.7858 0,-18.75006 4.95537,-26.7858 12.18753,-26.7858 z"
         id="path5733" /><path
         d="m 918.89291,910.92451 c -9.37503,0 -14.73219,7.09824 -14.73219,7.09824 -0.9375,-1.33929 -1.47322,-3.75001 -1.875,-6.16074 h -9.64289 v 52.50017 h 11.25003 v -33.75011 c 2.81251,-5.62501 6.69645,-10.31253 12.18754,-10.31253 5.62502,0 6.56252,4.68752 6.56252,7.50003 v 36.56261 h 11.25004 v -33.75011 c 2.81251,-5.62501 6.69645,-10.31253 12.18754,-10.31253 5.62502,0 6.56252,4.68752 6.56252,7.50003 v 36.56261 h 11.25004 v -37.50012 c 0,-9.37503 -4.68752,-15.93755 -15.00005,-15.93755 -6.96431,0 -14.06255,3.75001 -15.93755,9.37503 -1.87501,-5.62502 -6.83038,-9.37503 -14.06255,-9.37503 z"
         id="path5735" /></g><rect
       style="color:#000000;display:inline;overflow:visible;visibility:visible;opacity:1;fill:none;fill-opacity:1;fill-rule:nonzero;stroke:#000000;stroke-width:2;stroke-miterlimit:4;stroke-dasharray:none;stroke-opacity:1;marker:none;enable-background:accumulate"
       id="rect12728"
       width="1748"
       height="998"
       x="1"
       y="53.362179"
       ry="44"
       rx="44" /><g
       aria-label="SAMARQAND"
       id="text5611"
       style="font-size:167.411px;line-height:1.5;font-family:'Russian Road Sign';-inkscape-font-specification:'Russian Road Sign';fill-rule:evenodd;stroke-width:31.2501;stroke-linecap:round;paint-order:stroke fill markers"><path
         d="m 548.23559,226.89394 c 0,0 15.73663,16.40628 36.83041,16.40628 23.43754,0 35.99337,-17.57815 35.99337,-29.29692 0,-14.06253 -10.21207,-23.43754 -26.61835,-26.95317 -12.89065,-2.67858 -24.60942,-4.18528 -24.60942,-13.22547 0,-4.5201 3.51563,-13.7277 17.57816,-13.7277 12.221,0 20.75896,9.37501 20.75896,9.37501 l 10.88172,-11.71877 c 0,0 -15.2344,-12.89064 -31.64068,-12.89064 -19.92191,0 -33.98443,12.89064 -33.98443,29.29692 0,7.19867 3.18081,22.43307 29.29692,26.28353 20.92638,3.01339 21.09379,10.88171 21.09379,14.56475 v 0.16741 c 0,3.51563 -4.01787,12.89065 -18.41521,12.89065 -16.40628,0 -25.61389,-11.04913 -25.61389,-11.04913 z"
         id="path5751" /><path
         d="m 671.45016,208.14391 11.71877,-39.84382 11.71876,39.84382 z m 2.34375,-60.9376 -30.4688,93.75016 h 17.57815 l 5.85939,-18.75003 h 32.81255 l 5.85939,18.75003 h 17.57815 l -30.4688,-93.75016 z"
         id="path5753" /><path
         d="m 748.79391,240.95647 h 16.40628 V 172.9876 l 28.12504,49.21884 28.12505,-49.21884 1.17188,67.96887 h 15.2344 v -93.75016 h -18.75003 l -25.7813,43.35945 -25.78129,-43.35945 h -18.75003 z"
         id="path5755" /><path
         d="m 891.76304,208.14391 11.71877,-39.84382 11.71877,39.84382 z m 2.34375,-60.9376 -30.4688,93.75016 h 17.57815 l 5.85939,-18.75003 h 32.81255 l 5.85939,18.75003 h 17.57815 l -30.4688,-93.75016 z"
         id="path5757" /><path
         d="m 971.45053,147.20631 v 93.75016 h 16.40628 V 203.4564 h 9.37501 c 10.54688,0 12.89068,6.52903 17.07588,14.39735 4.3527,8.37055 7.3661,18.2478 11.0492,23.10272 h 19.9219 c -10.5469,-4.68751 -15.2344,-39.84382 -30.4688,-43.35945 9.375,-3.51563 17.5781,-11.71877 17.5781,-24.60942 0,-9.37501 -5.8594,-25.78129 -29.2969,-25.78129 z m 16.40628,14.06252 h 10.54689 c 9.375,0 17.5782,4.01787 17.5782,14.06253 0,10.04466 -8.2032,14.06252 -17.5782,14.06252 h -10.54689 z"
         id="path5759" /><path
         d="m 1107.3881,144.86256 c -25.7812,0 -37.8348,22.09825 -37.8348,49.21883 0,27.12058 12.0536,49.21883 37.8348,49.21883 4.0179,0 7.8684,-0.50223 11.2166,-1.5067 l 4.5201,9.0402 13.5603,-7.5335 -5.1898,-9.2076 c 9.2076,-8.87279 13.7277,-23.60495 13.7277,-40.01123 0,-27.12058 -12.0536,-49.21883 -37.8349,-49.21883 z m 0,15.2344 c 12.8907,0 21.9309,12.89064 21.9309,33.98443 0,10.54689 -2.3438,19.08485 -6.1942,24.94424 l -5.8594,-10.04466 -12.0536,6.1942 6.1942,12.38842 c -1.3393,0.33482 -2.6786,0.50223 -4.0179,0.50223 -12.8906,0 -21.9308,-12.89065 -21.9308,-33.98443 0,-21.09379 9.0402,-33.98443 21.9308,-33.98443 z"
         id="path5761" /><path
         d="m 1196.4507,208.14391 11.7188,-39.84382 11.7187,39.84382 z m 2.3437,-60.9376 -30.4688,93.75016 h 17.5782 l 5.8594,-18.75003 h 32.8125 l 5.8594,18.75003 h 17.5782 l -30.4688,-93.75016 z"
         id="path5763" /><path
         d="m 1273.7945,240.95647 h 16.4062 V 172.9876 l 35.1563,67.96887 h 18.7501 v -93.75016 h -16.4063 v 66.79699 l -35.1563,-66.79699 h -18.75 z"
         id="path5765" /><path
         d="m 1405.0445,147.20631 h -31.6407 v 93.75016 h 31.6407 c 25.7813,0 40.5135,-19.7545 40.5135,-46.87508 0,-27.12058 -14.7322,-46.87508 -40.5135,-46.87508 z m -1.1719,14.06252 c 12.8907,0 24.6095,10.5469 24.6095,32.81256 0,22.26566 -11.7188,32.81255 -24.6095,32.81255 h -14.0625 v -65.62511 z"
         id="path5767" /></g><g
       aria-label="MARKAZ"
       id="text5665"
       style="font-size:167.411px;line-height:1.5;font-family:'Russian Road Sign';-inkscape-font-specification:'Russian Road Sign';letter-spacing:-13.5188px;fill-rule:evenodd;stroke-width:31.2501;stroke-linecap:round;paint-order:stroke fill markers"><path
         d="m 1181.341,628.61218 h 16.4062 v -67.96886 l 28.1251,49.21883 28.125,-49.21883 1.1719,67.96886 h 15.2344 v -93.75015 h -18.75 l -25.7813,43.35944 -25.7813,-43.35944 h -18.75 z"
         id="path5738" /><path
         d="m 1310.7913,595.79963 11.7188,-39.84382 11.7187,39.84382 z m 2.3437,-60.9376 -30.4688,93.75015 h 17.5782 l 5.8594,-18.75003 h 32.8125 l 5.8594,18.75003 h 17.5782 l -30.4688,-93.75015 z"
         id="path5740" /><path
         d="m 1376.96,534.86203 v 93.75015 h 16.4063 v -37.50006 h 9.375 c 10.5469,0 12.8906,6.52903 17.0759,14.39735 4.3527,8.37055 7.3661,18.24779 11.0491,23.10271 h 19.9219 c -10.5469,-4.68751 -15.2344,-39.84381 -30.4688,-43.35945 9.3751,-3.51563 17.5782,-11.71876 17.5782,-24.60941 0,-9.37502 -5.8594,-25.78129 -29.2969,-25.78129 z m 16.4063,14.06252 h 10.5469 c 9.375,0 17.5781,4.01786 17.5781,14.06252 0,10.04466 -8.2031,14.06253 -17.5781,14.06253 h -10.5469 z"
         id="path5742" /><path
         d="m 1517.6266,628.61218 h 21.0938 l -35.9934,-49.72106 33.6496,-44.02909 h -21.0937 l -32.6452,44.1965 z m -35.1563,-93.75015 h -16.4063 v 93.75015 h 16.4063 z"
         id="path5744" /><path
         d="m 1574.0856,595.79963 11.7188,-39.84382 11.7187,39.84382 z m 2.3438,-60.9376 -30.4688,93.75015 h 17.5781 l 5.8594,-18.75003 h 32.8126 l 5.8593,18.75003 h 17.5782 l -30.4688,-93.75015 z"
         id="path5746" /><path
         d="m 1639.0825,628.61218 h 63.2813 v -14.06252 h -43.3594 l 42.1875,-64.45323 v -15.2344 h -60.9376 v 14.06252 h 41.0157 l -42.1875,64.45323 z"
         id="path5748" /></g></g></svg>
