<?xml version="1.0" encoding="UTF-8" standalone="no"?>
<!-- Created with Inkscape (http://www.inkscape.org/) -->

<svg
   width="1502.1191"
   height="300.10004"
   id="svg2"
   version="1.1"
   inkscape:version="1.2.2 (732a01da63, 2022-12-09)"
   sodipodi:docname="RU_road_sign_6.10.2_B.svg"
   xmlns:inkscape="http://www.inkscape.org/namespaces/inkscape"
   xmlns:sodipodi="http://sodipodi.sourceforge.net/DTD/sodipodi-0.dtd"
   xmlns="http://www.w3.org/2000/svg"
   xmlns:svg="http://www.w3.org/2000/svg"
   xmlns:rdf="http://www.w3.org/1999/02/22-rdf-syntax-ns#"
   xmlns:cc="http://creativecommons.org/ns#"
   xmlns:dc="http://purl.org/dc/elements/1.1/">
  <title
     id="title3006">5.21.2 Yoʻnalishlar koʻrsatkichi</title>
  <defs
     id="defs4" />
  <sodipodi:namedview
     id="base"
     pagecolor="#ffffff"
     bordercolor="#666666"
     borderopacity="1.0"
     inkscape:pageopacity="0.0"
     inkscape:pageshadow="2"
     inkscape:zoom="5.6568542"
     inkscape:cx="94.13359"
     inkscape:cy="292.65382"
     inkscape:document-units="px"
     inkscape:current-layer="layer1"
     showgrid="false"
     inkscape:window-width="1920"
     inkscape:window-height="991"
     inkscape:window-x="-9"
     inkscape:window-y="-9"
     inkscape:window-maximized="1"
     inkscape:snap-bbox="true"
     inkscape:bbox-paths="true"
     inkscape:bbox-nodes="true"
     inkscape:snap-bbox-edge-midpoints="true"
     inkscape:snap-bbox-midpoints="true"
     inkscape:object-paths="true"
     inkscape:snap-intersection-paths="true"
     inkscape:object-nodes="true"
     inkscape:snap-smooth-nodes="true"
     inkscape:snap-midpoints="true"
     inkscape:snap-object-midpoints="true"
     inkscape:showpageshadow="2"
     inkscape:pagecheckerboard="0"
     inkscape:deskcolor="#d1d1d1" />
  <metadata
     id="metadata7">
    <rdf:RDF>
      <cc:Work
         rdf:about="">
        <dc:format>image/svg+xml</dc:format>
        <dc:type
           rdf:resource="http://purl.org/dc/dcmitype/StillImage" />
        <dc:title>5.21.2 Yoʻnalishlar koʻrsatkichi</dc:title>
        <cc:license
           rdf:resource="http://creativecommons.org/licenses/by-sa/3.0/" />
        <dc:description>ГОСТ Р 52290-2004</dc:description>
      </cc:Work>
      <cc:License
         rdf:about="http://creativecommons.org/licenses/by-sa/3.0/">
        <cc:permits
           rdf:resource="http://creativecommons.org/ns#Reproduction" />
        <cc:permits
           rdf:resource="http://creativecommons.org/ns#Distribution" />
        <cc:requires
           rdf:resource="http://creativecommons.org/ns#Notice" />
        <cc:requires
           rdf:resource="http://creativecommons.org/ns#Attribution" />
        <cc:permits
           rdf:resource="http://creativecommons.org/ns#DerivativeWorks" />
        <cc:requires
           rdf:resource="http://creativecommons.org/ns#ShareAlike" />
      </cc:License>
    </rdf:RDF>
  </metadata>
  <g
     inkscape:label="Layer 1"
     inkscape:groupmode="layer"
     id="layer1"
     transform="translate(-437.95,-752.31215)">
    <path
       sodipodi:nodetypes="sssscccs"
       inkscape:connector-curvature="0"
       id="path13928"
       d="m 483,752.36215 c -24.93,0 -45,20.07 -45,45 v 210.00005 c 0,24.93 20.07,45 45,45 H 1680.1561 L 1940,902.36215 l -259.8439,-150 z"
       style="color:#000000;display:inline;overflow:visible;visibility:visible;fill:#ffffff;fill-opacity:1;fill-rule:nonzero;stroke:none;stroke-width:3.543;marker:none;enable-background:accumulate" />
    <path
       style="color:#000000;display:inline;overflow:visible;visibility:visible;fill:#0d69e1;fill-opacity:1;fill-rule:nonzero;stroke:none;stroke-width:3.543;marker:none;enable-background:accumulate"
       d="m 483,761.36215 c -19.944,0 -36,16.056 -36,36 v 210.00005 c 0,19.944 16.056,36 36,36 h 1191.7501 l 141,-141.00005 -141,-141 z"
       id="path13930"
       sodipodi:nodetypes="sssscccs" />
    <path
       sodipodi:nodetypes="sssscccs"
       inkscape:connector-curvature="0"
       id="path13932"
       d="m 483,753.36215 c -24.376,0 -44,19.624 -44,44 v 210.00005 c 0,24.376 19.624,44 44,44 h 1196.8751 l 258.0939,-149.00005 -258.0939,-149 z"
       style="color:#000000;display:inline;overflow:visible;visibility:visible;fill:none;stroke:#000000;stroke-width:2;stroke-miterlimit:4;stroke-dasharray:none;stroke-opacity:1;marker:none;enable-background:accumulate" />
    <g
       aria-label="Koson    17"
       id="text993"
       style="font-size:225.47px;line-height:1.5;font-family:'Russian Road Sign';-inkscape-font-specification:'Russian Road Sign';fill:#ffffff;fill-rule:evenodd;stroke-width:2.2547;stroke-linecap:round;paint-order:stroke fill markers"
       transform="translate(70)">
      <path
         d="m 574.06705,963.91547 h 28.40922 l -48.47605,-66.96459 45.31947,-59.29861 h -28.40922 l -43.96665,59.52408 z m -47.3487,-126.2632 h -22.09606 v 126.2632 h 22.09606 z"
         id="path2181" />
      <path
         d="m 671.47013,872.37465 c -23.67435,0 -41.03554,18.93948 -41.03554,47.3487 0,28.40922 17.36119,47.3487 41.03554,47.3487 23.67435,0 41.03554,-18.93948 41.03554,-47.3487 0,-28.40922 -17.36119,-47.3487 -41.03554,-47.3487 z m 0,15.7829 c 12.62632,0 22.09606,12.62632 22.09606,31.5658 0,18.93948 -9.46974,31.5658 -22.09606,31.5658 -12.62632,0 -22.09606,-12.62632 -22.09606,-31.5658 0,-18.93948 9.46974,-31.5658 22.09606,-31.5658 z"
         id="path2183" />
      <path
         d="m 742.26765,951.28915 c 0,0 14.20461,14.88102 39.45725,14.88102 20.96871,0 34.72238,-16.45931 34.72238,-29.08563 0,-13.97914 -7.44051,-20.51777 -28.18375,-25.92905 -11.04803,-2.93111 -21.64512,-4.05846 -21.64512,-11.94991 0,-4.5094 5.63675,-10.14615 16.68478,-10.14615 7.89145,0 17.81213,5.86222 20.96871,9.0188 l 11.04803,-12.62632 c 0,0 -12.62632,-12.62632 -33.59503,-12.62632 -21.64512,0 -34.72238,15.33196 -34.72238,27.95828 0,9.46974 3.83299,21.87059 28.63469,25.92905 18.0376,2.93111 20.2923,7.21504 20.2923,11.94991 0,6.31316 -7.89145,11.72444 -15.7829,11.72444 -10.82256,0 -22.09606,-8.56786 -25.47811,-11.72444 z"
         id="path2185" />
      <path
         d="m 885.89214,872.37465 c -23.67435,0 -41.03554,18.93948 -41.03554,47.3487 0,28.40922 17.36119,47.3487 41.03554,47.3487 23.67435,0 41.03554,-18.93948 41.03554,-47.3487 0,-28.40922 -17.36119,-47.3487 -41.03554,-47.3487 z m 0,15.7829 c 12.62632,0 22.09606,12.62632 22.09606,31.5658 0,18.93948 -9.46974,31.5658 -22.09606,31.5658 -12.62632,0 -22.09606,-12.62632 -22.09606,-31.5658 0,-18.93948 9.46974,-31.5658 22.09606,-31.5658 z"
         id="path2187" />
      <path
         d="m 1008.9987,873.95294 c -15.78291,0 -26.38,11.94991 -26.38,11.94991 -1.57829,-2.2547 -2.48017,-6.31316 -3.15658,-10.37162 h -16.23384 v 88.38424 h 18.93948 v -56.81844 c 4.73487,-9.46974 12.85179,-17.36119 22.09604,-17.36119 9.4698,0 12.6263,7.89145 12.6263,12.62632 v 61.55331 h 18.9395 v -63.1316 c 0,-15.7829 -9.4697,-26.83093 -26.8309,-26.83093 z"
         id="path2189" />
      <path
         d="m 1403.8761,866.96337 7.4405,9.69521 16.9103,-10.59709 v 97.85398 h 22.096 v -126.2632 h -18.9395 z"
         id="path2191" />
      <path
         d="m 1485.0455,858.17004 h 58.3967 c -17.3612,28.40922 -36.3007,67.86647 -42.6138,105.74543 h 23.6743 c 9.4698,-45.77041 25.2527,-78.9145 41.0356,-110.4803 v -15.7829 h -75.758 z"
         id="path2193" />
    </g>
  </g>
</svg>
