<svg width="64" height="64" viewBox="0 0 64 64" fill="none" xmlns="http://www.w3.org/2000/svg">
<path d="M33.0678 61.6115C49.4234 61.0174 62.2007 47.2769 61.6066 30.9212C61.0124 14.5656 47.2719 1.78837 30.9163 2.38249C14.5606 2.97662 1.78339 16.7171 2.37752 33.0727C2.97164 49.4284 16.7121 62.2056 33.0678 61.6115Z" fill="#EA3B0C"/>
<path d="M59.8673 36.1327C62.1497 20.742 51.5234 6.41511 36.1328 4.13265C20.7421 1.85019 6.41522 12.4765 4.13276 27.8671C1.8503 43.2578 12.4766 57.5847 27.8672 59.8671C43.2579 62.1496 57.5848 51.5233 59.8673 36.1327Z" fill="#E8E8E8"/>
<path d="M32.9385 57.2429C46.871 56.7215 57.7427 45.0043 57.2213 31.0718C56.6999 17.1393 44.9827 6.26757 31.0502 6.78901C17.1177 7.31044 6.24595 19.0276 6.76739 32.9601C7.28883 46.8925 19.006 57.7643 32.9385 57.2429Z" fill="#EA3B0C"/>
<path d="M51.0206 25.7959H12.9707V37.5033H51.0206V25.7959Z" fill="#E8E8E8"/>
<path d="M31.6297 2.38965C15.4573 2.5872 2.36035 15.7975 2.36035 32.0156C2.36035 48.2337 15.4573 61.444 31.6297 61.6416V2.38965Z" fill="#F4511E"/>
<path d="M31.6298 3.85352C16.2642 4.05107 3.82422 16.6044 3.82422 32.0157C3.82422 47.427 16.2649 59.9804 31.6298 60.1779V3.85352Z" fill="#F5F5F5"/>
<path d="M31.6297 6.78027C17.8784 6.97717 6.75098 18.2186 6.75098 32.0156C6.75098 45.8126 17.8784 57.0541 31.6297 57.251V6.78027Z" fill="#F4511E"/>
<path d="M31.6297 25.7959H12.9707V37.5033H31.6297V25.7959Z" fill="#EEEEEE"/>
</svg>
