<?xml version="1.0" encoding="UTF-8" standalone="no"?>
<!-- Created with Inkscape (http://www.inkscape.org/) -->

<svg
   width="700"
   height="1050"
   id="svg2"
   version="1.1"
   inkscape:version="1.2.2 (732a01da63, 2022-12-09)"
   sodipodi:docname="UZ_road_sign_6.19.svg"
   xml:space="preserve"
   xmlns:inkscape="http://www.inkscape.org/namespaces/inkscape"
   xmlns:sodipodi="http://sodipodi.sourceforge.net/DTD/sodipodi-0.dtd"
   xmlns="http://www.w3.org/2000/svg"
   xmlns:svg="http://www.w3.org/2000/svg"
   xmlns:rdf="http://www.w3.org/1999/02/22-rdf-syntax-ns#"
   xmlns:cc="http://creativecommons.org/ns#"
   xmlns:dc="http://purl.org/dc/elements/1.1/"><title
     id="title3002">6.27 Manzarali joy</title><defs
     id="defs4" /><sodipodi:namedview
     id="base"
     pagecolor="#ffffff"
     bordercolor="#666666"
     borderopacity="1.0"
     inkscape:pageopacity="0.0"
     inkscape:pageshadow="2"
     inkscape:zoom="0.76285714"
     inkscape:cx="311.32959"
     inkscape:cy="716.38577"
     inkscape:document-units="px"
     inkscape:current-layer="layer1"
     showgrid="false"
     inkscape:window-width="1920"
     inkscape:window-height="991"
     inkscape:window-x="-9"
     inkscape:window-y="-9"
     inkscape:window-maximized="1"
     inkscape:showpageshadow="2"
     inkscape:pagecheckerboard="0"
     inkscape:deskcolor="#d1d1d1"
     showguides="true" /><metadata
     id="metadata7"><rdf:RDF><cc:Work
         rdf:about=""><dc:format>image/svg+xml</dc:format><dc:type
           rdf:resource="http://purl.org/dc/dcmitype/StillImage" /><dc:title>6.27 Manzarali joy</dc:title><cc:license
           rdf:resource="http://creativecommons.org/licenses/by-sa/3.0/" /><dc:description>ГОСТ Р 52290-2004
Размеры и пропорции по типоразмеру II</dc:description></cc:Work><cc:License
         rdf:about="http://creativecommons.org/licenses/by-sa/3.0/"><cc:permits
           rdf:resource="http://creativecommons.org/ns#Reproduction" /><cc:permits
           rdf:resource="http://creativecommons.org/ns#Distribution" /><cc:requires
           rdf:resource="http://creativecommons.org/ns#Notice" /><cc:requires
           rdf:resource="http://creativecommons.org/ns#Attribution" /><cc:permits
           rdf:resource="http://creativecommons.org/ns#DerivativeWorks" /><cc:requires
           rdf:resource="http://creativecommons.org/ns#ShareAlike" /></cc:License></rdf:RDF></metadata><g
     inkscape:label="Layer 1"
     inkscape:groupmode="layer"
     id="layer1"
     transform="translate(0,-2.362183)"><rect
       style="color:#000000;fill:#ffffff;fill-opacity:1;fill-rule:nonzero;stroke:none;stroke-width:3.54299997999999980;marker:none;visibility:visible;display:inline;overflow:visible;enable-background:accumulate;opacity:1"
       id="rect10481"
       width="700"
       height="1050"
       x="0"
       y="2.3621831"
       rx="45"
       ry="45" /><path
       inkscape:connector-curvature="0"
       style="color:#000000;fill:#0d69e1;fill-opacity:1;fill-rule:nonzero;stroke:none;stroke-width:3.54299997999999980;marker:none;visibility:visible;display:inline;overflow:visible;enable-background:accumulate;opacity:1"
       d="m 45.000009,22.362155 c -13.85,0 -25,11.15 -25,25 l 0,960.000045 c 0,13.85 11.15,25 25,25 l 610.000001,0 c 13.85,0 25,-11.15 25,-25 l 0,-960.000045 c 0,-13.85 -11.15,-25 -25,-25 l -610.000001,0 z m 65.625001,155.000005 478.75,0 c 24.93,0 45,20.07 45,45 l 0,478.75 c 0,24.93 -20.07,45 -45,45 l -478.75,0 c -24.930001,0 -45.000001,-20.07 -45.000001,-45 l 0,-478.75 c 0,-24.93 20.07,-45 45.000001,-45 z"
       id="rect10483" /><rect
       ry="44"
       rx="44"
       y="3.3621678"
       x="1.0000153"
       height="1048"
       width="698"
       id="rect10490"
       style="color:#000000;fill:none;stroke:#000000;stroke-width:1.99999988000000010;stroke-miterlimit:4;stroke-opacity:1;stroke-dasharray:none;marker:none;visibility:visible;display:inline;overflow:visible;enable-background:accumulate;opacity:1" /><g
       aria-label="300m"
       id="text5762"
       style="font-size:190.338px;line-height:1.5;font-family:'Russian Road Sign';-inkscape-font-specification:'Russian Road Sign';fill:#ffffff;fill-rule:evenodd;stroke-width:44.8854;stroke-linecap:round;stroke-linejoin:round;paint-order:stroke fill markers"><path
         d="m 155.76006,841.76231 7.04251,15.79805 c 7.61352,-6.47149 12.94298,-9.13622 23.60191,-9.13622 6.66183,0 13.32366,5.32946 13.32366,11.99129 0,7.9942 -10.65893,17.32076 -23.98259,19.98549 v 14.65603 c 2.66473,-1.33237 6.09082,-1.33237 9.32656,-1.33237 17.32076,0 18.84347,11.03961 18.84347,15.60772 -0.19034,12.37197 -10.84927,17.70143 -22.84056,17.70143 -8.75555,0 -20.36617,-1.5227 -26.83766,-5.90048 l 2.28405,18.65313 c 0,0 16.55941,4.56811 27.21834,4.56811 25.31495,0 39.20963,-18.65312 39.20963,-34.64152 0,-17.32075 -19.22414,-25.31495 -25.88597,-26.64731 10.65893,-1.33237 21.31785,-11.9913 21.31785,-26.64732 0,-14.65603 -15.22704,-24.17293 -28.5507,-24.17293 -10.65892,0 -27.40867,5.5198 -34.0705,9.5169 z"
         id="path6231"
         style="fill:#ffffff" /><path
         d="m 284.61905,833.76811 c -21.31785,0 -35.97388,22.65023 -35.97388,54.62701 0,31.97678 14.65603,54.627 35.97388,54.627 21.31786,0 35.97388,-22.65022 35.97388,-54.627 0,-30.26374 -14.65602,-54.62701 -35.97388,-54.62701 z m 0,16.55941 c 10.27825,0 17.32076,11.42028 17.32076,38.0676 0,26.64732 -7.04251,38.0676 -17.32076,38.0676 -10.27825,0 -17.32076,-11.42028 -17.32076,-38.0676 0,-26.64732 7.04251,-38.0676 17.32076,-38.0676 z"
         id="path6233"
         style="fill:#ffffff" /><path
         d="m 380.54934,833.76811 c -21.31785,0 -35.97388,22.65023 -35.97388,54.62701 0,31.97678 14.65603,54.627 35.97388,54.627 21.31786,0 35.97388,-22.65022 35.97388,-54.627 0,-30.26374 -14.65602,-54.62701 -35.97388,-54.62701 z m 0,16.55941 c 10.27825,0 17.32076,11.42028 17.32076,38.0676 0,26.64732 -7.04251,38.0676 -17.32076,38.0676 -10.27825,0 -17.32075,-11.42028 -17.32075,-38.0676 0,-26.64732 7.0425,-38.0676 17.32075,-38.0676 z"
         id="path6235"
         style="fill:#ffffff" /><path
         d="m 481.8091,865.7449 c -13.32366,0 -20.93718,10.08791 -20.93718,10.08791 -1.33236,-1.90338 -2.09371,-5.32946 -2.66473,-8.75555 h -13.70433 v 74.6125 h 15.98839 v -47.96518 c 3.9971,-7.99419 9.5169,-14.65602 17.32076,-14.65602 7.99419,0 9.32656,6.66183 9.32656,10.65893 v 51.96227 h 15.98839 v -47.96518 c 3.9971,-7.99419 9.5169,-14.65602 17.32076,-14.65602 7.99419,0 9.32656,6.66183 9.32656,10.65893 v 51.96227 h 15.98839 v -53.29464 c 0,-13.32366 -6.66183,-22.65022 -21.31785,-22.65022 -9.89758,0 -19.98549,5.32946 -22.65023,13.32366 -2.66473,-7.9942 -9.70723,-13.32366 -19.98549,-13.32366 z"
         id="path6237"
         style="fill:#ffffff" /></g><path
       id="path3144"
       style="opacity:1;fill:#000000;fill-rule:evenodd;stroke-width:0.371835;stroke-linecap:round;paint-order:stroke fill markers"
       d="m 281.69138,239.01602 a 63.059698,63.059698 0 0 0 -63.0597,63.0597 63.059698,63.059698 0 0 0 63.0597,63.0597 63.059698,63.059698 0 0 0 63.05969,-63.0597 63.059698,63.059698 0 0 0 -63.05969,-63.0597 z m 117.97943,28.16532 c -9.91042,0 -18.55606,5.14834 -23.4782,12.91114 l -9.403,0.7225 h -2.94847 c -7.54957,0 -13.62727,6.07771 -13.62727,13.62727 0,7.54957 6.0777,13.62831 13.62727,13.62831 h 2.19513 l 5.8278,0.46498 v 75.89533 H 313.2957 c -8.86001,-6.45743 -19.75346,-10.30638 -31.60432,-10.30638 -29.72839,0 -53.66204,23.93365 -53.66204,53.66203 V 586.55303 H 335.35341 V 440.04434 h 64.3174 c 0.96281,0 1.91462,-0.0479 2.85166,-0.14257 14.05537,-1.41891 24.95508,-13.2221 24.95508,-27.66416 v -99.26605 l 83.42665,6.65562 c 3.5351,0.28204 6.40131,-11.12477 6.40131,-24.94342 0,-13.81822 -2.85499,-24.94337 -6.40131,-24.94337 l -90.30568,6.93973 c -5.08951,-5.81773 -12.55529,-9.49878 -20.92771,-9.49878 z M 172.5063,489.51191 v 22.72803 h 12.41102 v 74.31309 h 21.87575 v -41.90858 -32.40451 -22.72803 h -21.87575 z m 184.52493,0 v 22.72803 74.31309 h 21.87472 v -74.31309 h 24.25066 v 74.31309 h 21.87575 v -74.31309 h 24.24963 v 74.31309 h 21.87575 v -74.31309 h 24.25072 v 74.31309 h 21.87471 v -74.31309 h 10.21055 v -22.72803 h -10.21055 -21.87471 -24.25072 -21.87575 -24.24963 -21.87575 -24.25066 z" /><g
       aria-label="MANZARALI JOY"
       id="text3463"
       style="font-size:49.2041px;line-height:1.5;font-family:'Russian Road Sign';-inkscape-font-specification:'Russian Road Sign';opacity:1;fill-rule:evenodd;stroke-width:0.492041;stroke-linecap:round;paint-order:stroke fill markers"><path
         d="m 177.53971,651.37604 h 4.82201 v -19.97687 l 8.26629,14.46601 8.26629,-14.46601 0.34442,19.97687 h 4.47758 v -27.5543 h -5.51086 l -7.57743,12.74386 -7.57744,-12.74386 h -5.51086 z"
         id="path3469" /><path
         d="m 219.56006,641.73203 3.44428,-11.71057 3.44429,11.71057 z m 0.68885,-17.91029 -8.95514,27.5543 h 5.16643 l 1.72214,-5.51086 h 9.644 l 1.72215,5.51086 h 5.16643 l -8.95515,-27.5543 z"
         id="path3471" /><path
         d="m 242.29231,651.37604 h 4.822 v -19.97687 l 10.33286,19.97687 h 5.51086 v -27.5543 h -4.822 v 19.63244 l -10.33286,-19.63244 h -5.51086 z"
         id="path3473" /><path
         d="m 271.56872,651.37604 h 18.59915 v -4.13315 h -12.74386 l 12.39943,-18.94358 v -4.47757 h -17.91029 v 4.13315 h 12.05501 l -12.39944,18.94357 z"
         id="path3475" /><path
         d="m 306.35599,641.73203 3.44429,-11.71057 3.44429,11.71057 z m 0.68886,-17.91029 -8.95515,27.5543 h 5.16643 l 1.72215,-5.51086 h 9.644 l 1.72215,5.51086 h 5.16643 l -8.95515,-27.5543 z"
         id="path3477" /><path
         d="m 329.77711,623.82174 v 27.5543 h 4.822 v -11.02172 h 2.75543 c 3.09986,0 3.78872,1.91896 5.01882,4.23155 1.27931,2.46021 2.16498,5.36325 3.24747,6.79017 h 5.85529 c -3.09986,-1.37772 -4.47757,-11.71058 -8.95515,-12.74386 2.75543,-1.03329 5.16643,-3.44429 5.16643,-7.23301 0,-2.75543 -1.72214,-7.57743 -8.61071,-7.57743 z m 4.822,4.13315 h 3.09986 c 2.75543,0 5.16643,1.18089 5.16643,4.13314 0,2.95225 -2.411,4.13314 -5.16643,4.13314 h -3.09986 z"
         id="path3479" /><path
         d="m 366.97538,641.73203 3.44428,-11.71057 3.44429,11.71057 z m 0.68885,-17.91029 -8.95514,27.5543 h 5.16643 l 1.72214,-5.51086 h 9.64401 l 1.72214,5.51086 h 5.16643 l -8.95515,-27.5543 z"
         id="path3481" /><path
         d="m 390.05205,651.37604 h 17.22144 v -4.13315 h -12.39944 v -23.42115 h -4.822 z"
         id="path3483" /><path
         d="m 414.85091,651.37604 h 4.822 v -27.5543 h -4.822 z"
         id="path3485" /><path
         d="m 450.81915,646.55404 -0.34443,4.822 c 0,0 3.44429,0.68886 5.16643,0.68886 4.822,0 7.57743,-3.5919 7.57743,-6.83938 v -21.40378 h -4.822 v 20.02607 c 0,2.3618 -1.72214,3.39508 -3.09986,3.39508 -2.411,0 -4.47757,-0.68885 -4.47757,-0.68885 z"
         id="path3487" /><path
         d="m 482.50658,623.13288 c -7.57743,0 -11.21854,6.49494 -11.21854,14.46601 0,7.97106 3.64111,14.46601 11.21854,14.46601 7.57743,0 11.21853,-6.49495 11.21853,-14.46601 0,-7.97107 -3.6411,-14.46601 -11.21853,-14.46601 z m 0,4.47758 c 3.78871,0 6.54414,3.78871 6.54414,9.98843 0,6.19972 -2.75543,9.98843 -6.54414,9.98843 -3.78872,0 -6.54415,-3.78871 -6.54415,-9.98843 0,-6.19972 2.75543,-9.98843 6.54415,-9.98843 z"
         id="path3489" /><path
         d="m 509.02758,651.37604 h 4.82201 v -11.02172 l 8.61071,-16.53258 h -5.51085 l -5.51086,11.36615 -5.51086,-11.36615 h -5.51086 l 8.61071,16.53258 z"
         id="path3491" /></g><g
       aria-label="SCENIC PLACE"
       id="text3467"
       style="font-size:49.2041px;line-height:1.5;font-family:'Russian Road Sign';-inkscape-font-specification:'Russian Road Sign';opacity:1;fill-rule:evenodd;stroke-width:0.492041;stroke-linecap:round;paint-order:stroke fill markers"><path
         d="m 197.14754,699.06095 c 0,0 4.62519,4.822 10.8249,4.822 6.88858,0 10.57889,-5.16643 10.57889,-8.61072 0,-4.13314 -3.00145,-6.88857 -7.82346,-7.92186 -3.78871,-0.78726 -7.233,-1.2301 -7.233,-3.88712 0,-1.32851 1.03329,-4.03474 5.16643,-4.03474 3.5919,0 6.10131,2.75543 6.10131,2.75543 l 3.19827,-3.44429 c 0,0 -4.47758,-3.78871 -9.29958,-3.78871 -5.85529,0 -9.98843,3.78871 -9.98843,8.61072 0,2.11577 0.93488,6.59334 8.61072,7.72504 6.15051,0.88567 6.19971,3.19827 6.19971,4.28076 v 0.0492 c 0,1.03329 -1.18089,3.78872 -5.41245,3.78872 -4.822,0 -7.52822,-3.24747 -7.52822,-3.24747 z"
         id="path3494" /><path
         d="m 236.11721,674.95094 c -7.57743,0 -11.21853,6.49494 -11.21853,14.466 0,8.02027 3.6411,14.46601 11.21853,14.46601 5.21564,0 8.26629,-3.09986 9.98844,-7.57743 l -4.62519,-1.72215 c -1.03329,3.44429 -2.85384,4.82201 -5.36325,4.82201 -3.78871,0 -6.54414,-3.78872 -6.54414,-9.98844 0,-6.19971 2.75543,-9.98843 6.54414,-9.98843 2.50941,0 4.32996,1.37772 5.36325,4.822 l 4.62519,-1.72214 c -1.72215,-4.47757 -4.7728,-7.57743 -9.98844,-7.57743 z"
         id="path3496" /><path
         d="m 253.68305,703.19409 h 17.56586 v -4.13314 h -12.74386 v -8.26629 h 9.98843 v -4.13315 h -9.98843 v -6.54414 h 12.39943 v -4.47758 h -17.22143 z"
         id="path3498" /><path
         d="m 279.85961,703.19409 h 4.822 v -19.97686 l 10.33286,19.97686 h 5.51086 v -27.5543 h -4.822 v 19.63244 l -10.33286,-19.63244 h -5.51086 z"
         id="path3500" /><path
         d="m 309.13602,703.19409 h 4.822 v -27.5543 h -4.822 z"
         id="path3502" /><path
         d="m 332.90164,674.95094 c -7.57743,0 -11.21854,6.49494 -11.21854,14.466 0,8.02027 3.64111,14.46601 11.21854,14.46601 5.21563,0 8.26629,-3.09986 9.98843,-7.57743 l -4.62519,-1.72215 c -1.03328,3.44429 -2.85383,4.82201 -5.36324,4.82201 -3.78872,0 -6.54415,-3.78872 -6.54415,-9.98844 0,-6.19971 2.75543,-9.98843 6.54415,-9.98843 2.50941,0 4.32996,1.37772 5.36324,4.822 l 4.62519,-1.72214 c -1.72214,-4.47757 -4.7728,-7.57743 -9.98843,-7.57743 z"
         id="path3504" /><path
         d="m 375.06952,675.63979 v 27.5543 h 4.822 v -9.644 h 4.47758 c 6.54414,0 8.95514,-5.16643 8.95514,-8.95515 0,-3.78871 -2.411,-8.95515 -8.95514,-8.95515 z m 4.822,4.13315 h 3.09986 c 2.75543,0 5.51086,1.37771 5.51086,4.822 0,3.44429 -2.75543,4.822 -5.51086,4.822 h -3.09986 z"
         id="path3506" /><path
         d="m 402.6238,703.19409 h 17.22143 v -4.13314 H 407.4458 v -23.42116 h -4.822 z"
         id="path3508" /><path
         d="m 434.65564,693.55009 3.44429,-11.71058 3.44429,11.71058 z m 0.68886,-17.9103 -8.95514,27.5543 h 5.16643 l 1.72214,-5.51086 h 9.644 l 1.72215,5.51086 h 5.16643 l -8.95515,-27.5543 z"
         id="path3510" /><path
         d="m 467.72075,674.95094 c -7.57743,0 -11.21853,6.49494 -11.21853,14.466 0,8.02027 3.6411,14.46601 11.21853,14.46601 5.21564,0 8.26629,-3.09986 9.98843,-7.57743 l -4.62518,-1.72215 c -1.03329,3.44429 -2.85384,4.82201 -5.36325,4.82201 -3.78871,0 -6.54414,-3.78872 -6.54414,-9.98844 0,-6.19971 2.75543,-9.98843 6.54414,-9.98843 2.50941,0 4.32996,1.37772 5.36325,4.822 l 4.62518,-1.72214 c -1.72214,-4.47757 -4.77279,-7.57743 -9.98843,-7.57743 z"
         id="path3512" /><path
         d="m 485.28661,703.19409 h 17.56586 v -4.13314 h -12.74386 v -8.26629 h 9.98843 v -4.13315 h -9.98843 v -6.54414 h 12.39944 v -4.47758 h -17.22144 z"
         id="path3514" /></g></g></svg>
