<?xml version="1.0" encoding="UTF-8" standalone="no"?>
<svg
   width="1590"
   height="350"
   version="1.1"
   id="svg114692"
   sodipodi:docname="KG_road_sign_6.11_B.svg"
   inkscape:version="1.2.2 (732a01da63, 2022-12-09)"
   xmlns:inkscape="http://www.inkscape.org/namespaces/inkscape"
   xmlns:sodipodi="http://sodipodi.sourceforge.net/DTD/sodipodi-0.dtd"
   xmlns="http://www.w3.org/2000/svg"
   xmlns:svg="http://www.w3.org/2000/svg"
   xmlns:rdf="http://www.w3.org/1999/02/22-rdf-syntax-ns#"
   xmlns:cc="http://creativecommons.org/ns#"
   xmlns:dc="http://purl.org/dc/elements/1.1/">
  <sodipodi:namedview
     id="namedview114694"
     pagecolor="#ffffff"
     bordercolor="#000000"
     borderopacity="0.25"
     inkscape:showpageshadow="2"
     inkscape:pageopacity="0.0"
     inkscape:pagecheckerboard="0"
     inkscape:deskcolor="#d1d1d1"
     showgrid="false"
     inkscape:zoom="0.40566038"
     inkscape:cx="802.39535"
     inkscape:cy="555.88372"
     inkscape:window-width="1920"
     inkscape:window-height="991"
     inkscape:window-x="-9"
     inkscape:window-y="-9"
     inkscape:window-maximized="1"
     inkscape:current-layer="svg114692" />
  <title
     id="title114676">5.26 Manzil nomi</title>
  <defs
     id="defs114680">
    <style
       id="style114678">.a{fill:#fff}</style>
  </defs>
  <rect
     class="a"
     x="1"
     y="1"
     width="1588"
     height="348"
     rx="44"
     id="rect114682" />
  <path
     d="M1545 2a43.049 43.049 0 0 1 43 43v260a43.049 43.049 0 0 1-43 43H45a43.049 43.049 0 0 1-43-43V45A43.049 43.049 0 0 1 45 2h1500m0-2H45A45 45 0 0 0 0 45v260a45 45 0 0 0 45 45h1500a45 45 0 0 0 45-45V45a45 45 0 0 0-45-45z"
     style="fill:#1d1e1b"
     id="path114684" />
  <rect
     x="10"
     y="10"
     width="1570"
     height="330"
     rx="35"
     style="fill:#0d69e1"
     id="rect114686" />
  <metadata
     id="metadata114820">
    <rdf:RDF>
      <cc:Work
         rdf:about="">
        <dc:title>5.26 Manzil nomi</dc:title>
      </cc:Work>
    </rdf:RDF>
  </metadata>
  <path
     id="text114835"
     style="font-size:253.696px;line-height:1.5;font-family:'Russian Road Sign';-inkscape-font-specification:'Russian Road Sign';letter-spacing:-15px;fill:#ffffff;fill-rule:evenodd;stroke-width:91.8381;stroke-linecap:round;stroke-linejoin:round;paint-order:stroke fill markers"
     d="M 291.33594 101.13086 C 282.71028 101.13086 275.85938 108.23351 275.85938 116.60547 C 275.85938 125.23112 282.71028 132.08008 291.33594 132.08008 C 299.7079 132.08008 306.81055 125.23112 306.81055 116.60547 C 306.81055 108.23351 299.7079 101.13086 291.33594 101.13086 z M 638.00977 101.13086 C 629.38411 101.13086 622.53516 108.23351 622.53516 116.60547 C 622.53516 125.23112 629.38411 132.08008 638.00977 132.08008 C 646.38173 132.08008 653.48438 125.23112 653.48438 116.60547 C 653.48438 108.23351 646.38173 101.13086 638.00977 101.13086 z M 1529.4648 101.13086 C 1520.8392 101.13086 1513.9883 108.23351 1513.9883 116.60547 C 1513.9883 125.23112 1520.8392 132.08008 1529.4648 132.08008 C 1537.8368 132.08008 1544.9395 125.23112 1544.9395 116.60547 C 1544.9395 108.23351 1537.8368 101.13086 1529.4648 101.13086 z M 102.90234 103.16016 C 63.833199 103.16016 45.060547 136.64738 45.060547 177.74609 C 45.060547 219.0985 63.833199 252.33203 102.90234 252.33203 C 129.79409 252.33203 145.52299 236.34998 154.40234 213.26367 L 130.55664 204.38477 C 125.22903 222.14347 115.84083 229.24609 102.90234 229.24609 C 83.367771 229.24609 69.162109 209.71176 69.162109 177.74609 C 69.162109 145.78043 83.367771 126.24609 102.90234 126.24609 C 115.84083 126.24609 125.22903 133.34872 130.55664 151.10742 L 154.40234 142.22852 C 145.52299 119.1422 129.79409 103.16016 102.90234 103.16016 z M 178.47266 106.71094 L 178.47266 248.78125 L 199.7832 248.78125 L 199.7832 184.84961 C 205.11081 174.19439 214.24301 165.31445 224.64453 165.31445 C 235.29975 165.31445 238.85156 174.19387 238.85156 179.52148 L 238.85156 248.78125 L 260.16211 248.78125 L 260.16211 177.74609 C 260.16211 159.98739 249.50723 147.55664 229.97266 147.55664 C 212.21395 147.55664 199.7832 163.53906 199.7832 163.53906 L 199.7832 106.71094 L 178.47266 106.71094 z M 525.14648 106.71094 L 525.14648 248.78125 L 546.45703 248.78125 L 546.45703 184.84961 C 551.78464 174.19439 560.91879 165.31445 571.32031 165.31445 C 581.97553 165.31445 585.52734 174.19387 585.52734 179.52148 L 585.52734 248.78125 L 606.83789 248.78125 L 606.83789 177.74609 C 606.83789 159.98739 596.18106 147.55664 576.64648 147.55664 C 558.88778 147.55664 546.45703 163.53906 546.45703 163.53906 L 546.45703 106.71094 L 525.14648 106.71094 z M 679.83789 106.71094 L 679.83789 248.78125 L 701.14844 248.78125 L 701.14844 195.75781 L 734.38281 248.78125 L 761.02148 248.78125 L 726.00977 196.26562 L 760.25977 149.33203 L 734.12891 149.33203 L 701.14844 194.49023 L 701.14844 106.71094 L 679.83789 106.71094 z M 962.64453 106.71094 L 962.64453 158.21094 C 962.64453 156.43507 951.99016 145.78125 937.7832 145.78125 C 927.12798 145.78125 893.38672 154.65989 893.38672 199.05664 C 893.38672 241.67753 920.0245 252.33203 937.7832 252.33203 C 955.54191 252.33203 962.64453 238.125 962.64453 238.125 C 964.16671 240.91565 965.43618 244.46842 966.19727 248.78125 L 983.95508 248.78125 L 983.95508 106.71094 L 962.64453 106.71094 z M 460.23242 145.78125 C 433.59437 145.78125 412.28516 167.09098 412.28516 199.05664 C 412.28516 231.0223 433.59437 252.33203 460.23242 252.33203 C 480.02069 252.33203 496.00373 241.16976 502.85352 222.14258 L 482.8125 214.53125 C 479.00706 227.46973 470.88764 234.57422 460.23242 234.57422 C 446.02546 234.57422 435.37109 220.36708 435.37109 199.05664 C 435.37109 177.7462 446.02546 163.53906 460.23242 163.53906 C 470.88764 163.53906 479.00706 170.64355 482.8125 183.58203 L 502.85352 175.9707 C 496.00373 156.94352 480.02069 145.78125 460.23242 145.78125 z M 1043.543 145.78125 C 1025.7843 145.78125 1011.5766 152.88333 1002.6973 158.21094 L 1013.3535 175.46289 C 1018.6811 170.64267 1029.335 163.53906 1039.9902 163.53906 C 1052.4213 163.53906 1061.3008 172.418 1061.3008 179.52148 L 1061.3008 184.84961 C 1047.0938 188.40135 1000.9219 186.87935 1000.9219 220.36719 C 1000.9219 241.67763 1018.6798 252.33203 1032.8867 252.33203 C 1047.0937 252.33203 1057.749 243.45309 1061.3008 236.34961 C 1063.0767 250.55657 1070.1802 252.33203 1082.6113 252.33203 L 1091.4902 234.57422 C 1087.9385 234.57422 1082.6113 234.57466 1082.6113 225.69531 L 1082.6113 181.29883 C 1082.6113 163.54013 1066.6293 145.78125 1043.543 145.78125 z M 1350.1641 145.78125 C 1323.526 145.78125 1303.9922 167.09098 1303.9922 199.05664 C 1303.9922 231.0223 1323.526 252.33203 1350.1641 252.33203 C 1376.8021 252.33203 1396.3379 231.0223 1396.3379 199.05664 C 1396.3379 167.09098 1376.8021 145.78125 1350.1641 145.78125 z M 1459.2227 146.28711 C 1434.8679 146.28711 1420.1523 163.53913 1420.1523 177.74609 C 1420.1523 188.40132 1424.4665 202.35535 1452.373 206.92188 C 1472.6687 210.21992 1475.2051 215.03958 1475.2051 220.36719 C 1475.2051 227.47067 1466.3266 233.55859 1457.4473 233.55859 C 1445.2699 233.55859 1432.5847 223.91893 1428.7793 220.36719 L 1414.8262 234.57422 C 1414.8262 234.57422 1430.8087 251.31836 1459.2227 251.31836 C 1482.8164 251.31836 1498.291 232.79876 1498.291 218.5918 C 1498.291 202.86266 1489.9201 195.50471 1466.5801 189.41602 C 1454.149 186.11797 1442.2246 184.85005 1442.2246 175.9707 C 1442.2246 170.89679 1448.567 164.55469 1460.998 164.55469 C 1469.8774 164.55469 1481.0401 171.14943 1484.5918 174.70117 L 1497.0234 160.49414 C 1497.0234 160.49414 1482.8164 146.28711 1459.2227 146.28711 z M 379.33594 147.55664 C 361.57724 147.55664 351.42969 161.00195 351.42969 161.00195 C 349.65382 158.465 348.63804 153.89855 347.87695 149.33203 L 329.61133 149.33203 L 329.61133 248.78125 L 350.92188 248.78125 L 350.92188 184.84961 C 356.24949 174.19439 363.60629 168.86719 374.00781 168.86719 C 379.33542 168.86719 384.6631 168.86623 388.21484 172.41797 L 395.31836 151.10742 C 390.49814 147.80938 386.43942 147.55664 379.33594 147.55664 z M 1159.957 147.55664 C 1142.1983 147.55664 1132.0508 161.00195 1132.0508 161.00195 C 1130.2749 158.465 1129.2591 153.89855 1128.498 149.33203 L 1110.2324 149.33203 L 1110.2324 248.78125 L 1131.543 248.78125 L 1131.543 184.84961 C 1136.8706 174.19439 1144.2274 168.86719 1154.6289 168.86719 C 1159.9565 168.86719 1165.2842 168.86623 1168.8359 172.41797 L 1175.9395 151.10742 C 1171.1192 147.80938 1167.0605 147.55664 1159.957 147.55664 z M 280.67969 149.33203 L 280.67969 248.78125 L 301.99023 248.78125 L 301.99023 149.33203 L 280.67969 149.33203 z M 627.35547 149.33203 L 627.35547 248.78125 L 648.66602 248.78125 L 648.66602 149.33203 L 627.35547 149.33203 z M 1191.1289 149.33203 L 1225.3789 248.78125 C 1224.3641 252.33299 1223.3483 256.13771 1221.8262 259.68945 C 1218.5281 266.53924 1213.7087 272.375 1206.3516 272.375 C 1203.8146 272.375 1201.2768 271.61397 1198.2324 270.0918 L 1194.6816 289.62695 C 1200.7703 290.64174 1205.336 291.40234 1212.4395 291.40234 C 1223.0947 291.40234 1235.5259 284.29828 1240.8535 271.86719 L 1281.6992 149.33203 L 1256.8359 149.33203 L 1237.3027 209.20508 L 1215.9922 149.33203 L 1191.1289 149.33203 z M 1518.8086 149.33203 L 1518.8086 248.78125 L 1540.1191 248.78125 L 1540.1191 149.33203 L 1518.8086 149.33203 z M 937.7832 163.53906 C 946.91625 163.53906 957.31692 168.86674 962.64453 177.74609 L 962.64453 215.03906 C 957.31692 225.69428 947.93103 232.79883 937.7832 232.79883 C 925.35211 232.79883 914.69727 220.36708 914.69727 199.05664 C 914.69727 177.7462 925.35211 163.53906 937.7832 163.53906 z M 1350.1641 163.53906 C 1364.371 163.53906 1375.0273 177.7462 1375.0273 199.05664 C 1375.0273 220.36708 1364.371 234.57422 1350.1641 234.57422 C 1335.9571 234.57422 1325.3027 220.36708 1325.3027 199.05664 C 1325.3027 177.7462 1335.9571 163.53906 1350.1641 163.53906 z M 1061.3008 200.83203 L 1061.3008 218.5918 C 1061.3008 220.36767 1048.8701 234.57422 1038.2148 234.57422 C 1034.6631 234.57422 1024.0078 231.02289 1024.0078 218.5918 C 1024.0078 202.60896 1052.4214 204.38377 1061.3008 200.83203 z " />
</svg>
