<?xml version="1.0" encoding="UTF-8" standalone="no"?>
<svg
   xmlns:dc="http://purl.org/dc/elements/1.1/"
   xmlns:cc="http://creativecommons.org/ns#"
   xmlns:rdf="http://www.w3.org/1999/02/22-rdf-syntax-ns#"
   xmlns:svg="http://www.w3.org/2000/svg"
   xmlns="http://www.w3.org/2000/svg"
   xmlns:sodipodi="http://sodipodi.sourceforge.net/DTD/sodipodi-0.dtd"
   xmlns:inkscape="http://www.inkscape.org/namespaces/inkscape"
   inkscape:version="1.0 (4035a4fb49, 2020-05-01)"
   sodipodi:docname="UZ 5.43.svg"
   xml:space="preserve"
   viewBox="0 0 500 749.28772"
   height="749.28772"
   width="500"
   id="background"
   version="1.1"><metadata
   id="metadata7894"><rdf:RDF><cc:Work
       rdf:about=""><dc:format>image/svg+xml</dc:format><dc:type
         rdf:resource="http://purl.org/dc/dcmitype/StillImage" /></cc:Work></rdf:RDF></metadata><defs
   id="defs7892" /><sodipodi:namedview
   inkscape:current-layer="background"
   inkscape:window-maximized="1"
   inkscape:window-y="-9"
   inkscape:window-x="-9"
   inkscape:cy="776.8096"
   inkscape:cx="913.68282"
   inkscape:zoom="0.3952381"
   showgrid="false"
   id="namedview7890"
   inkscape:window-height="1001"
   inkscape:window-width="1920"
   inkscape:pageshadow="2"
   inkscape:pageopacity="0"
   guidetolerance="10"
   gridtolerance="10"
   objecttolerance="10"
   borderopacity="1"
   bordercolor="#666666"
   pagecolor="#ffffff" />
  <g
   transform="matrix(0.71225071,0,0,0.71225071,0.71225071,0.71225071)"
   id="g7887">
    <path
   style="stroke:#000000;stroke-width:2;stroke-miterlimit:4;stroke-dasharray:none;stroke-opacity:1"
   id="path7881"
   d="M 0,45 C 0,20.147 20.147,0 45,0 h 610 c 24.852,0 45,20.147 45,45 v 960 c 0,24.852 -20.148,45 -45,45 H 45 c -24.853,0 -45,-20.148 -45,-45 z"
   stroke="none"
   fill-rule="evenodd"
   fill="#ffffff" />
    <path
   id="path7883"
   d="M 86.613,943.915 H 65.457 v -120.68 h 42.312 c 2.259,0 4.496,0.238 6.712,0.695 2.237,0.456 4.409,1.107 6.516,1.976 2.129,0.847 4.17,1.89 6.125,3.084 1.955,1.217 3.78,2.564 5.474,4.062 1.694,1.499 3.236,3.15 4.626,4.909 1.391,1.781 2.585,3.649 3.584,5.626 0.978,1.998 1.738,4.083 2.281,6.255 0.543,2.172 0.804,4.366 0.804,6.625 0,1.89 -0.196,3.714 -0.565,5.517 -0.369,1.803 -0.912,3.541 -1.607,5.235 -0.695,1.672 -1.543,3.323 -2.542,4.887 -0.977,1.586 -2.085,3.084 -3.323,4.474 -1.238,1.391 -2.585,2.716 -4.062,3.954 -1.477,1.216 -3.019,2.345 -4.626,3.323 -1.608,0.999 -3.302,1.89 -5.039,2.65 -1.738,0.782 -3.519,1.412 -5.344,1.889 1.021,0.174 2.02,0.5 2.976,1.021 0.956,0.5 1.933,1.173 2.889,1.977 0.977,0.804 1.933,1.716 2.867,2.758 0.934,1.043 1.825,2.129 2.693,3.259 0.847,1.129 1.695,2.28 2.498,3.475 0.804,1.173 1.542,2.346 2.237,3.497 0.717,1.151 1.369,2.215 1.977,3.215 0.63,0.999 1.151,1.889 1.564,2.693 1.086,1.651 2.129,3.367 3.149,5.148 1.021,1.759 2.02,3.518 3.02,5.278 0.977,1.737 1.954,3.453 2.888,5.148 0.934,1.672 1.868,3.279 2.781,4.822 0.912,1.52 1.803,2.997 2.65,4.387 0.868,1.39 1.694,2.672 2.498,3.823 0.803,1.151 1.563,2.15 2.28,3.019 0.739,0.847 1.412,1.521 2.064,1.999 h -24.132 c -1.347,-1.499 -2.628,-3.345 -3.823,-5.539 -1.216,-2.216 -2.454,-4.627 -3.714,-7.298 -1.26,-2.65 -2.585,-5.452 -4.018,-8.406 -1.412,-2.933 -2.954,-5.93 -4.627,-8.927 -0.63,-1.065 -1.26,-2.151 -1.89,-3.259 -0.608,-1.086 -1.238,-2.172 -1.889,-3.214 -0.63,-1.043 -1.304,-2.064 -1.977,-3.063 -0.652,-0.977 -1.368,-1.911 -2.129,-2.758 -0.738,-0.869 -1.52,-1.651 -2.324,-2.346 -0.803,-0.695 -1.65,-1.303 -2.541,-1.803 -0.89,-0.521 -1.824,-0.912 -2.845,-1.216 -1.021,-0.283 -2.107,-0.435 -3.215,-0.435 H 86.613 Z m 22.329,-102.174 c -1.325,-0.261 -2.715,-0.391 -4.235,-0.391 H 86.613 v 36.186 h 18.094 c 1.52,0 2.91,-0.13 4.235,-0.391 1.303,-0.26 2.541,-0.651 3.693,-1.129 1.151,-0.478 2.193,-1.065 3.149,-1.76 0.934,-0.695 1.781,-1.477 2.52,-2.345 0.76,-0.848 1.412,-1.76 1.976,-2.737 0.565,-0.956 1.043,-1.977 1.412,-3.041 0.369,-1.086 0.652,-2.172 0.847,-3.302 0.174,-1.129 0.283,-2.259 0.283,-3.388 0,-1.13 -0.109,-2.259 -0.283,-3.367 -0.195,-1.129 -0.478,-2.215 -0.847,-3.258 -0.369,-1.064 -0.847,-2.063 -1.412,-3.063 -0.564,-0.999 -1.216,-1.911 -1.976,-2.736 -0.739,-0.826 -1.586,-1.608 -2.52,-2.303 -0.956,-0.695 -1.998,-1.303 -3.149,-1.803 -1.152,-0.499 -2.39,-0.89 -3.693,-1.172 z m 70.376,102.174 39.249,-120.68 h 24.066 l 39.25,120.68 h -24.045 l -7.081,-24.045 h -40.314 l -6.907,24.045 z m 36.447,-42.312 h 29.605 l -14.813,-51.174 z m 88.1,-78.368 h 40.943 c 3.584,0 7.081,0.369 10.448,1.086 3.388,0.738 6.625,1.802 9.709,3.236 3.084,1.412 5.995,3.149 8.71,5.213 2.737,2.063 5.256,4.409 7.581,7.037 2.302,2.629 4.365,5.539 6.19,8.732 1.824,3.193 3.367,6.647 4.67,10.339 1.281,3.714 2.281,7.624 2.976,11.751 0.695,4.127 1.042,8.449 1.042,12.946 0,4.561 -0.391,8.905 -1.173,13.032 -0.782,4.127 -1.868,8.037 -3.301,11.707 -1.412,3.671 -3.106,7.103 -5.061,10.296 -1.955,3.193 -4.149,6.103 -6.56,8.732 -2.411,2.628 -4.996,4.974 -7.754,7.037 -2.759,2.064 -5.647,3.823 -8.667,5.235 -2.997,1.412 -6.081,2.498 -9.231,3.214 -3.171,0.717 -6.364,1.087 -9.579,1.087 h -40.943 z m 21.547,18.115 v 84.471 h 19.396 c 2.042,0 4.019,-0.282 5.952,-0.803 1.933,-0.543 3.801,-1.325 5.582,-2.39 1.803,-1.042 3.497,-2.302 5.104,-3.801 1.629,-1.52 3.128,-3.193 4.518,-5.082 1.39,-1.868 2.628,-3.932 3.736,-6.191 1.108,-2.259 2.042,-4.648 2.824,-7.189 0.782,-2.563 1.368,-5.235 1.803,-8.059 0.434,-2.823 0.651,-5.712 0.651,-8.731 0,-2.998 -0.195,-5.909 -0.564,-8.732 -0.37,-2.802 -0.913,-5.496 -1.608,-8.037 -0.695,-2.541 -1.564,-4.952 -2.585,-7.189 -1.02,-2.259 -2.193,-4.323 -3.54,-6.212 -1.347,-1.868 -2.802,-3.563 -4.388,-5.061 -1.563,-1.499 -3.279,-2.781 -5.147,-3.823 -1.847,-1.043 -3.802,-1.825 -5.865,-2.368 -2.063,-0.543 -4.214,-0.803 -6.473,-0.803 z m 92.77,102.565 39.249,-120.68 h 24.066 l 39.25,120.68 h -24.045 l -7.081,-24.045 h -40.314 l -6.907,24.045 z m 36.447,-42.312 h 29.605 l -14.813,-51.174 z m 108.712,42.312 h -21.156 v -120.68 h 42.312 c 2.259,0 4.496,0.238 6.712,0.695 2.237,0.456 4.409,1.107 6.516,1.976 2.129,0.847 4.17,1.89 6.125,3.084 1.955,1.217 3.78,2.564 5.474,4.062 1.694,1.499 3.236,3.15 4.626,4.909 1.391,1.781 2.585,3.649 3.584,5.626 0.978,1.998 1.738,4.083 2.281,6.255 0.543,2.172 0.804,4.366 0.804,6.625 0,1.89 -0.196,3.714 -0.565,5.517 -0.369,1.803 -0.912,3.541 -1.607,5.235 -0.695,1.672 -1.543,3.323 -2.542,4.887 -0.977,1.586 -2.085,3.084 -3.323,4.474 -1.238,1.391 -2.585,2.716 -4.062,3.954 -1.477,1.216 -3.019,2.345 -4.626,3.323 -1.608,0.999 -3.302,1.89 -5.039,2.65 -1.738,0.782 -3.519,1.412 -5.344,1.889 1.021,0.174 2.02,0.5 2.976,1.021 0.956,0.5 1.933,1.173 2.889,1.977 0.977,0.804 1.933,1.716 2.867,2.758 0.934,1.043 1.825,2.129 2.693,3.259 0.847,1.129 1.695,2.28 2.498,3.475 0.804,1.173 1.542,2.346 2.237,3.497 0.717,1.151 1.369,2.215 1.977,3.215 0.63,0.999 1.151,1.889 1.564,2.693 1.086,1.651 2.129,3.367 3.149,5.148 1.021,1.759 2.02,3.518 3.02,5.278 0.977,1.737 1.954,3.453 2.888,5.148 0.934,1.672 1.868,3.279 2.781,4.822 0.912,1.52 1.803,2.997 2.65,4.387 0.868,1.39 1.694,2.672 2.498,3.823 0.803,1.151 1.563,2.15 2.28,3.019 0.739,0.847 1.412,1.521 2.064,1.999 H 610.41 c -1.347,-1.499 -2.628,-3.345 -3.823,-5.539 -1.216,-2.216 -2.454,-4.627 -3.714,-7.298 -1.26,-2.65 -2.585,-5.452 -4.018,-8.406 -1.412,-2.933 -2.954,-5.93 -4.627,-8.927 -0.63,-1.065 -1.26,-2.151 -1.89,-3.259 -0.608,-1.086 -1.238,-2.172 -1.889,-3.214 -0.63,-1.043 -1.304,-2.064 -1.977,-3.063 -0.652,-0.977 -1.368,-1.911 -2.129,-2.758 -0.738,-0.869 -1.52,-1.651 -2.324,-2.346 -0.803,-0.695 -1.65,-1.303 -2.541,-1.803 -0.89,-0.521 -1.824,-0.912 -2.845,-1.216 -1.021,-0.283 -2.107,-0.435 -3.215,-0.435 H 563.341 Z M 585.67,841.741 c -1.325,-0.261 -2.715,-0.391 -4.235,-0.391 h -18.094 v 36.186 h 18.094 c 1.52,0 2.91,-0.13 4.235,-0.391 1.303,-0.26 2.541,-0.651 3.693,-1.129 1.151,-0.478 2.193,-1.065 3.149,-1.76 0.934,-0.695 1.781,-1.477 2.52,-2.345 0.76,-0.848 1.412,-1.76 1.976,-2.737 0.565,-0.956 1.043,-1.977 1.412,-3.041 0.369,-1.086 0.652,-2.172 0.847,-3.302 0.174,-1.129 0.283,-2.259 0.283,-3.388 0,-1.13 -0.109,-2.259 -0.283,-3.367 -0.195,-1.129 -0.478,-2.215 -0.847,-3.258 -0.369,-1.064 -0.847,-2.063 -1.412,-3.063 -0.564,-0.999 -1.216,-1.911 -1.976,-2.736 -0.739,-0.826 -1.586,-1.608 -2.52,-2.303 -0.956,-0.695 -1.998,-1.303 -3.149,-1.803 -1.152,-0.499 -2.39,-0.89 -3.693,-1.172 z M 20,45 C 20,31.192 31.192,20 45,20 h 610 c 13.807,0 25,11.192 25,25 v 960 c 0,13.807 -11.193,25 -25,25 H 45 c -13.808,0 -25,-11.193 -25,-25 z m 45.625,131.382 c 0,-11.045 8.954,-20 20,-20 h 528.75 c 11.045,0 20,8.955 20,20 v 540.852 c 0,11.045 -8.955,20 -20,20 H 85.625 c -11.046,0 -20,-8.955 -20,-20 z"
   stroke="none"
   fill-rule="evenodd"
   fill="#0d66ff" />
    <path
   id="path7885"
   d="m 172.156,473.156 414.75,-159.469 2.187,42.438 c 0.219,4.593 -2.625,8.75 -7,10.5 l -21.437,8.75 c -2.625,0.875 -4.156,3.281 -4.156,5.906 v 6.562 c 0,6.125 5.031,10.938 10.937,10.938 H 591.5 c 10.937,0 19.687,8.75 19.687,19.687 v 59.063 c 0,16.844 -13.781,30.625 -30.625,30.625 H 554.75 c -5.032,0 -9.407,-2.625 -11.813,-7.219 l -3.719,-7.656 c -1.531,-3.063 -4.375,-4.813 -7.875,-4.813 h -85.312 c -3.282,0 -6.125,1.75 -7.656,4.375 -1.532,2.844 -4.375,4.375 -7.657,4.375 h -47.031 c -3.5,0 -6.344,-1.75 -7.875,-5.031 l -14.875,-31.281 c -1.969,-3.938 -6.781,-5.907 -11.156,-4.375 L 187.25,519.093 c 9.625,-18.594 -3.938,-37.187 -15.094,-45.719 z m -12.469,-8.75 426.344,-163.625 0.437,8.312 L 168,469.874 Z m -26.469,-56.875 419.344,-161 c 18.594,-7.219 29.531,-2.844 30.625,12.031 l 2.406,37.188 -407.75,156.625 c -8.312,3.281 -17.062,1.312 -25.156,-5.032 l -19.906,-16.187 c -3.938,-3.282 -6.125,-8.094 -5.906,-13.125 0,-5.032 2.406,-8.969 6.562,-10.5 z M 102.593,389.812 541.625,221.374 c 13.562,-5.249 48.343,14.875 33.906,15.094 l -14,0.219 c -8.094,0 -14.875,1.531 -22.313,4.375 l -416.5,161 c -5.906,2.187 -9.625,6.781 -10.937,12.906 -1.094,5.906 0.219,12.25 5.031,15.969 L 154.437,461.343 106.75,437.5 c -3.938,-2.188 -7.657,-7.657 -9.625,-12.907 l -4.594,-12.25 c -3.5,-8.968 1.094,-19.031 10.062,-22.531 z"
   stroke="none"
   fill-rule="evenodd"
   fill="#000000" />
  </g>
</svg>
