<?xml version="1.0" encoding="UTF-8" standalone="no"?>
<!-- Created with Inkscape (http://www.inkscape.org/) -->

<svg
   width="700"
   height="1050"
   id="svg2"
   version="1.1"
   inkscape:version="1.2.2 (732a01da63, 2022-12-09)"
   sodipodi:docname="UZ_road_sign_6.28 (1).svg"
   xml:space="preserve"
   xmlns:inkscape="http://www.inkscape.org/namespaces/inkscape"
   xmlns:sodipodi="http://sodipodi.sourceforge.net/DTD/sodipodi-0.dtd"
   xmlns="http://www.w3.org/2000/svg"
   xmlns:svg="http://www.w3.org/2000/svg"
   xmlns:rdf="http://www.w3.org/1999/02/22-rdf-syntax-ns#"
   xmlns:cc="http://creativecommons.org/ns#"
   xmlns:dc="http://purl.org/dc/elements/1.1/"><title
     id="title3002">6.19 Jomeʼ masjidi</title><defs
     id="defs4" /><sodipodi:namedview
     id="base"
     pagecolor="#ffffff"
     bordercolor="#666666"
     borderopacity="1.0"
     inkscape:pageopacity="0.0"
     inkscape:pageshadow="2"
     inkscape:zoom="0.53942146"
     inkscape:cx="325.34857"
     inkscape:cy="840.71553"
     inkscape:document-units="px"
     inkscape:current-layer="layer1"
     showgrid="false"
     inkscape:window-width="1920"
     inkscape:window-height="991"
     inkscape:window-x="-9"
     inkscape:window-y="-9"
     inkscape:window-maximized="1"
     inkscape:showpageshadow="2"
     inkscape:pagecheckerboard="0"
     inkscape:deskcolor="#d1d1d1"
     showguides="true" /><metadata
     id="metadata7"><rdf:RDF><cc:Work
         rdf:about=""><dc:format>image/svg+xml</dc:format><dc:type
           rdf:resource="http://purl.org/dc/dcmitype/StillImage" /><dc:title>6.19 Jomeʼ masjidi</dc:title><cc:license
           rdf:resource="http://creativecommons.org/licenses/by-sa/3.0/" /><dc:description>ГОСТ Р 52290-2004
Размеры и пропорции по типоразмеру II</dc:description></cc:Work><cc:License
         rdf:about="http://creativecommons.org/licenses/by-sa/3.0/"><cc:permits
           rdf:resource="http://creativecommons.org/ns#Reproduction" /><cc:permits
           rdf:resource="http://creativecommons.org/ns#Distribution" /><cc:requires
           rdf:resource="http://creativecommons.org/ns#Notice" /><cc:requires
           rdf:resource="http://creativecommons.org/ns#Attribution" /><cc:permits
           rdf:resource="http://creativecommons.org/ns#DerivativeWorks" /><cc:requires
           rdf:resource="http://creativecommons.org/ns#ShareAlike" /></cc:License></rdf:RDF></metadata><g
     inkscape:label="Layer 1"
     inkscape:groupmode="layer"
     id="layer1"
     transform="translate(0,-2.362183)"><rect
       style="color:#000000;fill:#ffffff;fill-opacity:1;fill-rule:nonzero;stroke:none;stroke-width:3.54299997999999980;marker:none;visibility:visible;display:inline;overflow:visible;enable-background:accumulate;opacity:1"
       id="rect10481"
       width="700"
       height="1050"
       x="0"
       y="2.3621831"
       rx="45"
       ry="45" /><path
       inkscape:connector-curvature="0"
       style="color:#000000;fill:#0d69e1;fill-opacity:1;fill-rule:nonzero;stroke:none;stroke-width:3.54299997999999980;marker:none;visibility:visible;display:inline;overflow:visible;enable-background:accumulate;opacity:1"
       d="m 45.000009,22.362155 c -13.85,0 -25,11.15 -25,25 l 0,960.000045 c 0,13.85 11.15,25 25,25 l 610.000001,0 c 13.85,0 25,-11.15 25,-25 l 0,-960.000045 c 0,-13.85 -11.15,-25 -25,-25 l -610.000001,0 z m 65.625001,155.000005 478.75,0 c 24.93,0 45,20.07 45,45 l 0,478.75 c 0,24.93 -20.07,45 -45,45 l -478.75,0 c -24.930001,0 -45.000001,-20.07 -45.000001,-45 l 0,-478.75 c 0,-24.93 20.07,-45 45.000001,-45 z"
       id="rect10483" /><rect
       ry="44"
       rx="44"
       y="3.3621678"
       x="1.0000153"
       height="1048"
       width="698"
       id="rect10490"
       style="color:#000000;fill:none;stroke:#000000;stroke-width:1.99999988000000010;stroke-miterlimit:4;stroke-opacity:1;stroke-dasharray:none;marker:none;visibility:visible;display:inline;overflow:visible;enable-background:accumulate;opacity:1" /><g
       aria-label="300m"
       id="text5762"
       style="font-size:190.338px;line-height:1.5;font-family:'Russian Road Sign';-inkscape-font-specification:'Russian Road Sign';fill:#ffffff;fill-rule:evenodd;stroke-width:44.8854;stroke-linecap:round;stroke-linejoin:round;paint-order:stroke fill markers"><path
         d="m 155.76006,841.76231 7.04251,15.79805 c 7.61352,-6.47149 12.94298,-9.13622 23.60191,-9.13622 6.66183,0 13.32366,5.32946 13.32366,11.99129 0,7.9942 -10.65893,17.32076 -23.98259,19.98549 v 14.65603 c 2.66473,-1.33237 6.09082,-1.33237 9.32656,-1.33237 17.32076,0 18.84347,11.03961 18.84347,15.60772 -0.19034,12.37197 -10.84927,17.70143 -22.84056,17.70143 -8.75555,0 -20.36617,-1.5227 -26.83766,-5.90048 l 2.28405,18.65313 c 0,0 16.55941,4.56811 27.21834,4.56811 25.31495,0 39.20963,-18.65312 39.20963,-34.64152 0,-17.32075 -19.22414,-25.31495 -25.88597,-26.64731 10.65893,-1.33237 21.31785,-11.9913 21.31785,-26.64732 0,-14.65603 -15.22704,-24.17293 -28.5507,-24.17293 -10.65892,0 -27.40867,5.5198 -34.0705,9.5169 z"
         id="path6231"
         style="fill:#ffffff" /><path
         d="m 284.61905,833.76811 c -21.31785,0 -35.97388,22.65023 -35.97388,54.62701 0,31.97678 14.65603,54.627 35.97388,54.627 21.31786,0 35.97388,-22.65022 35.97388,-54.627 0,-30.26374 -14.65602,-54.62701 -35.97388,-54.62701 z m 0,16.55941 c 10.27825,0 17.32076,11.42028 17.32076,38.0676 0,26.64732 -7.04251,38.0676 -17.32076,38.0676 -10.27825,0 -17.32076,-11.42028 -17.32076,-38.0676 0,-26.64732 7.04251,-38.0676 17.32076,-38.0676 z"
         id="path6233"
         style="fill:#ffffff" /><path
         d="m 380.54934,833.76811 c -21.31785,0 -35.97388,22.65023 -35.97388,54.62701 0,31.97678 14.65603,54.627 35.97388,54.627 21.31786,0 35.97388,-22.65022 35.97388,-54.627 0,-30.26374 -14.65602,-54.62701 -35.97388,-54.62701 z m 0,16.55941 c 10.27825,0 17.32076,11.42028 17.32076,38.0676 0,26.64732 -7.04251,38.0676 -17.32076,38.0676 -10.27825,0 -17.32075,-11.42028 -17.32075,-38.0676 0,-26.64732 7.0425,-38.0676 17.32075,-38.0676 z"
         id="path6235"
         style="fill:#ffffff" /><path
         d="m 481.8091,865.7449 c -13.32366,0 -20.93718,10.08791 -20.93718,10.08791 -1.33236,-1.90338 -2.09371,-5.32946 -2.66473,-8.75555 h -13.70433 v 74.6125 h 15.98839 v -47.96518 c 3.9971,-7.99419 9.5169,-14.65602 17.32076,-14.65602 7.99419,0 9.32656,6.66183 9.32656,10.65893 v 51.96227 h 15.98839 v -47.96518 c 3.9971,-7.99419 9.5169,-14.65602 17.32076,-14.65602 7.99419,0 9.32656,6.66183 9.32656,10.65893 v 51.96227 h 15.98839 v -53.29464 c 0,-13.32366 -6.66183,-22.65022 -21.31785,-22.65022 -9.89758,0 -19.98549,5.32946 -22.65023,13.32366 -2.66473,-7.9942 -9.70723,-13.32366 -19.98549,-13.32366 z"
         id="path6237"
         style="fill:#ffffff" /></g><g
       id="g10530"
       transform="matrix(4.3181714,0,0,4.3181714,-217.75502,-599.44131)"><g
         aria-label="MASJID"
         id="text5670"
         style="font-size:11.3947px;line-height:1.5;font-family:'Russian Road Sign';-inkscape-font-specification:'Russian Road Sign';opacity:1;fill-rule:evenodd;stroke-width:1.64082;stroke-linecap:round;stroke-linejoin:round;paint-order:stroke fill markers"><path
           d="m 114.32,289.66367 h 1.11668 v -4.62625 l 1.91431,3.35004 1.91431,-3.35004 0.0798,4.62625 h 1.03692 v -6.38104 h -1.2762 l -1.75479,2.95123 -1.75478,-2.95123 H 114.32 Z"
           id="path5728" /><path
           d="m 124.05108,287.4303 0.79763,-2.71193 0.79763,2.71193 z m 0.15953,-4.14767 -2.07384,6.38104 h 1.19645 l 0.39881,-1.27621 h 2.23336 l 0.39882,1.27621 h 1.19644 l -2.07383,-6.38104 z"
           id="path5730" /><path
           d="m 129.36101,288.70651 c 0,0 1.0711,1.11668 2.50683,1.11668 1.59526,0 2.44986,-1.19644 2.44986,-1.99407 0,-0.95716 -0.69508,-1.59526 -1.81176,-1.83455 -0.87739,-0.18231 -1.67502,-0.28487 -1.67502,-0.90018 0,-0.30766 0.23929,-0.93436 1.19645,-0.93436 0.83181,0 1.41294,0.6381 1.41294,0.6381 l 0.74065,-0.79763 c 0,0 -1.03691,-0.87739 -2.15359,-0.87739 -1.35597,0 -2.31313,0.87739 -2.31313,1.99407 0,0.48997 0.2165,1.52689 1.99407,1.78897 1.42434,0.2051 1.43574,0.74065 1.43574,0.99134 v 0.0114 c 0,0.23929 -0.27348,0.87739 -1.25342,0.87739 -1.11668,0 -1.74339,-0.75205 -1.74339,-0.75205 z"
           id="path5732" /><path
           d="m 135.51415,288.54699 -0.0798,1.11668 c 0,0 0.79763,0.15952 1.19644,0.15952 1.11668,0 1.75478,-0.83181 1.75478,-1.58386 v -4.9567 h -1.11668 v 4.63765 c 0,0.54694 -0.39881,0.78623 -0.71786,0.78623 -0.55834,0 -1.03692,-0.15952 -1.03692,-0.15952 z"
           id="path5734" /><path
           d="m 140.53921,289.66367 h 1.11668 v -6.38104 h -1.11668 z"
           id="path5736" /><path
           d="m 145.88334,283.28263 h -2.1536 v 6.38104 h 2.1536 c 1.75478,0 2.75751,-1.34458 2.75751,-3.19052 0,-1.84594 -1.00273,-3.19052 -2.75751,-3.19052 z m -0.0798,0.95716 c 0.87739,0 1.67502,0.71786 1.67502,2.23336 0,1.51549 -0.79763,2.23336 -1.67502,2.23336 h -0.95715 v -4.46672 z"
           id="path5738" /></g><g
         aria-label="MASQUE"
         id="text5674"
         style="font-size:11.3947px;line-height:1.5;font-family:'Russian Road Sign';-inkscape-font-specification:'Russian Road Sign';opacity:1;fill-rule:evenodd;stroke-width:1.64082;stroke-linecap:round;stroke-linejoin:round;paint-order:stroke fill markers"><path
           d="m 111.87016,301.66367 h 1.11668 v -4.62625 l 1.91431,3.35004 1.91431,-3.35004 0.0798,4.62625 h 1.03692 v -6.38104 h -1.27621 l -1.75478,2.95123 -1.75479,-2.95123 h -1.2762 z"
           id="path5741" /><path
           d="m 121.60124,299.4303 0.79763,-2.71193 0.79763,2.71193 z m 0.15953,-4.14767 -2.07384,6.38104 h 1.19644 l 0.39882,-1.27621 h 2.23336 l 0.39881,1.27621 h 1.19645 l -2.07384,-6.38104 z"
           id="path5743" /><path
           d="m 126.91116,300.70651 c 0,0 1.0711,1.11668 2.50683,1.11668 1.59526,0 2.44987,-1.19644 2.44987,-1.99407 0,-0.95716 -0.69508,-1.59526 -1.81176,-1.83455 -0.87739,-0.18231 -1.67502,-0.28487 -1.67502,-0.90018 0,-0.30766 0.23929,-0.93436 1.19644,-0.93436 0.83181,0 1.41294,0.6381 1.41294,0.6381 l 0.74066,-0.79763 c 0,0 -1.03692,-0.87739 -2.1536,-0.87739 -1.35597,0 -2.31312,0.87739 -2.31312,1.99407 0,0.48997 0.2165,1.52689 1.99407,1.78897 1.42434,0.2051 1.43573,0.74065 1.43573,0.99134 v 0.0114 c 0,0.23929 -0.27347,0.87739 -1.25342,0.87739 -1.11668,0 -1.74338,-0.75205 -1.74338,-0.75205 z"
           id="path5745" /><path
           d="m 135.93577,295.12311 c -1.75478,0 -2.5752,1.5041 -2.5752,3.35004 0,1.84594 0.82042,3.35004 2.5752,3.35004 0.27347,0 0.53555,-0.0342 0.76344,-0.10255 l 0.30766,0.61531 0.92297,-0.51276 -0.35323,-0.62671 c 0.6267,-0.60392 0.93436,-1.60665 0.93436,-2.72333 0,-1.84594 -0.82042,-3.35004 -2.5752,-3.35004 z m 0,1.03692 c 0.87739,0 1.49271,0.87739 1.49271,2.31312 0,0.71787 -0.15953,1.299 -0.42161,1.69781 l -0.39881,-0.68368 -0.82042,0.4216 0.4216,0.84321 c -0.0912,0.0228 -0.18231,0.0342 -0.27347,0.0342 -0.87739,0 -1.49271,-0.87739 -1.49271,-2.31312 0,-1.43573 0.61532,-2.31312 1.49271,-2.31312 z"
           id="path5747" /><path
           d="m 140.32272,295.28263 v 4.3072 c 0,0.0798 0.0798,2.1536 2.31312,2.1536 2.23337,0 2.31313,-2.07384 2.31313,-2.1536 v -4.3072 h -1.11668 v 4.38696 c 0,0.8774 -0.71787,1.19645 -1.19645,1.19645 -0.47857,0 -1.19644,-0.31905 -1.19644,-1.19645 v -4.38696 z"
           id="path5749" /><path
           d="m 147.0228,301.66367 h 4.0679 v -0.95716 h -2.95122 v -1.91431 h 2.31312 v -0.95715 h -2.31312 v -1.5155 h 2.87146 v -1.03692 h -3.98814 z"
           id="path5751" /></g></g><g
       id="g5612"
       transform="translate(-109.11924)"><path
         id="rect4819"
         style="opacity:1;fill:#000000;fill-rule:evenodd;stroke-width:4.7894;stroke-linecap:round;stroke-linejoin:round;paint-order:stroke fill markers"
         d="m 303.00356,452.1038 v 135.66266 h 79.31015 v -55.2963 c 0,-19.95185 36.01488,-39.89899 36.01488,-39.89899 0,0 36.01382,19.94714 36.01382,39.89899 v 55.2963 H 615.23496 V 452.1038 Z" /><path
         id="path4873"
         style="opacity:1;fill:#000000;fill-rule:evenodd;stroke-width:16.1286;stroke-linecap:round;stroke-linejoin:round;paint-order:stroke fill markers"
         d="m 421.61981,274.80096 a 18.428331,18.428331 0 0 0 -18.42824,18.42818 18.428331,18.428331 0 0 0 18.42824,18.42823 18.428331,18.428331 0 0 0 10.71029,-3.48375 15.932658,15.932658 0 0 1 -5.40827,0.98852 15.932658,15.932658 0 0 1 -15.93301,-15.933 15.932658,15.932658 0 0 1 15.93301,-15.93295 15.932658,15.932658 0 0 1 5.42225,0.9523 18.428331,18.428331 0 0 0 -10.72427,-3.44753 z m 8.37377,13.92907 -0.87416,3.76735 -3.83151,-0.32441 3.28883,1.99336 -1.48682,3.56191 2.90366,-2.52553 2.9107,2.52553 -1.495,-3.56191 3.28996,-1.99336 -3.83266,0.32441 z m -12.35,30.55889 c 0,0 -10.69894,9.1349 -27.72867,17.03583 -12.66301,5.87495 -30.03825,9.01738 -42.68248,18.10497 -21.75818,15.63758 -34.88421,35.30207 -34.88404,56.482 6e-5,11.11399 2.33652,21.75656 6.59165,31.59521 h 98.70354 98.70346 c 4.25513,-9.83865 6.59165,-20.48122 6.5917,-31.59521 1.9e-4,-21.17993 -13.12591,-40.84442 -34.88409,-56.482 -12.64411,-9.08759 -30.01954,-12.23002 -42.68242,-18.10497 -17.02986,-7.90093 -27.72865,-17.03583 -27.72865,-17.03583 z" /><path
         id="rect4892"
         style="opacity:1;fill-rule:evenodd;stroke-width:6.45283;stroke-linecap:round;stroke-linejoin:round;paint-order:stroke fill markers"
         d="m 548.96985,321.99734 h 56.48887 v 120.5096 h -56.48887 z" /><path
         id="rect4894"
         style="opacity:1;fill-rule:evenodd;stroke-width:2.192;stroke-linecap:round;stroke-linejoin:round;paint-order:stroke fill markers"
         transform="scale(1,-1)"
         d="m 548.96985,-311.36151 h 56.48887 v 13.90602 h -56.48887 z" /><path
         id="path4896"
         style="opacity:1;fill:#000000;fill-rule:evenodd;stroke-width:8.4476;stroke-linecap:round;stroke-linejoin:round;paint-order:stroke fill markers"
         d="m 577.21378,232.99496 c 0,0 -6.76888,5.84597 -15.22803,12.10149 -8.91369,6.59146 -19.5417,13.85857 -19.54163,24.12355 0.028,6.3261 1.64629,12.53447 4.69282,18.00685 h 30.07684 30.07686 c 3.04657,-5.47238 4.66467,-11.68075 4.6928,-18.00685 0,-10.26498 -10.62785,-17.53209 -19.54158,-24.12355 -8.45921,-6.25552 -15.22808,-12.10149 -15.22808,-12.10149 z" /></g></g></svg>
