<svg width="21" height="20" viewBox="0 0 21 20" fill="none" xmlns="http://www.w3.org/2000/svg">
<path fill-rule="evenodd" clip-rule="evenodd" d="M10.25 18.3333C14.2801 18.3333 17.5472 15.0968 17.5472 11.1044C17.5472 7.11201 14.2801 3.87553 10.25 3.87553C6.21986 3.87553 2.95278 7.11201 2.95278 11.1044C2.95278 15.0968 6.21986 18.3333 10.25 18.3333ZM10.25 7.28917C10.5858 7.28917 10.8581 7.55888 10.8581 7.89158V10.8549L12.707 12.6865C12.9445 12.9217 12.9445 13.3031 12.707 13.5384C12.4695 13.7737 12.0845 13.7737 11.847 13.5384L9.82001 11.5304C9.70597 11.4174 9.6419 11.2642 9.6419 11.1044V7.89158C9.6419 7.55888 9.91416 7.28917 10.25 7.28917Z" fill="#494A50"/>
<path fill-rule="evenodd" clip-rule="evenodd" d="M7.11708 1.94984C7.29508 2.23197 7.2085 2.60362 6.9237 2.77995L3.68047 4.78798C3.39568 4.96431 3.02051 4.87854 2.84251 4.59641C2.66452 4.31428 2.75109 3.94262 3.03589 3.76629L6.27912 1.75827C6.56392 1.58194 6.93908 1.66771 7.11708 1.94984Z" fill="#494A50"/>
<path fill-rule="evenodd" clip-rule="evenodd" d="M13.3829 1.94984C13.5609 1.66771 13.9361 1.58194 14.2209 1.75827L17.4641 3.7663C17.7489 3.94263 17.8355 4.31428 17.6575 4.59641C17.4795 4.87854 17.1043 4.96431 16.8195 4.78798L13.5763 2.77995C13.2915 2.60362 13.2049 2.23197 13.3829 1.94984Z" fill="#494A50"/>
</svg>
