<svg width="24" height="14" viewBox="0 0 24 14" fill="none" xmlns="http://www.w3.org/2000/svg">
<path d="M4.5561 3.7276C4.27636 4.31886 4.70763 5 5.36173 5H18.5574C19.2088 5 19.6401 4.32403 19.3657 3.73329L17.8711 0.515779C17.725 0.201219 17.4097 0 17.0628 0H6.88399C6.53942 0 6.22572 0.198621 6.07836 0.510088L4.5561 3.7276Z" fill="#006FFD"/>
<path d="M6.125 10.0284C6.28179 10.3127 6.58077 10.4893 6.90545 10.4893H16.9691C17.2937 10.4893 17.5927 10.3127 17.7495 10.0284L19.1406 7.50579C19.2974 7.22148 19.5964 7.04492 19.9211 7.04492H22.9815C23.6458 7.04492 24.0766 7.74555 23.7768 8.33837L22.9028 10.0666C22.7511 10.3666 22.4436 10.5557 22.1075 10.5557H18.4288C18.0903 10.5557 17.781 10.7474 17.6305 11.0506L16.412 13.5051C16.2615 13.8083 15.9522 14 15.6137 14H8.22302C7.88693 14 7.57942 13.8109 7.42772 13.511L6.18019 11.0446C6.02849 10.7447 5.72098 10.5557 5.38489 10.5557H1.76688C1.43083 10.5557 1.12335 10.3666 0.971636 10.0668L0.0971756 8.33855C-0.202785 7.74572 0.228022 7.04492 0.892419 7.04492H3.95344C4.27811 7.04492 4.5771 7.22148 4.73388 7.50579L6.125 10.0284Z" fill="#006FFD"/>
</svg>
