<svg width="21" height="21" viewBox="0 0 21 21" fill="none" xmlns="http://www.w3.org/2000/svg">
<rect width="21" height="21" rx="10.5" fill="#006FFD"/>
<path d="M5.00055 13.0661C5.00055 13.2444 5.06654 13.3987 5.19853 13.529C5.33052 13.6593 5.4955 13.721 5.69348 13.7141H6.37541C6.8447 13.7141 7.29199 13.6284 7.71728 13.457C8.14257 13.2855 8.50553 13.0558 8.80617 12.7677C9.10681 12.4797 9.35245 12.1368 9.5431 11.7391C9.73374 11.3413 9.8254 10.9264 9.81807 10.4943C9.81807 9.96628 10.016 9.51366 10.412 9.13647C10.808 8.75929 11.2956 8.57069 11.8749 8.57069H13.2497V9.20848C13.2497 9.3525 13.2937 9.47594 13.3817 9.57881C13.4697 9.68168 13.5687 9.75712 13.6787 9.80512C13.7887 9.85313 13.917 9.86684 14.0636 9.84627C14.2103 9.82569 14.3313 9.7674 14.4266 9.67139L15.8015 8.38553C15.9408 8.24837 16.0068 8.09407 15.9995 7.92262C15.9921 7.75117 15.9261 7.6003 15.8015 7.47L14.4266 6.18414C14.3166 6.08812 14.192 6.02983 14.0526 6.00926C13.9133 5.98868 13.785 6.0024 13.6677 6.05041C13.5504 6.09841 13.4514 6.17385 13.3707 6.27672C13.2901 6.37959 13.2497 6.4996 13.2497 6.63676V7.28483H11.8749C11.4129 7.28483 10.9693 7.37056 10.544 7.542C10.1187 7.71345 9.75208 7.93976 9.44411 8.22094C9.13614 8.50211 8.8905 8.84501 8.70718 9.24963C8.52386 9.65425 8.43587 10.0692 8.44321 10.4943C8.44321 11.0293 8.24156 11.4853 7.83827 11.8625C7.43497 12.2397 6.94736 12.4283 6.37541 12.4283H5.69348C5.50283 12.4283 5.33785 12.49 5.19853 12.6134C5.05921 12.7369 4.99322 12.8878 5.00055 13.0661ZM5.00055 7.93291C5.00055 8.11121 5.06654 8.26209 5.19853 8.38553C5.33052 8.50897 5.4955 8.57069 5.69348 8.57069H6.37541C6.69805 8.57069 6.99502 8.63584 7.26632 8.76614C7.53763 8.89645 7.77594 9.07475 7.98125 9.30106C8.13524 8.86216 8.36255 8.46782 8.66318 8.11807C7.99592 7.56258 7.23333 7.28483 6.37541 7.28483H5.69348C5.50283 7.28483 5.33785 7.34998 5.19853 7.48028C5.05921 7.61058 4.99322 7.76146 5.00055 7.93291ZM9.59809 12.8912C10.2507 13.4398 11.0096 13.7141 11.8749 13.7141H13.2497V14.3622C13.2497 14.4994 13.2937 14.6228 13.3817 14.7325C13.4697 14.8423 13.5687 14.9177 13.6787 14.9589C13.7887 15 13.917 15.0103 14.0636 14.9897C14.2103 14.9691 14.3313 14.9108 14.4266 14.8148L15.8015 13.529C15.9408 13.3987 16.0068 13.2444 15.9995 13.0661C15.9921 12.8878 15.9261 12.7403 15.8015 12.6237L14.4266 11.3379C14.3166 11.235 14.192 11.1733 14.0526 11.1527C13.9133 11.1321 13.785 11.1458 13.6677 11.1939C13.5504 11.2419 13.4514 11.3207 13.3707 11.4304C13.2901 11.5402 13.2497 11.6602 13.2497 11.7905V12.4283H11.8749C11.5596 12.4283 11.2626 12.3666 10.984 12.2431C10.7053 12.1197 10.4707 11.9414 10.28 11.7082C10.1187 12.1471 9.8914 12.5414 9.59809 12.8912Z" fill="white"/>
</svg>
