<svg width="20" height="21" viewBox="0 0 20 21" fill="none" xmlns="http://www.w3.org/2000/svg">
<path d="M12.9499 9.90834L8.23328 5.20001C8.15581 5.1219 8.06364 5.0599 7.96209 5.0176C7.86054 4.97529 7.75162 4.95351 7.64161 4.95351C7.5316 4.95351 7.42268 4.97529 7.32113 5.0176C7.21958 5.0599 7.12741 5.1219 7.04994 5.20001C6.89474 5.35614 6.80762 5.56735 6.80762 5.78751C6.80762 6.00766 6.89474 6.21887 7.04994 6.37501L11.1749 10.5417L7.04994 14.6667C6.89474 14.8228 6.80762 15.034 6.80762 15.2542C6.80762 15.4743 6.89474 15.6855 7.04994 15.8417C7.12712 15.9204 7.21916 15.9831 7.32072 16.026C7.42229 16.0689 7.53135 16.0912 7.64161 16.0917C7.75187 16.0912 7.86094 16.0689 7.9625 16.026C8.06406 15.9831 8.1561 15.9204 8.23328 15.8417L12.9499 11.1333C13.0345 11.0553 13.102 10.9606 13.1482 10.8552C13.1944 10.7498 13.2182 10.6359 13.2182 10.5208C13.2182 10.4058 13.1944 10.2919 13.1482 10.1865C13.102 10.0811 13.0345 9.98637 12.9499 9.90834Z" fill="#ABABAB"/>
</svg>
