<svg width="21" height="22" viewBox="0 0 21 22" fill="none" xmlns="http://www.w3.org/2000/svg">
<path fill-rule="evenodd" clip-rule="evenodd" d="M10.5 0.5C12.5767 0.5 14.6068 1.11581 16.3335 2.26957C18.0602 3.42332 19.406 5.0632 20.2007 6.98182C20.9955 8.90045 21.2034 11.0116 20.7982 13.0484C20.3931 15.0852 19.3931 16.9562 17.9246 18.4246C16.4562 19.8931 14.5852 20.8931 12.5484 21.2982C10.5116 21.7034 8.40045 21.4955 6.48182 20.7007C4.5632 19.906 2.92332 18.5602 1.76957 16.8335C0.615814 15.1068 0 13.0767 0 11C0 8.21523 1.10625 5.54451 3.07538 3.57538C5.04451 1.60625 7.71523 0.5 10.5 0.5ZM7.62891 6.19605L14.8289 9.78491V12.2117L7.62891 15.8005V13.1465L12.6465 11.0085L7.62891 8.87402V6.19605Z" fill="#006FFD"/>
</svg>
