<svg width="20" height="20" viewBox="0 0 20 20" fill="none" xmlns="http://www.w3.org/2000/svg">
<path d="M13.8498 2.4917C13.753 2.39469 13.638 2.31773 13.5115 2.26521C13.3849 2.2127 13.2493 2.18567 13.1123 2.18567C12.9752 2.18567 12.8396 2.2127 12.713 2.26521C12.5865 2.31773 12.4715 2.39469 12.3748 2.4917L5.44976 9.4167C5.37251 9.49379 5.31122 9.58537 5.2694 9.68618C5.22758 9.78699 5.20605 9.89506 5.20605 10.0042C5.20605 10.1133 5.22758 10.2214 5.2694 10.3222C5.31122 10.423 5.37251 10.5146 5.44976 10.5917L12.3748 17.5167C12.7831 17.925 13.4414 17.925 13.8498 17.5167C14.2581 17.1084 14.2581 16.45 13.8498 16.0417L7.81643 10L13.8581 3.95836C14.2581 3.55836 14.2581 2.8917 13.8498 2.4917Z" fill="#494A50" stroke="#494A50" stroke-width="0.2"/>
</svg>
