<svg width="15" height="15" viewBox="0 0 30 30" fill="none" xmlns="http://www.w3.org/2000/svg">
<path d="M18.125 12.5H11.875M17.7328 22.8492C18.8785 24.5679 19.4514 25.4271 19.8754 25.7062C21.1796 26.5649 22.9431 26.0309 23.552 24.593C23.75 24.1256 23.75 23.0929 23.75 21.0274V10.5C23.75 7.6877 23.75 6.28155 23.0339 5.2958C22.8025 4.97745 22.5225 4.69749 22.2043 4.46619C21.2185 3.75 19.8123 3.75 17 3.75H13C10.1877 3.75 8.78155 3.75 7.7958 4.46619C7.47745 4.69749 7.19749 4.97745 6.96619 5.2958C6.25 6.28155 6.25 7.6877 6.25 10.5V21.0274C6.25 23.0929 6.25 24.1256 6.44795 24.593C7.0569 26.0309 8.82035 26.5649 10.1246 25.7062C10.5486 25.4271 11.1214 24.5679 12.2672 22.8492C12.846 21.981 13.1354 21.5469 13.4389 21.3042C14.3518 20.5745 15.6483 20.5745 16.5611 21.3042C16.8646 21.5469 17.154 21.981 17.7328 22.8492Z" stroke="#006FFD" stroke-width="1.7" stroke-linecap="round" stroke-linejoin="round"/>
</svg>
