<svg width="16" height="16" viewBox="0 0 16 16" fill="none" xmlns="http://www.w3.org/2000/svg">
<path d="M8.00003 7.33333C7.82322 7.33333 7.65365 7.40357 7.52863 7.52859C7.4036 7.65361 7.33337 7.82318 7.33337 8V10C7.33337 10.1768 7.4036 10.3464 7.52863 10.4714C7.65365 10.5964 7.82322 10.6667 8.00003 10.6667C8.17684 10.6667 8.34641 10.5964 8.47144 10.4714C8.59646 10.3464 8.6667 10.1768 8.6667 10V8C8.6667 7.82318 8.59646 7.65361 8.47144 7.52859C8.34641 7.40357 8.17684 7.33333 8.00003 7.33333ZM8.00003 5.33333C7.86818 5.33333 7.73928 5.37243 7.62965 5.44568C7.52002 5.51894 7.43457 5.62305 7.38411 5.74487C7.33365 5.86669 7.32045 6.00073 7.34618 6.13006C7.3719 6.25938 7.43539 6.37816 7.52863 6.4714C7.62186 6.56463 7.74065 6.62813 7.86997 6.65385C7.99929 6.67958 8.13334 6.66637 8.25516 6.61591C8.37697 6.56546 8.48109 6.48001 8.55435 6.37038C8.6276 6.26074 8.6667 6.13185 8.6667 6C8.6667 5.82318 8.59646 5.65361 8.47144 5.52859C8.34641 5.40357 8.17684 5.33333 8.00003 5.33333ZM8.00003 1.33333C7.12455 1.33333 6.25765 1.50577 5.44881 1.8408C4.63997 2.17583 3.90504 2.66689 3.28599 3.28595C2.03574 4.53619 1.33337 6.23188 1.33337 8C1.32754 9.53942 1.86056 11.0324 2.84003 12.22L1.5067 13.5533C1.41419 13.6471 1.35153 13.7661 1.32661 13.8955C1.3017 14.0248 1.31565 14.1586 1.3667 14.28C1.42207 14.3999 1.51184 14.5007 1.6246 14.5696C1.73736 14.6384 1.86803 14.6722 2.00003 14.6667H8.00003C9.76814 14.6667 11.4638 13.9643 12.7141 12.714C13.9643 11.4638 14.6667 9.76811 14.6667 8C14.6667 6.23188 13.9643 4.53619 12.7141 3.28595C11.4638 2.03571 9.76814 1.33333 8.00003 1.33333ZM8.00003 13.3333H3.6067L4.2267 12.7133C4.28969 12.6516 4.3398 12.578 4.37414 12.4967C4.40847 12.4155 4.42633 12.3282 4.4267 12.24C4.42419 12.0641 4.35231 11.8964 4.2267 11.7733C3.35376 10.9014 2.81015 9.75369 2.68849 8.52586C2.56684 7.29803 2.87466 6.066 3.55952 5.03968C4.24437 4.01335 5.26389 3.25623 6.44438 2.89731C7.62486 2.53839 8.89327 2.59986 10.0335 3.07127C11.1737 3.54268 12.1153 4.39485 12.6977 5.48259C13.28 6.57033 13.4673 7.82636 13.2275 9.03667C12.9876 10.247 12.3356 11.3367 11.3824 12.1202C10.4292 12.9036 9.23387 13.3324 8.00003 13.3333Z" fill="#F8B63D"/>
</svg>
