<svg width="21" height="23" viewBox="0 0 21 23" fill="none" xmlns="http://www.w3.org/2000/svg">
<path d="M7.73071 15.5249C7.73071 15.6425 7.66942 15.7554 7.56031 15.8386C7.45121 15.9218 7.30324 15.9685 7.14894 15.9685C6.99465 15.9685 6.84668 15.9218 6.73757 15.8386C6.62847 15.7554 6.56718 15.6425 6.56718 15.5249V14.7069C6.53626 14.6937 6.50671 14.6787 6.47881 14.662C6.1106 14.4374 5.70312 14.1941 5.35946 13.9639C4.85134 13.6475 4.26712 13.2825 3.86209 13.028C3.60323 12.8609 3.29622 12.7429 2.96613 12.6836C2.79878 12.6534 2.62371 12.6592 2.46046 12.7004C2.33024 12.7387 2.22521 12.8148 2.16835 12.9119C2.07153 13.1109 2.03706 13.3243 2.06771 13.5352C2.10412 13.8014 2.19957 14.0609 2.35 14.3026C2.54971 14.6378 2.79663 14.9553 3.08641 15.2497L3.12323 15.2909L7.5417 20.3839C7.59117 20.4401 7.62308 20.5041 7.63498 20.5711C7.67123 21.0025 7.83218 21.4225 8.10628 21.8009C8.17069 21.8876 8.26477 21.9593 8.37847 22.0084C8.49217 22.0575 8.62123 22.0822 8.75187 22.0797H15.6815C16.104 22.0775 16.5153 21.9762 16.8598 21.7896C17.3098 21.5339 17.6788 21.2045 17.9398 20.8257L18.0233 20.7171C18.8824 19.5941 19.7146 18.4954 19.8005 17.1964L19.7563 15.699C19.7563 15.6784 19.7563 15.6559 19.7563 15.6335V15.2797C19.7735 14.2839 19.7931 13.0523 18.5977 12.897H17.8245C17.8245 13.1777 17.7975 13.4585 17.7754 13.7393C17.7533 13.9863 17.7336 14.2259 17.7336 14.4524C17.724 14.5648 17.6587 14.6702 17.5509 14.7473C17.4431 14.8243 17.3008 14.8672 17.1531 14.8672C17.0053 14.8672 16.8631 14.8243 16.7553 14.7473C16.6475 14.6702 16.5821 14.5648 16.5726 14.4524C16.5726 14.224 16.5947 13.9582 16.6167 13.685C16.6953 12.7491 16.7837 11.6691 15.7993 11.5343H15.0359C14.9943 11.5373 14.9524 11.5373 14.9107 11.5343C14.9107 11.8731 14.8886 12.225 14.8616 12.5638C14.8395 12.8109 14.8199 13.0504 14.8199 13.2769C14.8251 13.3375 14.8139 13.3982 14.787 13.4553C14.7602 13.5125 14.7183 13.5648 14.6639 13.6091C14.6095 13.6533 14.5437 13.6886 14.4707 13.7128C14.3977 13.7369 14.3189 13.7493 14.2394 13.7493C14.1598 13.7493 14.081 13.7369 14.008 13.7128C13.935 13.6886 13.8693 13.6533 13.8148 13.6091C13.7604 13.5648 13.7185 13.5125 13.6917 13.4553C13.6648 13.3982 13.6537 13.3375 13.6588 13.2769C13.6588 13.0486 13.6809 12.7847 13.703 12.5095C13.7816 11.5736 13.8699 10.4936 12.8856 10.3589H12.1222C12.0708 10.3597 12.0195 10.3546 11.97 10.3439V12.0603C11.97 12.1779 11.9087 12.2908 11.7996 12.374C11.6905 12.4572 11.5425 12.5039 11.3882 12.5039C11.2339 12.5039 11.086 12.4572 10.9768 12.374C10.8677 12.2908 10.8065 12.1779 10.8065 12.0603V7.4427C10.8065 6.67341 10.3941 6.18676 9.86876 5.98274C9.68099 5.90959 9.4733 5.87112 9.26245 5.87044C9.05231 5.8707 8.84529 5.90921 8.65859 5.98274C8.13574 6.18489 7.73071 6.67341 7.73071 7.46142V15.5249ZM2.88512 7.0122C2.98918 7.0077 3.09335 7.01945 3.19125 7.04672C3.28914 7.07398 3.37871 7.1162 3.45447 7.17079C3.53022 7.22537 3.59057 7.29117 3.63181 7.36415C3.67306 7.43714 3.69433 7.51577 3.69433 7.59525C3.69433 7.67472 3.67306 7.75336 3.63181 7.82634C3.59057 7.89933 3.53022 7.96513 3.45447 8.01971C3.37871 8.07429 3.28914 8.11651 3.19125 8.14378C3.09335 8.17105 2.98918 8.18279 2.88512 8.1783H0.722527C0.527222 8.16986 0.343557 8.10475 0.209205 7.99633C0.0748531 7.88792 0 7.74441 0 7.59525C0 7.44609 0.0748531 7.30258 0.209205 7.19416C0.343557 7.08575 0.527222 7.02064 0.722527 7.0122H2.88512ZM5.06981 3.52514C5.20514 3.63622 5.2785 3.78309 5.27439 3.93467C5.27028 4.08625 5.18901 4.23068 5.04777 4.3374C4.90654 4.44412 4.7164 4.50478 4.51758 4.50654C4.31875 4.5083 4.12682 4.45103 3.98237 4.34683L2.26408 3.03661C2.12118 2.92666 2.04142 2.77792 2.04234 2.62312C2.04326 2.46832 2.12479 2.32014 2.26899 2.21117C2.41319 2.10221 2.60826 2.04139 2.81127 2.04209C3.01428 2.04279 3.20862 2.10496 3.35152 2.21492L5.06981 3.52514ZM15.1341 8.17455C14.9388 8.16611 14.7551 8.10101 14.6208 7.99259C14.4864 7.88417 14.4116 7.74067 14.4116 7.5915C14.4116 7.44234 14.4864 7.29884 14.6208 7.19042C14.7551 7.082 14.9388 7.0169 15.1341 7.00846H17.2967C17.4008 7.00396 17.5049 7.0157 17.6028 7.04297C17.7007 7.07024 17.7903 7.11246 17.866 7.16704C17.9418 7.22162 18.0021 7.28742 18.0434 7.36041C18.0846 7.43339 18.1059 7.51203 18.1059 7.5915C18.1059 7.67098 18.0846 7.74962 18.0434 7.8226C18.0021 7.89559 17.9418 7.96139 17.866 8.01597C17.7903 8.07055 17.7007 8.11277 17.6028 8.14004C17.5049 8.16731 17.4008 8.17905 17.2967 8.17455H15.1341ZM14.0246 4.2233C13.8798 4.3272 13.6877 4.3841 13.4889 4.38198C13.2902 4.37986 13.1002 4.31888 12.9593 4.21193C12.8184 4.10498 12.7376 3.96044 12.7339 3.80888C12.7302 3.65731 12.804 3.51059 12.9396 3.39973L14.6579 2.08951C14.8027 1.98561 14.9947 1.92871 15.1935 1.93083C15.3923 1.93295 15.5822 1.99393 15.7231 2.10088C15.864 2.20783 15.9449 2.35237 15.9485 2.50393C15.9522 2.6555 15.8785 2.80222 15.7429 2.91308L14.0246 4.2233ZM9.85157 2.19994C9.85747 2.27929 9.84207 2.35872 9.80631 2.43337C9.77055 2.50802 9.71518 2.57631 9.6436 2.63408C9.57201 2.69184 9.48572 2.73786 9.39001 2.76931C9.29429 2.80076 9.19116 2.81698 9.08693 2.81698C8.98271 2.81698 8.87958 2.80076 8.78386 2.76931C8.68814 2.73786 8.60185 2.69184 8.53027 2.63408C8.45869 2.57631 8.40332 2.50802 8.36756 2.43337C8.3318 2.35872 8.31639 2.27929 8.32229 2.19994V0.550936C8.33336 0.402014 8.41875 0.261967 8.56093 0.159522C8.70311 0.0570765 8.89132 0 9.08693 0C9.28255 0 9.47075 0.0570765 9.61294 0.159522C9.75512 0.261967 9.8405 0.402014 9.85157 0.550936V2.19994ZM16.4302 16.9044C16.4255 16.8546 16.4343 16.8047 16.456 16.7576C16.4778 16.7106 16.512 16.6675 16.5566 16.6309C16.6011 16.5944 16.6551 16.5653 16.7151 16.5454C16.775 16.5255 16.8398 16.5152 16.9052 16.5152C16.9706 16.5152 17.0353 16.5255 17.0953 16.5454C17.1553 16.5653 17.2092 16.5944 17.2538 16.6309C17.2983 16.6675 17.3326 16.7106 17.3543 16.7576C17.376 16.8047 17.3848 16.8546 17.3802 16.9044V18.559C17.3715 18.6506 17.3177 18.7362 17.2296 18.7988C17.1415 18.8613 17.0256 18.8961 16.9052 18.8961C16.7848 18.8961 16.6689 18.8613 16.5807 18.7988C16.4926 18.7362 16.4388 18.6506 16.4302 18.559V16.9044ZM13.6171 16.1725C13.6257 16.081 13.6795 15.9953 13.7676 15.9328C13.8558 15.8702 13.9717 15.8355 14.0921 15.8355C14.2125 15.8355 14.3284 15.8702 14.4165 15.9328C14.5046 15.9953 14.5584 16.081 14.5671 16.1725V18.559C14.5584 18.6506 14.5046 18.7362 14.4165 18.7988C14.3284 18.8613 14.2125 18.8961 14.0921 18.8961C13.9717 18.8961 13.8558 18.8613 13.7676 18.7988C13.6795 18.7362 13.6257 18.6506 13.6171 18.559V16.1725ZM6.56718 13.5802V7.4558C6.56718 6.28409 7.2545 5.52791 8.13083 5.18725C8.481 5.0525 8.86776 4.9823 9.25999 4.9823C9.65223 4.9823 10.039 5.0525 10.3892 5.18725C11.2753 5.52791 11.97 6.28409 11.97 7.43334V9.47354C12.0197 9.46374 12.0708 9.45871 12.1222 9.45857H12.9224C12.9662 9.4585 13.0099 9.46227 13.0525 9.4698C13.4771 9.49823 13.8776 9.63268 14.1918 9.85231C14.506 10.0719 14.7164 10.3645 14.7904 10.6846C14.8673 10.6573 14.9511 10.6432 15.0359 10.6434H15.8361C15.8799 10.6433 15.9236 10.6471 15.9662 10.6546C17.115 10.7894 17.579 11.3284 17.7435 12.0098C17.7737 12.0078 17.8041 12.0078 17.8343 12.0098H18.6345C18.6783 12.0097 18.7219 12.0135 18.7646 12.021C20.9738 12.2793 20.937 13.947 20.9149 15.2909C20.9149 15.9236 20.9395 16.5562 20.9591 17.1889C20.9603 17.2057 20.9603 17.2226 20.9591 17.2394C20.8609 18.7593 19.9576 19.946 19.0273 21.1701L18.9487 21.2768C18.6003 21.7699 18.1123 22.1976 17.5201 22.529C16.9825 22.8162 16.3428 22.9716 15.6864 22.9744H8.76169C8.43758 22.9841 8.11606 22.927 7.83095 22.809C7.54585 22.6911 7.3077 22.5168 7.14158 22.3044C6.78181 21.8432 6.56206 21.3264 6.49845 20.792L2.16835 15.7795C1.82766 15.4302 1.53793 15.0536 1.30429 14.6564C1.09849 14.3195 0.971395 13.9578 0.928722 13.5876C0.882828 13.2334 0.951955 12.876 1.13001 12.5469C1.30019 12.2424 1.62137 12.0016 2.02352 11.8769C2.39454 11.7685 2.79918 11.7457 3.18705 11.8114C3.70783 11.8987 4.19302 12.0811 4.60096 12.3429C4.95198 12.5638 5.53129 12.9269 6.09588 13.2788L6.58682 13.5802H6.56718Z" fill="#006FFD"/>
</svg>
