<svg width="26" height="26" viewBox="0 0 26 26" fill="none" xmlns="http://www.w3.org/2000/svg">
    <path
        d="M13.0002 17.3334C6.76025 17.3334 5.65484 11.1145 5.45901 6.18203C5.40454 4.80999 5.37731 4.12398 5.89267 3.48926C6.40803 2.85453 7.02484 2.75046 8.25846 2.54232C9.4762 2.33687 11.068 2.16669 13.0002 2.16669C14.9324 2.16669 16.5242 2.33687 17.7419 2.54232C18.9755 2.75046 19.5923 2.85453 20.1077 3.48926C20.6231 4.12398 20.5958 4.80999 20.5414 6.18203C20.3455 11.1145 19.2401 17.3334 13.0002 17.3334Z"
        stroke="#006FFD" stroke-width="1.5" />
    <path d="M11.9167 8.66669L13.5417 7.04169V11.375" stroke="#006FFD" stroke-width="1.5"
        stroke-linecap="round" stroke-linejoin="round" />
    <path
        d="M20.5833 5.41669L21.611 5.75925C22.6835 6.11677 23.2198 6.29553 23.5266 6.72111C23.8333 7.14669 23.8333 7.71198 23.8332 8.84256L23.8332 8.92112C23.8332 9.8536 23.8332 10.3198 23.6088 10.7013C23.3843 11.0827 22.9767 11.3092 22.1616 11.762L18.9583 13.5417"
        stroke="#006FFD" stroke-width="1.5" />
    <path
        d="M5.41662 5.41669L4.38895 5.75925C3.31639 6.11677 2.78011 6.29553 2.47337 6.72111C2.16664 7.14669 2.16666 7.71198 2.16669 8.84256L2.16669 8.92112C2.16671 9.8536 2.16673 10.3198 2.39118 10.7013C2.61564 11.0827 3.0232 11.3092 3.83832 11.762L7.04162 13.5417"
        stroke="#006FFD" stroke-width="1.5" />
    <path d="M13 17.3333V20.5833" stroke="#006FFD" stroke-width="1.5" stroke-linecap="round" />
    <path
        d="M16.7916 23.8333H9.20831L9.5758 21.9959C9.67708 21.4895 10.1217 21.125 10.6381 21.125H15.3619C15.8783 21.125 16.3229 21.4895 16.4242 21.9959L16.7916 23.8333Z"
        stroke="#006FFD" stroke-width="1.5" stroke-linecap="round" stroke-linejoin="round" />
    <path d="M19.5 23.8333H6.5" stroke="#006FFD" stroke-width="1.5" stroke-linecap="round" />
</svg>
