<svg width="24" height="24" viewBox="0 0 30 30" fill="none" xmlns="http://www.w3.org/2000/svg">
    <path
        d="M15 28.125C22.2487 28.125 28.125 22.2487 28.125 15C28.125 7.75126 22.2487 1.875 15 1.875C7.75126 1.875 1.875 7.75126 1.875 15C1.875 22.2487 7.75126 28.125 15 28.125Z"
        stroke="#1176E0" stroke-width="1.5" stroke-miterlimit="10" />
    <path d="M18.575 6.65002L22.1625 10.225L18.575 13.8" stroke="#1176E0" stroke-width="1.5"
        stroke-miterlimit="10" />
    <path d="M18.575 16.2L22.1625 19.775L18.575 23.35" stroke="#1176E0" stroke-width="1.5"
        stroke-miterlimit="10" />
    <path
        d="M6.65002 10.225H9.15002C9.52457 10.2365 9.89128 10.3352 10.2211 10.5131C10.5509 10.691 10.8347 10.9433 11.05 11.25L11.725 12.15L12.4 13.075"
        stroke="#1176E0" stroke-width="1.5" stroke-miterlimit="10" />
    <path
        d="M15.3625 17L15.975 17.8375L16.7125 18.8125C16.9325 19.1098 17.2187 19.3516 17.5486 19.5187C17.8785 19.6858 18.2428 19.7735 18.6125 19.775H22.1625"
        stroke="#1176E0" stroke-width="1.5" stroke-miterlimit="10" />
    <path
        d="M22.1625 10.225H18.625C18.2481 10.2336 17.8785 10.3309 17.5463 10.509C17.214 10.6871 16.9283 10.9409 16.7125 11.25L11.05 18.875C10.8281 19.1732 10.5397 19.4155 10.2076 19.5826C9.87561 19.7497 9.50916 19.837 9.13745 19.8375H6.63745"
        stroke="#1176E0" stroke-width="1.5" stroke-miterlimit="10" />
</svg>
