<svg width="35" height="35" viewBox="0 0 35 35" fill="none" xmlns="http://www.w3.org/2000/svg">
    <g clip-path="url(#clip0_214_832)">
        <path
            d="M25.4828 16.6643L25.8291 17.3295L25.4828 16.6643ZM21.565 15.2571L22.0471 14.6826C21.7298 14.4163 21.2567 14.4577 20.9905 14.775L21.565 15.2571ZM23.7038 16.8199L23.4782 17.5352L23.7038 16.8199ZM27.9749 11.7297L28.6402 11.3834L27.9749 11.7297ZM28.1306 13.5088L27.4153 13.2832L28.1306 13.5088ZM19.4655 6.23792L19.8118 6.90318L19.8118 6.90318L19.4655 6.23792ZM21.2446 6.08228L21.4701 5.36699L21.2446 6.08228ZM16.8178 9.39341L16.1025 9.16788L16.1025 9.16788L16.8178 9.39341ZM18.8838 13.0074L19.4584 13.4895C19.7246 13.1722 19.6832 12.6991 19.3659 12.4328L18.8838 13.0074ZM16.9734 11.1725L16.3081 11.5188L16.9734 11.1725ZM14.984 29.1763L15.3303 29.8416L14.984 29.1763ZM13.2049 29.332L12.9794 30.0473L12.9794 30.0473L13.2049 29.332ZM15.5656 22.4069L14.9911 21.9248C14.7249 22.2421 14.7662 22.7152 15.0836 22.9814L15.5656 22.4069ZM17.4761 24.2418L18.1413 23.8955L17.4761 24.2418ZM17.6317 26.0208L18.347 26.2464L18.347 26.2464L17.6317 26.0208ZM8.96666 18.75L8.62035 18.0847L8.62035 18.0847L8.96666 18.75ZM12.8845 20.1571L12.4024 20.7317C12.7197 20.9979 13.1928 20.9565 13.459 20.6392L12.8845 20.1571ZM10.7457 18.5943L10.9712 17.8791L10.7457 18.5943ZM6.31889 21.9055L5.60361 21.6799L6.31889 21.9055ZM6.47454 23.6845L5.80928 24.0308L6.47454 23.6845ZM22.9365 7.2701L22.4544 7.84463L26.0293 10.8443L26.5114 10.2698L26.9935 9.69524L23.4186 6.69557L22.9365 7.2701ZM26.9428 15.2007L26.3682 14.7186C26.0122 15.1429 25.769 15.4321 25.5647 15.6443C25.3651 15.8518 25.24 15.9451 25.1365 15.999L25.4828 16.6643L25.8291 17.3295C26.1373 17.1691 26.3928 16.9471 26.6455 16.6845C26.8935 16.4268 27.1745 16.0913 27.5173 15.6828L26.9428 15.2007ZM21.565 15.2571L21.0829 15.8317C21.4955 16.1779 21.934 16.5461 22.3262 16.8448C22.5228 16.9946 22.7177 17.1347 22.9 17.2496C23.0731 17.3587 23.2748 17.4711 23.4782 17.5352L23.7038 16.8199L23.9293 16.1046C23.9293 16.1046 23.9292 16.1046 23.929 16.1045C23.9287 16.1044 23.9284 16.1043 23.928 16.1042C23.9271 16.1039 23.9258 16.1034 23.9242 16.1028C23.9208 16.1015 23.9161 16.0997 23.91 16.0971C23.8975 16.0918 23.881 16.0841 23.8601 16.0734C23.8177 16.0518 23.7645 16.0214 23.6999 15.9806C23.5698 15.8987 23.4139 15.7878 23.2352 15.6517C22.8768 15.3786 22.4673 15.0352 22.0471 14.6826L21.565 15.2571ZM25.4828 16.6643L25.1365 15.999C24.764 16.1929 24.3298 16.2309 23.9293 16.1046L23.7038 16.8199L23.4782 17.5352C24.2581 17.7811 25.1038 17.7071 25.8291 17.3295L25.4828 16.6643ZM26.5114 10.2698L26.0293 10.8443C26.4536 11.2003 26.7427 11.4435 26.955 11.6478C27.1624 11.8474 27.2558 11.9725 27.3097 12.076L27.9749 11.7297L28.6402 11.3834C28.4798 11.0752 28.2578 10.8198 27.9952 10.567C27.7375 10.319 27.402 10.0381 26.9935 9.69524L26.5114 10.2698ZM26.9428 15.2007L27.5173 15.6828C27.8601 15.2742 28.1417 14.9393 28.3524 14.6503C28.5671 14.3558 28.7414 14.0657 28.8459 13.7343L28.1306 13.5088L27.4153 13.2832C27.3802 13.3945 27.31 13.5339 27.1404 13.7665C26.9668 14.0046 26.7242 14.2943 26.3682 14.7186L26.9428 15.2007ZM27.9749 11.7297L27.3097 12.076C27.5036 12.4485 27.5416 12.8828 27.4153 13.2832L28.1306 13.5088L28.8459 13.7343C29.0918 12.9544 29.0178 12.1088 28.6402 11.3834L27.9749 11.7297ZM18.0056 7.7015L18.5801 8.18359C18.9361 7.75931 19.1793 7.47013 19.3836 7.25784C19.5832 7.05042 19.7084 6.95705 19.8118 6.90318L19.4655 6.23792L19.1192 5.57267C18.811 5.73311 18.5556 5.9551 18.3028 6.21768C18.0548 6.47539 17.7739 6.81085 17.431 7.21941L18.0056 7.7015ZM22.9365 7.2701L23.4186 6.69557C23.01 6.35274 22.6751 6.07117 22.3861 5.86045C22.0916 5.64574 21.8015 5.47148 21.4701 5.36699L21.2446 6.08228L21.0191 6.79757C21.1303 6.83265 21.2697 6.90287 21.5024 7.07248C21.7404 7.24606 22.0301 7.48862 22.4544 7.84463L22.9365 7.2701ZM19.4655 6.23792L19.8118 6.90318C20.1843 6.70928 20.6186 6.67129 21.0191 6.79757L21.2446 6.08228L21.4701 5.36699C20.6902 5.12109 19.8446 5.19507 19.1192 5.57267L19.4655 6.23792ZM18.0056 7.7015L17.431 7.21941C17.0882 7.62797 16.8067 7.9629 16.5959 8.25191C16.3812 8.54638 16.207 8.83649 16.1025 9.16788L16.8178 9.39341L17.533 9.61894C17.5681 9.50767 17.6384 9.36825 17.808 9.13564C17.9815 8.89757 18.2241 8.60787 18.5801 8.18359L18.0056 7.7015ZM18.8838 13.0074L19.3659 12.4328C18.9457 12.0802 18.5364 11.7366 18.2053 11.431C18.0402 11.2787 17.9039 11.1444 17.8006 11.0305C17.7493 10.974 17.7101 10.9269 17.6814 10.8889C17.6672 10.8701 17.6568 10.8552 17.6495 10.8439C17.6458 10.8383 17.6432 10.834 17.6413 10.8309C17.6404 10.8293 17.6398 10.8282 17.6393 10.8274C17.6391 10.827 17.6389 10.8267 17.6388 10.8265C17.6387 10.8263 17.6387 10.8262 17.6387 10.8262L16.9734 11.1725L16.3081 11.5188C16.4066 11.708 16.5523 11.8871 16.6898 12.0386C16.8347 12.1982 17.0065 12.3659 17.1881 12.5334C17.5504 12.8677 17.9891 13.2357 18.4017 13.5819L18.8838 13.0074ZM16.8178 9.39341L16.1025 9.16788C15.8566 9.94778 15.9306 10.7934 16.3081 11.5188L16.9734 11.1725L17.6387 10.8262C17.4448 10.4537 17.4068 10.0194 17.533 9.61894L16.8178 9.39341ZM11.513 28.1441L11.9951 27.5696L8.4202 24.5699L7.93811 25.1445L7.45602 25.719L11.0309 28.7187L11.513 28.1441ZM16.4439 27.7127L15.8694 27.2307C15.5134 27.6549 15.2702 27.9441 15.0659 28.1564C14.8662 28.3638 14.7411 28.4572 14.6376 28.5111L14.984 29.1763L15.3303 29.8416C15.6385 29.6811 15.8939 29.4591 16.1466 29.1966C16.3947 28.9389 16.6756 28.6034 17.0184 28.1948L16.4439 27.7127ZM11.513 28.1441L11.0309 28.7187C11.4395 29.0615 11.7744 29.3431 12.0634 29.5538C12.3579 29.7685 12.648 29.9428 12.9794 30.0473L13.2049 29.332L13.4304 28.6167C13.3192 28.5816 13.1797 28.5114 12.9471 28.3418C12.7091 28.1682 12.4194 27.9256 11.9951 27.5696L11.513 28.1441ZM14.984 29.1763L14.6376 28.5111C14.2652 28.705 13.8309 28.743 13.4304 28.6167L13.2049 29.332L12.9794 30.0473C13.7593 30.2932 14.6049 30.2192 15.3303 29.8416L14.984 29.1763ZM15.5656 22.4069L15.0836 22.9814C15.5038 23.334 15.9131 23.6777 16.2442 23.9832C16.4093 24.1355 16.5456 24.2699 16.6489 24.3837C16.7002 24.4402 16.7394 24.4874 16.7681 24.5254C16.7822 24.5441 16.7927 24.5591 16.8 24.5704C16.8037 24.5759 16.8063 24.5803 16.8081 24.5834C16.809 24.5849 16.8097 24.5861 16.8102 24.5869C16.8104 24.5873 16.8105 24.5876 16.8107 24.5878C16.8108 24.588 16.8108 24.5881 16.8108 24.5881L17.4761 24.2418L18.1413 23.8955C18.0428 23.7063 17.8972 23.5271 17.7597 23.3756C17.6148 23.216 17.443 23.0484 17.2614 22.8808C16.8991 22.5465 16.4604 22.1786 16.0477 21.8323L15.5656 22.4069ZM16.4439 27.7127L17.0184 28.1948C17.3613 27.7863 17.6428 27.4513 17.8536 27.1623C18.0683 26.8679 18.2425 26.5778 18.347 26.2464L17.6317 26.0208L16.9164 25.7953C16.8814 25.9066 16.8111 26.046 16.6415 26.2786C16.4679 26.5167 16.2254 26.8064 15.8694 27.2307L16.4439 27.7127ZM17.4761 24.2418L16.8108 24.5881C17.0047 24.9606 17.0427 25.3948 16.9164 25.7953L17.6317 26.0208L18.347 26.2464C18.5929 25.4665 18.5189 24.6208 18.1413 23.8955L17.4761 24.2418ZM7.50671 20.2136L8.08125 20.6956C8.43726 20.2714 8.68044 19.9822 8.88475 19.7699C9.08438 19.5625 9.20949 19.4691 9.31297 19.4152L8.96666 18.75L8.62035 18.0847C8.31214 18.2452 8.0567 18.4672 7.80398 18.7297C7.55595 18.9875 7.275 19.3229 6.93218 19.7315L7.50671 20.2136ZM12.8845 20.1571L13.3666 19.5826C12.9539 19.2363 12.5154 18.8682 12.1233 18.5694C11.9267 18.4197 11.7318 18.2796 11.5495 18.1647C11.3764 18.0556 11.1747 17.9432 10.9712 17.8791L10.7457 18.5943L10.5202 19.3096C10.5202 19.3096 10.5203 19.3097 10.5205 19.3097C10.5207 19.3098 10.5211 19.3099 10.5215 19.3101C10.5224 19.3104 10.5236 19.3108 10.5253 19.3114C10.5287 19.3127 10.5334 19.3146 10.5395 19.3172C10.5519 19.3225 10.5685 19.3301 10.5894 19.3408C10.6318 19.3625 10.685 19.3929 10.7496 19.4336C10.8796 19.5156 11.0356 19.6265 11.2143 19.7626C11.5726 20.0356 11.9822 20.3791 12.4024 20.7317L12.8845 20.1571ZM8.96666 18.75L9.31297 19.4152C9.68545 19.2213 10.1197 19.1834 10.5202 19.3096L10.7457 18.5943L10.9712 17.8791C10.1913 17.6331 9.3457 17.7071 8.62035 18.0847L8.96666 18.75ZM7.50671 20.2136L6.93218 19.7315C6.58936 20.14 6.30779 20.475 6.09706 20.764C5.88236 21.0584 5.70809 21.3486 5.60361 21.6799L6.31889 21.9055L7.03418 22.131C7.06926 22.0197 7.13949 21.8803 7.30909 21.6477C7.48268 21.4096 7.72523 21.1199 8.08125 20.6956L7.50671 20.2136ZM7.93811 25.1445L8.4202 24.5699C7.99592 24.2139 7.70675 23.9707 7.49446 23.7664C7.28704 23.5668 7.19367 23.4417 7.1398 23.3382L6.47454 23.6845L5.80928 24.0308C5.96972 24.339 6.19172 24.5945 6.4543 24.8472C6.71201 25.0952 7.04746 25.3762 7.45602 25.719L7.93811 25.1445ZM6.31889 21.9055L5.60361 21.6799C5.3577 22.4598 5.43169 23.3055 5.80928 24.0308L6.47454 23.6845L7.1398 23.3382C6.9459 22.9657 6.90791 22.5315 7.03418 22.131L6.31889 21.9055ZM12.8845 20.1571L13.459 20.6392L19.4584 13.4895L18.8838 13.0074L18.3093 12.5253L12.31 19.675L12.8845 20.1571ZM21.565 15.2571L20.9905 14.775L14.9911 21.9248L15.5656 22.4069L16.1402 22.889L22.1395 15.7392L21.565 15.2571Z"
            fill="#0065FD" />
    </g>
    <defs>
        <clipPath id="clip0_214_832">
            <rect width="28" height="28" fill="white"
                transform="translate(0.0783081 7.80762) rotate(-15)" />
        </clipPath>
    </defs>
</svg>
