<svg width="167" height="51" viewBox="0 0 167 51" fill="none" xmlns="http://www.w3.org/2000/svg">
<g clip-path="url(#clip0_2203_4637)">
<rect width="167" height="51" rx="12" fill="#FFE2E5"/>
<g opacity="0.06" clip-path="url(#clip1_2203_4637)">
<mask id="mask0_2203_4637" style="mask-type:alpha" maskUnits="userSpaceOnUse" x="101" y="-12" width="39" height="39">
<circle cx="120.5" cy="7.50011" r="18.7917" transform="rotate(-14.185 120.5 7.50011)" fill="#D9D9D9"/>
</mask>
<g mask="url(#mask0_2203_4637)">
<rect x="95.6016" y="-7.35132" width="41" height="41" transform="rotate(-14.185 95.6016 -7.35132)" fill="#ED3241"/>
</g>
<path d="M117.099 -2.1068C117.355 -2.30688 117.65 -2.45126 117.966 -2.53071C118.281 -2.61031 118.61 -2.62333 118.93 -2.56895C119.251 -2.51456 119.556 -2.39397 119.828 -2.21486C120.099 -2.03574 120.33 -1.80204 120.506 -1.52866C120.682 -1.25529 120.799 -0.948233 120.85 -0.627089L122.461 9.55387C122.51 9.89735 122.431 10.247 122.238 10.5353C122.045 10.8236 121.752 11.0302 121.415 11.1153C121.079 11.2003 120.723 11.1578 120.416 10.9958C120.109 10.8339 119.873 10.564 119.753 10.2383L116.331 0.515149C116.223 0.208287 116.18 -0.117741 116.205 -0.44211C116.23 -0.76648 116.322 -1.08206 116.476 -1.36869C116.63 -1.65533 116.842 -1.90671 117.099 -2.1068Z" fill="white"/>
<path d="M124.656 14.8152C124.959 16.0121 124.234 17.2276 123.037 17.5301C121.84 17.8326 120.624 17.1076 120.322 15.9107C120.019 14.7138 120.744 13.4983 121.941 13.1958C123.138 12.8932 124.354 13.6183 124.656 14.8152Z" fill="white"/>
</g>
<g opacity="0.06" clip-path="url(#clip2_2203_4637)">
<mask id="mask1_2203_4637" style="mask-type:alpha" maskUnits="userSpaceOnUse" x="74" y="27" width="29" height="29">
<circle cx="88.4331" cy="41.4332" r="14.0796" transform="rotate(16.1678 88.4331 41.4332)" fill="#D9D9D9"/>
</mask>
<g mask="url(#mask1_2203_4637)">
<rect x="77.9578" y="22.4042" width="30.7192" height="30.7192" transform="rotate(16.1678 77.9578 22.4042)" fill="#ED3241"/>
</g>
<path d="M89.8709 33.9341C90.1125 33.9018 90.3582 33.9203 90.5923 33.9884C90.8262 34.0563 91.0434 34.1722 91.2301 34.3287C91.4167 34.4852 91.5687 34.6789 91.6763 34.8975C91.7839 35.116 91.8448 35.3546 91.8551 35.598C91.8654 35.8413 91.8248 36.0842 91.736 36.311L88.9231 43.5035C88.825 43.7443 88.6412 43.9403 88.4072 44.0536C88.1732 44.1669 87.9055 44.1895 87.6558 44.1171C87.406 44.0447 87.192 43.8824 87.0548 43.6615C86.9177 43.4406 86.8672 43.1767 86.9131 42.9208L88.3817 35.3385C88.428 35.0992 88.5237 34.8722 88.6628 34.672C88.8018 34.4717 88.981 34.3027 89.189 34.1756C89.397 34.0486 89.6293 33.9663 89.8709 33.9341Z" fill="white"/>
<path d="M88.3503 47.7363C88.0928 48.6247 87.1638 49.1361 86.2754 48.8785C85.387 48.621 84.8756 47.692 85.1332 46.8036C85.3907 45.9152 86.3197 45.4038 87.2081 45.6614C88.0965 45.9189 88.6079 46.8479 88.3503 47.7363Z" fill="white"/>
</g>
<g opacity="0.06" clip-path="url(#clip3_2203_4637)">
<mask id="mask2_2203_4637" style="mask-type:alpha" maskUnits="userSpaceOnUse" x="120" y="40" width="16" height="16">
<circle cx="128.144" cy="48.1445" r="7.8502" transform="rotate(-21.9533 128.144 48.1445)" fill="#D9D9D9"/>
</mask>
<g mask="url(#mask2_2203_4637)">
<rect x="117" y="43.4032" width="17.1277" height="17.1277" transform="rotate(-21.9533 117 43.4032)" fill="#ED3241"/>
</g>
<path d="M126.194 44.3601C126.289 44.2628 126.403 44.1864 126.529 44.1356C126.655 44.0849 126.79 44.061 126.926 44.0654C127.062 44.0698 127.195 44.1024 127.317 44.1613C127.44 44.2201 127.549 44.3038 127.637 44.407C127.725 44.5102 127.791 44.6307 127.83 44.7608L129.072 48.8838C129.112 49.0232 129.099 49.1724 129.035 49.3027C128.971 49.4329 128.862 49.535 128.727 49.5892C128.593 49.6434 128.443 49.6459 128.307 49.5962C128.171 49.5465 128.058 49.4481 127.99 49.32L126.024 45.4887C125.962 45.3678 125.926 45.2353 125.918 45.0996C125.91 44.9639 125.93 44.8281 125.978 44.7008C126.026 44.5734 126.099 44.4574 126.194 44.3601Z" fill="white"/>
<path d="M130.278 50.9376C130.47 51.4159 130.239 51.96 129.761 52.1528C129.282 52.3456 128.738 52.1141 128.545 51.6358C128.353 51.1575 128.584 50.6134 129.062 50.4206C129.541 50.2278 130.085 50.4593 130.278 50.9376Z" fill="white"/>
</g>
</g>
<defs>
<clipPath id="clip0_2203_4637">
<rect width="167" height="51" rx="12" fill="white"/>
</clipPath>
<clipPath id="clip1_2203_4637">
<rect width="41" height="41" fill="white" transform="translate(95.6016 -7.35132) rotate(-14.185)"/>
</clipPath>
<clipPath id="clip2_2203_4637">
<rect width="30.7192" height="30.7192" fill="white" transform="translate(77.9578 22.4042) rotate(16.1678)"/>
</clipPath>
<clipPath id="clip3_2203_4637">
<rect width="17.1277" height="17.1277" fill="white" transform="translate(117 43.4032) rotate(-21.9533)"/>
</clipPath>
</defs>
</svg>
