<svg width="24" height="24" viewBox="0 0 24 24" fill="none" xmlns="http://www.w3.org/2000/svg">
    <path
        d="M9.59707 8.43776C9.27693 8.11762 8.75789 8.11762 8.43775 8.43776C8.11761 8.7579 8.11761 9.27695 8.43775 9.59709L10.5907 11.75L8.43777 13.9029C8.11763 14.223 8.11763 14.7421 8.43777 15.0622C8.75791 15.3823 9.27696 15.3823 9.5971 15.0622L11.75 12.9093L13.9028 15.0622C14.223 15.3823 14.742 15.3823 15.0622 15.0622C15.3823 14.742 15.3823 14.223 15.0622 13.9029L12.9093 11.75L15.0622 9.59711C15.3823 9.27697 15.3823 8.75792 15.0622 8.43779C14.742 8.11765 14.223 8.11765 13.9029 8.43779L11.75 10.5907L9.59707 8.43776Z"
        fill="#006FFD" />
    <path fill-rule="evenodd" clip-rule="evenodd"
        d="M11.75 0C5.26065 0 0 5.26065 0 11.75C0 18.2393 5.26065 23.5 11.75 23.5C18.2393 23.5 23.5 18.2393 23.5 11.75C23.5 5.26065 18.2393 0 11.75 0ZM1.63953 11.75C1.63953 6.16614 6.16614 1.63953 11.75 1.63953C17.3339 1.63953 21.8605 6.16614 21.8605 11.75C21.8605 17.3339 17.3339 21.8605 11.75 21.8605C6.16614 21.8605 1.63953 17.3339 1.63953 11.75Z"
        fill="#006FFD" />
</svg>
