<svg width="168" height="108" viewBox="0 0 168 108" fill="none" xmlns="http://www.w3.org/2000/svg">
<rect width="168" height="108" rx="12" fill="#EAF2FF"/>
<path d="M64.7822 8.21777L70 10L64.7822 11.7822L63.1699 16.5L64.7822 21.2178L70 23L64.7822 24.7822L63.1699 29.5L64.7822 34.2178L70 36L64.7822 37.7822L63.1699 42.5L64.7822 47.2178L70 49L64.7822 50.7822L63.1699 55.5L64.7822 60.2178L70 62L64.7822 63.7822L63.1699 68.5L64.7822 73.2178L70 75L64.7822 76.7822L63.1699 81.5L64.7822 86.2178L70 88L64.7822 89.7822L63.1699 94.5L64.7822 99.2178L70 101L64.7822 102.782L63 108L61.2178 102.782L56 101L61.2178 99.2178L62.8291 94.5L61.2178 89.7822L56 88L61.2178 86.2178L62.8291 81.5L61.2178 76.7822L56 75L61.2178 73.2178L62.8291 68.5L61.2178 63.7822L56 62L61.2178 60.2178L62.8291 55.5L61.2178 50.7822L56 49L61.2178 47.2178L62.8291 42.5L61.2178 37.7822L56 36L61.2178 34.2178L62.8291 29.5L61.2178 24.7822L56 23L61.2178 21.2178L62.8291 16.5L61.2178 11.7822L56 10L61.2178 8.21777L63 3L64.7822 8.21777ZM78.7822 8.21777L84 10L78.7822 11.7822L77.1699 16.5L78.7822 21.2178L84 23L78.7822 24.7822L77.1699 29.5L78.7822 34.2178L84 36L78.7822 37.7822L77.1699 42.5L78.7822 47.2178L84 49L78.7822 50.7822L77.1699 55.5L78.7822 60.2178L84 62L78.7822 63.7822L77.1699 68.5L78.7822 73.2178L84 75L78.7822 76.7822L77.1699 81.5L78.7822 86.2178L84 88L78.7822 89.7822L77.1699 94.5L78.7822 99.2178L84 101L78.7822 102.782L77 108L75.2178 102.782L70 101L75.2178 99.2178L76.8291 94.5L75.2178 89.7822L70 88L75.2178 86.2178L76.8291 81.5L75.2178 76.7822L70 75L75.2178 73.2178L76.8291 68.5L75.2178 63.7822L70 62L75.2178 60.2178L76.8291 55.5L75.2178 50.7822L70 49L75.2178 47.2178L76.8291 42.5L75.2178 37.7822L70 36L75.2178 34.2178L76.8291 29.5L75.2178 24.7822L70 23L75.2178 21.2178L76.8291 16.5L75.2178 11.7822L70 10L75.2178 8.21777L77 3L78.7822 8.21777ZM92.7822 8.21777L98 10L92.7822 11.7822L91.1699 16.5L92.7822 21.2178L98 23L92.7822 24.7822L91.1699 29.5L92.7822 34.2178L98 36L92.7822 37.7822L91.1699 42.5L92.7822 47.2178L98 49L92.7822 50.7822L91.1699 55.5L92.7822 60.2178L98 62L92.7822 63.7822L91.1699 68.5L92.7822 73.2178L98 75L92.7822 76.7822L91.1699 81.5L92.7822 86.2178L98 88L92.7822 89.7822L91.1699 94.5L92.7822 99.2178L98 101L92.7822 102.782L91 108L89.2178 102.782L84 101L89.2178 99.2178L90.8291 94.5L89.2178 89.7822L84 88L89.2178 86.2178L90.8291 81.5L89.2178 76.7822L84 75L89.2178 73.2178L90.8291 68.5L89.2178 63.7822L84 62L89.2178 60.2178L90.8291 55.5L89.2178 50.7822L84 49L89.2178 47.2178L90.8291 42.5L89.2178 37.7822L84 36L89.2178 34.2178L90.8291 29.5L89.2178 24.7822L84 23L89.2178 21.2178L90.8291 16.5L89.2178 11.7822L84 10L89.2178 8.21777L91 3L92.7822 8.21777ZM106.782 8.21777L112 10L106.782 11.7822L105.17 16.5L106.782 21.2178L112 23L106.782 24.7822L105.17 29.5L106.782 34.2178L112 36L106.782 37.7822L105.17 42.5L106.782 47.2178L112 49L106.782 50.7822L105.17 55.5L106.782 60.2178L112 62L106.782 63.7822L105.17 68.5L106.782 73.2178L112 75L106.782 76.7822L105.17 81.5L106.782 86.2178L112 88L106.782 89.7822L105.17 94.5L106.782 99.2178L112 101L106.782 102.782L105 108L103.218 102.782L98 101L103.218 99.2178L104.829 94.5L103.218 89.7822L98 88L103.218 86.2178L104.829 81.5L103.218 76.7822L98 75L103.218 73.2178L104.829 68.5L103.218 63.7822L98 62L103.218 60.2178L104.829 55.5L103.218 50.7822L98 49L103.218 47.2178L104.829 42.5L103.218 37.7822L98 36L103.218 34.2178L104.829 29.5L103.218 24.7822L98 23L103.218 21.2178L104.829 16.5L103.218 11.7822L98 10L103.218 8.21777L105 3L106.782 8.21777ZM120.782 8.21777L126 10L120.782 11.7822L119.17 16.5L120.782 21.2178L126 23L120.782 24.7822L119.17 29.5L120.782 34.2178L126 36L120.782 37.7822L119.17 42.5L120.782 47.2178L126 49L120.782 50.7822L119.17 55.5L120.782 60.2178L126 62L120.782 63.7822L119.17 68.5L120.782 73.2178L126 75L120.782 76.7822L119.17 81.5L120.782 86.2178L126 88L120.782 89.7822L119.17 94.5L120.782 99.2178L126 101L120.782 102.782L119 108L117.218 102.782L112 101L117.218 99.2178L118.829 94.5L117.218 89.7822L112 88L117.218 86.2178L118.829 81.5L117.218 76.7822L112 75L117.218 73.2178L118.829 68.5L117.218 63.7822L112 62L117.218 60.2178L118.829 55.5L117.218 50.7822L112 49L117.218 47.2178L118.829 42.5L117.218 37.7822L112 36L117.218 34.2178L118.829 29.5L117.218 24.7822L112 23L117.218 21.2178L118.829 16.5L117.218 11.7822L112 10L117.218 8.21777L119 3L120.782 8.21777ZM134.782 8.21777L140 10L134.782 11.7822L133.17 16.5L134.782 21.2178L140 23L134.782 24.7822L133.17 29.5L134.782 34.2178L140 36L134.782 37.7822L133.17 42.5L134.782 47.2178L140 49L134.782 50.7822L133.17 55.5L134.782 60.2178L140 62L134.782 63.7822L133.17 68.5L134.782 73.2178L140 75L134.782 76.7822L133.17 81.5L134.782 86.2178L140 88L134.782 89.7822L133.17 94.5L134.782 99.2178L140 101L134.782 102.782L133 108L131.218 102.782L126 101L131.218 99.2178L132.829 94.5L131.218 89.7822L126 88L131.218 86.2178L132.829 81.5L131.218 76.7822L126 75L131.218 73.2178L132.829 68.5L131.218 63.7822L126 62L131.218 60.2178L132.829 55.5L131.218 50.7822L126 49L131.218 47.2178L132.829 42.5L131.218 37.7822L126 36L131.218 34.2178L132.829 29.5L131.218 24.7822L126 23L131.218 21.2178L132.829 16.5L131.218 11.7822L126 10L131.218 8.21777L133 3L134.782 8.21777ZM148.782 8.21777L154 10L148.782 11.7822L147.17 16.5L148.782 21.2178L154 23L148.782 24.7822L147.17 29.5L148.782 34.2178L154 36L148.782 37.7822L147.17 42.5L148.782 47.2178L154 49L148.782 50.7822L147.17 55.5L148.782 60.2178L154 62L148.782 63.7822L147.17 68.5L148.782 73.2178L154 75L148.782 76.7822L147.17 81.5L148.782 86.2178L154 88L148.782 89.7822L147.17 94.5L148.782 99.2178L154 101L148.782 102.782L147 108L145.218 102.782L140 101L145.218 99.2178L146.829 94.5L145.218 89.7822L140 88L145.218 86.2178L146.829 81.5L145.218 76.7822L140 75L145.218 73.2178L146.829 68.5L145.218 63.7822L140 62L145.218 60.2178L146.829 55.5L145.218 50.7822L140 49L145.218 47.2178L146.829 42.5L145.218 37.7822L140 36L145.218 34.2178L146.829 29.5L145.218 24.7822L140 23L145.218 21.2178L146.829 16.5L145.218 11.7822L140 10L145.218 8.21777L147 3L148.782 8.21777ZM162.782 8.21777L168 10L162.782 11.7822L161.17 16.5L162.782 21.2178L168 23L162.782 24.7822L161.17 29.5L162.782 34.2178L168 36L162.782 37.7822L161.17 42.5L162.782 47.2178L168 49L162.782 50.7822L161.17 55.5L162.782 60.2178L168 62L162.782 63.7822L161.17 68.5L162.782 73.2178L168 75L162.782 76.7822L161.17 81.5L162.782 86.2178L168 88L162.782 89.7822L161.17 94.5L162.782 99.2178L168 101L162.782 102.782L161 108L159.218 102.782L154 101L159.218 99.2178L160.829 94.5L159.218 89.7822L154 88L159.218 86.2178L160.829 81.5L159.218 76.7822L154 75L159.218 73.2178L160.829 68.5L159.218 63.7822L154 62L159.218 60.2178L160.829 55.5L159.218 50.7822L154 49L159.218 47.2178L160.829 42.5L159.218 37.7822L154 36L159.218 34.2178L160.829 29.5L159.218 24.7822L154 23L159.218 21.2178L160.829 16.5L159.218 11.7822L154 10L159.218 8.21777L161 3L162.782 8.21777Z" fill="url(#paint0_linear_2192_4744)"/>
<defs>
<linearGradient id="paint0_linear_2192_4744" x1="168" y1="115" x2="97.5" y2="43.5" gradientUnits="userSpaceOnUse">
<stop stop-color="#006FFD" stop-opacity="0"/>
<stop offset="0.45" stop-color="#D7E8FF" stop-opacity="0.45"/>
<stop offset="1" stop-color="#EAF2FF"/>
</linearGradient>
</defs>
</svg>
