<svg width="21" height="28" viewBox="0 0 21 28" fill="none" xmlns="http://www.w3.org/2000/svg">
    <g clip-path="url(#clip0_219_838)">
        <path
            d="M5.21286 12.0457H4.01901V12.5071H5.48222V13.4805H2.82732V9.6792H5.45205L5.30336 10.6526H4.01039V11.1624H5.20424V12.0413L5.21286 12.0457ZM5.99295 21.0193C6.03745 20.9733 6.09046 20.9368 6.14891 20.9119C6.20736 20.887 6.27008 20.8742 6.33343 20.8742C6.39678 20.8742 6.4595 20.887 6.51795 20.9119C6.5764 20.9368 6.62941 20.9733 6.67391 21.0193C6.76446 21.113 6.81521 21.2393 6.81521 21.3708C6.81521 21.5024 6.76446 21.6287 6.67391 21.7224L6.08346 22.3376L6.68038 22.9529C6.72527 22.9986 6.76089 23.0529 6.78519 23.1126C6.80949 23.1724 6.82199 23.2365 6.82199 23.3011C6.82199 23.3658 6.80949 23.4299 6.78519 23.4897C6.76089 23.5494 6.72527 23.6037 6.68038 23.6494C6.63591 23.6951 6.58303 23.7313 6.52478 23.756C6.46653 23.7807 6.40407 23.7934 6.34097 23.7934C6.27788 23.7934 6.21541 23.7807 6.15716 23.756C6.09891 23.7313 6.04603 23.6951 6.00157 23.6494L5.41542 23.0386L4.82496 23.6516C4.78046 23.6976 4.72745 23.7341 4.669 23.759C4.61055 23.7839 4.54783 23.7967 4.48448 23.7967C4.42113 23.7967 4.35841 23.7839 4.29996 23.759C4.24152 23.7341 4.1885 23.6976 4.144 23.6516C4.05294 23.5582 4.00183 23.4318 4.00183 23.3C4.00183 23.1683 4.05294 23.0419 4.144 22.9485L4.73877 22.3311L4.144 21.7158C4.0532 21.6231 4.0022 21.4975 4.0022 21.3665C4.0022 21.2354 4.0532 21.1098 4.144 21.0171C4.23409 20.9254 4.35615 20.874 4.4834 20.874C4.61066 20.874 4.73272 20.9254 4.82281 21.0171L5.40896 21.6279L5.99941 21.0149L5.99295 21.0193ZM3.72594 17.6992C3.6757 17.634 3.63927 17.5589 3.61893 17.4786C3.5986 17.3983 3.59481 17.3146 3.60781 17.2328C3.6208 17.1509 3.65029 17.0727 3.69443 17.0031C3.73856 16.9334 3.79637 16.8739 3.86422 16.8282C3.93206 16.7825 4.00846 16.7516 4.0886 16.7375C4.16873 16.7234 4.25086 16.7264 4.3298 16.7463C4.40874 16.7662 4.48277 16.8026 4.54723 16.8532C4.61169 16.9037 4.66516 16.9674 4.70429 17.04L5.02322 17.3982L6.13948 15.9788C6.18844 15.918 6.24865 15.8677 6.31668 15.8307C6.38471 15.7937 6.45922 15.7707 6.53596 15.763C6.6127 15.7554 6.69017 15.7632 6.76394 15.7861C6.83771 15.809 6.90634 15.8464 6.96591 15.8964C7.02548 15.9463 7.07482 16.0077 7.11112 16.077C7.14742 16.1464 7.16997 16.2224 7.17747 16.3006C7.18498 16.3789 7.17729 16.4579 7.15486 16.5331C7.13242 16.6083 7.09568 16.6783 7.04672 16.739L5.45205 18.7034C5.41071 18.7535 5.3637 18.7985 5.31198 18.8374C5.18194 18.9262 5.02264 18.9587 4.86909 18.9278C4.71554 18.8969 4.5803 18.8051 4.4931 18.6726L3.72594 17.6992ZM8.11557 2.125V3.24121C8.11463 3.38079 8.06301 3.51507 7.97069 3.61813C7.87836 3.7212 7.75187 3.78574 7.61563 3.79932C7.55284 3.81911 7.4874 3.82874 7.42168 3.82788H5.38741V6.1394H15.6105V3.83008H13.5762C13.5105 3.83109 13.445 3.82145 13.3823 3.80151C13.246 3.78794 13.1195 3.72339 13.0272 3.62033C12.9349 3.51727 12.8833 3.38299 12.8823 3.24341V2.1272L8.11557 2.125ZM5.11373 7.28638C4.89337 7.28502 4.68226 7.19592 4.52543 7.03809C4.50603 7.01611 4.49741 6.99634 4.47802 6.97656C4.35496 6.82498 4.28651 6.635 4.28407 6.43823V5.30225H1.22189C1.20545 5.3012 1.189 5.30425 1.17398 5.31114C1.15896 5.31803 1.14582 5.32855 1.13569 5.3418C1.11262 5.36724 1.09826 5.39962 1.09474 5.43408V26.7476C1.0927 26.765 1.09544 26.7826 1.10267 26.7985C1.10991 26.8144 1.12134 26.828 1.13569 26.8376C1.14671 26.8498 1.16002 26.8596 1.17483 26.8664C1.18964 26.8732 1.20565 26.8769 1.22189 26.8772H19.7782C19.7944 26.8769 19.8104 26.8732 19.8252 26.8664C19.84 26.8596 19.8533 26.8498 19.8644 26.8376C19.8784 26.8276 19.8895 26.814 19.8967 26.7982C19.9039 26.7824 19.9069 26.7649 19.9053 26.7476V5.43408C19.9021 5.40017 19.8877 5.36839 19.8644 5.34399C19.8539 5.33116 19.8407 5.32092 19.8258 5.31407C19.8108 5.30721 19.7945 5.30392 19.7782 5.30444H16.716V6.44043C16.7122 6.63694 16.6439 6.82648 16.522 6.97876C16.5026 6.99854 16.4919 7.01831 16.4725 7.04028C16.3164 7.19798 16.106 7.28711 15.8863 7.28857L5.11373 7.28638ZM1.23482 28C0.910856 27.9983 0.600805 27.8656 0.372835 27.6309C0.258383 27.5161 0.167439 27.3793 0.105288 27.2285C0.0431375 27.0776 0.0110202 26.9156 0.0108032 26.752V5.43848C0.0107803 5.27479 0.0427884 5.11274 0.104953 4.96182C0.167118 4.81091 0.258189 4.67415 0.372835 4.55957C0.485356 4.44287 0.619504 4.35014 0.767482 4.28677C0.91546 4.2234 1.07432 4.19065 1.23482 4.19043H4.29269V3.56201C4.29194 3.45051 4.3131 3.33999 4.35493 3.23697C4.39675 3.13394 4.45839 3.0405 4.5362 2.96216C4.69216 2.80272 4.90365 2.71267 5.1245 2.71167H7.02086V1.93823C7.021 1.81529 7.04529 1.69363 7.0923 1.58041C7.1393 1.4672 7.20807 1.36473 7.29454 1.27905C7.37864 1.19098 7.47915 1.12093 7.59017 1.07301C7.70118 1.02509 7.82047 1.00027 7.94102 1H13.059C13.1795 1.00063 13.2987 1.02562 13.4097 1.07352C13.5206 1.12142 13.6212 1.19128 13.7055 1.27905C13.7916 1.36503 13.8601 1.46756 13.9071 1.5807C13.9541 1.69385 13.9786 1.81537 13.9792 1.93823V2.71387H15.8756C16.096 2.7156 16.3069 2.80581 16.4626 2.96497C16.6183 3.12413 16.7062 3.33942 16.7074 3.56421V4.18164H19.7696C20.0954 4.18337 20.4074 4.31611 20.6378 4.55103C20.8681 4.78595 20.9983 5.10406 21 5.43628V26.7498C21 26.9134 20.968 27.0755 20.9059 27.2264C20.8437 27.3773 20.7526 27.5141 20.638 27.6287C20.4095 27.8626 20.0998 27.9952 19.776 27.9978L1.23482 28ZM16.7224 17.7585C16.8699 17.7585 17.0113 17.6988 17.1156 17.5925C17.2199 17.4862 17.2784 17.342 17.2784 17.1917C17.2784 17.0413 17.2199 16.8971 17.1156 16.7908C17.0113 16.6845 16.8699 16.6248 16.7224 16.6248H9.32019C9.17274 16.6248 9.03132 16.6845 8.92706 16.7908C8.82279 16.8971 8.76421 17.0413 8.76421 17.1917C8.76421 17.342 8.82279 17.4862 8.92706 17.5925C9.03132 17.6988 9.17274 17.7585 9.32019 17.7585H16.7224ZM16.7224 22.887C16.8699 22.887 17.0113 22.8272 17.1156 22.7209C17.2199 22.6146 17.2784 22.4704 17.2784 22.3201C17.2784 22.1697 17.2199 22.0255 17.1156 21.9192C17.0113 21.8129 16.8699 21.7532 16.7224 21.7532H9.32019C9.17274 21.7532 9.03132 21.8129 8.92706 21.9192C8.82279 22.0255 8.76421 22.1697 8.76421 22.3201C8.76421 22.4704 8.82279 22.6146 8.92706 22.7209C9.03132 22.8272 9.17274 22.887 9.32019 22.887H16.7224ZM7.26868 9.6792L7.68027 10.6943H7.74061L8.15221 9.6792H9.44518L8.61983 11.5161L9.44949 13.4805H8.12204L7.67381 12.3818H7.61994L7.18895 13.4805H5.91322L6.72563 11.5469L5.91322 9.6792H7.26868ZM10.8567 13.4805H9.59818L10.5593 9.6792H12.4018L13.3693 13.4805H12.1173L11.9794 12.8784H10.9903L10.8524 13.4805H10.8567ZM11.4557 10.8438L11.2058 11.9116H11.7553L11.5161 10.8459L11.4557 10.8438ZM14.88 13.4805H13.6322L13.8607 9.6792H15.4165L15.882 11.6128H15.9251L16.3884 9.6792H17.9465L18.162 13.4805H16.9272L16.8539 11.637H16.8086L16.3561 13.4805H15.4467L14.9877 11.637H14.9511L14.88 13.4805Z"
            fill="#006FFD" />
    </g>
    <defs>
        <clipPath id="clip0_219_838">
            <rect width="21" height="27" fill="white" transform="translate(0 1)" />
        </clipPath>
    </defs>
</svg>
