<svg width="24" height="24" viewBox="0 0 24 24" fill="none" xmlns="http://www.w3.org/2000/svg">
<path d="M14.6614 19.1107H9.48687C9.34701 19.1107 9.23047 19.2273 9.23047 19.3671V21.1852C9.23047 21.325 9.34701 21.4416 9.48687 21.4416H10.0929C10.2561 22.3973 11.0719 23.1198 12.0741 23.1198C13.0764 23.1198 13.8922 22.3973 14.0554 21.4416H14.6614C14.8013 21.4416 14.9178 21.325 14.9178 21.1852V19.3671C14.9411 19.2506 14.8246 19.1107 14.6614 19.1107Z" fill="#E86339"/>
<path d="M12.0754 4.00683C12.4483 4.00683 12.7513 3.70381 12.7513 3.33087V1.67595C12.7513 1.30301 12.4483 1 12.0754 1C11.7024 1 11.3994 1.30301 11.3994 1.67595V3.33087C11.3994 3.70381 11.7024 4.00683 12.0754 4.00683Z" fill="#E86339"/>
<path d="M7.66971 4.68282C7.78625 4.8926 8.01934 5.00914 8.25243 5.00914C8.36897 5.00914 8.48551 4.98583 8.57875 4.9159C8.90507 4.72943 8.99831 4.30988 8.83515 4.00686L7.99603 2.56172C7.80956 2.2354 7.39 2.14216 7.08699 2.30532C6.76067 2.49179 6.66743 2.91135 6.83059 3.21437L7.66971 4.68282Z" fill="#E86339"/>
<path d="M5.78204 6.57081L4.3369 5.73169C4.01058 5.54522 3.61433 5.66177 3.42786 5.98809C3.24139 6.31441 3.35793 6.71066 3.68426 6.89713L5.1294 7.73624C5.24594 7.80617 5.33918 7.82948 5.45572 7.82948C5.68881 7.82948 5.9219 7.71294 6.03844 7.50316C6.22491 7.15353 6.10837 6.75728 5.78204 6.57081Z" fill="#E86339"/>
<path d="M5.10546 10.976C5.10546 10.6031 4.80245 10.3 4.42951 10.3H2.77459C2.40165 10.3 2.09863 10.6031 2.09863 10.976C2.09863 11.3489 2.40165 11.652 2.77459 11.652H4.42951C4.80245 11.652 5.10546 11.3489 5.10546 10.976Z" fill="#E86339"/>
<path d="M5.1055 14.2159L3.68367 15.055C3.35735 15.2415 3.26411 15.661 3.42727 15.9641C3.54382 16.1738 3.7769 16.2904 4.00999 16.2904C4.12654 16.2904 4.24308 16.2671 4.33631 16.1971L5.78146 15.358C6.10778 15.1716 6.20101 14.752 6.03785 14.449C5.85138 14.146 5.43183 14.0294 5.1055 14.2159Z" fill="#E86339"/>
<path d="M20.4656 15.0552L19.0205 14.2161C18.6942 14.0296 18.2979 14.1461 18.1115 14.4725C17.925 14.7988 18.0415 15.195 18.3678 15.3815L19.813 16.2206C19.9295 16.2905 20.0228 16.3139 20.1393 16.3139C20.3724 16.3139 20.6055 16.1973 20.722 15.9875C20.9085 15.6379 20.792 15.2417 20.4656 15.0552Z" fill="#E86339"/>
<path d="M21.3748 10.3H19.7199C19.347 10.3 19.0439 10.6031 19.0439 10.976C19.0439 11.3489 19.347 11.652 19.7199 11.652H21.3748C21.7478 11.652 22.0508 11.3489 22.0508 10.976C22.0508 10.6031 21.7478 10.3 21.3748 10.3Z" fill="#E86339"/>
<path d="M18.6946 7.82963C18.8111 7.82963 18.9276 7.80632 19.0209 7.73639L20.466 6.89728C20.7923 6.71081 20.8856 6.29125 20.7224 5.98823C20.536 5.66191 20.1164 5.56868 19.8134 5.73184L18.3682 6.57095C18.0419 6.75742 17.9487 7.17698 18.1118 7.47999C18.2517 7.68977 18.4615 7.82963 18.6946 7.82963Z" fill="#E86339"/>
<path d="M15.571 4.93908C15.6875 5.00901 15.7808 5.03232 15.8973 5.03232C16.1304 5.03232 16.3635 4.91577 16.48 4.70599L17.3191 3.26085C17.5056 2.93453 17.3891 2.53828 17.0627 2.35181C16.7364 2.16534 16.3402 2.28188 16.1537 2.60821L15.3146 4.05335C15.1281 4.33305 15.2447 4.75261 15.571 4.93908Z" fill="#E86339"/>
<path d="M12.3309 5.28869C10.4662 5.19546 8.718 6.01127 7.52925 7.52633C6.89992 8.31883 6.50367 9.2978 6.41043 10.3001C6.24727 11.8385 6.66683 13.3069 7.59918 14.4957C8.27513 15.3581 8.76462 16.1972 9.04432 17.0596L9.16087 17.4092C9.20748 17.5724 9.37065 17.6889 9.53381 17.6889H14.6151C14.7783 17.6889 14.9414 17.5724 14.9881 17.4092L15.1046 17.0596C15.3843 16.2205 15.8272 15.4047 16.4798 14.5656C16.9926 13.9129 17.3889 13.1671 17.5986 12.3512C18.4844 8.7617 15.7806 5.42855 12.3309 5.28869ZM11.3286 8.71508C11.3286 8.29552 11.6782 7.9692 12.0745 7.9692C12.494 7.9692 12.8203 8.31883 12.8203 8.71508V12.0249C12.8203 12.4445 12.4707 12.7708 12.0745 12.7708C11.6549 12.7708 11.3286 12.4212 11.3286 12.0249V8.71508ZM12.0745 15.1716C11.6316 15.1716 11.282 14.822 11.282 14.3791C11.282 13.9362 11.6316 13.5866 12.0745 13.5866C12.5173 13.5866 12.867 13.9362 12.867 14.3791C12.867 14.822 12.5173 15.1716 12.0745 15.1716Z" fill="#E86339"/>
</svg>
