<svg width="167" height="51" viewBox="0 0 167 51" fill="none" xmlns="http://www.w3.org/2000/svg">
<g clip-path="url(#clip0_2203_4631)">
<rect width="167" height="51" rx="12" fill="#E7F4E8"/>
<g opacity="0.06" clip-path="url(#clip1_2203_4631)">
<path d="M115.251 4.25891L115.229 4.35259C114.966 5.46434 114.835 6.02022 114.46 6.41177C114.084 6.80332 113.535 6.95843 112.435 7.26866L111.276 7.59575C112.546 5.37552 113.388 2.86642 113.994 0.6936C114.02 0.600435 114.046 0.506228 114.073 0.41102L114.092 0.34433C114.864 0.835282 115.285 1.1647 115.483 1.64315C115.729 2.23699 115.57 2.91097 115.251 4.25891Z" fill="#298267"/>
<path d="M89.4186 -1.8467L89.3964 -1.75302C89.1337 -0.641256 89.0023 -0.0853731 89.1624 0.432679C89.3225 0.950729 89.7447 1.33555 90.5889 2.10517L91.4795 2.91708C91.3376 0.362966 91.7082 -2.25763 92.1396 -4.4717C92.158 -4.56663 92.1763 -4.66283 92.1948 -4.76005L92.2078 -4.82831C91.2973 -4.73498 90.7734 -4.62885 90.382 -4.28962C89.8964 -3.86865 89.7371 -3.19466 89.4186 -1.8467Z" fill="#298267"/>
<path fill-rule="evenodd" clip-rule="evenodd" d="M104.216 -6.75329C106.52 -6.20881 108.37 -5.55734 109.764 -4.96922C111.176 -4.37343 111.882 -4.07553 112.318 -3.17354C112.753 -2.27155 112.527 -1.46131 112.076 0.159181C110.526 5.72247 107.656 12.4506 100.921 11.5141L99.8424 16.0791L101.69 16.5157C102.305 16.6612 102.733 17.2211 102.711 17.8534L102.666 19.1332L106.089 19.9422C106.624 20.0686 106.955 20.6049 106.829 21.1399C106.702 21.6749 106.166 22.0061 105.631 21.8796L90.1317 18.2163C89.5967 18.0898 89.2655 17.5536 89.392 17.0186C89.5184 16.4836 90.0546 16.1524 90.5896 16.2788L94.0125 17.0878L94.5457 15.9235C94.8091 15.3483 95.442 15.0391 96.0577 15.1846L97.9049 15.6212L98.9839 11.0561C92.5433 8.87843 92.9893 1.57757 94.0936 -4.091C94.4153 -5.74219 94.5762 -6.56778 95.3695 -7.17932C96.1628 -7.79085 96.9275 -7.74111 98.457 -7.64164C99.9668 -7.54344 101.913 -7.29777 104.216 -6.75329ZM104.164 -1.03922L104.091 -1.29702C103.808 -2.2935 103.667 -2.79173 103.3 -2.87845C102.933 -2.96517 102.584 -2.58294 101.885 -1.81847L101.704 -1.6207C101.506 -1.40346 101.406 -1.29484 101.278 -1.238C101.15 -1.18115 101.007 -1.18252 100.722 -1.18525L100.462 -1.18774C99.4579 -1.19737 98.9559 -1.20218 98.7564 -0.86438C98.5568 -0.526584 98.7919 -0.0698931 99.2621 0.843489L99.3837 1.07979C99.5173 1.33934 99.5841 1.46912 99.5941 1.6125C99.604 1.75587 99.556 1.89661 99.46 2.17809L99.3726 2.43435C99.0348 3.42488 98.8659 3.92014 99.1095 4.21563C99.353 4.51112 99.8478 4.41113 100.837 4.21117L101.093 4.15944C101.374 4.10261 101.515 4.0742 101.649 4.10597C101.784 4.13773 101.897 4.22608 102.123 4.40278L102.329 4.56365C103.124 5.18545 103.521 5.49635 103.872 5.34118C104.222 5.186 104.292 4.66752 104.434 3.63055L104.47 3.36228C104.51 3.0676 104.531 2.92027 104.604 2.79653C104.677 2.67278 104.795 2.58665 105.03 2.41437L105.245 2.25753C106.074 1.6513 106.489 1.34818 106.462 0.956792C106.434 0.565402 105.983 0.344943 105.081 -0.0959728L104.848 -0.210043C104.591 -0.335337 104.463 -0.397984 104.374 -0.506227C104.285 -0.61447 104.245 -0.756054 104.164 -1.03922Z" fill="#298267"/>
</g>
<g opacity="0.06" clip-path="url(#clip2_2203_4631)">
<path d="M137.495 33.067L137.515 33.1339C137.749 33.9273 137.865 34.324 137.77 34.7049C137.675 35.0857 137.385 35.3805 136.804 35.97L136.193 36.5916C136.195 34.7396 135.824 32.8597 135.425 31.276C135.408 31.2081 135.391 31.1392 135.374 31.0697L135.362 31.021C136.024 31.0527 136.407 31.1089 136.703 31.3387C137.07 31.624 137.212 32.105 137.495 33.067Z" fill="#298267"/>
<path d="M119.059 38.4955L119.079 38.5623C119.312 39.3558 119.429 39.7525 119.716 40.0208C120.002 40.2892 120.406 40.3797 121.213 40.5609L122.064 40.7519C121.059 39.1966 120.352 37.4156 119.828 35.8684C119.806 35.8021 119.783 35.735 119.76 35.6672L119.743 35.6197C119.204 36.005 118.913 36.2597 118.789 36.6135C118.634 37.0525 118.776 37.5335 119.059 38.4955Z" fill="#298267"/>
<path fill-rule="evenodd" clip-rule="evenodd" d="M126.605 30.1007C128.249 29.6166 129.646 29.3625 130.734 29.2323C131.835 29.1003 132.386 29.0343 132.984 29.4453C133.582 29.8563 133.73 30.4468 134.028 31.6279C135.049 35.6828 135.658 40.9437 131.087 42.7709L132.046 46.0289L133.364 45.6407C133.804 45.5113 134.273 45.7101 134.486 46.1156L134.918 46.9364L137.36 46.2171C137.742 46.1047 138.143 46.3231 138.255 46.7049C138.368 47.0867 138.149 47.4874 137.768 47.5998L126.706 50.8569C126.324 50.9693 125.923 50.7509 125.811 50.3691C125.698 49.9873 125.917 49.5866 126.299 49.4742L128.741 48.7549L128.659 47.8314C128.618 47.3751 128.905 46.9536 129.345 46.8242L130.663 46.436L129.704 43.178C124.872 44.1193 122.533 39.3679 121.194 35.4067C120.804 34.2529 120.609 33.676 120.888 33.0068C121.168 32.3376 121.667 32.0945 122.664 31.6083C123.649 31.1284 124.961 30.5848 126.605 30.1007ZM128.622 33.7128L128.484 33.5769C127.948 33.0517 127.681 32.789 127.419 32.8661C127.157 32.9432 127.074 33.309 126.909 34.0405L126.866 34.2298C126.819 34.4376 126.796 34.5416 126.736 34.6233C126.675 34.7051 126.585 34.7554 126.405 34.8561L126.241 34.9477C125.606 35.3019 125.288 35.479 125.284 35.763C125.28 36.0471 125.591 36.2499 126.215 36.6556L126.376 36.7606C126.553 36.8759 126.642 36.9335 126.699 37.0201C126.757 37.1067 126.777 37.2125 126.818 37.4239L126.855 37.6164C126.998 38.3606 127.069 38.7326 127.329 38.8311C127.588 38.9295 127.863 38.6891 128.414 38.2084L128.556 38.084C128.712 37.9474 128.791 37.8791 128.887 37.8508C128.983 37.8226 129.085 37.8376 129.291 37.8676L129.478 37.895C130.201 38.0007 130.563 38.0536 130.727 37.8304C130.892 37.6072 130.75 37.2557 130.467 36.5529L130.394 36.3711C130.313 36.1713 130.273 36.0715 130.275 35.9674C130.276 35.8634 130.319 35.7669 130.406 35.574L130.484 35.3984C130.789 34.7196 130.941 34.3802 130.783 34.1438C130.626 33.9075 130.263 33.9306 129.537 33.977L129.35 33.989C129.143 34.0022 129.04 34.0088 128.945 33.9727C128.85 33.9367 128.774 33.862 128.622 33.7128Z" fill="#298267"/>
</g>
<g opacity="0.06" clip-path="url(#clip3_2203_4631)">
<path d="M91.9371 45.7003L91.9257 45.7381C91.7907 46.1862 91.7232 46.4102 91.5601 46.561C91.397 46.7118 91.1684 46.7616 90.7111 46.8612L90.229 46.9661C90.8035 46.0898 91.2099 45.0847 91.5114 44.2113C91.5244 44.1738 91.5376 44.136 91.551 44.0977L91.5604 44.0709C91.864 44.2908 92.0279 44.436 92.097 44.6365C92.1827 44.8854 92.1009 45.1571 91.9371 45.7003Z" fill="#298267"/>
<path d="M81.5257 42.5628L81.5143 42.6006C81.3793 43.0486 81.3118 43.2727 81.3644 43.4885C81.417 43.7043 81.5801 43.8721 81.9062 44.2078L82.2502 44.5619C82.2556 43.514 82.4721 42.4516 82.7034 41.557C82.7134 41.5186 82.7232 41.4797 82.7332 41.4404L82.7402 41.4128C82.3656 41.4284 82.1487 41.4588 81.9803 41.5878C81.7713 41.7479 81.6894 42.0195 81.5257 42.5628Z" fill="#298267"/>
<path fill-rule="evenodd" clip-rule="evenodd" d="M87.6982 40.9237C88.6267 41.2034 89.367 41.5157 89.9224 41.7908C90.485 42.0695 90.7664 42.2088 90.9221 42.5884C91.0778 42.9681 90.9654 43.2938 90.7405 43.9452C89.9686 46.1815 88.6281 48.8615 85.8977 48.3114L85.3432 50.1513L86.0878 50.3757C86.3359 50.4505 86.4968 50.69 86.4721 50.948L86.4222 51.4702L87.8017 51.8859C88.0173 51.9509 88.1395 52.1784 88.0745 52.394C88.0095 52.6096 87.782 52.7318 87.5664 52.6668L81.3195 50.7842C81.1039 50.7193 80.9818 50.4918 81.0468 50.2762C81.1117 50.0605 81.3392 49.9384 81.5548 50.0034L82.9344 50.4191L83.1813 49.9563C83.3033 49.7276 83.5697 49.6168 83.8179 49.6916L84.5624 49.916L85.1168 48.0761C82.5373 47.0258 82.9008 44.0516 83.493 41.7611C83.6655 41.0939 83.7518 40.7603 84.0914 40.5299C84.4309 40.2996 84.7424 40.3389 85.3653 40.4175C85.9802 40.4951 86.7698 40.6439 87.6982 40.9237ZM87.5352 43.2588L87.5117 43.1516C87.4208 42.7371 87.3754 42.5299 87.2275 42.4853C87.0797 42.4408 86.9273 42.5884 86.6225 42.8837L86.5437 42.96C86.4571 43.0439 86.4138 43.0859 86.3599 43.106C86.3061 43.126 86.2478 43.1219 86.1312 43.1137L86.025 43.1063C85.6147 43.0774 85.4095 43.063 85.3196 43.1962C85.2296 43.3293 85.3144 43.5219 85.484 43.9071L85.5278 44.0067C85.576 44.1161 85.6001 44.1709 85.6007 44.2297C85.6012 44.2886 85.578 44.345 85.5318 44.4577L85.4897 44.5603C85.327 44.9569 85.2456 45.1553 85.3379 45.2821C85.4302 45.409 85.6349 45.3804 86.0445 45.3232L86.1505 45.3084C86.2669 45.2921 86.3251 45.284 86.3792 45.3003C86.4334 45.3166 86.4774 45.3556 86.5654 45.4334L86.6456 45.5043C86.9553 45.7783 87.1102 45.9153 87.2572 45.8605C87.4042 45.8058 87.446 45.5955 87.5295 45.175L87.5511 45.0662C87.5749 44.9467 87.5867 44.887 87.6197 44.8382C87.6526 44.7894 87.703 44.7571 87.8036 44.6925L87.8952 44.6337C88.2494 44.4064 88.4265 44.2927 88.4251 44.132C88.4236 43.9713 88.2447 43.87 87.8867 43.6673L87.7941 43.6149C87.6924 43.5573 87.6416 43.5285 87.6078 43.482C87.574 43.4355 87.561 43.3766 87.5352 43.2588Z" fill="#298267"/>
</g>
</g>
<defs>
<clipPath id="clip0_2203_4631">
<rect width="167" height="51" rx="12" fill="white"/>
</clipPath>
<clipPath id="clip1_2203_4631">
<rect width="31.8532" height="31.8532" fill="white" transform="translate(89.3271 -13) rotate(13.2981)"/>
</clipPath>
<clipPath id="clip2_2203_4631">
<rect width="23.0627" height="23.0627" fill="white" transform="translate(115 31.5142) rotate(-16.4068)"/>
</clipPath>
<clipPath id="clip3_2203_4631">
<rect width="13.0487" height="13.0487" fill="white" transform="translate(81.7651 38) rotate(16.7704)"/>
</clipPath>
</defs>
</svg>
