<svg width="73" height="12" viewBox="0 0 73 12" fill="none" xmlns="http://www.w3.org/2000/svg">
<rect width="73" height="12" rx="4" fill="url(#paint0_linear_770_1456)"/>
<path d="M12.8545 10V2.9541H15.7598C17.2441 2.9541 18.2354 3.91113 18.2354 5.36133V5.37109C18.2354 6.82129 17.2441 7.77832 15.7598 7.77832H14.3291V10H12.8545ZM15.3984 4.12109H14.3291V6.62598H15.3984C16.2432 6.62598 16.7412 6.17676 16.7412 5.37598V5.36621C16.7412 4.56543 16.2432 4.12109 15.3984 4.12109ZM19.5928 10V2.9541H22.5273C24.1289 2.9541 25.0469 3.80859 25.0469 5.19531V5.20508C25.0469 6.1084 24.5781 6.88477 23.7725 7.20215L25.2568 10H23.5869L22.2734 7.42188H21.0674V10H19.5928ZM21.0674 6.34766H22.3662C23.1035 6.34766 23.5381 5.92773 23.5381 5.23438V5.22461C23.5381 4.5459 23.084 4.10645 22.3467 4.10645H21.0674V6.34766ZM26.5361 10V2.9541H31.2041V4.16992H28.0107V5.86914H31.0234V7.00195H28.0107V8.78418H31.2041V10H26.5361ZM32.7568 10V2.9541H34.4463L36.3945 8.11035H36.4824L38.4258 2.9541H40.1152V10H38.8018V5.20508H38.7041L36.8975 10H35.9746L34.168 5.20508H34.0703V10H32.7568ZM41.8291 10V2.9541H43.3037V10H41.8291ZM47.9619 10.1807C46.1553 10.1807 45.0078 9.13574 45.0078 7.56836V2.9541H46.4824V7.43652C46.4824 8.34961 47.0146 8.93066 47.9619 8.93066C48.9092 8.93066 49.4365 8.34961 49.4365 7.43652V2.9541H50.9111V7.56836C50.9111 9.13086 49.7783 10.1807 47.9619 10.1807ZM52.6201 10V2.9541H54.3096L56.2578 8.11035H56.3457L58.2891 2.9541H59.9785V10H58.665V5.20508H58.5674L56.7607 10H55.8379L54.0312 5.20508H53.9336V10H52.6201Z" fill="black"/>
<defs>
<linearGradient id="paint0_linear_770_1456" x1="0" y1="6" x2="73" y2="6" gradientUnits="userSpaceOnUse">
<stop stop-color="#F4EA71"/>
<stop offset="0.201923" stop-color="#CCB853"/>
<stop offset="0.399038" stop-color="#F1E1B8"/>
<stop offset="0.600962" stop-color="#B89F45"/>
<stop offset="0.807692" stop-color="#F4EA71"/>
<stop offset="1" stop-color="#B2881F"/>
</linearGradient>
</defs>
</svg>
