<svg width="24" height="24" viewBox="0 0 30 30" fill="none" xmlns="http://www.w3.org/2000/svg">
    <g clip-path="url(#clip0_547_1096)">
        <path
            d="M15 0.750244C22.8698 0.750244 29.2499 7.12945 29.25 15.0002C29.25 22.8697 22.8698 29.2502 15 29.2502C7.1299 29.2501 0.75 22.8696 0.75 15.0002C0.750097 7.12952 7.12996 0.750342 15 0.750244Z"
            stroke="#006FFD" stroke-width="1.5" />
        <path
            d="M13.9459 19.687C13.7037 19.4981 13.3525 19.4035 12.8919 19.4035H8.26849C8.41596 19.1792 8.56078 18.9872 8.70251 18.8278C9.03313 18.4264 9.64279 17.8624 10.5315 17.1361C11.4201 16.4098 12.0534 15.877 12.4314 15.5374C12.8091 15.198 13.1798 14.7285 13.5429 14.1291C13.9061 13.5299 14.0877 12.8641 14.0877 12.1319C14.0877 11.6655 14.0005 11.2152 13.8264 10.7812C13.6521 10.3471 13.4086 9.96488 13.0957 9.63414C12.7826 9.30352 12.4194 9.04377 12.0062 8.85469C11.3685 8.57123 10.598 8.42957 9.69455 8.42957C8.94461 8.42957 8.29068 8.54028 7.73271 8.7617C7.17475 8.98312 6.71413 9.27401 6.35098 9.63414C5.98783 9.99439 5.71465 10.3959 5.53168 10.8387C5.34859 11.2816 5.25711 11.7067 5.25711 12.1142C5.25711 12.4507 5.35452 12.7164 5.5494 12.9113C5.74428 13.1062 5.98916 13.2036 6.28453 13.2036C6.62107 13.2036 6.87641 13.0973 7.05067 12.8848C7.22481 12.6722 7.38129 12.3682 7.52012 11.9725C7.65883 11.5769 7.75775 11.3348 7.81682 11.2462C8.25966 10.5672 8.86776 10.2276 9.6414 10.2276C10.0075 10.2276 10.3456 10.3104 10.6555 10.4756C10.9655 10.641 11.2105 10.8728 11.3906 11.1709C11.5707 11.4692 11.6608 11.8072 11.6608 12.185C11.6608 12.5335 11.5766 12.8892 11.4084 13.2523C11.2401 13.6154 10.995 13.9697 10.6732 14.3151C10.3514 14.6606 9.94832 15.0046 9.46424 15.347C9.19257 15.53 8.74084 15.9124 8.10911 16.494C7.47719 17.0756 6.76861 17.7738 5.98341 18.5887C5.79434 18.7895 5.62026 19.0656 5.46082 19.4168C5.30137 19.7683 5.22168 20.0501 5.22168 20.2627C5.22168 20.5934 5.34569 20.8813 5.59366 21.1262C5.84168 21.3714 6.18706 21.4938 6.62996 21.4938H13.1488C13.5385 21.4938 13.8293 21.3935 14.0213 21.1927C14.2131 20.992 14.3091 20.7469 14.3091 20.4575C14.3091 20.1329 14.188 19.8761 13.9459 19.687Z"
            fill="#006FFD" />
        <path
            d="M24.2468 10.9892C23.9868 10.4284 23.6695 9.9574 23.2946 9.57653C22.9196 9.19567 22.4842 8.90641 21.9882 8.70856C21.4922 8.51079 20.94 8.41187 20.3319 8.41187C19.4108 8.41187 18.618 8.63486 17.9538 9.0806C17.2895 9.52653 16.7831 10.1745 16.4348 11.0247C16.234 11.5384 16.0863 12.1526 15.9919 12.867C15.8974 13.5815 15.8502 14.3846 15.8502 15.2762C15.8502 15.967 15.893 16.6092 15.9786 17.2026C16.0642 17.796 16.1986 18.3378 16.3816 18.8279C16.7417 19.7255 17.2776 20.4281 17.9892 20.9358C18.7007 21.4437 19.5051 21.6976 20.4028 21.6976C21.1822 21.6976 21.8908 21.5086 22.5285 21.1307C23.1662 20.7529 23.6857 20.2155 24.0873 19.5187C24.4061 18.9519 24.6245 18.3201 24.7428 17.6233C24.8608 16.9266 24.9199 16.094 24.9199 15.1256C24.9199 13.3423 24.6954 11.9636 24.2468 10.9892ZM22.3071 17.7118C22.183 18.4146 21.9674 18.9548 21.6605 19.3327C21.3534 19.7106 20.9283 19.8995 20.3851 19.8995C19.8594 19.8995 19.4431 19.718 19.1362 19.3548C18.8291 18.9917 18.6106 18.4558 18.4808 17.7472C18.3509 17.0387 18.2859 16.1294 18.2859 15.0193C18.2859 13.3837 18.4379 12.1732 18.7421 11.3878C19.0461 10.6026 19.5879 10.2098 20.3673 10.2098C20.9105 10.2098 21.3357 10.3856 21.6428 10.7369C21.9497 11.0883 22.1682 11.6079 22.2982 12.2957C22.428 12.9837 22.4931 13.8678 22.4931 14.9484C22.493 16.0881 22.431 17.0092 22.3071 17.7118Z"
            fill="#006FFD" />
    </g>
    <defs>
        <clipPath id="clip0_547_1096">
            <rect width="30" height="30" fill="white" />
        </clipPath>
    </defs>
</svg>
