<svg width="35" height="35" viewBox="0 0 30 30" fill="none" xmlns="http://www.w3.org/2000/svg">
    <g clip-path="url(#clip0_547_1107)">
        <path
            d="M15 0.750122C22.8698 0.750122 29.2499 7.12933 29.25 15.0001C29.25 22.8695 22.8698 29.2501 15 29.2501C7.1299 29.25 0.75 22.8695 0.75 15.0001C0.750097 7.1294 7.12996 0.750219 15 0.750122Z"
            stroke="#006FFD" stroke-width="1.5" />
        <path
            d="M13.9904 15.4266C13.7778 14.9129 13.4855 14.4687 13.1135 14.0936C12.7415 13.7188 12.3089 13.4249 11.8159 13.2124C11.3228 12.9998 10.7929 12.8935 10.2261 12.8935C9.51748 12.8935 8.7439 13.118 7.90549 13.5667L8.41037 10.697H12.6175C13.0544 10.697 13.385 10.6026 13.6095 10.4135C13.8338 10.2246 13.946 9.9766 13.946 9.6695C13.946 8.9669 13.4855 8.61548 12.5643 8.61548H7.88772C7.37982 8.61548 7.01376 8.7306 6.78944 8.96091C6.56499 9.19122 6.41147 9.5603 6.32888 10.0681L5.58492 14.3106C5.51986 14.6826 5.48751 14.8835 5.48751 14.9129C5.48751 15.1787 5.59962 15.4164 5.82406 15.6259C6.04838 15.8356 6.30524 15.9403 6.59462 15.9403C6.86036 15.9403 7.1983 15.7854 7.60873 15.4754C8.01905 15.1654 8.33346 14.9484 8.55204 14.8243C8.77044 14.7003 9.13359 14.6384 9.64149 14.6384C10.0547 14.6384 10.4298 14.7373 10.7664 14.9351C11.1029 15.133 11.3716 15.4326 11.5724 15.834C11.7731 16.2357 11.8735 16.7197 11.8735 17.2866C11.8735 17.8122 11.7805 18.2817 11.5945 18.6949C11.4085 19.1083 11.1442 19.433 10.8018 19.6691C10.4593 19.9054 10.0607 20.0234 9.60612 20.0234C9.11013 20.0234 8.6613 19.8773 8.25982 19.585C7.85821 19.2927 7.53932 18.8839 7.30327 18.3583C7.06111 17.7856 6.69215 17.4991 6.1961 17.4991C5.90672 17.4991 5.66607 17.6025 5.47427 17.8091C5.2823 18.0159 5.1864 18.2343 5.1864 18.4646C5.1864 18.8425 5.32372 19.2839 5.59829 19.7887C5.87286 20.2935 6.33922 20.7408 6.99774 21.1305C7.65608 21.5202 8.51371 21.7151 9.57075 21.7151C10.5154 21.7151 11.3495 21.5083 12.0729 21.0951C12.7961 20.6819 13.3497 20.1238 13.7336 19.421C14.1174 18.7185 14.3093 17.939 14.3093 17.0828C14.3092 16.4926 14.2029 15.9403 13.9904 15.4266Z"
            fill="#006FFD" />
        <path
            d="M24.2469 10.9892C23.987 10.4284 23.6696 9.9574 23.2947 9.57653C22.9197 9.19567 22.4843 8.90641 21.9883 8.70856C21.4924 8.51079 20.9402 8.41187 20.332 8.41187C19.4109 8.41187 18.6182 8.63486 17.9539 9.0806C17.2896 9.52653 16.7833 10.1745 16.4349 11.0247C16.2341 11.5384 16.0865 12.1526 15.9921 12.867C15.8976 13.5815 15.8503 14.3846 15.8503 15.2762C15.8503 15.967 15.8931 16.6092 15.9788 17.2026C16.0643 17.796 16.1987 18.3378 16.3818 18.8279C16.7419 19.7255 17.2777 20.4281 17.9893 20.9358C18.7008 21.4437 19.5053 21.6976 20.4029 21.6976C21.1824 21.6976 21.8909 21.5086 22.5286 21.1307C23.1663 20.7529 23.6858 20.2155 24.0874 19.5187C24.4063 18.9519 24.6247 18.3201 24.7429 17.6233C24.8609 16.9266 24.92 16.094 24.92 15.1256C24.92 13.3423 24.6955 11.9636 24.2469 10.9892ZM22.3072 17.7118C22.1832 18.4146 21.9675 18.9548 21.6606 19.3327C21.3535 19.7106 20.9284 19.8995 20.3852 19.8995C19.8596 19.8995 19.4433 19.718 19.1364 19.3548C18.8293 18.9917 18.6107 18.4558 18.4809 17.7472C18.351 17.0387 18.286 16.1294 18.286 15.0193C18.286 13.3837 18.438 12.1732 18.7422 11.3878C19.0462 10.6026 19.588 10.2098 20.3675 10.2098C20.9106 10.2098 21.3358 10.3856 21.6429 10.7369C21.9499 11.0883 22.1683 11.6079 22.2983 12.2957C22.4282 12.9837 22.4932 13.8678 22.4932 14.9484C22.4932 16.0881 22.4311 17.0092 22.3072 17.7118Z"
            fill="#006FFD" />
    </g>
    <defs>
        <clipPath id="clip0_547_1107">
            <rect width="30" height="30" fill="white" />
        </clipPath>
    </defs>
</svg>
