<svg width="30" height="30" viewBox="0 0 30 30" fill="none" xmlns="http://www.w3.org/2000/svg">
<path d="M24.609 17.6164L24.8382 15.4855C24.9605 14.3486 25.0413 13.5979 24.9779 13.1249L25 13.125C26.0355 13.125 26.875 12.2855 26.875 11.25C26.875 10.2145 26.0355 9.375 25 9.375C23.9645 9.375 23.125 10.2145 23.125 11.25C23.125 11.7183 23.2967 12.1466 23.5806 12.4752C23.173 12.7268 22.6403 13.2575 21.8381 14.0564C21.2203 14.6719 20.9113 14.9796 20.5666 15.0274C20.3756 15.0538 20.1811 15.0266 20.0047 14.949C19.6865 14.8088 19.4742 14.4284 19.0499 13.6675L16.8131 9.65675C16.5512 9.18734 16.3321 8.79446 16.1346 8.47831C16.945 8.06484 17.5 7.22222 17.5 6.25C17.5 4.86929 16.3807 3.75 15 3.75C13.6193 3.75 12.5 4.86929 12.5 6.25C12.5 7.22222 13.055 8.06484 13.8654 8.47831C13.6679 8.79449 13.4488 9.1873 13.1869 9.65675L10.9501 13.6675C10.5257 14.4284 10.3135 14.8088 9.99526 14.949C9.81892 15.0266 9.62434 15.0538 9.43337 15.0274C9.08871 14.9796 8.77976 14.6719 8.16187 14.0564C7.35984 13.2575 6.82695 12.7267 6.41941 12.4751C6.7033 12.1465 6.875 11.7183 6.875 11.25C6.875 10.2145 6.03554 9.375 5 9.375C3.96446 9.375 3.125 10.2145 3.125 11.25C3.125 12.2855 3.96446 13.125 5 13.125L5.02214 13.1249C4.95878 13.5979 5.03952 14.3486 5.16181 15.4855L5.391 17.6164C5.51822 18.7991 5.62401 19.9245 5.75359 20.9375H24.2464C24.376 19.9245 24.4818 18.7991 24.609 17.6164Z" fill="#FFD700"/>
<path d="M13.6401 26.25H16.3599C19.9049 26.25 21.6773 26.25 22.8599 25.1915C23.3761 24.7294 23.7029 23.8965 23.9388 22.8125H6.06122C6.29708 23.8965 6.62393 24.7294 7.14012 25.1915C8.32273 26.25 10.0952 26.25 13.6401 26.25Z" fill="#FFD700"/>
</svg>
