<svg width="168" height="108" viewBox="0 0 168 108" fill="none" xmlns="http://www.w3.org/2000/svg">
<g clip-path="url(#clip0_2192_4832)">
<rect width="168" height="108" rx="12" fill="#FFB37C"/>
<path d="M66.7822 100.218L72 102L66.7822 103.782L65 109L63.2178 103.782L58 102L63.2178 100.218L65 95L66.7822 100.218ZM80.7822 100.218L86 102L80.7822 103.782L79 109L77.2178 103.782L72 102L77.2178 100.218L79 95L80.7822 100.218ZM94.7822 100.218L100 102L94.7822 103.782L93 109L91.2178 103.782L86 102L91.2178 100.218L93 95L94.7822 100.218ZM108.782 100.218L114 102L108.782 103.782L107 109L105.218 103.782L100 102L105.218 100.218L107 95L108.782 100.218ZM122.782 100.218L128 102L122.782 103.782L121 109L119.218 103.782L114 102L119.218 100.218L121 95L122.782 100.218ZM136.782 100.218L142 102L136.782 103.782L135 109L133.218 103.782L128 102L133.218 100.218L135 95L136.782 100.218ZM150.782 100.218L156 102L150.782 103.782L149 109L147.218 103.782L142 102L147.218 100.218L149 95L150.782 100.218ZM164.782 100.218L170 102L164.782 103.782L163 109L161.218 103.782L156 102L161.218 100.218L163 95L164.782 100.218ZM66.7822 86.2178L72 88L66.7822 89.7822L65 95L63.2178 89.7822L58 88L63.2178 86.2178L65 81L66.7822 86.2178ZM80.7822 86.2178L86 88L80.7822 89.7822L79 95L77.2178 89.7822L72 88L77.2178 86.2178L79 81L80.7822 86.2178ZM94.7822 86.2178L100 88L94.7822 89.7822L93 95L91.2178 89.7822L86 88L91.2178 86.2178L93 81L94.7822 86.2178ZM108.782 86.2178L114 88L108.782 89.7822L107 95L105.218 89.7822L100 88L105.218 86.2178L107 81L108.782 86.2178ZM122.782 86.2178L128 88L122.782 89.7822L121 95L119.218 89.7822L114 88L119.218 86.2178L121 81L122.782 86.2178ZM136.782 86.2178L142 88L136.782 89.7822L135 95L133.218 89.7822L128 88L133.218 86.2178L135 81L136.782 86.2178ZM150.782 86.2178L156 88L150.782 89.7822L149 95L147.218 89.7822L142 88L147.218 86.2178L149 81L150.782 86.2178ZM164.782 86.2178L170 88L164.782 89.7822L163 95L161.218 89.7822L156 88L161.218 86.2178L163 81L164.782 86.2178ZM66.7822 72.2178L72 74L66.7822 75.7822L65 81L63.2178 75.7822L58 74L63.2178 72.2178L65 67L66.7822 72.2178ZM80.7822 72.2178L86 74L80.7822 75.7822L79 81L77.2178 75.7822L72 74L77.2178 72.2178L79 67L80.7822 72.2178ZM94.7822 72.2178L100 74L94.7822 75.7822L93 81L91.2178 75.7822L86 74L91.2178 72.2178L93 67L94.7822 72.2178ZM108.782 72.2178L114 74L108.782 75.7822L107 81L105.218 75.7822L100 74L105.218 72.2178L107 67L108.782 72.2178ZM122.782 72.2178L128 74L122.782 75.7822L121 81L119.218 75.7822L114 74L119.218 72.2178L121 67L122.782 72.2178ZM136.782 72.2178L142 74L136.782 75.7822L135 81L133.218 75.7822L128 74L133.218 72.2178L135 67L136.782 72.2178ZM150.782 72.2178L156 74L150.782 75.7822L149 81L147.218 75.7822L142 74L147.218 72.2178L149 67L150.782 72.2178ZM164.782 72.2178L170 74L164.782 75.7822L163 81L161.218 75.7822L156 74L161.218 72.2178L163 67L164.782 72.2178ZM66.7822 58.2178L72 60L66.7822 61.7822L65 67L63.2178 61.7822L58 60L63.2178 58.2178L65 53L66.7822 58.2178ZM80.7822 58.2178L86 60L80.7822 61.7822L79 67L77.2178 61.7822L72 60L77.2178 58.2178L79 53L80.7822 58.2178ZM94.7822 58.2178L100 60L94.7822 61.7822L93 67L91.2178 61.7822L86 60L91.2178 58.2178L93 53L94.7822 58.2178ZM108.782 58.2178L114 60L108.782 61.7822L107 67L105.218 61.7822L100 60L105.218 58.2178L107 53L108.782 58.2178ZM122.782 58.2178L128 60L122.782 61.7822L121 67L119.218 61.7822L114 60L119.218 58.2178L121 53L122.782 58.2178ZM136.782 58.2178L142 60L136.782 61.7822L135 67L133.218 61.7822L128 60L133.218 58.2178L135 53L136.782 58.2178ZM150.782 58.2178L156 60L150.782 61.7822L149 67L147.218 61.7822L142 60L147.218 58.2178L149 53L150.782 58.2178ZM164.782 58.2178L170 60L164.782 61.7822L163 67L161.218 61.7822L156 60L161.218 58.2178L163 53L164.782 58.2178ZM66.7822 44.2178L72 46L66.7822 47.7822L65 53L63.2178 47.7822L58 46L63.2178 44.2178L65 39L66.7822 44.2178ZM80.7822 44.2178L86 46L80.7822 47.7822L79 53L77.2178 47.7822L72 46L77.2178 44.2178L79 39L80.7822 44.2178ZM94.7822 44.2178L100 46L94.7822 47.7822L93 53L91.2178 47.7822L86 46L91.2178 44.2178L93 39L94.7822 44.2178ZM108.782 44.2178L114 46L108.782 47.7822L107 53L105.218 47.7822L100 46L105.218 44.2178L107 39L108.782 44.2178ZM122.782 44.2178L128 46L122.782 47.7822L121 53L119.218 47.7822L114 46L119.218 44.2178L121 39L122.782 44.2178ZM136.782 44.2178L142 46L136.782 47.7822L135 53L133.218 47.7822L128 46L133.218 44.2178L135 39L136.782 44.2178ZM150.782 44.2178L156 46L150.782 47.7822L149 53L147.218 47.7822L142 46L147.218 44.2178L149 39L150.782 44.2178ZM164.782 44.2178L170 46L164.782 47.7822L163 53L161.218 47.7822L156 46L161.218 44.2178L163 39L164.782 44.2178ZM66.7822 30.2178L72 32L66.7822 33.7822L65 39L63.2178 33.7822L58 32L63.2178 30.2178L65 25L66.7822 30.2178ZM80.7822 30.2178L86 32L80.7822 33.7822L79 39L77.2178 33.7822L72 32L77.2178 30.2178L79 25L80.7822 30.2178ZM94.7822 30.2178L100 32L94.7822 33.7822L93 39L91.2178 33.7822L86 32L91.2178 30.2178L93 25L94.7822 30.2178ZM108.782 30.2178L114 32L108.782 33.7822L107 39L105.218 33.7822L100 32L105.218 30.2178L107 25L108.782 30.2178ZM122.782 30.2178L128 32L122.782 33.7822L121 39L119.218 33.7822L114 32L119.218 30.2178L121 25L122.782 30.2178ZM136.782 30.2178L142 32L136.782 33.7822L135 39L133.218 33.7822L128 32L133.218 30.2178L135 25L136.782 30.2178ZM150.782 30.2178L156 32L150.782 33.7822L149 39L147.218 33.7822L142 32L147.218 30.2178L149 25L150.782 30.2178ZM164.782 30.2178L170 32L164.782 33.7822L163 39L161.218 33.7822L156 32L161.218 30.2178L163 25L164.782 30.2178ZM66.7822 16.2178L72 18L66.7822 19.7822L65 25L63.2178 19.7822L58 18L63.2178 16.2178L65 11L66.7822 16.2178ZM80.7822 16.2178L86 18L80.7822 19.7822L79 25L77.2178 19.7822L72 18L77.2178 16.2178L79 11L80.7822 16.2178ZM94.7822 16.2178L100 18L94.7822 19.7822L93 25L91.2178 19.7822L86 18L91.2178 16.2178L93 11L94.7822 16.2178ZM108.782 16.2178L114 18L108.782 19.7822L107 25L105.218 19.7822L100 18L105.218 16.2178L107 11L108.782 16.2178ZM122.782 16.2178L128 18L122.782 19.7822L121 25L119.218 19.7822L114 18L119.218 16.2178L121 11L122.782 16.2178ZM136.782 16.2178L142 18L136.782 19.7822L135 25L133.218 19.7822L128 18L133.218 16.2178L135 11L136.782 16.2178ZM150.782 16.2178L156 18L150.782 19.7822L149 25L147.218 19.7822L142 18L147.218 16.2178L149 11L150.782 16.2178ZM164.782 16.2178L170 18L164.782 19.7822L163 25L161.218 19.7822L156 18L161.218 16.2178L163 11L164.782 16.2178ZM66.7822 2.21777L72 4L66.7822 5.78223L65 11L63.2178 5.78223L58 4L63.2178 2.21777L65 -3L66.7822 2.21777ZM80.7822 2.21777L86 4L80.7822 5.78223L79 11L77.2178 5.78223L72 4L77.2178 2.21777L79 -3L80.7822 2.21777ZM94.7822 2.21777L100 4L94.7822 5.78223L93 11L91.2178 5.78223L86 4L91.2178 2.21777L93 -3L94.7822 2.21777ZM108.782 2.21777L114 4L108.782 5.78223L107 11L105.218 5.78223L100 4L105.218 2.21777L107 -3L108.782 2.21777ZM122.782 2.21777L128 4L122.782 5.78223L121 11L119.218 5.78223L114 4L119.218 2.21777L121 -3L122.782 2.21777ZM136.782 2.21777L142 4L136.782 5.78223L135 11L133.218 5.78223L128 4L133.218 2.21777L135 -3L136.782 2.21777ZM150.782 2.21777L156 4L150.782 5.78223L149 11L147.218 5.78223L142 4L147.218 2.21777L149 -3L150.782 2.21777ZM164.782 2.21777L170 4L164.782 5.78223L163 11L161.218 5.78223L156 4L161.218 2.21777L163 -3L164.782 2.21777Z" fill="url(#paint0_linear_2192_4832)"/>
</g>
<defs>
<linearGradient id="paint0_linear_2192_4832" x1="170" y1="109" x2="97" y2="51" gradientUnits="userSpaceOnUse">
<stop stop-color="white" stop-opacity="0"/>
<stop offset="1" stop-color="#FFB37C"/>
</linearGradient>
<clipPath id="clip0_2192_4832">
<rect width="168" height="108" rx="12" fill="white"/>
</clipPath>
</defs>
</svg>
