<svg width="37" height="36" viewBox="0 0 37 36" fill="none" xmlns="http://www.w3.org/2000/svg">
<path d="M6.5 10.5H30.5M15.5 16.5V25.5M21.5 16.5V25.5M8 10.5L9.5 28.5C9.5 29.2956 9.81607 30.0587 10.3787 30.6213C10.9413 31.1839 11.7044 31.5 12.5 31.5H24.5C25.2956 31.5 26.0587 31.1839 26.6213 30.6213C27.1839 30.0587 27.5 29.2956 27.5 28.5L29 10.5M14 10.5V6C14 5.60218 14.158 5.22064 14.4393 4.93934C14.7206 4.65804 15.1022 4.5 15.5 4.5H21.5C21.8978 4.5 22.2794 4.65804 22.5607 4.93934C22.842 5.22064 23 5.60218 23 6V10.5" stroke="white" stroke-width="3" stroke-linecap="round" stroke-linejoin="round"/>
</svg>
