<svg width="40" height="40" viewBox="0 0 40 40" fill="none" xmlns="http://www.w3.org/2000/svg">
<path d="M26.6666 6.66675C27.5871 6.66675 28.3333 7.41295 28.3333 8.33341V15.3334L37.0221 9.25127C37.3991 8.98733 37.9188 9.07903 38.1826 9.45608C38.2806 9.59615 38.3333 9.76298 38.3333 9.93396V30.0662C38.3333 30.5264 37.9601 30.8996 37.5 30.8996C37.329 30.8996 37.1621 30.8469 37.0221 30.7489L28.3333 24.6667V31.6667C28.3333 32.5872 27.5871 33.3334 26.6666 33.3334H3.33329C2.41283 33.3334 1.66663 32.5872 1.66663 31.6667V8.33341C1.66663 7.41295 2.41283 6.66675 3.33329 6.66675H26.6666ZM25 10.0001H4.99996V30.0001H25V10.0001ZM12.3333 14.7145C12.4601 14.7145 12.5842 14.7507 12.6912 14.8187L19.9495 19.4376C20.2601 19.6352 20.3516 20.0474 20.154 20.3581C20.1016 20.4402 20.0318 20.5101 19.9495 20.5626L12.6912 25.1814C12.3806 25.3791 11.9685 25.2876 11.7709 24.9769C11.7028 24.8699 11.6666 24.7457 11.6666 24.6189V15.3812C11.6666 15.013 11.9651 14.7145 12.3333 14.7145ZM35 14.7356L28.3333 19.4017V20.5984L35 25.2646V14.7356Z" fill="#2E0096"/>
</svg>
