<svg width="19" height="14" viewBox="0 0 19 14" fill="none" xmlns="http://www.w3.org/2000/svg">
<path d="M12.5 0C12.9603 0 13.3333 0.3731 13.3333 0.833333V4.33333L17.6778 1.29226C17.8663 1.16029 18.1261 1.20614 18.258 1.39467C18.307 1.4647 18.3333 1.54812 18.3333 1.63361V11.6997C18.3333 11.9298 18.1468 12.1164 17.9167 12.1164C17.8312 12.1164 17.7478 12.0901 17.6778 12.0411L13.3333 9V12.5C13.3333 12.9602 12.9603 13.3333 12.5 13.3333H0.833333C0.3731 13.3333 0 12.9602 0 12.5V0.833333C0 0.3731 0.3731 0 0.833333 0H12.5ZM11.6667 1.66667H1.66667V11.6667H11.6667V1.66667ZM5.33333 4.02389C5.39673 4.02389 5.45881 4.04197 5.51229 4.076L9.14142 6.38542C9.29675 6.48425 9.3425 6.69033 9.24367 6.84567C9.2175 6.88675 9.18258 6.92167 9.14142 6.94792L5.51229 9.25733C5.35698 9.35617 5.15095 9.31042 5.05212 9.15508C5.01808 9.10158 5 9.0395 5 8.97608V4.35722C5 4.17313 5.14924 4.02389 5.33333 4.02389ZM16.6667 4.03442L13.3333 6.3675V6.96583L16.6667 9.29892V4.03442Z" fill="#494A50"/>
</svg>
