<?xml version="1.0" encoding="UTF-8" standalone="no"?>
<svg
   xmlns:dc="http://purl.org/dc/elements/1.1/"
   xmlns:cc="http://creativecommons.org/ns#"
   xmlns:rdf="http://www.w3.org/1999/02/22-rdf-syntax-ns#"
   xmlns:svg="http://www.w3.org/2000/svg"
   xmlns="http://www.w3.org/2000/svg"
   xmlns:sodipodi="http://sodipodi.sourceforge.net/DTD/sodipodi-0.dtd"
   xmlns:inkscape="http://www.inkscape.org/namespaces/inkscape"
   inkscape:version="1.0 (4035a4fb49, 2020-05-01)"
   sodipodi:docname="6.12 Uzbekistan road sign.svg"
   xml:space="preserve"
   viewBox="0 0 600 899.14532"
   height="899.14532"
   width="600"
   id="background"
   version="1.1"><metadata
   id="metadata6311"><rdf:RDF><cc:Work
       rdf:about=""><dc:format>image/svg+xml</dc:format><dc:type
         rdf:resource="http://purl.org/dc/dcmitype/StillImage" /></cc:Work></rdf:RDF></metadata><defs
   id="defs6309" /><sodipodi:namedview
   inkscape:current-layer="background"
   inkscape:window-maximized="1"
   inkscape:window-y="-9"
   inkscape:window-x="-9"
   inkscape:cy="845.28232"
   inkscape:cx="356.01989"
   inkscape:zoom="0.40380952"
   showgrid="false"
   id="namedview6307"
   inkscape:window-height="1001"
   inkscape:window-width="1920"
   inkscape:pageshadow="2"
   inkscape:pageopacity="0"
   guidetolerance="10"
   gridtolerance="10"
   objecttolerance="10"
   borderopacity="1"
   bordercolor="#666666"
   pagecolor="#ffffff" />
  <g
   transform="matrix(0.85470085,0,0,0.85470085,0.85470085,0.85470085)"
   id="g6304">
    <path
   style="stroke:#000000;stroke-width:2;stroke-miterlimit:4;stroke-dasharray:none;stroke-opacity:1"
   id="path6298"
   d="M 0,45 C 0,20.147 20.147,0 45,0 h 610 c 24.852,0 45,20.147 45,45 v 960 c 0,24.852 -20.148,45 -45,45 H 45 c -24.853,0 -45,-20.148 -45,-45 z"
   stroke="none"
   fill-rule="evenodd"
   fill="#ffffff" />
    <path
   style="fill:#0e69e1;fill-opacity:1"
   id="path6300"
   d="M 20,45 C 20,31.192 31.192,20 45,20 h 610 c 13.807,0 25,11.192 25,25 v 960 c 0,13.807 -11.193,25 -25,25 H 45 c -13.808,0 -25,-11.193 -25,-25 z m 45.625,131.382 c 0,-11.045 8.954,-20 20,-20 h 528.75 c 11.045,0 20,8.955 20,20 v 540.852 c 0,11.045 -8.955,20 -20,20 H 85.625 c -11.046,0 -20,-8.955 -20,-20 z"
   stroke="none"
   fill-rule="evenodd"
   fill="#0D66FF" />
    <path
   id="path6302"
   d="m 215.205,463.226 v 65.613 h -24.598 v -65.613 l -53.27,-98.449 h 30.09 l 35.553,65.642 35.434,-65.642 h 30.179 z m 110.649,65.613 H 297.211 V 364.777 h 59.5 c 3.573,0 6.999,0.384 10.335,1.092 3.308,0.739 6.438,1.772 9.391,3.13 2.953,1.359 5.758,2.983 8.386,4.873 2.628,1.89 5.02,3.986 7.205,6.289 2.185,2.304 4.134,4.784 5.847,7.442 1.712,2.657 3.159,5.433 4.34,8.356 1.152,2.924 2.067,5.877 2.717,8.918 0.65,3.012 1.004,6.053 1.004,9.124 0,3.071 -0.354,6.142 -1.004,9.184 -0.65,3.071 -1.565,6.053 -2.717,8.918 -1.181,2.893 -2.628,5.64 -4.34,8.327 -1.713,2.657 -3.662,5.138 -5.847,7.412 -2.185,2.303 -4.577,4.399 -7.205,6.289 -2.628,1.92 -5.433,3.544 -8.386,4.872 -2.953,1.359 -6.083,2.392 -9.391,3.131 -3.336,0.738 -6.762,1.092 -10.335,1.092 h -30.857 z m 32.452,-138.845 c -1.801,-0.383 -3.721,-0.59 -5.758,-0.59 h -26.694 v 49.195 h 26.694 c 2.037,0 3.957,-0.177 5.758,-0.532 1.772,-0.354 3.455,-0.915 5.02,-1.653 1.565,-0.709 2.982,-1.565 4.252,-2.51 1.299,-0.945 2.421,-2.008 3.455,-3.219 1.033,-1.21 1.919,-2.451 2.687,-3.779 0.768,-1.3 1.388,-2.688 1.919,-4.105 0.502,-1.417 0.886,-2.864 1.122,-4.37 0.266,-1.477 0.384,-2.953 0.384,-4.43 0,-1.446 -0.118,-2.923 -0.384,-4.37 -0.236,-1.447 -0.62,-2.894 -1.122,-4.311 -0.531,-1.417 -1.151,-2.805 -1.919,-4.164 -0.768,-1.358 -1.654,-2.598 -2.687,-3.779 -1.034,-1.152 -2.156,-2.245 -3.455,-3.219 -1.27,-0.974 -2.687,-1.831 -4.252,-2.51 -1.565,-0.709 -3.248,-1.24 -5.02,-1.654 z m 77.264,-25.217 h 33.043 l 28.525,51.291 28.79,-51.291 h 32.807 l -45.179,78.428 49.106,85.634 h -32.806 l -32.718,-59.5 -32.807,59.5 h -32.689 l 49.107,-85.634 z"
   stroke="none"
   fill-rule="evenodd"
   fill="#000000" />
  </g>
</svg>
