<?xml version="1.0" encoding="UTF-8" standalone="no"?>
<!-- Created with Inkscape (http://www.inkscape.org/) -->

<svg
   width="600"
   height="600"
   id="svg2"
   version="1.1"
   inkscape:version="1.2.2 (732a01da63, 2022-12-09)"
   sodipodi:docname="AZ_road_sign_3.16.svg"
   xmlns:inkscape="http://www.inkscape.org/namespaces/inkscape"
   xmlns:sodipodi="http://sodipodi.sourceforge.net/DTD/sodipodi-0.dtd"
   xmlns="http://www.w3.org/2000/svg"
   xmlns:svg="http://www.w3.org/2000/svg"
   xmlns:rdf="http://www.w3.org/1999/02/22-rdf-syntax-ns#"
   xmlns:cc="http://creativecommons.org/ns#"
   xmlns:dc="http://purl.org/dc/elements/1.1/">
  <title
     id="title6240">3.16 Eng kam oraliq	</title>
  <defs
     id="defs4" />
  <sodipodi:namedview
     id="base"
     pagecolor="#ffffff"
     bordercolor="#666666"
     borderopacity="1.0"
     inkscape:pageopacity="0.0"
     inkscape:pageshadow="2"
     inkscape:zoom="0.84852814"
     inkscape:cx="190.32958"
     inkscape:cy="330.57242"
     inkscape:document-units="px"
     inkscape:current-layer="layer1"
     showgrid="false"
     inkscape:window-width="1920"
     inkscape:window-height="991"
     inkscape:window-x="-9"
     inkscape:window-y="-9"
     inkscape:window-maximized="1"
     inkscape:showpageshadow="2"
     inkscape:pagecheckerboard="0"
     inkscape:deskcolor="#d1d1d1" />
  <metadata
     id="metadata7">
    <rdf:RDF>
      <cc:Work
         rdf:about="">
        <dc:format>image/svg+xml</dc:format>
        <dc:type
           rdf:resource="http://purl.org/dc/dcmitype/StillImage" />
        <cc:license
           rdf:resource="http://creativecommons.org/licenses/by-sa/3.0/" />
        <dc:description>ГОСТ Р 52290-2004
Размеры и пропорции по типоразмеру I</dc:description>
        <dc:title>3.16 Eng kam oraliq	</dc:title>
      </cc:Work>
      <cc:License
         rdf:about="http://creativecommons.org/licenses/by-sa/3.0/">
        <cc:permits
           rdf:resource="http://creativecommons.org/ns#Reproduction" />
        <cc:permits
           rdf:resource="http://creativecommons.org/ns#Distribution" />
        <cc:requires
           rdf:resource="http://creativecommons.org/ns#Notice" />
        <cc:requires
           rdf:resource="http://creativecommons.org/ns#Attribution" />
        <cc:permits
           rdf:resource="http://creativecommons.org/ns#DerivativeWorks" />
        <cc:requires
           rdf:resource="http://creativecommons.org/ns#ShareAlike" />
      </cc:License>
    </rdf:RDF>
  </metadata>
  <g
     inkscape:label="Layer 1"
     inkscape:groupmode="layer"
     id="layer1"
     transform="translate(0,-452.36218)">
    <path
       sodipodi:type="arc"
       style="opacity:1;color:#000000;fill:#ffffff;fill-opacity:1;fill-rule:nonzero;stroke:none;stroke-width:1px;marker:none;visibility:visible;display:inline;overflow:visible;enable-background:accumulate"
       id="path5334"
       sodipodi:cx="-87.720657"
       sodipodi:cy="432.25998"
       sodipodi:rx="22.107042"
       sodipodi:ry="29.465372"
       d="m -65.613615,432.25998 c 0,16.27327 -9.89766,29.46537 -22.107042,29.46537 -12.209383,0 -22.107043,-13.1921 -22.107043,-29.46537 0,-16.27328 9.89766,-29.46537 22.107043,-29.46537 12.209382,0 22.107042,13.19209 22.107042,29.46537 z"
       transform="matrix(13.570336,0,0,10.181443,1490.3988,-3648.6681)" />
    <path
       transform="matrix(13.525102,0,0,10.147505,1486.4308,-3633.998)"
       d="m -65.613615,432.25998 c 0,16.27327 -9.89766,29.46537 -22.107042,29.46537 -12.209383,0 -22.107043,-13.1921 -22.107043,-29.46537 0,-16.27328 9.89766,-29.46537 22.107043,-29.46537 12.209382,0 22.107042,13.19209 22.107042,29.46537 z"
       sodipodi:ry="29.465372"
       sodipodi:rx="22.107042"
       sodipodi:cy="432.25998"
       sodipodi:cx="-87.720657"
       id="path3003"
       style="color:#000000;fill:none;stroke:#000000;stroke-width:0.17071831000000001;stroke-miterlimit:4;stroke-opacity:1;stroke-dasharray:none;marker:none;visibility:visible;display:inline;overflow:visible;enable-background:accumulate;opacity:1"
       sodipodi:type="arc" />
    <path
       style="opacity:1;color:#000000;fill:#ff0000;fill-opacity:1;fill-rule:nonzero;stroke:none;stroke-width:1px;marker:none;visibility:visible;display:inline;overflow:visible;enable-background:accumulate"
       d="M 300 10 C 139.83742 10 10 139.83742 10 300 C 10 460.16258 139.83742 590 300 590 C 460.16258 590 590 460.16258 590 300 C 590 139.83742 460.16258 10 300 10 z M 300 59.03125 C 433.0828 59.03125 540.96875 166.91719 540.96875 300 C 540.96875 433.08281 433.0828 540.96875 300 540.96875 C 166.9172 540.96875 59.03125 433.08281 59.03125 300 C 59.03125 166.91719 166.9172 59.03125 300 59.03125 z "
       transform="translate(0,452.36218)"
       id="path4775-9" />
    <path
       inkscape:connector-curvature="0"
       style="opacity:1;color:#000000;fill:#000000;fill-opacity:1;fill-rule:nonzero;stroke:none;stroke-width:1px;marker:none;visibility:visible;display:inline;overflow:visible;enable-background:accumulate"
       d="m 522.12708,687.73508 c -1.16082,0.7779 -2.26467,1.68027 -3.23588,2.72177 l -64.05242,68.67943 c -2.87302,3.08093 -6.71545,5.09919 -10.8871,5.68549 l -98.04435,13.76008 c -9.19791,1.29269 -15.97863,9.25139 -15.81653,18.5383 l 0.60483,34.8992 c 0.28607,8.1929 6.91462,14.70271 15.06049,14.93951 4.602,-22.22559 24.40185,-38.95161 48.11492,-38.95161 27.12432,0 49.1129,21.88027 49.1129,48.87097 l 63.38709,0 c 14.00199,-27.59544 22.64404,-58.37698 24.52621,-90.96774 l -37.13709,0 c -6.41363,0 -11.61291,-5.19927 -11.61291,-11.61291 0,-2.9397 1.11005,-5.77342 3.11492,-7.92338 l 40.61492,-43.54839 c 0.0193,-0.0206 0.0411,-0.04 0.0605,-0.0605 -1.10803,-5.06971 -2.37592,-10.0909 -3.81049,-15.03024 z"
       id="path7930" />
    <path
       id="path7936"
       d="m 393.87104,816.23304 c -22.44765,0 -40.64516,18.19746 -40.64516,40.64516 0,22.4477 18.19751,40.64516 40.64516,40.64516 22.44774,0 40.64518,-18.19746 40.64518,-40.64516 0,-22.4477 -18.19744,-40.64516 -40.64518,-40.64516 z m 0,16.45161 c 13.36171,0 24.19354,10.83182 24.19354,24.19355 0,13.36173 -10.83183,24.19355 -24.19354,24.19355 -13.36171,0 -24.19355,-10.83182 -24.19355,-24.19355 0,-13.36173 10.83184,-24.19355 24.19355,-24.19355 z"
       style="opacity:1;color:#000000;fill:#000000;fill-opacity:1;fill-rule:nonzero;stroke:none;stroke-width:1px;marker:none;visibility:visible;display:inline;overflow:visible;enable-background:accumulate"
       inkscape:connector-curvature="0" />
    <path
       inkscape:connector-curvature="0"
       style="opacity:1;color:#000000;fill:#000000;fill-opacity:1;stroke:none;stroke-width:1px;marker:none;visibility:visible;display:inline;overflow:visible;enable-background:accumulate"
       d="m 78.810554,684.62016 c -1.46079,4.77521 -2.776942,9.61506 -3.931452,14.51612 l 85.312508,0 c 7.14037,0 13.21767,5.19551 14.33467,12.24799 l 5.98791,37.74193 c 1.25413,7.91833 -4.1482,15.34868 -12.06654,16.60283 -0.75109,0.11896 -1.50769,0.18145 -2.26814,0.18145 l -97.076617,0 c 1.88217,32.59076 10.524222,63.3723 24.526209,90.96774 l 23.709678,0 c 0,-26.9907 21.98859,-48.87097 49.11291,-48.87097 24.85413,0 45.39481,18.37752 48.65927,42.21774 l 9.34476,-2.51008 c 5.71819,-1.53218 10.05995,-6.19491 11.18951,-12.00605 l 9.61694,-49.4758 c 1.06924,-5.50073 -0.44336,-11.19255 -4.08266,-15.45363 l -68.0746,-79.71774 c -3.49338,-4.09023 -8.62301,-6.44153 -14.00201,-6.44153 l -80.292346,0 z"
       id="path7947" />
    <path
       id="path7949"
       d="m 166.45169,816.23304 c -22.44771,0 -40.64516,18.19746 -40.64516,40.64516 0,22.4477 18.19745,40.64516 40.64516,40.64516 22.4477,0 40.64516,-18.19746 40.64516,-40.64516 0,-22.4477 -18.19746,-40.64516 -40.64516,-40.64516 z m 0,16.45161 c 13.36172,0 24.19354,10.83182 24.19354,24.19355 0,13.36173 -10.83182,24.19355 -24.19354,24.19355 -13.36173,0 -24.19355,-10.83182 -24.19355,-24.19355 0,-13.36173 10.83182,-24.19355 24.19355,-24.19355 z"
       style="opacity:1;color:#000000;fill:#000000;fill-opacity:1;fill-rule:nonzero;stroke:none;stroke-width:1px;marker:none;visibility:visible;display:inline;overflow:visible;enable-background:accumulate"
       inkscape:connector-curvature="0" />
    <g
       id="g6202">
      <g
         aria-label="70"
         id="text6190"
         style="font-size:172.81px;line-height:1.5;font-family:'Russian Road Sign';-inkscape-font-specification:'Russian Road Sign';fill-rule:evenodd;stroke-width:1.7281;stroke-linecap:round;paint-order:stroke fill markers">
        <path
           d="m 191.28571,584.21713 h 44.75779 c -13.30637,21.77406 -27.82241,52.01581 -32.66109,81.04788 h 18.14505 c 7.25802,-35.08042 19.35472,-60.48349 31.45142,-84.67689 v -12.0967 h -58.06416 z"
           id="path6192" />
        <path
           d="m 304.13078,567.28175 c -19.35472,0 -32.66109,20.56439 -32.66109,49.59647 0,29.03207 13.30637,49.59646 32.66109,49.59646 19.35472,0 32.66109,-20.56439 32.66109,-49.59646 0,-27.47679 -13.30637,-49.59647 -32.66109,-49.59647 z m 0,15.03447 c 9.33174,0 15.72571,10.3686 15.72571,34.562 0,24.19339 -6.39397,34.56199 -15.72571,34.56199 -9.33174,0 -15.72571,-10.3686 -15.72571,-34.56199 0,-24.1934 6.39397,-34.562 15.72571,-34.562 z"
           id="path6194" />
      </g>
      <g
         id="text4575"
         style="font-style:normal;font-variant:normal;font-weight:normal;font-stretch:normal;font-size:151.27168274px;line-height:100%;font-family:'Transport Heavy';-inkscape-font-specification:'Transport Heavy,';text-align:start;letter-spacing:0px;word-spacing:0px;writing-mode:lr-tb;text-anchor:start;fill:#000000;fill-opacity:1;stroke:#000000;stroke-width:8.19553185;stroke-linecap:butt;stroke-linejoin:miter;stroke-miterlimit:4;stroke-dasharray:none;stroke-opacity:1"
         transform="matrix(0.59403608,0,0,0.62269352,209.02188,-271.72549)">
        <path
           inkscape:connector-curvature="0"
           id="path4582"
           style="font-style:normal;font-variant:normal;font-weight:500;font-stretch:normal;font-family:'Russian Road Sign';-inkscape-font-specification:'Russian Road Sign Medium';fill:#000000;stroke:#000000;stroke-width:8.19553185;stroke-miterlimit:4;stroke-dasharray:none;stroke-opacity:1;fill-opacity:1"
           d="m 383.57322,1500.5713 h -13.88627 v -46.977 q 0,-5.3181 -0.51704,-10.2669 -0.44318,-4.9489 -1.99431,-7.9034 -1.69885,-3.1761 -4.87496,-4.8011 -3.17612,-1.625 -9.15903,-1.625 -5.83519,0 -11.67038,2.9545 -5.83518,2.8807 -11.67037,7.3864 0.22159,1.6988 0.36932,3.9886 0.14772,2.2159 0.14772,4.4318 v 52.8121 h -13.88627 v -46.977 q 0,-5.4658 -0.51704,-10.3408 -0.44318,-4.9488 -1.9943,-7.9034 -1.69885,-3.1761 -4.87497,-4.7272 -3.17611,-1.625 -9.15903,-1.625 -5.68746,0 -11.44878,2.8068 -5.68746,2.8068 -11.37492,7.1647 v 61.6019 h -13.88627 v -82.5051 h 13.88627 v 9.159 q 6.49995,-5.392 12.92605,-8.4204 6.49995,-3.0284 13.8124,-3.0284 8.4204,0 14.25558,3.5455 5.90905,3.5454 8.78972,9.8237 8.42039,-7.0908 15.36353,-10.1931 6.94313,-3.1761 14.84648,-3.1761 13.59082,0 20.01691,8.2727 6.49996,8.1988 6.49996,22.9714 z" />
      </g>
    </g>
  </g>
</svg>
