<?xml version="1.0" encoding="UTF-8" standalone="no"?>
<!-- Created with Inkscape (http://www.inkscape.org/) -->

<svg
   width="1500"
   height="1150"
   id="svg2"
   version="1.1"
   inkscape:version="1.2.2 (732a01da63, 2022-12-09)"
   sodipodi:docname="RU_road_sign_6.9.1_E.svg"
   xmlns:inkscape="http://www.inkscape.org/namespaces/inkscape"
   xmlns:sodipodi="http://sodipodi.sourceforge.net/DTD/sodipodi-0.dtd"
   xmlns="http://www.w3.org/2000/svg"
   xmlns:svg="http://www.w3.org/2000/svg"
   xmlns:rdf="http://www.w3.org/1999/02/22-rdf-syntax-ns#"
   xmlns:cc="http://creativecommons.org/ns#"
   xmlns:dc="http://purl.org/dc/elements/1.1/">
  <title
     id="title3006">5.20.1 Yoʻnalishlarning dastlabki koʻrsatkichi	</title>
  <defs
     id="defs4" />
  <sodipodi:namedview
     id="base"
     pagecolor="#ffffff"
     bordercolor="#666666"
     borderopacity="1.0"
     inkscape:pageopacity="0.0"
     inkscape:pageshadow="2"
     inkscape:zoom="0.25"
     inkscape:cx="1150"
     inkscape:cy="770"
     inkscape:document-units="px"
     inkscape:current-layer="layer1"
     showgrid="false"
     inkscape:window-width="1920"
     inkscape:window-height="991"
     inkscape:window-x="-9"
     inkscape:window-y="-9"
     inkscape:window-maximized="1"
     inkscape:snap-bbox="true"
     inkscape:bbox-paths="true"
     inkscape:bbox-nodes="true"
     inkscape:snap-bbox-edge-midpoints="true"
     inkscape:snap-bbox-midpoints="true"
     inkscape:object-paths="true"
     inkscape:snap-intersection-paths="true"
     inkscape:object-nodes="true"
     inkscape:snap-smooth-nodes="true"
     inkscape:snap-midpoints="true"
     inkscape:snap-object-midpoints="true"
     showguides="true"
     inkscape:guide-bbox="true"
     inkscape:showpageshadow="2"
     inkscape:pagecheckerboard="0"
     inkscape:deskcolor="#d1d1d1" />
  <metadata
     id="metadata7">
    <rdf:RDF>
      <cc:Work
         rdf:about="">
        <dc:format>image/svg+xml</dc:format>
        <dc:type
           rdf:resource="http://purl.org/dc/dcmitype/StillImage" />
        <dc:title>5.20.1 Yoʻnalishlarning dastlabki koʻrsatkichi	</dc:title>
        <cc:license
           rdf:resource="http://creativecommons.org/licenses/by-sa/3.0/" />
        <dc:description>ГОСТ Р 52290-2004</dc:description>
      </cc:Work>
      <cc:License
         rdf:about="http://creativecommons.org/licenses/by-sa/3.0/">
        <cc:permits
           rdf:resource="http://creativecommons.org/ns#Reproduction" />
        <cc:permits
           rdf:resource="http://creativecommons.org/ns#Distribution" />
        <cc:requires
           rdf:resource="http://creativecommons.org/ns#Notice" />
        <cc:requires
           rdf:resource="http://creativecommons.org/ns#Attribution" />
        <cc:permits
           rdf:resource="http://creativecommons.org/ns#DerivativeWorks" />
        <cc:requires
           rdf:resource="http://creativecommons.org/ns#ShareAlike" />
      </cc:License>
    </rdf:RDF>
  </metadata>
  <g
     inkscape:label="Layer 1"
     inkscape:groupmode="layer"
     id="layer1"
     transform="translate(0,97.63782)">
    <path
       id="rect7953"
       style="display:inline;overflow:visible;opacity:1;fill:#ffffff;stroke-width:3.543;marker:none;enable-background:accumulate"
       d="m 45,-97.637817 h 1410 c 24.93,0 45,20.07 45,45 V 1007.3622 c 0,24.93 -20.07,45 -45,45 H 45 c -24.93,0 -45,-20.07 -45,-45 V -52.637817 c 0,-24.93 20.07,-45 45,-45 z" />
    <path
       inkscape:connector-curvature="0"
       style="opacity:1;color:#000000;fill:#000000;fill-opacity:1;fill-rule:nonzero;stroke:none;stroke-width:3.54299997999999980;marker:none;visibility:visible;display:inline;overflow:visible;enable-background:accumulate"
       d="m 45,-85.637823 c -18.282,0 -33,14.718 -33,33 L 12,1007.3622 c 0,18.282 14.718,33 33,33 l 1410,0 c 18.282,0 33,-14.718 33,-33 l 0,-1060.000023 c 0,-18.282 -14.718,-33 -33,-33 l -1410,0 z m 0,6 1410,0 c 14.958,0 27,12.042 27,27 l 0,1060.000023 c 0,14.958 -12.042,27 -27,27 l -1257.125,0 0,-197.2813 799.1875,-424.9375 22.5313,42.375 79.5,-127.18747 -149.9063,-5.25 22.53125,42.375 -773.84375,411.46877 0,-613.56252 48,0 -75,-129.906253 -75,129.906253 48,0 0,872.00002 -98.875,0 c -14.958,0 -27,-12.042 -27,-27 L 18,-52.637823 c 0,-14.958 12.042,-27 27,-27 z"
       id="rect7955" />
    <path
       id="path7951"
       style="display:inline;overflow:visible;opacity:1;fill:#ffffff;stroke-width:1px;marker:none;enable-background:accumulate"
       d="m -65.613615,432.25998 a 22.107042,29.465372 0 0 1 -22.107042,29.46537 22.107042,29.465372 0 0 1 -22.107043,-29.46537 22.107042,29.465372 0 0 1 22.107043,-29.46537 22.107042,29.465372 0 0 1 22.107042,29.46537 z"
       transform="matrix(5.6379783,0,0,4.2300169,889.5671,-1126.1048)" />
    <path
       inkscape:connector-curvature="0"
       style="color:#000000;fill:#000000;fill-opacity:1;stroke:none;stroke-width:1px;marker:none;visibility:visible;display:inline;overflow:visible;enable-background:accumulate;opacity:1"
       d="m 315.5993,667.3232 c -3.3281,0 -6.4451,1.6521 -8.3061,4.4112 l -15.705,23.2758 c -1.1155,1.6538 -1.705,3.6051 -1.705,5.6 l 0,30.7842 c 0,5.529 4.4822,10.0111 10.0112,10.0111 l 9.0412,0 c 0.524,-11.1447 9.7178,-20.0222 20.9921,-20.0222 11.2743,0 20.4681,8.8775 20.9921,20.0222 l 78.1493,0 c 0.3754,-7.9825 5.1926,-14.7936 12.0447,-18.02 l -87.1594,0 0,-46.0512 c 0,-5.529 -4.4821,-10.0111 -10.0111,-10.0111 l -28.344,0 z m 0.5318,6.0067 22.8066,0 c 2.7645,0 5.0056,2.241 5.0056,5.0055 l 0,14.0156 c 0,2.7645 -2.2411,5.0056 -5.0056,5.0056 l -32.2702,0 c -2.7645,0 -5.0056,-2.2411 -5.0056,-5.0056 0,-0.9974 0.3026,-1.973 0.8604,-2.8 l 9.4479,-14.0155 c 0.9306,-1.3796 2.4969,-2.2056 4.1609,-2.2056 z"
       id="path7050" />
    <path
       inkscape:connector-curvature="0"
       style="color:#000000;fill:#000000;fill-opacity:1;fill-rule:nonzero;stroke:none;stroke-width:3.54299997999999980;marker:none;visibility:visible;display:inline;overflow:visible;enable-background:accumulate;opacity:1"
       d="m 369.9722,637.2899 c -5.5461,0 -10.0111,4.4649 -10.0111,10.0111 l 0,70.0778 130.1446,0 0,-70.0778 c 0,-5.5462 -4.465,-10.0111 -10.0111,-10.0111 z"
       id="rect6193"
       sodipodi:nodetypes="sccccss" />
    <path
       inkscape:connector-curvature="0"
       style="color:#000000;fill:#000000;fill-opacity:1;fill-rule:nonzero;stroke:none;stroke-width:1px;marker:none;visibility:visible;display:inline;overflow:visible;enable-background:accumulate;opacity:1"
       d="m 450.0612,725.3877 c -9.3993,0 -17.0189,7.6196 -17.0189,17.019 0,9.3992 7.6196,17.0189 17.0189,17.0189 9.3993,0 17.0189,-7.6197 17.0189,-17.0189 0,-9.3994 -7.6196,-17.019 -17.0189,-17.019 z m 0,8.0089 c 4.9761,0 9.01,4.0339 9.01,9.0101 0,4.976 -4.0339,9.0099 -9.01,9.0099 -4.9761,0 -9.01,-4.0339 -9.01,-9.0099 0,-4.9762 4.0339,-9.0101 9.01,-9.0101 z"
       id="path7038" />
    <path
       id="rect7057"
       style="color:#000000;fill:#000000;fill-opacity:1;stroke:none;stroke-width:3.54299997999999980;marker:none;visibility:visible;display:inline;overflow:visible;enable-background:accumulate;opacity:1"
       d="m 471.0533,741.4055 c -0.3753,-7.9825 -5.1926,-14.7936 -12.0447,-18.02 l 31.0971,0 0,18.02 z"
       inkscape:connector-curvature="0"
       sodipodi:nodetypes="ccccc" />
    <path
       id="path7062"
       d="m 329.9277,725.3877 c -9.3993,0 -17.0189,7.6196 -17.0189,17.019 0,9.3992 7.6196,17.0189 17.0189,17.0189 9.3993,0 17.0189,-7.6197 17.0189,-17.0189 0,-9.3994 -7.6196,-17.019 -17.0189,-17.019 z m 0,8.0089 c 4.9761,0 9.01,4.0339 9.01,9.0101 0,4.976 -4.0339,9.0099 -9.01,9.0099 -4.9761,0 -9.01,-4.0339 -9.01,-9.0099 0,-4.9762 4.0339,-9.0101 9.01,-9.0101 z"
       style="color:#000000;fill:#000000;fill-opacity:1;fill-rule:nonzero;stroke:none;stroke-width:1px;marker:none;visibility:visible;display:inline;overflow:visible;enable-background:accumulate;opacity:1"
       inkscape:connector-curvature="0" />
    <path
       inkscape:connector-curvature="0"
       style="color:#000000;fill:#ff0000;fill-opacity:1;fill-rule:nonzero;stroke:none;stroke-width:1px;marker:none;visibility:visible;display:inline;overflow:visible;enable-background:accumulate;opacity:1"
       d="m 395,552.3622 c -82.8427,0 -150,67.1573 -150,150 0,82.8427 67.1573,150 150,150 82.8427,0 150,-67.1573 150,-150 0,-82.8427 -67.1573,-150 -150,-150 z m 0,25.3609 c 68.8359,0 124.639,55.8032 124.639,124.6391 0,68.8359 -55.8031,124.639 -124.639,124.639 -68.8359,0 -124.639,-55.8031 -124.639,-124.639 0,-68.8359 55.8031,-124.6391 124.639,-124.6391 z"
       id="path4775-9" />
    <path
       id="rect7960"
       style="display:inline;overflow:visible;opacity:1;fill:none;stroke:#000000;stroke-width:2;marker:none;enable-background:accumulate"
       d="m 45,-96.637817 h 1410 c 24.376,0 44,19.624 44,44 V 1007.3622 c 0,24.376 -19.624,44 -44,44 H 45 c -24.376,0 -44,-19.624 -44,-44 V -52.637817 c 0,-24.376 19.624,-44 44,-44 z" />
    <g
       aria-label="Sh. Rashidov
koʻchasi"
       id="text10220"
       style="font-size:178.571px;line-height:0.7;font-family:'Russian Road Sign';-inkscape-font-specification:'Russian Road Sign';letter-spacing:-2.7px;fill-rule:evenodd;stroke-width:7.14286;stroke-linecap:round;stroke-linejoin:round;paint-order:stroke fill markers">
      <path
         d="m 290.00001,121.2909 c 0,0 16.78568,17.49996 39.28562,17.49996 24.99994,0 38.39277,-18.74996 38.39277,-31.24993 0,-14.999962 -10.89283,-24.999938 -28.39279,-28.749929 -13.74997,-2.857136 -26.24994,-4.464275 -26.24994,-14.107109 0,-4.821417 3.74999,-14.642822 18.74996,-14.642822 13.03568,0 22.1428,9.999976 22.1428,9.999976 l 11.60712,-12.49997 c 0,0 -16.24996,-13.749966 -33.74992,-13.749966 -21.24995,0 -36.24991,13.749966 -36.24991,31.249924 0,7.678553 3.39284,23.928514 31.24992,28.035647 22.32138,3.214278 22.49995,11.607119 22.49995,15.535679 v 0.17857 c 0,3.74999 -4.28571,13.74997 -19.64281,13.74997 -17.49996,0 -27.32137,-11.78569 -27.32137,-11.78569 z"
         id="path10287" />
      <path
         d="m 428.72833,65.041034 c -12.49997,0 -21.24995,11.249973 -21.24995,11.249973 V 36.291104 h -14.99996 v 99.999756 h 14.99996 V 91.290971 c 3.74999,-7.499982 10.17855,-13.749967 17.49996,-13.749967 7.49998,0 9.99997,6.249985 9.99997,9.999976 v 48.74988 h 14.99997 V 86.290983 c 0,-12.49997 -7.49998,-21.249949 -21.24995,-21.249949 z"
         id="path10289" />
      <path
         d="m 488.17101,126.29089 c 0,-5.89285 -4.99999,-10.89283 -10.89283,-10.89283 -6.07141,0 -10.89283,4.99998 -10.89283,10.89283 0,6.07141 4.82142,10.89283 10.89283,10.89283 5.89284,0 10.89283,-4.82142 10.89283,-10.89283 z"
         id="path10291" />
      <path
         d="M 598.66375,36.291104 V 136.29086 H 616.1637 V 96.290959 h 9.99998 c 11.24997,0 13.74997,6.964271 18.21424,15.357111 4.64285,8.92855 7.85713,19.46423 11.78569,24.64279 h 21.24995 c -11.24998,-4.99998 -16.24996,-42.499895 -32.49993,-46.249886 9.99998,-3.749991 18.74996,-12.49997 18.74996,-26.249937 0,-9.999976 -6.24999,-27.499933 -31.24993,-27.499933 z m 17.49995,14.999963 h 11.24998 c 9.99997,0 18.74995,4.285704 18.74995,14.999964 0,10.71426 -8.74998,14.999964 -18.74995,14.999964 H 616.1637 Z"
         id="path10293" />
      <path
         d="m 730.96328,63.791037 c -12.49997,0 -22.49995,4.999988 -28.74993,8.749979 l 7.49998,12.142828 c 3.74999,-3.392849 11.24997,-8.392837 18.74995,-8.392837 8.74998,0 14.99997,6.249985 14.99997,11.249973 v 3.749991 c -9.99998,2.499994 -42.4999,1.428568 -42.4999,24.999939 v 0 c 0,14.99997 12.49997,22.49995 22.49994,22.49995 9.99998,0 17.49996,-6.24999 19.99996,-11.24998 1.24999,9.99998 6.24998,11.24998 14.99996,11.24998 l 6.24999,-12.49997 c -2.5,0 -6.24999,0 -6.24999,-6.24999 V 88.790977 c 0,-12.49997 -11.24997,-24.99994 -27.49993,-24.99994 z m 12.49997,38.749903 v 12.49997 c 0,1.25 -8.74998,11.24998 -16.24996,11.24998 -2.5,0 -9.99998,-2.5 -9.99998,-11.24998 0,-11.24997 19.99995,-9.99997 26.24994,-12.49997 z"
         id="path10295" />
      <path
         d="m 781.83456,126.29089 c 0,0 11.24997,11.78568 31.24992,11.78568 16.6071,0 27.49993,-13.03568 27.49993,-23.03566 0,-11.0714 -5.89284,-16.249957 -22.32137,-20.535661 -8.74998,-2.321423 -17.14282,-3.214278 -17.14282,-9.464263 0,-3.57142 4.46428,-8.035695 13.21426,-8.035695 6.24998,0 14.10711,4.642846 16.6071,7.14284 l 8.74998,-9.999976 c 0,0 -9.99998,-9.999976 -26.60708,-9.999976 -17.14282,0 -27.49993,12.142828 -27.49993,22.142804 0,7.499982 3.0357,17.321387 22.67851,20.535667 14.28568,2.32142 16.07139,5.71427 16.07139,9.46426 0,4.99999 -6.24998,9.28569 -12.49997,9.28569 -8.57141,0 -17.49996,-6.78569 -20.17852,-9.28569 z"
         id="path10297" />
      <path
         d="m 900.38433,65.041034 c -12.49997,0 -21.24994,11.249973 -21.24994,11.249973 V 36.291104 h -14.99997 v 99.999756 h 14.99997 V 91.290971 c 3.74999,-7.499982 10.17854,-13.749967 17.49995,-13.749967 7.49999,0 9.99998,6.249985 9.99998,9.999976 v 48.74988 h 14.99996 V 86.290983 c 0,-12.49997 -7.49998,-21.249949 -21.24995,-21.249949 z"
         id="path10299" />
      <path
         d="m 962.32704,43.255372 c 0,-5.892842 -4.99999,-10.89283 -10.89283,-10.89283 -6.07141,0 -10.89283,4.999988 -10.89283,10.89283 0,6.071414 4.82142,10.892831 10.89283,10.892831 5.89284,0 10.89283,-4.821417 10.89283,-10.892831 z m -18.39281,93.035488 h 14.99996 V 66.291031 h -14.99996 z"
         id="path10301" />
      <path
         d="m 1017.4841,138.79086 c 12.5,0 17.5,-9.99998 17.5,-9.99998 1.0714,1.96428 1.9643,4.46428 2.5,7.49998 h 12.5 V 36.291104 h -15 v 36.249912 c 0,-1.249997 -7.5,-8.749979 -17.5,-8.749979 -7.4999,0 -31.24988,6.249985 -31.24988,37.499913 0,29.99993 18.74998,37.49991 31.24988,37.49991 z m 0,-13.74997 c -8.7499,0 -16.2499,-8.74998 -16.2499,-23.74994 0,-14.999967 7.5,-24.999943 16.2499,-24.999943 6.4286,0 13.75,3.749991 17.5,9.999976 v 26.249937 c -3.75,7.49998 -10.3571,12.49997 -17.5,12.49997 z"
         id="path10303" />
      <path
         d="m 1102.2839,63.791037 c -18.75,0 -32.4999,14.999964 -32.4999,37.499913 0,22.49994 13.7499,37.49991 32.4999,37.49991 18.7499,0 32.4999,-14.99997 32.4999,-37.49991 0,-22.499949 -13.75,-37.499913 -32.4999,-37.499913 z m 0,12.49997 c 10,0 17.4999,9.999976 17.4999,24.999943 0,14.99996 -7.4999,24.99994 -17.4999,24.99994 -10,0 -17.5,-9.99998 -17.5,-24.99994 0,-14.999967 7.5,-24.999943 17.5,-24.999943 z"
         id="path10305" />
      <path
         d="m 1175.8337,136.29086 h 17.4999 l 22.5,-69.999829 h -16.7857 l -14.4643,48.749879 -14.4642,-48.749879 h -16.7857 z"
         id="path10307" />
      <path
         d="m 291.78572,161.2908 v 99.99976 h 14.99997 v -37.32134 l 23.3928,37.32134 h 18.74995 l -24.64279,-36.9642 24.10708,-33.03563 h -18.39281 l -23.21423,31.78564 V 161.2908 Z"
         id="path10309" />
      <path
         d="m 401.22848,188.79073 c -18.74995,0 -32.49992,14.99997 -32.49992,37.49991 0,22.49995 13.74997,37.49991 32.49992,37.49991 18.74996,0 32.49993,-14.99996 32.49993,-37.49991 0,-22.49994 -13.74997,-37.49991 -32.49993,-37.49991 z m 0,12.49997 c 9.99998,0 17.49996,9.99998 17.49996,24.99994 0,14.99997 -7.49998,24.99994 -17.49996,24.99994 -9.99997,0 -17.49995,-9.99997 -17.49995,-24.99994 0,-14.99996 7.49998,-24.99994 17.49995,-24.99994 z"
         id="path10311" />
      <path
         d="m 465.67112,216.29067 c 5.53571,0 9.99998,-4.46428 9.99998,-9.99998 0,-5.5357 -4.46427,-9.99997 -9.99998,-9.99997 -1.24999,0 -2.67856,0.17857 -3.74999,0.71428 v -1.25 c 0,-6.24998 7.85713,-11.0714 7.85713,-11.0714 l -1.25,-3.03571 c 0,0 -13.39282,7.49999 -13.39282,19.99996 0,8.74998 2.85713,11.24997 3.92856,12.14282 1.78571,1.42857 4.10713,2.5 6.60712,2.5 z"
         id="path10313" />
      <path
         d="m 529.57826,188.79073 c -18.74995,0 -33.74992,14.99997 -33.74992,37.49991 0,22.49995 14.99997,37.49991 33.74992,37.49991 13.92854,0 25.17851,-7.85712 29.99993,-21.24994 l -14.10711,-5.35713 c -2.67857,9.10712 -8.39284,14.1071 -15.89282,14.1071 -9.99998,0 -17.49996,-9.99997 -17.49996,-24.99994 0,-14.99996 7.49998,-24.99994 17.49996,-24.99994 7.49998,0 13.21425,4.99999 15.89282,14.10711 l 14.10711,-5.35713 c -4.82142,-13.39282 -16.07139,-21.24995 -29.99993,-21.24995 z"
         id="path10315" />
      <path
         d="m 619.37802,190.04073 c -12.49997,0 -21.24995,11.24997 -21.24995,11.24997 V 161.2908 H 583.1281 v 99.99976 h 14.99997 v -44.99989 c 3.74999,-7.49998 10.17855,-13.74997 17.49996,-13.74997 7.49998,0 9.99997,6.24999 9.99997,9.99998 v 48.74988 h 14.99997 v -49.99988 c 0,-12.49997 -7.49999,-21.24995 -21.24995,-21.24995 z"
         id="path10317" />
      <path
         d="m 690.42778,188.79073 c -12.49997,0 -22.49994,4.99999 -28.74993,8.74998 l 7.49999,12.14283 c 3.74999,-3.39285 11.24997,-8.39284 18.74995,-8.39284 8.74998,0 14.99996,6.24999 14.99996,11.24998 v 3.74999 c -9.99997,2.49999 -42.49989,1.42857 -42.49989,24.99994 v 0 c 0,14.99996 12.49997,22.49994 22.49994,22.49994 9.99998,0 17.49996,-6.24998 19.99995,-11.24997 1.25,9.99998 6.24999,11.24997 14.99997,11.24997 l 6.24998,-12.49997 c -2.49999,0 -6.24998,0 -6.24998,-6.24998 v -31.24993 c 0,-12.49997 -11.24997,-24.99994 -27.49994,-24.99994 z m 12.49997,38.74991 v 12.49997 c 0,1.25 -8.74997,11.24997 -16.24996,11.24997 -2.49999,0 -9.99997,-2.49999 -9.99997,-11.24997 0,-11.24997 19.99995,-9.99997 26.24993,-12.49997 z"
         id="path10319" />
      <path
         d="m 741.29906,251.29058 c 0,0 11.24998,11.78569 31.24993,11.78569 16.6071,0 27.49993,-13.03568 27.49993,-23.03566 0,-11.0714 -5.89284,-16.24996 -22.32137,-20.53566 -8.74998,-2.32143 -17.14282,-3.21428 -17.14282,-9.46427 0,-3.57142 4.46428,-8.03569 13.21425,-8.03569 6.24999,0 14.10711,4.64284 16.60711,7.14284 l 8.74998,-9.99998 c 0,0 -9.99998,-9.99997 -26.60708,-9.99997 -17.14282,0 -27.49994,12.14282 -27.49994,22.1428 0,7.49998 3.03571,17.32139 22.67852,20.53567 14.28568,2.32142 16.07139,5.71427 16.07139,9.46426 0,4.99999 -6.24998,9.28569 -12.49997,9.28569 -8.57141,0 -17.49996,-6.7857 -20.17852,-9.28569 z"
         id="path10321" />
      <path
         d="m 840.74178,168.25507 c 0,-5.89284 -4.99999,-10.89283 -10.89284,-10.89283 -6.07141,0 -10.89283,4.99999 -10.89283,10.89283 0,6.07141 4.82142,10.89283 10.89283,10.89283 5.89285,0 10.89284,-4.82142 10.89284,-10.89283 z m -18.39282,93.03549 h 14.99997 v -69.99983 h -14.99997 z"
         id="path10323" />
    </g>
    <g
       aria-label="Oʻzbekiston
koʻchasi"
       id="text10278"
       style="font-size:178.571px;line-height:0.7;font-family:'Russian Road Sign';-inkscape-font-specification:'Russian Road Sign';letter-spacing:-2.7px;fill-rule:evenodd;stroke-width:7.14286;stroke-linecap:round;stroke-linejoin:round;paint-order:stroke fill markers">
      <path
         d="m 660.71417,621.79114 c -27.49994,0 -40.71419,23.57137 -40.71419,52.49987 0,28.92851 13.21425,52.49988 40.71419,52.49988 27.49993,0 40.71419,-23.57137 40.71419,-52.49988 0,-28.9285 -13.21426,-52.49987 -40.71419,-52.49987 z m 0,16.24996 c 13.74997,0 23.74994,13.74997 23.74994,36.24991 0,22.49995 -9.99997,36.24992 -23.74994,36.24992 -13.74997,0 -23.74994,-13.74997 -23.74994,-36.24992 0,-22.49994 9.99997,-36.24991 23.74994,-36.24991 z"
         id="path10326" />
      <path
         d="m 732.65674,679.291 c 5.5357,0 9.99997,-4.46427 9.99997,-9.99997 0,-5.53571 -4.46427,-9.99998 -9.99997,-9.99998 -1.25,0 -2.67857,0.17857 -3.75,0.71428 v -1.24999 c 0,-6.24999 7.85713,-11.07141 7.85713,-11.07141 l -1.25,-3.0357 c 0,0 -13.39282,7.49998 -13.39282,19.99995 0,8.74998 2.85713,11.24997 3.92856,12.14283 1.78571,1.42857 4.10713,2.49999 6.60713,2.49999 z"
         id="path10328" />
      <path
         d="m 769.06394,724.29089 h 51.24987 v -13.74996 h -32.49992 l 31.24993,-41.2499 v -14.99997 h -49.99988 v 13.74997 h 32.49992 l -32.49992,42.4999 z"
         id="path10330" />
      <path
         d="m 879.75634,726.79089 c 12.49997,0 31.24993,-7.49998 31.24993,-37.49991 0,-31.24993 -23.74995,-37.49991 -31.24993,-37.49991 -9.99998,0 -17.49996,7.49998 -17.49996,8.74998 v -36.24992 h -14.99996 v 99.99976 h 12.49997 c 0.53571,-3.0357 1.42857,-5.5357 2.49999,-7.49998 0,0 4.99999,9.99998 17.49996,9.99998 z m 0,-13.74997 c -7.14284,0 -13.74997,-4.99999 -17.49996,-12.49997 v -26.24994 c 3.74999,-6.24998 11.0714,-9.99997 17.49996,-9.99997 8.74998,0 16.24996,9.99997 16.24996,24.99994 0,14.99996 -7.49998,23.74994 -16.24996,23.74994 z"
         id="path10332" />
      <path
         d="m 963.30611,664.29104 c 7.49998,0 16.24996,7.67855 16.24996,14.99996 0,1.25 -0.35715,2.5 -1.25,2.5 h -31.24993 c 0,-9.99998 8.74998,-17.49996 16.24997,-17.49996 z m 28.74993,29.99993 c 2.14285,0 3.74999,-3.75 3.74999,-7.49999 0,-18.74995 -14.99997,-34.99991 -32.49992,-34.99991 -9.46427,0 -19.64281,4.99999 -25.71423,12.49997 -5.17856,6.24998 -7.14284,14.46425 -7.14284,25.71422 0,22.14281 15.53568,36.78563 34.10706,36.78563 8.74998,0 21.24995,-3.74999 28.74993,-16.24996 l -12.49997,-6.96427 c -4.99998,6.24998 -8.74998,9.46426 -14.99996,9.46426 -6.24999,0 -18.74996,-3.74999 -18.74996,-18.74995 z"
         id="path10334" />
      <path
         d="m 1023.1059,624.29113 v 99.99976 h 14.9999 v -37.32134 l 23.3928,37.32134 h 18.75 l -24.6428,-36.96419 24.1071,-33.03564 h -18.3928 l -23.2143,31.78564 v -61.78557 z"
         id="path10336" />
      <path
         d="m 1120.9415,631.2554 c 0,-5.89284 -4.9999,-10.89283 -10.8928,-10.89283 -6.0714,0 -10.8928,4.99999 -10.8928,10.89283 0,6.07142 4.8214,10.89283 10.8928,10.89283 5.8929,0 10.8928,-4.82141 10.8928,-10.89283 z m -18.3928,93.03549 h 15 v -69.99983 h -15 z"
         id="path10338" />
      <path
         d="m 1140.9202,714.29092 c 0,0 11.25,11.78568 31.2499,11.78568 16.6071,0 27.5,-13.03568 27.5,-23.03566 0,-11.0714 -5.8929,-16.24996 -22.3214,-20.53566 -8.75,-2.32142 -17.1428,-3.21428 -17.1428,-9.46426 0,-3.57142 4.4643,-8.0357 13.2142,-8.0357 6.25,0 14.1071,4.64285 16.6071,7.14284 l 8.75,-9.99997 c 0,0 -10,-9.99998 -26.6071,-9.99998 -17.1428,0 -27.4999,12.14283 -27.4999,22.1428 0,7.49999 3.0357,17.32139 22.6785,20.53567 14.2857,2.32142 16.0714,5.71427 16.0714,9.46426 0,4.99999 -6.25,9.28569 -12.5,9.28569 -8.5714,0 -17.4999,-6.78569 -20.1785,-9.28569 z"
         id="path10340" />
      <path
         d="m 1243.22,624.29113 -15,6.24999 v 23.74994 h -9.9999 v 13.74997 h 9.9999 v 39.9999 c 0,12.49997 9.8214,17.49996 22.5,17.49996 2.5,0 11.25,-1.25 15,-2.49999 l -3.0358,-13.74997 c -1.9642,1.25 -6.6071,2.67856 -10.3571,2.67856 -0.1785,0 -0.3571,0 -0.3571,-0.17857 -3.75,0 -8.75,-2.49999 -8.75,-7.49998 v -36.24991 h 20 v -13.74997 h -20 z"
         id="path10342" />
      <path
         d="m 1319.2699,651.79107 c -18.75,0 -32.5,14.99996 -32.5,37.49991 0,22.49994 13.75,37.49991 32.5,37.49991 18.7499,0 32.4999,-14.99997 32.4999,-37.49991 0,-22.49995 -13.75,-37.49991 -32.4999,-37.49991 z m 0,12.49997 c 9.9999,0 17.4999,9.99997 17.4999,24.99994 0,14.99996 -7.5,24.99994 -17.4999,24.99994 -10,0 -17.5,-9.99998 -17.5,-24.99994 0,-14.99997 7.5,-24.99994 17.5,-24.99994 z"
         id="path10344" />
      <path
         d="m 1414.0696,653.04106 c -12.5,0 -20.8928,9.46427 -20.8928,9.46427 -1.25,-1.78571 -1.9643,-4.99999 -2.5,-8.21427 h -12.8571 v 69.99983 h 14.9999 V 679.291 c 3.75,-7.49998 10.1786,-13.74997 17.5,-13.74997 7.5,0 10,6.24999 10,9.99998 v 48.74988 h 14.9999 v -49.99988 c 0,-12.49997 -7.5,-21.24995 -21.2499,-21.24995 z"
         id="path10346" />
      <path
         d="m 625.71425,749.29083 v 99.99976 h 14.99997 v -37.32134 l 23.3928,37.32134 h 18.74995 l -24.6428,-36.9642 24.10709,-33.03563 h -18.39281 l -23.21423,31.78564 v -61.78557 z"
         id="path10348" />
      <path
         d="m 735.15701,776.79077 c -18.74995,0 -32.49992,14.99996 -32.49992,37.4999 0,22.49995 13.74997,37.49991 32.49992,37.49991 18.74996,0 32.49992,-14.99996 32.49992,-37.49991 0,-22.49994 -13.74996,-37.4999 -32.49992,-37.4999 z m 0,12.49997 c 9.99998,0 17.49996,9.99997 17.49996,24.99993 0,14.99997 -7.49998,24.99994 -17.49996,24.99994 -9.99997,0 -17.49996,-9.99997 -17.49996,-24.99994 0,-14.99996 7.49999,-24.99993 17.49996,-24.99993 z"
         id="path10350" />
      <path
         d="m 799.59965,804.2907 c 5.5357,0 9.99998,-4.46428 9.99998,-9.99998 0,-5.5357 -4.46428,-9.99997 -9.99998,-9.99997 -1.24999,0 -2.67856,0.17857 -3.74999,0.71428 v -1.25 c 0,-6.24998 7.85713,-11.0714 7.85713,-11.0714 l -1.25,-3.0357 c 0,0 -13.39283,7.49998 -13.39283,19.99995 0,8.74998 2.85714,11.24997 3.92857,12.14283 1.78571,1.42856 4.10713,2.49999 6.60712,2.49999 z"
         id="path10352" />
      <path
         d="m 863.50679,776.79077 c -18.74996,0 -33.74992,14.99996 -33.74992,37.4999 0,22.49995 14.99996,37.49991 33.74992,37.49991 13.92854,0 25.17851,-7.85712 29.99993,-21.24994 l -14.10711,-5.35713 c -2.67857,9.10712 -8.39284,14.1071 -15.89282,14.1071 -9.99998,0 -17.49996,-9.99997 -17.49996,-24.99994 0,-14.99996 7.49998,-24.99993 17.49996,-24.99993 7.49998,0 13.21425,4.99998 15.89282,14.1071 l 14.10711,-5.35713 c -4.82142,-13.39282 -16.07139,-21.24994 -29.99993,-21.24994 z"
         id="path10354" />
      <path
         d="m 953.30654,778.04076 c -12.49997,0 -21.24994,11.24998 -21.24994,11.24998 v -39.99991 h -14.99997 v 99.99976 H 932.0566 V 804.2907 c 3.74999,-7.49998 10.17854,-13.74997 17.49995,-13.74997 7.49999,0 9.99998,6.24999 9.99998,9.99998 v 48.74988 h 14.99996 v -49.99988 c 0,-12.49997 -7.49998,-21.24995 -21.24995,-21.24995 z"
         id="path10356" />
      <path
         d="m 1024.3563,776.79077 c -12.5,0 -22.4999,4.99998 -28.74992,8.74997 l 7.50002,12.14283 c 3.75,-3.39285 11.2499,-8.39283 18.7499,-8.39283 8.75,0 15,6.24998 15,11.24997 v 3.74999 c -10,2.49999 -42.49992,1.42857 -42.49992,24.99994 v 0 c 0,14.99996 12.50002,22.49994 22.49992,22.49994 10,0 17.5,-6.24998 20,-11.24997 1.25,9.99998 6.25,11.24997 14.9999,11.24997 l 6.25,-12.49997 c -2.5,0 -6.25,0 -6.25,-6.24998 v -31.24992 c 0,-12.49997 -11.2499,-24.99994 -27.4999,-24.99994 z m 12.5,38.7499 v 12.49997 c 0,1.25 -8.75,11.24997 -16.25,11.24997 -2.5,0 -10,-2.49999 -10,-11.24997 0,-11.24997 20,-9.99997 26.25,-12.49997 z"
         id="path10358" />
      <path
         d="m 1075.2276,839.29061 c 0,0 11.25,11.78569 31.2499,11.78569 16.6071,0 27.4999,-13.03568 27.4999,-23.03566 0,-11.0714 -5.8928,-16.24996 -22.3213,-20.53566 -8.75,-2.32143 -17.1428,-3.21428 -17.1428,-9.46427 0,-3.57142 4.4642,-8.03569 13.2142,-8.03569 6.25,0 14.1071,4.64285 16.6071,7.14284 l 8.75,-9.99998 c 0,0 -10,-9.99997 -26.6071,-9.99997 -17.1428,0 -27.4999,12.14283 -27.4999,22.1428 0,7.49998 3.0357,17.32139 22.6785,20.53567 14.2857,2.32142 16.0714,5.71427 16.0714,9.46426 0,4.99999 -6.25,9.28569 -12.5,9.28569 -8.5714,0 -17.4999,-6.7857 -20.1785,-9.28569 z"
         id="path10360" />
      <path
         d="m 1174.6703,756.2551 c 0,-5.89284 -5,-10.89283 -10.8928,-10.89283 -6.0714,0 -10.8929,4.99999 -10.8929,10.89283 0,6.07141 4.8215,10.89283 10.8929,10.89283 5.8928,0 10.8928,-4.82142 10.8928,-10.89283 z m -18.3928,93.03549 h 15 v -69.99983 h -15 z"
         id="path10362" />
    </g>
    <g
       aria-label="50m"
       id="text10282"
       style="font-size:132.404px;line-height:1.5;font-family:'Russian Road Sign';-inkscape-font-specification:'Russian Road Sign';fill-rule:evenodd;stroke-width:5.29617;stroke-linecap:round;stroke-linejoin:round;paint-order:stroke fill markers">
      <path
         d="m 585.78046,905.33727 3.70731,-12.04876 h -42.63409 v 36.14629 l 8.34145,4.63414 c 1.85366,-0.92682 5.56097,-5.56096 11.12194,-5.56096 8.34145,0 12.97559,7.41462 12.97559,13.90242 0,9.26828 -9.26828,13.90242 -16.68291,13.90242 -6.09058,0 -13.10799,-0.66202 -17.60973,-3.70732 l 1.85366,12.04877 c 0,0 9.26828,3.70731 17.60973,3.70731 17.60973,0 28.73167,-12.04876 28.73167,-26.87801 0,-14.82925 -12.04876,-23.1707 -22.24387,-23.1707 -4.23693,0 -9.26828,0.92682 -12.04877,4.63414 v -17.60974 z"
         id="path10365" />
      <path
         d="m 635.16722,892.36168 c -14.82924,0 -25.02435,15.75608 -25.02435,37.99995 0,22.24387 10.19511,37.99995 25.02435,37.99995 14.82925,0 25.02436,-15.75608 25.02436,-37.99995 0,-21.05224 -10.19511,-37.99995 -25.02436,-37.99995 z m 0,11.51915 c 7.14982,0 12.04877,7.94424 12.04877,26.4808 0,18.53656 -4.89895,26.4808 -12.04877,26.4808 -7.14981,0 -12.04876,-7.94424 -12.04876,-26.4808 0,-18.53656 4.89895,-26.4808 12.04876,-26.4808 z"
         id="path10367" />
      <path
         d="m 705.60611,914.60555 c -9.26828,0 -14.56444,7.01742 -14.56444,7.01742 -0.92683,-1.32404 -1.45644,-3.70732 -1.85366,-6.09059 h -9.53308 v 51.90237 h 11.12193 v -33.36581 c 2.78049,-5.56096 6.6202,-10.1951 12.04877,-10.1951 5.56097,0 6.48779,4.63414 6.48779,7.41462 v 36.14629 h 11.12194 v -33.36581 c 2.78048,-5.56096 6.6202,-10.1951 12.04876,-10.1951 5.56097,0 6.4878,4.63414 6.4878,7.41462 v 36.14629 h 11.12194 v -37.07312 c 0,-9.26828 -4.63414,-15.75608 -14.82925,-15.75608 -6.88501,0 -13.90242,3.70732 -15.75608,9.26829 -1.85365,-5.56097 -6.7526,-9.26829 -13.90242,-9.26829 z"
         id="path10369" />
    </g>
  </g>
</svg>
