<?xml version="1.0" encoding="UTF-8" standalone="no"?>
<svg
   width="1870"
   height="350"
   version="1.1"
   id="svg113956"
   sodipodi:docname="KG_road_sign_6.11_A.svg"
   inkscape:version="1.2.2 (732a01da63, 2022-12-09)"
   xmlns:inkscape="http://www.inkscape.org/namespaces/inkscape"
   xmlns:sodipodi="http://sodipodi.sourceforge.net/DTD/sodipodi-0.dtd"
   xmlns="http://www.w3.org/2000/svg"
   xmlns:svg="http://www.w3.org/2000/svg"
   xmlns:rdf="http://www.w3.org/1999/02/22-rdf-syntax-ns#"
   xmlns:cc="http://creativecommons.org/ns#"
   xmlns:dc="http://purl.org/dc/elements/1.1/">
  <sodipodi:namedview
     id="namedview113958"
     pagecolor="#ffffff"
     bordercolor="#000000"
     borderopacity="0.25"
     inkscape:showpageshadow="2"
     inkscape:pageopacity="0.0"
     inkscape:pagecheckerboard="0"
     inkscape:deskcolor="#d1d1d1"
     showgrid="false"
     showguides="true"
     inkscape:zoom="0.34491979"
     inkscape:cx="987.18605"
     inkscape:cy="331.96124"
     inkscape:window-width="1920"
     inkscape:window-height="991"
     inkscape:window-x="-9"
     inkscape:window-y="-9"
     inkscape:window-maximized="1"
     inkscape:current-layer="svg113956" />
  <title
     id="title113942">5.26 Manzil nomi</title>
  <defs
     id="defs113946">
    <style
       id="style113944">.b{fill:#1d1e1b}</style>
  </defs>
  <rect
     x="1"
     y="1"
     width="1868"
     height="348"
     rx="44"
     style="fill:#fff"
     id="rect113948" />
  <path
     class="b"
     d="M1825 2a43.049 43.049 0 0 1 43 43v260a43.049 43.049 0 0 1-43 43H45a43.049 43.049 0 0 1-43-43V45A43.049 43.049 0 0 1 45 2h1780m0-2H45A45 45 0 0 0 0 45v260a45 45 0 0 0 45 45h1780a45 45 0 0 0 45-45V45a45 45 0 0 0-45-45z"
     id="path113950" />
  <path
     class="b"
     d="M1825 20a25.028 25.028 0 0 1 25 25v260a25.028 25.028 0 0 1-25 25H45a25.028 25.028 0 0 1-25-25V45a25.028 25.028 0 0 1 25-25h1780m0-10H45a35 35 0 0 0-35 35v260a35 35 0 0 0 35 35h1780a35 35 0 0 0 35-35V45a35 35 0 0 0-35-35z"
     id="path113954" />
  <g
     aria-label="Navroʻz koʻchasi"
     id="text114337"
     style="font-size:266.381px;line-height:1.5;font-family:'Russian Road Sign';-inkscape-font-specification:'Russian Road Sign';letter-spacing:-10px;fill:#00ffff;fill-rule:evenodd;stroke-width:96.4299;stroke-linecap:round;stroke-linejoin:round;paint-order:stroke fill markers">
    <path
       d="m 100.5752,248.12767 h 26.10534 V 139.97698 l 55.94001,108.15069 h 29.83468 V 98.954304 H 186.34989 V 205.24033 L 130.40987,98.954304 H 100.5752 Z"
       style="fill:#000000"
       id="path114575" />
    <path
       d="m 288.22974,139.97698 c -18.64667,0 -33.564,7.45867 -42.88734,13.05267 l 11.188,18.11391 c 5.594,-5.06124 16.78201,-12.51991 27.97001,-12.51991 13.05267,0 22.376,9.32334 22.376,16.782 v 5.59401 c -14.91733,3.72933 -63.39868,2.13104 -63.39868,37.29334 v 0 c 0,22.376 18.64667,33.564 33.56401,33.564 14.91734,0 26.10534,-9.32333 29.83467,-16.782 1.86467,14.91734 9.32334,16.782 22.37601,16.782 l 9.32333,-18.64667 c -3.72933,0 -9.32333,0 -9.32333,-9.32333 v -46.61668 c 0,-18.64667 -16.782,-37.29334 -41.02268,-37.29334 z m 18.64667,57.80468 v 18.64667 c 0,1.86467 -13.05267,16.782 -24.24067,16.782 -3.72933,0 -14.91733,-3.72933 -14.91733,-16.782 0,-16.782 29.83467,-14.91734 39.158,-18.64667 z"
       style="fill:#000000"
       id="path114577" />
    <path
       d="m 388.24507,248.12767 h 26.10534 L 447.91442,143.70631 H 422.8746 l -21.57686,72.72202 -21.57686,-72.72202 h -25.03982 z"
       style="fill:#000000"
       id="path114579" />
    <path
       d="m 525.55376,141.84165 c -18.64667,0 -29.30191,14.11819 -29.30191,14.11819 -1.86467,-2.66381 -2.93019,-7.45867 -3.72933,-12.25353 h -19.17944 v 104.42136 h 22.37601 v -67.12801 c 5.594,-11.18801 13.31905,-16.78201 24.24067,-16.78201 5.594,0 11.188,0 14.91734,3.72934 l 7.45867,-22.37601 c -5.06124,-3.46295 -9.32334,-3.72933 -16.78201,-3.72933 z"
       style="fill:#000000"
       id="path114581" />
    <path
       d="m 616.24579,139.97698 c -27.97001,0 -48.48134,22.376 -48.48134,55.94001 0,33.56401 20.51133,55.94001 48.48134,55.94001 27.97001,0 48.48134,-22.376 48.48134,-55.94001 0,-33.56401 -20.51133,-55.94001 -48.48134,-55.94001 z m 0,18.64667 c 14.91734,0 26.10534,14.91734 26.10534,37.29334 0,22.37601 -11.188,37.29334 -26.10534,37.29334 -14.91734,0 -26.10534,-14.91733 -26.10534,-37.29334 0,-22.376 11.188,-37.29334 26.10534,-37.29334 z"
       style="fill:#000000"
       id="path114583" />
    <path
       d="m 706.405,180.99966 c 8.25781,0 14.91734,-6.65953 14.91734,-14.91734 0,-8.25781 -6.65953,-14.91734 -14.91734,-14.91734 -1.86467,0 -3.99571,0.26638 -5.594,1.06553 v -1.86467 c 0,-9.32334 11.72077,-16.51562 11.72077,-16.51562 l -1.86467,-4.52848 c 0,0 -19.97858,11.188 -19.97858,29.83467 0,13.05267 4.2621,16.78201 5.86038,18.11391 2.66381,2.13105 6.12677,3.72934 9.8561,3.72934 z"
       style="fill:#000000"
       id="path114585" />
    <path
       d="M 754.74265,248.12767 H 831.194 v -20.51134 h -48.48135 l 46.61668,-61.53401 v -22.37601 h -74.58668 v 20.51134 h 48.48134 l -48.48134,63.39868 z"
       style="fill:#000000"
       id="path114587" />
    <path
       d="M 992.33286,98.954304 V 248.12767 h 22.37604 v -55.67363 l 34.8959,55.67363 h 27.97 l -36.7606,-55.14087 35.9614,-49.28049 h -27.4372 l -34.6295,47.41582 V 98.954304 Z"
       style="fill:#000000"
       id="path114589" />
    <path
       d="m 1149.6204,139.97698 c -27.97,0 -48.4814,22.376 -48.4814,55.94001 0,33.56401 20.5114,55.94001 48.4814,55.94001 27.97,0 48.4813,-22.376 48.4813,-55.94001 0,-33.56401 -20.5113,-55.94001 -48.4813,-55.94001 z m 0,18.64667 c 14.9173,0 26.1053,14.91734 26.1053,37.29334 0,22.37601 -11.188,37.29334 -26.1053,37.29334 -14.9174,0 -26.1054,-14.91733 -26.1054,-37.29334 0,-22.376 11.188,-37.29334 26.1054,-37.29334 z"
       style="fill:#000000"
       id="path114591" />
    <path
       d="m 1239.7795,180.99966 c 8.2578,0 14.9174,-6.65953 14.9174,-14.91734 0,-8.25781 -6.6596,-14.91734 -14.9174,-14.91734 -1.8647,0 -3.9957,0.26638 -5.594,1.06553 v -1.86467 c 0,-9.32334 11.7208,-16.51562 11.7208,-16.51562 l -1.8647,-4.52848 c 0,0 -19.9786,11.188 -19.9786,29.83467 0,13.05267 4.2621,16.78201 5.8604,18.11391 2.6638,2.13105 6.1268,3.72934 9.8561,3.72934 z"
       style="fill:#000000"
       id="path114593" />
    <path
       d="m 1329.1398,139.97698 c -27.97,0 -50.346,22.376 -50.346,55.94001 0,33.56401 22.376,55.94001 50.346,55.94001 20.7778,0 37.5598,-11.72076 44.752,-31.69934 l -21.0441,-7.99143 c -3.9957,13.58544 -12.5199,21.0441 -23.7079,21.0441 -14.9173,0 -26.1053,-14.91733 -26.1053,-37.29334 0,-22.376 11.188,-37.29334 26.1053,-37.29334 11.188,0 19.7122,7.45867 23.7079,21.0441 l 21.0441,-7.99143 c -7.1922,-19.97858 -23.9742,-31.69934 -44.752,-31.69934 z"
       style="fill:#000000"
       id="path114595" />
    <path
       d="m 1457.1252,141.84165 c -18.6467,0 -31.6993,16.782 -31.6993,16.782 V 98.954304 h -22.376 V 248.12767 h 22.376 v -67.12801 c 5.594,-11.18801 15.1837,-20.51134 26.1053,-20.51134 11.188,0 14.9173,9.32333 14.9173,14.91733 v 72.72202 h 22.376 v -74.58668 c 0,-18.64667 -11.188,-31.69934 -31.6993,-31.69934 z"
       style="fill:#000000"
       id="path114597" />
    <path
       d="m 1557.1405,139.97698 c -18.6467,0 -33.564,7.45867 -42.8874,13.05267 l 11.188,18.11391 c 5.594,-5.06124 16.782,-12.51991 27.97,-12.51991 13.0527,0 22.3761,9.32334 22.3761,16.782 v 5.59401 c -14.9174,3.72933 -63.3987,2.13104 -63.3987,37.29334 v 0 c 0,22.376 18.6466,33.564 33.564,33.564 14.9173,0 26.1053,-9.32333 29.8347,-16.782 1.8646,14.91734 9.3233,16.782 22.376,16.782 l 9.3233,-18.64667 c -3.7293,0 -9.3233,0 -9.3233,-9.32333 v -46.61668 c 0,-18.64667 -16.782,-37.29334 -41.0227,-37.29334 z m 18.6467,57.80468 v 18.64667 c 0,1.86467 -13.0527,16.782 -24.2407,16.782 -3.7294,0 -14.9174,-3.72933 -14.9174,-16.782 0,-16.782 29.8347,-14.91734 39.1581,-18.64667 z"
       style="fill:#000000"
       id="path114599" />
    <path
       d="m 1627.0548,233.21033 c 0,0 16.782,17.58115 46.6167,17.58115 24.7734,0 41.0226,-19.44581 41.0226,-34.36315 0,-16.51562 -8.7905,-24.24067 -33.2976,-30.63382 -13.0527,-3.46295 -25.5726,-4.79485 -25.5726,-14.11819 0,-5.32762 6.6596,-11.98715 19.7122,-11.98715 9.3234,0 21.0441,6.92591 24.7735,10.65524 l 13.0526,-14.91733 c 0,0 -14.9173,-14.91734 -39.6907,-14.91734 -25.5726,0 -41.0227,18.11391 -41.0227,33.03125 0,11.188 4.5285,25.83896 33.8304,30.63381 21.3105,3.46296 23.9743,8.5242 23.9743,14.1182 0,7.45867 -9.3234,13.85181 -18.6467,13.85181 -12.7863,0 -26.1053,-10.12248 -30.1011,-13.85181 z"
       style="fill:#000000"
       id="path114601" />
    <path
       d="m 1769.4248,109.34316 c 0,-8.79057 -7.4587,-16.249239 -16.2492,-16.249239 -9.057,0 -16.2493,7.458669 -16.2493,16.249239 0,9.05696 7.1923,16.24924 16.2493,16.24924 8.7905,0 16.2492,-7.19228 16.2492,-16.24924 z m -27.4372,138.78451 h 22.376 V 143.70631 h -22.376 z"
       style="fill:#000000"
       id="path114603" />
  </g>
  <metadata
     id="metadata114562">
    <rdf:RDF>
      <cc:Work
         rdf:about="">
        <dc:title>5.26 Manzil nomi</dc:title>
      </cc:Work>
    </rdf:RDF>
  </metadata>
</svg>
