<?xml version="1.0" encoding="UTF-8" standalone="no"?>
<svg
   xmlns:dc="http://purl.org/dc/elements/1.1/"
   xmlns:cc="http://creativecommons.org/ns#"
   xmlns:rdf="http://www.w3.org/1999/02/22-rdf-syntax-ns#"
   xmlns:svg="http://www.w3.org/2000/svg"
   xmlns="http://www.w3.org/2000/svg"
   width="395.11111mm"
   height="197.55556mm"
   viewBox="0 0 1400 700"
   id="svg4334"
   version="1.1">
  <defs
     id="defs4336" />
  <metadata
     id="metadata4339">
    <rdf:RDF>
      <cc:Work
         rdf:about="">
        <dc:format>image/svg+xml</dc:format>
        <dc:type
           rdf:resource="http://purl.org/dc/dcmitype/StillImage" />
        <dc:title></dc:title>
      </cc:Work>
    </rdf:RDF>
  </metadata>
  <g
     id="layer1"
     transform="translate(3186.1057,-172.6633)">
    <title
       id="title3002">3.33 Движение транспортных средств с взрывчатыми и легковоспламеняющимися грузами запрещено</title>
    <g
       transform="translate(-180.22791,-379.31424)"
       id="layer1-6" />
    <title
       id="title3002-5">4.5 Пешеходная дорожка</title>
    <g
       transform="translate(-1130.156,58.432284)"
       id="layer1-4">
      <title
         id="title3002-0">4.7 Конец зоны ограничения минимальной скорости</title>
      <g
         transform="scale(0.98304107,1.0172515)"
         style="font-style:normal;font-variant:normal;font-weight:normal;font-stretch:normal;font-size:491.59036255px;line-height:100%;font-family:'Transport Heavy';-inkscape-font-specification:'Transport Heavy,';text-align:start;letter-spacing:0px;word-spacing:0px;writing-mode:lr-tb;text-anchor:start;fill:#ffffff;fill-opacity:1;stroke:none;stroke-width:1px;stroke-linecap:butt;stroke-linejoin:miter;stroke-opacity:1"
         id="text5021">
        <title
           id="title3002-6">5.2 Конец автомагистрали</title>
        <g
           id="layer1-8"
           transform="matrix(1.0172515,0,0,0.98304107,-848.4803,99.054688)">
          <title
             id="title3002-56">5.5 Дорога с односторонним движением</title>
          <g
             id="layer1-96"
             transform="translate(444.03822,-414.27672)" />
          <title
             id="title14100">5.15.7 Направление движения по полосам</title>
          <g
             id="layer1-65"
             transform="translate(-1221.8587,-338.89451)">
            <rect
               transform="scale(-1,-1)"
               id="rect7667-0"
               style="color:#000000;display:inline;overflow:visible;visibility:visible;opacity:1;fill:#ffffff;fill-opacity:1;stroke:none;stroke-width:2;marker-start:none;marker-mid:none;marker-end:none;enable-background:accumulate"
               x="-1400"
               y="-1052.3619"
               width="1400"
               height="700"
               rx="45"
               ry="45" />
            <rect
               transform="scale(-1,-1)"
               id="rect7101-7"
               style="color:#000000;display:inline;overflow:visible;visibility:visible;opacity:1;fill:none;stroke:#000000;stroke-width:2;stroke-miterlimit:4;stroke-dasharray:none;stroke-opacity:1;marker-start:none;marker-mid:none;marker-end:none;enable-background:accumulate"
               x="-1399"
               y="-1051.3619"
               width="1398"
               height="698"
               rx="44"
               ry="44" />
            <path
               id="rect9536"
               style="color:#000000;display:inline;overflow:visible;visibility:visible;opacity:1;fill:#0d69e1;fill-opacity:1;fill-rule:nonzero;stroke:none;stroke-width:3.54299998;marker-start:none;marker-mid:none;marker-end:none;enable-background:accumulate"
               d="m 1355,1032.362 c 13.85,0 25,-11.15 25,-25 l 0,-610.00001 c 0,-13.85 -11.15,-25 -25,-25 l -421.656,0 0,85 -23.344,0 0,-85 -420,0 0,660.00001 175,0 0,-446.65601 -58.344,0 93.344,-163.344 93.344,163.344 -58.344,0 0,446.65601 175,0 0,-85.00001 23.344,0 0,85.00001 186.656,0 0,-446.65601 -58.344,0 93.344,-163.344 93.344,163.344 -58.344,0 0,446.65601 165,0 z m -888.344,0 0,-660.00001 -186.656,0 0,446.656 58.34,0 -93.34,163.344 -93.34,-163.344 58.34,0 0,-446.656 -165,0 c -13.85,0 -25,11.15 -25,25 l 0,610.00001 c 0,13.85 11.15,25 25,25 l 421.656,0 z m 466.688,-108.34401 -23.344,0 0,-70 23.344,0 0,70 z m 0,-93.312 -23.344,0 0,-70 23.344,0 0,70 z m 0,-93.344 -23.344,0 0,-70 23.344,0 0,70 z m 0,-93.344 -23.344,0 0,-70 23.344,0 0,70 z m 0,-93.312 -23.344,0 0,-70 23.344,0 0,70 z" />
          </g>
        </g>
      </g>
    </g>
    <g
       id="layer3" />
    <title
       id="title3002-3">4.4 Велосипедная дорожка</title>
    <g
       transform="translate(132.49382,-754.50658)"
       id="layer1-9" />
  </g>
  <g
     id="layer1-3"
     transform="translate(1354.3243,-227.56309)" />
</svg>
