<?xml version="1.0" encoding="UTF-8"?>
<svg version="1.1" id="background" xmlns="http://www.w3.org/2000/svg" xmlns:xlink="http://www.w3.org/1999/xlink" width="600px" height="300px" viewBox="0 0 600 300" xml:space="preserve">
  <g>
    <path fill="#FFFFFF" fill-rule="evenodd" stroke="none" d="M0,45C0,20.147 20.147,0 45,0L555,0C579.852,0 600,20.147 600,45L600,255C600,279.852 579.852,300 555,300L45,300C20.147,300 0,279.852 0,255Z"/>
    <path fill="black" fill-rule="evenodd" stroke="none" d="M0,45C0,20.147 20.147,0 45,0L555,0C579.852,0 600,20.147 600,45L600,255C600,279.852 579.852,300 555,300L45,300C20.147,300 0,279.852 0,255L0,45ZM10,45C10,25.670 25.670,10 45,10L555,10C574.329,10 590,25.670 590,45L590,255C590,274.329 574.329,290 555,290L45,290C25.670,290 10,274.329 10,255L10,45Z"/>
    <path fill="#FF0000" fill-rule="evenodd" stroke="none" d="M10,45C10,25.670 25.670,10 45,10L555,10C574.329,10 590,25.670 590,45L590,255C590,274.329 574.329,290 555,290L45,290C25.670,290 10,274.329 10,255L10,45Z"/>
    <path fill="black" fill-rule="evenodd" stroke="none" d="M67.335,184.716C65.583,183.004 63.698,181.720 61.665,180.878C59.632,180.035 57.533,179.608 55.353,179.608C54.070,179.608 52.799,179.781 51.569,180.102C50.325,180.437 49.215,180.891 48.239,181.440C47.277,182.001 46.488,182.683 45.886,183.459C45.297,184.234 45.003,185.077 45.003,186C45.003,186.922 45.418,187.684 46.260,188.259C47.103,188.834 48.293,189.316 49.804,189.717L59.071,192.244C59.860,192.445 60.676,192.712 61.518,193.033C62.360,193.368 63.216,193.742 64.072,194.170C64.928,194.598 65.757,195.093 66.573,195.641C67.375,196.176 68.151,196.778 68.873,197.446C69.595,198.101 70.263,198.824 70.879,199.599C71.494,200.375 72.015,201.204 72.470,202.100C72.911,202.996 73.259,203.958 73.500,205.002C73.754,206.031 73.874,207.141 73.874,208.291C73.874,209.441 73.740,210.564 73.473,211.661C73.219,212.744 72.831,213.800 72.336,214.803C71.841,215.806 71.240,216.756 70.504,217.652C69.782,218.548 68.953,219.363 68.030,220.126C67.108,220.888 66.091,221.570 64.981,222.158C63.885,222.760 62.695,223.255 61.438,223.669C60.194,224.084 58.870,224.405 57.480,224.632C56.089,224.859 54.645,224.980 53.120,224.980C50.553,224.980 48.199,224.806 46.060,224.431C43.933,224.070 41.941,223.509 40.096,222.733C38.250,221.958 36.498,220.981 34.854,219.831C33.195,218.681 31.577,217.304 30,215.713L38.063,208.291C39.053,209.374 40.069,210.324 41.112,211.139C42.155,211.942 43.278,212.610 44.482,213.145C45.685,213.667 46.996,214.055 48.413,214.309C49.844,214.563 51.409,214.683 53.120,214.683C54.177,214.683 55.220,214.563 56.249,214.335C57.266,214.108 58.188,213.734 58.991,213.239C59.806,212.744 60.462,212.102 60.970,211.287C61.491,210.484 61.745,209.481 61.745,208.291C61.745,207.529 61.558,206.807 61.197,206.138C60.836,205.456 60.341,204.854 59.739,204.306C59.124,203.758 58.442,203.277 57.680,202.862C56.918,202.461 56.142,202.153 55.353,201.953L47.918,200.121C45.351,199.452 43.171,198.623 41.406,197.593C39.641,196.564 38.197,195.440 37.073,194.197C35.950,192.966 35.148,191.643 34.680,190.239C34.198,188.834 33.958,187.417 33.958,186C33.958,184.622 34.118,183.325 34.426,182.122C34.747,180.905 35.188,179.781 35.790,178.725C36.378,177.669 37.100,176.706 37.943,175.850C38.785,174.994 39.708,174.205 40.711,173.496C41.727,172.788 42.810,172.173 43.960,171.664C45.110,171.156 46.327,170.728 47.571,170.381C48.828,170.033 50.111,169.766 51.409,169.578C52.719,169.404 54.030,169.311 55.353,169.311C57.199,169.311 58.991,169.525 60.729,169.953C62.454,170.381 64.099,170.942 65.650,171.638C67.201,172.333 68.672,173.122 70.063,174.018C71.454,174.914 72.724,175.823 73.874,176.746L67.335,184.716ZM99.070,223.094L87.931,223.094L87.931,171.089L99.070,171.089L99.070,223.094ZM93.520,165.553C91.475,165.553 89.723,164.818 88.279,163.374C86.821,161.916 86.099,160.164 86.099,158.118C86.099,156.072 86.821,154.321 88.279,152.863C89.723,151.419 91.475,150.683 93.520,150.683C95.580,150.683 97.318,151.419 98.776,152.863C100.233,154.321 100.955,156.072 100.955,158.118C100.955,160.164 100.233,161.916 98.776,163.374C97.318,164.818 95.580,165.553 93.520,165.553L93.520,165.553ZM116.138,223.148L116.138,171.143L125.405,171.143L127.290,176.692C127.558,175.863 127.892,175.128 128.333,174.486C128.761,173.844 129.256,173.269 129.845,172.774C130.420,172.280 131.035,171.852 131.690,171.464C132.359,171.089 133.040,170.768 133.749,170.528C134.458,170.274 135.193,170.073 135.929,169.913C136.678,169.739 137.413,169.605 138.135,169.511C138.857,169.418 139.566,169.351 140.235,169.311C140.917,169.284 141.545,169.257 142.147,169.257C144.394,169.257 146.426,169.525 148.258,170.060C150.090,170.581 151.668,171.370 152.965,172.413C154.276,173.443 155.265,174.740 155.961,176.291C156.656,177.842 157.004,179.634 157.004,181.640L157.004,223.148L145.865,223.148L145.865,186C145.865,185.077 145.691,184.208 145.370,183.405C145.035,182.590 144.594,181.881 144.033,181.279C143.471,180.664 142.802,180.183 142.027,179.835C141.251,179.487 140.409,179.313 139.526,179.313C138.898,179.313 138.242,179.380 137.560,179.514C136.892,179.648 136.196,179.835 135.514,180.062C134.819,180.290 134.137,180.570 133.455,180.905C132.773,181.239 132.131,181.627 131.516,182.068C130.914,182.509 130.353,183.004 129.845,183.552C129.323,184.101 128.882,184.689 128.507,185.331C128.119,185.973 127.825,186.668 127.611,187.390C127.397,188.112 127.290,188.888 127.290,189.717L127.290,223.148L116.138,223.148ZM177.954,223.148L177.954,181.493L169.490,181.493L169.490,171.143L177.954,171.143L177.954,163.708C177.954,162.852 177.994,161.996 178.075,161.114C178.155,160.244 178.289,159.375 178.449,158.519C178.610,157.650 178.850,156.821 179.144,156.019C179.439,155.203 179.800,154.441 180.228,153.732C180.669,153.023 181.164,152.368 181.739,151.780C182.327,151.191 182.982,150.670 183.731,150.242C184.467,149.814 185.296,149.480 186.232,149.226C187.154,148.985 188.171,148.851 189.294,148.851C189.562,148.851 189.896,148.851 190.310,148.851C190.725,148.851 191.193,148.878 191.728,148.905C192.249,148.945 192.824,148.958 193.453,148.985C194.081,148.998 194.750,149.038 195.445,149.105C196.127,149.172 196.863,149.239 197.612,149.306C198.374,149.373 199.149,149.453 199.952,149.573C200.741,149.694 201.543,149.814 202.372,149.948C203.201,150.082 204.004,150.242 204.793,150.443L201.677,160.646C200.527,160.485 199.404,160.325 198.307,160.178C197.224,160.031 196.087,159.924 194.897,159.857L194.603,159.857C194.162,159.857 193.720,159.897 193.266,160.004C192.637,160.164 192.062,160.418 191.554,160.739C191.046,161.074 190.605,161.488 190.243,161.983C189.869,162.478 189.695,163.053 189.695,163.708L189.695,171.143L202.078,171.143L202.078,181.493L189.695,181.493L189.695,223.148L177.954,223.148ZM227.781,223.094L216.642,223.094L216.642,171.089L227.781,171.089L227.781,223.094ZM222.232,165.553C220.186,165.553 218.434,164.818 216.990,163.374C215.532,161.916 214.810,160.164 214.810,158.118C214.810,156.072 215.532,154.321 216.990,152.863C218.434,151.419 220.186,150.683 222.232,150.683C224.291,150.683 226.029,151.419 227.487,152.863C228.944,154.321 229.667,156.072 229.667,158.118C229.667,160.164 228.944,161.916 227.487,163.374C226.029,164.818 224.291,165.553 222.232,165.553L222.232,165.553ZM305.103,148.851L318.074,148.851L318.074,197.152L327.394,197.152L323.677,208.291L318.074,208.291L318.074,223.148L305.103,223.148L305.103,208.291L269.787,208.291L269.787,197.152L305.103,148.851ZM282.811,197.152L305.103,197.152L305.103,167.425L282.811,197.152ZM340.141,223.148C338.095,223.148 336.343,222.426 334.886,220.968C333.428,219.510 332.706,217.772 332.706,215.713C332.706,213.667 333.428,211.928 334.886,210.471C336.343,209.013 338.095,208.291 340.141,208.291C342.187,208.291 343.939,209.013 345.383,210.471C346.840,211.928 347.562,213.667 347.562,215.713C347.562,217.772 346.840,219.510 345.383,220.968C343.939,222.426 342.187,223.148 340.141,223.148L340.141,223.148ZM375.188,212.009C376.004,212.009 376.887,211.928 377.836,211.781C378.772,211.634 379.722,211.434 380.658,211.166C381.594,210.899 382.530,210.578 383.452,210.203C384.375,209.816 385.258,209.374 386.087,208.879C386.903,208.385 387.678,207.850 388.387,207.248C389.096,206.660 389.711,206.018 390.219,205.349C390.727,204.667 391.128,203.958 391.436,203.210C391.730,202.474 391.877,201.685 391.877,200.856C391.877,199.933 391.717,199.051 391.409,198.182C391.088,197.326 390.660,196.523 390.099,195.788C389.537,195.039 388.855,194.344 388.066,193.702C387.264,193.060 386.381,192.485 385.418,191.977C384.442,191.455 383.412,191.027 382.316,190.653C381.233,190.292 380.083,190.011 378.879,189.811C377.662,189.623 376.445,189.516 375.215,189.490C373.972,189.476 372.728,189.557 371.471,189.717L371.471,180.356C372.527,180.263 373.570,180.089 374.613,179.862C375.656,179.634 376.673,179.327 377.662,178.939C378.652,178.565 379.601,178.150 380.511,177.682C381.420,177.214 382.249,176.706 383.011,176.117C383.773,175.542 384.469,174.927 385.111,174.259C385.753,173.603 386.301,172.908 386.755,172.186C387.197,171.464 387.544,170.702 387.785,169.913C388.039,169.110 388.160,168.295 388.160,167.425C388.160,166.971 388.119,166.476 388.039,165.968C387.959,165.460 387.825,164.952 387.638,164.430C387.464,163.922 387.223,163.400 386.929,162.879C386.622,162.344 386.274,161.849 385.860,161.381C385.445,160.926 384.950,160.499 384.375,160.097C383.800,159.710 383.145,159.362 382.409,159.081C381.687,158.800 380.885,158.586 379.989,158.412C379.093,158.252 378.104,158.172 377.020,158.172C375.697,158.172 374.399,158.305 373.129,158.586C371.859,158.867 370.602,159.268 369.371,159.776C368.128,160.285 366.911,160.886 365.694,161.555C364.491,162.237 363.314,162.959 362.164,163.708L357.457,153.211C358.874,152.355 360.372,151.552 361.936,150.790C363.501,150.028 365.119,149.373 366.791,148.811C368.462,148.250 370.147,147.808 371.872,147.501C373.584,147.180 375.295,147.019 377.020,147.019C378.839,147.019 380.577,147.153 382.236,147.394C383.907,147.648 385.472,147.995 386.943,148.463C388.414,148.918 389.791,149.493 391.061,150.175C392.332,150.844 393.495,151.593 394.551,152.422C395.608,153.251 396.544,154.160 397.373,155.150C398.202,156.139 398.897,157.196 399.459,158.319C400.021,159.442 400.435,160.606 400.716,161.836C400.997,163.053 401.131,164.310 401.131,165.593C401.131,166.784 401.037,167.934 400.836,169.043C400.636,170.140 400.355,171.196 399.967,172.186C399.593,173.175 399.138,174.098 398.617,174.954C398.082,175.823 397.493,176.612 396.852,177.334C396.210,178.056 395.501,178.725 394.752,179.313C393.990,179.915 393.201,180.410 392.399,180.824C391.583,181.239 390.740,181.573 389.871,181.814C388.989,182.068 388.133,182.229 387.264,182.282L387.959,182.242C388.694,182.242 389.430,182.322 390.192,182.483C391.222,182.683 392.225,182.991 393.241,183.405C394.244,183.820 395.247,184.341 396.236,184.983C397.226,185.638 398.162,186.387 399.031,187.243C399.914,188.099 400.716,189.062 401.465,190.145C402.200,191.215 402.842,192.405 403.364,193.702C403.899,195.012 404.287,196.403 404.554,197.887C404.755,199.118 404.848,200.388 404.848,201.699L404.848,202.688C404.781,204.440 404.500,206.098 404.006,207.676C403.511,209.241 402.829,210.711 401.960,212.075C401.077,213.453 400.048,214.723 398.857,215.887C397.667,217.063 396.370,218.133 394.953,219.083C393.522,220.045 392.011,220.888 390.419,221.610C388.815,222.345 387.170,222.947 385.485,223.442C383.800,223.937 382.089,224.324 380.337,224.579C378.585,224.846 376.873,224.980 375.188,224.980C374.386,224.980 373.597,224.953 372.808,224.886C372.019,224.819 371.217,224.726 370.401,224.605C369.599,224.498 368.796,224.351 368.008,224.191C367.205,224.030 366.443,223.843 365.694,223.642C364.959,223.442 364.237,223.241 363.541,223.054C362.846,222.854 362.191,222.640 361.562,222.426C360.934,222.212 360.372,222.011 359.850,221.810C359.342,221.610 358.874,221.436 358.446,221.262L356.614,208.291C358.125,208.759 359.663,209.214 361.188,209.655C362.725,210.096 364.277,210.498 365.828,210.845C367.379,211.193 368.930,211.474 370.481,211.688C372.033,211.902 373.597,212.009 375.188,212.009L375.188,212.009ZM413.847,236.172L421.228,223.148C420.198,223.148 419.249,222.947 418.353,222.559C417.457,222.158 416.681,221.623 415.999,220.941C415.331,220.273 414.796,219.484 414.422,218.588C414.034,217.705 413.847,216.742 413.847,215.713C413.847,214.696 414.047,213.734 414.448,212.824C414.836,211.915 415.371,211.126 416.026,210.444C416.681,209.762 417.470,209.241 418.380,208.866C419.289,208.478 420.252,208.291 421.282,208.291C422.298,208.291 423.261,208.478 424.170,208.866C425.079,209.241 425.868,209.762 426.550,210.444C427.232,211.126 427.754,211.915 428.142,212.824C428.516,213.734 428.703,214.696 428.703,215.713C428.703,216.381 428.623,217.023 428.462,217.652C428.289,218.280 428.061,218.855 427.767,219.390L418.259,236.172L413.847,236.172ZM448.925,187.885C449.393,186.695 449.914,185.612 450.516,184.636C451.104,183.673 451.746,182.763 452.415,181.948C453.097,181.119 453.819,180.370 454.594,179.688C455.370,179.006 456.186,178.404 457.028,177.883C457.871,177.348 458.713,176.893 459.582,176.519C460.438,176.144 461.307,175.837 462.203,175.596C463.099,175.369 463.982,175.195 464.878,175.061C465.774,174.927 466.643,174.860 467.499,174.860C468.662,174.860 469.826,174.994 471.016,175.262C472.206,175.516 473.396,175.890 474.586,176.371C475.776,176.853 476.926,177.455 478.023,178.203C479.133,178.952 480.176,179.781 481.165,180.731C482.168,181.667 483.064,182.723 483.893,183.900C484.722,185.077 485.431,186.347 486.019,187.711C486.621,189.089 487.076,190.559 487.410,192.151C487.744,193.729 487.905,195.400 487.905,197.152C487.905,199.091 487.731,200.990 487.357,202.822C486.996,204.654 486.501,206.406 485.846,208.091C485.204,209.775 484.428,211.353 483.492,212.824C482.569,214.295 481.553,215.659 480.430,216.903C479.306,218.160 478.090,219.297 476.792,220.299C475.482,221.302 474.118,222.158 472.701,222.854C471.283,223.549 469.826,224.070 468.314,224.431C466.817,224.806 465.306,224.980 463.781,224.980C462.043,224.980 460.318,224.726 458.633,224.218C456.948,223.696 455.330,222.974 453.779,222.038C452.228,221.088 450.757,219.952 449.379,218.615C447.989,217.277 446.705,215.766 445.515,214.081C444.325,212.396 443.255,210.564 442.292,208.585C441.329,206.606 440.527,204.507 439.858,202.274C439.203,200.040 438.695,197.727 438.334,195.320C437.973,192.900 437.786,190.426 437.786,187.885C437.786,184.849 438.013,181.948 438.454,179.166C438.895,176.398 439.524,173.764 440.340,171.290C441.142,168.816 442.105,166.503 443.228,164.336C444.351,162.170 445.608,160.191 446.999,158.386C448.390,156.594 449.874,154.989 451.479,153.585C453.083,152.181 454.755,150.991 456.507,150.015C458.259,149.052 460.050,148.303 461.909,147.795C463.755,147.287 465.613,147.019 467.499,147.019C469.384,147.019 471.029,147.126 472.460,147.327C473.877,147.514 475.161,147.782 476.311,148.116C477.474,148.450 478.531,148.838 479.480,149.279C480.443,149.720 481.379,150.215 482.315,150.737L484.187,162.678C483.465,162.344 482.783,162.023 482.155,161.715C481.540,161.394 480.911,161.100 480.309,160.846C479.694,160.579 479.106,160.325 478.518,160.071C477.943,159.830 477.354,159.603 476.739,159.402C476.124,159.215 475.495,159.041 474.827,158.881C474.172,158.733 473.463,158.600 472.727,158.493C471.978,158.372 471.176,158.292 470.294,158.239C469.424,158.199 468.488,158.172 467.499,158.172C465.854,158.172 464.330,158.426 462.939,158.934C461.561,159.442 460.278,160.164 459.101,161.060C457.938,161.970 456.868,163.053 455.905,164.283C454.956,165.527 454.100,166.877 453.338,168.348C452.575,169.819 451.920,171.370 451.385,173.002C450.837,174.633 450.382,176.291 450.021,177.976C449.660,179.661 449.379,181.346 449.205,183.031C449.018,184.716 448.925,186.334 448.925,187.885L448.925,187.885ZM467.499,186C466.549,186 465.613,186.106 464.731,186.320C463.835,186.534 462.952,186.842 462.083,187.216C461.200,187.591 460.358,188.072 459.556,188.634C458.740,189.195 457.978,189.811 457.242,190.479C456.520,191.161 455.825,191.897 455.170,192.686C454.514,193.488 453.899,194.317 453.364,195.186C452.816,196.069 452.335,196.978 451.893,197.941C451.465,198.890 451.104,199.867 450.810,200.856C450.904,201.792 451.118,202.675 451.425,203.531C451.746,204.400 452.121,205.215 452.562,206.018C453.017,206.807 453.511,207.542 454.073,208.238C454.635,208.933 455.236,209.575 455.865,210.150C456.493,210.725 457.135,211.246 457.817,211.714C458.499,212.169 459.168,212.557 459.850,212.878C460.532,213.185 461.200,213.426 461.856,213.587C462.511,213.760 463.153,213.841 463.781,213.841C464.878,213.841 465.894,213.694 466.830,213.413C467.780,213.132 468.649,212.744 469.451,212.223C470.267,211.714 471.016,211.113 471.684,210.417C472.366,209.722 472.968,208.973 473.516,208.144C474.065,207.315 474.533,206.446 474.934,205.536C475.322,204.640 475.669,203.704 475.950,202.742C476.231,201.792 476.431,200.843 476.565,199.893C476.699,198.957 476.766,198.035 476.766,197.152C476.766,195.561 476.525,194.090 476.044,192.739C475.562,191.389 474.920,190.212 474.091,189.222C473.262,188.233 472.286,187.444 471.163,186.869C470.039,186.294 468.823,186 467.499,186L467.499,186ZM496.987,236.172L504.369,223.148C503.339,223.148 502.390,222.947 501.494,222.559C500.598,222.158 499.822,221.623 499.140,220.941C498.472,220.273 497.937,219.484 497.562,218.588C497.174,217.705 496.987,216.742 496.987,215.713C496.987,214.696 497.188,213.734 497.589,212.824C497.977,211.915 498.512,211.126 499.167,210.444C499.822,209.762 500.611,209.241 501.520,208.866C502.430,208.478 503.393,208.291 504.422,208.291C505.439,208.291 506.401,208.478 507.311,208.866C508.220,209.241 509.009,209.762 509.691,210.444C510.373,211.126 510.894,211.915 511.282,212.824C511.657,213.734 511.844,214.696 511.844,215.713C511.844,216.381 511.764,217.023 511.603,217.652C511.429,218.280 511.202,218.855 510.908,219.390L501.400,236.172L496.987,236.172ZM519.342,161.836L523.060,148.851L567.630,148.851L567.630,160.004L552.372,193.434C551.850,194.625 551.315,195.855 550.767,197.125C550.219,198.396 549.697,199.693 549.189,201.003C548.668,202.327 548.173,203.664 547.691,205.028C547.223,206.379 546.769,207.716 546.341,209.053C545.900,210.391 545.512,211.714 545.164,212.998C544.830,214.282 544.522,215.526 544.282,216.716C544.027,217.906 543.840,219.042 543.707,220.126C543.573,221.222 543.506,222.225 543.506,223.148L528.649,223.148C528.649,222.225 528.730,221.222 528.903,220.126C529.064,219.042 529.291,217.906 529.599,216.716C529.893,215.526 530.254,214.282 530.682,212.998C531.110,211.714 531.578,210.391 532.073,209.053C532.567,207.716 533.089,206.379 533.651,205.028C534.212,203.664 534.801,202.327 535.389,201.003C535.977,199.693 536.592,198.396 537.194,197.125C537.809,195.855 538.411,194.625 539.000,193.434L554.605,161.836L519.342,161.836ZM32.632,53.220L46.239,53.220L57.986,74.341L69.841,53.220L83.351,53.220L64.747,85.516L84.968,120.780L71.459,120.780L57.986,96.277L44.476,120.780L31.015,120.780L51.237,85.516L32.632,53.220ZM94.526,120.780L116.499,53.220L129.972,53.220L151.945,120.780L138.484,120.780L134.520,107.319L111.951,107.319L108.085,120.780L94.526,120.780ZM114.931,97.092L131.504,97.092L123.211,68.444L114.931,97.092ZM162.955,53.220L176.561,53.220L190.071,102.175L203.532,53.220L217.054,53.220L197.768,120.780L182.325,120.780L162.955,53.220ZM228.786,53.220L271.661,53.220L271.661,63.361L240.593,63.361L240.593,81.953L265.132,81.953L265.132,92.094L240.593,92.094L240.593,120.780L228.786,120.780L228.786,53.220ZM326.041,110.650L326.041,120.780L283.846,120.780L283.846,53.220L296.504,53.220L296.504,110.650L326.041,110.650ZM340.623,120.780L340.623,53.220L350.752,53.220L350.752,120.780L340.623,120.780ZM419.300,93.760L419.300,120.780L409.171,120.780L409.171,93.760L387.234,53.220L399.625,53.220L414.266,80.251L428.857,53.220L441.285,53.220L419.300,93.760ZM466.327,100.509C466.327,101.360 466.412,102.163 466.594,102.941C466.777,103.731 467.020,104.473 467.336,105.203C467.652,105.920 468.042,106.589 468.504,107.221C468.978,107.854 469.489,108.437 470.060,108.960C470.632,109.483 471.252,109.957 471.933,110.383C472.601,110.796 473.331,111.149 474.097,111.441C474.863,111.720 475.654,111.939 476.480,112.085C477.307,112.243 478.158,112.316 479.022,112.316C479.861,112.316 480.700,112.243 481.527,112.085C482.354,111.939 483.144,111.720 483.910,111.441C484.676,111.149 485.394,110.796 486.075,110.383C486.743,109.957 487.376,109.483 487.947,108.960C488.506,108.437 489.029,107.854 489.491,107.221C489.966,106.589 490.355,105.920 490.671,105.203C490.987,104.473 491.230,103.731 491.413,102.941C491.595,102.163 491.680,101.360 491.680,100.509L491.680,53.220L503.475,53.220L503.475,97.141C503.475,99.232 503.293,101.214 502.916,103.063C502.539,104.911 502.004,106.613 501.323,108.194C500.630,109.775 499.803,111.222 498.842,112.535C497.882,113.861 496.824,115.052 495.669,116.122C494.513,117.180 493.273,118.104 491.948,118.895C490.634,119.673 489.260,120.317 487.826,120.852C486.403,121.375 484.944,121.777 483.460,122.044C481.977,122.312 480.493,122.445 479.022,122.445C477.526,122.445 476.031,122.312 474.547,122.044C473.051,121.777 471.604,121.375 470.194,120.852C468.783,120.317 467.409,119.673 466.072,118.895C464.734,118.104 463.494,117.180 462.339,116.122C461.183,115.052 460.125,113.861 459.165,112.535C458.204,111.222 457.377,109.775 456.684,108.194C455.991,106.613 455.456,104.911 455.091,103.063C454.714,101.214 454.520,99.232 454.520,97.141L454.520,53.220L466.327,53.220L466.327,100.509ZM529.306,120.780L517.511,120.780L517.511,53.220L529.306,53.220L529.306,120.780ZM568.984,120.780L553.857,120.780L529.306,85.334L552.009,53.220L567.148,53.220L544.445,85.334L568.984,120.780Z"/>
  </g>
</svg>
