<?xml version="1.0" encoding="UTF-8" standalone="no"?>
<!-- Created with Inkscape (http://www.inkscape.org/) -->

<svg
   width="700"
   height="1050.1331"
   id="svg2"
   version="1.1"
   inkscape:version="1.2.2 (732a01da63, 2022-12-09)"
   sodipodi:docname="RU_road_sign_8.2024_10_29_23_38_04.3.svg"
   xmlns:inkscape="http://www.inkscape.org/namespaces/inkscape"
   xmlns:sodipodi="http://sodipodi.sourceforge.net/DTD/sodipodi-0.dtd"
   xmlns="http://www.w3.org/2000/svg"
   xmlns:svg="http://www.w3.org/2000/svg"
   xmlns:rdf="http://www.w3.org/1999/02/22-rdf-syntax-ns#"
   xmlns:cc="http://creativecommons.org/ns#"
   xmlns:dc="http://purl.org/dc/elements/1.1/">
  <title
     id="title3006">7.23 Navbat bilan oʻtish</title>
  <defs
     id="defs4" />
  <sodipodi:namedview
     id="base"
     pagecolor="#ffffff"
     bordercolor="#666666"
     borderopacity="1.0"
     inkscape:pageopacity="0.0"
     inkscape:pageshadow="2"
     inkscape:zoom="0.095345061"
     inkscape:cx="749.90775"
     inkscape:cy="-194.03207"
     inkscape:document-units="px"
     inkscape:current-layer="layer1"
     showgrid="false"
     inkscape:window-width="1920"
     inkscape:window-height="991"
     inkscape:window-x="-9"
     inkscape:window-y="-9"
     inkscape:window-maximized="1"
     inkscape:snap-bbox="true"
     inkscape:bbox-paths="true"
     inkscape:bbox-nodes="true"
     inkscape:snap-bbox-edge-midpoints="true"
     inkscape:snap-bbox-midpoints="true"
     inkscape:object-paths="true"
     inkscape:snap-intersection-paths="true"
     inkscape:object-nodes="true"
     inkscape:snap-smooth-nodes="true"
     inkscape:snap-midpoints="true"
     inkscape:snap-object-midpoints="true"
     showguides="true"
     inkscape:guide-bbox="true"
     inkscape:showpageshadow="2"
     inkscape:pagecheckerboard="0"
     inkscape:deskcolor="#d1d1d1" />
  <metadata
     id="metadata7">
    <rdf:RDF>
      <cc:Work
         rdf:about="">
        <dc:format>image/svg+xml</dc:format>
        <dc:type
           rdf:resource="http://purl.org/dc/dcmitype/StillImage" />
        <dc:title>7.23 Navbat bilan oʻtish</dc:title>
        <cc:license
           rdf:resource="http://creativecommons.org/licenses/by-sa/3.0/" />
        <dc:description>ГОСТ Р 52290-2004
Размеры и пропорции по типоразмеру II</dc:description>
      </cc:Work>
      <cc:License
         rdf:about="http://creativecommons.org/licenses/by-sa/3.0/">
        <cc:permits
           rdf:resource="http://creativecommons.org/ns#Reproduction" />
        <cc:permits
           rdf:resource="http://creativecommons.org/ns#Distribution" />
        <cc:requires
           rdf:resource="http://creativecommons.org/ns#Notice" />
        <cc:requires
           rdf:resource="http://creativecommons.org/ns#Attribution" />
        <cc:permits
           rdf:resource="http://creativecommons.org/ns#DerivativeWorks" />
        <cc:requires
           rdf:resource="http://creativecommons.org/ns#ShareAlike" />
      </cc:License>
    </rdf:RDF>
  </metadata>
  <g
     inkscape:label="Layer 1"
     inkscape:groupmode="layer"
     id="layer1"
     transform="translate(0,-352.36218)">
    <rect
       y="352.36218"
       x="0"
       height="700"
       width="700"
       id="rect5622"
       style="color:#000000;display:inline;overflow:visible;visibility:visible;fill:#000000;fill-opacity:1;fill-rule:nonzero;stroke:none;stroke-width:3.543;marker:none;enable-background:accumulate"
       rx="45"
       ry="45" />
    <g
       id="g12218">
      <g
         id="g12274"
         transform="translate(0,350.13307)">
        <rect
           y="352.36218"
           x="0"
           height="700"
           width="700"
           id="rect12214"
           style="color:#000000;display:inline;overflow:visible;visibility:visible;opacity:1;fill:#000000;fill-opacity:1;fill-rule:nonzero;stroke:none;stroke-width:3.543;marker:none;enable-background:accumulate"
           rx="45"
           ry="45" />
        <rect
           y="362.36212"
           x="10"
           height="680"
           width="680"
           id="rect12216"
           style="color:#000000;display:inline;overflow:visible;visibility:visible;opacity:1;fill:#ffffff;fill-opacity:1;fill-rule:nonzero;stroke:none;stroke-width:3.543;marker:none;enable-background:accumulate"
           rx="35"
           ry="35" />
      </g>
    </g>
    <rect
       y="362.36212"
       x="10"
       height="680"
       width="680"
       id="rect9537"
       style="color:#000000;display:inline;overflow:visible;visibility:visible;fill:#ffffff;fill-opacity:1;fill-rule:nonzero;stroke:none;stroke-width:3.543;marker:none;enable-background:accumulate"
       rx="35"
       ry="35" />
    <g
       id="g3011"
       transform="translate(-140)" />
    <g
       id="g3127"
       transform="rotate(-15,-851.45801,999.87179)">
      <polygon
         fill-rule="evenodd"
         clip-rule="evenodd"
         fill="#2c2825"
         points="299.929,345.655 299.929,345.701 299.929,345.745 299.929,345.789 299.929,345.879 299.929,345.926 299.979,345.973 299.979,346.013 300.014,346.104 300.064,346.198 300.102,346.198 300.102,346.289 300.194,346.336 300.236,346.376 300.329,346.423 300.368,346.47 300.46,346.47 300.499,346.47 300.549,346.47 300.588,346.47 309.954,347.325 309.518,348.59 309.07,349.811 308.546,351.072 307.975,352.341 307.397,353.559 306.777,354.823 306.108,356.045 305.403,357.31 304.654,358.531 303.909,359.749 303.154,360.923 302.354,362.144 300.723,364.488 299.003,366.797 297.231,369.012 295.465,371.175 293.699,373.255 291.97,375.246 290.247,377.093 288.577,378.859 286.979,380.482 285.518,382.018 275.667,391.865 291.931,405.277 293.303,404.064 295.245,402.255 297.454,400.131 299.836,397.826 302.223,395.525 304.435,393.358 306.249,391.503 307.579,390.148 308.454,389.202 309.472,388.066 310.62,386.759 311.9,385.269 313.269,383.645 314.683,381.834 316.193,379.892 317.686,377.814 319.234,375.603 320.737,373.298 322.237,370.861 323.698,368.33 324.41,367.023 325.112,365.711 325.778,364.358 326.437,363.003 327.055,361.6 327.678,360.202 328.253,358.795 328.781,357.357 336.694,362.369 336.732,362.369 336.732,362.416 336.782,362.416 336.818,362.456 336.868,362.456 336.96,362.503 337.038,362.503 337.136,362.503 337.217,362.503 337.31,362.503 337.395,362.456 337.445,362.456 337.534,362.369 337.615,362.321 337.665,362.274 337.704,362.187 337.754,362.096 337.754,362.05 337.789,361.963 337.789,361.916 337.789,361.825 337.789,361.731 337.789,361.644 337.754,361.6 337.754,361.553 331.606,324.736 331.568,324.697 331.568,324.65 331.518,324.602 331.479,324.512 331.436,324.472 331.386,324.377 331.298,324.331 331.256,324.288 331.167,324.244 331.032,324.201 330.94,324.201 330.862,324.244 330.721,324.244 330.684,324.244 330.596,324.331 330.547,324.331 330.511,324.331 300.329,345.158 300.279,345.201 300.236,345.201 300.236,345.245 300.194,345.296 300.151,345.343 300.102,345.383 300.064,345.43 300.014,345.521 299.979,345.568 299.929,345.608 "
         id="polygon12493"
         transform="matrix(1.8955875,0,0,1.8955875,-147.44529,161.77682)"
         style="fill:#000000" />
      <g
         id="g13116"
         transform="matrix(1.3363677,1.3363677,-1.3363638,1.3363638,373.51931,83.20706)"
         style="fill:#aa0000"
         inkscape:transform-center-x="-101.08298"
         inkscape:transform-center-y="246.08225">
        <g
           id="g13090">
          <path
             id="path13088"
             style="color:#000000;fill:#000000;stroke-miterlimit:10;-inkscape-stroke:none"
             d="m 283.89996,314.34953 c -3.75384,0 -6.95958,2.95254 -7.24333,6.78313 l -0.003,0.0131 -3.90362,62.08254 v 0.37107 100.40001 c 0,0.3 -0.0276,0.88451 0.21475,1.61142 l -0.0774,-0.30242 3.40545,18.42534 0.004,0.0263 c 0.71329,3.42377 3.73993,5.8905 7.20242,5.8905 h 68.30175 c 3.58,0 6.79416,-2.69567 6.94676,-6.358 l -0.0351,0.31703 3.3996,-18.40051 -0.0774,0.30241 c 0.2423,-0.72691 0.21476,-1.31141 0.21476,-1.61141 V 383.59937 383.2283 l -3.90363,-62.07086 10e-4,0.0555 c -0.14692,-3.81992 -3.38105,-6.86348 -7.24771,-6.86348 z m 0,4.49968 h 67.2002 c 1.53333,0 2.69787,1.15758 2.75095,2.53765 l 0.003,0.0278 3.20968,51.03493 h -79.1273 l 3.20822,-50.98234 c 0.11625,-1.5694 1.30918,-2.618 2.75533,-2.618 z m -6.24551,58.10003 h 79.69268 l 0.40322,6.42228 v 0.2279 100.30067 c 0,0.3 -0.0277,0.31537 0.0146,0.18846 l -0.0482,0.14755 -3.4595,18.71169 -0.006,0.15778 c -0.0474,1.13766 -1.03146,2.04531 -2.45146,2.04531 H 283.4995 c -1.33658,0 -2.50704,-0.93215 -2.79477,-2.30682 -2e-4,-9.5e-4 -10e-4,-0.002 -10e-4,-0.003 l -3.42006,-18.50277 -0.0497,-0.14902 c 0.0423,0.127 0.0161,0.11008 0.0161,-0.18992 v -100.40001 -0.2279 z" />
        </g>
        <g
           id="g13094">
          <path
             id="path13092"
             style="color:#000000;fill:#000000;stroke-miterlimit:10;-inkscape-stroke:none"
             d="m 276.86116,382.09904 -3.52378,2.80208 11.9943,15.09148 c -0.30641,0.78014 -0.48211,1.62384 -0.48211,2.50697 v 79.60064 c 0,1.7203 0.65047,3.31691 1.72098,4.5479 l -8.90587,18.89284 4.07017,1.91822 8.73933,-18.5393 c 0.42916,0.0839 0.87191,0.13148 1.32653,0.13148 h 51.69966 c 0.57533,0 1.13227,-0.0787 1.66839,-0.21329 l 8.48366,18.59481 4.09355,-1.86708 -8.76855,-19.22009 c 0.91722,-1.17851 1.47117,-2.6514 1.47117,-4.24549 v -79.60064 c 0,-0.35634 -0.0363,-0.7035 -0.0891,-1.04603 l 11.68312,-16.66199 -3.68449,-2.58294 -10.46616,14.92494 c -1.20054,-0.98629 -2.73183,-1.5822 -4.39157,-1.5822 h -51.69966 c -1.26879,0 -2.45986,0.35242 -3.48872,0.95692 z m 14.93955,17.952 h 51.69966 c 1.38846,0 2.44853,1.06007 2.44853,2.44853 v 79.60064 c 0,1.38846 -1.06007,2.44999 -2.44853,2.44999 h -51.69966 c -1.33077,0 -2.45145,-1.20999 -2.45145,-2.44999 v -79.60064 c 0,-1.38846 1.06299,-2.44853 2.45145,-2.44853 z" />
        </g>
        <g
           id="g13098">
          <path
             style="color:#000000;stroke-width:4.5;stroke-miterlimit:10;-inkscape-stroke:none"
             d="m 279.70001,506.5 9.9,-21"
             id="path13096" />
        </g>
        <g
           id="g13102">
          <path
             style="color:#000000;stroke-width:4.5;stroke-miterlimit:10;-inkscape-stroke:none"
             d="m 275.10001,383.5 12,15.10001"
             id="path13100" />
        </g>
        <g
           id="g13106">
          <path
             style="color:#000000;stroke-width:4.5;stroke-miterlimit:10;-inkscape-stroke:none"
             d="M 360.20001,383.5 348,400.89999"
             id="path13104" />
        </g>
        <g
           id="g13110">
          <path
             style="color:#000000;stroke-width:4.5;stroke-miterlimit:10;-inkscape-stroke:none"
             d="m 355.70001,506.5 -9.40002,-20.60001"
             id="path13108" />
        </g>
        <g
           id="g13114">
          <path
             style="color:#000000;stroke-width:4.5;stroke-miterlimit:10;-inkscape-stroke:none"
             d="M 360.20001,374.70001 H 277.39999"
             id="path13112" />
        </g>
      </g>
    </g>
    <g
       id="g3025">
      <g
         id="g3017"
         transform="translate(-140)" />
    </g>
    <g
       id="g3045">
      <path
         id="path3013"
         style="stroke-width:2.66942"
         d="M 355.48047 362.36413 C 354.9223 392.7947 350.31107 423.18905 342.20703 451.42273 C 334.10277 479.66243 322.50866 505.74281 305.56055 529.7489 C 288.61505 553.74416 266.33538 575.67845 246.14648 593.10437 C 225.96846 610.54096 207.88242 623.4762 186.47656 640.22156 C 174.99516 649.20873 162.55391 659.37749 150 670.56921 L 150 702.55945 C 150.41118 702.16498 150.75676 701.77676 151.17188 701.38171 C 173.19992 680.41599 200.81252 658.5879 218.87109 644.58679 C 236.92966 630.59374 245.42565 624.4266 259.70703 612.22741 C 273.98842 600.02823 294.06142 581.78642 309.9043 562.99109 C 325.75827 544.20361 337.37876 524.85277 347.16211 503.8739 C 356.93479 482.89497 364.86742 460.28904 370.28906 436.43249 C 375.70526 412.58132 378.62282 387.47796 378.87109 362.36413 L 355.48047 362.36413 z "
         transform="translate(-140)" />
      <path
         id="path3015"
         style="fill:#808080;fill-opacity:1;stroke-width:2.66942"
         d="M 185 362.36218 C 165.61002 362.36218 150 377.9722 150 397.36218 L 150 670.56921 C 162.55367 659.37754 174.99327 649.20868 186.47461 640.22156 C 207.88088 623.4762 225.97023 610.54094 246.14844 593.10437 C 266.3371 575.67846 288.61528 553.74435 305.56055 529.7489 C 322.50864 505.74287 334.10256 479.66246 342.20703 451.42273 C 350.31128 423.18833 354.92447 392.7935 355.48242 362.36218 L 185 362.36218 z "
         transform="translate(-140)" />
      <g
         id="g3035"
         transform="matrix(-1,0,0,1,700,0)">
        <g
           id="g3031"
           transform="translate(-140)">
          <path
             id="path3027"
             style="stroke-width:2.66942"
             d="M 378.87109 362.36413 C 378.62282 387.47796 375.70526 412.58132 370.28906 436.43249 C 364.86742 460.28904 356.93479 482.89497 347.16211 503.8739 C 337.37876 524.85277 325.75827 544.20361 309.9043 562.99109 C 294.06142 581.78642 273.98842 600.02823 259.70703 612.22741 C 245.42565 624.4266 236.92966 630.59374 218.87109 644.58679 C 200.81252 658.5879 173.19992 680.41599 151.17188 701.38171 C 150.75676 701.77676 150.41118 702.16498 150 702.55945 L 150 670.56921 C 162.55391 659.37749 174.99516 649.20873 186.47656 640.22156 C 207.88242 623.4762 225.96846 610.54096 246.14648 593.10437 C 266.33538 575.67845 288.61505 553.74416 305.56055 529.7489 C 322.50866 505.74281 334.10277 479.66243 342.20703 451.42273 C 350.31107 423.18905 354.9223 392.7947 355.48047 362.36413 L 378.87109 362.36413 z " />
          <path
             id="path3029"
             style="fill:#808080;fill-opacity:1;stroke-width:2.66942"
             d="M 355.48242 362.36218 C 354.92447 392.7935 350.31128 423.18833 342.20703 451.42273 C 334.10256 479.66246 322.50864 505.74287 305.56055 529.7489 C 288.61528 553.74435 266.3371 575.67846 246.14844 593.10437 C 225.97023 610.54094 207.88088 623.4762 186.47461 640.22156 C 174.99327 649.20868 162.55367 659.37754 150 670.56921 L 150 397.36218 C 150 377.9722 165.61002 362.36218 185 362.36218 L 355.48242 362.36218 z " />
        </g>
      </g>
    </g>
    <g
       id="g3161"
       transform="matrix(-0.96592583,-0.25881905,-0.25881905,0.96592583,1011.1873,202.4707)">
      <polygon
         fill-rule="evenodd"
         clip-rule="evenodd"
         fill="#2c2825"
         points="299.929,345.745 299.929,345.789 299.929,345.879 299.929,345.926 299.979,345.973 299.979,346.013 300.014,346.104 300.064,346.198 300.102,346.198 300.102,346.289 300.194,346.336 300.236,346.376 300.329,346.423 300.368,346.47 300.46,346.47 300.499,346.47 300.549,346.47 300.588,346.47 309.954,347.325 309.518,348.59 309.07,349.811 308.546,351.072 307.975,352.341 307.397,353.559 306.777,354.823 306.108,356.045 305.403,357.31 304.654,358.531 303.909,359.749 303.154,360.923 302.354,362.144 300.723,364.488 299.003,366.797 297.231,369.012 295.465,371.175 293.699,373.255 291.97,375.246 290.247,377.093 288.577,378.859 286.979,380.482 285.518,382.018 275.667,391.865 291.931,405.277 293.303,404.064 295.245,402.255 297.454,400.131 299.836,397.826 302.223,395.525 304.435,393.358 306.249,391.503 307.579,390.148 308.454,389.202 309.472,388.066 310.62,386.759 311.9,385.269 313.269,383.645 314.683,381.834 316.193,379.892 317.686,377.814 319.234,375.603 320.737,373.298 322.237,370.861 323.698,368.33 324.41,367.023 325.112,365.711 325.778,364.358 326.437,363.003 327.055,361.6 327.678,360.202 328.253,358.795 328.781,357.357 336.694,362.369 336.732,362.369 336.732,362.416 336.782,362.416 336.818,362.456 336.868,362.456 336.96,362.503 337.038,362.503 337.136,362.503 337.217,362.503 337.31,362.503 337.395,362.456 337.445,362.456 337.534,362.369 337.615,362.321 337.665,362.274 337.704,362.187 337.754,362.096 337.754,362.05 337.789,361.963 337.789,361.916 337.789,361.825 337.789,361.731 337.789,361.644 337.754,361.6 337.754,361.553 331.606,324.736 331.568,324.697 331.568,324.65 331.518,324.602 331.479,324.512 331.436,324.472 331.386,324.377 331.298,324.331 331.256,324.288 331.167,324.244 331.032,324.201 330.94,324.201 330.862,324.244 330.721,324.244 330.684,324.244 330.596,324.331 330.547,324.331 330.511,324.331 300.329,345.158 300.279,345.201 300.236,345.201 300.236,345.245 300.194,345.296 300.151,345.343 300.102,345.383 300.064,345.43 300.014,345.521 299.979,345.568 299.929,345.608 299.929,345.655 299.929,345.701 "
         id="polygon3129"
         transform="matrix(1.8955875,0,0,1.8955875,-147.44529,161.77682)"
         style="fill:#000000" />
      <g
         id="g3159"
         transform="matrix(1.3363677,1.3363677,-1.3363638,1.3363638,373.51931,83.20706)"
         style="fill:#aa0000"
         inkscape:transform-center-x="-101.08298"
         inkscape:transform-center-y="246.08225">
        <g
           id="g3133">
          <path
             id="path3131"
             style="color:#000000;fill:#000000;stroke-miterlimit:10;-inkscape-stroke:none"
             d="m 283.89996,314.34953 c -3.75384,0 -6.95958,2.95254 -7.24333,6.78313 l -0.003,0.0131 -3.90362,62.08254 v 0.37107 100.40001 c 0,0.3 -0.0276,0.88451 0.21475,1.61142 l -0.0774,-0.30242 3.40545,18.42534 0.004,0.0263 c 0.71329,3.42377 3.73993,5.8905 7.20242,5.8905 h 68.30175 c 3.58,0 6.79416,-2.69567 6.94676,-6.358 l -0.0351,0.31703 3.3996,-18.40051 -0.0774,0.30241 c 0.2423,-0.72691 0.21476,-1.31141 0.21476,-1.61141 V 383.59937 383.2283 l -3.90363,-62.07086 10e-4,0.0555 c -0.14692,-3.81992 -3.38105,-6.86348 -7.24771,-6.86348 z m 0,4.49968 h 67.2002 c 1.53333,0 2.69787,1.15758 2.75095,2.53765 l 0.003,0.0278 3.20968,51.03493 h -79.1273 l 3.20822,-50.98234 c 0.11625,-1.5694 1.30918,-2.618 2.75533,-2.618 z m -6.24551,58.10003 h 79.69268 l 0.40322,6.42228 v 0.2279 100.30067 c 0,0.3 -0.0277,0.31537 0.0146,0.18846 l -0.0482,0.14755 -3.4595,18.71169 -0.006,0.15778 c -0.0474,1.13766 -1.03146,2.04531 -2.45146,2.04531 H 283.4995 c -1.33658,0 -2.50704,-0.93215 -2.79477,-2.30682 -2e-4,-9.5e-4 -10e-4,-0.002 -10e-4,-0.003 l -3.42006,-18.50277 -0.0497,-0.14902 c 0.0423,0.127 0.0161,0.11008 0.0161,-0.18992 v -100.40001 -0.2279 z" />
        </g>
        <g
           id="g3137">
          <path
             id="path3135"
             style="color:#000000;fill:#000000;stroke-miterlimit:10;-inkscape-stroke:none"
             d="m 276.86116,382.09904 -3.52378,2.80208 11.9943,15.09148 c -0.30641,0.78014 -0.48211,1.62384 -0.48211,2.50697 v 79.60064 c 0,1.7203 0.65047,3.31691 1.72098,4.5479 l -8.90587,18.89284 4.07017,1.91822 8.73933,-18.5393 c 0.42916,0.0839 0.87191,0.13148 1.32653,0.13148 h 51.69966 c 0.57533,0 1.13227,-0.0787 1.66839,-0.21329 l 8.48366,18.59481 4.09355,-1.86708 -8.76855,-19.22009 c 0.91722,-1.17851 1.47117,-2.6514 1.47117,-4.24549 v -79.60064 c 0,-0.35634 -0.0363,-0.7035 -0.0891,-1.04603 l 11.68312,-16.66199 -3.68449,-2.58294 -10.46616,14.92494 c -1.20054,-0.98629 -2.73183,-1.5822 -4.39157,-1.5822 h -51.69966 c -1.26879,0 -2.45986,0.35242 -3.48872,0.95692 z m 14.93955,17.952 h 51.69966 c 1.38846,0 2.44853,1.06007 2.44853,2.44853 v 79.60064 c 0,1.38846 -1.06007,2.44999 -2.44853,2.44999 h -51.69966 c -1.33077,0 -2.45145,-1.20999 -2.45145,-2.44999 v -79.60064 c 0,-1.38846 1.06299,-2.44853 2.45145,-2.44853 z" />
        </g>
        <g
           id="g3141">
          <path
             style="color:#000000;stroke-width:4.5;stroke-miterlimit:10;-inkscape-stroke:none"
             d="m 279.70001,506.5 9.9,-21"
             id="path3139" />
        </g>
        <g
           id="g3145">
          <path
             style="color:#000000;stroke-width:4.5;stroke-miterlimit:10;-inkscape-stroke:none"
             d="m 275.10001,383.5 12,15.10001"
             id="path3143" />
        </g>
        <g
           id="g3149">
          <path
             style="color:#000000;stroke-width:4.5;stroke-miterlimit:10;-inkscape-stroke:none"
             d="M 360.20001,383.5 348,400.89999"
             id="path3147" />
        </g>
        <g
           id="g3153">
          <path
             style="color:#000000;stroke-width:4.5;stroke-miterlimit:10;-inkscape-stroke:none"
             d="m 355.70001,506.5 -9.40002,-20.60001"
             id="path3151" />
        </g>
        <g
           id="g3157">
          <path
             style="color:#000000;stroke-width:4.5;stroke-miterlimit:10;-inkscape-stroke:none"
             d="M 360.20001,374.70001 H 277.39999"
             id="path3155" />
        </g>
      </g>
    </g>
    <rect
       style="fill:#000000;fill-opacity:1;fill-rule:evenodd;stroke-width:30.3797;stroke-linecap:round;paint-order:stroke fill markers"
       id="rect2550"
       width="28.38813"
       height="170.21013"
       x="-344.51761"
       y="1134.839"
       transform="scale(-1,1)" />
  </g>
</svg>
