<svg width="72" height="64" viewBox="0 0 72 64" fill="none" xmlns="http://www.w3.org/2000/svg">
<path d="M6.86851 63.9991C4.4217 63.9991 2.14084 62.6822 0.917442 60.5628C-0.305961 58.4435 -0.305961 55.8105 0.918324 53.6912L29.9331 3.43544C31.1565 1.31611 33.4365 0 35.8842 0C38.3318 0 40.6118 1.31609 41.8352 3.4363L70.8509 53.692C72.0743 55.8105 72.0743 58.4435 70.8509 60.5628C69.6275 62.6822 67.3475 63.9991 64.8998 63.9991H6.86851Z" fill="#EA3B0C"/>
<path d="M34.2863 5.94848C34.9968 4.71802 36.7728 4.71802 37.4834 5.94848L51.9912 31.0768L66.499 56.2051C67.2096 57.4355 66.3216 58.9741 64.9005 58.9741H35.8848H6.86917C5.44804 58.9741 4.56006 57.4355 5.27062 56.2051L19.7784 31.0768L34.2863 5.94848Z" fill="#E8E8E8"/>
<path d="M35.6737 0.00708008C33.3064 0.080343 31.1209 1.37702 29.9328 3.43632L0.917993 53.692C-0.305409 55.8114 -0.306292 58.4444 0.917111 60.5637C2.14051 62.683 4.42049 64 6.86818 64H35.6746L35.6737 0.00708008Z" fill="#F4511E"/>
<path d="M35.6737 5.03918C35.1246 5.10097 34.6003 5.40286 34.2843 5.94924L5.26867 56.205C4.55811 57.4354 5.44609 58.974 6.86722 58.974H35.6728L35.6737 5.03918Z" fill="#F5F5F5"/>
</svg>
