<?xml version="1.0" encoding="UTF-8" standalone="no"?>
<svg
   width="1500"
   height="2000"
   version="1.1"
   id="svg285"
   sodipodi:docname="AM_road_sign_6.9.1_c.svg"
   inkscape:version="1.2.2 (732a01da63, 2022-12-09)"
   xmlns:inkscape="http://www.inkscape.org/namespaces/inkscape"
   xmlns:sodipodi="http://sodipodi.sourceforge.net/DTD/sodipodi-0.dtd"
   xmlns="http://www.w3.org/2000/svg"
   xmlns:svg="http://www.w3.org/2000/svg"
   xmlns:rdf="http://www.w3.org/1999/02/22-rdf-syntax-ns#"
   xmlns:cc="http://creativecommons.org/ns#"
   xmlns:dc="http://purl.org/dc/elements/1.1/">
  <sodipodi:namedview
     id="namedview287"
     pagecolor="#ffffff"
     bordercolor="#000000"
     borderopacity="0.25"
     inkscape:showpageshadow="2"
     inkscape:pageopacity="0.0"
     inkscape:pagecheckerboard="0"
     inkscape:deskcolor="#d1d1d1"
     showgrid="false"
     inkscape:zoom="0.20025"
     inkscape:cx="1970.0375"
     inkscape:cy="401.9975"
     inkscape:window-width="1920"
     inkscape:window-height="991"
     inkscape:window-x="-9"
     inkscape:window-y="-9"
     inkscape:window-maximized="1"
     inkscape:current-layer="svg285" />
  <title
     id="title249">5.20.1 Yoʻnalishlarning dastlabki koʻrsatkichi</title>
  <defs
     id="defs253">
    <style
       id="style251">.a{fill:#fff}</style>
  </defs>
  <path
     id="rect255"
     class="a"
     style="fill:#ffffff"
     d="m 45,1 h 1410 c 24.376,0 44,19.624 44,44 v 1910 c 0,24.376 -19.624,44 -44,44 H 45 C 20.624,1999 1,1979.376 1,1955 V 45 C 1,20.624 20.624,1 45,1 Z" />
  <path
     d="M1455 2a43.049 43.049 0 0 1 43 43v1910a43.049 43.049 0 0 1-43 43H45a43.049 43.049 0 0 1-43-43V45A43.049 43.049 0 0 1 45 2h1410m0-2H45A45 45 0 0 0 0 45v1910a45 45 0 0 0 45 45h1410a45 45 0 0 0 45-45V45a45 45 0 0 0-45-45z"
     id="path257" />
  <path
     id="rect259"
     style="fill:#0d69e1"
     d="m 45,18 h 1410 c 14.958,0 27,12.042 27,27 v 1910 c 0,14.958 -12.042,27 -27,27 H 45 c -14.958,0 -27,-12.042 -27,-27 V 45 C 18,30.042 30.042,18 45,18 Z" />
  <path
     class="a"
     d="m 1158,364 -90,155.88 h 60 V 673.55 L 795.11,835.93 C 751.83187,795.91716 682.41477,807.60805 654.62938,859.58848 626.844,911.56891 655.68702,975.78332 713,989.54 v 385.92 c -61.13447,14.6698 -88.77912,85.8994 -53.54817,137.9699 16.54896,24.4589 44.04262,39.2447 73.5723,39.566 29.52969,0.3213 57.33873,-13.8627 74.41587,-37.9559 L 1128,1671.39 V 1984 h 60 V 519.88 h 60 z M 674,902 c 0,-24.26771 14.61861,-46.14603 37.03865,-55.43236 22.41999,-9.2863 48.22581,-4.15168 65.3856,13.00811 17.15979,17.15979 22.29441,42.96561 13.00811,65.3856 C 780.14603,947.38139 758.26771,962 734,962 c -33.12041,-0.0402 -59.95978,-26.87959 -60,-60 z m 105.89,599.6 c -18.66725,22.1618 -50.5117,27.8057 -75.6542,13.4107 -25.14213,-14.3949 -36.38683,-44.7088 -26.72794,-72.0265 9.65889,-27.3177 37.45889,-43.8263 66.06143,-39.2184 28.60296,4.6081 49.82245,29.0141 50.41071,57.9842 0.02,0.42 0.02,0.83 0.02,1.25 0.0128,14.131 -4.98693,27.8085 -14.11,38.6 z M 1128,1624.66 823.07,1475.94 c 6.66853,-46.0475 -22.83313,-89.5957 -68.07,-100.48 V 989.54 c 52.25112,-12.5834 81.93381,-67.82241 63.59,-118.34 L 1128,720.28 Z"
     id="path261"
     sodipodi:nodetypes="cccccsccssccccccccssscccssscccccccccc" />
  <path
     id="circle263"
     class="a"
     style="fill:#ffffff"
     d="M 1383,1179 A 225,225 0 0 1 1158,1404 225,225 0 0 1 933,1179 225,225 0 0 1 1158,954.00001 225,225 0 0 1 1383,1179 Z" />
  <path
     style="fill:#ff0000"
     d="m 1158,954.00001 c -124.264,0 -225,100.73599 -225,224.99999 0,124.264 100.736,225 225,225 124.264,0 225,-100.736 225,-225 0,-124.264 -100.736,-224.99999 -225,-224.99999 z m 0,38.041 c 103.254,0 186.958,83.70499 186.958,186.95899 0,103.254 -83.704,186.959 -186.958,186.959 -103.254,0 -186.958,-83.705 -186.958,-186.959 0,-103.254 83.703,-186.95799 186.958,-186.95799 z"
     id="path265" />
  <path
     d="m 1112.95,1006.308 45.05,45.05 45.05,-45.05 z m 0,345.384 45.05,-45.05 45.05,45.05 z m -58.243,-284.825 8.433,18.918 c 3.7758,-3.4613 8.086,-6.2897 12.764,-8.376 4.1407,-1.738 9.3073,-2.5927 15.5,-2.564 4.0366,0.055 7.9231,1.5385 10.969,4.188 3.0644,2.5021 4.8851,6.2162 4.986,10.171 -0.2,4.9867 -2.992,9.7733 -8.376,14.36 -5.3853,4.5873 -12.1663,7.7783 -20.343,9.573 v 17.551 c 1.678,-0.78 3.4822,-1.2528 5.327,-1.396 1.9423,-0.1666 3.8919,-0.2334 5.841,-0.2 10.0147,0.4373 16.3683,2.8687 19.061,7.294 2.6927,4.426 3.8607,8.225 3.504,11.397 -0.342,7.3653 -3.134,12.7503 -8.376,16.155 -5.2427,3.4047 -11.5677,5.0857 -18.975,5.043 -5.7345,0.01 -11.4573,-0.5177 -17.095,-1.567 -5.3231,-0.8435 -10.4321,-2.7113 -15.044,-5.5 l 2.735,22.338 c 0.56,0.228 4.397,1.1397 11.511,2.735 6.9266,1.5713 13.9857,2.4871 21.084,2.735 15.2187,-0.5313 26.8337,-5.052 34.845,-13.562 8.0107,-8.5093 12.047,-17.8163 12.109,-27.921 -0.2353,-6.8947 -2.3233,-12.607 -6.264,-17.137 -3.6526,-4.3032 -8.1234,-7.8382 -13.153,-10.4 -4.8267,-2.4033 -8.6873,-3.8613 -11.582,-4.374 6.648,-0.9307 12.498,-4.2547 17.55,-9.972 5.0533,-5.7167 7.7127,-13.0293 7.978,-21.938 -0.4267,-8.8847 -4.1303,-15.903 -11.111,-21.055 -6.6469,-5.0382 -14.7379,-7.805 -23.078,-7.892 -7.5393,0.3054 -15.0038,1.618 -22.195,3.903 -8.0113,2.4267 -14.213,4.9243 -18.605,7.493 z m 108.649,92.996 c -7.31,0 -13.3706,5.6629 -13.8696,12.9558 -0.499,7.2929 4.734,13.727 11.9756,14.7242 l -12.465,19.73 h 10.485 c 1.5973,-2.324 4.4417,-6.8503 8.533,-13.579 4.0913,-6.7287 6.6793,-11.2887 7.764,-13.68 0.3867,-0.9813 0.7263,-1.9877 1.019,-3.019 0.2956,-1.0509 0.451,-2.1363 0.462,-3.228 0,-7.679 -6.225,-13.904 -13.904,-13.904 z m 96.416,-80.232 6.382,-20.742 h -73.394 v 62.226 l 14.36,7.977 c 1.5953,-1.0967 3.9887,-2.8913 7.18,-5.384 3.464,-2.5917 7.6419,-4.0542 11.966,-4.189 7.2133,0.3 12.731,2.8927 16.553,7.778 3.7099,4.5701 5.7502,10.2688 5.784,16.155 -0.3987,7.978 -3.5897,13.9613 -9.573,17.95 -5.6325,3.8797 -12.3066,5.9653 -19.146,5.983 -5.4199,0.058 -10.8346,-0.3521 -16.184,-1.225 -5.015,-0.7283 -9.8257,-2.4839 -14.131,-5.157 l 3.19,20.742 c 3.2022,1.2264 6.4639,2.2911 9.773,3.19 6.6813,1.9459 13.5863,3.0188 20.543,3.192 15.3233,-0.3327 27.356,-4.8533 36.098,-13.562 8.742,-8.7093 13.1963,-19.612 13.363,-32.708 -0.4987,-12.8307 -4.687,-22.67 -12.565,-29.518 -7.878,-6.8467 -16.454,-10.3033 -25.728,-10.37 -3.8298,-0.056 -7.6451,0.482 -11.31,1.595 -3.7316,1.0937 -7.0289,3.3248 -9.432,6.382 v -30.315 z"
     id="path267"
     sodipodi:nodetypes="ccccccccccccccccccccccccccccscccccccccccscccscccccccccccccccccccccccccccc" />
  <metadata
     id="metadata7240">
    <rdf:RDF>
      <cc:Work
         rdf:about="">
        <dc:title>5.20.1 Yoʻnalishlarning dastlabki koʻrsatkichi</dc:title>
      </cc:Work>
    </rdf:RDF>
  </metadata>
  <g
     aria-label="PUNGON"
     id="text4407"
     style="font-size:178.571px;line-height:1.5;font-family:'Russian Road Sign';-inkscape-font-specification:'Russian Road Sign';fill:#ffffff;fill-rule:evenodd;stroke-width:33.3333;stroke-linecap:round;paint-order:stroke fill markers">
    <path
       d="m 837.69869,158.81259 v 99.99976 h 17.49996 v -34.99992 h 16.24996 c 23.74994,0 32.49992,-18.74995 32.49992,-32.49992 0,-13.74997 -8.74998,-32.49992 -32.49992,-32.49992 z m 17.49996,14.99996 h 11.24997 c 9.99998,0 19.99995,4.99999 19.99995,17.49996 0,12.49997 -9.99997,17.49996 -19.99995,17.49996 h -11.24997 z"
       id="path4936" />
    <path
       d="m 937.69836,158.81259 v 67.49984 c 0,1.24999 1.24999,33.74991 36.24991,33.74991 34.99993,0 36.24993,-32.49992 36.24993,-33.74991 v -67.49984 h -17.49998 v 68.74983 c 0,13.74997 -11.24997,18.74996 -18.74995,18.74996 -7.49998,0 -18.74996,-4.99999 -18.74996,-18.74996 v -68.74983 z"
       id="path4938" />
    <path
       d="m 1041.448,258.81235 h 17.5 v -72.49983 l 37.4999,72.49983 h 19.9999 v -99.99976 h -17.4999 v 71.24983 l -37.5,-71.24983 h -19.9999 z"
       id="path4940" />
    <path
       d="m 1186.4475,156.31259 c -27.4999,0 -42.3213,23.57138 -42.3213,52.49988 0,28.9285 14.8214,52.49987 42.3213,52.49987 9.6429,0 15.7143,-5.17856 20,-11.24997 l 3.75,8.74998 h 14.9999 v -49.99988 h -36.2499 v 14.99996 h 17.5 c 0,8.74998 -1.25,11.24997 -6.25,16.24996 -3.75,3.74999 -7.5,4.99999 -13.75,4.99999 -13.7499,0 -23.7499,-13.74997 -23.7499,-36.24991 0,-22.49995 10,-36.24992 23.7499,-36.24992 9.2857,0 15.7143,4.99999 19.4643,17.49996 l 16.7856,-6.24998 c -6.2499,-16.24996 -17.3213,-27.49994 -36.2499,-27.49994 z"
       id="path4942" />
    <path
       d="m 1288.9472,156.31259 c -27.5,0 -40.7142,23.57138 -40.7142,52.49988 0,28.9285 13.2142,52.49987 40.7142,52.49987 27.4999,0 40.7142,-23.57137 40.7142,-52.49987 0,-28.9285 -13.2143,-52.49988 -40.7142,-52.49988 z m 0,16.24996 c 13.7499,0 23.7499,13.74997 23.7499,36.24992 0,22.49994 -10,36.24991 -23.7499,36.24991 -13.75,0 -23.75,-13.74997 -23.75,-36.24991 0,-22.49995 10,-36.24992 23.75,-36.24992 z"
       id="path4944" />
    <path
       d="m 1356.4469,258.81235 h 17.4999 v -72.49983 l 37.4999,72.49983 h 20 v -99.99976 h -17.5 v 71.24983 l -37.4999,-71.24983 h -19.9999 z"
       id="path4946" />
  </g>
  <g
     aria-label="GURUMSAROY"
     id="text4411"
     style="font-size:178.571px;line-height:1.5;font-family:'Russian Road Sign';-inkscape-font-specification:'Russian Road Sign';letter-spacing:-11px;fill:#ffffff;fill-rule:evenodd;stroke-width:33.3333;stroke-linecap:round;paint-order:stroke fill markers">
    <path
       d="m 91.41868,614.10858 c -27.499934,0 -42.321327,23.57138 -42.321327,52.49988 0,28.9285 14.821393,52.49987 42.321327,52.49987 9.64283,0 15.71425,-5.17856 19.99995,-11.24997 l 3.74999,8.74998 h 14.99997 V 666.60846 H 93.918674 v 14.99996 h 17.499956 c 0,8.74998 -1.25,11.24997 -6.24998,16.24996 -3.74999,3.74999 -7.499985,4.99999 -13.74997,4.99999 -13.749967,0 -23.749943,-13.74997 -23.749943,-36.24991 0,-22.49995 9.999976,-36.24992 23.749943,-36.24992 9.28569,0 15.71425,4.99999 19.46424,17.49996 l 16.78567,-6.24998 c -6.24998,-16.24996 -17.32138,-27.49994 -36.24991,-27.49994 z"
       id="path4949" />
    <path
       d="m 146.66841,616.60858 v 67.49984 c 0,1.24999 1.24999,33.74991 36.24991,33.74991 34.99992,0 36.24991,-32.49992 36.24991,-33.74991 v -67.49984 h -17.49996 v 68.74983 c 0,13.74997 -11.24997,18.74996 -18.74995,18.74996 -7.49998,0 -18.74996,-4.99999 -18.74996,-18.74996 v -68.74983 z"
       id="path4951" />
    <path
       d="m 241.91804,616.60858 v 99.99976 H 259.418 v -39.99991 h 9.99997 c 11.24997,0 13.74997,6.96427 18.21424,15.35711 4.64285,8.92855 7.85713,19.46424 11.78569,24.6428 h 21.24995 c -11.24998,-4.99999 -16.24996,-42.4999 -32.49992,-46.24989 9.99997,-3.74999 18.74995,-12.49997 18.74995,-26.24994 0,-9.99997 -6.24998,-27.49993 -31.24992,-27.49993 z m 17.49996,14.99996 h 11.24997 c 9.99997,0 18.74995,4.28571 18.74995,14.99997 0,10.71426 -8.74998,14.99996 -18.74995,14.99996 H 259.418 Z"
       id="path4953" />
    <path
       d="m 339.66764,616.60858 v 67.49984 c 0,1.24999 1.25,33.74991 36.24992,33.74991 34.99991,0 36.24991,-32.49992 36.24991,-33.74991 v -67.49984 h -17.49996 v 68.74983 c 0,13.74997 -11.24997,18.74996 -18.74995,18.74996 -7.49999,0 -18.74996,-4.99999 -18.74996,-18.74996 v -68.74983 z"
       id="path4955" />
    <path
       d="m 432.41728,716.60834 h 17.49996 v -72.49983 l 29.99993,52.49988 29.99992,-52.49988 1.25,72.49983 h 16.24996 V 616.60858 H 507.4171 l -27.49993,46.24989 -27.49994,-46.24989 h -19.99995 z"
       id="path4957" />
    <path
       d="m 547.13138,701.60837 c 0,0 16.78568,17.49996 39.28562,17.49996 24.99994,0 38.39277,-18.74995 38.39277,-31.24992 0,-14.99997 -10.89284,-24.99994 -28.39279,-28.74993 -13.74997,-2.85714 -26.24994,-4.46428 -26.24994,-14.10711 0,-4.82142 3.74999,-14.64283 18.74996,-14.64283 13.03568,0 22.1428,9.99998 22.1428,9.99998 l 11.60711,-12.49997 c 0,0 -16.24996,-13.74997 -33.74991,-13.74997 -21.24995,0 -36.24992,13.74997 -36.24992,31.24993 0,7.67855 3.39285,23.92851 31.24993,28.03565 22.32137,3.21427 22.49994,11.60711 22.49994,15.53567 v 0.17857 c 0,3.74999 -4.2857,13.74997 -19.64281,13.74997 -17.49995,0 -27.32136,-11.78569 -27.32136,-11.78569 z"
       id="path4959" />
    <path
       d="m 667.5597,681.60842 12.49997,-42.4999 12.49997,42.4999 z m 2.49999,-64.99984 -32.49992,99.99976 h 18.74996 l 6.24998,-19.99995 h 34.99992 l 6.24998,19.99995 h 18.74996 l -32.49992,-99.99976 z"
       id="path4961" />
    <path
       d="m 741.55939,616.60858 v 99.99976 h 17.49996 v -39.99991 h 9.99998 c 11.24997,0 13.74997,6.96427 18.21424,15.35711 4.64285,8.92855 7.85712,19.46424 11.78569,24.6428 h 21.24995 c -11.24998,-4.99999 -16.24997,-42.4999 -32.49993,-46.24989 9.99998,-3.74999 18.74996,-12.49997 18.74996,-26.24994 0,-9.99997 -6.24999,-27.49993 -31.24993,-27.49993 z m 17.49996,14.99996 h 11.24998 c 9.99997,0 18.74995,4.28571 18.74995,14.99997 0,10.71426 -8.74998,14.99996 -18.74995,14.99996 h -11.24998 z"
       id="path4963" />
    <path
       d="m 875.55888,614.10858 c -27.49993,0 -40.71418,23.57138 -40.71418,52.49988 0,28.9285 13.21425,52.49987 40.71418,52.49987 27.49994,0 40.71419,-23.57137 40.71419,-52.49987 0,-28.9285 -13.21425,-52.49988 -40.71419,-52.49988 z m 0,16.24996 c 13.74997,0 23.74995,13.74997 23.74995,36.24992 0,22.49994 -9.99998,36.24991 -23.74995,36.24991 -13.74996,0 -23.74994,-13.74997 -23.74994,-36.24991 0,-22.49995 9.99998,-36.24992 23.74994,-36.24992 z"
       id="path4965" />
    <path
       d="m 960.80854,716.60834 h 17.49996 v -39.99991 l 31.2499,-59.99985 h -19.99993 l -19.99995,41.2499 -19.99995,-41.2499 h -19.99996 l 31.24993,59.99985 z"
       id="path4967" />
  </g>
  <g
     aria-label="POP"
     id="text4415"
     style="font-size:178.571px;line-height:1.5;font-family:'Russian Road Sign';-inkscape-font-specification:'Russian Road Sign';fill:#ffffff;fill-rule:evenodd;stroke-width:33.3333;stroke-linecap:round;paint-order:stroke fill markers">
    <path
       d="m 257.70333,1528.1584 v 99.9998 h 17.49996 v -34.9999 h 16.24996 c 23.74994,0 32.49992,-18.75 32.49992,-32.4999 0,-13.75 -8.74998,-32.5 -32.49992,-32.5 z m 17.49996,15 h 11.24997 c 9.99998,0 19.99995,5 19.99995,17.5 0,12.4999 -9.99997,17.4999 -19.99995,17.4999 h -11.24997 z"
       id="path4970" />
    <path
       d="m 393.95291,1525.6584 c -27.49994,0 -40.71419,23.5714 -40.71419,52.4999 0,28.9285 13.21425,52.4999 40.71419,52.4999 27.49993,0 40.71419,-23.5714 40.71419,-52.4999 0,-28.9285 -13.21426,-52.4999 -40.71419,-52.4999 z m 0,16.25 c 13.74996,0 23.74994,13.75 23.74994,36.2499 0,22.5 -9.99998,36.2499 -23.74994,36.2499 -13.74997,0 -23.74995,-13.7499 -23.74995,-36.2499 0,-22.4999 9.99998,-36.2499 23.74995,-36.2499 z"
       id="path4972" />
    <path
       d="m 462.70263,1528.1584 v 99.9998 h 17.49996 v -34.9999 h 16.24996 c 23.74994,0 32.49992,-18.75 32.49992,-32.4999 0,-13.75 -8.74998,-32.5 -32.49992,-32.5 z m 17.49996,15 h 11.24997 c 9.99997,0 19.99995,5 19.99995,17.5 0,12.4999 -9.99998,17.4999 -19.99995,17.4999 h -11.24997 z"
       id="path4974" />
  </g>
  <g
     aria-label="300m"
     id="text4469"
     style="font-size:178.571px;line-height:1.5;font-family:'Russian Road Sign';-inkscape-font-specification:'Russian Road Sign';fill:#ffffff;fill-rule:evenodd;stroke-width:33.3333;stroke-linecap:round;paint-order:stroke fill markers"
     transform="matrix(0.83998315,0,0,0.83998315,442.67356,380.05907)">
    <path
       d="m 319.79462,1726.7522 6.60713,14.8214 c 7.14284,-6.0714 12.14283,-8.5714 22.1428,-8.5714 6.24999,0 12.49997,5 12.49997,11.2499 0,7.5 -9.99997,16.25 -22.49994,18.75 v 13.75 c 2.49999,-1.25 5.71427,-1.25 8.74997,-1.25 16.24996,0 17.67853,10.3571 17.67853,14.6428 -0.17857,11.6071 -10.17854,16.6071 -21.42852,16.6071 -8.21426,0 -19.10709,-1.4286 -25.17851,-5.5357 l 2.14285,17.4999 c 0,0 15.53568,4.2857 25.53566,4.2857 23.74994,0 36.78562,-17.4999 36.78562,-32.4999 0,-16.2499 -18.03567,-23.7499 -24.28565,-24.9999 9.99997,-1.25 19.99995,-11.25 19.99995,-25 0,-13.7499 -14.28568,-22.6785 -26.78565,-22.6785 -9.99998,0 -25.71422,5.1786 -31.96421,8.9286 z"
       id="path4471" />
    <path
       d="m 440.68734,1719.2522 c -19.99995,0 -33.74992,21.2499 -33.74992,51.2499 0,29.9999 13.74997,51.2499 33.74992,51.2499 19.99995,0 33.74992,-21.25 33.74992,-51.2499 0,-28.3928 -13.74997,-51.2499 -33.74992,-51.2499 z m 0,15.5357 c 9.64283,0 16.24996,10.7142 16.24996,35.7142 0,24.9999 -6.60713,35.7142 -16.24996,35.7142 -9.64284,0 -16.24996,-10.7143 -16.24996,-35.7142 0,-25 6.60712,-35.7142 16.24996,-35.7142 z"
       id="path4473" />
    <path
       d="m 530.68707,1719.2522 c -19.99995,0 -33.74992,21.2499 -33.74992,51.2499 0,29.9999 13.74997,51.2499 33.74992,51.2499 19.99995,0 33.74992,-21.25 33.74992,-51.2499 0,-28.3928 -13.74997,-51.2499 -33.74992,-51.2499 z m 0,15.5357 c 9.64284,0 16.24996,10.7142 16.24996,35.7142 0,24.9999 -6.60712,35.7142 -16.24996,35.7142 -9.64283,0 -16.24996,-10.7143 -16.24996,-35.7142 0,-25 6.60713,-35.7142 16.24996,-35.7142 z"
       id="path4475" />
    <path
       d="m 625.6868,1749.2521 c -12.49997,0 -19.64281,9.4643 -19.64281,9.4643 -1.25,-1.7857 -1.96428,-5 -2.49999,-8.2143 h -12.85712 v 69.9999 h 14.99997 v -44.9999 c 3.74999,-7.5 8.92855,-13.75 16.24996,-13.75 7.49998,0 8.74998,6.25 8.74998,10 v 48.7499 h 14.99996 v -44.9999 c 3.74999,-7.5 8.92855,-13.75 16.24996,-13.75 7.49998,0 8.74998,6.25 8.74998,10 v 48.7499 h 14.99997 v -49.9999 c 0,-12.5 -6.24999,-21.25 -19.99996,-21.25 -9.28569,0 -18.74995,5 -21.24995,12.5 -2.49999,-7.5 -9.10712,-12.5 -18.74995,-12.5 z"
       id="path4477" />
  </g>
  <g
     id="g4932"
     transform="matrix(0.77586207,0,0,0.77586207,-201.93802,608.39399)"
     style="fill:#000000">
    <path
       id="text24029"
       style="font-family:'Russian Road Sign';-inkscape-font-specification:'Russian Road Sign';opacity:0.99;fill:#000000;stroke-width:18.347"
       d="m 1737.4003,804.57031 c -15.4115,0 -24.2238,11.68175 -24.2238,11.68175 -1.5411,-2.20165 -2.4212,-6.178 -3.0817,-10.14098 h -15.8386 v 86.32434 h 18.4903 v -55.50697 c 4.6234,-9.24691 11.0046,-16.94956 20.0313,-16.94956 9.2469,0 10.786,7.70337 10.786,12.32683 v 60.12969 h 18.4904 v -55.50697 c 4.6234,-9.24692 11.0045,-16.94956 20.0313,-16.94956 9.2469,0 10.786,7.70337 10.786,12.32683 v 60.12969 h 18.4904 v -61.67048 c 0,-15.41152 -7.7012,-26.19463 -24.6539,-26.19463 -11.4485,0 -23.1123,6.16167 -26.1946,15.40859 -3.0823,-9.24692 -11.2242,-15.40859 -23.1131,-15.40857 z" />
  </g>
</svg>
