<?xml version="1.0" encoding="UTF-8" standalone="no"?>
<svg
   width="700"
   height="700"
   version="1.1"
   id="svg15621"
   sodipodi:docname="RU_road_sign_3.17.1.svg"
   inkscape:version="1.2.2 (732a01da63, 2022-12-09)"
   xmlns:inkscape="http://www.inkscape.org/namespaces/inkscape"
   xmlns:sodipodi="http://sodipodi.sourceforge.net/DTD/sodipodi-0.dtd"
   xmlns="http://www.w3.org/2000/svg"
   xmlns:svg="http://www.w3.org/2000/svg">
  <defs
     id="defs15625" />
  <sodipodi:namedview
     id="namedview15623"
     pagecolor="#ffffff"
     bordercolor="#000000"
     borderopacity="0.25"
     inkscape:showpageshadow="2"
     inkscape:pageopacity="0.0"
     inkscape:pagecheckerboard="0"
     inkscape:deskcolor="#d1d1d1"
     showgrid="false"
     inkscape:zoom="1.1485714"
     inkscape:cx="225.93284"
     inkscape:cy="388.74378"
     inkscape:window-width="1920"
     inkscape:window-height="991"
     inkscape:window-x="-9"
     inkscape:window-y="-9"
     inkscape:window-maximized="1"
     inkscape:current-layer="svg15621" />
  <title
     id="title15583">3.17.1 Таможня</title>
  <circle
     style="fill:#ffffff;"
     cx="350"
     cy="350"
     r="350"
     id="circle15585" />
  <circle
     style="fill:none;stroke:#000000;stroke-width:2;"
     cx="350"
     cy="350"
     r="349"
     id="circle15587" />
  <path
     style="fill:#ff0000;"
     d="m 350 690 a 340 340 0 0 0 340 -340 a 340 340 0 0 0 -340 -340 a 340 340 0 0 0 -340 340 a 340 340 0 0 0 340 340 z m 0 -57.74 a 282.26 282.26 0 0 1 -282.26 -282.26 a 282.26 282.26 0 0 1 282.26 -282.26 a 282.26 282.26 0 0 1 282.26 282.26 a 282.26 282.26 0 0 1 -282.26 282.26 z"
     id="path15589" />
  <rect
     style="fill:#000000;"
     transform="scale(1.12903226)"
     x="97"
     y="285"
     width="426"
     height="50"
     rx="25"
     ry="25"
     id="rect15591" />
  <path
     style="fill:#000000;"
     transform="scale(1.12903226)"
     d="m 169.29 378.75 c -13.75 0 -20.36 11.79 -20.36 26.25 0 14.55 6.61 26.25 20.36 26.25 9.46 0 15 -5.62 18.12 -13.75 l -8.39 -3.12 c -1.87 6.25 -5.18 8.75 -9.73 8.75 -6.87 0 -11.87 -6.87 -11.87 -18.12 0 -11.25 5 -18.12 11.87 -18.12 4.55 0 7.86 2.50 9.73 8.75 l 8.39 -3.12 c -3.12 -8.12 -8.66 -13.75 -18.12 -13.75 z"
     id="path15607" />
  <path
     style="fill:#000000;"
     transform="scale(1.12903226)"
     d="m 195.16 380 v 33.75 c 0 0.62 0.62 16.87 18.12 16.87 17.50 0 18.12 -16.25 18.12 -16.87 v -33.75 h -8.75 v 34.37 c 0 6.87 -5.62 9.37 -9.37 9.37 -3.75 0 -9.37 -2.50 -9.37 -9.37 v -34.37 z"
     id="path15609" />
  <path
     style="fill:#000000;"
     transform="scale(1.12903226)"
     d="m 241.40 422.50 c 0 0 8.39 8.75 19.64 8.75 12.50 0 19.20 -9.37 19.20 -15.62 0 -7.50 -5.45 -12.50 -14.20 -14.37 -6.87 -1.43 -13.12 -2.23 -13.12 -7.05 0 -2.41 1.87 -7.32 9.37 -7.32 6.52 0 11.07 5 11.07 5 l 5.80 -6.25 c 0 0 -8.12 -6.87 -16.87 -6.87 -10.62 0 -18.12 6.87 -18.12 15.62 0 3.84 1.70 11.96 15.62 14.02 11.16 1.61 11.25 5.80 11.25 7.77 v 0.09 c 0 1.87 -2.14 6.87 -9.82 6.87 -8.75 0 -13.66 -5.89 -13.66 -5.89 z"
     id="path15611" />
  <path
     style="fill:#000000;"
     transform="scale(1.12903226)"
     d="m 285.49 380 v 7.50 h 13.75 v 42.50 h 8.75 v -42.50 h 13.75 v -7.50 z"
     id="path15613" />
  <path
     style="fill:#000000;"
     transform="scale(1.12903226)"
     d="m 347.61 378.75 c -13.75 0 -20.36 11.79 -20.36 26.25 0 14.46 6.61 26.25 20.36 26.25 13.75 0 20.36 -11.79 20.36 -26.25 0 -14.46 -6.61 -26.25 -20.36 -26.25 z m 0 8.12 c 6.87 0 11.87 6.87 11.87 18.12 0 11.25 -5 18.12 -11.87 18.12 -6.87 0 -11.87 -6.87 -11.87 -18.12 0 -11.25 5 -18.12 11.87 -18.12 z"
     id="path15615" />
  <path
     style="fill:#000000;"
     transform="scale(1.12903226)"
     d="m 375.36 430 h 8.75 v -36.25 l 15 26.25 15 -26.25 0.62 36.25 h 8.12 v -50 h -10 l -13.75 23.12 -13.75 -23.12 h -10 z"
     id="path15617" />
  <path
     style="fill:#000000;"
     transform="scale(1.12903226)"
     d="m 432.22 422.50 c 0 0 8.39 8.75 19.64 8.75 12.50 0 19.20 -9.37 19.20 -15.62 0 -7.50 -5.45 -12.50 -14.20 -14.37 -6.87 -1.43 -13.12 -2.23 -13.12 -7.05 0 -2.41 1.87 -7.32 9.37 -7.32 6.52 0 11.07 5 11.07 5 l 5.80 -6.25 c 0 0 -8.12 -6.87 -16.87 -6.87 -10.62 0 -18.12 6.87 -18.12 15.62 0 3.84 1.70 11.96 15.62 14.02 11.16 1.61 11.25 5.80 11.25 7.77 v 0.09 c 0 1.87 -2.14 6.87 -9.82 6.87 -8.75 0 -13.66 -5.89 -13.66 -5.89 z"
     id="path15619" />
  <g
     aria-label="BOJXONA"
     style="font-style:normal;font-weight:normal;font-size:11.435px;line-height:1.25;font-family:sans-serif;letter-spacing:0px;word-spacing:0px;fill:#000000;fill-opacity:1;stroke:none;stroke-width:0.285876"
     id="text3789"
     transform="matrix(8.8171929,0,0,8.8171929,-1153.3608,689.35061)">
    <path
       d="m 149.7821,-53.853249 v 6.403622 h 2.49284 c 1.18924,0 2.06974,-0.880498 2.06974,-1.921086 0,-0.720408 -0.48027,-1.200679 -1.12063,-1.440815 0.56031,-0.240136 0.9148,-0.800453 0.9148,-1.280725 0,-0.846192 -0.67467,-1.760996 -1.87535,-1.760996 z m 1.12063,0.960544 h 1.28073 c 0.40022,0 0.80045,0.263006 0.80045,0.823322 0,0.480272 -0.32018,0.823323 -0.80045,0.823323 h -1.28073 z m 0,2.561448 h 1.36077 c 0.64037,0 0.96055,0.503142 0.96055,0.960544 0,0.457401 -0.32018,0.960543 -0.96055,0.960543 h -1.36077 z"
       style="font-style:normal;font-variant:normal;font-weight:normal;font-stretch:normal;font-family:'Russian Road Sign';-inkscape-font-specification:'Russian Road Sign';fill:#000000;fill-opacity:1;stroke-width:0.285876"
       id="path3791"
       inkscape:connector-curvature="0" />
    <path
       d="m 157.98412,-54.013339 c -1.761,0 -2.60719,1.509425 -2.60719,3.361901 0,1.852477 0.84619,3.361902 2.60719,3.361902 1.76099,0 2.60719,-1.509425 2.60719,-3.361902 0,-1.852476 -0.8462,-3.361901 -2.60719,-3.361901 z m 0,1.040588 c 0.8805,0 1.52086,0.880498 1.52086,2.321313 0,1.440815 -0.64036,2.321313 -1.52086,2.321313 -0.8805,0 -1.52086,-0.880498 -1.52086,-2.321313 0,-1.440815 0.64036,-2.321313 1.52086,-2.321313 z"
       style="font-style:normal;font-variant:normal;font-weight:normal;font-stretch:normal;font-family:'Russian Road Sign';-inkscape-font-specification:'Russian Road Sign';fill:#000000;fill-opacity:1;stroke-width:0.285876"
       id="path3793"
       inkscape:connector-curvature="0" />
    <path
       d="m 161.29587,-48.570261 -0.08,1.120634 c 0,0 0.80046,0.160091 1.20068,0.160091 1.12064,0 1.761,-0.834758 1.761,-1.589471 v -4.974242 h -1.12063 v 4.654061 c 0,0.548882 -0.40023,0.789018 -0.72041,0.789018 -0.56032,0 -1.04059,-0.160091 -1.04059,-0.160091 z"
       style="font-style:normal;font-variant:normal;font-weight:normal;font-stretch:normal;font-family:'Russian Road Sign';-inkscape-font-specification:'Russian Road Sign';fill:#000000;fill-opacity:1;stroke-width:0.285876"
       id="path3795"
       inkscape:connector-curvature="0" />
    <path
       d="m 167.37449,-53.853249 h -1.42938 l 1.8296,3.041721 -1.98969,3.361901 h 1.34933 l 1.28072,-2.321313 1.28073,2.321313 h 1.34933 l -1.98969,-3.361901 1.8296,-3.041721 h -1.42938 l -1.04059,2.001132 z"
       style="font-style:normal;font-variant:normal;font-weight:normal;font-stretch:normal;font-family:'Russian Road Sign';-inkscape-font-specification:'Russian Road Sign';fill:#000000;fill-opacity:1;stroke-width:0.285876"
       id="path3797"
       inkscape:connector-curvature="0" />
    <path
       d="m 174.89785,-54.013339 c -1.761,0 -2.60719,1.509425 -2.60719,3.361901 0,1.852477 0.84619,3.361902 2.60719,3.361902 1.76099,0 2.60719,-1.509425 2.60719,-3.361902 0,-1.852476 -0.8462,-3.361901 -2.60719,-3.361901 z m 0,1.040588 c 0.8805,0 1.52086,0.880498 1.52086,2.321313 0,1.440815 -0.64036,2.321313 -1.52086,2.321313 -0.8805,0 -1.52086,-0.880498 -1.52086,-2.321313 0,-1.440815 0.64036,-2.321313 1.52086,-2.321313 z"
       style="font-style:normal;font-variant:normal;font-weight:normal;font-stretch:normal;font-family:'Russian Road Sign';-inkscape-font-specification:'Russian Road Sign';fill:#000000;fill-opacity:1;stroke-width:0.285876"
       id="path3799"
       inkscape:connector-curvature="0" />
    <path
       d="m 179.21904,-47.449627 h 1.12064 v -4.642626 l 2.40135,4.642626 h 1.28073 v -6.403622 h -1.12064 v 4.562581 l -2.40135,-4.562581 h -1.28073 z"
       style="font-style:normal;font-variant:normal;font-weight:normal;font-stretch:normal;font-family:'Russian Road Sign';-inkscape-font-specification:'Russian Road Sign';fill:#000000;fill-opacity:1;stroke-width:0.285876"
       id="path3801"
       inkscape:connector-curvature="0" />
    <path
       d="m 187.70259,-49.690894 0.80045,-2.72154 0.80045,2.72154 z m 0.16009,-4.162355 -2.08118,6.403622 h 1.20068 l 0.40023,-1.280724 h 2.24127 l 0.40022,1.280724 h 1.20068 l -2.08118,-6.403622 z"
       style="font-style:normal;font-variant:normal;font-weight:normal;font-stretch:normal;font-family:'Russian Road Sign';-inkscape-font-specification:'Russian Road Sign';fill:#000000;fill-opacity:1;stroke-width:0.285876"
       id="path3803"
       inkscape:connector-curvature="0" />
  </g>
</svg>
