<?xml version="1.0" encoding="UTF-8" standalone="no"?>
<!-- Created with Inkscape (http://www.inkscape.org/) -->

<svg
   width="700"
   height="1050"
   id="svg2"
   version="1.1"
   inkscape:version="1.2.2 (732a01da63, 2022-12-09)"
   sodipodi:docname="RU_road_sign_7.4.svg"
   xml:space="preserve"
   xmlns:inkscape="http://www.inkscape.org/namespaces/inkscape"
   xmlns:sodipodi="http://sodipodi.sourceforge.net/DTD/sodipodi-0.dtd"
   xmlns="http://www.w3.org/2000/svg"
   xmlns:svg="http://www.w3.org/2000/svg"
   xmlns:rdf="http://www.w3.org/1999/02/22-rdf-syntax-ns#"
   xmlns:cc="http://creativecommons.org/ns#"
   xmlns:dc="http://purl.org/dc/elements/1.1/"><title
     id="title3002">6.17 Ichki ishlar boʻlimi</title><defs
     id="defs4" /><sodipodi:namedview
     id="base"
     pagecolor="#ffffff"
     bordercolor="#666666"
     borderopacity="1.0"
     inkscape:pageopacity="0.0"
     inkscape:pageshadow="2"
     inkscape:zoom="0.5"
     inkscape:cx="895"
     inkscape:cy="687"
     inkscape:document-units="px"
     inkscape:current-layer="layer1"
     showgrid="false"
     inkscape:window-width="1920"
     inkscape:window-height="991"
     inkscape:window-x="-9"
     inkscape:window-y="-9"
     inkscape:window-maximized="1"
     inkscape:showpageshadow="2"
     inkscape:pagecheckerboard="0"
     inkscape:deskcolor="#d1d1d1" /><metadata
     id="metadata7"><rdf:RDF><cc:Work
         rdf:about=""><dc:format>image/svg+xml</dc:format><dc:type
           rdf:resource="http://purl.org/dc/dcmitype/StillImage" /><dc:title>6.17 Ichki ishlar boʻlimi</dc:title><cc:license
           rdf:resource="http://creativecommons.org/licenses/by-sa/3.0/" /><dc:description>ГОСТ Р 52290-2004
Размеры и пропорции по типоразмеру II</dc:description></cc:Work><cc:License
         rdf:about="http://creativecommons.org/licenses/by-sa/3.0/"><cc:permits
           rdf:resource="http://creativecommons.org/ns#Reproduction" /><cc:permits
           rdf:resource="http://creativecommons.org/ns#Distribution" /><cc:requires
           rdf:resource="http://creativecommons.org/ns#Notice" /><cc:requires
           rdf:resource="http://creativecommons.org/ns#Attribution" /><cc:permits
           rdf:resource="http://creativecommons.org/ns#DerivativeWorks" /><cc:requires
           rdf:resource="http://creativecommons.org/ns#ShareAlike" /></cc:License></rdf:RDF></metadata><g
     inkscape:label="Layer 1"
     inkscape:groupmode="layer"
     id="layer1"
     transform="translate(0,-2.362183)"><rect
       style="color:#000000;fill:#ffffff;fill-opacity:1;fill-rule:nonzero;stroke:none;stroke-width:3.54299997999999980;marker:none;visibility:visible;display:inline;overflow:visible;enable-background:accumulate;opacity:1"
       id="rect10481"
       width="700"
       height="1050"
       x="0"
       y="2.3621831"
       rx="45"
       ry="45" /><path
       inkscape:connector-curvature="0"
       style="color:#000000;fill:#0d69e1;fill-opacity:1;fill-rule:nonzero;stroke:none;stroke-width:3.54299997999999980;marker:none;visibility:visible;display:inline;overflow:visible;enable-background:accumulate;opacity:1"
       d="m 45.000009,22.362155 c -13.85,0 -25,11.15 -25,25 l 0,960.000045 c 0,13.85 11.15,25 25,25 l 610.000001,0 c 13.85,0 25,-11.15 25,-25 l 0,-960.000045 c 0,-13.85 -11.15,-25 -25,-25 l -610.000001,0 z m 65.625001,155.000005 478.75,0 c 24.93,0 45,20.07 45,45 l 0,478.75 c 0,24.93 -20.07,45 -45,45 l -478.75,0 c -24.930001,0 -45.000001,-20.07 -45.000001,-45 l 0,-478.75 c 0,-24.93 20.07,-45 45.000001,-45 z"
       id="rect10483" /><rect
       ry="44"
       rx="44"
       y="3.3621678"
       x="1.0000153"
       height="1048"
       width="698"
       id="rect10490"
       style="color:#000000;fill:none;stroke:#000000;stroke-width:1.99999988000000010;stroke-miterlimit:4;stroke-opacity:1;stroke-dasharray:none;marker:none;visibility:visible;display:inline;overflow:visible;enable-background:accumulate;opacity:1" /><g
       style="font-size:195.31430054000000000px;font-style:normal;font-variant:normal;font-weight:normal;font-stretch:normal;line-height:125%;letter-spacing:-13.01562500000000000px;word-spacing:0px;opacity:1;fill:#ffffff;fill-opacity:1;stroke:none;font-family:Arial;-inkscape-font-specification:Arial"
       id="text10249"><path
         d="m 91.778,859.00311 6.445289,8.39841 14.648381,-9.17965 0,84.76531 19.14056,0 0,-109.3746 -16.40619,0 z"
         style="fill:#ffffff;font-family:Russian Road Sign;-inkscape-font-specification:Russian Road Sign"
         id="path11301" /><path
         d="m 188.7756,832.2454 c -11.1084,0.28494 -19.99508,5.5258 -26.66006,15.7226 -6.66503,10.19698 -10.08298,23.64093 -10.25387,40.33188 0.17089,16.69106 3.58884,30.13501 10.25387,40.33188 6.66498,10.19691 15.55166,15.43777 26.66006,15.72261 11.10829,-0.28483 19.99497,-5.5257 26.66006,-15.72261 6.66493,-10.19688 10.08288,-23.64083 10.25387,-40.33188 -0.17099,-15.92191 -3.58894,-29.14613 -10.25387,-39.67271 -6.66509,-10.52638 -15.55177,-15.98697 -26.66006,-16.38177 z m 0,16.99213 c 5.35474,-0.0813 9.63532,3.01114 12.84175,9.2773 3.2063,6.26633 4.85018,16.19467 4.93162,29.78505 -0.0814,13.59049 -1.72532,23.51883 -4.93162,29.78505 -3.20643,6.26627 -7.48701,9.3587 -12.84175,9.27731 -5.35485,0.0814 -9.63543,-3.01104 -12.84175,-9.27731 -3.2064,-6.26623 -4.85028,-16.19456 -4.93162,-29.78505 0.0813,-13.59038 1.72522,-23.51872 4.93162,-29.78505 3.20633,-6.26616 7.48691,-9.35859 12.84175,-9.2773 z"
         style="fill:#ffffff;font-family:Russian Road Sign;-inkscape-font-specification:Russian Road Sign"
         id="path11303" /><path
         d="m 274.18008,832.2454 c -11.1084,0.28494 -19.99508,5.5258 -26.66006,15.7226 -6.66503,10.19698 -10.08298,23.64093 -10.25387,40.33188 0.17089,16.69106 3.58884,30.13501 10.25387,40.33188 6.66498,10.19691 15.55166,15.43777 26.66006,15.72261 11.10829,-0.28483 19.99497,-5.5257 26.66006,-15.72261 6.66493,-10.19688 10.08288,-23.64083 10.25387,-40.33188 -0.17099,-15.92191 -3.58894,-29.14613 -10.25387,-39.67271 -6.66509,-10.52638 -15.55177,-15.98697 -26.66006,-16.38177 z m 0,16.99213 c 5.35474,-0.0813 9.63532,3.01114 12.84175,9.2773 3.2063,6.26633 4.85018,16.19467 4.93162,29.78505 -0.0814,13.59049 -1.72532,23.51883 -4.93162,29.78505 -3.20643,6.26627 -7.48701,9.3587 -12.84175,9.27731 -5.35485,0.0814 -9.63543,-3.01104 -12.84175,-9.27731 -3.2064,-6.26623 -4.85028,-16.19456 -4.93162,-29.78505 0.0813,-13.59038 1.72522,-23.51872 4.93162,-29.78505 3.20633,-6.26616 7.48691,-9.35859 12.84175,-9.2773 z"
         style="fill:#ffffff;font-family:Russian Road Sign;-inkscape-font-specification:Russian Road Sign"
         id="path11305" /></g><path
       id="path11266"
       style="opacity:1;color:#000000;fill:#ffffff;fill-opacity:1;fill-rule:nonzero;stroke:none;stroke-width:1px;marker:none;visibility:visible;display:inline;overflow:visible;enable-background:accumulate"
       d="m 524.99998,866.4247 0,-32.81261 94.79168,54.6875 -94.79169,54.6875 0,-32.81239 -43.74997,0 0,-43.75 z"
       inkscape:connector-curvature="0"
       sodipodi:nodetypes="cccccccc" /><g
       aria-label="102"
       id="text5472"
       style="font-size:285.009px;font-family:'Highway Gothic Narrow';-inkscape-font-specification:'Highway Gothic Narrow';fill-rule:evenodd;stroke-width:106.879;stroke-linecap:square;paint-order:stroke fill markers"><path
         d="m 175.00445,406.14327 9.4053,12.25539 21.37568,-13.39542 v 123.6939 h 27.93088 V 369.0921 h -23.94076 z"
         style="font-family:'Russian Road Sign';-inkscape-font-specification:'Russian Road Sign'"
         id="path5531" /><path
         d="m 335.46466,367.09704 c -31.921,0 -53.8667,33.91607 -53.8667,81.79758 0,47.88152 21.9457,81.79759 53.8667,81.79759 31.92101,0 53.86671,-33.91607 53.86671,-81.79759 0,-45.31643 -21.9457,-81.79758 -53.86671,-81.79758 z m 0,24.79578 c 15.39049,0 25.93582,17.10054 25.93582,57.0018 0,39.90126 -10.54533,57.0018 -25.93582,57.0018 -15.39048,0 -25.93582,-17.10054 -25.93582,-57.0018 0,-39.90126 10.54534,-57.0018 25.93582,-57.0018 z"
         style="font-family:'Russian Road Sign';-inkscape-font-specification:'Russian Road Sign'"
         id="path5533" /><path
         d="m 427.23748,391.0378 15.9605,17.95556 c 9.97532,-9.97531 19.95063,-20.80565 31.92101,-20.80565 13.96544,0 23.08573,10.83034 23.08573,20.80565 0,15.96051 -7.12522,23.94076 -16.81553,35.34112 -17.95557,21.37567 -36.19614,40.47128 -58.14184,60.42191 v 23.94075 h 95.76303 c 3.99013,-9.97531 5.98519,-19.95063 5.98519,-25.93582 h -65.83708 c 20.52065,-21.66068 39.33124,-39.04623 51.87164,-55.00673 10.26032,-12.5404 13.96544,-18.8106 13.96544,-38.76123 0,-23.94075 -23.94076,-41.89632 -45.88645,-41.89632 -23.94076,0 -39.90126,10.26032 -51.87164,23.94076 z"
         style="font-family:'Russian Road Sign';-inkscape-font-specification:'Russian Road Sign'"
         id="path5535" /></g><g
       aria-label="m"
       id="text5526"
       style="font-size:191.885px;font-family:'Highway Gothic Narrow';-inkscape-font-specification:'Highway Gothic Narrow';fill:#ffffff;fill-rule:evenodd;stroke-width:71.9574;stroke-linecap:square;paint-order:stroke fill markers"><path
         d="m 375.18047,866.42507 c -13.43195,0 -21.10735,10.1699 -21.10735,10.1699 -1.3432,-1.91885 -2.11074,-5.37278 -2.68639,-8.82671 h -13.81572 v 75.21892 h 16.11834 v -48.35502 c 4.02958,-8.05917 9.59425,-14.77514 17.46153,-14.77514 8.05917,0 9.40237,6.71597 9.40237,10.74556 v 52.3846 h 16.11834 v -48.35502 c 4.02958,-8.05917 9.59424,-14.77514 17.46153,-14.77514 8.05917,0 9.40236,6.71597 9.40236,10.74556 v 52.3846 h 16.11834 v -53.7278 c 0,-13.43195 -6.71597,-22.83431 -21.49112,-22.83431 -9.97802,0 -20.14792,5.37278 -22.83431,13.43195 -2.68639,-8.05917 -9.78613,-13.43195 -20.14792,-13.43195 z"
         style="font-family:'Russian Road Sign';-inkscape-font-specification:'Russian Road Sign';fill:#ffffff"
         id="path5528" /></g></g></svg>
