<?xml version="1.0" encoding="UTF-8" standalone="no"?>
<!-- Created with Inkscape (http://www.inkscape.org/) -->

<svg
   width="1700"
   height="790"
   id="svg2"
   version="1.1"
   inkscape:version="1.2.2 (732a01da63, 2022-12-09)"
   sodipodi:docname="RU_road_sign_6.9.2_B.svg"
   xml:space="preserve"
   xmlns:inkscape="http://www.inkscape.org/namespaces/inkscape"
   xmlns:sodipodi="http://sodipodi.sourceforge.net/DTD/sodipodi-0.dtd"
   xmlns="http://www.w3.org/2000/svg"
   xmlns:svg="http://www.w3.org/2000/svg"
   xmlns:rdf="http://www.w3.org/1999/02/22-rdf-syntax-ns#"
   xmlns:cc="http://creativecommons.org/ns#"
   xmlns:dc="http://purl.org/dc/elements/1.1/"><title
     id="title3006">5.20.2 Yoʻnalishlarning dastlabki koʻrsatkichi</title><defs
     id="defs4" /><sodipodi:namedview
     id="base"
     pagecolor="#ffffff"
     bordercolor="#666666"
     borderopacity="1.0"
     inkscape:pageopacity="0.0"
     inkscape:pageshadow="2"
     inkscape:zoom="0.25"
     inkscape:cx="986"
     inkscape:cy="-38"
     inkscape:document-units="px"
     inkscape:current-layer="layer1"
     showgrid="false"
     inkscape:window-width="1920"
     inkscape:window-height="991"
     inkscape:window-x="-9"
     inkscape:window-y="-9"
     inkscape:window-maximized="1"
     inkscape:snap-bbox="true"
     inkscape:bbox-paths="true"
     inkscape:bbox-nodes="true"
     inkscape:snap-bbox-edge-midpoints="true"
     inkscape:snap-bbox-midpoints="true"
     inkscape:object-paths="true"
     inkscape:snap-intersection-paths="true"
     inkscape:object-nodes="true"
     inkscape:snap-smooth-nodes="true"
     inkscape:snap-midpoints="true"
     inkscape:snap-object-midpoints="true"
     showguides="true"
     inkscape:guide-bbox="true"
     inkscape:showpageshadow="2"
     inkscape:pagecheckerboard="0"
     inkscape:deskcolor="#d1d1d1" /><metadata
     id="metadata7"><rdf:RDF><cc:Work
         rdf:about=""><dc:format>image/svg+xml</dc:format><dc:type
           rdf:resource="http://purl.org/dc/dcmitype/StillImage" /><dc:title>5.20.2 Yoʻnalishlarning dastlabki koʻrsatkichi</dc:title><cc:license
           rdf:resource="http://creativecommons.org/licenses/by-sa/3.0/" /><dc:description>ГОСТ Р 52290-2004</dc:description></cc:Work><cc:License
         rdf:about="http://creativecommons.org/licenses/by-sa/3.0/"><cc:permits
           rdf:resource="http://creativecommons.org/ns#Reproduction" /><cc:permits
           rdf:resource="http://creativecommons.org/ns#Distribution" /><cc:requires
           rdf:resource="http://creativecommons.org/ns#Notice" /><cc:requires
           rdf:resource="http://creativecommons.org/ns#Attribution" /><cc:permits
           rdf:resource="http://creativecommons.org/ns#DerivativeWorks" /><cc:requires
           rdf:resource="http://creativecommons.org/ns#ShareAlike" /></cc:License></rdf:RDF></metadata><g
     inkscape:label="Layer 1"
     inkscape:groupmode="layer"
     id="layer1"
     transform="translate(0,-262.36218)"><rect
       ry="45"
       rx="45"
       y="262.36218"
       x="0"
       height="790"
       width="1700"
       id="rect13572"
       style="opacity:1;color:#000000;fill:#ffffff;fill-opacity:1;fill-rule:nonzero;stroke:none;stroke-width:3.54299997999999980;marker:none;visibility:visible;display:inline;overflow:visible;enable-background:accumulate" /><path
       id="path1368"
       style="color:#000000;display:inline;overflow:visible;visibility:visible;opacity:1;fill:#0d68e2;fill-opacity:1;fill-rule:nonzero;stroke:none;stroke-width:3.543;marker:none;enable-background:accumulate"
       d="M 147.5 342.36218 C 135.03501 342.36218 125 352.39719 125 364.86218 L 125 539.86218 C 125 552.32717 135.03501 562.36218 147.5 562.36218 L 452.5 562.36218 C 464.96499 562.36218 475 552.32717 475 539.86218 L 475 364.86218 C 475 352.39719 464.96499 342.36218 452.5 342.36218 L 147.5 342.36218 z M 321.85938 389.86218 C 336.71504 389.86218 353.69336 400.47407 353.69336 416.81531 C 353.69336 433.15654 341.80836 445.04068 329.92383 446.52624 C 337.35166 448.01181 358.78516 456.92482 358.78516 476.23718 C 358.78516 494.06398 343.29412 514.86218 315.06836 514.86218 C 303.18383 514.86218 284.7207 509.76843 284.7207 509.76843 L 282.17383 488.97156 C 289.38944 493.8527 302.33536 495.54968 312.09766 495.54968 C 325.46775 495.54968 337.35223 489.6079 337.56445 475.81335 C 337.56445 470.71998 335.8651 458.41101 316.55273 458.41101 C 312.94493 458.41101 309.12543 458.40982 306.1543 459.89538 L 306.1543 443.55554 C 321.00996 440.58441 332.89453 430.18378 332.89453 421.27038 C 332.89453 413.84255 325.4669 407.90124 318.03906 407.90124 C 306.15453 407.90124 300.21161 410.87313 291.72266 418.08874 L 283.87109 400.47351 C 291.29893 396.01681 309.97484 389.86218 321.85938 389.86218 z M 145.58008 393.04577 L 169.34961 393.04577 L 202.0332 448.01062 L 234.71484 393.04577 L 258.48438 393.04577 L 258.48438 511.89148 L 239.17188 511.89148 L 237.68555 425.72741 L 202.0332 488.12195 L 166.37891 425.72741 L 166.37891 511.89148 L 145.58008 511.89148 L 145.58008 393.04577 z M 383.11133 393.04577 L 454.41992 393.04577 L 454.41992 407.90124 C 439.56426 437.61257 424.70832 468.81005 415.79492 511.89148 L 393.51172 511.89148 C 399.45398 476.23788 417.27986 439.09847 433.62109 412.35827 L 378.65625 412.35827 L 383.11133 393.04577 z " /><path
       id="rect13576"
       style="color:#000000;display:inline;overflow:visible;visibility:visible;opacity:1;fill:#00a500;fill-opacity:1;fill-rule:nonzero;stroke:none;stroke-width:3.543;marker:none;enable-background:accumulate"
       d="M 45 280.36218 C 30.042015 280.36218 18 292.40419 18 307.36218 L 18 1007.3622 C 18 1022.3202 30.042015 1034.3622 45 1034.3622 L 1655 1034.3622 C 1669.958 1034.3622 1682 1022.3202 1682 1007.3622 L 1682 307.36218 C 1682 292.40419 1669.958 280.36218 1655 280.36218 L 45 280.36218 z M 147.5 327.36218 L 452.5 327.36218 C 473.27498 327.36218 490 344.0872 490 364.86218 L 490 539.86218 C 490 560.63716 473.27498 577.36218 452.5 577.36218 L 147.5 577.36218 C 126.72502 577.36218 110 560.63716 110 539.86218 L 110 364.86218 C 110 344.0872 126.72502 327.36218 147.5 327.36218 z M 1017.3047 368.61218 C 1055.2808 368.61218 1073.5293 401.16322 1073.5293 441.11218 C 1073.5293 481.06114 1055.2808 513.61218 1017.3047 513.61218 C 979.32851 513.61218 961.08008 481.06114 961.08008 441.11218 C 961.08008 401.16322 979.32851 368.61218 1017.3047 368.61218 z M 1314.209 368.61218 C 1352.1851 368.61218 1370.4336 401.16322 1370.4336 441.11218 C 1370.4336 481.06114 1352.1851 513.61218 1314.209 513.61218 C 1276.2328 513.61218 1257.9844 481.06114 1257.9844 441.11218 C 1257.9844 401.16322 1276.2328 368.61218 1314.209 368.61218 z M 550 372.06531 L 603.51172 372.06531 C 629.40456 372.06531 643.95508 391.79163 643.95508 410.03991 C 643.95508 420.39705 636.30989 432.48048 624.22656 437.65906 C 638.03608 442.83762 648.39258 453.19562 648.39258 468.73132 C 648.39258 491.17179 629.40406 510.15906 603.75781 510.15906 L 550 510.15906 L 550 372.06531 z M 688.0957 372.06531 L 712.26172 372.06531 L 712.26172 467.00476 C 712.26172 485.99284 727.79716 492.89734 738.1543 492.89734 C 748.51143 492.89734 764.04688 485.99284 764.04688 467.00476 L 764.04688 372.06531 L 788.21484 372.06531 L 788.21484 465.2782 C 788.21484 467.00438 786.4876 511.88562 738.1543 511.88562 C 689.82099 511.88562 688.0957 467.00438 688.0957 465.2782 L 688.0957 372.06531 z M 824.46484 372.06531 L 855.28906 372.06531 L 877.73047 415.2196 L 900.16992 372.06531 L 930.99609 372.06531 L 891.53906 437.65906 L 934.44727 510.15906 L 905.34961 510.15906 L 877.73047 460.10046 L 850.11133 510.15906 L 821.01172 510.15906 L 863.91992 437.65906 L 824.46484 372.06531 z M 1113.9707 372.06531 L 1160.5781 372.06531 C 1195.102 372.06531 1203.7344 396.2304 1203.7344 410.03991 C 1203.7344 429.02801 1191.6494 441.11135 1177.8398 446.28991 C 1200.2803 451.46849 1207.1869 503.25429 1222.7227 510.15906 L 1193.377 510.15906 C 1187.9518 503.00769 1183.5131 488.45969 1177.1016 476.12976 C 1170.9366 464.53963 1167.483 454.92077 1151.9473 454.92077 L 1138.1387 454.92077 L 1138.1387 510.15906 L 1113.9707 510.15906 L 1113.9707 372.06531 z M 1017.3047 391.05163 C 998.31659 391.05163 984.50781 410.04077 984.50781 441.11218 C 984.50781 472.18359 998.31659 491.17077 1017.3047 491.17077 C 1036.2928 491.17077 1050.1035 472.18359 1050.1035 441.11218 C 1050.1035 410.04077 1036.2928 391.05163 1017.3047 391.05163 z M 1314.209 391.05163 C 1295.2209 391.05163 1281.4121 410.04077 1281.4121 441.11218 C 1281.4121 472.18359 1295.2209 491.17077 1314.209 491.17077 C 1333.1971 491.17077 1347.0078 472.18359 1347.0078 441.11218 C 1347.0078 410.04077 1333.1971 391.05163 1314.209 391.05163 z M 574.16602 392.7782 L 574.16602 428.28991 L 601.78516 428.28991 C 612.14229 428.28991 619.04688 420.89118 619.04688 410.53406 C 619.04688 398.45073 610.4161 392.7782 601.78516 392.7782 L 574.16602 392.7782 z M 1138.1387 392.7782 L 1138.1387 434.20788 L 1153.6738 434.20788 C 1167.4834 434.20788 1179.5664 428.28894 1179.5664 413.49304 C 1179.5664 398.69712 1167.4834 392.7782 1153.6738 392.7782 L 1138.1387 392.7782 z M 574.16602 448.01648 L 574.16602 489.44616 L 603.51172 489.44616 C 617.32123 489.44616 624.22656 478.59526 624.22656 468.73132 C 624.22656 458.86738 617.32123 448.01648 603.51172 448.01648 L 574.16602 448.01648 z M 1040.0898 584.86218 C 1078.0661 584.86218 1096.3145 617.41322 1096.3145 657.36218 C 1096.3145 697.31114 1078.0661 729.86218 1040.0898 729.86218 C 1002.1137 729.86218 983.86523 697.31114 983.86523 657.36218 C 983.86523 617.41322 1002.1137 584.86218 1040.0898 584.86218 z M 548.125 588.31531 L 575.74414 588.31531 L 627.5293 686.70788 L 627.5293 588.31531 L 651.69727 588.31531 L 651.69727 726.40906 L 624.07812 726.40906 L 572.29102 626.28991 L 572.29102 726.40906 L 548.125 726.40906 L 548.125 588.31531 z M 734.55273 588.31531 L 762.17188 588.31531 L 807.05469 726.40906 L 781.16016 726.40906 L 772.5293 698.78991 L 724.19727 698.78991 L 715.56641 726.40906 L 689.67188 726.40906 L 734.55273 588.31531 z M 841.57812 588.31531 L 869.19727 588.31531 L 896.81641 691.88562 L 924.43555 588.31531 L 950.32812 588.31531 L 912.35156 726.40906 L 881.2793 726.40906 L 841.57812 588.31531 z M 1135.0293 588.31531 L 1159.1973 588.31531 L 1159.1973 726.40906 L 1135.0293 726.40906 L 1135.0293 588.31531 z M 1198.8984 588.31531 L 1226.5176 588.31531 L 1254.1367 645.2782 L 1281.7559 588.31531 L 1309.375 588.31531 L 1266.2207 671.17077 L 1266.2207 726.40906 L 1242.0547 726.40906 L 1242.0547 671.17077 L 1198.8984 588.31531 z M 300 597.51843 L 412.5 792.36218 L 340.5 792.36218 L 340.5 945.36218 L 259.5 945.36218 L 259.5 792.36218 L 187.5 792.36218 L 300 597.51843 z M 1040.0898 607.30163 C 1021.1018 607.30163 1007.291 626.29077 1007.291 657.36218 C 1007.291 688.43359 1021.1018 707.42077 1040.0898 707.42077 C 1059.0779 707.42077 1072.8867 688.43359 1072.8867 657.36218 C 1072.8867 626.29077 1059.0779 607.30163 1040.0898 607.30163 z M 748.36328 619.38562 L 731.10156 678.07702 L 765.625 678.07702 L 748.36328 619.38562 z M 606.90039 801.11218 C 631.06705 801.11218 653.50781 820.10046 653.50781 820.10046 L 637.47852 837.36218 C 637.47852 837.36218 624.90208 823.55163 606.90039 823.55163 C 586.18612 823.55163 581.00781 837.11613 581.00781 843.77429 C 581.00781 857.09061 598.26973 859.30918 617.25781 863.25476 C 641.42447 868.43332 656.4668 882.24361 656.4668 902.95788 C 656.4668 920.21979 637.97105 946.11218 603.44727 946.11218 C 572.37585 946.11218 549.19727 921.94616 549.19727 921.94616 L 566.21094 907.39538 C 566.21094 907.39538 579.77475 923.67077 603.94141 923.67077 C 625.14888 923.67077 631.06641 909.86301 631.06641 904.68445 L 631.06641 904.4364 C 631.06641 899.01123 630.82091 887.42205 599.99609 882.98327 C 561.52673 877.31151 556.8418 854.87021 556.8418 844.26648 C 556.8418 820.09982 577.55517 801.11218 606.90039 801.11218 z M 724.14648 804.56335 L 751.76562 804.56335 L 796.64648 942.65906 L 770.75391 942.65906 L 762.12109 915.03991 L 713.78906 915.03991 L 705.1582 942.65906 L 679.26562 942.65906 L 724.14648 804.56335 z M 824.62109 804.56335 L 852.24023 804.56335 L 890.2168 868.43249 L 928.19336 804.56335 L 955.8125 804.56335 L 955.8125 942.65906 L 933.37305 942.65906 L 931.64648 842.53991 L 890.2168 915.03991 L 848.78906 842.53991 L 848.78906 942.65906 L 824.62109 942.65906 L 824.62109 804.56335 z M 1028.6699 804.56335 L 1056.2891 804.56335 L 1101.1699 942.65906 L 1075.2773 942.65906 L 1066.6465 915.03991 L 1018.3125 915.03991 L 1009.6816 942.65906 L 983.78906 942.65906 L 1028.6699 804.56335 z M 1132.5977 804.56335 L 1179.2051 804.56335 C 1213.7288 804.56335 1222.3613 828.7304 1222.3613 842.53991 C 1222.3613 861.52801 1210.2763 873.61135 1196.4668 878.78991 C 1218.9073 883.96849 1225.8139 935.75429 1241.3496 942.65906 L 1212.0039 942.65906 C 1206.5787 935.50769 1202.1401 920.95969 1195.7285 908.62976 C 1189.5635 897.03963 1186.1099 887.42077 1170.5742 887.42077 L 1156.7656 887.42077 L 1156.7656 942.65906 L 1132.5977 942.65906 L 1132.5977 804.56335 z M 1312.4805 804.56335 L 1340.0996 804.56335 L 1384.9805 942.65906 L 1359.0859 942.65906 L 1350.4551 915.03991 L 1302.123 915.03991 L 1293.4922 942.65906 L 1267.5977 942.65906 L 1312.4805 804.56335 z M 1412.9551 804.56335 L 1440.5742 804.56335 L 1492.3613 902.95788 L 1492.3613 804.56335 L 1516.5273 804.56335 L 1516.5273 942.65906 L 1488.9082 942.65906 L 1437.123 842.53991 L 1437.123 942.65906 L 1412.9551 942.65906 L 1412.9551 804.56335 z M 1549.6816 804.56335 L 1596.2891 804.56335 C 1634.2652 804.56335 1655.9668 833.66322 1655.9668 873.61218 C 1655.9668 913.56114 1634.2652 942.65906 1596.2891 942.65906 L 1549.6816 942.65906 L 1549.6816 804.56335 z M 1156.7656 825.2782 L 1156.7656 866.70788 L 1172.3008 866.70788 C 1186.1103 866.70788 1198.1934 860.78894 1198.1934 845.99304 C 1198.1934 831.19712 1186.1103 825.2782 1172.3008 825.2782 L 1156.7656 825.2782 z M 1573.8496 825.2782 L 1573.8496 921.94616 L 1594.5625 921.94616 C 1613.5506 921.94616 1630.8125 906.40978 1630.8125 873.61218 C 1630.8125 840.81458 1613.5506 825.2782 1594.5625 825.2782 L 1573.8496 825.2782 z M 737.95508 835.63562 L 720.69336 894.32702 L 755.2168 894.32702 L 737.95508 835.63562 z M 1042.4805 835.63562 L 1025.2168 894.32702 L 1059.7422 894.32702 L 1042.4805 835.63562 z M 1326.2891 835.63562 L 1309.0273 894.32702 L 1343.5508 894.32702 L 1326.2891 835.63562 z " /><rect
       style="opacity:1;color:#000000;fill:none;stroke:#000000;stroke-width:2;stroke-miterlimit:4;stroke-opacity:1;stroke-dasharray:none;marker:none;visibility:visible;display:inline;overflow:visible;enable-background:accumulate"
       id="rect13658"
       width="1698"
       height="788"
       x="1"
       y="263.36215"
       rx="44"
       ry="44" /></g></svg>
