<?xml version="1.0" encoding="UTF-8" standalone="no"?>
<!-- Created with Inkscape (http://www.inkscape.org/) -->

<svg
   width="700"
   height="1050"
   id="svg2"
   version="1.1"
   inkscape:version="1.2.2 (732a01da63, 2022-12-09)"
   sodipodi:docname="UZ_road_sign_6.24.svg"
   xml:space="preserve"
   xmlns:inkscape="http://www.inkscape.org/namespaces/inkscape"
   xmlns:sodipodi="http://sodipodi.sourceforge.net/DTD/sodipodi-0.dtd"
   xmlns="http://www.w3.org/2000/svg"
   xmlns:svg="http://www.w3.org/2000/svg"
   xmlns:rdf="http://www.w3.org/1999/02/22-rdf-syntax-ns#"
   xmlns:cc="http://creativecommons.org/ns#"
   xmlns:dc="http://purl.org/dc/elements/1.1/"><title
     id="title3002">6.22 Temir yoʻl vokzali</title><defs
     id="defs4" /><sodipodi:namedview
     id="base"
     pagecolor="#ffffff"
     bordercolor="#666666"
     borderopacity="1.0"
     inkscape:pageopacity="0.0"
     inkscape:pageshadow="2"
     inkscape:zoom="0.53942146"
     inkscape:cx="288.27181"
     inkscape:cy="649.77022"
     inkscape:document-units="px"
     inkscape:current-layer="g115751"
     showgrid="false"
     inkscape:window-width="1920"
     inkscape:window-height="991"
     inkscape:window-x="-9"
     inkscape:window-y="-9"
     inkscape:window-maximized="1"
     inkscape:showpageshadow="2"
     inkscape:pagecheckerboard="0"
     inkscape:deskcolor="#d1d1d1"
     showguides="true" /><metadata
     id="metadata7"><rdf:RDF><cc:Work
         rdf:about=""><dc:format>image/svg+xml</dc:format><dc:type
           rdf:resource="http://purl.org/dc/dcmitype/StillImage" /><dc:title>6.22 Temir yoʻl vokzali</dc:title><cc:license
           rdf:resource="http://creativecommons.org/licenses/by-sa/3.0/" /><dc:description>ГОСТ Р 52290-2004
Размеры и пропорции по типоразмеру II</dc:description></cc:Work><cc:License
         rdf:about="http://creativecommons.org/licenses/by-sa/3.0/"><cc:permits
           rdf:resource="http://creativecommons.org/ns#Reproduction" /><cc:permits
           rdf:resource="http://creativecommons.org/ns#Distribution" /><cc:requires
           rdf:resource="http://creativecommons.org/ns#Notice" /><cc:requires
           rdf:resource="http://creativecommons.org/ns#Attribution" /><cc:permits
           rdf:resource="http://creativecommons.org/ns#DerivativeWorks" /><cc:requires
           rdf:resource="http://creativecommons.org/ns#ShareAlike" /></cc:License></rdf:RDF></metadata><g
     inkscape:label="Layer 1"
     inkscape:groupmode="layer"
     id="layer1"
     transform="translate(0,-2.362183)"><rect
       style="color:#000000;fill:#ffffff;fill-opacity:1;fill-rule:nonzero;stroke:none;stroke-width:3.54299997999999980;marker:none;visibility:visible;display:inline;overflow:visible;enable-background:accumulate;opacity:1"
       id="rect10481"
       width="700"
       height="1050"
       x="0"
       y="2.3621831"
       rx="45"
       ry="45" /><path
       inkscape:connector-curvature="0"
       style="color:#000000;display:inline;overflow:visible;visibility:visible;opacity:1;fill:#0d69e1;fill-opacity:1;fill-rule:nonzero;stroke:none;stroke-width:3.543;marker:none;enable-background:accumulate"
       d="m 45,22.362155 c -13.85,0 -25,11.15 -25,25 V 1007.3622 c 0,13.85 11.15,25 25,25 h 610 c 13.85,0 25,-11.15 25,-25 V 47.362155 c 0,-13.85 -11.15,-25 -25,-25 z m 65.625,155.000005 h 478.75 c 24.93,0 45,20.07 45,45 v 478.75 c 0,24.93 -20.07,45 -45,45 h -478.75 c -24.930001,0 -45.000001,-20.07 -45.000001,-45 v -478.75 c 0,-24.93 20.07,-45 45.000001,-45 z"
       id="rect10483" /><rect
       ry="44"
       rx="44"
       y="3.3621678"
       x="1"
       height="1048"
       width="698"
       id="rect10490"
       style="color:#000000;display:inline;overflow:visible;visibility:visible;opacity:1;fill:none;stroke:#000000;stroke-width:2;stroke-miterlimit:4;stroke-dasharray:none;stroke-opacity:1;marker:none;enable-background:accumulate" /><g
       aria-label="300m"
       id="text5762"
       style="font-size:190.338px;line-height:1.5;font-family:'Russian Road Sign';-inkscape-font-specification:'Russian Road Sign';fill:#ffffff;fill-rule:evenodd;stroke-width:44.8854;stroke-linecap:round;stroke-linejoin:round;paint-order:stroke fill markers"
       transform="translate(-1.5e-5)"><path
         d="m 155.76006,841.76231 7.04251,15.79805 c 7.61352,-6.47149 12.94298,-9.13622 23.60191,-9.13622 6.66183,0 13.32366,5.32946 13.32366,11.99129 0,7.9942 -10.65893,17.32076 -23.98259,19.98549 v 14.65603 c 2.66473,-1.33237 6.09082,-1.33237 9.32656,-1.33237 17.32076,0 18.84347,11.03961 18.84347,15.60772 -0.19034,12.37197 -10.84927,17.70143 -22.84056,17.70143 -8.75555,0 -20.36617,-1.5227 -26.83766,-5.90048 l 2.28405,18.65313 c 0,0 16.55941,4.56811 27.21834,4.56811 25.31495,0 39.20963,-18.65312 39.20963,-34.64152 0,-17.32075 -19.22414,-25.31495 -25.88597,-26.64731 10.65893,-1.33237 21.31785,-11.9913 21.31785,-26.64732 0,-14.65603 -15.22704,-24.17293 -28.5507,-24.17293 -10.65892,0 -27.40867,5.5198 -34.0705,9.5169 z"
         id="path6231"
         style="fill:#ffffff" /><path
         d="m 284.61905,833.76811 c -21.31785,0 -35.97388,22.65023 -35.97388,54.62701 0,31.97678 14.65603,54.627 35.97388,54.627 21.31786,0 35.97388,-22.65022 35.97388,-54.627 0,-30.26374 -14.65602,-54.62701 -35.97388,-54.62701 z m 0,16.55941 c 10.27825,0 17.32076,11.42028 17.32076,38.0676 0,26.64732 -7.04251,38.0676 -17.32076,38.0676 -10.27825,0 -17.32076,-11.42028 -17.32076,-38.0676 0,-26.64732 7.04251,-38.0676 17.32076,-38.0676 z"
         id="path6233"
         style="fill:#ffffff" /><path
         d="m 380.54934,833.76811 c -21.31785,0 -35.97388,22.65023 -35.97388,54.62701 0,31.97678 14.65603,54.627 35.97388,54.627 21.31786,0 35.97388,-22.65022 35.97388,-54.627 0,-30.26374 -14.65602,-54.62701 -35.97388,-54.62701 z m 0,16.55941 c 10.27825,0 17.32076,11.42028 17.32076,38.0676 0,26.64732 -7.04251,38.0676 -17.32076,38.0676 -10.27825,0 -17.32075,-11.42028 -17.32075,-38.0676 0,-26.64732 7.0425,-38.0676 17.32075,-38.0676 z"
         id="path6235"
         style="fill:#ffffff" /><path
         d="m 481.8091,865.7449 c -13.32366,0 -20.93718,10.08791 -20.93718,10.08791 -1.33236,-1.90338 -2.09371,-5.32946 -2.66473,-8.75555 h -13.70433 v 74.6125 h 15.98839 v -47.96518 c 3.9971,-7.99419 9.5169,-14.65602 17.32076,-14.65602 7.99419,0 9.32656,6.66183 9.32656,10.65893 v 51.96227 h 15.98839 v -47.96518 c 3.9971,-7.99419 9.5169,-14.65602 17.32076,-14.65602 7.99419,0 9.32656,6.66183 9.32656,10.65893 v 51.96227 h 15.98839 v -53.29464 c 0,-13.32366 -6.66183,-22.65022 -21.31785,-22.65022 -9.89758,0 -19.98549,5.32946 -22.65023,13.32366 -2.66473,-7.9942 -9.70723,-13.32366 -19.98549,-13.32366 z"
         id="path6237"
         style="fill:#ffffff" /></g><g
       id="g115751"
       transform="matrix(1.383671,0,0,1.383671,72.968996,-214.66503)"><path
         id="path1770"
         style="opacity:1;fill:#000000;fill-rule:evenodd;stroke-width:71.5783;stroke-linecap:round;stroke-linejoin:round;paint-order:stroke fill markers"
         d="m 96.833524,361.07758 a 25.568855,25.568855 0 0 0 -25.567375,25.56945 25.568855,25.568855 0 0 0 11.663845,21.44951 h -7.992671 c -17.468344,0 -31.532263,14.06445 -31.532263,31.53226 v 20.01386 4.85751 40.82967 c 0,7.24858 5.836352,13.08495 13.084943,13.08495 h 2.48693 c 2.517693,0 4.842113,-0.74048 6.833344,-1.96337 -0.02664,0.37253 -0.06856,0.74243 -0.06856,1.11985 v 91.67356 c 0,5.37778 2.710582,10.28567 7.213545,14.10091 H 37.764277 c -2.24906,0 -4.059692,1.8106 -4.059692,4.05969 0,2.24909 1.810632,4.05971 4.059692,4.05971 H 259.37105 c 2.24907,0 4.05969,-1.81062 4.05969,-4.05971 0,-2.24909 -1.81062,-4.05969 -4.05969,-4.05969 h -28.65891 c 7.49475,-3.19869 12.72343,-10.61925 12.72343,-19.30955 v -29.52734 c 0,-11.63092 -9.36359,-20.9945 -20.99449,-20.9945 h -10.08899 v -4.02023 c 0,-5.11427 -4.11666,-9.23093 -9.23093,-9.23093 h -20.91971 c -5.11441,0 -9.23093,4.11666 -9.23093,9.23093 v 4.02023 h -10.089 c -11.63102,0 -20.99449,9.36358 -20.99449,20.9945 v 29.52734 c 0,8.6903 5.22858,16.11086 12.72343,19.30955 h -33.64729 c 4.50751,-3.81429 7.22601,-8.72079 7.22601,-14.10091 v -91.67356 c 0,-0.37722 -0.0378,-0.74764 -0.0645,-1.11985 1.99156,1.22278 4.31567,1.96337 6.83335,1.96337 h 2.48693 c 3.7341,0 7.07402,-1.56477 9.45323,-4.05762 h 215.76653 c 2.24909,0 4.0597,-1.81062 4.0597,-4.05971 0,-2.24897 -1.81061,-4.05969 -4.0597,-4.05969 H 150.4365 c 0.0212,-0.30552 0.0914,-0.59686 0.0914,-0.90793 v -21.04643 l 99.85737,-6.14149 c 0.66644,-0.0383 1.3256,-0.0586 1.97375,-0.0374 4.17436,0.13336 6.57628,0.5169 9.5218,2.96478 3.91565,3.25391 5.84024,8.20484 5.84024,13.92016 v 1.94675 h 76.91611 l -15.24153,-57.06434 c -3.89236,-1.44744 -7.9207,-2.76778 -11.44777,-3.48835 -6.03495,-1.23279 -12.17567,-1.47741 -16.78936,-1.74728 -6.96701,-0.40721 -20.86777,1.70158 -20.86777,1.70158 -2.94552,0 -5.31666,-2.37323 -5.31666,-5.31875 v -4.71623 L 150.5279,452.06343 V 441.7272 l 116.09409,-25.64009 c 0,0 8.61236,-2.23451 13.01638,-2.75702 4.28498,-0.50848 8.62006,-0.95037 12.94781,-1.06791 0.72132,-0.0202 1.44203,-0.0291 2.16282,-0.0291 0.7208,0 1.44155,0.009 2.16075,0.0291 1.91846,0.0564 3.83186,0.19639 5.73426,0.43838 5.11578,0.65091 10.67754,1.68935 15.41814,4.09917 2.49916,1.27054 4.41453,3.26645 6.56531,5.21279 l -0.0118,-0.054 c -2.36173,-9.97464 -7.76992,-17.75796 -17.59343,-23.02849 -3.05645,-1.63988 -6.32222,-2.93954 -9.70047,-3.83117 -2.54503,-0.67166 -7.05327,-1.31161 -11.32103,-1.43979 -1.42256,-0.0425 -2.81784,-0.0292 -4.10541,0.0602 -7.0554,0.48678 -20.67246,4.7744 -20.67246,4.7744 l -112.41666,30.8134 -0.0312,-0.0147 c -4.26499,-12.35224 -15.93607,-21.19395 -29.77457,-21.19395 h -8.25652 A 25.568855,25.568855 0 0 0 122.40568,386.6489 25.568855,25.568855 0 0 0 96.836244,361.07943 Z m 0,6.10201 A 19.466468,19.466468 0 0 1 116.30095,386.64703 19.466468,19.466468 0 0 1 96.833524,406.11239 19.466468,19.466468 0 0 1 77.36816,386.64703 19.466468,19.466468 0 0 1 96.833524,367.17959 Z m -21.634412,46.97117 h 0.0021 43.530598 c 14.11541,0 25.48011,11.36577 25.48011,25.48012 v 5.36653 c 0,0.2722 -0.0311,0.53592 -0.0395,0.80611 0.0255,0.24382 0.0395,0.49089 0.0395,0.74173 v 36.93202 13.45894 8.42064 c 0,3.82983 -3.08381,6.91437 -6.91436,6.91437 h -2.19191 c -3.83055,0 -6.91437,-3.08454 -6.91437,-6.91437 v -19.64403 -28.75447 -5.62 c 0,-1.5467 -1.24577,-2.79235 -2.79234,-2.79235 h -0.73134 c -1.54667,0 -2.79233,1.24565 -2.79233,2.79235 v 8.27937 c -1e-4,0.0103 0,0.0133 0,0.0249 v 45.68719 c 0,0.70089 0.10112,1.37391 0.20568,2.04439 v 101.36157 c 0,6.48248 -4.89677,11.70123 -10.97822,11.70123 -6.08133,0 -10.97821,-5.21875 -10.97821,-11.70123 v -62.4641 l -0.0561,-30.49968 c 0,-1.48742 -1.196966,-2.68429 -2.684306,-2.68429 h -0.6316 c -1.48734,0 -2.68638,1.19687 -2.68638,2.68429 v 30.49968 l -0.054,62.4641 c -0.0103,6.48248 -4.89772,11.70123 -10.97823,11.70123 -6.081431,0 -10.976134,-5.21875 -10.976134,-11.70123 v -103.40596 -1.03883 -18.5782 -26.07016 -8.30431 c 0,-1.5467 -1.245651,-2.79235 -2.792345,-2.79235 h -0.731332 c -1.54668,0 -2.792331,1.24565 -2.792331,2.79235 v 5.62 28.75447 19.64403 c 0,3.82983 -3.573706,6.91438 -8.011362,6.91438 -4.437523,0 -8.009286,-3.08455 -8.009286,-6.91438 v -21.88165 -35.02684 -1.90519 c 0,-0.23934 0.01491,-0.47541 0.04155,-0.70847 -0.0103,-0.28063 -0.04155,-0.55456 -0.04155,-0.83729 v -5.36653 c 0,-14.11435 11.362638,-25.48012 25.478043,-25.48012 z M 183.10938,546.99265 h 19.11007 c 1.97528,0 3.66495,1.68967 3.66495,3.66495 v 2.85675 6.65881 h 6.46976 4.31526 v 58.19872 h -48.01207 v -58.19872 h 4.31524 6.47184 v -6.65881 -2.85675 c 0,-1.97528 1.68967,-3.66495 3.66495,-3.66495 z m 0,3.19125 c -0.26254,0 -0.4737,0.21128 -0.4737,0.4737 v 2.85675 6.65881 h 20.05541 v -6.65881 -2.85675 c 0,-0.26242 -0.21119,-0.4737 -0.47371,-0.4737 z m -21.11085,10.03083 v 58.1156 c -7.51837,-0.42295 -13.45062,-6.59776 -13.45062,-14.22558 v -29.66446 c 0,-7.62762 5.93225,-13.80272 13.45062,-14.22556 z m 61.3297,0 c 7.51835,0.42284 13.45061,6.59794 13.45061,14.22556 v 29.66446 c 0,7.62782 -5.93226,13.80263 -13.45061,14.22558 z" /></g></g></svg>
