<svg width="46" height="64" viewBox="0 0 46 64" fill="none" xmlns="http://www.w3.org/2000/svg">
<path d="M3.87872 63.9994C1.74011 63.9994 0 62.2599 0 60.1207V3.87872C0 1.74011 1.73953 0 3.87872 0H41.7817C43.9203 0 45.6604 1.73953 45.6604 3.87872V60.1207C45.6604 62.2593 43.9209 63.9994 41.7817 63.9994H3.87872Z" fill="#005289"/>
<path d="M3.87831 63.251C2.15263 63.251 0.748047 61.847 0.748047 60.1208V3.87877C0.748047 2.1531 2.15206 0.748535 3.87831 0.748535H41.7813C43.5069 0.748535 44.9115 2.1531 44.9115 3.87877V60.1208C44.9115 61.8464 43.5069 63.251 41.7813 63.251H3.87831Z" fill="#E8E8E8"/>
<path d="M41.7823 61.7539H3.87936C2.97725 61.7539 2.24609 61.0227 2.24609 60.1206V3.87863C2.24609 2.97652 2.97725 2.24536 3.87936 2.24536H41.7823C42.6845 2.24536 43.4156 2.97652 43.4156 3.87863V60.1206C43.415 61.0227 42.6839 61.7539 41.7823 61.7539Z" fill="#005289"/>
<path d="M36.6923 45.2867H8.99671C7.04118 45.2867 5.44141 43.6869 5.44141 41.7314V14.0358C5.44141 12.0802 7.04118 10.4805 8.99671 10.4805H36.6923C38.6479 10.4805 40.2476 12.0802 40.2476 14.0358V41.7314C40.2482 43.6864 38.6479 45.2867 36.6923 45.2867Z" fill="#E8E8E8"/>
<path d="M22.6578 0.000488281H3.87872C1.74011 0.000488281 0 1.74002 0 3.87921V60.1212C0 62.2598 1.73953 63.9999 3.87872 63.9999H22.6578V0.000488281Z" fill="#01579B"/>
<path d="M22.6574 0.749023H3.87831C2.15263 0.749023 0.748047 2.15358 0.748047 3.87926V60.1212C0.748047 61.8469 2.15206 63.2515 3.87831 63.2515H22.6574V0.749023Z" fill="#F4F4F4"/>
<path d="M22.6579 2.24609H3.87936C2.97725 2.24609 2.24609 2.97725 2.24609 3.87936V60.1213C2.24609 61.0234 2.97725 61.7546 3.87936 61.7546H22.6579V2.24609Z" fill="#01579B"/>
<path d="M22.6581 10.48H8.99768C7.04216 10.48 5.44238 12.0797 5.44238 14.0353V41.7309C5.44238 43.6864 7.04216 45.2862 8.99768 45.2862H22.6581V10.48Z" fill="#F4F4F4"/>
<path d="M31.999 24.0098H13.3164V30.0519H31.999V24.0098Z" fill="#F4511E"/>
<path d="M25.6787 36.3719L25.6787 17.6892H19.6366L19.6366 36.3719H25.6787Z" fill="#F4511E"/>
</svg>
