<?xml version="1.0" encoding="UTF-8" standalone="no"?>
<!-- Created with Inkscape (http://www.inkscape.org/) -->

<svg
   xmlns:dc="http://purl.org/dc/elements/1.1/"
   xmlns:cc="http://creativecommons.org/ns#"
   xmlns:rdf="http://www.w3.org/1999/02/22-rdf-syntax-ns#"
   xmlns:svg="http://www.w3.org/2000/svg"
   xmlns="http://www.w3.org/2000/svg"
   xmlns:sodipodi="http://sodipodi.sourceforge.net/DTD/sodipodi-0.dtd"
   xmlns:inkscape="http://www.inkscape.org/namespaces/inkscape"
   width="194.89964"
   height="194.89969"
   id="svg2"
   version="1.1"
   inkscape:version="0.92.3 (2405546, 2018-03-11)"
   sodipodi:docname="Moldova_road_sign 3.17.svg">
  <defs
     id="defs4" />
  <sodipodi:namedview
     id="base"
     pagecolor="#ffffff"
     bordercolor="#666666"
     borderopacity="1.0"
     inkscape:pageopacity="0.0"
     inkscape:pageshadow="2"
     inkscape:zoom="2.8284271"
     inkscape:cx="286.03015"
     inkscape:cy="128.33194"
     inkscape:document-units="px"
     inkscape:current-layer="layer1"
     showgrid="false"
     inkscape:window-width="1920"
     inkscape:window-height="1027"
     inkscape:window-x="-8"
     inkscape:window-y="-8"
     inkscape:window-maximized="1" />
  <metadata
     id="metadata7">
    <rdf:RDF>
      <cc:Work
         rdf:about="">
        <dc:format>image/svg+xml</dc:format>
        <dc:type
           rdf:resource="http://purl.org/dc/dcmitype/StillImage" />
        <dc:title></dc:title>
        <cc:license
           rdf:resource="http://creativecommons.org/licenses/by-sa/3.0/" />
        <dc:description>ГОСТ Р 52290-2004
Размеры и пропорции по типоразмеру I</dc:description>
      </cc:Work>
      <cc:License
         rdf:about="http://creativecommons.org/licenses/by-sa/3.0/">
        <cc:permits
           rdf:resource="http://creativecommons.org/ns#Reproduction" />
        <cc:permits
           rdf:resource="http://creativecommons.org/ns#Distribution" />
        <cc:requires
           rdf:resource="http://creativecommons.org/ns#Notice" />
        <cc:requires
           rdf:resource="http://creativecommons.org/ns#Attribution" />
        <cc:permits
           rdf:resource="http://creativecommons.org/ns#DerivativeWorks" />
        <cc:requires
           rdf:resource="http://creativecommons.org/ns#ShareAlike" />
      </cc:License>
    </rdf:RDF>
  </metadata>
  <g
     inkscape:label="Layer 1"
     inkscape:groupmode="layer"
     id="layer1"
     transform="translate(0.10435086,-857.4626)">
    <path
       id="path5334"
       transform="translate(-0.10435086,857.4626)"
       style="color:#000000;display:inline;overflow:visible;visibility:visible;opacity:1;fill:#ffffff;fill-opacity:1;fill-rule:nonzero;stroke:none;stroke-width:3.81820941px;marker:none;enable-background:accumulate"
       d="M 97.449219,0 C 43.629638,3.2860559e-4 3.2860559e-4,43.629638 0,97.449219 -7.4945555e-4,151.26956 43.628875,194.90006 97.449219,194.90039 151.27033,194.90114 194.90114,151.27033 194.90039,97.449219 194.90006,43.628875 151.26956,-7.4945555e-4 97.449219,0 Z"
       inkscape:connector-curvature="0"
       sodipodi:nodetypes="ccccc" />
    <path
       id="path3003"
       transform="translate(-0.10435086,857.4626)"
       style="color:#000000;display:inline;overflow:visible;visibility:visible;opacity:1;fill:none;stroke:#000000;stroke-width:0.64966547;stroke-miterlimit:4;stroke-dasharray:none;stroke-opacity:1;marker:none;enable-background:accumulate"
       d="M 97.449219,0.32421875 C 43.808559,0.32421033 0.32421033,43.808559 0.32421875,97.449219 0.32420991,151.08988 43.808559,194.57423 97.449219,194.57422 c 53.640661,1e-5 97.125011,-43.48434 97.125001,-97.125001 1e-5,-53.64066 -43.48434,-97.12500909 -97.125001,-97.12500025 z"
       inkscape:connector-curvature="0"
       sodipodi:nodetypes="sssss" />
    <path
       style="color:#000000;display:inline;overflow:visible;visibility:visible;opacity:1;fill:#ed1c24;fill-opacity:1;fill-rule:nonzero;stroke:none;stroke-width:0.32483271px;marker:none;enable-background:accumulate"
       d="m 97.345481,860.71092 c -52.026046,0 -94.2014885,42.17544 -94.2014885,94.20149 0,52.02609 42.1754425,94.20149 94.2014885,94.20149 52.026049,0 94.201489,-42.1754 94.201489,-94.20149 0,-52.02605 -42.17544,-94.20149 -94.201489,-94.20149 z m 0,15.92696 c 43.229649,0 78.274529,35.04488 78.274529,78.27453 0,43.22965 -35.04488,78.27449 -78.274529,78.27449 -43.229648,0 -78.274534,-35.04484 -78.274534,-78.27449 0,-43.22965 35.044886,-78.27453 78.274534,-78.27453 z"
       id="path4775-9"
       inkscape:connector-curvature="0" />
    <path
       style="opacity:1;fill:#000000;fill-opacity:1;stroke:none;stroke-width:0.32483271"
       d="M 25.044038,973.77364 43.905292,954.91238 25.044038,936.05113 Z"
       id="path7699"
       inkscape:connector-curvature="0"
       sodipodi:nodetypes="cccc" />
    <path
       sodipodi:nodetypes="cccc"
       inkscape:connector-curvature="0"
       id="path7701"
       d="m 169.64699,973.77364 -18.86126,-18.86126 18.86126,-18.86125 z"
       style="opacity:1;fill:#000000;fill-opacity:1;stroke:none;stroke-width:0.32483271" />
    <g
       style="font-style:normal;font-variant:normal;font-weight:normal;font-stretch:normal;font-size:293.78259277px;line-height:125%;font-family:Arial;-inkscape-font-specification:Arial;letter-spacing:-17.8064518px;word-spacing:0px;opacity:1;fill:#000000;fill-opacity:1;stroke:none"
       id="text14291"
       transform="matrix(0.32483272,0,0,0.32483272,-0.10433471,710.52056)">
      <path
         d="m 168.92287,658.88395 16.45161,18.50806 c 5.09824,-5.39194 10.32505,-10.25152 15.68044,-14.57878 5.35529,-4.32697 11.09621,-6.616 17.22279,-6.86707 7.28931,0.25108 13.05471,2.5401 17.29622,6.86708 4.24134,4.32725 6.40796,9.18683 6.49986,14.57877 -0.098,7.98111 -1.73828,14.64009 -4.92079,19.97696 -3.18269,5.33708 -7.32007,10.82095 -12.41216,16.45162 -9.18065,10.94946 -18.65501,21.51324 -28.4231,31.69139 -9.76819,10.17825 -20.27077,20.37481 -31.50777,30.58971 v 24.67742 h 98.70968 c 2.05633,-5.22681 3.59867,-10.19656 4.62701,-14.90928 1.02811,-4.71268 1.54222,-8.6542 1.54234,-11.82459 h -67.8629 c 10.6739,-11.10235 20.6134,-21.28667 29.81854,-30.55299 9.20498,-9.26621 17.08803,-17.98164 23.6492,-26.14632 5.22671,-6.03462 8.9479,-11.73882 11.16359,-17.11262 2.21546,-5.3736 3.29265,-12.98736 3.23157,-22.8413 -0.55707,-12.59562 -5.61251,-22.87787 -15.16633,-30.84677 -9.55403,-7.96859 -20.26471,-12.08149 -32.13206,-12.33871 -12.25308,0.14706 -22.7067,2.49729 -31.36089,7.05069 -8.65426,4.55372 -16.02321,10.42929 -22.10685,17.62673 z"
         style="font-family:'Russian Road Sign';-inkscape-font-specification:'Russian Road Sign';fill:#000000"
         id="path14672"
         inkscape:connector-curvature="0" />
      <path
         d="m 307.47745,766.40699 c -5.07676,0.12815 -9.30066,1.87774 -12.67172,5.24878 -3.3711,3.37111 -5.1207,7.59501 -5.24878,12.67173 0.0986,4.63262 1.58571,8.57633 4.46133,11.83116 2.87559,3.25483 6.54796,5.22953 11.01713,5.9241 l -16.06602,25.43023 h 13.51382 c 2.05948,-2.99539 5.72559,-8.82926 10.99834,-17.50165 5.27268,-8.67241 8.60829,-14.54989 10.00685,-17.63247 0.49797,-1.2647 0.93579,-2.56166 1.31346,-3.89089 0.37756,-1.3292 0.57626,-2.71603 0.5961,-4.16048 -0.12816,-5.07671 -1.87775,-9.30062 -5.24879,-12.67173 -3.37113,-3.37105 -7.59503,-5.12064 -12.67172,-5.24878 z"
         style="font-family:'Russian Road Sign';-inkscape-font-specification:'Russian Road Sign';fill:#000000"
         id="path14674"
         inkscape:connector-curvature="0" />
    </g>
    <g
       style="font-style:normal;font-variant:normal;font-weight:normal;font-stretch:normal;font-size:224.65725708px;line-height:125%;font-family:Arial;-inkscape-font-specification:Arial;letter-spacing:0px;word-spacing:0px;opacity:1;fill:#000000;fill-opacity:1;stroke:none"
       id="text14295" />
    <path
       inkscape:connector-curvature="0"
       d="m 111.90225,921.69244 3.31911,7.44546 c 1.71916,-1.51346 3.39379,-2.61244 5.02342,-3.29661 1.62953,-0.68397 3.66294,-1.0204 6.09976,-1.0091 1.63526,0.0389 3.07435,0.58877 4.31716,1.64831 1.24265,1.05977 1.89674,2.39401 1.96209,4.00306 -0.0782,1.96233 -1.1771,3.84614 -3.29662,5.6513 -2.1193,1.80544 -4.78778,3.06124 -8.006,3.76758 v 6.90718 c 0.6373,-0.3007 1.33625,-0.48383 2.09689,-0.54938 0.76059,-0.0652 1.52674,-0.0919 2.29869,-0.0782 3.94139,0.17188 6.44182,1.12868 7.50141,2.87045 1.05956,1.74185 1.51933,3.23692 1.37942,4.48512 -0.13485,2.8986 -1.23369,5.01799 -3.29662,6.35784 -2.06336,1.33991 -4.5529,2.0015 -7.46802,1.98468 -2.14183,0.0127 -4.38421,-0.19235 -6.72785,-0.61658 -2.3435,-0.42422 -4.31709,-1.1457 -5.92049,-2.16429 l 1.07639,8.79109 c 0.22068,0.0901 1.73061,0.44854 4.53008,1.07654 2.79958,0.62777 5.56552,0.98665 8.29773,1.0764 5.98951,-0.20941 10.56077,-1.98837 13.71347,-5.33738 3.15282,-3.34889 4.74113,-7.01183 4.76555,-10.98887 -0.0928,-2.71312 -0.91425,-4.9614 -2.46521,-6.74429 -1.55096,-1.78312 -3.27637,-3.14738 -5.17631,-4.09316 -1.89979,-0.94579 -3.41931,-1.51941 -4.55828,-1.72109 2.61643,-0.36628 4.91883,-1.67442 6.90731,-3.92461 1.98836,-2.24994 3.03495,-5.1279 3.13955,-8.63401 -0.16824,-3.49657 -1.62609,-6.25857 -4.37298,-8.28644 -2.74735,-2.02762 -5.77472,-3.06279 -9.08274,-3.10599 -2.67052,0.0691 -5.58219,0.58135 -8.73484,1.5363 -3.1528,0.95507 -5.5935,1.93785 -7.32207,2.94889 z"
       style="font-style:normal;font-variant:normal;font-weight:normal;font-stretch:normal;font-size:267.8605957px;line-height:125%;font-family:'Russian Road Sign';-inkscape-font-specification:'Russian Road Sign';letter-spacing:-11.15625px;word-spacing:0px;opacity:1;fill:#000000;fill-opacity:1;stroke:none;stroke-width:0.33489561"
       id="path10717" />
    <g
       id="text4575"
       style="font-style:normal;font-variant:normal;font-weight:normal;font-stretch:normal;font-size:151.27168274px;line-height:100%;font-family:'Transport Heavy';-inkscape-font-specification:'Transport Heavy,';text-align:start;letter-spacing:0px;word-spacing:0px;writing-mode:lr-tb;text-anchor:start;fill:#000000;fill-opacity:1;stroke:#000000;stroke-width:8.19553185;stroke-linecap:butt;stroke-linejoin:miter;stroke-miterlimit:4;stroke-dasharray:none;stroke-opacity:1"
       transform="matrix(0.28955767,0,0,0.3035267,4.5280121,554.86514)">
      <path
         inkscape:connector-curvature="0"
         id="path4582"
         style="font-style:normal;font-variant:normal;font-weight:500;font-stretch:normal;font-family:'Russian Road Sign';-inkscape-font-specification:'Russian Road Sign Medium';stroke:#000000;stroke-width:8.19553185;stroke-miterlimit:4;stroke-dasharray:none;stroke-opacity:1"
         d="m 383.57322,1500.5713 h -13.88627 v -46.977 q 0,-5.3181 -0.51704,-10.2669 -0.44318,-4.9489 -1.99431,-7.9034 -1.69885,-3.1761 -4.87496,-4.8011 -3.17612,-1.625 -9.15903,-1.625 -5.83519,0 -11.67038,2.9545 -5.83518,2.8807 -11.67037,7.3864 0.22159,1.6988 0.36932,3.9886 0.14772,2.2159 0.14772,4.4318 v 52.8121 h -13.88627 v -46.977 q 0,-5.4658 -0.51704,-10.3408 -0.44318,-4.9488 -1.9943,-7.9034 -1.69885,-3.1761 -4.87497,-4.7272 -3.17611,-1.625 -9.15903,-1.625 -5.68746,0 -11.44878,2.8068 -5.68746,2.8068 -11.37492,7.1647 v 61.6019 h -13.88627 v -82.5051 h 13.88627 v 9.159 q 6.49995,-5.392 12.92605,-8.4204 6.49995,-3.0284 13.8124,-3.0284 8.4204,0 14.25558,3.5455 5.90905,3.5454 8.78972,9.8237 8.42039,-7.0908 15.36353,-10.1931 6.94313,-3.1761 14.84648,-3.1761 13.59082,0 20.01691,8.2727 6.49996,8.1988 6.49996,22.9714 z" />
    </g>
  </g>
</svg>
