<?xml version="1.0" encoding="UTF-8" standalone="no"?>
<!-- Created with Inkscape (http://www.inkscape.org/) -->

<svg
   width="600"
   height="600"
   id="svg2"
   version="1.1"
   inkscape:version="1.2.2 (732a01da63, 2022-12-09)"
   sodipodi:docname="RU_road_sign_6.4_A.svg"
   xmlns:inkscape="http://www.inkscape.org/namespaces/inkscape"
   xmlns:sodipodi="http://sodipodi.sourceforge.net/DTD/sodipodi-0.dtd"
   xmlns="http://www.w3.org/2000/svg"
   xmlns:svg="http://www.w3.org/2000/svg"
   xmlns:rdf="http://www.w3.org/1999/02/22-rdf-syntax-ns#"
   xmlns:cc="http://creativecommons.org/ns#"
   xmlns:dc="http://purl.org/dc/elements/1.1/">
  <title
     id="title3006">5.15.4 Elektr quvvatlashli avtomobil qoʻyish joyi</title>
  <defs
     id="defs4" />
  <sodipodi:namedview
     id="base"
     pagecolor="#ffffff"
     bordercolor="#666666"
     borderopacity="1.0"
     inkscape:pageopacity="0.0"
     inkscape:pageshadow="2"
     inkscape:zoom="0.70710678"
     inkscape:cx="178.89802"
     inkscape:cy="365.57421"
     inkscape:document-units="px"
     inkscape:current-layer="layer1"
     showgrid="false"
     inkscape:window-width="1920"
     inkscape:window-height="991"
     inkscape:window-x="-9"
     inkscape:window-y="-9"
     inkscape:window-maximized="1"
     inkscape:snap-bbox="true"
     inkscape:bbox-paths="true"
     inkscape:bbox-nodes="true"
     inkscape:snap-bbox-edge-midpoints="true"
     inkscape:snap-bbox-midpoints="true"
     inkscape:object-paths="true"
     inkscape:snap-intersection-paths="true"
     inkscape:object-nodes="true"
     inkscape:snap-smooth-nodes="true"
     inkscape:snap-midpoints="true"
     inkscape:snap-object-midpoints="true"
     inkscape:showpageshadow="2"
     inkscape:pagecheckerboard="0"
     inkscape:deskcolor="#d1d1d1" />
  <metadata
     id="metadata7">
    <rdf:RDF>
      <cc:Work
         rdf:about="">
        <dc:format>image/svg+xml</dc:format>
        <dc:type
           rdf:resource="http://purl.org/dc/dcmitype/StillImage" />
        <dc:title>5.15.4 Elektr quvvatlashli avtomobil qoʻyish joyi</dc:title>
        <cc:license
           rdf:resource="http://creativecommons.org/licenses/by-sa/3.0/" />
        <dc:description>ГОСТ Р 52290-2004
Размеры и пропорции по типоразмеру I</dc:description>
      </cc:Work>
      <cc:License
         rdf:about="http://creativecommons.org/licenses/by-sa/3.0/">
        <cc:permits
           rdf:resource="http://creativecommons.org/ns#Reproduction" />
        <cc:permits
           rdf:resource="http://creativecommons.org/ns#Distribution" />
        <cc:requires
           rdf:resource="http://creativecommons.org/ns#Notice" />
        <cc:requires
           rdf:resource="http://creativecommons.org/ns#Attribution" />
        <cc:permits
           rdf:resource="http://creativecommons.org/ns#DerivativeWorks" />
        <cc:requires
           rdf:resource="http://creativecommons.org/ns#ShareAlike" />
      </cc:License>
    </rdf:RDF>
  </metadata>
  <g
     inkscape:label="Layer 1"
     inkscape:groupmode="layer"
     id="layer1"
     transform="translate(0,-452.36218)">
    <rect
       style="color:#000000;fill:#ffffff;fill-opacity:1;stroke:none;stroke-width:1.99999975999999990;marker:none;visibility:visible;display:inline;overflow:visible;enable-background:accumulate"
       id="rect6880"
       width="600"
       height="600"
       x="0"
       y="452.36218"
       ry="45"
       rx="45" />
    <rect
       rx="44"
       ry="44"
       y="453.36218"
       x="1"
       height="598"
       width="598"
       id="rect3844-6"
       style="color:#000000;fill:none;stroke:#000000;stroke-width:2;stroke-miterlimit:4;stroke-opacity:1;stroke-dasharray:none;marker:none;visibility:visible;display:inline;overflow:visible;enable-background:accumulate" />
    <path
       id="rect3776"
       style="color:#000000;fill:#0d69e1;fill-opacity:1;fill-rule:nonzero;stroke:none;stroke-width:3.54299997999999980;marker:none;visibility:visible;display:inline;overflow:visible;enable-background:accumulate"
       d="M 45 20 C 31.150028 20 20 31.150028 20 45 L 20 555 C 20 568.84998 31.150028 580 45 580 L 555 580 C 568.84998 580 580 568.84998 580 555 L 580 45 C 580 31.150028 568.84998 20 555 20 L 45 20 z M 54.556641 56.742188 L 165.07227 56.742188 C 218.47888 56.742188 261.77344 100.03671 261.77344 153.44336 C 261.77344 206.84997 218.47888 250.14453 165.07227 250.14453 L 96 250.14453 L 96 360.66016 L 54.556641 360.66016 L 54.556641 56.742188 z M 96 98.185547 L 96 208.70117 L 165.07227 208.70117 C 195.59033 208.70117 220.33008 183.96142 220.33008 153.44336 C 220.33008 122.92528 195.59033 98.185547 165.07227 98.185547 L 96 98.185547 z M 410.1543 153.84766 C 414.1196 153.84766 417.3125 157.04048 417.3125 161.00586 L 417.3125 208.40234 L 456.59375 208.40234 L 456.59375 161.00586 C 456.59375 157.04048 459.78462 153.84766 463.75 153.84766 C 467.71538 153.84766 470.9082 157.04048 470.9082 161.00586 L 470.9082 208.40234 L 485.41992 208.40234 C 489.10863 208.40234 492.50904 211.39903 492.07812 215.0625 L 484.22656 281.81055 C 483.79564 285.474 481.25896 288.46875 477.57031 288.46875 L 443.57617 288.46875 L 443.57617 314.79883 L 443.57617 323.25977 L 443.57617 361.06445 C 443.57617 370.18957 450.92369 377.5332 460.04883 377.5332 L 462.98828 377.5332 L 463.79102 377.5332 C 492.88744 377.5332 516.72656 401.3782 516.72656 430.47461 C 516.72656 457.89796 495.54573 480.6321 468.75 483.1582 L 468.75 496.06055 C 468.75 501.33119 464.50698 505.57617 459.23633 505.57617 L 446.05078 505.57617 C 443.19725 487.62246 427.59732 473.83984 408.85742 473.83984 C 390.1174 473.83984 374.51917 487.62246 371.66602 505.57617 L 175.97852 505.57617 C 173.1249 487.62248 157.52515 473.83984 138.78516 473.83984 C 120.04516 473.83984 104.44538 487.62248 101.5918 505.57617 L 85.164062 505.57617 C 79.893334 505.57617 75.650391 501.33119 75.650391 496.06055 L 75.650391 456.85938 C 75.650391 451.58858 79.911852 447.78725 85.164062 447.3457 L 179.82031 439.38867 L 239.67969 382.66797 L 394.60352 382.66797 L 461.73633 438.44336 C 461.73633 438.44336 468.75 445.071 468.75 450.3418 L 468.75 469.73828 C 488.32697 467.30734 503.39453 450.73077 503.39453 430.47461 C 503.39453 408.53418 485.73153 390.86719 463.79102 390.86719 L 461.75586 390.86719 L 460.04883 390.86719 C 443.76767 390.86719 430.24219 377.34557 430.24219 361.06445 L 430.24219 321.3457 L 430.24219 288.46875 L 396.33594 288.46875 C 392.64729 288.46875 390.11067 285.474 389.67969 281.81055 L 381.82617 215.0625 C 381.39519 211.39903 384.79567 208.40234 388.48438 208.40234 L 402.99805 208.40234 L 402.99805 161.00586 C 402.99805 157.04048 406.18893 153.84766 410.1543 153.84766 z M 244.22656 396.5957 L 205.51758 432.94727 C 205.51758 432.94727 202.39539 437.69891 203.03906 440.15625 C 203.80591 443.08375 205.90122 446.18945 209.82031 446.18945 L 306.7832 446.18945 L 306.7832 396.5957 L 244.22656 396.5957 z M 323.67773 396.5957 L 323.67773 446.18945 L 408.73828 446.18945 C 412.65735 446.18945 415.8125 443.03239 415.8125 439.11328 L 377.29492 396.5957 L 323.67773 396.5957 z M 138.78516 477.54297 A 33.957604 33.957604 0 0 1 172.74219 511.50195 A 33.957604 33.957604 0 0 1 138.78516 545.45898 A 33.957604 33.957604 0 0 1 104.82617 511.50195 A 33.957604 33.957604 0 0 1 138.78516 477.54297 z M 408.85742 477.54297 A 33.957604 33.957604 0 0 1 442.81445 511.50195 A 33.957604 33.957604 0 0 1 408.85742 545.45898 A 33.957604 33.957604 0 0 1 374.90234 511.50195 A 33.957604 33.957604 0 0 1 408.85742 477.54297 z M 138.78516 496.49219 A 15.007258 15.007258 0 0 0 123.77539 511.50195 A 15.007258 15.007258 0 0 0 138.78516 526.50781 A 15.007258 15.007258 0 0 0 153.79102 511.50195 A 15.007258 15.007258 0 0 0 138.78516 496.49219 z M 408.85742 496.49219 A 15.007258 15.007258 0 0 0 393.85156 511.50195 A 15.007258 15.007258 0 0 0 408.85742 526.50781 A 15.007258 15.007258 0 0 0 423.86523 511.50195 A 15.007258 15.007258 0 0 0 408.85742 496.49219 z "
       transform="translate(0,452.36218)" />
  </g>
</svg>
