<svg width="64" height="64" viewBox="0 0 64 64" fill="none" xmlns="http://www.w3.org/2000/svg">
<path d="M6.45838 63.9992C2.89767 63.9992 0 61.1015 0 57.54V6.45839C0 2.89768 2.89767 0 6.45838 0H57.5392C61.1007 0 63.9984 2.89768 63.9984 6.45839V57.54C63.9984 61.1015 61.1007 63.9992 57.5392 63.9992H6.45838Z" fill="#005289"/>
<path d="M6.45769 63.1186C3.38166 63.1186 0.879883 60.6161 0.879883 57.54V6.45842C0.879883 3.38319 3.38166 0.880615 6.45769 0.880615H57.5385C60.6145 0.880615 63.1171 3.38239 63.1171 6.45842V57.54C63.1171 60.6153 60.6145 63.1186 57.5385 63.1186H6.45769Z" fill="#E8E8E8"/>
<path d="M57.5399 61.3575H6.45825C4.35077 61.3575 2.6416 59.6491 2.6416 57.5408V6.45923C2.6416 4.35175 4.34997 2.64258 6.45825 2.64258H57.5399C59.6473 2.64258 61.3565 4.35095 61.3565 6.45923V57.5408C61.3557 59.6483 59.6473 61.3575 57.5399 61.3575Z" fill="#005289"/>
<path d="M31.7057 0.000976562H6.45838C2.89767 0.000976562 0 2.89866 0 6.45937V57.541C0 61.1025 2.89767 64.0002 6.45838 64.0002H31.7057V0.000976562Z" fill="#01579B"/>
<path d="M31.705 0.881348H6.45769C3.38166 0.881348 0.879883 3.38312 0.879883 6.45915V57.5408C0.879883 60.616 3.38166 63.1194 6.45769 63.1194H31.705V0.881348Z" fill="#F5F5F5"/>
<path d="M31.7055 2.64331H6.45825C4.35077 2.64331 2.6416 4.35166 2.6416 6.45993V57.5416C2.6416 59.649 4.34997 61.3582 6.45825 61.3582H31.7055V2.64331Z" fill="#01579B"/>
<path d="M32.8811 4.40454H31.1191V10.4078H32.8811V4.40454Z" fill="#E8E8E8"/>
<path d="M32.8811 12.5801H31.1191V18.5834H32.8811V12.5801Z" fill="#E8E8E8"/>
<path d="M32.8811 20.7563H31.1191V26.7597H32.8811V20.7563Z" fill="#E8E8E8"/>
<path d="M49.9747 17.8604H44.6152V61.9813H49.9747V17.8604Z" fill="#E8E8E8"/>
<path d="M19.8508 17.8586V35.755L14.4961 31.9679V17.8586H19.8508Z" fill="#E8E8E8"/>
<path d="M49.9712 50.4538L46.88 54.8399L19.8508 35.7551L14.4961 31.9681V25.3977L19.8508 29.1848L49.9712 50.4538Z" fill="#E8E8E8"/>
<path d="M47.296 10.395L51.6061 17.8603L55.9163 25.3257H47.296H38.6758L42.9859 17.8603L47.296 10.395Z" fill="#E8E8E8"/>
<path d="M17.174 10.395L21.4833 17.8603L25.7934 25.3257H17.174H8.55371L12.8638 17.8603L17.174 10.395Z" fill="#E8E8E8"/>
</svg>
