<?xml version="1.0" encoding="UTF-8" standalone="no"?>
<!-- Created with Inkscape (http://www.inkscape.org/) -->

<svg
   width="700"
   height="1050"
   id="svg2"
   version="1.1"
   inkscape:version="1.2.2 (732a01da63, 2022-12-09)"
   sodipodi:docname="RU_road_sign_7.3.svg"
   xml:space="preserve"
   xmlns:inkscape="http://www.inkscape.org/namespaces/inkscape"
   xmlns:sodipodi="http://sodipodi.sourceforge.net/DTD/sodipodi-0.dtd"
   xmlns="http://www.w3.org/2000/svg"
   xmlns:svg="http://www.w3.org/2000/svg"
   xmlns:rdf="http://www.w3.org/1999/02/22-rdf-syntax-ns#"
   xmlns:cc="http://creativecommons.org/ns#"
   xmlns:dc="http://purl.org/dc/elements/1.1/"><title
     id="title3002">6.21 Ibodatxona</title><defs
     id="defs4" /><sodipodi:namedview
     id="base"
     pagecolor="#ffffff"
     bordercolor="#666666"
     borderopacity="1.0"
     inkscape:pageopacity="0.0"
     inkscape:pageshadow="2"
     inkscape:zoom="0.25"
     inkscape:cx="-642"
     inkscape:cy="486"
     inkscape:document-units="px"
     inkscape:current-layer="layer1"
     showgrid="false"
     inkscape:window-width="1920"
     inkscape:window-height="991"
     inkscape:window-x="-9"
     inkscape:window-y="-9"
     inkscape:window-maximized="1"
     inkscape:showpageshadow="2"
     inkscape:pagecheckerboard="0"
     inkscape:deskcolor="#d1d1d1" /><metadata
     id="metadata7"><rdf:RDF><cc:Work
         rdf:about=""><dc:format>image/svg+xml</dc:format><dc:type
           rdf:resource="http://purl.org/dc/dcmitype/StillImage" /><dc:title>6.21 Ibodatxona</dc:title><cc:license
           rdf:resource="http://creativecommons.org/licenses/by-sa/3.0/" /><dc:description>ГОСТ Р 52290-2004
Размеры и пропорции по типоразмеру II</dc:description></cc:Work><cc:License
         rdf:about="http://creativecommons.org/licenses/by-sa/3.0/"><cc:permits
           rdf:resource="http://creativecommons.org/ns#Reproduction" /><cc:permits
           rdf:resource="http://creativecommons.org/ns#Distribution" /><cc:requires
           rdf:resource="http://creativecommons.org/ns#Notice" /><cc:requires
           rdf:resource="http://creativecommons.org/ns#Attribution" /><cc:permits
           rdf:resource="http://creativecommons.org/ns#DerivativeWorks" /><cc:requires
           rdf:resource="http://creativecommons.org/ns#ShareAlike" /></cc:License></rdf:RDF></metadata><g
     inkscape:label="Layer 1"
     inkscape:groupmode="layer"
     id="layer1"
     transform="translate(0,-2.362183)"><rect
       style="color:#000000;fill:#ffffff;fill-opacity:1;fill-rule:nonzero;stroke:none;stroke-width:3.54299997999999980;marker:none;visibility:visible;display:inline;overflow:visible;enable-background:accumulate;opacity:1"
       id="rect10481"
       width="700"
       height="1050"
       x="0"
       y="2.3621831"
       rx="45"
       ry="45" /><path
       inkscape:connector-curvature="0"
       style="color:#000000;fill:#0d69e1;fill-opacity:1;fill-rule:nonzero;stroke:none;stroke-width:3.54299997999999980;marker:none;visibility:visible;display:inline;overflow:visible;enable-background:accumulate;opacity:1"
       d="m 45.000009,22.362155 c -13.85,0 -25,11.15 -25,25 l 0,960.000045 c 0,13.85 11.15,25 25,25 l 610.000001,0 c 13.85,0 25,-11.15 25,-25 l 0,-960.000045 c 0,-13.85 -11.15,-25 -25,-25 l -610.000001,0 z m 65.625001,155.000005 478.75,0 c 24.93,0 45,20.07 45,45 l 0,478.75 c 0,24.93 -20.07,45 -45,45 l -478.75,0 c -24.930001,0 -45.000001,-20.07 -45.000001,-45 l 0,-478.75 c 0,-24.93 20.07,-45 45.000001,-45 z"
       id="rect10483" /><rect
       ry="44"
       rx="44"
       y="3.3621678"
       x="1.0000153"
       height="1048"
       width="698"
       id="rect10490"
       style="color:#000000;fill:none;stroke:#000000;stroke-width:1.99999988000000010;stroke-miterlimit:4;stroke-opacity:1;stroke-dasharray:none;marker:none;visibility:visible;display:inline;overflow:visible;enable-background:accumulate;opacity:1" /><g
       aria-label="300m"
       id="text5762"
       style="font-size:190.338px;line-height:1.5;font-family:'Russian Road Sign';-inkscape-font-specification:'Russian Road Sign';fill:#ffffff;fill-rule:evenodd;stroke-width:44.8854;stroke-linecap:round;stroke-linejoin:round;paint-order:stroke fill markers"><path
         d="m 155.76006,841.76231 7.04251,15.79805 c 7.61352,-6.47149 12.94298,-9.13622 23.60191,-9.13622 6.66183,0 13.32366,5.32946 13.32366,11.99129 0,7.9942 -10.65893,17.32076 -23.98259,19.98549 v 14.65603 c 2.66473,-1.33237 6.09082,-1.33237 9.32656,-1.33237 17.32076,0 18.84347,11.03961 18.84347,15.60772 -0.19034,12.37197 -10.84927,17.70143 -22.84056,17.70143 -8.75555,0 -20.36617,-1.5227 -26.83766,-5.90048 l 2.28405,18.65313 c 0,0 16.55941,4.56811 27.21834,4.56811 25.31495,0 39.20963,-18.65312 39.20963,-34.64152 0,-17.32075 -19.22414,-25.31495 -25.88597,-26.64731 10.65893,-1.33237 21.31785,-11.9913 21.31785,-26.64732 0,-14.65603 -15.22704,-24.17293 -28.5507,-24.17293 -10.65892,0 -27.40867,5.5198 -34.0705,9.5169 z"
         id="path6231"
         style="fill:#ffffff" /><path
         d="m 284.61905,833.76811 c -21.31785,0 -35.97388,22.65023 -35.97388,54.62701 0,31.97678 14.65603,54.627 35.97388,54.627 21.31786,0 35.97388,-22.65022 35.97388,-54.627 0,-30.26374 -14.65602,-54.62701 -35.97388,-54.62701 z m 0,16.55941 c 10.27825,0 17.32076,11.42028 17.32076,38.0676 0,26.64732 -7.04251,38.0676 -17.32076,38.0676 -10.27825,0 -17.32076,-11.42028 -17.32076,-38.0676 0,-26.64732 7.04251,-38.0676 17.32076,-38.0676 z"
         id="path6233"
         style="fill:#ffffff" /><path
         d="m 380.54934,833.76811 c -21.31785,0 -35.97388,22.65023 -35.97388,54.62701 0,31.97678 14.65603,54.627 35.97388,54.627 21.31786,0 35.97388,-22.65022 35.97388,-54.627 0,-30.26374 -14.65602,-54.62701 -35.97388,-54.62701 z m 0,16.55941 c 10.27825,0 17.32076,11.42028 17.32076,38.0676 0,26.64732 -7.04251,38.0676 -17.32076,38.0676 -10.27825,0 -17.32075,-11.42028 -17.32075,-38.0676 0,-26.64732 7.0425,-38.0676 17.32075,-38.0676 z"
         id="path6235"
         style="fill:#ffffff" /><path
         d="m 481.8091,865.7449 c -13.32366,0 -20.93718,10.08791 -20.93718,10.08791 -1.33236,-1.90338 -2.09371,-5.32946 -2.66473,-8.75555 h -13.70433 v 74.6125 h 15.98839 v -47.96518 c 3.9971,-7.99419 9.5169,-14.65602 17.32076,-14.65602 7.99419,0 9.32656,6.66183 9.32656,10.65893 v 51.96227 h 15.98839 v -47.96518 c 3.9971,-7.99419 9.5169,-14.65602 17.32076,-14.65602 7.99419,0 9.32656,6.66183 9.32656,10.65893 v 51.96227 h 15.98839 v -53.29464 c 0,-13.32366 -6.66183,-22.65022 -21.31785,-22.65022 -9.89758,0 -19.98549,5.32946 -22.65023,13.32366 -2.66473,-7.9942 -9.70723,-13.32366 -19.98549,-13.32366 z"
         id="path6237"
         style="fill:#ffffff" /></g><g
       id="g3480"
       style="fill:#000000"
       transform="matrix(1.12095,0,0,1.12095,-1858.4129,255.0286)"><g
         id="g2662"
         transform="matrix(1.0106443,0,0,1.0106443,1796.8053,54.809442)"
         style="fill:#000000"><path
           style="fill:#000000;fill-rule:evenodd;stroke-width:2.92764;stroke-linecap:round;stroke-linejoin:round;paint-order:stroke fill markers"
           d="m 356.47908,119.01749 c -3.77814,17.33792 -10.43635,32.84081 -18.73361,45.59429 -6.10255,9.3802 -16.39969,19.52347 -26.46712,28.08073 -13.67273,11.62167 -26.70325,20.15043 -26.70325,20.15043 a 8.4331327,8.4331327 0 0 1 -0.35421,0.13774 c -6.76673,4.30237 -14.79077,6.82832 -23.43668,6.82832 h -7.16285 -9.78004 c -14.41454,0 -26.01452,10.69035 -26.01452,23.98767 0,13.29721 11.59998,24.00735 26.01452,24.00735 h 52.0684 8.52064 79.28328 v -18.81231 c 0,-16.16986 -13.01272,-29.18271 -29.1827,-29.18271 h -24.06638 c 14.41452,0 26.01452,-11.61965 26.01452,-26.0342 z"
           id="path2654" /><path
           style="fill:#000000;fill-rule:evenodd;stroke-width:2.92764;stroke-linecap:round;stroke-linejoin:round;paint-order:stroke fill markers"
           d="m 292.72185,-13.751022 a 34.662927,34.662927 0 0 0 -34.67291,34.653232 34.662927,34.662927 0 0 0 33.98418,34.613875 l 0.0984,0.05903 h 0.59034 1.39715 c 5.71707,0 10.31136,4.594292 10.31136,10.311354 v 11.629789 3.364965 81.900487 13.36147 c 0,4.48036 -0.66624,8.78675 -1.90878,12.84983 1.09781,-0.90112 2.1931,-1.78939 3.30593,-2.73526 9.66066,-8.21144 19.68849,-18.31163 24.85351,-26.25066 12.20878,-18.76573 20.79954,-44.30235 20.79981,-72.986283 1.4e-4,-9.786566 -1.05086,-19.240271 -2.95173,-28.218474 0,0 -6.24332,-22.077612 -11.21655,-32.350888 C 332.87981,17.2951 320.90097,0.71242227 320.90097,0.71242227 A 34.662927,34.662927 0 0 0 292.72185,-13.751022 Z"
           id="path2650" /></g><g
         id="g2658"
         transform="matrix(0.90319616,0,0,0.90319616,1815.0468,83.584508)"
         style="fill:#000000"><path
           style="fill:#000000;fill-rule:evenodd;stroke-width:3.27592;stroke-linecap:round;stroke-linejoin:round;paint-order:stroke fill markers"
           d="m 55.087497,25.769496 c -16.129498,0 -29.131339,12.979821 -29.131339,29.10932 v 95.408994 14.951 c 0,27.06321 -21.7752574,48.8605 -48.838481,48.8605 h -8.014971 -10.943519 c -16.129501,0 -29.109321,11.96196 -29.109321,26.84134 0,14.87926 12.97982,26.86337 29.109321,26.86337 h 58.262678 9.534293 88.715172 v -21.0503 c 0,-18.09366 -14.56077,-32.65441 -32.654409,-32.65441 H 55.087497 c 16.129501,0 29.109321,-13.00183 29.109321,-29.13134 V 54.878816 c 0,-16.129499 -12.97982,-29.10932 -29.109321,-29.10932 z"
           id="path2652" /><path
           style="fill:#000000;fill-rule:evenodd;stroke-width:3.27592;stroke-linecap:round;stroke-linejoin:round;paint-order:stroke fill markers"
           d="M 12.854762,-47.246015 A 38.786576,38.786576 0 0 0 -25.942985,-8.4702861 38.786576,38.786576 0 0 0 12.854762,30.327461 38.786576,38.786576 0 0 0 51.630491,-8.4702861 38.786576,38.786576 0 0 0 12.854762,-47.246015 Z"
           id="path2648" /></g><path
         style="fill:#000000;fill-rule:evenodd;stroke-width:2.61067;stroke-linecap:round;stroke-linejoin:round;paint-order:stroke fill markers"
         d="m 1970.0367,40.912052 c -5.5773,0 -10.0724,4.494972 -10.0724,10.072292 V 315.39172 c 0,5.57731 4.4951,10.07238 10.0724,10.07238 5.5774,0 10.0723,-4.49507 10.0723,-10.07238 V 50.984344 c 0,-5.57732 -4.4949,-10.072292 -10.0723,-10.072292 z"
         id="circle10747" /><rect
         style="fill:#000000;fill-rule:evenodd;stroke-width:2.55086;stroke-linecap:round;stroke-linejoin:round;paint-order:stroke fill markers"
         id="rect10757"
         width="2.2022378"
         height="1.2584215"
         x="1941.1196"
         y="33.490993"
         ry="0.44010019"
         rx="0.44010019" /></g></g></svg>
