<?xml version="1.0" encoding="UTF-8" standalone="no"?>
<svg
   xmlns:dc="http://purl.org/dc/elements/1.1/"
   xmlns:cc="http://creativecommons.org/ns#"
   xmlns:rdf="http://www.w3.org/1999/02/22-rdf-syntax-ns#"
   xmlns:svg="http://www.w3.org/2000/svg"
   xmlns="http://www.w3.org/2000/svg"
   width="84.666649mm"
   height="169.33333mm"
   viewBox="0 0 299.99994 599.99996"
   id="svg2"
   version="1.1">
  <defs
     id="defs4">
    <clipPath
       clipPathUnits="userSpaceOnUse"
       id="clipPath13619">
      <path
         d="m 60.025,220.275 105.35,0 0,-129.6 -105.35,0 0,129.6 z"
         id="path13621" />
    </clipPath>
    <clipPath
       clipPathUnits="userSpaceOnUse"
       id="clipPath13627">
      <path
         d="m 60.025,90.675 105.35,0 0,129.6 -105.35,0 0,-129.6 z"
         id="path13629" />
    </clipPath>
    <clipPath
       clipPathUnits="userSpaceOnUse"
       id="clipPath13635">
      <path
         d="m 60.025,220.275 105.35,0 0,-129.6 -105.35,0 0,129.6 z"
         id="path13637" />
    </clipPath>
    <clipPath
       clipPathUnits="userSpaceOnUse"
       id="clipPath13645">
      <path
         d="m -0.569,-0.7 5.381,0 0,6.34301 -5.381,0 0,-6.34301 z"
         id="path13647" />
    </clipPath>
    <clipPath
       clipPathUnits="userSpaceOnUse"
       id="clipPath13653">
      <path
         d="M 0,1 1,1 1,0 0,0 0,1 Z"
         id="path13655" />
    </clipPath>
  </defs>
  <metadata
     id="metadata7">
    <rdf:RDF>
      <cc:Work
         rdf:about="">
        <dc:format>image/svg+xml</dc:format>
        <dc:type
           rdf:resource="http://purl.org/dc/dcmitype/StillImage" />
        <dc:title></dc:title>
      </cc:Work>
    </rdf:RDF>
  </metadata>
  <path
     style="color:#000000;display:inline;overflow:visible;visibility:visible;opacity:1;fill:#000000;fill-opacity:1;fill-rule:nonzero;stroke:none;stroke-width:3.54299998;marker-start:none;marker-mid:none;marker-end:none;enable-background:accumulate"
     d="m 299.99995,44.999985 0,509.999995 c 0,24.93 -20.07,45 -45,45 l -210,0 C 20.07,599.99998 0,579.92998 0,554.99998 L 0,44.999985 C 0,20.069985 20.07,-1.5258789e-5 44.99995,-1.5258789e-5 l 210,0 c 24.93,0 45,20.070000258789 45,45.000000258789 z"
     id="rect5622-3" />
  <path
     style="color:#000000;display:inline;overflow:visible;visibility:visible;opacity:1;fill:#ffffff;fill-opacity:1;fill-rule:nonzero;stroke:none;stroke-width:3.54299998;marker-start:none;marker-mid:none;marker-end:none;enable-background:accumulate"
     d="m 289.99995,44.999985 0,509.999995 c 0,19.39 -15.61,35 -35,35 l -210,0 C 25.61,589.99998 10,574.38998 10,554.99998 L 10,44.999985 c 0,-19.39 15.61,-35.0000003 34.99995,-35.0000003 l 210,0 c 19.39,0 35,15.6100003 35,35.0000003 z"
     id="rect9537-8" />
  <path
     d="m 166.93886,129.59378 31.31108,0 -46.96661,-79.499995 -46.96662,79.499995 31.31108,0 0,99 31.31107,0 z"
     style="color:#000000;display:inline;overflow:visible;visibility:visible;opacity:1;fill:#000000;fill-opacity:1;fill-rule:nonzero;stroke:none;stroke-width:1px;marker-start:none;marker-mid:none;marker-end:none;enable-background:accumulate"
     id="path10842" />
  <path
     d="m 201.44262,534.68475 -12.27223,0 0,-45.13216 q 0,-5.10925 -0.45695,-9.86371 -0.39166,-4.75456 -1.76249,-7.59302 -1.5014,-3.05137 -4.30835,-4.61256 -2.80695,-1.56118 -8.09445,-1.56118 -5.15694,0 -10.3139,2.83846 -5.15694,2.76759 -10.31389,7.09634 0.19583,1.63208 0.32639,3.83196 0.13058,2.12888 0.13058,4.25776 l 0,50.73811 -12.27223,0 0,-45.13216 q 0,-5.25115 -0.45694,-9.93471 -0.39167,-4.75445 -1.7625,-7.59303 -1.5014,-3.05136 -4.30834,-4.54155 -2.80695,-1.56118 -8.09446,-1.56118 -5.02639,0 -10.11807,2.69656 -5.02638,2.69658 -10.05277,6.88335 l 0,59.18272 -12.27224,0 0,-79.26503 12.27224,0 0,8.79931 q 5.74444,-5.18025 11.42362,-8.08972 5.74445,-2.90947 12.20695,-2.90947 7.44167,0 12.59861,3.40626 5.22223,3.40617 7.76808,9.43792 7.44167,-6.81234 13.57779,-9.79281 6.13611,-3.05137 13.12084,-3.05137 12.01111,0 17.69029,7.94783 5.74445,7.87682 5.74445,22.06928 l 0,51.4478 z"
     style="font-style:normal;font-variant:normal;font-weight:500;font-stretch:normal;font-size:medium;line-height:100%;font-family:'Russian Road Sign';-inkscape-font-specification:'Russian Road Sign Medium';text-align:start;letter-spacing:0px;word-spacing:0px;writing-mode:lr-tb;text-anchor:start;fill:#000000;fill-opacity:1;stroke:#000000;stroke-width:6.99999952;stroke-linecap:butt;stroke-linejoin:miter;stroke-miterlimit:4;stroke-dasharray:none;stroke-opacity:1"
     id="path4582" />
  <g
     id="text4240"
     style="font-style:normal;font-variant:normal;font-weight:normal;font-stretch:normal;font-size:212.14830017px;line-height:100%;font-family:'Transport Heavy';-inkscape-font-specification:'Transport Heavy,';text-align:start;letter-spacing:0px;word-spacing:0px;writing-mode:lr-tb;text-anchor:start;fill:#000000;fill-opacity:1;stroke:none;stroke-width:1px;stroke-linecap:butt;stroke-linejoin:miter;stroke-opacity:1"
     transform="scale(0.97147329,1.0293644)">
    <path
       id="path4245"
       style="font-style:normal;font-variant:normal;font-weight:500;font-stretch:normal;font-family:'Russian Road Sign';-inkscape-font-specification:'Russian Road Sign Medium'"
       d="m 67.550668,286.92376 11.880305,13.36534 c 7.42519,-7.42519 14.850381,-15.48682 23.760607,-15.48682 10.39527,0 17.18401,8.06163 17.18401,15.48682 0,11.88031 -5.3037,17.82046 -12.51675,26.30639 -13.365338,15.91112 -26.942829,30.12506 -43.278248,44.97544 l 0,17.82046 71.281828,0 c 2.97008,-7.42519 4.45511,-14.85038 4.45511,-19.3055 l -49.006253,0 c 15.274683,-16.12327 29.276463,-29.06431 38.610993,-40.94462 7.63734,-9.33452 10.39526,-14.00179 10.39526,-28.85217 0,-17.82046 -17.82045,-31.1858 -34.15587,-31.1858 -17.820459,0 -29.700764,7.63734 -38.610992,17.82046 z" />
    <path
       id="path4247"
       style="font-style:normal;font-variant:normal;font-weight:500;font-stretch:normal;font-family:'Russian Road Sign';-inkscape-font-specification:'Russian Road Sign Medium'"
       d="m 210.16405,269.1033 c -23.76061,0 -40.09603,25.24565 -40.09603,60.88656 0,35.64092 16.33542,60.88657 40.09603,60.88657 23.76061,0 40.09603,-25.24565 40.09603,-60.88657 0,-33.73158 -16.33542,-60.88656 -40.09603,-60.88656 z m 0,18.4569 c 11.456,0 19.30549,12.7289 19.30549,42.42966 0,29.70077 -7.84949,42.42966 -19.30549,42.42966 -11.45601,0 -19.3055,-12.72889 -19.3055,-42.42966 0,-29.70076 7.84949,-42.42966 19.3055,-42.42966 z" />
  </g>
</svg>
