<?xml version="1.0" encoding="UTF-8" standalone="no"?>
<!-- Created with Inkscape (http://www.inkscape.org/) -->

<svg
   width="700"
   height="1050"
   id="svg2"
   version="1.1"
   inkscape:version="1.2.2 (732a01da63, 2022-12-09)"
   sodipodi:docname="UZ road sign 6.20.svg"
   xml:space="preserve"
   xmlns:inkscape="http://www.inkscape.org/namespaces/inkscape"
   xmlns:sodipodi="http://sodipodi.sourceforge.net/DTD/sodipodi-0.dtd"
   xmlns="http://www.w3.org/2000/svg"
   xmlns:svg="http://www.w3.org/2000/svg"
   xmlns:rdf="http://www.w3.org/1999/02/22-rdf-syntax-ns#"
   xmlns:cc="http://creativecommons.org/ns#"
   xmlns:dc="http://purl.org/dc/elements/1.1/"><title
     id="title3002">6.20 Cherkov</title><defs
     id="defs4" /><sodipodi:namedview
     id="base"
     pagecolor="#ffffff"
     bordercolor="#666666"
     borderopacity="1.0"
     inkscape:pageopacity="0.0"
     inkscape:pageshadow="2"
     inkscape:zoom="0.76285714"
     inkscape:cx="663.95131"
     inkscape:cy="378.18352"
     inkscape:document-units="px"
     inkscape:current-layer="layer1"
     showgrid="false"
     inkscape:window-width="1920"
     inkscape:window-height="991"
     inkscape:window-x="-9"
     inkscape:window-y="-9"
     inkscape:window-maximized="1"
     inkscape:showpageshadow="2"
     inkscape:pagecheckerboard="0"
     inkscape:deskcolor="#d1d1d1"
     showguides="true" /><metadata
     id="metadata7"><rdf:RDF><cc:Work
         rdf:about=""><dc:format>image/svg+xml</dc:format><dc:type
           rdf:resource="http://purl.org/dc/dcmitype/StillImage" /><dc:title>6.20 Cherkov</dc:title><cc:license
           rdf:resource="http://creativecommons.org/licenses/by-sa/3.0/" /><dc:description>ГОСТ Р 52290-2004
Размеры и пропорции по типоразмеру II</dc:description></cc:Work><cc:License
         rdf:about="http://creativecommons.org/licenses/by-sa/3.0/"><cc:permits
           rdf:resource="http://creativecommons.org/ns#Reproduction" /><cc:permits
           rdf:resource="http://creativecommons.org/ns#Distribution" /><cc:requires
           rdf:resource="http://creativecommons.org/ns#Notice" /><cc:requires
           rdf:resource="http://creativecommons.org/ns#Attribution" /><cc:permits
           rdf:resource="http://creativecommons.org/ns#DerivativeWorks" /><cc:requires
           rdf:resource="http://creativecommons.org/ns#ShareAlike" /></cc:License></rdf:RDF></metadata><g
     inkscape:label="Layer 1"
     inkscape:groupmode="layer"
     id="layer1"
     transform="translate(0,-2.362183)"><rect
       style="color:#000000;fill:#ffffff;fill-opacity:1;fill-rule:nonzero;stroke:none;stroke-width:3.54299997999999980;marker:none;visibility:visible;display:inline;overflow:visible;enable-background:accumulate;opacity:1"
       id="rect10481"
       width="700"
       height="1050"
       x="0"
       y="2.3621831"
       rx="45"
       ry="45" /><path
       inkscape:connector-curvature="0"
       style="color:#000000;fill:#0d69e1;fill-opacity:1;fill-rule:nonzero;stroke:none;stroke-width:3.54299997999999980;marker:none;visibility:visible;display:inline;overflow:visible;enable-background:accumulate;opacity:1"
       d="m 45.000009,22.362155 c -13.85,0 -25,11.15 -25,25 l 0,960.000045 c 0,13.85 11.15,25 25,25 l 610.000001,0 c 13.85,0 25,-11.15 25,-25 l 0,-960.000045 c 0,-13.85 -11.15,-25 -25,-25 l -610.000001,0 z m 65.625001,155.000005 478.75,0 c 24.93,0 45,20.07 45,45 l 0,478.75 c 0,24.93 -20.07,45 -45,45 l -478.75,0 c -24.930001,0 -45.000001,-20.07 -45.000001,-45 l 0,-478.75 c 0,-24.93 20.07,-45 45.000001,-45 z"
       id="rect10483" /><rect
       ry="44"
       rx="44"
       y="3.3621678"
       x="1.0000153"
       height="1048"
       width="698"
       id="rect10490"
       style="color:#000000;fill:none;stroke:#000000;stroke-width:1.99999988000000010;stroke-miterlimit:4;stroke-opacity:1;stroke-dasharray:none;marker:none;visibility:visible;display:inline;overflow:visible;enable-background:accumulate;opacity:1" /><g
       aria-label="300m"
       id="text5762"
       style="font-size:190.338px;line-height:1.5;font-family:'Russian Road Sign';-inkscape-font-specification:'Russian Road Sign';fill:#ffffff;fill-rule:evenodd;stroke-width:44.8854;stroke-linecap:round;stroke-linejoin:round;paint-order:stroke fill markers"><path
         d="m 155.76006,841.76231 7.04251,15.79805 c 7.61352,-6.47149 12.94298,-9.13622 23.60191,-9.13622 6.66183,0 13.32366,5.32946 13.32366,11.99129 0,7.9942 -10.65893,17.32076 -23.98259,19.98549 v 14.65603 c 2.66473,-1.33237 6.09082,-1.33237 9.32656,-1.33237 17.32076,0 18.84347,11.03961 18.84347,15.60772 -0.19034,12.37197 -10.84927,17.70143 -22.84056,17.70143 -8.75555,0 -20.36617,-1.5227 -26.83766,-5.90048 l 2.28405,18.65313 c 0,0 16.55941,4.56811 27.21834,4.56811 25.31495,0 39.20963,-18.65312 39.20963,-34.64152 0,-17.32075 -19.22414,-25.31495 -25.88597,-26.64731 10.65893,-1.33237 21.31785,-11.9913 21.31785,-26.64732 0,-14.65603 -15.22704,-24.17293 -28.5507,-24.17293 -10.65892,0 -27.40867,5.5198 -34.0705,9.5169 z"
         id="path6231"
         style="fill:#ffffff" /><path
         d="m 284.61905,833.76811 c -21.31785,0 -35.97388,22.65023 -35.97388,54.62701 0,31.97678 14.65603,54.627 35.97388,54.627 21.31786,0 35.97388,-22.65022 35.97388,-54.627 0,-30.26374 -14.65602,-54.62701 -35.97388,-54.62701 z m 0,16.55941 c 10.27825,0 17.32076,11.42028 17.32076,38.0676 0,26.64732 -7.04251,38.0676 -17.32076,38.0676 -10.27825,0 -17.32076,-11.42028 -17.32076,-38.0676 0,-26.64732 7.04251,-38.0676 17.32076,-38.0676 z"
         id="path6233"
         style="fill:#ffffff" /><path
         d="m 380.54934,833.76811 c -21.31785,0 -35.97388,22.65023 -35.97388,54.62701 0,31.97678 14.65603,54.627 35.97388,54.627 21.31786,0 35.97388,-22.65022 35.97388,-54.627 0,-30.26374 -14.65602,-54.62701 -35.97388,-54.62701 z m 0,16.55941 c 10.27825,0 17.32076,11.42028 17.32076,38.0676 0,26.64732 -7.04251,38.0676 -17.32076,38.0676 -10.27825,0 -17.32075,-11.42028 -17.32075,-38.0676 0,-26.64732 7.0425,-38.0676 17.32075,-38.0676 z"
         id="path6235"
         style="fill:#ffffff" /><path
         d="m 481.8091,865.7449 c -13.32366,0 -20.93718,10.08791 -20.93718,10.08791 -1.33236,-1.90338 -2.09371,-5.32946 -2.66473,-8.75555 h -13.70433 v 74.6125 h 15.98839 v -47.96518 c 3.9971,-7.99419 9.5169,-14.65602 17.32076,-14.65602 7.99419,0 9.32656,6.66183 9.32656,10.65893 v 51.96227 h 15.98839 v -47.96518 c 3.9971,-7.99419 9.5169,-14.65602 17.32076,-14.65602 7.99419,0 9.32656,6.66183 9.32656,10.65893 v 51.96227 h 15.98839 v -53.29464 c 0,-13.32366 -6.66183,-22.65022 -21.31785,-22.65022 -9.89758,0 -19.98549,5.32946 -22.65023,13.32366 -2.66473,-7.9942 -9.70723,-13.32366 -19.98549,-13.32366 z"
         id="path6237"
         style="fill:#ffffff" /></g><path
       id="rect5830"
       style="opacity:1;fill:#000000;fill-rule:evenodd;stroke-width:6.15916;stroke-linecap:round;stroke-linejoin:round;paint-order:stroke fill markers"
       d="m 349.99945,227.63991 a 3.5984707,3.5984707 0 0 0 -3.59773,3.59882 3.5984707,3.5984707 0 0 0 2.53563,3.43424 v 8.47087 h -5.85511 a 3.5984707,3.5984707 0 0 0 -3.43534,-2.53671 3.5984707,3.5984707 0 0 0 -3.59774,3.59882 3.5984707,3.5984707 0 0 0 3.59774,3.59881 3.5984707,3.5984707 0 0 0 3.43534,-2.5367 h 5.85511 v 14.18415 a 6.1996261,6.1996261 0 0 0 -5.13731,6.09763 6.1996261,6.1996261 0 0 0 3.31625,5.47185 v 12.71712 c 0,0 -6.57724,14.7515 -15.52018,24.20433 -1.14271,1.20787 -2.33987,2.37849 -3.58799,3.50788 -3.00021,2.71476 -8.47442,8.363 -14.03366,14.23719 -0.0872,0.0922 -0.14019,0.18548 -0.21221,0.27827 a 42.394771,26.913342 0 0 0 -6.15718,13.9102 42.394771,26.913342 0 0 0 17.72234,21.83436 h 9.53297 v 13.57895 l -125.33503,73.46177 h 33.99393 v 45.77556 l -74.71772,42.82748 h 24.59194 v 91.45804 H 506.60758 V 537.3548 h 24.59088 l -74.71664,-42.82748 v -45.77556 h 33.9928 L 365.13961,375.28999 v -13.57895 h 9.53297 a 42.394771,26.913342 0 0 0 17.72234,-21.83436 42.394771,26.913342 0 0 0 -6.15718,-13.9102 c -0.072,-0.0928 -0.12499,-0.18609 -0.2122,-0.27827 -5.55924,-5.87419 -11.03348,-11.52243 -14.03367,-14.23719 -1.24814,-1.12939 -2.44527,-2.30001 -3.58799,-3.50788 -8.94292,-9.45283 -15.52017,-24.20433 -15.52017,-24.20433 v -12.71712 a 6.1996261,6.1996261 0 0 0 3.31624,-5.47185 6.1996261,6.1996261 0 0 0 -5.13731,-6.1063 v -14.17548 h 5.87352 a 3.5984707,3.5984707 0 0 0 3.41693,2.5367 3.5984707,3.5984707 0 0 0 3.59882,-3.59881 3.5984707,3.5984707 0 0 0 -3.59882,-3.59882 3.5984707,3.5984707 0 0 0 -3.41693,2.53671 h -5.87352 v -8.47087 a 3.5984707,3.5984707 0 0 0 2.53563,-3.43424 3.5984707,3.5984707 0 0 0 -3.59882,-3.59882 z" /></g></svg>
