<?xml version="1.0" encoding="UTF-8" standalone="no"?>
<svg
   inkscape:version="1.2.2 (732a01da63, 2022-12-09)"
   sodipodi:docname="GE_road_sign_7.16.svg.2024_04_22_01_14_53.0.svg"
   xml:space="preserve"
   viewBox="0 0 1052 352"
   height="352"
   width="1052"
   id="background"
   version="1.1"
   xmlns:inkscape="http://www.inkscape.org/namespaces/inkscape"
   xmlns:sodipodi="http://sodipodi.sourceforge.net/DTD/sodipodi-0.dtd"
   xmlns="http://www.w3.org/2000/svg"
   xmlns:svg="http://www.w3.org/2000/svg"
   xmlns:rdf="http://www.w3.org/1999/02/22-rdf-syntax-ns#"
   xmlns:cc="http://creativecommons.org/ns#"
   xmlns:dc="http://purl.org/dc/elements/1.1/"><title
   id="title588">554 „Stop“ linija</title><metadata
   id="metadata48119"><rdf:RDF><cc:Work
       rdf:about=""><dc:format>image/svg+xml</dc:format><dc:type
         rdf:resource="http://purl.org/dc/dcmitype/StillImage" /><dc:title>554 „Stop“ linija</dc:title></cc:Work></rdf:RDF></metadata><defs
   id="defs48117" /><sodipodi:namedview
   inkscape:current-layer="background"
   inkscape:window-maximized="1"
   inkscape:window-y="-9"
   inkscape:window-x="-9"
   inkscape:cy="157.76076"
   inkscape:cx="350.72433"
   inkscape:zoom="1.1504762"
   showgrid="false"
   id="namedview48115"
   inkscape:window-height="991"
   inkscape:window-width="1920"
   inkscape:pageshadow="2"
   inkscape:pageopacity="0"
   guidetolerance="10"
   gridtolerance="10"
   objecttolerance="10"
   borderopacity="1"
   bordercolor="#666666"
   pagecolor="#ffffff"
   inkscape:showpageshadow="2"
   inkscape:pagecheckerboard="0"
   inkscape:deskcolor="#d1d1d1" />
  <g
   transform="translate(1,1)"
   id="g48112">
    <path
   style="stroke:#000000;stroke-width:2;stroke-miterlimit:4;stroke-dasharray:none;stroke-opacity:1"
   id="path48108"
   d="M 0,45 C 0,20.147 20.147,0 45,0 h 960 c 24.852,0 45,20.147 45,45 v 260 c 0,24.852 -20.148,45 -45,45 H 45 C 20.147,350 0,329.852 0,305 Z"
   stroke="none"
   fill-rule="evenodd"
   fill="#ffffff" />
    <path
   id="path48110"
   d="M 45 10 C 25.670019 10 10 25.670019 10 45 L 10 305 C 10 324.32898 25.670019 340 45 340 L 1005 340 C 1024.329 340 1040 324.32898 1040 305 L 1040 45 C 1040 25.670019 1024.329 10 1005 10 L 45 10 z M 45 20 L 1005 20 C 1018.807 20 1030 31.192014 1030 45 L 1030 305 C 1030 318.80699 1018.807 330 1005 330 L 45 330 C 31.192014 330 20 318.80699 20 305 L 20 45 C 20 31.192014 31.192014 20 45 20 z M 235.84961 74.25 C 195.37347 74.25 166.80273 100.44014 166.80273 133.77344 C 166.80273 148.39927 173.26501 179.35266 226.32617 187.17578 C 268.84313 193.29822 269.18359 209.28459 269.18359 216.76758 L 269.18359 217.10742 C 269.18359 224.25027 261.0212 243.29688 231.76953 243.29688 C 198.43624 243.29688 179.72852 220.84766 179.72852 220.84766 L 156.25781 240.91602 C 156.25781 240.91602 188.2308 274.25 231.08789 274.25 C 278.70688 274.25 304.21875 238.53606 304.21875 214.72656 C 304.21875 186.15517 283.47001 167.10769 250.13672 159.96484 C 223.94627 154.52267 200.13672 151.46107 200.13672 133.09375 C 200.13672 123.91009 207.27822 105.20312 235.84961 105.20312 C 260.67951 105.20312 278.02734 124.25 278.02734 124.25 L 300.13672 100.44141 C 300.13672 100.44141 269.1829 74.25 235.84961 74.25 z M 626.59961 74.25 C 574.21872 74.25 549.04688 119.14803 549.04688 174.25 C 549.04688 229.35197 574.21872 274.25 626.59961 274.25 C 678.9805 274.25 704.15039 229.35197 704.15039 174.25 C 704.15039 119.14803 678.9805 74.25 626.59961 74.25 z M 357.07422 79.011719 L 357.07422 107.58398 L 409.45703 107.58398 L 409.45703 269.48828 L 442.78906 269.48828 L 442.78906 107.58398 L 495.16992 107.58398 L 495.16992 79.011719 L 357.07422 79.011719 z M 767.55078 79.011719 L 767.55078 269.48828 L 800.88477 269.48828 L 800.88477 202.82227 L 831.83594 202.82227 C 877.07398 202.82227 893.74219 167.10646 893.74219 140.91602 C 893.74219 114.72557 877.07398 79.011719 831.83594 79.011719 L 767.55078 79.011719 z M 626.59961 105.20312 C 652.79005 105.20312 671.83594 131.39291 671.83594 174.25 C 671.83594 217.10709 652.79005 243.29688 626.59961 243.29688 C 600.40916 243.29688 581.36133 217.10709 581.36133 174.25 C 581.36133 131.39291 600.40916 105.20312 626.59961 105.20312 z M 800.88477 107.58398 L 822.3125 107.58398 C 841.3601 107.58398 860.4082 117.10652 860.4082 140.91602 C 860.4082 164.72551 841.3601 174.25 822.3125 174.25 L 800.88477 174.25 L 800.88477 107.58398 z " />
  </g>
</svg>
