<?xml version="1.0" encoding="UTF-8" standalone="no"?>
<!-- Created with Inkscape (http://www.inkscape.org/) -->

<svg
   width="2022.1191"
   height="300.10004"
   id="svg2"
   version="1.1"
   inkscape:version="1.2.2 (732a01da63, 2022-12-09)"
   sodipodi:docname="RU_road_sign_6.10.2_x.svg"
   xmlns:inkscape="http://www.inkscape.org/namespaces/inkscape"
   xmlns:sodipodi="http://sodipodi.sourceforge.net/DTD/sodipodi-0.dtd"
   xmlns="http://www.w3.org/2000/svg"
   xmlns:svg="http://www.w3.org/2000/svg"
   xmlns:rdf="http://www.w3.org/1999/02/22-rdf-syntax-ns#"
   xmlns:cc="http://creativecommons.org/ns#"
   xmlns:dc="http://purl.org/dc/elements/1.1/">
  <title
     id="title3006">5.21.2 Yoʻnalishlar koʻrsatkichi</title>
  <defs
     id="defs4" />
  <sodipodi:namedview
     id="base"
     pagecolor="#ffffff"
     bordercolor="#666666"
     borderopacity="1.0"
     inkscape:pageopacity="0.0"
     inkscape:pageshadow="2"
     inkscape:zoom="1.3427739"
     inkscape:cx="1661.8583"
     inkscape:cy="151.55195"
     inkscape:document-units="px"
     inkscape:current-layer="layer1"
     showgrid="false"
     inkscape:window-width="1920"
     inkscape:window-height="991"
     inkscape:window-x="-9"
     inkscape:window-y="-9"
     inkscape:window-maximized="1"
     inkscape:snap-bbox="true"
     inkscape:bbox-paths="true"
     inkscape:bbox-nodes="true"
     inkscape:snap-bbox-edge-midpoints="true"
     inkscape:snap-bbox-midpoints="true"
     inkscape:object-paths="true"
     inkscape:snap-intersection-paths="true"
     inkscape:object-nodes="true"
     inkscape:snap-smooth-nodes="true"
     inkscape:snap-midpoints="true"
     inkscape:snap-object-midpoints="true"
     inkscape:showpageshadow="2"
     inkscape:pagecheckerboard="0"
     inkscape:deskcolor="#d1d1d1" />
  <metadata
     id="metadata7">
    <rdf:RDF>
      <cc:Work
         rdf:about="">
        <dc:format>image/svg+xml</dc:format>
        <dc:type
           rdf:resource="http://purl.org/dc/dcmitype/StillImage" />
        <dc:title>5.21.2 Yoʻnalishlar koʻrsatkichi</dc:title>
        <cc:license
           rdf:resource="http://creativecommons.org/licenses/by-sa/3.0/" />
        <dc:description>ГОСТ Р 52290-2004</dc:description>
      </cc:Work>
      <cc:License
         rdf:about="http://creativecommons.org/licenses/by-sa/3.0/">
        <cc:permits
           rdf:resource="http://creativecommons.org/ns#Reproduction" />
        <cc:permits
           rdf:resource="http://creativecommons.org/ns#Distribution" />
        <cc:requires
           rdf:resource="http://creativecommons.org/ns#Notice" />
        <cc:requires
           rdf:resource="http://creativecommons.org/ns#Attribution" />
        <cc:permits
           rdf:resource="http://creativecommons.org/ns#DerivativeWorks" />
        <cc:requires
           rdf:resource="http://creativecommons.org/ns#ShareAlike" />
      </cc:License>
    </rdf:RDF>
  </metadata>
  <g
     inkscape:label="Layer 1"
     inkscape:groupmode="layer"
     id="layer1"
     transform="translate(82.05,-752.31215)">
    <path
       sodipodi:nodetypes="sssscccs"
       inkscape:connector-curvature="0"
       id="path13928"
       d="m -37,752.36215 c -24.93,0 -45,20.07 -45,45 v 210.00005 c 0,24.93 20.07,45 45,45 H 1680.1561 L 1940,902.36215 l -259.8439,-150 z"
       style="color:#000000;display:inline;overflow:visible;visibility:visible;fill:#ffffff;fill-opacity:1;fill-rule:nonzero;stroke:none;stroke-width:3.543;marker:none;enable-background:accumulate" />
    <path
       style="color:#000000;display:inline;overflow:visible;visibility:visible;fill:#0d69e1;fill-opacity:1;fill-rule:nonzero;stroke:none;stroke-width:3.543;marker:none;enable-background:accumulate"
       d="m -37,761.36215 c -19.944,0 -36,16.056 -36,36 v 210.00005 c 0,19.944 16.056,36 36,36 h 1711.7501 l 141,-141.00005 -141,-141 z"
       id="path13930"
       sodipodi:nodetypes="sssscccs" />
    <path
       sodipodi:nodetypes="sssscccs"
       inkscape:connector-curvature="0"
       id="path13932"
       d="m -37,753.36215 c -24.376,0 -44,19.624 -44,44 v 210.00005 c 0,24.376 19.624,44 44,44 h 1716.8751 l 258.0939,-149.00005 -258.0939,-149 z"
       style="color:#000000;display:inline;overflow:visible;visibility:visible;fill:none;stroke:#000000;stroke-width:2;stroke-miterlimit:4;stroke-dasharray:none;stroke-opacity:1;marker:none;enable-background:accumulate" />
    <g
       aria-label="Qibray KIBRAY 9"
       id="text993"
       style="font-size:225.47px;line-height:1.5;font-family:'Russian Road Sign';-inkscape-font-specification:'Russian Road Sign';letter-spacing:-11.96px;fill:#ffffff;fill-rule:evenodd;stroke-width:2.2547;stroke-linecap:round;paint-order:stroke fill markers">
      <path
         d="m 238.33679,834.49569 c -34.72238,0 -50.95622,29.76204 -50.95622,66.28818 0,36.52614 16.23384,66.28818 50.95622,66.28818 5.41128,0 10.59709,-0.67641 15.10649,-2.02923 l 6.08769,12.17538 18.26308,-10.14615 -6.98957,-12.40085 c 12.40085,-11.94991 18.48854,-31.79127 18.48854,-53.88733 0,-36.52614 -16.23384,-66.28818 -50.95623,-66.28818 z m 0,20.51777 c 17.36119,0 29.53658,17.36119 29.53658,45.77041 0,14.20461 -3.15658,25.70358 -8.3424,33.59503 l -7.89145,-13.5282 -16.23384,8.34239 8.34239,16.68478 c -1.80376,0.45094 -3.60752,0.67641 -5.41128,0.67641 -17.36119,0 -29.53657,-17.36119 -29.53657,-45.77041 0,-28.40922 12.17538,-45.77041 29.53657,-45.77041 z"
         id="path2912" />
      <path
         d="m 334.82772,846.4456 c 0,-7.44051 -6.31316,-13.75367 -13.75367,-13.75367 -7.66598,0 -13.75367,6.31316 -13.75367,13.75367 0,7.66598 6.08769,13.75367 13.75367,13.75367 7.44051,0 13.75367,-6.08769 13.75367,-13.75367 z m -23.22341,117.46987 h 18.93948 v -88.38424 h -18.93948 z"
         id="path2914" />
      <path
         d="m 397.49847,967.07205 c 15.7829,0 39.45725,-9.46974 39.45725,-47.3487 0,-39.45725 -29.98751,-47.3487 -39.45725,-47.3487 -12.62632,0 -22.09606,9.46974 -22.09606,11.04803 v -45.77041 h -18.93948 v 126.2632 h 15.7829 c 0.67641,-3.83299 1.80376,-6.98957 3.15658,-9.46974 0,0 6.31316,12.62632 22.09606,12.62632 z m 0,-17.36119 c -9.0188,0 -17.36119,-6.31316 -22.09606,-15.7829 v -33.14409 c 4.73487,-7.89145 13.97914,-12.62632 22.09606,-12.62632 11.04803,0 20.51777,12.62632 20.51777,31.5658 0,18.93948 -9.46974,29.98751 -20.51777,29.98751 z"
         id="path2916" />
      <path
         d="m 500.75358,873.95294 c -15.7829,0 -24.8017,11.94991 -24.8017,11.94991 -1.57829,-2.2547 -2.48017,-6.31316 -3.15658,-10.37162 h -16.23384 v 88.38424 h 18.93948 v -56.81844 c 4.73487,-9.46974 11.2735,-14.20461 20.51777,-14.20461 4.73487,0 9.46974,0 12.62632,3.15658 l 6.31316,-18.93948 c -4.28393,-2.93111 -7.89145,-3.15658 -14.20461,-3.15658 z"
         id="path2918" />
      <path
         d="m 570.86471,872.37465 c -15.7829,0 -28.40922,6.31316 -36.30067,11.04803 l 9.46974,15.33196 c 4.73487,-4.28393 14.20461,-10.59709 23.67435,-10.59709 11.04803,0 18.93948,7.89145 18.93948,14.20461 v 4.73487 c -12.62632,3.15658 -53.66186,1.80376 -53.66186,31.5658 v 0 c 0,18.93948 15.7829,28.40922 28.40922,28.40922 12.62632,0 22.09606,-7.89145 25.25264,-14.20461 1.57829,12.62632 7.89145,14.20461 18.93948,14.20461 l 7.89145,-15.7829 c -3.15658,0 -7.89145,0 -7.89145,-7.89145 v -39.45725 c 0,-15.7829 -14.20461,-31.5658 -34.72238,-31.5658 z m 15.7829,48.92699 v 15.7829 c 0,1.57829 -11.04803,14.20461 -20.51777,14.20461 -3.15658,0 -12.62632,-3.15658 -12.62632,-14.20461 0,-14.20461 25.25264,-12.62632 33.14409,-15.7829 z"
         id="path2920" />
      <path
         d="m 631.50601,982.85495 -3.15658,17.36115 c 5.41128,0.9019 9.46974,1.5783 15.7829,1.5783 9.46974,0 20.51777,-6.31313 25.25264,-17.36116 l 36.30067,-108.90201 h -22.09606 l -17.36119,53.21092 -18.93948,-53.21092 h -22.09606 l 30.43845,88.38424 c -0.90188,3.15658 -1.80376,6.53863 -3.15658,9.69521 -2.93111,6.08769 -7.21504,11.2735 -13.75367,11.2735 -2.2547,0 -4.5094,-0.67641 -7.21504,-2.02923 z"
         id="path2922" />
      <path
         d="m 897.7262,963.91547 h 28.40922 l -48.47605,-66.96459 45.31947,-59.29861 h -28.40922 l -43.96665,59.52408 z m -47.3487,-126.2632 h -22.09606 v 126.2632 h 22.09606 z"
         id="path2924" />
      <path
         d="m 946.86857,963.91547 h 22.09606 v -126.2632 h -22.09606 z"
         id="path2926" />
      <path
         d="m 998.04032,837.65227 v 126.2632 h 49.15248 c 23.4489,0 40.8101,-17.36119 40.8101,-37.87896 0,-14.20461 -9.4698,-23.67435 -22.0961,-28.40922 11.048,-4.73487 18.0376,-15.7829 18.0376,-25.25264 0,-16.68478 -13.3027,-34.72238 -36.9771,-34.72238 z m 22.09608,18.93948 h 25.2526 c 7.8915,0 15.7829,5.18581 15.7829,16.23384 0,9.46974 -6.3131,16.23384 -15.7829,16.23384 h -25.2526 z m 0,50.50528 h 26.8309 c 12.6263,0 18.9395,9.92068 18.9395,18.93948 0,9.0188 -6.3132,18.93948 -18.9395,18.93948 h -26.8309 z"
         id="path2928" />
      <path
         d="m 1113.9217,837.65227 v 126.2632 h 22.0961 v -50.50528 h 12.6263 c 14.2046,0 17.3612,8.79333 22.9979,19.39042 5.8623,11.2735 9.9207,24.57623 14.8811,31.11486 h 26.8309 c -14.2046,-6.31316 -20.5178,-53.66186 -41.0356,-58.39673 12.6264,-4.73487 23.6744,-15.7829 23.6744,-33.14409 0,-12.62632 -7.8915,-34.72238 -39.4573,-34.72238 z m 22.0961,18.93948 h 14.2046 c 12.6263,0 23.6743,5.41128 23.6743,18.93948 0,13.5282 -11.048,18.93948 -23.6743,18.93948 h -14.2046 z"
         id="path2930" />
      <path
         d="m 1272.4169,919.72335 15.7829,-53.66186 15.7829,53.66186 z m 3.1566,-82.07108 -41.0356,126.2632 h 23.6744 l 7.8914,-25.25264 h 44.1922 l 7.8914,25.25264 h 23.6744 l -41.0356,-126.2632 z"
         id="path2932" />
      <path
         d="m 1400.9245,963.91547 h 22.0961 v -50.50528 l 39.4572,-75.75792 h -25.2526 l -25.2527,52.08357 -25.2526,-52.08357 h -25.2526 l 39.4572,75.75792 z"
         id="path2934" />
      <path
         d="m 1614.4243,966.17017 c 36.3007,0 50.5053,-33.8205 50.5053,-71.69946 0,-39.45725 -18.9395,-59.74955 -45.7704,-59.74955 -20.5178,0 -37.879,21.87059 -37.879,47.12323 0,29.98751 22.0961,36.30067 31.5658,36.30067 11.048,0 22.0961,-6.31316 29.9875,-12.62632 0,0 -1.5783,41.71195 -29.9875,41.71195 -14.2046,0 -27.7328,-7.44051 -27.7328,-7.44051 l 2.4802,19.39042 c 0,0 14.2046,6.98957 26.8309,6.98957 z m 3.1566,-66.96459 c -6.3132,0 -15.7829,-6.31316 -15.7829,-18.93948 0,-11.04803 6.5386,-25.25264 20.5177,-25.25264 15.1065,0 18.9395,22.09606 19.8414,28.63469 0,0 -8.7933,15.55743 -24.5762,15.55743 z"
         id="path2936" />
    </g>
    <path
       id="path2703"
       style="fill:#ffffff;fill-opacity:1;stroke:none;stroke-width:0.733536"
       d="m 18.738695,810.46336 c 2.960175,0.12016 5.790041,1.71442 7.381206,4.47003 l 38.831548,67.25604 c 1.474109,2.55337 1.474109,5.69892 0,8.25229 l -14.074721,24.36709 12.057496,6.94571 c 1.254484,0.72414 2.301466,1.77148 3.025826,3.02582 l 31.175268,54.00658 c 2.84847,4.93413 1.151465,11.24924 -3.782288,14.09764 -4.933754,2.8484 -11.249176,1.1518 -14.097646,-3.7823 L 51.105958,940.34502 20.824686,922.85482 c -3.947001,-2.27902 -5.304636,-7.33081 -3.025835,-11.27811 l 19.36993,-33.51341 c 1.474113,-2.55337 1.474113,-5.69891 0,-8.25228 L 10.646879,823.87335 c -2.4686412,-4.27541 -1.0207807,-9.7492 3.255065,-12.21799 1.336222,-0.77146 2.799656,-1.15458 4.240753,-1.192 0.198149,-0.007 0.398654,-0.008 0.595998,0 z m 46.900437,16.48167 c 9.367975,0 22.556219,12.42103 22.556219,24.55048 0,10.74586 -8.943089,18.98025 -17.536086,18.98025 -13.1781,0 -18.49885,-23.32161 -18.49885,-27.8514 0,-8.69174 4.367044,-15.67933 13.478717,-15.67933 z m 37.845858,51.8518 c 1.44109,0.0374 2.90452,0.42047 4.24075,1.19199 4.27591,2.4688 5.7467,7.94193 3.27799,12.21792 l -15.266709,26.43024 c -2.278811,3.94664 -7.331114,5.30487 -11.27811,3.02584 l -23.381448,-13.50167 8.939956,-15.47299 15.03749,8.68778 10.45288,-18.10916 c 1.697234,-2.93972 4.806791,-4.5524 7.977201,-4.46995 z m -84.70045,50.01796 17.857013,10.31535 -17.513168,30.37293 c -1.474113,2.55345 -4.203746,4.12614 -7.151972,4.12614 h -25.559132 c -5.697006,0 -10.315346,-4.61782 -10.315346,-10.31533 0,-5.6968 4.61834,-10.31535 10.315346,-10.31535 H 4.8244402 Z m 128.55213,24.18374 c 11.39404,0 20.63072,9.23675 20.63072,20.63068 0,11.39402 -9.23668,20.63065 -20.63072,20.63065 -11.39401,0 -20.63069,-9.23663 -20.63069,-20.63065 0,-11.39393 9.23668,-20.63068 20.63069,-20.63068 z"
       sodipodi:nodetypes="cccccccccccccccccccssssscccccccccccccssssccsssss" />
  </g>
</svg>
