<?xml version="1.0" encoding="UTF-8" standalone="no"?>
<!-- Created with Inkscape (http://www.inkscape.org/) -->

<svg
   width="700"
   height="1050"
   id="svg2"
   version="1.1"
   inkscape:version="1.2.2 (732a01da63, 2022-12-09)"
   sodipodi:docname="UZ_road_sign_6.28.svg"
   xml:space="preserve"
   xmlns:inkscape="http://www.inkscape.org/namespaces/inkscape"
   xmlns:sodipodi="http://sodipodi.sourceforge.net/DTD/sodipodi-0.dtd"
   xmlns="http://www.w3.org/2000/svg"
   xmlns:svg="http://www.w3.org/2000/svg"
   xmlns:rdf="http://www.w3.org/1999/02/22-rdf-syntax-ns#"
   xmlns:cc="http://creativecommons.org/ns#"
   xmlns:dc="http://purl.org/dc/elements/1.1/"><title
     id="title3002">6.3.3 Elektromobillarni quvvatlash shaxobchasi</title><defs
     id="defs4" /><sodipodi:namedview
     id="base"
     pagecolor="#ffffff"
     bordercolor="#666666"
     borderopacity="1.0"
     inkscape:pageopacity="0.0"
     inkscape:pageshadow="2"
     inkscape:zoom="0.35355339"
     inkscape:cx="782.0601"
     inkscape:cy="1144.0988"
     inkscape:document-units="px"
     inkscape:current-layer="text5762"
     showgrid="false"
     inkscape:window-width="1920"
     inkscape:window-height="991"
     inkscape:window-x="-9"
     inkscape:window-y="-9"
     inkscape:window-maximized="1"
     inkscape:showpageshadow="2"
     inkscape:pagecheckerboard="0"
     inkscape:deskcolor="#d1d1d1" /><metadata
     id="metadata7"><rdf:RDF><cc:Work
         rdf:about=""><dc:format>image/svg+xml</dc:format><dc:type
           rdf:resource="http://purl.org/dc/dcmitype/StillImage" /><dc:title>6.3.3 Elektromobillarni quvvatlash shaxobchasi</dc:title><cc:license
           rdf:resource="http://creativecommons.org/licenses/by-sa/3.0/" /><dc:description>ГОСТ Р 52290-2004
Размеры и пропорции по типоразмеру II</dc:description></cc:Work><cc:License
         rdf:about="http://creativecommons.org/licenses/by-sa/3.0/"><cc:permits
           rdf:resource="http://creativecommons.org/ns#Reproduction" /><cc:permits
           rdf:resource="http://creativecommons.org/ns#Distribution" /><cc:requires
           rdf:resource="http://creativecommons.org/ns#Notice" /><cc:requires
           rdf:resource="http://creativecommons.org/ns#Attribution" /><cc:permits
           rdf:resource="http://creativecommons.org/ns#DerivativeWorks" /><cc:requires
           rdf:resource="http://creativecommons.org/ns#ShareAlike" /></cc:License></rdf:RDF></metadata><g
     inkscape:label="Layer 1"
     inkscape:groupmode="layer"
     id="layer1"
     transform="translate(0,-2.362183)"><rect
       style="color:#000000;fill:#ffffff;fill-opacity:1;fill-rule:nonzero;stroke:none;stroke-width:3.54299997999999980;marker:none;visibility:visible;display:inline;overflow:visible;enable-background:accumulate;opacity:1"
       id="rect10481"
       width="700"
       height="1050"
       x="0"
       y="2.3621831"
       rx="45"
       ry="45" /><path
       inkscape:connector-curvature="0"
       style="color:#000000;fill:#0d69e1;fill-opacity:1;fill-rule:nonzero;stroke:none;stroke-width:3.54299997999999980;marker:none;visibility:visible;display:inline;overflow:visible;enable-background:accumulate;opacity:1"
       d="m 45.000009,22.362155 c -13.85,0 -25,11.15 -25,25 l 0,960.000045 c 0,13.85 11.15,25 25,25 l 610.000001,0 c 13.85,0 25,-11.15 25,-25 l 0,-960.000045 c 0,-13.85 -11.15,-25 -25,-25 l -610.000001,0 z m 65.625001,155.000005 478.75,0 c 24.93,0 45,20.07 45,45 l 0,478.75 c 0,24.93 -20.07,45 -45,45 l -478.75,0 c -24.930001,0 -45.000001,-20.07 -45.000001,-45 l 0,-478.75 c 0,-24.93 20.07,-45 45.000001,-45 z"
       id="rect10483" /><rect
       ry="44"
       rx="44"
       y="3.3621678"
       x="1.0000153"
       height="1048"
       width="698"
       id="rect10490"
       style="color:#000000;fill:none;stroke:#000000;stroke-width:1.99999988000000010;stroke-miterlimit:4;stroke-opacity:1;stroke-dasharray:none;marker:none;visibility:visible;display:inline;overflow:visible;enable-background:accumulate;opacity:1" /><g
       aria-label="300m"
       id="text5762"
       style="font-size:190.338px;line-height:1.5;font-family:'Russian Road Sign';-inkscape-font-specification:'Russian Road Sign';fill:#ffffff;fill-rule:evenodd;stroke-width:44.8854;stroke-linecap:round;stroke-linejoin:round;paint-order:stroke fill markers"><g
         id="g3995"
         transform="translate(1.8864363)"><g
           aria-label="500"
           id="text3933"
           style="font-size:195.312px;letter-spacing:-1.15px;stroke-width:28.1249"><path
             d="m 210.62057,851.48113 5.46874,-17.77339 h -62.89047 v 53.32018 l 12.30466,6.83592 c 2.73437,-1.36719 8.2031,-8.20311 16.40621,-8.20311 12.30465,0 19.14057,10.93747 19.14057,20.50776 0,13.67184 -13.67184,20.50776 -24.60931,20.50776 -8.98435,0 -19.33589,-0.97656 -25.97649,-5.46874 l 2.73436,17.7734 c 0,0 13.67184,5.46873 25.9765,5.46873 25.9765,0 42.3827,-17.77339 42.3827,-39.64833 0,-21.87495 -17.77339,-34.1796 -32.81241,-34.1796 -6.24999,0 -13.67184,1.36718 -17.77339,6.83592 v -25.9765 z"
             id="path3997" /><path
             d="m 282.32205,832.34056 c -21.87494,0 -36.91396,23.24212 -36.91396,56.05454 0,32.81241 15.03902,56.05454 36.91396,56.05454 21.87495,0 36.91397,-23.24213 36.91397,-56.05454 0,-31.05461 -15.03902,-56.05454 -36.91397,-56.05454 z m 0,16.99214 c 10.54685,0 17.7734,11.71872 17.7734,39.0624 0,27.34368 -7.22655,39.0624 -17.7734,39.0624 -10.54684,0 -17.77339,-11.71872 -17.77339,-39.0624 0,-27.34368 7.22655,-39.0624 17.77339,-39.0624 z"
             id="path3999" /><path
             d="m 379.60925,832.34056 c -21.87495,0 -36.91397,23.24212 -36.91397,56.05454 0,32.81241 15.03902,56.05454 36.91397,56.05454 21.87494,0 36.91397,-23.24213 36.91397,-56.05454 0,-31.05461 -15.03903,-56.05454 -36.91397,-56.05454 z m 0,16.99214 c 10.54685,0 17.77339,11.71872 17.77339,39.0624 0,27.34368 -7.22654,39.0624 -17.77339,39.0624 -10.54685,0 -17.77339,-11.71872 -17.77339,-39.0624 0,-27.34368 7.22654,-39.0624 17.77339,-39.0624 z"
             id="path4001" /></g><path
           d="m 481.8091,865.7449 c -13.32366,0 -20.93718,10.08791 -20.93718,10.08791 -1.33236,-1.90338 -2.09371,-5.32946 -2.66473,-8.75555 h -13.70433 v 74.6125 h 15.98839 v -47.96518 c 3.9971,-7.99419 9.5169,-14.65602 17.32076,-14.65602 7.99419,0 9.32656,6.66183 9.32656,10.65893 v 51.96227 h 15.98839 v -47.96518 c 3.9971,-7.99419 9.5169,-14.65602 17.32076,-14.65602 7.99419,0 9.32656,6.66183 9.32656,10.65893 v 51.96227 h 15.98839 v -53.29464 c 0,-13.32366 -6.66183,-22.65022 -21.31785,-22.65022 -9.89758,0 -19.98549,5.32946 -22.65023,13.32366 -2.66473,-7.9942 -9.70723,-13.32366 -19.98549,-13.32366 z"
           id="path6237"
           style="fill:#ffffff" /></g></g><path
       id="rect556"
       style="fill:#00a500;fill-rule:evenodd;stroke-width:17.0305;stroke-linecap:round;stroke-linejoin:round;paint-order:stroke fill markers;fill-opacity:1"
       d="m 458.7721,438.0106 c -17.69934,-0.0187 -35.38846,0.71026 -53.08064,1.18208 -5.2872,0.14103 -15.86028,0.49285 -15.86028,0.49285 -12.52554,0 -19.9181,13.91167 -25.898,27.10675 l -17.94939,44.4297 h -1.97993 c 0,0 -2.25773,-2.50906 -2.25773,-3.33636 v -6.7459 c 0,-3.36821 -2.26166,-6.07977 -5.07105,-6.07977 h -3.43315 c 0,0 -1.48645,0 -2.85988,0 -0.99561,0 -1.97683,2e-5 -2.07307,0 -11.9177,-8e-5 -21.57937,5.98002 -21.58008,13.357 -7.5e-4,6.80644 9.92361,12.49534 19.2501,13.26652 l -0.006,0.004 h 0.0433 c 0.77039,0.0626 1.53695,0.0953 2.29305,0.0886 0.81216,-9.4e-4 1.61564,-0.0325 2.41029,-0.0886 h 0.18617 c 0,0 3.62297,1.62913 4.63911,3.43648 0.76831,1.36659 0.6937,4.8746 0.6937,4.8746 0,0 -10.26782,10.49214 -13.1674,16.88011 -2.18907,4.82264 -3.43475,10.39145 -3.43475,16.33143 v 55.90963 6.58995 52.19207 c 0,3.49491 2.34547,6.30887 5.26053,6.30887 h 31.5648 c 2.91504,0 5.26053,-2.81396 5.26053,-6.30887 v -23.96869 h 191.33661 v 23.96869 c 0,3.49491 2.34549,6.30887 5.26051,6.30887 H 589.884 c 2.91505,0 5.2605,-2.81396 5.2605,-6.30887 v -52.19207 -6.58995 -55.90963 c 0,-5.93998 -1.24565,-11.50879 -3.43473,-16.33143 -2.89959,-6.38797 -13.1674,-16.88011 -13.1674,-16.88011 0,0 -0.0747,-3.50801 0.6937,-4.8746 1.01612,-1.80735 4.63909,-3.43648 4.63909,-3.43648 h 0.18628 c 0.79464,0.0562 1.59812,0.0876 2.41028,0.0886 0.75606,0.006 1.52272,-0.026 2.29309,-0.0886 h 0.0433 l -0.008,-0.004 c 9.32648,-0.77118 19.25085,-6.46008 19.2501,-13.26652 -7.3e-4,-7.37698 -9.66233,-13.35708 -21.58007,-13.357 -0.0962,2e-5 -1.07746,0 -2.07307,0 -1.37346,0 -2.85988,0 -2.85988,0 h -3.43316 c -2.80937,0 -5.07105,2.71156 -5.07105,6.07977 v 6.7459 c 0,0.8273 -2.25773,3.33636 -2.25773,3.33636 h -1.97992 -0.42392 l -17.9494,-44.4297 c -5.9799,-13.19508 -13.37246,-27.10675 -25.898,-27.10675 0,0 -10.57314,-0.34809 -15.86028,-0.49285 -16.6294,-0.45531 -33.25431,-1.16531 -49.89157,-1.18208 z m -1.38259,16.8628 c 22.61255,0 67.82973,1.18401 67.82973,1.18401 5.74174,0 7.83649,6.24689 10.36531,12.42713 l 18.13727,44.32764 h -95.37044 -24.94576 -72.35 l 18.13729,-44.32764 c 2.5288,-6.18024 4.62357,-12.42711 10.36529,-12.42713 0,0 45.21881,-1.18401 67.83131,-1.18401 z m -112.77225,90.33406 c 4.81677,0 9.26842,3.20005 13.76474,5.27119 6.76319,3.11532 17.40183,7.31732 23.58088,11.15844 2.72962,1.69683 3.34622,4.12545 4.27296,6.71122 0.58203,1.62394 0.70335,5.23462 0.70335,5.23462 0,2.24541 -0.66401,3.92702 -1.76638,5.16915 -1.44561,1.62894 -3.64495,2.50078 -6.08911,2.89164 -2.34466,0.37491 -6.38014,0.36979 -8.7258,0.10401 -9.52234,-1.07917 -27.10234,-3.29979 -27.10234,-3.29979 -4.25259,-0.48195 -7.57154,-0.10567 -9.08871,-3.34599 -1.04516,-2.23221 -1.61702,-4.90152 -1.61702,-7.79512 v -7.63149 c 0,-4.21517 1.48913,-7.99893 3.87315,-10.63862 2.14898,-2.37944 5.02506,-3.82921 8.19428,-3.82921 z m 225.54452,0 c 3.16923,0 6.0453,1.44978 8.19429,3.82922 2.384,2.63969 3.87314,6.42345 3.87314,10.63862 v 7.63149 c 0,2.8936 -0.57185,5.56291 -1.61702,7.79512 -1.51717,3.24029 -4.83772,2.86403 -9.09031,3.34599 0,0 -17.57839,2.22062 -27.10074,3.29979 -2.34565,0.26582 -6.38114,0.27094 -8.7258,-0.10401 -2.44415,-0.39086 -4.64347,-1.2627 -6.08911,-2.89164 -1.10234,-1.24213 -1.76635,-2.92374 -1.76635,-5.16916 0,0 0.12127,-3.61067 0.70332,-5.23461 0.92676,-2.58578 1.54334,-5.01439 4.27298,-6.71123 6.17903,-3.84111 16.8177,-8.04311 23.58086,-11.15843 4.49633,-2.07114 8.94797,-5.27119 13.76474,-5.27119 z m -146.31537,51.38926 h 66.90639 c 2.37873,0 4.29384,2.29606 4.29384,5.14797 v 10.47306 c 0,2.85191 -1.91511,5.14798 -4.29384,5.14798 h -66.90639 c -2.37873,0 -4.29386,-2.29607 -4.29386,-5.14798 v -10.47306 c 0,-2.85191 1.91513,-5.14797 4.29386,-5.14797 z" /><path
       id="rect960"
       style="fill:#00a500;fill-rule:evenodd;stroke-width:37.7873;stroke-linecap:round;stroke-linejoin:round;paint-order:stroke fill markers;fill-opacity:1"
       d="m 128.46289,273.05163 c -11.41436,0 -20.60352,9.18914 -20.60352,20.60352 V 641.66883 H 94.224616 c -2.304826,0 -4.160169,1.85532 -4.160169,4.16015 v 34.22071 c 0,2.30483 1.855343,4.16015 4.160169,4.16015 H 236.875 c 2.30483,0 4.16015,-1.85532 4.16015,-4.16015 v -34.22071 c 0,-2.30483 -1.85532,-4.16015 -4.16015,-4.16015 H 223.24023 V 293.65515 c 0,-11.41438 -9.18914,-20.60352 -20.60352,-20.60352 z m -0.0938,12.35938 h 74.36133 c 4.51253,0 8.14259,3.63008 8.14259,8.14258 v 45.09766 c 0,4.51253 -3.63006,8.14648 -8.14259,8.14648 h -74.36133 c -4.51251,0 -8.14257,-3.63395 -8.14257,-8.14648 v -45.09766 c 0,-4.5125 3.63006,-8.14258 8.14257,-8.14258 z m 70.82228,107.51367 -20.80078,77.15431 h 20.80078 l -67.28321,155.94921 29.1211,-103.03125 h -29.1211 z" /><path
       id="path1876"
       style="color:#000000;fill:#00a500;fill-rule:evenodd;stroke-width:2.08017;stroke-linejoin:round;-inkscape-stroke:none;fill-opacity:1"
       d="m 266.20838,331.17879 v 4.9851 h -14.13052 c -1.45464,0 -2.80333,1.35276 -2.80333,2.80742 0,1.35017 1.34869,2.80333 2.80333,2.80333 h 14.13052 v 12.67603 h -14.13052 c -1.45464,0 -2.80333,1.34871 -2.80333,2.80335 0,1.45419 1.34869,2.80336 2.80333,2.80336 h 14.13052 v 4.88351 h 19.63566 l 9.86861,-9.14136 v 4.25785 h 5.61075 v -4.50974 h 27.80599 c 0.6817,2.64558 1.11911,4.12144 2.25486,9.30794 1.80956,8.26345 3.56481,18.40181 3.62813,24.03567 0.16579,14.73491 -2.64154,29.84741 -7.14652,44.30922 -7.35219,23.60176 -22.34612,45.64391 -36.70358,68.58863 -14.35751,22.94473 -28.14629,46.94693 -31.34879,74.98356 -1.76554,15.45693 -4.65346,38.39617 -2.96179,58.48439 0.84582,10.04413 2.73711,19.48178 7.30903,27.28189 4.57189,7.80007 12.86188,13.72014 23.04842,14.03706 7.61712,0.23699 13.64207,-4.79824 17.10449,-10.16926 3.46242,-5.37101 5.46789,-11.60092 6.93118,-17.67329 2.92659,-12.14478 3.39246,-23.96663 3.39246,-23.96663 a 7.489352,7.489352 0 0 0 0.008,-0.32095 v -21.44361 h 17.47017 v -14.97559 h -24.96202 a 7.489352,7.489352 0 0 0 -7.48779,7.4878 v 28.71201 c -0.008,0.1556 -0.51438,10.75609 -2.98213,20.99669 -1.24292,5.15792 -3.0562,10.12208 -4.95664,13.07011 -1.90044,2.94803 -2.77927,3.35481 -4.05063,3.31527 -5.41765,-0.1685 -7.89898,-2.04853 -10.59179,-6.64273 -2.69282,-4.59419 -4.56298,-12.14422 -5.30605,-20.96825 -1.48618,-17.64804 1.13514,-39.95786 2.91304,-55.52259 2.7562,-24.12946 15.03805,-46.16345 29.16703,-68.74305 14.12902,-22.57957 30.04078,-45.55105 38.30435,-72.07862 4.85701,-15.59187 8.01736,-32.18743 7.82907,-48.92862 -0.0919,-8.17518 -2.08159,-18.41266 -3.97751,-27.07063 -1.89595,-8.65793 -3.77438,-15.56061 -3.77438,-15.56061 a 7.489352,7.489352 0 0 0 -7.22775,-5.52139 h -33.68898 v -4.40817 h -5.61076 v 4.15628 l -9.8686,-9.14138 z" /></g></svg>
