<?xml version="1.0" encoding="UTF-8" standalone="no"?>
<!-- Created with Inkscape (http://www.inkscape.org/) -->

<svg
   width="700"
   height="1050"
   id="svg2"
   version="1.1"
   inkscape:version="1.2.2 (732a01da63, 2022-12-09)"
   sodipodi:docname="UZ_road_sign_6.24.svg"
   xml:space="preserve"
   xmlns:inkscape="http://www.inkscape.org/namespaces/inkscape"
   xmlns:sodipodi="http://sodipodi.sourceforge.net/DTD/sodipodi-0.dtd"
   xmlns="http://www.w3.org/2000/svg"
   xmlns:svg="http://www.w3.org/2000/svg"
   xmlns:rdf="http://www.w3.org/1999/02/22-rdf-syntax-ns#"
   xmlns:cc="http://creativecommons.org/ns#"
   xmlns:dc="http://purl.org/dc/elements/1.1/"><title
     id="title3002">6.23 Aeroport</title><defs
     id="defs4" /><sodipodi:namedview
     id="base"
     pagecolor="#ffffff"
     bordercolor="#666666"
     borderopacity="1.0"
     inkscape:pageopacity="0.0"
     inkscape:pageshadow="2"
     inkscape:zoom="0.53942146"
     inkscape:cx="225.24132"
     inkscape:cy="649.77022"
     inkscape:document-units="px"
     inkscape:current-layer="g115751"
     showgrid="false"
     inkscape:window-width="1920"
     inkscape:window-height="991"
     inkscape:window-x="-9"
     inkscape:window-y="-9"
     inkscape:window-maximized="1"
     inkscape:showpageshadow="2"
     inkscape:pagecheckerboard="0"
     inkscape:deskcolor="#d1d1d1"
     showguides="true" /><metadata
     id="metadata7"><rdf:RDF><cc:Work
         rdf:about=""><dc:format>image/svg+xml</dc:format><dc:type
           rdf:resource="http://purl.org/dc/dcmitype/StillImage" /><dc:title>6.23 Aeroport</dc:title><cc:license
           rdf:resource="http://creativecommons.org/licenses/by-sa/3.0/" /><dc:description>ГОСТ Р 52290-2004
Размеры и пропорции по типоразмеру II</dc:description></cc:Work><cc:License
         rdf:about="http://creativecommons.org/licenses/by-sa/3.0/"><cc:permits
           rdf:resource="http://creativecommons.org/ns#Reproduction" /><cc:permits
           rdf:resource="http://creativecommons.org/ns#Distribution" /><cc:requires
           rdf:resource="http://creativecommons.org/ns#Notice" /><cc:requires
           rdf:resource="http://creativecommons.org/ns#Attribution" /><cc:permits
           rdf:resource="http://creativecommons.org/ns#DerivativeWorks" /><cc:requires
           rdf:resource="http://creativecommons.org/ns#ShareAlike" /></cc:License></rdf:RDF></metadata><g
     inkscape:label="Layer 1"
     inkscape:groupmode="layer"
     id="layer1"
     transform="translate(0,-2.362183)"><rect
       style="color:#000000;fill:#ffffff;fill-opacity:1;fill-rule:nonzero;stroke:none;stroke-width:3.54299997999999980;marker:none;visibility:visible;display:inline;overflow:visible;enable-background:accumulate;opacity:1"
       id="rect10481"
       width="700"
       height="1050"
       x="0"
       y="2.3621831"
       rx="45"
       ry="45" /><path
       inkscape:connector-curvature="0"
       style="color:#000000;display:inline;overflow:visible;visibility:visible;opacity:1;fill:#0d69e1;fill-opacity:1;fill-rule:nonzero;stroke:none;stroke-width:3.543;marker:none;enable-background:accumulate"
       d="m 45,22.362155 c -13.85,0 -25,11.15 -25,25 V 1007.3622 c 0,13.85 11.15,25 25,25 h 610 c 13.85,0 25,-11.15 25,-25 V 47.362155 c 0,-13.85 -11.15,-25 -25,-25 z m 65.625,155.000005 h 478.75 c 24.93,0 45,20.07 45,45 v 478.75 c 0,24.93 -20.07,45 -45,45 h -478.75 c -24.930001,0 -45.000001,-20.07 -45.000001,-45 v -478.75 c 0,-24.93 20.07,-45 45.000001,-45 z"
       id="rect10483" /><rect
       ry="44"
       rx="44"
       y="3.3621678"
       x="1"
       height="1048"
       width="698"
       id="rect10490"
       style="color:#000000;display:inline;overflow:visible;visibility:visible;opacity:1;fill:none;stroke:#000000;stroke-width:2;stroke-miterlimit:4;stroke-dasharray:none;stroke-opacity:1;marker:none;enable-background:accumulate" /><g
       aria-label="300m"
       id="text5762"
       style="font-size:190.338px;line-height:1.5;font-family:'Russian Road Sign';-inkscape-font-specification:'Russian Road Sign';fill:#ffffff;fill-rule:evenodd;stroke-width:44.8854;stroke-linecap:round;stroke-linejoin:round;paint-order:stroke fill markers"
       transform="translate(-1.5e-5)"><path
         d="m 155.76006,841.76231 7.04251,15.79805 c 7.61352,-6.47149 12.94298,-9.13622 23.60191,-9.13622 6.66183,0 13.32366,5.32946 13.32366,11.99129 0,7.9942 -10.65893,17.32076 -23.98259,19.98549 v 14.65603 c 2.66473,-1.33237 6.09082,-1.33237 9.32656,-1.33237 17.32076,0 18.84347,11.03961 18.84347,15.60772 -0.19034,12.37197 -10.84927,17.70143 -22.84056,17.70143 -8.75555,0 -20.36617,-1.5227 -26.83766,-5.90048 l 2.28405,18.65313 c 0,0 16.55941,4.56811 27.21834,4.56811 25.31495,0 39.20963,-18.65312 39.20963,-34.64152 0,-17.32075 -19.22414,-25.31495 -25.88597,-26.64731 10.65893,-1.33237 21.31785,-11.9913 21.31785,-26.64732 0,-14.65603 -15.22704,-24.17293 -28.5507,-24.17293 -10.65892,0 -27.40867,5.5198 -34.0705,9.5169 z"
         id="path6231"
         style="fill:#ffffff" /><path
         d="m 284.61905,833.76811 c -21.31785,0 -35.97388,22.65023 -35.97388,54.62701 0,31.97678 14.65603,54.627 35.97388,54.627 21.31786,0 35.97388,-22.65022 35.97388,-54.627 0,-30.26374 -14.65602,-54.62701 -35.97388,-54.62701 z m 0,16.55941 c 10.27825,0 17.32076,11.42028 17.32076,38.0676 0,26.64732 -7.04251,38.0676 -17.32076,38.0676 -10.27825,0 -17.32076,-11.42028 -17.32076,-38.0676 0,-26.64732 7.04251,-38.0676 17.32076,-38.0676 z"
         id="path6233"
         style="fill:#ffffff" /><path
         d="m 380.54934,833.76811 c -21.31785,0 -35.97388,22.65023 -35.97388,54.62701 0,31.97678 14.65603,54.627 35.97388,54.627 21.31786,0 35.97388,-22.65022 35.97388,-54.627 0,-30.26374 -14.65602,-54.62701 -35.97388,-54.62701 z m 0,16.55941 c 10.27825,0 17.32076,11.42028 17.32076,38.0676 0,26.64732 -7.04251,38.0676 -17.32076,38.0676 -10.27825,0 -17.32075,-11.42028 -17.32075,-38.0676 0,-26.64732 7.0425,-38.0676 17.32075,-38.0676 z"
         id="path6235"
         style="fill:#ffffff" /><path
         d="m 481.8091,865.7449 c -13.32366,0 -20.93718,10.08791 -20.93718,10.08791 -1.33236,-1.90338 -2.09371,-5.32946 -2.66473,-8.75555 h -13.70433 v 74.6125 h 15.98839 v -47.96518 c 3.9971,-7.99419 9.5169,-14.65602 17.32076,-14.65602 7.99419,0 9.32656,6.66183 9.32656,10.65893 v 51.96227 h 15.98839 v -47.96518 c 3.9971,-7.99419 9.5169,-14.65602 17.32076,-14.65602 7.99419,0 9.32656,6.66183 9.32656,10.65893 v 51.96227 h 15.98839 v -53.29464 c 0,-13.32366 -6.66183,-22.65022 -21.31785,-22.65022 -9.89758,0 -19.98549,5.32946 -22.65023,13.32366 -2.66473,-7.9942 -9.70723,-13.32366 -19.98549,-13.32366 z"
         id="path6237"
         style="fill:#ffffff" /></g><g
       id="g115751"
       transform="matrix(1.383671,0,0,1.383671,72.968996,-214.66503)"><path
         id="rect2049"
         style="opacity:1;fill:#000000;fill-rule:evenodd;stroke:none;stroke-width:8.05645;stroke-linecap:round;stroke-linejoin:round;stroke-dasharray:none;stroke-opacity:1;paint-order:stroke fill markers"
         d="m 200.21411,339.1097 c -10.97992,0 -19.81881,8.83962 -19.81881,19.81953 v 93.38688 L 57.423328,530.58272 c -0.523488,0.24959 -1.686382,0.82509 -3.164899,1.85771 -0.933291,0.65182 -1.958192,1.39369 -3.030894,2.80076 -1.072739,1.40708 -2.469152,4.57328 -1.122925,7.69668 1.45223,3.36934 4.965933,4.64208 7.046348,4.8624 2.080414,0.22032 3.71154,-0.0621 5.201018,-0.37066 2.639695,-0.54683 4.612057,-1.31286 5.089609,-1.50234 l 107.919445,-34.31571 5.03427,-1.42076 v 91.30483 l -28.66898,18.19268 c -0.59232,0.28519 -2.3784,1.16718 -4.52015,2.69081 -1.26479,0.89977 -2.61512,1.92848 -3.91642,3.65643 -1.3013,1.72796 -2.85621,5.24204 -1.39164,8.79776 1.42382,3.45684 4.90169,4.8074 6.91454,5.09908 2.01285,0.29168 3.54074,0.0831 4.92212,-0.14418 1.67501,-0.27565 2.95044,-0.63102 3.86691,-0.91465 0,0 28.23789,-10.33265 42.93648,-10.07508 12.79587,0.22423 37.04802,10.07508 37.04802,10.07508 0.91647,0.28363 7.433,0.639 9.10801,0.91465 1.38127,0.22729 2.90923,0.43586 4.92208,0.14418 2.01286,-0.29168 5.49073,-1.64224 6.91455,-5.09908 1.46457,-3.55572 -0.0904,-7.0698 -1.39164,-8.79776 -1.3013,-1.72795 -2.65163,-2.75666 -3.91643,-3.65643 -2.14175,-1.52363 -3.92779,-2.40562 -4.52011,-2.69081 L 220.03362,601.49563 V 510.1908 l 5.03428,1.42076 107.91944,34.31571 c 0.47755,0.18948 2.44991,0.95551 5.08961,1.50234 1.48955,0.30854 3.1206,0.59098 5.20102,0.37066 2.08041,-0.22032 5.59415,-1.49306 7.04638,-4.8624 1.34615,-3.1234 -0.0502,-6.2896 -1.12296,-7.69668 -1.0727,-1.40707 -2.0976,-2.14894 -3.0309,-2.80076 -1.47851,-1.03262 -2.64141,-1.60812 -3.16489,-1.85771 L 220.03362,452.31611 v -93.38688 c 0,-10.97991 -8.83959,-19.81953 -19.81951,-19.81953 z" /></g></g></svg>
