<svg width="64" height="64" viewBox="0 0 64 64" fill="none" xmlns="http://www.w3.org/2000/svg">
<path d="M32 64C30.8572 64 29.7828 63.5546 28.9743 62.7467L1.25329 35.0257C0.444779 34.2179 0 33.1428 0 32C0 30.8566 0.444779 29.7821 1.25329 28.9743L28.9743 1.25331C29.7828 0.445471 30.8572 0 32 0C33.1428 0 34.2172 0.445471 35.0257 1.25331L62.7467 28.9743C63.5552 29.7821 64 30.8566 64 32C64 33.1428 63.5552 34.2179 62.7467 35.0257L35.0257 62.7467C34.2172 63.5552 33.1428 64 32 64Z" fill="#353535"/>
<path d="M62.1325 34.4115L34.4115 62.1325C33.0798 63.4641 30.9202 63.4641 29.5879 62.1325L1.86691 34.4115C0.535249 33.0798 0.535249 30.9202 1.86691 29.5879L29.5879 1.86691C30.9196 0.535249 33.0792 0.535249 34.4115 1.86691L62.1325 29.5879C63.4642 30.9202 63.4642 33.0798 62.1325 34.4115Z" fill="#E8E8E8"/>
<path d="M32.0015 55.9521L55.9492 32.0044L32.0015 8.05666L8.05375 32.0044L32.0015 55.9521Z" fill="#353535"/>
<path d="M32.0031 54.7221L54.7227 32.0026L32.0031 9.28298L9.28352 32.0025L32.0031 54.7221Z" fill="#FFD217"/>
<path d="M31.8553 0.00671387C30.7668 0.0428857 29.748 0.479642 28.9743 1.25332L1.25329 28.9743C0.444779 29.7821 0 30.8566 0 32C0 33.1428 0.444779 34.2179 1.25329 35.0257L28.9743 62.7467C29.748 63.5204 30.7668 63.9571 31.8553 63.9933V0.00671387Z" fill="#424242"/>
<path d="M31.8557 0.875488C31.0317 0.91032 30.2179 1.23856 29.5889 1.86755L1.86788 29.5885C0.536226 30.9202 0.536226 33.0798 1.86788 34.4121L29.5889 62.1331C30.2179 62.7621 31.0317 63.0904 31.8557 63.1252V0.875488Z" fill="#F5F5F5"/>
<path d="M31.8558 8.1969L8.05273 32L31.8558 55.803V8.1969Z" fill="#424242"/>
<path d="M31.8545 9.4248L9.2793 32.0001L31.8545 54.5753V9.4248Z" fill="#FDD835"/>
</svg>
