<?xml version="1.0" encoding="UTF-8" standalone="no"?>
<!-- Created with Inkscape (http://www.inkscape.org/) -->

<svg
   width="952.32825"
   height="952.32825"
   viewBox="0 0 251.97017 251.97019"
   version="1.1"
   id="svg2675"
   inkscape:version="1.2.2 (732a01da63, 2022-12-09)"
   sodipodi:docname="drawing.svg"
   xmlns:inkscape="http://www.inkscape.org/namespaces/inkscape"
   xmlns:sodipodi="http://sodipodi.sourceforge.net/DTD/sodipodi-0.dtd"
   xmlns="http://www.w3.org/2000/svg"
   xmlns:svg="http://www.w3.org/2000/svg"
   xmlns:rdf="http://www.w3.org/1999/02/22-rdf-syntax-ns#"
   xmlns:cc="http://creativecommons.org/ns#"
   xmlns:dc="http://purl.org/dc/elements/1.1/">
  <title
     id="title6276">5.47.1 Turizm obyektlari</title>
  <sodipodi:namedview
     id="namedview2677"
     pagecolor="#ffffff"
     bordercolor="#000000"
     borderopacity="0.25"
     inkscape:showpageshadow="2"
     inkscape:pageopacity="0.0"
     inkscape:pagecheckerboard="0"
     inkscape:deskcolor="#d1d1d1"
     inkscape:document-units="px"
     showgrid="false"
     inkscape:zoom="0.73940797"
     inkscape:cx="467.26572"
     inkscape:cy="702.58913"
     inkscape:window-width="1920"
     inkscape:window-height="991"
     inkscape:window-x="-9"
     inkscape:window-y="-9"
     inkscape:window-maximized="1"
     inkscape:current-layer="layer1" />
  <defs
     id="defs2672" />
  <g
     inkscape:label="Layer 1"
     inkscape:groupmode="layer"
     id="layer1"
     transform="translate(-140.8069,51.675521)">
    <path
       style="color:#000000;fill:#000000;fill-rule:evenodd;stroke:none;stroke-width:0.132292;stroke-linecap:round;stroke-dasharray:none;stroke-opacity:1;paint-order:stroke fill markers"
       d="m 140.87305,-51.609375 v 0.287109 251.550786 H 392.71094 V -51.609375 Z m 0.57226,0.572266 H 392.13867 V 199.6582 H 141.44531 Z"
       id="path8640" />
    <path
       style="color:#000000;fill:#ffffff;fill-rule:evenodd;stroke:none;stroke-width:0.132292;stroke-linecap:round;stroke-dasharray:none;stroke-opacity:1;paint-order:stroke fill markers"
       d="M 141.15904,-51.322987 H 392.42508 V 199.94305 H 141.15904 Z"
       id="path8642" />
    <path
       id="rect916-9-2"
       style="fill:#7c4e24;fill-rule:evenodd;stroke-width:7.65937;stroke-linecap:round;stroke-linejoin:round;paint-order:stroke fill markers"
       d="m 154.03171,-47.226643 h 101.89983 c 4.87143,0 8.79316,3.921753 8.79316,8.793168 V 63.466352 c 0,4.871416 -3.92173,8.793168 -8.79316,8.793168 H 154.03171 c -4.8714,0 -8.79316,-3.921752 -8.79316,-8.793168 V -38.433475 c 0,-4.871415 3.92176,-8.793168 8.79316,-8.793168 z" />
    <g
       aria-label="MASJID"
       id="text808-8"
       style="font-size:9.80559px;line-height:1.5;font-family:'Russian Road Sign';-inkscape-font-specification:'Russian Road Sign';text-align:center;letter-spacing:-0.855538px;text-anchor:middle;fill:#ffffff;fill-rule:evenodd;stroke-width:6.86401;stroke-linecap:round;stroke-linejoin:round;paint-order:stroke fill markers">
      <path
         d="m 192.35315,51.118893 h 0.96095 v -3.98107 l 1.64734,2.882844 1.64734,-2.882844 0.0686,3.98107 h 0.89231 v -5.491131 h -1.09822 l -1.51006,2.539648 -1.51006,-2.539648 h -1.09823 z"
         style="text-align:start;text-anchor:start"
         id="path8687" />
      <path
         d="m 199.87159,49.196997 0.68639,-2.33373 0.6864,2.33373 z m 0.13728,-3.569235 -1.78462,5.491131 h 1.02959 l 0.3432,-1.098226 h 1.92189 l 0.3432,1.098226 h 1.02958 l -1.78461,-5.491131 z"
         style="text-align:start;text-anchor:start"
         id="path8689" />
      <path
         d="m 203.58545,50.295223 c 0,0 0.92173,0.960948 2.15723,0.960948 1.37278,0 2.1082,-1.029587 2.1082,-1.715978 0,-0.82367 -0.59814,-1.372783 -1.55909,-1.5787 -0.75503,-0.15689 -1.44142,-0.24514 -1.44142,-0.774642 0,-0.264751 0.20592,-0.804058 1.02959,-0.804058 0.71581,0 1.21589,0.549113 1.21589,0.549113 l 0.63737,-0.686391 c 0,0 -0.89231,-0.755031 -1.85326,-0.755031 -1.16687,0 -1.99053,0.755031 -1.99053,1.715978 0,0.421641 0.1863,1.313949 1.71597,1.539478 1.2257,0.176501 1.23551,0.637363 1.23551,0.853086 v 0.0098 c 0,0.205917 -0.23534,0.75503 -1.07862,0.75503 -0.96095,0 -1.50025,-0.647169 -1.50025,-0.647169 z"
         style="text-align:start;text-anchor:start"
         id="path8691" />
      <path
         d="m 208.02494,50.157945 -0.0686,0.960948 c 0,0 0.68639,0.137278 1.02958,0.137278 0.96095,0 1.51007,-0.715808 1.51007,-1.362977 V 45.627762 H 209.535 v 3.990875 c 0,0.470669 -0.3432,0.676586 -0.61775,0.676586 -0.48048,0 -0.89231,-0.137278 -0.89231,-0.137278 z"
         style="text-align:start;text-anchor:start"
         id="path8693" />
      <path
         d="m 211.49367,51.118893 h 0.96094 v -5.491131 h -0.96094 z"
         style="text-align:start;text-anchor:start"
         id="path8695" />
      <path
         d="m 215.23696,45.627762 h -1.85326 v 5.491131 h 1.85326 c 1.51006,0 2.37295,-1.15706 2.37295,-2.745565 0,-1.588506 -0.86289,-2.745566 -2.37295,-2.745566 z m -0.0686,0.82367 c 0.75503,0 1.44142,0.617752 1.44142,1.921896 0,1.304143 -0.68639,1.921895 -1.44142,1.921895 h -0.82367 v -3.843791 z"
         style="text-align:start;text-anchor:start"
         id="path8697" />
    </g>
    <g
       aria-label="MOSQUE"
       id="text862-6"
       style="font-size:9.80559px;line-height:1.5;font-family:'Russian Road Sign';-inkscape-font-specification:'Russian Road Sign';text-align:center;letter-spacing:-0.855538px;text-anchor:middle;fill:#ffffff;fill-rule:evenodd;stroke-width:6.86401;stroke-linecap:round;stroke-linejoin:round;paint-order:stroke fill markers">
      <path
         d="m 190.38234,58.558361 h 0.96095 v -3.981069 l 1.64734,2.882843 1.64734,-2.882843 0.0686,3.981069 h 0.89231 v -5.49113 h -1.09822 l -1.51006,2.539648 -1.51006,-2.539648 h -1.09823 z"
         style="text-align:start;text-anchor:start"
         id="path8700" />
      <path
         d="m 198.4499,52.929953 c -1.51007,0 -2.23568,1.294337 -2.23568,2.882843 0,1.588505 0.72561,2.882843 2.23568,2.882843 1.51006,0 2.23567,-1.294338 2.23567,-2.882843 0,-1.588506 -0.72561,-2.882843 -2.23567,-2.882843 z m 0,0.892308 c 0.75503,0 1.30414,0.755031 1.30414,1.990535 0,1.235504 -0.54911,1.990535 -1.30414,1.990535 -0.75503,0 -1.30415,-0.755031 -1.30415,-1.990535 0,-1.235504 0.54912,-1.990535 1.30415,-1.990535 z"
         style="text-align:start;text-anchor:start"
         id="path8702" />
      <path
         d="m 201.34009,57.734692 c 0,0 0.92172,0.960947 2.15723,0.960947 1.37278,0 2.1082,-1.029587 2.1082,-1.715978 0,-0.823669 -0.59814,-1.372782 -1.55909,-1.5787 -0.75503,-0.156889 -1.44142,-0.24514 -1.44142,-0.774641 0,-0.264751 0.20592,-0.804059 1.02958,-0.804059 0.71581,0 1.2159,0.549113 1.2159,0.549113 l 0.63736,-0.686391 c 0,0 -0.89231,-0.75503 -1.85326,-0.75503 -1.16686,0 -1.99053,0.75503 -1.99053,1.715978 0,0.42164 0.18631,1.313949 1.71598,1.539477 1.2257,0.176501 1.2355,0.637364 1.2355,0.853087 v 0.0098 c 0,0.205918 -0.23533,0.755031 -1.07861,0.755031 -0.96095,0 -1.50026,-0.647169 -1.50026,-0.647169 z"
         style="text-align:start;text-anchor:start"
         id="path8704" />
      <path
         d="m 208.25058,52.929953 c -1.51006,0 -2.21606,1.294337 -2.21606,2.882843 0,1.588505 0.706,2.882843 2.21606,2.882843 0.23533,0 0.46086,-0.02942 0.65697,-0.08825 l 0.26476,0.529502 0.79425,-0.441252 -0.30397,-0.539307 c 0.5393,-0.519696 0.80405,-1.382588 0.80405,-2.343536 0,-1.588506 -0.706,-2.882843 -2.21606,-2.882843 z m 0,0.892308 c 0.75503,0 1.28453,0.755031 1.28453,1.990535 0,0.617752 -0.13728,1.117837 -0.3628,1.461033 l -0.3432,-0.588336 -0.706,0.362807 0.3628,0.725614 c -0.0784,0.01961 -0.15689,0.02942 -0.23533,0.02942 -0.75503,0 -1.28453,-0.755031 -1.28453,-1.990535 0,-1.235504 0.5295,-1.990535 1.28453,-1.990535 z"
         style="text-align:start;text-anchor:start"
         id="path8706" />
      <path
         d="m 211.17019,53.067231 v 3.706513 c 0,0.06864 0.0686,1.853256 1.99053,1.853256 1.9219,0 1.99054,-1.784617 1.99054,-1.853256 v -3.706513 h -0.96095 v 3.775152 c 0,0.75503 -0.61775,1.029587 -1.02959,1.029587 -0.41183,0 -1.02959,-0.274557 -1.02959,-1.029587 v -3.775152 z"
         style="text-align:start;text-anchor:start"
         id="path8708" />
      <path
         d="m 216.08033,58.558361 h 3.50059 v -0.823669 h -2.53964 v -1.64734 h 1.99053 v -0.823669 h -1.99053 v -1.304144 h 2.47101 v -0.892308 h -3.43196 z"
         style="text-align:start;text-anchor:start"
         id="path8710" />
    </g>
    <path
       id="rect7428"
       style="fill:#7c4e24;fill-rule:evenodd;stroke-width:7.65937;stroke-linecap:round;stroke-linejoin:round;paint-order:stroke fill markers"
       d="m 277.65272,-47.226643 h 101.89982 c 4.87143,0 8.79319,3.921753 8.79319,8.793168 V 63.466352 c 0,4.871416 -3.92176,8.793168 -8.79319,8.793168 H 277.65272 c -4.87141,0 -8.79317,-3.921752 -8.79317,-8.793168 V -38.433475 c 0,-4.871415 3.92176,-8.793168 8.79317,-8.793168 z" />
    <g
       aria-label="MEʼ MORCHILIK YODGORLIGI"
       id="text7434"
       style="font-size:9.80559px;line-height:1.5;font-family:'Russian Road Sign';-inkscape-font-specification:'Russian Road Sign';text-align:center;letter-spacing:-0.855538px;text-anchor:middle;fill:#ffffff;fill-rule:evenodd;stroke-width:6.86401;stroke-linecap:round;stroke-linejoin:round;paint-order:stroke fill markers">
      <path
         d="m 279.75003,51.118877 h 0.96095 v -3.981069 l 1.64734,2.882843 1.64734,-2.882843 0.0686,3.981069 h 0.8923 v -5.49113 h -1.09822 l -1.51006,2.539648 -1.51006,-2.539648 h -1.09823 z"
         style="text-align:start;text-anchor:start"
         id="path8713" />
      <path
         d="m 285.82705,51.118877 h 3.5006 V 50.295208 H 286.788 v -1.647339 h 1.99053 v -0.82367 H 286.788 v -1.304143 h 2.47101 v -0.892309 h -3.43196 z"
         style="text-align:start;text-anchor:start"
         id="path8715" />
      <path
         d="m 290.55089,46.745584 c -0.30397,0 -0.54911,0.24514 -0.54911,0.549113 0,0.303974 0.24514,0.549113 0.54911,0.549113 0.0686,0 0.14708,-0.0098 0.20592,-0.03922 v 0.06864 c 0,0.343196 -0.43145,0.607947 -0.43145,0.607947 l 0.0686,0.166695 c 0,0 0.73542,-0.411835 0.73542,-1.098226 0,-0.480474 -0.15689,-0.617752 -0.21572,-0.66678 -0.0981,-0.07845 -0.22553,-0.137279 -0.36281,-0.137279 z"
         style="text-align:start;text-anchor:start"
         id="path8717" />
      <path
         d="m 293.3798,51.118877 h 0.96095 v -3.981069 l 1.64734,2.882843 1.64734,-2.882843 0.0686,3.981069 h 0.89231 v -5.49113 h -1.09823 l -1.51006,2.539648 -1.51006,-2.539648 h -1.09823 z"
         style="text-align:start;text-anchor:start"
         id="path8719" />
      <path
         d="m 301.44736,45.490469 c -1.51006,0 -2.23568,1.294338 -2.23568,2.882843 0,1.588506 0.72562,2.882844 2.23568,2.882844 1.51006,0 2.23567,-1.294338 2.23567,-2.882844 0,-1.588505 -0.72561,-2.882843 -2.23567,-2.882843 z m 0,0.892309 c 0.75503,0 1.30414,0.75503 1.30414,1.990534 0,1.235505 -0.54911,1.990535 -1.30414,1.990535 -0.75503,0 -1.30415,-0.75503 -1.30415,-1.990535 0,-1.235504 0.54912,-1.990534 1.30415,-1.990534 z"
         style="text-align:start;text-anchor:start"
         id="path8721" />
      <path
         d="m 304.4356,45.627747 v 5.49113 h 0.96095 v -2.196452 h 0.54912 c 0.61775,0 0.75503,0.382418 1.00017,0.843281 0.25494,0.49028 0.43144,1.068809 0.64716,1.353171 h 1.16687 c -0.61775,-0.274556 -0.89231,-2.33373 -1.78462,-2.539647 0.54912,-0.205918 1.02959,-0.686392 1.02959,-1.441422 0,-0.549113 -0.3432,-1.510061 -1.71598,-1.510061 z m 0.96095,0.82367 h 0.61775 c 0.54912,0 1.02959,0.235334 1.02959,0.823669 0,0.588336 -0.48047,0.82367 -1.02959,0.82367 h -0.61775 z"
         style="text-align:start;text-anchor:start"
         id="path8723" />
      <path
         d="m 311.5422,45.490469 c -1.51006,0 -2.23568,1.294338 -2.23568,2.882843 0,1.598311 0.72562,2.882844 2.23568,2.882844 1.03939,0 1.64734,-0.617752 1.99053,-1.510061 l -0.92172,-0.343196 c -0.20592,0.686391 -0.56873,0.960948 -1.06881,0.960948 -0.75503,0 -1.30414,-0.75503 -1.30414,-1.990535 0,-1.235504 0.54911,-1.990534 1.30414,-1.990534 0.50008,0 0.86289,0.274556 1.06881,0.960947 l 0.92172,-0.343195 c -0.34319,-0.892309 -0.95114,-1.510061 -1.99053,-1.510061 z"
         style="text-align:start;text-anchor:start"
         id="path8725" />
      <path
         d="m 314.18725,51.118877 h 0.96095 v -2.471008 h 2.05917 v 2.471008 h 0.96095 v -5.49113 h -0.96095 v 2.196452 h -2.05917 v -2.196452 h -0.96095 z"
         style="text-align:start;text-anchor:start"
         id="path8727" />
      <path
         d="m 319.09739,51.118877 h 0.96095 v -5.49113 h -0.96095 z"
         style="text-align:start;text-anchor:start"
         id="path8729" />
      <path
         d="m 320.98743,51.118877 h 3.43195 v -0.823669 h -2.471 v -4.667461 h -0.96095 z"
         style="text-align:start;text-anchor:start"
         id="path8731" />
      <path
         d="m 325.0739,51.118877 h 0.96095 v -5.49113 h -0.96095 z"
         style="text-align:start;text-anchor:start"
         id="path8733" />
      <path
         d="m 330.02328,51.118877 h 1.23551 l -2.10821,-2.91226 1.97093,-2.57887 H 329.886 l -1.91209,2.588676 z m -2.05917,-5.49113 h -0.96095 v 5.49113 h 0.96095 z"
         style="text-align:start;text-anchor:start"
         id="path8735" />
      <path
         d="m 337.38238,51.118877 h 0.96094 v -2.196452 l 1.71598,-3.294678 h -1.09822 l -1.09823,2.265091 -1.09823,-2.265091 h -1.09822 l 1.71598,3.294678 z"
         style="text-align:start;text-anchor:start"
         id="path8737" />
      <path
         d="m 342.77299,45.490469 c -1.51006,0 -2.23567,1.294338 -2.23567,2.882843 0,1.588506 0.72561,2.882844 2.23567,2.882844 1.51006,0 2.23568,-1.294338 2.23568,-2.882844 0,-1.588505 -0.72562,-2.882843 -2.23568,-2.882843 z m 0,0.892309 c 0.75503,0 1.30414,0.75503 1.30414,1.990534 0,1.235505 -0.54911,1.990535 -1.30414,1.990535 -0.75503,0 -1.30414,-0.75503 -1.30414,-1.990535 0,-1.235504 0.54911,-1.990534 1.30414,-1.990534 z"
         style="text-align:start;text-anchor:start"
         id="path8739" />
      <path
         d="m 347.54586,45.627747 h -1.85326 v 5.49113 h 1.85326 c 1.51006,0 2.37295,-1.157059 2.37295,-2.745565 0,-1.588505 -0.86289,-2.745565 -2.37295,-2.745565 z m -0.0686,0.82367 c 0.75503,0 1.44142,0.617752 1.44142,1.921895 0,1.304144 -0.68639,1.921896 -1.44142,1.921896 h -0.82367 v -3.843791 z"
         style="text-align:start;text-anchor:start"
         id="path8741" />
      <path
         d="m 352.73056,45.490469 c -1.51007,0 -2.32393,1.294338 -2.32393,2.882843 0,1.588506 0.81386,2.882844 2.32393,2.882844 0.5295,0 0.86289,-0.284362 1.09822,-0.617752 l 0.20592,0.480473 h 0.82367 v -2.745565 h -1.99054 v 0.82367 h 0.96095 c 0,0.480474 -0.0686,0.617752 -0.34319,0.892308 -0.20592,0.205918 -0.41184,0.274557 -0.75503,0.274557 -0.75503,0 -1.30415,-0.75503 -1.30415,-1.990535 0,-1.235504 0.54912,-1.990534 1.30415,-1.990534 0.50989,0 0.86289,0.274556 1.0688,0.960947 l 0.92173,-0.343195 c -0.3432,-0.892309 -0.95114,-1.510061 -1.99053,-1.510061 z"
         style="text-align:start;text-anchor:start"
         id="path8743" />
      <path
         d="m 357.50342,45.490469 c -1.51006,0 -2.23568,1.294338 -2.23568,2.882843 0,1.588506 0.72562,2.882844 2.23568,2.882844 1.51006,0 2.23567,-1.294338 2.23567,-2.882844 0,-1.588505 -0.72561,-2.882843 -2.23567,-2.882843 z m 0,0.892309 c 0.75503,0 1.30414,0.75503 1.30414,1.990534 0,1.235505 -0.54911,1.990535 -1.30414,1.990535 -0.75503,0 -1.30415,-0.75503 -1.30415,-1.990535 0,-1.235504 0.54912,-1.990534 1.30415,-1.990534 z"
         style="text-align:start;text-anchor:start"
         id="path8745" />
      <path
         d="m 360.49166,45.627747 v 5.49113 h 0.96095 v -2.196452 h 0.54911 c 0.61776,0 0.75503,0.382418 1.00017,0.843281 0.25495,0.49028 0.43145,1.068809 0.64717,1.353171 h 1.16687 c -0.61775,-0.274556 -0.89231,-2.33373 -1.78462,-2.539647 0.54911,-0.205918 1.02959,-0.686392 1.02959,-1.441422 0,-0.549113 -0.3432,-1.510061 -1.71598,-1.510061 z m 0.96095,0.82367 h 0.61775 c 0.54912,0 1.02959,0.235334 1.02959,0.823669 0,0.588336 -0.48047,0.82367 -1.02959,0.82367 h -0.61775 z"
         style="text-align:start;text-anchor:start"
         id="path8747" />
      <path
         d="m 365.60772,51.118877 h 3.43196 v -0.823669 h -2.47101 v -4.667461 h -0.96095 z"
         style="text-align:start;text-anchor:start"
         id="path8749" />
      <path
         d="m 369.6942,51.118877 h 0.96095 v -5.49113 h -0.96095 z"
         style="text-align:start;text-anchor:start"
         id="path8751" />
      <path
         d="m 373.71205,45.490469 c -1.51006,0 -2.32393,1.294338 -2.32393,2.882843 0,1.588506 0.81387,2.882844 2.32393,2.882844 0.5295,0 0.86289,-0.284362 1.09822,-0.617752 l 0.20592,0.480473 h 0.82367 v -2.745565 h -1.99054 v 0.82367 h 0.96095 c 0,0.480474 -0.0686,0.617752 -0.34319,0.892308 -0.20592,0.205918 -0.41184,0.274557 -0.75503,0.274557 -0.75503,0 -1.30415,-0.75503 -1.30415,-1.990535 0,-1.235504 0.54912,-1.990534 1.30415,-1.990534 0.50989,0 0.86289,0.274556 1.06881,0.960947 l 0.92172,-0.343195 c -0.34319,-0.892309 -0.95114,-1.510061 -1.99053,-1.510061 z"
         style="text-align:start;text-anchor:start"
         id="path8753" />
      <path
         d="m 376.49437,51.118877 h 0.96095 v -5.49113 h -0.96095 z"
         style="text-align:start;text-anchor:start"
         id="path8755" />
    </g>
    <g
       aria-label="ARCHITECTURAL MONUMENT"
       id="text7438"
       style="font-size:9.80559px;line-height:1.5;font-family:'Russian Road Sign';-inkscape-font-specification:'Russian Road Sign';text-align:center;letter-spacing:-0.855538px;text-anchor:middle;fill:#ffffff;fill-rule:evenodd;stroke-width:6.86401;stroke-linecap:round;stroke-linejoin:round;paint-order:stroke fill markers">
      <path
         d="m 278.7473,56.63645 0.6864,-2.33373 0.68639,2.33373 z m 0.13728,-3.569234 -1.78461,5.49113 h 1.02958 l 0.3432,-1.098226 h 1.92189 l 0.3432,1.098226 h 1.02959 l -1.78462,-5.49113 z"
         style="text-align:start;text-anchor:start"
         id="path8758" />
      <path
         d="m 282.55922,53.067216 v 5.49113 h 0.96095 v -2.196452 h 0.54911 c 0.61775,0 0.75503,0.382418 1.00017,0.84328 0.25495,0.49028 0.43145,1.06881 0.64717,1.353172 h 1.16686 c -0.61775,-0.274557 -0.8923,-2.333731 -1.78461,-2.539648 0.54911,-0.205917 1.02958,-0.686391 1.02958,-1.441422 0,-0.549113 -0.34319,-1.51006 -1.71597,-1.51006 z m 0.96095,0.823669 h 0.61775 c 0.54911,0 1.02959,0.235334 1.02959,0.82367 0,0.588335 -0.48048,0.823669 -1.02959,0.823669 h -0.61775 z"
         style="text-align:start;text-anchor:start"
         id="path8760" />
      <path
         d="m 289.66581,52.929937 c -1.51006,0 -2.23567,1.294338 -2.23567,2.882844 0,1.598311 0.72561,2.882843 2.23567,2.882843 1.0394,0 1.64734,-0.617752 1.99054,-1.510061 l -0.92173,-0.343195 c -0.20592,0.686391 -0.56872,0.960947 -1.06881,0.960947 -0.75503,0 -1.30414,-0.75503 -1.30414,-1.990534 0,-1.235505 0.54911,-1.990535 1.30414,-1.990535 0.50009,0 0.86289,0.274556 1.06881,0.960948 l 0.92173,-0.343196 c -0.3432,-0.892309 -0.95114,-1.510061 -1.99054,-1.510061 z"
         style="text-align:start;text-anchor:start"
         id="path8762" />
      <path
         d="m 292.31086,58.558346 h 0.96095 v -2.471009 h 2.05918 v 2.471009 h 0.96094 v -5.49113 h -0.96094 v 2.196452 h -2.05918 v -2.196452 h -0.96095 z"
         style="text-align:start;text-anchor:start"
         id="path8764" />
      <path
         d="m 297.22101,58.558346 h 0.96095 v -5.49113 h -0.96095 z"
         style="text-align:start;text-anchor:start"
         id="path8766" />
      <path
         d="m 298.83648,53.067216 v 0.823669 h 1.51007 v 4.667461 h 0.96094 v -4.667461 h 1.51006 v -0.823669 z"
         style="text-align:start;text-anchor:start"
         id="path8768" />
      <path
         d="m 303.47207,58.558346 h 3.5006 v -0.82367 h -2.53965 v -1.647339 h 1.99054 v -0.823669 h -1.99054 v -1.304144 h 2.47101 v -0.892308 h -3.43196 z"
         style="text-align:start;text-anchor:start"
         id="path8770" />
      <path
         d="m 309.89228,52.929937 c -1.51006,0 -2.23568,1.294338 -2.23568,2.882844 0,1.598311 0.72562,2.882843 2.23568,2.882843 1.03939,0 1.64734,-0.617752 1.99053,-1.510061 l -0.92172,-0.343195 c -0.20592,0.686391 -0.56873,0.960947 -1.06881,0.960947 -0.75503,0 -1.30414,-0.75503 -1.30414,-1.990534 0,-1.235505 0.54911,-1.990535 1.30414,-1.990535 0.50008,0 0.86289,0.274556 1.06881,0.960948 l 0.92172,-0.343196 c -0.34319,-0.892309 -0.95114,-1.510061 -1.99053,-1.510061 z"
         style="text-align:start;text-anchor:start"
         id="path8772" />
      <path
         d="m 312.26278,53.067216 v 0.823669 h 1.51006 v 4.667461 h 0.96094 v -4.667461 h 1.51006 v -0.823669 z"
         style="text-align:start;text-anchor:start"
         id="path8774" />
      <path
         d="m 316.89836,53.067216 v 3.706512 c 0,0.06864 0.0686,1.853257 1.99054,1.853257 1.92189,0 1.99053,-1.784617 1.99053,-1.853257 v -3.706512 h -0.96095 v 3.775152 c 0,0.75503 -0.61775,1.029587 -1.02958,1.029587 -0.41184,0 -1.02959,-0.274557 -1.02959,-1.029587 v -3.775152 z"
         style="text-align:start;text-anchor:start"
         id="path8776" />
      <path
         d="m 321.87714,53.067216 v 5.49113 h 0.96095 v -2.196452 h 0.54911 c 0.61776,0 0.75503,0.382418 1.00017,0.84328 0.25495,0.49028 0.43145,1.06881 0.64717,1.353172 h 1.16687 c -0.61775,-0.274557 -0.89231,-2.333731 -1.78462,-2.539648 0.54911,-0.205917 1.02959,-0.686391 1.02959,-1.441422 0,-0.549113 -0.3432,-1.51006 -1.71598,-1.51006 z m 0.96095,0.823669 h 0.61775 c 0.54912,0 1.02959,0.235334 1.02959,0.82367 0,0.588335 -0.48047,0.823669 -1.02959,0.823669 h -0.61775 z"
         style="text-align:start;text-anchor:start"
         id="path8778" />
      <path
         d="m 328.43463,56.63645 0.68639,-2.33373 0.68639,2.33373 z m 0.13727,-3.569234 -1.78461,5.49113 h 1.02958 l 0.3432,-1.098226 h 1.92189 l 0.3432,1.098226 h 1.02959 l -1.78462,-5.49113 z"
         style="text-align:start;text-anchor:start"
         id="path8780" />
      <path
         d="m 332.1779,58.558346 h 3.43196 v -0.82367 h -2.47101 v -4.66746 h -0.96095 z"
         style="text-align:start;text-anchor:start"
         id="path8782" />
      <path
         d="m 340.24299,58.558346 h 0.96095 v -3.98107 l 1.64734,2.882844 1.64734,-2.882844 0.0686,3.98107 h 0.89231 v -5.49113 h -1.09823 l -1.51006,2.539647 -1.51006,-2.539647 h -1.09823 z"
         style="text-align:start;text-anchor:start"
         id="path8784" />
      <path
         d="m 348.31055,52.929937 c -1.51006,0 -2.23568,1.294338 -2.23568,2.882844 0,1.588505 0.72562,2.882843 2.23568,2.882843 1.51006,0 2.23567,-1.294338 2.23567,-2.882843 0,-1.588506 -0.72561,-2.882844 -2.23567,-2.882844 z m 0,0.892309 c 0.75503,0 1.30414,0.75503 1.30414,1.990535 0,1.235504 -0.54911,1.990534 -1.30414,1.990534 -0.75503,0 -1.30415,-0.75503 -1.30415,-1.990534 0,-1.235505 0.54912,-1.990535 1.30415,-1.990535 z"
         style="text-align:start;text-anchor:start"
         id="path8786" />
      <path
         d="m 351.16152,58.558346 h 0.96095 v -3.98107 l 2.05917,3.98107 h 1.09823 v -5.49113 h -0.96095 v 3.91243 l -2.05917,-3.91243 h -1.09823 z"
         style="text-align:start;text-anchor:start"
         id="path8788" />
      <path
         d="m 356.1403,53.067216 v 3.706512 c 0,0.06864 0.0686,1.853257 1.99054,1.853257 1.92189,0 1.99053,-1.784617 1.99053,-1.853257 v -3.706512 h -0.96095 v 3.775152 c 0,0.75503 -0.61775,1.029587 -1.02958,1.029587 -0.41184,0 -1.02959,-0.274557 -1.02959,-1.029587 v -3.775152 z"
         style="text-align:start;text-anchor:start"
         id="path8790" />
      <path
         d="m 360.9818,58.558346 h 0.96095 v -3.98107 l 1.64734,2.882844 1.64734,-2.882844 0.0686,3.98107 h 0.89231 v -5.49113 h -1.09823 l -1.51006,2.539647 -1.51006,-2.539647 h -1.09823 z"
         style="text-align:start;text-anchor:start"
         id="path8792" />
      <path
         d="m 367.05883,58.558346 h 3.50059 v -0.82367 h -2.53964 v -1.647339 h 1.99053 v -0.823669 h -1.99053 v -1.304144 h 2.471 v -0.892308 h -3.43195 z"
         style="text-align:start;text-anchor:start"
         id="path8794" />
      <path
         d="m 371.41985,58.558346 h 0.96095 v -3.98107 l 2.05917,3.98107 h 1.09823 v -5.49113 h -0.96095 v 3.91243 l -2.05917,-3.91243 h -1.09823 z"
         style="text-align:start;text-anchor:start"
         id="path8796" />
      <path
         d="m 376.12408,53.067216 v 0.823669 h 1.51007 v 4.667461 h 0.96094 v -4.667461 h 1.51006 v -0.823669 z"
         style="text-align:start;text-anchor:start"
         id="path8798" />
    </g>
    <path
       id="rect7543"
       style="fill:#7c4e24;fill-rule:evenodd;stroke-width:7.65937;stroke-linecap:round;stroke-linejoin:round;paint-order:stroke fill markers"
       d="m 154.03169,76.360553 h 101.89983 c 4.8714,0 8.79316,3.921753 8.79316,8.793168 V 187.05355 c 0,4.8714 -3.92176,8.79316 -8.79316,8.79316 H 154.03169 c -4.87142,0 -8.79318,-3.92176 -8.79318,-8.79316 V 85.153721 c 0,-4.871415 3.92176,-8.793168 8.79318,-8.793168 z" />
    <g
       aria-label="TEMIR YOʻL VOKZLI"
       id="text7549"
       style="font-size:9.80559px;line-height:1.5;font-family:'Russian Road Sign';-inkscape-font-specification:'Russian Road Sign';text-align:center;letter-spacing:0px;text-anchor:middle;fill:#ffffff;fill-rule:evenodd;stroke-width:6.86401;stroke-linecap:round;stroke-linejoin:round;paint-order:stroke fill markers">
      <path
         d="m 163.14113,169.21497 v 0.82367 h 1.51006 v 4.66746 h 0.96095 v -4.66746 h 1.51006 v -0.82367 z"
         style="text-align:start;text-anchor:start"
         id="path8801" />
      <path
         d="m 168.63226,174.7061 h 3.50059 v -0.82367 h -2.53965 v -1.64734 h 1.99054 v -0.82367 h -1.99054 v -1.30414 h 2.47101 v -0.89231 h -3.43195 z"
         style="text-align:start;text-anchor:start"
         id="path8803" />
      <path
         d="m 173.84882,174.7061 h 0.96095 v -3.98107 l 1.64734,2.88284 1.64734,-2.88284 0.0686,3.98107 h 0.89231 v -5.49113 h -1.09823 l -1.51006,2.53965 -1.51006,-2.53965 h -1.09823 z"
         style="text-align:start;text-anchor:start"
         id="path8805" />
      <path
         d="m 180.78138,174.7061 h 0.96095 v -5.49113 h -0.96095 z"
         style="text-align:start;text-anchor:start"
         id="path8807" />
      <path
         d="m 183.5956,169.21497 v 5.49113 h 0.96094 v -2.19645 h 0.54912 c 0.61775,0 0.75503,0.38242 1.00017,0.84328 0.25494,0.49028 0.43144,1.06881 0.64717,1.35317 h 1.16686 c -0.61775,-0.27456 -0.89231,-2.33373 -1.78462,-2.53965 0.54912,-0.20591 1.02959,-0.68639 1.02959,-1.44142 0,-0.54911 -0.3432,-1.51006 -1.71598,-1.51006 z m 0.96094,0.82367 h 0.61776 c 0.54911,0 1.02958,0.23533 1.02958,0.82367 0,0.58833 -0.48047,0.82367 -1.02958,0.82367 h -0.61776 z"
         style="text-align:start;text-anchor:start"
         id="path8809" />
      <path
         d="m 195.98005,174.7061 h 0.96094 v -2.19645 l 1.71598,-3.29468 h -1.09822 l -1.09823,2.26509 -1.09823,-2.26509 h -1.09822 l 1.71598,3.29468 z"
         style="text-align:start;text-anchor:start"
         id="path8811" />
      <path
         d="m 202.2262,169.07769 c -1.51006,0 -2.23567,1.29434 -2.23567,2.88285 0,1.5885 0.72561,2.88284 2.23567,2.88284 1.51006,0 2.23567,-1.29434 2.23567,-2.88284 0,-1.58851 -0.72561,-2.88285 -2.23567,-2.88285 z m 0,0.89231 c 0.75503,0 1.30414,0.75503 1.30414,1.99054 0,1.2355 -0.54911,1.99053 -1.30414,1.99053 -0.75503,0 -1.30414,-0.75503 -1.30414,-1.99053 0,-1.23551 0.54911,-1.99054 1.30414,-1.99054 z"
         style="text-align:start;text-anchor:start"
         id="path8813" />
      <path
         d="m 206.32493,172.23509 c 0.30398,0 0.54912,-0.24514 0.54912,-0.54911 0,-0.30397 -0.24514,-0.54911 -0.54912,-0.54911 -0.0686,0 -0.14708,0.01 -0.20591,0.0392 v -0.0686 c 0,-0.3432 0.43144,-0.60795 0.43144,-0.60795 l -0.0686,-0.16669 c 0,0 -0.73542,0.41183 -0.73542,1.09822 0,0.48048 0.15689,0.61776 0.21573,0.66678 0.0981,0.0785 0.22552,0.13728 0.3628,0.13728 z"
         style="text-align:start;text-anchor:start"
         id="path8815" />
      <path
         d="m 208.40373,174.7061 h 3.43195 v -0.82367 h -2.47101 v -4.66746 h -0.96094 z"
         style="text-align:start;text-anchor:start"
         id="path8817" />
      <path
         d="m 219.62132,174.7061 h 1.2355 l 1.51006,-5.49113 h -1.02959 l -1.09822,4.11835 -1.09823,-4.11835 h -1.09822 z"
         style="text-align:start;text-anchor:start"
         id="path8819" />
      <path
         d="m 225.93611,169.07769 c -1.51006,0 -2.23568,1.29434 -2.23568,2.88285 0,1.5885 0.72562,2.88284 2.23568,2.88284 1.51006,0 2.23567,-1.29434 2.23567,-2.88284 0,-1.58851 -0.72561,-2.88285 -2.23567,-2.88285 z m 0,0.89231 c 0.75503,0 1.30414,0.75503 1.30414,1.99054 0,1.2355 -0.54911,1.99053 -1.30414,1.99053 -0.75503,0 -1.30415,-0.75503 -1.30415,-1.99053 0,-1.23551 0.54912,-1.99054 1.30415,-1.99054 z"
         style="text-align:start;text-anchor:start"
         id="path8821" />
      <path
         d="m 232.7706,174.7061 h 1.2355 l -2.1082,-2.91226 1.97093,-2.57887 h -1.23551 l -1.91209,2.58868 z m -2.05917,-5.49113 h -0.96095 v 5.49113 h 0.96095 z"
         style="text-align:start;text-anchor:start"
         id="path8823" />
      <path
         d="m 235.42792,174.7061 h 3.70651 v -0.82367 h -2.53965 l 2.47101,-3.77515 v -0.89231 h -3.56924 v 0.82367 h 2.40237 l -2.471,3.77515 z"
         style="text-align:start;text-anchor:start"
         id="path8825" />
      <path
         d="m 240.91904,174.7061 h 3.43196 v -0.82367 h -2.47101 v -4.66746 h -0.96095 z"
         style="text-align:start;text-anchor:start"
         id="path8827" />
      <path
         d="m 245.86106,174.7061 h 0.96095 v -5.49113 h -0.96095 z"
         style="text-align:start;text-anchor:start"
         id="path8829" />
    </g>
    <g
       aria-label="RAILWAY STATION"
       id="text7553"
       style="font-size:9.80559px;line-height:1.5;font-family:'Russian Road Sign';-inkscape-font-specification:'Russian Road Sign';text-align:center;letter-spacing:0px;text-anchor:middle;fill:#ffffff;fill-rule:evenodd;stroke-width:6.86401;stroke-linecap:round;stroke-linejoin:round;paint-order:stroke fill markers">
      <path
         d="m 165.40631,176.65444 v 5.49113 h 0.96094 v -2.19645 h 0.54912 c 0.61775,0 0.75503,0.38241 1.00017,0.84328 0.25494,0.49028 0.43144,1.06881 0.64717,1.35317 h 1.16686 c -0.61775,-0.27456 -0.89231,-2.33373 -1.78462,-2.53965 0.54912,-0.20592 1.02959,-0.68639 1.02959,-1.44142 0,-0.54911 -0.34319,-1.51006 -1.71598,-1.51006 z m 0.96094,0.82367 h 0.61776 c 0.54911,0 1.02958,0.23533 1.02958,0.82367 0,0.58833 -0.48047,0.82367 -1.02958,0.82367 h -0.61776 z"
         style="text-align:start;text-anchor:start"
         id="path8832" />
      <path
         d="m 172.81932,180.22367 0.6864,-2.33373 0.68639,2.33373 z m 0.13728,-3.56923 -1.78461,5.49113 h 1.02958 l 0.3432,-1.09823 h 1.92189 l 0.3432,1.09823 h 1.02959 l -1.78462,-5.49113 z"
         style="text-align:start;text-anchor:start"
         id="path8834" />
      <path
         d="m 177.41814,182.14557 h 0.96095 v -5.49113 h -0.96095 z"
         style="text-align:start;text-anchor:start"
         id="path8836" />
      <path
         d="m 180.16371,182.14557 h 3.43196 v -0.82367 h -2.47101 v -4.66746 h -0.96095 z"
         style="text-align:start;text-anchor:start"
         id="path8838" />
      <path
         d="m 186.06667,176.65444 h -1.02959 l 1.16687,5.49113 h 1.09823 l 0.8923,-3.61826 0.89231,3.61826 h 1.09823 l 1.16686,-5.49113 h -1.02958 l -0.75503,3.89282 -0.89231,-3.89282 h -0.96095 l -0.82367,3.83398 h -0.0588 z"
         style="text-align:start;text-anchor:start"
         id="path8840" />
      <path
         d="m 194.50929,180.22367 0.68639,-2.33373 0.68639,2.33373 z m 0.13727,-3.56923 -1.78461,5.49113 h 1.02958 l 0.3432,-1.09823 h 1.9219 l 0.34319,1.09823 h 1.02959 l -1.78462,-5.49113 z"
         style="text-align:start;text-anchor:start"
         id="path8842" />
      <path
         d="m 200.61816,182.14557 h 0.96095 v -2.19645 l 1.71598,-3.29468 h -1.09823 l -1.09822,2.26509 -1.09823,-2.26509 h -1.09823 l 1.71598,3.29468 z"
         style="text-align:start;text-anchor:start"
         id="path8844" />
      <path
         d="m 209.74716,181.3219 c 0,0 0.92172,0.96095 2.15723,0.96095 1.37278,0 2.1082,-1.02959 2.1082,-1.71598 0,-0.82367 -0.59814,-1.37278 -1.55909,-1.5787 -0.75503,-0.15689 -1.44142,-0.24514 -1.44142,-0.77464 0,-0.26475 0.20592,-0.80406 1.02959,-0.80406 0.7158,0 1.21589,0.54911 1.21589,0.54911 l 0.63736,-0.68639 c 0,0 -0.89231,-0.75503 -1.85325,-0.75503 -1.16687,0 -1.99054,0.75503 -1.99054,1.71598 0,0.42164 0.18631,1.31395 1.71598,1.53948 1.2257,0.1765 1.2355,0.63736 1.2355,0.85308 v 0.01 c 0,0.20592 -0.23533,0.75503 -1.07861,0.75503 -0.96095,0 -1.50026,-0.64717 -1.50026,-0.64717 z"
         style="text-align:start;text-anchor:start"
         id="path8846" />
      <path
         d="m 215.2481,176.65444 v 0.82367 h 1.51006 v 4.66746 h 0.96095 v -4.66746 h 1.51006 v -0.82367 z"
         style="text-align:start;text-anchor:start"
         id="path8848" />
      <path
         d="m 222.18065,180.22367 0.68639,-2.33373 0.68639,2.33373 z m 0.13727,-3.56923 -1.78461,5.49113 h 1.02958 l 0.3432,-1.09823 h 1.9219 l 0.34319,1.09823 h 1.02959 l -1.78462,-5.49113 z"
         style="text-align:start;text-anchor:start"
         id="path8850" />
      <path
         d="m 226.50491,176.65444 v 0.82367 h 1.51006 v 4.66746 h 0.96094 v -4.66746 h 1.51007 v -0.82367 z"
         style="text-align:start;text-anchor:start"
         id="path8852" />
      <path
         d="m 231.99603,182.14557 h 0.96095 v -5.49113 h -0.96095 z"
         style="text-align:start;text-anchor:start"
         id="path8854" />
      <path
         d="m 236.73214,176.51716 c -1.51006,0 -2.23567,1.29434 -2.23567,2.88284 0,1.58851 0.72561,2.88285 2.23567,2.88285 1.51006,0 2.23567,-1.29434 2.23567,-2.88285 0,-1.5885 -0.72561,-2.88284 -2.23567,-2.88284 z m 0,0.89231 c 0.75503,0 1.30414,0.75503 1.30414,1.99053 0,1.23551 -0.54911,1.99054 -1.30414,1.99054 -0.75503,0 -1.30414,-0.75503 -1.30414,-1.99054 0,-1.2355 0.54911,-1.99053 1.30414,-1.99053 z"
         style="text-align:start;text-anchor:start"
         id="path8856" />
      <path
         d="m 240.43864,182.14557 h 0.96095 v -3.98107 l 2.05918,3.98107 h 1.09822 v -5.49113 h -0.96095 v 3.91243 l -2.05917,-3.91243 h -1.09823 z"
         style="text-align:start;text-anchor:start"
         id="path8858" />
    </g>
    <path
       id="rect7557"
       style="fill:#7c4e24;fill-rule:evenodd;stroke-width:7.65937;stroke-linecap:round;stroke-linejoin:round;paint-order:stroke fill markers"
       d="m 277.6527,76.360553 h 101.89982 c 4.87141,0 8.79317,3.921753 8.79317,8.793168 V 187.05355 c 0,4.8714 -3.92176,8.79316 -8.79317,8.79316 H 277.6527 c -4.87143,0 -8.79319,-3.92176 -8.79319,-8.79316 V 85.153721 c 0,-4.871415 3.92176,-8.793168 8.79319,-8.793168 z" />
    <g
       aria-label="AEROPORT"
       id="text7563"
       style="font-size:9.80559px;line-height:1.5;font-family:'Russian Road Sign';-inkscape-font-specification:'Russian Road Sign';text-align:center;letter-spacing:0px;text-anchor:middle;fill:#ffffff;fill-rule:evenodd;stroke-width:6.86401;stroke-linecap:round;stroke-linejoin:round;paint-order:stroke fill markers">
      <path
         d="m 308.07949,172.7842 0.68639,-2.33373 0.68639,2.33373 z m 0.13728,-3.56923 -1.78462,5.49113 h 1.02959 l 0.34319,-1.09823 h 1.9219 l 0.34319,1.09823 h 1.02959 l -1.78462,-5.49113 z"
         style="text-align:start;text-anchor:start"
         id="path8861" />
      <path
         d="m 312.6783,174.7061 h 3.5006 v -0.82367 h -2.53965 v -1.64734 h 1.99053 v -0.82367 h -1.99053 v -1.30414 h 2.47101 v -0.89231 h -3.43196 z"
         style="text-align:start;text-anchor:start"
         id="path8863" />
      <path
         d="m 318.03215,169.21497 v 5.49113 h 0.96095 v -2.19645 h 0.54911 c 0.61775,0 0.75503,0.38242 1.00017,0.84328 0.25495,0.49028 0.43145,1.06881 0.64717,1.35317 h 1.16687 c -0.61776,-0.27456 -0.89231,-2.33373 -1.78462,-2.53965 0.54911,-0.20591 1.02958,-0.68639 1.02958,-1.44142 0,-0.54911 -0.34319,-1.51006 -1.71597,-1.51006 z m 0.96095,0.82367 h 0.61775 c 0.54911,0 1.02959,0.23533 1.02959,0.82367 0,0.58833 -0.48048,0.82367 -1.02959,0.82367 h -0.61775 z"
         style="text-align:start;text-anchor:start"
         id="path8865" />
      <path
         d="m 325.99428,169.07769 c -1.51006,0 -2.23567,1.29434 -2.23567,2.88285 0,1.5885 0.72561,2.88284 2.23567,2.88284 1.51006,0 2.23568,-1.29434 2.23568,-2.88284 0,-1.58851 -0.72562,-2.88285 -2.23568,-2.88285 z m 0,0.89231 c 0.75503,0 1.30415,0.75503 1.30415,1.99054 0,1.2355 -0.54912,1.99053 -1.30415,1.99053 -0.75503,0 -1.30414,-0.75503 -1.30414,-1.99053 0,-1.23551 0.54911,-1.99054 1.30414,-1.99054 z"
         style="text-align:start;text-anchor:start"
         id="path8867" />
      <path
         d="m 329.76943,169.21497 v 5.49113 h 0.96094 v -1.9219 h 0.89231 c 1.30415,0 1.78462,-1.02958 1.78462,-1.78461 0,-0.75503 -0.48047,-1.78462 -1.78462,-1.78462 z m 0.96094,0.82367 h 0.61776 c 0.54911,0 1.09822,0.27456 1.09822,0.96095 0,0.68639 -0.54911,0.96095 -1.09822,0.96095 h -0.61776 z"
         style="text-align:start;text-anchor:start"
         id="path8869" />
      <path
         d="m 337.25109,169.07769 c -1.51006,0 -2.23568,1.29434 -2.23568,2.88285 0,1.5885 0.72562,2.88284 2.23568,2.88284 1.51006,0 2.23567,-1.29434 2.23567,-2.88284 0,-1.58851 -0.72561,-2.88285 -2.23567,-2.88285 z m 0,0.89231 c 0.75503,0 1.30414,0.75503 1.30414,1.99054 0,1.2355 -0.54911,1.99053 -1.30414,1.99053 -0.75503,0 -1.30415,-0.75503 -1.30415,-1.99053 0,-1.23551 0.54912,-1.99054 1.30415,-1.99054 z"
         style="text-align:start;text-anchor:start"
         id="path8871" />
      <path
         d="m 341.09487,169.21497 v 5.49113 h 0.96095 v -2.19645 h 0.54911 c 0.61775,0 0.75503,0.38242 1.00017,0.84328 0.25495,0.49028 0.43145,1.06881 0.64717,1.35317 h 1.16687 c -0.61776,-0.27456 -0.89231,-2.33373 -1.78462,-2.53965 0.54911,-0.20591 1.02959,-0.68639 1.02959,-1.44142 0,-0.54911 -0.3432,-1.51006 -1.71598,-1.51006 z m 0.96095,0.82367 h 0.61775 c 0.54911,0 1.02959,0.23533 1.02959,0.82367 0,0.58833 -0.48048,0.82367 -1.02959,0.82367 h -0.61775 z"
         style="text-align:start;text-anchor:start"
         id="path8873" />
      <path
         d="m 346.79191,169.21497 v 0.82367 h 1.51006 v 4.66746 h 0.96095 v -4.66746 h 1.51006 v -0.82367 z"
         style="text-align:start;text-anchor:start"
         id="path8875" />
    </g>
    <g
       aria-label="AIRPORT"
       id="text7567"
       style="font-size:9.80559px;line-height:1.5;font-family:'Russian Road Sign';-inkscape-font-specification:'Russian Road Sign';text-align:center;letter-spacing:0px;text-anchor:middle;fill:#ffffff;fill-rule:evenodd;stroke-width:6.86401;stroke-linecap:round;stroke-linejoin:round;paint-order:stroke fill markers">
      <path
         d="m 312.23223,180.22367 0.68639,-2.33373 0.68639,2.33373 z m 0.13728,-3.56923 -1.78462,5.49113 h 1.02959 l 0.34319,-1.09823 h 1.9219 l 0.34319,1.09823 h 1.02959 l -1.78462,-5.49113 z"
         style="text-align:start;text-anchor:start"
         id="path8878" />
      <path
         d="m 316.83104,182.14557 h 0.96095 v -5.49113 h -0.96095 z"
         style="text-align:start;text-anchor:start"
         id="path8880" />
      <path
         d="m 319.64525,176.65444 v 5.49113 h 0.96095 v -2.19645 h 0.54911 c 0.61776,0 0.75504,0.38241 1.00017,0.84328 0.25495,0.49028 0.43145,1.06881 0.64717,1.35317 h 1.16687 c -0.61775,-0.27456 -0.89231,-2.33373 -1.78462,-2.53965 0.54911,-0.20592 1.02959,-0.68639 1.02959,-1.44142 0,-0.54911 -0.3432,-1.51006 -1.71598,-1.51006 z m 0.96095,0.82367 h 0.61775 c 0.54912,0 1.02959,0.23533 1.02959,0.82367 0,0.58833 -0.48047,0.82367 -1.02959,0.82367 h -0.61775 z"
         style="text-align:start;text-anchor:start"
         id="path8882" />
      <path
         d="m 325.61685,176.65444 v 5.49113 h 0.96095 v -1.9219 h 0.89231 c 1.30414,0 1.78461,-1.02958 1.78461,-1.78461 0,-0.75503 -0.48047,-1.78462 -1.78461,-1.78462 z m 0.96095,0.82367 h 0.61775 c 0.54911,0 1.09823,0.27455 1.09823,0.96095 0,0.68639 -0.54912,0.96094 -1.09823,0.96094 h -0.61775 z"
         style="text-align:start;text-anchor:start"
         id="path8884" />
      <path
         d="m 333.09851,176.51716 c -1.51006,0 -2.23568,1.29434 -2.23568,2.88284 0,1.58851 0.72562,2.88285 2.23568,2.88285 1.51006,0 2.23567,-1.29434 2.23567,-2.88285 0,-1.5885 -0.72561,-2.88284 -2.23567,-2.88284 z m 0,0.89231 c 0.75503,0 1.30414,0.75503 1.30414,1.99053 0,1.23551 -0.54911,1.99054 -1.30414,1.99054 -0.75503,0 -1.30414,-0.75503 -1.30414,-1.99054 0,-1.2355 0.54911,-1.99053 1.30414,-1.99053 z"
         style="text-align:start;text-anchor:start"
         id="path8886" />
      <path
         d="m 336.94229,176.65444 v 5.49113 h 0.96095 v -2.19645 h 0.54911 c 0.61776,0 0.75504,0.38241 1.00017,0.84328 0.25495,0.49028 0.43145,1.06881 0.64717,1.35317 h 1.16687 c -0.61775,-0.27456 -0.89231,-2.33373 -1.78462,-2.53965 0.54911,-0.20592 1.02959,-0.68639 1.02959,-1.44142 0,-0.54911 -0.3432,-1.51006 -1.71598,-1.51006 z m 0.96095,0.82367 h 0.61775 c 0.54912,0 1.02959,0.23533 1.02959,0.82367 0,0.58833 -0.48047,0.82367 -1.02959,0.82367 h -0.61775 z"
         style="text-align:start;text-anchor:start"
         id="path8888" />
      <path
         d="m 342.63934,176.65444 v 0.82367 h 1.51006 v 4.66746 h 0.96094 v -4.66746 h 1.51007 v -0.82367 z"
         style="text-align:start;text-anchor:start"
         id="path8890" />
    </g>
    <path
       id="rect4819-7-8"
       style="fill:#ffffff;fill-rule:evenodd;stroke-width:1.02264;stroke-linecap:round;stroke-linejoin:round;paint-order:stroke fill markers"
       d="m 231.17365,-39.846676 c 0,0 -1.44526,1.248238 -3.25151,2.583912 -1.90323,1.40742 -4.17254,2.959116 -4.17254,5.150925 0.006,1.35075 0.35153,2.676376 1.00206,3.844835 h 6.42199 6.42208 c 0.6505,-1.168459 0.99602,-2.494085 1.002,-3.844835 5e-5,-2.191809 -2.26928,-3.743505 -4.17256,-5.150925 -1.8062,-1.335674 -3.25152,-2.583912 -3.25152,-2.583912 z m -33.22264,8.926467 a 3.9348439,3.9348439 0 0 0 -3.9348,3.934844 3.9348439,3.9348439 0 0 0 3.9348,3.934814 3.9348439,3.9348439 0 0 0 2.28687,-0.743865 3.4019643,3.4019643 0 0 1 -1.15477,0.211055 3.4019643,3.4019643 0 0 1 -3.40201,-3.402004 3.4019643,3.4019643 0 0 1 3.40201,-3.402034 3.4019643,3.4019643 0 0 1 1.15776,0.20334 3.9348439,3.9348439 0 0 0 -2.28986,-0.73615 z m 1.788,2.97416 -0.18664,0.804402 -0.81811,-0.06926 0.70223,0.425627 -0.31745,0.760537 0.61997,-0.539253 0.62151,0.539253 -0.31922,-0.760537 0.70247,-0.425627 -0.81836,0.06926 z m 25.4041,1.863019 v 2.969164 h 12.06138 v -2.969164 z m -28.04109,4.661947 c 0,0 -2.28444,1.950543 -5.92067,3.637534 -2.7038,1.254419 -6.41381,1.925389 -9.11362,3.865793 -4.64585,3.338983 -7.44852,7.5377647 -7.44847,12.0601307 0,2.37306941 0.49887,4.6454856 1.40742,6.7462508 h 21.07534 21.0753 c 0.90858,-2.1007652 1.40745,-4.37318139 1.40748,-6.7462508 2e-5,-4.522366 -2.80265,-8.7211477 -7.44853,-12.0601307 -2.69975,-1.940404 -6.40979,-2.611374 -9.11357,-3.865793 -3.63625,-1.686991 -5.92068,-3.637534 -5.92068,-3.637534 z m 28.04109,0.578154 V 4.8886255 h 12.06138 V -20.842929 Z M 172.6239,6.9377493 V 35.90465 h 16.93445 V 24.097696 c 0,-4.260146 7.68993,-8.51929 7.68993,-8.51929 0,0 7.68971,4.259144 7.68971,8.51929 V 35.90465 H 239.292 V 6.9377493 Z" />
    <path
       id="path7742"
       style="fill:#ffffff;fill-rule:evenodd;stroke-width:11.7183;stroke-linecap:round;stroke-linejoin:round;paint-order:stroke fill markers"
       d="m 291.2891,-35.898268 c -0.73014,0 -1.3177,0.587939 -1.3177,1.317914 v 1.610725 l -3.82527,3.873243 v 0.564409 0.843865 60.148411 h -1.35509 c -0.44347,0 -0.80049,0.356695 -0.80049,0.799941 v 2.765647 c 0,0.443482 0.35702,0.799939 0.80049,0.799939 h 87.61561 c 0.44344,0 0.79991,-0.356457 0.79991,-0.799939 V 33.26024 c 0,-0.443246 -0.35647,-0.799941 -0.79991,-0.799941 h -0.67966 v -50.042426 h 0.67765 c 0.44315,0 0.79991,-0.357375 0.79991,-0.800502 v -2.956719 c 0,-0.443216 -0.35676,-0.799909 -0.79991,-0.799909 h -45.46801 c -0.44302,0 -0.80053,0.356693 -0.80053,0.799909 v 2.956719 c 0,0.443127 0.35751,0.800502 0.80053,0.800502 h 0.67717 V 4.0634192 h -31.38204 v -31.7515312 -0.843865 -0.564409 l -3.62474,-3.86996 v -1.614008 c 0,-0.729975 -0.58796,-1.317914 -1.31792,-1.317914 z m -1.62697,11.476011 h 3.05366 c 0.3126,0 0.56425,0.251579 0.56425,0.564055 v 4.726802 c 0,0.312621 -0.25165,0.564203 -0.56425,0.564203 h -3.05366 c -0.31245,0 -0.56394,-0.251582 -0.56394,-0.564203 v -4.726802 c 0,-0.312476 0.25149,-0.564055 0.56394,-0.564055 z m 40.63142,6.84013 h 38.75374 v 50.042426 h -6.4879 v -43.467887 c 0,-0.443333 -0.35664,-0.799939 -0.79995,-0.799939 h -24.17815 c -0.44307,0 -0.79991,0.356606 -0.79991,0.799939 v 43.467887 h -6.48783 z m -40.63142,3.294497 h 3.05366 c 0.3126,0 0.56425,0.251523 0.56425,0.563877 v 1.302038 c 0,0.312592 -0.25165,0.564055 -0.56425,0.564055 h -3.05366 c -0.31245,0 -0.56394,-0.251463 -0.56394,-0.564055 v -1.302038 c 0,-0.312354 0.25149,-0.563877 0.56394,-0.563877 z m 50.21582,5.9938117 h 19.5851 c 0.44325,0 0.80049,0.35696 0.80049,0.799939 v 9.0712841 h -2.54018 c -0.7094,-0.89769419 -1.45092,-1.77924619 -2.20491,-2.5788011 -0.83349,-0.884036 -1.63518,-1.643745 -2.47875,-2.347439 -0.84579,-0.705292 -1.92884,-2.084922 -3.44992,-2.036741 v 0 c -1.59227,0.05093 -2.431,1.127429 -3.44554,2.138603 -0.80463,0.802243 -1.47442,1.633104 -2.2896,2.52497171 -0.67207,0.7350866 -1.33265,1.5205128 -1.96927,2.29940639 h -2.80678 v -9.0712841 c 0,-0.442979 0.35645,-0.799939 0.79992,-0.799939 z m -50.21582,0.291338 h 3.05366 c 0.3126,0 0.56425,0.251878 0.56425,0.564322 V 32.460299 h -4.18185 V -7.4381583 c 0,-0.312444 0.25149,-0.564322 0.56394,-0.564322 z m 60.00855,6.017757 c 1.99854,-0.0634 5.86976,4.6165747 8.30834,8.2337437 1.50551,2.23325 2.28164,4.0933426 2.28164,4.0933426 v 1.081434 h 0.003 v 21.036502 h -3.02667 V 11.313717 c 0,-0.546968 -0.44032,-0.987288 -0.9873,-0.987288 h -13.15853 c -0.54687,0 -0.98703,0.44032 -0.98703,0.987288 v 21.146582 h -3.02612 V 10.75194 c 0,0 0,0 0.003,0 v -0.410583 c 0,0 1.4138,-2.8425296 2.37461,-4.0934902 2.36194,-3.0748684 6.33069,-8.1737071 8.21698,-8.2337431 z M 296.23176,8.343253 h 31.38204 v 24.117046 h -8.86973 V 17.310278 c 0,0 -3.24279,-6.368153 -7.27102,-6.368153 -4.02796,0 -7.27096,6.368153 -7.27096,6.368153 v 15.150021 h -7.97033 z m 48.81954,5.440783 h 9.23814 c 0.31242,0 0.56433,0.251553 0.56433,0.563907 V 32.460299 H 344.48715 V 14.347943 c 0,-0.312354 0.25162,-0.563907 0.56415,-0.563907 z m -33.57825,1.855983 c 2.01409,0 3.63562,2.507237 3.63562,2.507237 v 14.313043 h -7.27104 V 18.147256 c 0,0 1.62179,-2.507237 3.63542,-2.507237 z" />
    <path
       id="path7705-2"
       style="fill:#ffffff;fill-rule:evenodd;stroke:none;stroke-width:1.98646;stroke-linecap:round;stroke-linejoin:round;stroke-dasharray:none;stroke-opacity:1;paint-order:stroke fill markers"
       d="m 329.4276,86.997395 c -2.7073,0 -4.88667,2.179563 -4.88667,4.886854 v 23.026181 l -30.3209,19.29802 c -0.1291,0.0615 -0.41582,0.20343 -0.78037,0.45805 -0.23011,0.16071 -0.48284,0.34364 -0.74731,0.69057 -0.26451,0.34694 -0.60884,1.12763 -0.27689,1.89776 0.35809,0.83077 1.22444,1.14458 1.73741,1.19891 0.51295,0.0543 0.91514,-0.0153 1.28239,-0.0914 0.65087,-0.13483 1.1372,-0.3237 1.25494,-0.37042 l 26.60944,-8.46115 1.24129,-0.35031 v 22.51282 l -7.06885,4.48572 c -0.14605,0.0703 -0.58642,0.28779 -1.1145,0.66347 -0.31186,0.22185 -0.64482,0.4755 -0.96568,0.90156 -0.32086,0.42605 -0.70424,1.29251 -0.34313,2.16924 0.35107,0.85234 1.20859,1.18535 1.70489,1.25727 0.49631,0.0719 0.87305,0.0205 1.21364,-0.0356 0.41302,-0.068 0.7275,-0.15559 0.95346,-0.22553 0,0 6.96256,-2.54769 10.58674,-2.48419 3.15505,0.0553 9.13485,2.48419 9.13485,2.48419 0.22598,0.0699 1.83274,0.15756 2.24576,0.22553 0.34057,0.056 0.71731,0.10747 1.21361,0.0356 0.49631,-0.0719 1.35382,-0.40493 1.7049,-1.25727 0.36113,-0.87673 -0.0222,-1.74319 -0.34314,-2.16924 -0.32086,-0.42606 -0.65378,-0.67971 -0.96565,-0.90156 -0.52808,-0.37568 -0.96848,-0.59315 -1.11453,-0.66347 l -7.06885,-4.48572 v -22.51282 l 1.2413,0.35031 26.60943,8.46115 c 0.11777,0.0467 0.60407,0.23559 1.25495,0.37042 0.36727,0.0761 0.76943,0.14572 1.28241,0.0914 0.51294,-0.0543 1.37932,-0.36814 1.73741,-1.19891 0.33192,-0.77013 -0.0124,-1.55082 -0.27689,-1.89776 -0.2645,-0.34693 -0.5172,-0.52986 -0.74734,-0.69057 -0.36454,-0.25462 -0.65127,-0.39651 -0.78036,-0.45805 L 334.31445,114.91043 V 91.884249 c 0,-2.707291 -2.17955,-4.886854 -4.88685,-4.886854 z" />
    <path
       id="path1770-49"
       style="fill:#ffffff;fill-rule:evenodd;stroke-width:19.8902;stroke-linecap:round;stroke-linejoin:round;paint-order:stroke fill markers"
       d="m 176.891,87.892417 a 7.1050863,7.1050863 0 0 0 -7.1047,7.10525 7.1050863,7.1050863 0 0 0 3.24115,5.960413 h -2.221 c -4.85409,0 -8.7622,3.90824 -8.7622,8.7622 v 5.56145 1.34983 11.34577 c 0,2.01424 1.62181,3.63602 3.63606,3.63602 h 0.69107 c 0.69963,0 1.34553,-0.20576 1.89886,-0.54557 -0.007,0.10351 -0.0185,0.20632 -0.0185,0.3112 v 25.4743 c 0,1.49438 0.75321,2.85816 2.00448,3.91835 h -9.77887 c -0.62497,0 -1.1281,0.50313 -1.1281,1.12811 0,0.62497 0.50313,1.1281 1.1281,1.1281 h 61.58021 c 0.62497,0 1.12811,-0.50313 1.12811,-1.1281 0,-0.62498 -0.50314,-1.12811 -1.12811,-1.12811 h -7.96375 c 2.08265,-0.88886 3.53558,-2.95087 3.53558,-5.36574 v -8.20507 c 0,-3.232 -2.60194,-5.83398 -5.83396,-5.83398 h -2.80355 v -1.11714 c 0,-1.42116 -1.1439,-2.56509 -2.56508,-2.56509 h -5.81316 c -1.42118,0 -2.56511,1.14393 -2.56511,2.56509 v 1.11714 H 195.245 c -3.23204,0 -5.83398,2.60198 -5.83398,5.83398 v 8.20507 c 0,2.41487 1.45293,4.47688 3.53563,5.36574 h -9.34995 c 1.25256,-1.05992 2.00797,-2.42332 2.00797,-3.91835 v -25.4743 c 0,-0.10482 -0.0106,-0.20778 -0.018,-0.3112 0.5534,0.33978 1.19925,0.54557 1.89886,0.54557 h 0.69104 c 2.01425,0 3.63551,-1.62181 3.63551,-3.63602 v -5.84841 l 27.74839,-1.70659 c 0.18518,-0.0106 0.36838,-0.0163 0.54848,-0.0103 1.15996,0.0371 1.82742,0.14363 2.64594,0.82385 1.08807,0.9042 1.62287,2.27939 1.62287,3.86757 v 0.54153 h 21.37347 l -4.23532,-15.85762 c -1.08162,-0.40221 -2.20099,-0.76911 -3.18111,-0.96934 -1.67699,-0.34257 -3.38336,-0.41055 -4.66543,-0.48555 -1.93601,-0.11315 -5.79874,0.47284 -5.79874,0.47284 -0.81851,0 -1.47738,-0.65891 -1.47738,-1.47741 v -1.31112 l -34.58117,7.15893 v -2.87224 l 32.26027,-7.12487 c 0,0 2.39319,-0.62093 3.61699,-0.76613 1.1907,-0.14129 2.39535,-0.26408 3.59794,-0.29674 0.20044,-0.006 0.40071,-0.009 0.60102,-0.009 0.20029,0 0.40056,0.003 0.6004,0.009 0.5331,0.0157 1.06484,0.054 1.59348,0.12125 1.42158,0.18087 2.96706,0.46943 4.28437,1.13907 0.69448,0.35306 1.22674,0.90825 1.82438,1.4491 l -0.003,-0.0151 c -0.65627,-2.77176 -2.15911,-4.934603 -4.88887,-6.399188 -0.84934,-0.455689 -1.7568,-0.816819 -2.69557,-1.064586 -0.70721,-0.186639 -1.95995,-0.3645 -3.1459,-0.400118 v 0 c -0.39528,-0.01183 -0.78303,-0.008 -1.1408,0.01685 -1.96056,0.135265 -5.74448,1.326157 -5.74448,1.326157 l -31.23842,8.562445 -0.008,-0.004 c -1.18515,-3.43245 -4.4283,-5.88938 -8.27376,-5.88938 h -2.29431 a 7.1050863,7.1050863 0 0 0 3.24057,-5.960407 7.1050863,7.1050863 0 0 0 -7.10526,-7.105248 z m 0,1.695654 a 5.4093519,5.4093519 0 0 1 5.40959,5.409596 5.4093519,5.4093519 0 0 1 -5.40959,5.409063 5.4093519,5.4093519 0 0 1 -5.40907,-5.409063 5.4093519,5.4093519 0 0 1 5.40907,-5.409596 z m -6.01123,13.052359 h 12.09633 c 3.92239,0 7.0804,3.15831 7.0804,7.08041 v 1.49128 c 0,0.0756 -0.008,0.14892 -0.0108,0.224 0.007,0.0678 0.0108,0.13639 0.0108,0.20609 v 10.26271 3.73996 2.33996 c 0,1.06423 -0.85693,1.92137 -1.92137,1.92137 h -0.60907 c -1.06442,0 -1.92135,-0.85714 -1.92135,-1.92137 v -5.4587 -7.99032 -1.56169 c 0,-0.42979 -0.34619,-0.77593 -0.77595,-0.77593 h -0.20322 c -0.42979,0 -0.77595,0.34614 -0.77595,0.77593 v 2.30068 c -2e-5,0.003 0,0.004 0,0.007 v 12.6956 c 0,0.19477 0.0281,0.38176 0.0572,0.56808 v 28.1664 c 0,1.80135 -1.36072,3.25154 -3.05064,3.25154 -1.68987,0 -3.05062,-1.45019 -3.05062,-3.25154 v -17.35755 l -0.0151,-8.47525 c 0,-0.41333 -0.33261,-0.74593 -0.74589,-0.74593 h -0.17553 c -0.4133,0 -0.74649,0.3326 -0.74649,0.74593 v 8.47525 l -0.0151,17.35755 c -0.003,1.80135 -1.36099,3.25154 -3.05065,3.25154 -1.68989,0 -3.05006,-1.45019 -3.05006,-3.25154 v -28.73448 -0.28867 -5.16251 -7.24442 -2.30759 c 0,-0.4298 -0.34613,-0.77594 -0.77595,-0.77594 h -0.2032 c -0.42981,0 -0.77594,0.34614 -0.77594,0.77594 v 1.56168 7.99033 5.45869 c 0,1.06423 -0.99309,1.92137 -2.22623,1.92137 -1.23309,0 -2.22562,-0.85714 -2.22562,-1.92137 v -6.08051 -9.73327 -0.52941 c 0,-0.0665 0.004,-0.1321 0.0116,-0.19686 -0.003,-0.078 -0.0116,-0.1541 -0.0116,-0.23267 v -1.49127 c 0,-3.9221 3.15746,-7.08042 7.07988,-7.08042 z m 29.98557,36.91418 h 5.31035 c 0.5489,0 1.01841,0.46952 1.01841,1.01841 v 0.79382 0 1.85037 0 h 1.79781 1.19915 v 16.17227 h -13.34164 v -16.17227 h 1.19912 1.79839 v -1.85037 -0.79382 c 0,-0.54889 0.46953,-1.01841 1.01841,-1.01841 z m 0,0.88678 c -0.0729,0 -0.1316,0.0587 -0.1316,0.13163 v 0.79382 1.85037 h 5.573 v -1.85037 -0.79382 c 0,-0.0729 -0.0587,-0.13163 -0.13163,-0.13163 z m -5.86629,2.78737 v 16.14919 c -2.0892,-0.11753 -3.73763,-1.8334 -3.73763,-3.95302 v -8.24317 c 0,-2.11957 1.64843,-3.83549 3.73763,-3.953 z m 17.04235,0 c 2.0892,0.11751 3.73766,1.83343 3.73766,3.953 v 8.24317 c 0,2.11962 -1.64846,3.83549 -3.73766,3.95302 z" />
    <path
       id="rect1772-2"
       style="fill:#ffffff;fill-rule:evenodd;stroke:none;stroke-width:3.94465;stroke-linecap:round;stroke-linejoin:round;stroke-dasharray:none;stroke-opacity:1;paint-order:stroke fill markers"
       d="m 190.43653,128.22918 v 2.25624 h 60.32431 c 0.62497,0 1.1281,-0.50316 1.1281,-1.12814 0,-0.62494 -0.50313,-1.1281 -1.1281,-1.1281 z"
       sodipodi:nodetypes="ccsssc" />
  </g>
  <metadata
     id="metadata6274">
    <rdf:RDF>
      <cc:Work
         rdf:about="">
        <dc:title>5.47.1 Turizm obyektlari</dc:title>
      </cc:Work>
    </rdf:RDF>
  </metadata>
</svg>
